<svg id="画像作成用レイヤー" xmlns="http://www.w3.org/2000/svg" xmlns:xlink="http://www.w3.org/1999/xlink" viewBox="0 0 620 575">
  <defs>
    <style>
      .cls-1 {
        fill: #fff;
        filter: url(#luminosity-invert-noclip);
      }

      .cls-2 {
        fill: none;
      }

      .cls-3 {
        clip-path: url(#clip-path);
      }

      .cls-4 {
        mask: url(#mask);
      }

      .cls-5 {
        fill: #eee110;
        opacity: 0.5;
        isolation: isolate;
      }
    </style>
    <clipPath id="clip-path">
      <rect class="cls-2" width="620" height="575"/>
    </clipPath>
    <filter id="luminosity-invert-noclip" x="-190" y="0" width="1000" height="575" filterUnits="userSpaceOnUse" color-interpolation-filters="sRGB">
      <feColorMatrix values="-1 0 0 0 1 0 -1 0 0 1 0 0 -1 0 1 0 0 0 1 0" result="invert"/>
      <feFlood flood-color="#fff" result="bg"/>
      <feBlend in="invert" in2="bg"/>
    </filter>
    <mask id="mask" x="-190" y="0" width="1000" height="575" maskUnits="userSpaceOnUse">
      <path class="cls-1" d="M597.5,287.5C597.5,446,468.94,575,310,575S22.5,446.44,22.5,287.5,151.06,0,310,0,597.5,128.56,597.5,287.5ZM433.41,299.19l-.47-.47L326.83,345.47l.47.47Zm-10.28,40.67L579.27,270.2a1.71,1.71,0,0,0,.94-2.34l-15-33.19a1.71,1.71,0,0,0-2.34-.93l-127.62,57Zm11.22-41.61-.47-.47,132.3-58.43.47.47Zm-3.74,14.49-.47-.47,141.65-62.64.47.47ZM427.8,324l-.47-.47L575.06,258l.47.47Zm-3.27,10.75-.47-.47L578.8,266l.47.47Zm4.67-20.57-.47-.47L331,354.82l.47.47Zm-2.8,11.22-.47-.47-91.16,38.8.47.47Zm-2.34,10.28-.47-.47-84.15,36.93.47.47Zm-24.78,94,73.39-284.23L195.47,73.86l-94,363.7,202.42,52.36Zm-97.24,57.5,20.57-79,75.26,19.63ZM423.6,180.91,223.52,129l.93-2.8,200.08,51.89Zm-8.41,33.19L215.1,162.22l.93-2.8L416.12,211.3Zm-8.41,34.13L206.69,196.81l.93-2.8L407.7,245.89Zm-7.95,36L198.74,232.34l.93-2.8,200.08,51.89ZM371.24,317,189.39,269.74l.47-2.8,181.85,47.22Zm-56.1,25.24L181,307.13l.47-1.87,134.17,35.06ZM291.3,378.66,170.69,347.34l.93-2.8,120.61,31.32Zm1.87-1.87L303,364.63l5.61,12.62Zm46.28-3.27h0a1.71,1.71,0,0,0-.93-2.34l-3.74-1.87a1.71,1.71,0,0,1-.93-2.34l1.4-3.27a1.71,1.71,0,0,0-.93-2.34L331,360a1.71,1.71,0,0,1-.93-2.34l.93-2.8a1.71,1.71,0,0,0-.93-2.34l-3.27-1.4a1.71,1.71,0,0,1-.93-2.34l.93-3.74c.47-.93,0-1.87-.93-1.87L324,342.2c-1.4-.47-1.4-2.34,0-3.27L561.5,232.8a1.71,1.71,0,0,1,2.34.93l15,33.19a1.71,1.71,0,0,1-.94,2.34L341.32,374.92C340.39,376.79,338.52,374.92,339.45,373.52Zm-36-9.35h0l19.63-22.91.47.47Zm5.14,13.09h0l31.32-.93v.47Zm114.53-37.4L579.27,270.2a1.71,1.71,0,0,0,.94-2.34l-15-33.19a1.71,1.71,0,0,0-2.34-.93l-127.62,57Z"/>
    </mask>
  </defs>
  <title>名称未設定-1</title>
  <g class="cls-3">
    <g class="cls-4">
      <rect class="cls-5" x="-190" width="1000" height="575"/>
    </g>
  </g>
</svg>
