<svg xmlns="http://www.w3.org/2000/svg" xmlns:xlink="http://www.w3.org/1999/xlink" viewBox="0 0 735.56 436.77"><defs><style>.cls-1{font-size:34.22px;fill:#dadf00;font-family:KozGoPr6N-Regular-83pv-RKSJ-H, Kozuka Gothic Pr6N;letter-spacing:0.05em;}.cls-2{opacity:0.5;fill:url(#名称未設定グラデーション_16);}.cls-3,.cls-4{fill:none;}.cls-13,.cls-15,.cls-20,.cls-22,.cls-24,.cls-3,.cls-32,.cls-35,.cls-4{stroke:#040000;}.cls-13,.cls-15,.cls-16,.cls-17,.cls-18,.cls-20,.cls-22,.cls-24,.cls-25,.cls-3,.cls-32,.cls-35,.cls-36,.cls-4{stroke-miterlimit:10;}.cls-3{stroke-width:4.56px;}.cls-13,.cls-20,.cls-22,.cls-24,.cls-32,.cls-35,.cls-4{stroke-width:2.28px;}.cls-5{fill:#c8c7e3;}.cls-15,.cls-6{fill:#040000;}.cls-7{fill:#f2ed70;}.cls-16,.cls-8{fill:#a1cf8c;}.cls-9{fill:#d19bc4;}.cls-10{fill:url(#名称未設定グラデーション_2);}.cls-11{fill:#4d4d4d;}.cls-12,.cls-36{fill:#ed95bc;}.cls-13{fill:#95ca86;}.cls-13,.cls-20,.cls-22,.cls-24,.cls-32,.cls-35{fill-rule:evenodd;}.cls-14{fill:#c79f62;}.cls-15,.cls-16,.cls-17,.cls-18,.cls-25,.cls-36{stroke-width:0.46px;}.cls-16,.cls-17,.cls-18,.cls-25,.cls-36{stroke:#231815;}.cls-17{fill:#69c1ed;}.cls-18{fill:#bc76ae;}.cls-19{fill:#9fcc64;}.cls-20{fill:#ce9dc5;}.cls-21{fill:#7565aa;}.cls-22{fill:#e37c7c;}.cls-23{fill:#cae3c1;}.cls-24{fill:#eb9f5f;}.cls-25,.cls-31{fill:#f6c667;}.cls-26{fill:#cde8ee;}.cls-27{fill:#ef9394;}.cls-28{fill:url(#名称未設定グラデーション_2-2);}.cls-29{fill:#7d76a2;}.cls-30{fill:url(#名称未設定グラデーション_2-3);}.cls-32{fill:#648cc8;}.cls-33{fill:#d78360;}.cls-34{fill:#98c3e8;}.cls-35{fill:#68bfa0;}.cls-37{opacity:0.3;}.cls-38{font-size:30.91px;}.cls-38,.cls-39{fill:#fff;font-family:GenShinGothic-Bold, Gen Shin Gothic;font-weight:700;}.cls-39{font-size:64.02px;}</style><radialGradient id="名称未設定グラデーション_16" cx="365" cy="205.22" r="296.12" gradientTransform="translate(0 0.47) scale(1 1.02)" gradientUnits="userSpaceOnUse"><stop offset="0" stop-color="#fff"/><stop offset="1" stop-color="#2ca6e0"/></radialGradient><linearGradient id="名称未設定グラデーション_2" x1="116.57" y1="57.03" x2="152.62" y2="57.03" gradientUnits="userSpaceOnUse"><stop offset="1" stop-color="#040000"/><stop offset="1" stop-color="#fff"/></linearGradient><linearGradient id="名称未設定グラデーション_2-2" x1="1868.17" y1="-224.42" x2="1929.3" y2="-224.42" gradientTransform="translate(873.21 2124.79) rotate(-90)" xlink:href="#名称未設定グラデーション_2"/><linearGradient id="名称未設定グラデーション_2-3" x1="617.36" y1="265.29" x2="679.86" y2="265.29" xlink:href="#名称未設定グラデーション_2"/></defs><title>topis11kanbanアセット 1</title><g id="レイヤー_2" data-name="レイヤー 2"><g id="レイヤー_1-2" data-name="レイヤー 1"><text class="cls-1" transform="translate(0 30.11)">0101 0111 0100 0101 0100 1100 0100 0011 <tspan x="0" y="45.62">0100 1111 0100 1101 0100 0101 0101 0100 </tspan><tspan x="0" y="91.24">0100 1111 0100 1111 0100 0011 0101 0111</tspan><tspan x="0" y="136.86">0101 0111 0100 0101 0100 1100 0100 0011 </tspan><tspan x="0" y="182.49">0100 1111 0100 1101 0100 0101 0101 0100 </tspan><tspan x="0" y="228.11">0100 1111 0100 1111 0100 0011 0101 0111</tspan><tspan x="0" y="273.73">0101 0111 0100 0101 0100 1100 0100 0011 </tspan><tspan x="0" y="319.35">0100 1111 0100 1101 0100 0101 0101 0100 </tspan><tspan x="0" y="364.97">0100 1111 0100 1111 0100 0011 0101 0111</tspan></text><rect class="cls-2" y="0.37" width="730" height="419.63"/><line class="cls-3" x1="648.61" y1="226.23" x2="346.44" y2="50.77"/><line class="cls-4" x1="134.53" y1="56.84" x2="46.45" y2="111.87"/><line class="cls-4" x1="79.16" y1="226.13" x2="46.45" y2="111.87"/><line class="cls-4" x1="240.15" y1="147.84" x2="46.45" y2="111.87"/><line class="cls-4" x1="408.22" y1="175.24" x2="240.15" y2="147.84"/><line class="cls-4" x1="487.84" y1="209.34" x2="408.22" y2="175.24"/><line class="cls-4" x1="648.61" y1="226.42" x2="487.84" y2="209.34"/><line class="cls-4" x1="593.97" y1="124" x2="487.84" y2="209.34"/><line class="cls-4" x1="473.73" y1="76.63" x2="408.22" y2="175.24"/><line class="cls-4" x1="593.97" y1="124" x2="473.73" y2="76.63"/><line class="cls-4" x1="408.22" y1="175.24" x2="593.97" y2="124"/><line class="cls-4" x1="648.61" y1="226.42" x2="593.97" y2="124"/><line class="cls-4" x1="359.29" y1="256.66" x2="408.22" y2="175.24"/><line class="cls-4" x1="487.84" y1="209.34" x2="359.29" y2="256.66"/><line class="cls-3" x1="79.16" y1="226.13" x2="240.15" y2="147.84"/><line class="cls-4" x1="345.78" y1="45.68" x2="477.26" y2="78.02"/><line class="cls-3" x1="134.53" y1="56.84" x2="238.9" y2="147.84"/><line class="cls-3" x1="79.06" y1="226.42" x2="134.53" y2="56.84"/><line class="cls-3" x1="346.44" y1="50.77" x2="355.88" y2="257.02"/><line class="cls-3" x1="355.88" y1="257.02" x2="648.61" y2="226.23"/><line class="cls-3" x1="345.78" y1="45.68" x2="238.9" y2="147.84"/><line class="cls-3" x1="134.53" y1="56.84" x2="345.78" y2="45.68"/><line class="cls-3" x1="238.9" y1="147.84" x2="355.88" y2="257.02"/><line class="cls-3" x1="355.88" y1="257.02" x2="79.06" y2="226.42"/><circle class="cls-5" cx="239.08" cy="147.81" r="44.48"/><path class="cls-6" d="M239.08,104.47a43.34,43.34,0,1,1-43.35,43.34,43.39,43.39,0,0,1,43.35-43.34m0-2.28a45.63,45.63,0,1,0,45.62,45.62,45.63,45.63,0,0,0-45.62-45.62Z"/><path class="cls-7" d="M355.88,301.33a44.48,44.48,0,1,1,44.48-44.48A44.53,44.53,0,0,1,355.88,301.33Z"/><path class="cls-6" d="M355.88,213.51a43.34,43.34,0,1,1-43.35,43.34,43.39,43.39,0,0,1,43.35-43.34m0-2.28a45.62,45.62,0,1,0,45.62,45.62,45.62,45.62,0,0,0-45.62-45.62Z"/><circle class="cls-8" cx="134.59" cy="57.03" r="44.48"/><path class="cls-6" d="M134.59,13.69A43.34,43.34,0,1,1,91.25,57a43.39,43.39,0,0,1,43.34-43.34m0-2.28A45.62,45.62,0,1,0,180.22,57a45.62,45.62,0,0,0-45.63-45.62Z"/><circle class="cls-9" cx="346.29" cy="50.64" r="44.48"/><path class="cls-6" d="M346.29,7.3A43.34,43.34,0,1,1,303,50.64,43.39,43.39,0,0,1,346.29,7.3m0-2.28a45.62,45.62,0,1,0,45.63,45.62A45.62,45.62,0,0,0,346.29,5Z"/><rect class="cls-10" x="116.57" y="29.88" width="36.04" height="54.29" rx="9.22" ry="9.22"/><path class="cls-6" d="M143.4,30.11a9,9,0,0,1,9,9V75a9,9,0,0,1-9,9H125.79a9,9,0,0,1-9-9V39.1a9,9,0,0,1,9-9H143.4m0-.46H125.79a9.45,9.45,0,0,0-9.45,9.45V75a9.45,9.45,0,0,0,9.45,9.45H143.4A9.45,9.45,0,0,0,152.84,75V39.1a9.45,9.45,0,0,0-9.44-9.45Z"/><rect class="cls-11" x="119.77" y="37.64" width="29.2" height="38.78"/><path class="cls-6" d="M148.74,37.87V76.19H120V37.87h28.75m.45-.46H119.54V76.64h29.65V37.41Z"/><path class="cls-6" d="M383.25,235v41.21s-1.58,4.27-4.63,5.95a15.2,15.2,0,0,1-9.46,2.52c-3.06,0-5.16-.77-6.31-2.29a3.18,3.18,0,0,1-.57-2.06,4.82,4.82,0,0,1,.29-1.38q1.71-4.11,9.46-6.18a70.93,70.93,0,0,1,8-.69v-27l-30.57-4.38V271c0,2.27-1.63,4.37-4.87,6.32A18.34,18.34,0,0,1,333.37,280q-4.26-.5-5.48-2.43a2.91,2.91,0,0,1-.61-1.94,3.62,3.62,0,0,1,.31-1.46q1.52-4.38,9.73-6.56a38.29,38.29,0,0,1,8.52-.73v-37Z"/><circle class="cls-12" cx="594.04" cy="116.79" r="26.23"/><path class="cls-6" d="M594,91.7a25.09,25.09,0,1,1-25.1,25.09A25.12,25.12,0,0,1,594,91.7m0-2.28a27.37,27.37,0,1,0,27.37,27.37A27.37,27.37,0,0,0,594,89.42Z"/><path class="cls-13" d="M602.2,134.81H585.75a2.19,2.19,0,0,1-2.15-2.62l2.55-12.76A8,8,0,0,1,594,113h0a8,8,0,0,1,7.82,6.41l2.55,12.76A2.18,2.18,0,0,1,602.2,134.81Z"/><path class="cls-14" d="M594,115.65c-3.9,0-7.07-3.68-7.07-8.21s3.17-8.21,7.07-8.21,7.07,3.68,7.07,8.21S597.94,115.65,594,115.65Z"/><path class="cls-6" d="M594,100.37c3.27,0,5.93,3.17,5.93,7.07s-2.66,7.07-5.93,7.07-5.93-3.17-5.93-7.07,2.66-7.07,5.93-7.07m0-2.28c-4.54,0-8.21,4.18-8.21,9.35s3.67,9.35,8.21,9.35,8.21-4.19,8.21-9.35-3.68-9.35-8.21-9.35Z"/><path class="cls-15" d="M381.43,45.6l0,0,0,0a6.7,6.7,0,0,0-1.12-.92,1.06,1.06,0,0,1-.42-.09,1.16,1.16,0,0,1-.51-.44,6.93,6.93,0,0,0-2-.61,1.12,1.12,0,0,1-.95-1.26,1.1,1.1,0,0,1,1.25-.94,8.79,8.79,0,0,1,2.06.53,6.64,6.64,0,0,0,.16-1.48,5.73,5.73,0,0,0-.94-3.24h0a5.9,5.9,0,0,0-2.47-2.75,7,7,0,0,0-3.09-.95,9.27,9.27,0,0,1-.73,2.93,1.11,1.11,0,0,1-2.05-.87,7.1,7.1,0,0,0,.59-2.82c0-.14,0-.27,0-.4a7.16,7.16,0,0,0-1.25-3.64,7.19,7.19,0,0,0-5.87-3.1,7.19,7.19,0,0,0-4.87,1.92,9.26,9.26,0,0,1,.38,2.64,1.11,1.11,0,1,1-2.22,0,7.12,7.12,0,0,0-.47-2.54h0a7.13,7.13,0,0,0-2.58-3.3A7,7,0,0,0,350.2,23a7.13,7.13,0,0,0-3.62,1,7.05,7.05,0,0,0-2.16,2,9.35,9.35,0,0,1,1.79,5.5,1.12,1.12,0,0,1-2.23,0,7,7,0,0,0-1.77-4.7h0a7.13,7.13,0,0,0-9.37-1.21,7.14,7.14,0,0,0-3.13,5.91,1.11,1.11,0,0,1-2.22,0,9.28,9.28,0,0,1,.37-2.6,7.11,7.11,0,0,0-2.68-.53,7.41,7.41,0,0,0-1.6.18,7.16,7.16,0,0,0-5.33,5.26,9.32,9.32,0,0,1,6.36,2.67A1.11,1.11,0,1,1,323.06,38a7.1,7.1,0,0,0-5-2,7.77,7.77,0,0,0-1,.06v.24h0A5.65,5.65,0,0,0,313,38.11a7.13,7.13,0,0,0-1.37,8,7.18,7.18,0,0,0,1.47,2.08h0a7.17,7.17,0,0,0,2.42,1.56,1.11,1.11,0,1,1-.8,2.07,9.19,9.19,0,0,1-3.17-2,8.94,8.94,0,0,1-1.1-1.29,7.19,7.19,0,0,0-1.3,4.11,7.19,7.19,0,0,0,3.52,6.14,7.17,7.17,0,0,0,2.84.94v-.07a9,9,0,0,1,.16-1.72,1.11,1.11,0,1,1,2.18.4,7.2,7.2,0,0,0-.12,1.32c0,.17,0,.35,0,.52a4.35,4.35,0,0,0,.06.52h0a7.14,7.14,0,0,0,7.05,6.1,3.18,3.18,0,0,1,.51.08h0a14.77,14.77,0,0,0,4.08-1.76,7.23,7.23,0,0,0,1.86-2.42,1.11,1.11,0,1,1,2,1,9.39,9.39,0,0,1-1.9,2.68,7.12,7.12,0,0,0,6.77,4.91.57.57,0,0,1,.51.2h0a13.7,13.7,0,0,0,2.91-1.07,9.2,9.2,0,0,1-.22-2,9.3,9.3,0,0,1,.94-4.05,1.11,1.11,0,0,1,2,1,7.15,7.15,0,0,0-.71,3.09,7,7,0,0,0,.33,2.14h0a7.12,7.12,0,0,0,11.33,3.38h0a7.19,7.19,0,0,0,1.89-2.41h0a7,7,0,0,0,.7-2.79,1.12,1.12,0,1,1,2.23.09,9.48,9.48,0,0,1-.93,3.67h0A9.27,9.27,0,0,1,357.4,75,7.13,7.13,0,0,0,363.24,78a6.83,6.83,0,0,0,1.34-.13,7.13,7.13,0,0,0,5.81-7s0-.1.31-.15h0a2.19,2.19,0,0,1-.43-1.17,7.22,7.22,0,0,0-1-2.56A20.18,20.18,0,0,1,367,64.62a14.86,14.86,0,0,1-2-3.13,5.49,5.49,0,0,1-.57-2.22,2.87,2.87,0,0,1,.18-1,3.92,3.92,0,0,1,.69-.94h0a1.1,1.1,0,0,1,1.74.22,1.14,1.14,0,0,1-.18,1.35.46.46,0,0,0-.08.13.81.81,0,0,0,0,.27,3.42,3.42,0,0,0,.36,1.29,11.24,11.24,0,0,0,1.05,1.75,18.67,18.67,0,0,0,2.82,3.11l.11.1.09.12a9.3,9.3,0,0,1,1.43,3.49h0a4.89,4.89,0,0,0,0,.56h.34a7.18,7.18,0,0,0,6.33-3.89,7.24,7.24,0,0,0,.78-3.25,7.16,7.16,0,0,0-.71-3.09,10.08,10.08,0,0,1-1.34.33,1.1,1.1,0,0,1-1.28-.9,1.12,1.12,0,0,1,.91-1.29,7.13,7.13,0,0,0,3.87-12Zm-50.8-7.11a1.15,1.15,0,0,1,.1-1.43,9.84,9.84,0,0,1,3.94-2.67,13.13,13.13,0,0,1,4.71-.87,10.23,10.23,0,0,1,4.16.81,1.13,1.13,0,0,1,.69,1.25,1.12,1.12,0,0,1-1.56.79,8,8,0,0,0-3.29-.63,11,11,0,0,0-3.91.72,7.53,7.53,0,0,0-3.09,2.09h0A1.12,1.12,0,0,1,330.63,38.49Zm25.17,24.9a15,15,0,0,1-3.54-.39c0,.31.05.65.05,1a9.46,9.46,0,0,1-.3,2.42,8.45,8.45,0,0,1-1.23,2.66A1.11,1.11,0,1,1,349,67.82a6.38,6.38,0,0,0,.9-2,7.31,7.31,0,0,0,.23-1.85,8.55,8.55,0,0,0-.2-1.8,10.88,10.88,0,0,1-1.51-.83,11.35,11.35,0,0,1-3.89-4.31,10.67,10.67,0,0,1-1-2.84,6.62,6.62,0,0,1-.14-1.33,1.11,1.11,0,0,1,2.22,0,6.12,6.12,0,0,0,.24,1.48,9.61,9.61,0,0,0,.86,2,9,9,0,0,0,4.09,3.75,11.8,11.8,0,0,0,5.06,1,1.11,1.11,0,1,1,0,2.22Zm7.84-8a1.1,1.1,0,0,1-1.38.64,1.06,1.06,0,0,1-.68-1v-.46a.23.23,0,0,1,0-.09c0-.09.07-.23.11-.41a5.72,5.72,0,0,0,.17-1.39V52.6a13.14,13.14,0,0,1-4.25.76A9.84,9.84,0,0,1,352.59,52a10.89,10.89,0,0,1-3.28-3,11.6,11.6,0,0,0-3.51-3.17,9.08,9.08,0,0,0-4.57-1.27,9.38,9.38,0,0,0-4.57,1.24A7.42,7.42,0,0,0,333.53,49a8.36,8.36,0,0,0-.89,3.76,6.77,6.77,0,0,0,.55,2.78,1.11,1.11,0,0,1-2,.95,8.89,8.89,0,0,1-.76-3.73,10.44,10.44,0,0,1,1-4.42,17.51,17.51,0,0,1-3.83.45,14.58,14.58,0,0,1-1.79-.11,1.14,1.14,0,0,1-.21.41h0v0a.28.28,0,0,0-.06.08l-.24.32c-.2.29-.48.71-.79,1.25a14.76,14.76,0,0,0-1.62,4.22,1.18,1.18,0,0,1-1.38.91,1.11,1.11,0,0,1-.81-1.3,16.77,16.77,0,0,1,1.88-4.93c.36-.63.69-1.12.93-1.46a12.63,12.63,0,0,1-2.33-.95,9,9,0,0,1-2.29-1.62A1.11,1.11,0,1,1,320.43,44h0l.07.06.32.27a9,9,0,0,0,1.34.86,11.45,11.45,0,0,0,5.39,1.28,16.6,16.6,0,0,0,6-1.21,9.77,9.77,0,0,1,2-1.47,11.6,11.6,0,0,1,5.64-1.51,11.4,11.4,0,0,1,5.68,1.56,13.86,13.86,0,0,1,4.19,3.78,8.66,8.66,0,0,0,2.61,2.41,7.68,7.68,0,0,0,3.94,1.06,11,11,0,0,0,3.66-.68,4.42,4.42,0,0,0-1.65-1.53,1.12,1.12,0,0,1-.27-1.73,1.15,1.15,0,0,1,1.42-.17,6.23,6.23,0,0,1,3.31,5.65A7.78,7.78,0,0,1,363.64,55.41Zm-.43-13.75a13.36,13.36,0,0,1-6.71-1.76,14,14,0,0,1-1.05,1.3A11.33,11.33,0,0,1,351,44.31a1.11,1.11,0,1,1-.75-2.09,9,9,0,0,0,3.52-2.47,11.25,11.25,0,0,0,.92-1.13,10.78,10.78,0,0,1-2.55-3.06,6.66,6.66,0,0,1-.9-3.16,1.11,1.11,0,1,1,2.22,0,4.64,4.64,0,0,0,.63,2.1A8.8,8.8,0,0,0,356,36.84a10.91,10.91,0,0,0,7.21,2.6,1.11,1.11,0,1,1,0,2.22ZM372,57.31a1.11,1.11,0,1,1-1.71-1.42,6.77,6.77,0,0,0,1.66-4.37,7.13,7.13,0,0,0-1-3.59,6.61,6.61,0,0,0-2.28-2.35,3,3,0,0,0-1.47-.46,1.11,1.11,0,0,1,0-2.22,4.83,4.83,0,0,1,2,.44,6.93,6.93,0,0,1,1.77,1.14,9.54,9.54,0,0,1,2.62,3.76,9.11,9.11,0,0,1,.62,3.28A9,9,0,0,1,372,57.31Z"/><path class="cls-15" d="M265.58,144.69c0-.09,0-.18-.06-.26a15.75,15.75,0,0,0-5.14-8,23.92,23.92,0,0,0-10.07-5,29.73,29.73,0,0,0-14.28,0,22.77,22.77,0,0,0-12.16,7.16,14.64,14.64,0,0,0-3,5.78h-.44c-.58,0-20.26,1.53-16.93,16h9.2s0-.2,0-.36a7.78,7.78,0,0,1,.12-1.31,7.57,7.57,0,0,1,14.9,0,8.22,8.22,0,0,1,.12,1.33c0,.14,0,.28,0,.42v.4h0v-.46H247c0-.05,0-.2,0-.36a7.8,7.8,0,0,1,.11-1.31,7.57,7.57,0,0,1,14.9,0,7.42,7.42,0,0,1,.12,1.34c0,.14,0,.28,0,.42a2.78,2.78,0,0,0,0,.4h0v-.46h7.63a1.86,1.86,0,0,0,1.85-1.85C271.63,148.69,271.78,146.92,265.58,144.69Zm-41.1-.31a11.64,11.64,0,0,1,2.06-3.56,19.38,19.38,0,0,1,10.32-6,26.39,26.39,0,0,1,11.5-.24l.36.08-4,9.74H224.48Zm24,0,3.59-8.77a19.21,19.21,0,0,1,6,3.47,12.68,12.68,0,0,1,3.7,5.13,1.34,1.34,0,0,1,.07.18H248.48Z"/><path class="cls-15" d="M220.22,155.06a5,5,0,0,0-5,4.94,3.71,3.71,0,0,0,0,.47,5,5,0,0,0,9.89,0c0-.16,0-.31,0-.47a4.11,4.11,0,0,0-.08-.86A5,5,0,0,0,220.22,155.06Z"/><path class="cls-15" d="M254.57,155.06a5,5,0,0,0-5,4.94,3.71,3.71,0,0,0,0,.47,5,5,0,0,0,9.89,0c0-.16,0-.31,0-.47a4.91,4.91,0,0,0-.07-.86A5,5,0,0,0,254.57,155.06Z"/><circle class="cls-16" cx="542.94" cy="165.15" r="10.27"/><circle class="cls-17" cx="351.77" cy="166.52" r="10.27"/><circle class="cls-18" cx="111.78" cy="124.09" r="10.27"/><circle class="cls-19" cx="473.59" cy="69.35" r="26.23"/><path class="cls-6" d="M473.59,44.25a25.1,25.1,0,1,1-25.1,25.1,25.13,25.13,0,0,1,25.1-25.1m0-2.28A27.38,27.38,0,1,0,501,69.35,27.38,27.38,0,0,0,473.59,42Z"/><path class="cls-20" d="M482,87.37H465.51a2.19,2.19,0,0,1-2.15-2.62L465.91,72a8,8,0,0,1,7.82-6.41h0A8,8,0,0,1,481.55,72l2.55,12.76A2.19,2.19,0,0,1,482,87.37Z"/><path class="cls-14" d="M473.59,68.2c-3.9,0-7.07-3.68-7.07-8.21s3.17-8.21,7.07-8.21,7.07,3.68,7.07,8.21S477.49,68.2,473.59,68.2Z"/><path class="cls-6" d="M473.59,52.92c3.27,0,5.93,3.17,5.93,7.07s-2.66,7.07-5.93,7.07-5.93-3.17-5.93-7.07,2.66-7.07,5.93-7.07m0-2.28c-4.54,0-8.21,4.19-8.21,9.35s3.67,9.36,8.21,9.36,8.21-4.19,8.21-9.36-3.68-9.35-8.21-9.35Z"/><circle class="cls-21" cx="224.02" cy="241.79" r="26.23"/><path class="cls-6" d="M224,216.7a25.1,25.1,0,1,1-25.09,25.09A25.12,25.12,0,0,1,224,216.7m0-2.28a27.38,27.38,0,1,0,27.37,27.37A27.38,27.38,0,0,0,224,214.42Z"/><path class="cls-22" d="M232.35,259.36H215.91a2.19,2.19,0,0,1-2.15-2.62L216.31,244a8,8,0,0,1,7.82-6.41h0A8,8,0,0,1,232,244l2.55,12.76A2.19,2.19,0,0,1,232.35,259.36Z"/><path class="cls-14" d="M224,240.65c-3.9,0-7.07-3.68-7.07-8.21s3.17-8.21,7.07-8.21,7.07,3.68,7.07,8.21S227.92,240.65,224,240.65Z"/><path class="cls-6" d="M224,225.37c3.27,0,5.93,3.17,5.93,7.07s-2.66,7.07-5.93,7.07-5.93-3.17-5.93-7.07,2.66-7.07,5.93-7.07m0-2.28c-4.54,0-8.21,4.19-8.21,9.35s3.67,9.35,8.21,9.35,8.21-4.18,8.21-9.35-3.68-9.35-8.21-9.35Z"/><circle class="cls-23" cx="487.73" cy="202.1" r="26.23"/><path class="cls-6" d="M487.73,177a25.1,25.1,0,1,1-25.09,25.09A25.13,25.13,0,0,1,487.73,177m0-2.28a27.38,27.38,0,1,0,27.38,27.37,27.37,27.37,0,0,0-27.38-27.37Z"/><path class="cls-24" d="M496.06,220.12H479.62a2.18,2.18,0,0,1-2.15-2.61L480,204.75a8,8,0,0,1,7.82-6.41h0a8,8,0,0,1,7.82,6.41l2.55,12.76A2.18,2.18,0,0,1,496.06,220.12Z"/><path class="cls-14" d="M487.73,201c-3.9,0-7.07-3.68-7.07-8.21s3.17-8.21,7.07-8.21,7.07,3.68,7.07,8.21S491.63,201,487.73,201Z"/><path class="cls-6" d="M487.73,185.68c3.27,0,5.93,3.17,5.93,7.07s-2.66,7.07-5.93,7.07-5.93-3.17-5.93-7.07,2.66-7.07,5.93-7.07m0-2.28c-4.53,0-8.21,4.19-8.21,9.35s3.68,9.35,8.21,9.35,8.21-4.18,8.21-9.35-3.67-9.35-8.21-9.35Z"/><circle class="cls-25" cx="511.46" cy="146.45" r="10.27"/><ellipse class="cls-26" cx="78.93" cy="226.28" rx="67.52" ry="67.52"/><path class="cls-6" d="M78.93,159.68a66.61,66.61,0,1,1-66.61,66.6,66.68,66.68,0,0,1,66.61-66.6m0-1.83a68.44,68.44,0,1,0,68.44,68.43,68.44,68.44,0,0,0-68.44-68.43Z"/><ellipse class="cls-27" cx="648.79" cy="226.28" rx="67.3" ry="67.29"/><path class="cls-6" d="M648.79,160.13a66.15,66.15,0,1,1-66.16,66.15,66.23,66.23,0,0,1,66.16-66.15m0-2.28a68.44,68.44,0,1,0,68.44,68.43,68.44,68.44,0,0,0-68.44-68.43Z"/><rect class="cls-28" x="594.27" y="195.49" width="109.04" height="61.13"/><path class="cls-6" d="M703.08,195.72v60.67H594.49V195.72H703.08m.46-.46H594v61.59h109.5V195.26Z"/><rect class="cls-29" x="601.11" y="202.33" width="95.36" height="47.45"/><path class="cls-6" d="M696.24,202.56v47h-94.9v-47h94.9m.45-.46H600.88V250h95.81V202.1Z"/><polygon class="cls-30" points="617.36 273.5 627.22 257.08 670.01 257.08 679.86 273.5 617.36 273.5"/><path class="cls-6" d="M669.88,257.31l9.58,16H617.77l9.58-16h42.53m.26-.46h-43L617,273.73h63.3l-10.12-16.88Z"/><path class="cls-31" d="M46.54,131.16a26.23,26.23,0,1,1,26.23-26.23A26.27,26.27,0,0,1,46.54,131.16Z"/><path class="cls-6" d="M46.54,79.84a25.09,25.09,0,1,1-25.1,25.09,25.12,25.12,0,0,1,25.1-25.09m0-2.28a27.37,27.37,0,1,0,27.37,27.37A27.37,27.37,0,0,0,46.54,77.56Z"/><path class="cls-32" d="M54.67,123H38.23a2.19,2.19,0,0,1-2.15-2.62l2.55-12.76a8,8,0,0,1,7.82-6.41h0a8,8,0,0,1,7.82,6.41l2.55,12.76A2.19,2.19,0,0,1,54.67,123Z"/><path class="cls-14" d="M46.54,103.79c-3.9,0-7.07-3.68-7.07-8.21s3.17-8.21,7.07-8.21,7.07,3.68,7.07,8.21S50.44,103.79,46.54,103.79Z"/><path class="cls-6" d="M46.54,88.51c3.27,0,5.93,3.17,5.93,7.07s-2.66,7.07-5.93,7.07-5.93-3.17-5.93-7.07,2.66-7.07,5.93-7.07m0-2.28c-4.54,0-8.21,4.18-8.21,9.35s3.67,9.35,8.21,9.35,8.21-4.19,8.21-9.35-3.68-9.35-8.21-9.35Z"/><path class="cls-33" d="M79.12,198.45c3.75-12,13.08-17.85,23.54-17.85,12.51,0,22.06,10.46,22.06,23.08,0,15.24-8.3,26.5-16.83,36.84-8.19,9.9-24.56,27.18-28.77,31.38h-.23c-4.2-4.2-20.46-21.48-28.65-31.38-8.53-10.34-16.83-21.6-16.83-36.84,0-12.84,9.89-23.08,22.17-23.08,10.35,0,19.56,5.8,23.31,17.85Z"/><path class="cls-34" d="M407.89,194.58a26.24,26.24,0,1,1,26.23-26.24A26.27,26.27,0,0,1,407.89,194.58Z"/><path class="cls-6" d="M407.89,143.25a25.1,25.1,0,1,1-25.1,25.09,25.12,25.12,0,0,1,25.1-25.09m0-2.28a27.38,27.38,0,1,0,27.37,27.37A27.38,27.38,0,0,0,407.89,141Z"/><path class="cls-35" d="M416.45,185.91H400a2.2,2.2,0,0,1-2.15-2.62l2.56-12.76a8,8,0,0,1,7.81-6.41h0a8,8,0,0,1,7.82,6.41l2.56,12.76A2.2,2.2,0,0,1,416.45,185.91Z"/><path class="cls-14" d="M408.34,167.2c-3.9,0-7.07-3.68-7.07-8.21s3.17-8.21,7.07-8.21,7.08,3.68,7.08,8.21S412.24,167.2,408.34,167.2Z"/><path class="cls-6" d="M408.34,151.92c3.27,0,5.94,3.17,5.94,7.07s-2.67,7.07-5.94,7.07-5.93-3.17-5.93-7.07,2.66-7.07,5.93-7.07m0-2.28c-4.53,0-8.21,4.19-8.21,9.35s3.68,9.35,8.21,9.35,8.22-4.18,8.22-9.35-3.68-9.35-8.22-9.35Z"/><circle class="cls-36" cx="449.41" cy="110.4" r="10.27"/><g class="cls-37"><rect class="cls-6" x="1.16" y="311.16" width="727.69" height="107.68"/><path class="cls-6" d="M727.69,312.32V417.69H2.31V312.32H727.69M730,310H0V420H730V310Z"/></g><text class="cls-38" transform="translate(36.5 356.23) scale(1.1 1)">名大の授業<tspan x="0" y="54.08">TOPICS No.11</tspan></text><text class="cls-39" transform="translate(353.59 403.55) scale(1.07 1)">情報学特集</text></g></g></svg>