<svg xmlns="http://www.w3.org/2000/svg" xmlns:xlink="http://www.w3.org/1999/xlink" viewBox="0 0 1460 840"><defs><style>.cls-1{opacity:0.5;fill:url(#名称未設定グラデーション_16);}.cls-2{font-size:68.44px;fill:#dae000;font-family:GenShinGothic-Regular, Gen Shin Gothic;letter-spacing:0.05em;}.cls-3,.cls-4{fill:none;}.cls-13,.cls-15,.cls-20,.cls-22,.cls-24,.cls-3,.cls-32,.cls-35,.cls-4{stroke:#040000;}.cls-13,.cls-15,.cls-16,.cls-17,.cls-18,.cls-20,.cls-22,.cls-24,.cls-25,.cls-3,.cls-32,.cls-35,.cls-36,.cls-4{stroke-miterlimit:10;}.cls-3{stroke-width:10px;}.cls-13,.cls-20,.cls-22,.cls-24,.cls-32,.cls-35,.cls-4{stroke-width:5px;}.cls-5{fill:#c9c7e4;}.cls-15,.cls-6{fill:#040000;}.cls-7{fill:#f2ee70;}.cls-16,.cls-8{fill:#a1d08d;}.cls-9{fill:#d29cc5;}.cls-10{fill:url(#名称未設定グラデーション_2);}.cls-11{fill:#4e4d4d;}.cls-12,.cls-36{fill:#ee96bd;}.cls-13{fill:#95cb87;}.cls-13,.cls-20,.cls-22,.cls-24,.cls-32,.cls-35{fill-rule:evenodd;}.cls-14{fill:#c9a063;}.cls-16,.cls-17,.cls-18,.cls-25,.cls-36{stroke:#231815;}.cls-17{fill:#69c2ee;}.cls-18{fill:#bc76af;}.cls-19{fill:#a0cd65;}.cls-20{fill:#ce9dc6;}.cls-21{fill:#7565ab;}.cls-22{fill:#e47c7b;}.cls-23{fill:#cbe4c1;}.cls-24{fill:#eba05f;}.cls-25,.cls-31{fill:#f7c767;}.cls-26{fill:#cde9ef;}.cls-27{fill:#f09495;}.cls-28{fill:url(#名称未設定グラデーション_2-2);}.cls-29{fill:#7e77a4;}.cls-30{fill:url(#名称未設定グラデーション_2-3);}.cls-32{fill:#658dc9;}.cls-33{fill:#d98460;}.cls-34{fill:#9ac4e9;}.cls-35{fill:#68c0a2;}.cls-37{opacity:0.3;}.cls-38{font-size:63.88px;}.cls-38,.cls-39{fill:#fff;font-family:GenShinGothic-Bold, Gen Shin Gothic;font-weight:700;}.cls-39{font-size:132.31px;}</style><radialGradient id="名称未設定グラデーション_16" cx="723.29" cy="417.8" r="649.04" gradientTransform="translate(70 30.05) scale(0.91 0.93)" gradientUnits="userSpaceOnUse"><stop offset="0" stop-color="#fff"/><stop offset="1" stop-color="#2ea7e0"/></radialGradient><linearGradient id="名称未設定グラデーション_2" x1="229.68" y1="114.29" x2="302.53" y2="114.29" gradientUnits="userSpaceOnUse"><stop offset="1" stop-color="#040000"/><stop offset="1" stop-color="#fff"/></linearGradient><linearGradient id="名称未設定グラデーション_2-2" x1="2281.86" y1="238.52" x2="2405.49" y2="238.52" gradientTransform="translate(1068 2800) rotate(-90)" xlink:href="#名称未設定グラデーション_2"/><linearGradient id="名称未設定グラデーション_2-3" x1="1243" y1="535.72" x2="1369.33" y2="535.72" xlink:href="#名称未設定グラデーション_2"/></defs><title>topics11_kannban_reconstruct</title><g id="背景"><rect class="cls-1" width="1460" height="840"/></g><g id="二進数"><text class="cls-2" transform="translate(0 79.07)">0101 0111 0100 0101 0100 1100 0100 0011 <tspan x="0" y="91.25">0100 1111 0100 1101 0100 0101 0101 0100 </tspan><tspan x="0" y="182.5">0100 1111 0100 1111 0100 0011 0101 0111</tspan><tspan x="0" y="273.75">0101 0111 0100 0101 0100 1100 0100 0011 </tspan><tspan x="0" y="365">0100 1111 0100 1101 0100 0101 0101 0100 </tspan><tspan x="0" y="456.25">0100 1111 0100 1111 0100 0011 0101 0111</tspan><tspan x="0" y="547.5">0101 0111 0100 0101 0100 1100 0100 0011 </tspan><tspan x="0" y="638.75">0100 1111 0100 1101 0100 0101 0101 0100 </tspan><tspan x="0" y="730">0100 1111 0100 1111 0100 0011 0101 0111</tspan></text></g><g id="アイコン"><line class="cls-3" x1="1306.17" y1="456.67" x2="694.74" y2="101.62"/><line class="cls-4" x1="265.97" y1="113.9" x2="87.75" y2="225.27"/><line class="cls-4" x1="153.93" y1="456.48" x2="87.75" y2="225.27"/><line class="cls-4" x1="479.69" y1="298.06" x2="87.75" y2="225.27"/><line class="cls-4" x1="819.77" y1="353.49" x2="479.69" y2="298.06"/><line class="cls-4" x1="980.86" y1="422.5" x2="819.77" y2="353.49"/><line class="cls-4" x1="1306.17" y1="457.06" x2="980.86" y2="422.5"/><line class="cls-4" x1="1195.61" y1="249.8" x2="980.86" y2="422.5"/><line class="cls-4" x1="952.31" y1="153.95" x2="819.77" y2="353.49"/><line class="cls-4" x1="1195.61" y1="249.8" x2="952.31" y2="153.95"/><line class="cls-4" x1="819.77" y1="353.49" x2="1195.61" y2="249.8"/><line class="cls-4" x1="1306.17" y1="457.06" x2="1195.61" y2="249.8"/><line class="cls-4" x1="720.75" y1="518.26" x2="819.77" y2="353.49"/><line class="cls-4" x1="980.86" y1="422.5" x2="720.75" y2="518.26"/><line class="cls-3" x1="153.93" y1="456.48" x2="479.69" y2="298.06"/><line class="cls-4" x1="693.42" y1="91.33" x2="959.44" y2="156.76"/><line class="cls-3" x1="265.97" y1="113.9" x2="477.16" y2="298.06"/><line class="cls-3" x1="153.74" y1="457.06" x2="265.97" y2="113.9"/><line class="cls-3" x1="694.74" y1="101.62" x2="713.84" y2="518.99"/><line class="cls-3" x1="713.84" y1="518.99" x2="1306.17" y2="456.67"/><line class="cls-3" x1="693.42" y1="91.33" x2="477.16" y2="298.06"/><line class="cls-3" x1="265.97" y1="113.9" x2="693.42" y2="91.33"/><line class="cls-3" x1="477.16" y1="298.06" x2="713.84" y2="518.99"/><line class="cls-3" x1="713.84" y1="518.99" x2="153.74" y2="457.06"/><circle class="cls-5" cx="477.51" cy="298" r="89.82" transform="translate(-70.86 424.93) rotate(-45)"/><path class="cls-6" d="M477.51,210.68A87.32,87.32,0,1,1,390.19,298a87.42,87.42,0,0,1,87.32-87.32m0-5A92.32,92.32,0,1,0,569.83,298a92.32,92.32,0,0,0-92.32-92.32Z"/><circle class="cls-7" cx="713.84" cy="518.64" r="89.82"/><path class="cls-6" d="M713.84,431.32a87.32,87.32,0,1,1-87.31,87.32,87.42,87.42,0,0,1,87.31-87.32m0-5a92.32,92.32,0,1,0,92.32,92.32,92.31,92.31,0,0,0-92.32-92.32Z"/><circle class="cls-8" cx="266.1" cy="114.29" r="89.82" transform="translate(93.74 347.01) rotate(-76.72)"/><path class="cls-6" d="M266.1,27a87.32,87.32,0,1,1-87.31,87.32A87.42,87.42,0,0,1,266.1,27m0-5a92.32,92.32,0,1,0,92.32,92.32A92.31,92.31,0,0,0,266.1,22Z"/><circle class="cls-9" cx="694.46" cy="101.36" r="89.82" transform="translate(436.25 753.95) rotate(-76.72)"/><path class="cls-6" d="M694.46,14a87.32,87.32,0,1,1-87.32,87.32A87.43,87.43,0,0,1,694.46,14m0-5a92.32,92.32,0,1,0,92.32,92.32A92.32,92.32,0,0,0,694.46,9Z"/><rect class="cls-10" x="229.68" y="59.4" width="72.85" height="109.78" rx="8.95"/><path class="cls-6" d="M293.58,59.9A8.46,8.46,0,0,1,302,68.34v91.89a8.46,8.46,0,0,1-8.45,8.45h-55a8.46,8.46,0,0,1-8.44-8.45V68.34a8.45,8.45,0,0,1,8.44-8.44h55m0-1h-55a9.44,9.44,0,0,0-9.44,9.44v91.89a9.45,9.45,0,0,0,9.44,9.45h55a9.45,9.45,0,0,0,9.45-9.45V68.34a9.45,9.45,0,0,0-9.45-9.44Z"/><rect class="cls-11" x="236.14" y="75.09" width="59.01" height="78.39"/><path class="cls-6" d="M294.65,75.59V153h-58V75.59h58m1-1h-60V154h60V74.59Z"/><path class="cls-6" d="M769.23,474.38v83.39s-3.19,8.64-9.37,12q-8.13,5.57-19.14,5.1-9.29,0-12.76-4.63a6.36,6.36,0,0,1-1.16-4.17,10.1,10.1,0,0,1,.58-2.78q3.48-8.34,19.14-12.51c3.86-.93,16.25-1.39,16.25-1.39V494.77l-61.85-8.85v61.35q0,6.88-9.85,12.78a37,37,0,0,1-22.77,5.41q-8.62-1-11.08-4.91a6,6,0,0,1-1.23-3.94,7.48,7.48,0,0,1,.62-3q3.07-8.85,19.69-13.27,6.15-1.49,17.23-1.48V464.14Z"/><circle class="cls-12" cx="1195.74" cy="235.22" r="52.89"/><path class="cls-6" d="M1195.74,184.83a50.39,50.39,0,1,1-50.39,50.39,50.45,50.45,0,0,1,50.39-50.39m0-5a55.39,55.39,0,1,0,55.39,55.39,55.39,55.39,0,0,0-55.39-55.39Z"/><path class="cls-13" d="M1212.25,271.69H1179a4.43,4.43,0,0,1-4.35-5.3l5.17-25.82a16.14,16.14,0,0,1,15.82-13h0a16.14,16.14,0,0,1,15.82,13l5.16,25.82A4.43,4.43,0,0,1,1212.25,271.69Z"/><path class="cls-14" d="M1195.74,232.72c-7.78,0-14.11-7.37-14.11-16.42s6.33-16.43,14.11-16.43,14.12,7.37,14.12,16.43S1203.53,232.72,1195.74,232.72Z"/><path class="cls-6" d="M1195.74,202.37c6.41,0,11.62,6.25,11.62,13.93s-5.21,13.92-11.62,13.92-11.61-6.24-11.61-13.92,5.21-13.93,11.61-13.93m0-5c-9.17,0-16.61,8.48-16.61,18.93s7.44,18.92,16.61,18.92,16.62-8.47,16.62-18.92-7.44-18.93-16.62-18.93Z"/><path class="cls-15" d="M765.55,91.16l0,0,0,0a14.08,14.08,0,0,0-2.26-1.86,2.27,2.27,0,0,1-.85-.18,2.24,2.24,0,0,1-1-.9A14.31,14.31,0,0,0,757.27,87a2.25,2.25,0,0,1,.62-4.46,18.5,18.5,0,0,1,4.16,1.09,14.29,14.29,0,0,0,.33-3,11.55,11.55,0,0,0-1.92-6.55h0a11.64,11.64,0,0,0-5-5.56,14.16,14.16,0,0,0-6.26-1.94,19,19,0,0,1-1.47,6,2.25,2.25,0,0,1-4.14-1.78,14.43,14.43,0,0,0,1.19-5.7c0-.28,0-.55,0-.82a14.54,14.54,0,0,0-2.52-7.37,14.51,14.51,0,0,0-11.89-6.26,14.5,14.5,0,0,0-9.84,3.89,18.84,18.84,0,0,1,.78,5.34,2.25,2.25,0,1,1-4.5,0,14.45,14.45,0,0,0-.95-5.15h0a14.44,14.44,0,0,0-13.48-9.29,14.41,14.41,0,0,0-11.7,6,18.85,18.85,0,0,1,3.62,11.14,2.25,2.25,0,0,1-4.5,0A14.36,14.36,0,0,0,686.2,53h0a14.44,14.44,0,0,0-25.3,9.52,2.25,2.25,0,0,1-4.49,0,19.12,19.12,0,0,1,.74-5.27,14.32,14.32,0,0,0-8.64-.69,14.4,14.4,0,0,0-10.8,10.64,18.88,18.88,0,0,1,12.88,5.39,2.25,2.25,0,0,1-3.15,3.21,14.38,14.38,0,0,0-10.1-4.12,16,16,0,0,0-2,.13v.48h0A11.48,11.48,0,0,0,627,76a14.36,14.36,0,0,0-4.12,10.09,14.53,14.53,0,0,0,1.36,6.13,14.35,14.35,0,0,0,3,4.2h0a14.45,14.45,0,0,0,4.9,3.16,2.25,2.25,0,0,1-1.63,4.19A19,19,0,0,1,621.86,97a14.57,14.57,0,0,0-2.62,8.31,14.45,14.45,0,0,0,7.13,12.43,14.64,14.64,0,0,0,5.74,1.9v-.13a19.12,19.12,0,0,1,.32-3.49,2.25,2.25,0,0,1,4.42.82,14.73,14.73,0,0,0-.25,2.67c0,.35,0,.69,0,1s.06.72.12,1v0A14.44,14.44,0,0,0,651,134a6.74,6.74,0,0,1,1,.16h0s6-1.65,8.26-3.55a14.54,14.54,0,0,0,3.77-4.89,2.25,2.25,0,0,1,4.07,1.92,19.07,19.07,0,0,1-3.86,5.42A14.45,14.45,0,0,0,678,143a1.14,1.14,0,0,1,1,.4h0a27.56,27.56,0,0,0,5.88-2.17,19.35,19.35,0,0,1-.43-3.95,18.88,18.88,0,0,1,1.89-8.22,2.25,2.25,0,0,1,4.05,1.95,14.35,14.35,0,0,0-.77,10.6h0a14.45,14.45,0,0,0,13.76,10.12,14.54,14.54,0,0,0,9.17-3.28h0a14.27,14.27,0,0,0,3.83-4.88h0a14.22,14.22,0,0,0,1.43-5.65,2.25,2.25,0,0,1,4.5.2,19,19,0,0,1-1.88,7.41h0a19.14,19.14,0,0,1-3.58,5.08,14.43,14.43,0,0,0,11.83,6.2,14.67,14.67,0,0,0,2.7-.25,14.45,14.45,0,0,0,11.77-14.16c0-.11,0-.21.63-.31v0a4.6,4.6,0,0,1-.89-2.37,14.15,14.15,0,0,0-2.08-5.18,43,43,0,0,1-4.6-4.81,31,31,0,0,1-4.12-6.34,11,11,0,0,1-1.14-4.49,6.17,6.17,0,0,1,.35-2.1,8.85,8.85,0,0,1,1.4-1.9v0a2.24,2.24,0,0,1,3.52.45,2.29,2.29,0,0,1-.36,2.73.71.71,0,0,0-.16.26,1.66,1.66,0,0,0-.08.54,6.77,6.77,0,0,0,.73,2.62,21.15,21.15,0,0,0,2.13,3.54,38.18,38.18,0,0,0,5.69,6.29l.24.2.17.25a19,19,0,0,1,2.89,7.06v0a8.41,8.41,0,0,0,0,1.12l.67,0A14.44,14.44,0,0,0,761,132.09a14.48,14.48,0,0,0,1.57-6.57,14.22,14.22,0,0,0-1.44-6.25,17.93,17.93,0,0,1-2.69.67,2.25,2.25,0,0,1-.77-4.43,14.43,14.43,0,0,0,7.84-24.35ZM662.77,76.78a2.32,2.32,0,0,1,.19-2.89,19.75,19.75,0,0,1,8-5.42,26.81,26.81,0,0,1,9.53-1.75,20.6,20.6,0,0,1,8.42,1.63,2.32,2.32,0,0,1,1.39,2.54,2.25,2.25,0,0,1-3.15,1.6,16.11,16.11,0,0,0-6.66-1.27,22.32,22.32,0,0,0-7.91,1.45,15.34,15.34,0,0,0-6.26,4.23h0A2.25,2.25,0,0,1,662.77,76.78Zm50.92,50.39a31.21,31.21,0,0,1-7.16-.79c.06.62.1,1.3.1,2a19,19,0,0,1-.62,4.91,17,17,0,0,1-2.47,5.38,2.25,2.25,0,1,1-3.69-2.57,12.54,12.54,0,0,0,1.82-4,15.17,15.17,0,0,0,.47-3.76,16.59,16.59,0,0,0-.41-3.64,22.29,22.29,0,0,1-3.06-1.67,22.86,22.86,0,0,1-7.87-8.73,21.78,21.78,0,0,1-2-5.75,13.57,13.57,0,0,1-.3-2.69,2.25,2.25,0,0,1,4.5,0,11.92,11.92,0,0,0,.49,3,18.73,18.73,0,0,0,1.74,4.1,18.25,18.25,0,0,0,8.27,7.59,23.94,23.94,0,0,0,10.24,2.06,2.25,2.25,0,0,1,0,4.5ZM729.57,111a2.27,2.27,0,0,1-2.81,1.3,2.16,2.16,0,0,1-1.38-2.08v-.89l0,0a1.22,1.22,0,0,1,.07-.2,8.21,8.21,0,0,0,.22-.81,11.72,11.72,0,0,0,.35-2.81v-.16a26.88,26.88,0,0,1-8.59,1.52,19.88,19.88,0,0,1-10.25-2.75A22.29,22.29,0,0,1,700.55,98a23.56,23.56,0,0,0-7.09-6.41A18.49,18.49,0,0,0,684.21,89a19.07,19.07,0,0,0-9.25,2.5,15,15,0,0,0-6.32,6.4,16.7,16.7,0,0,0-1.8,7.6,13.61,13.61,0,0,0,1.09,5.63,2.25,2.25,0,1,1-4.06,1.93,18.06,18.06,0,0,1-1.53-7.56,21.36,21.36,0,0,1,1.95-8.94,34.53,34.53,0,0,1-7.74.92,29.78,29.78,0,0,1-3.62-.23,2.29,2.29,0,0,1-.42.84h0l0,0-.13.16-.47.66c-.41.58-1,1.44-1.6,2.52A29.68,29.68,0,0,0,647,110a2.36,2.36,0,0,1-2.77,1.84,2.24,2.24,0,0,1-1.66-2.62,34.11,34.11,0,0,1,3.81-10c.73-1.28,1.39-2.28,1.88-3a26.69,26.69,0,0,1-4.72-1.91,19.13,19.13,0,0,1-4.63-3.28A2.25,2.25,0,0,1,642.13,88h0l0,0,.14.13c.13.12.35.31.64.54a18,18,0,0,0,2.71,1.74A23.07,23.07,0,0,0,656.55,93a33.62,33.62,0,0,0,12.12-2.45,20.48,20.48,0,0,1,4.13-3,23.49,23.49,0,0,1,11.41-3.06,23,23,0,0,1,11.5,3.17,28.06,28.06,0,0,1,8.47,7.65,18,18,0,0,0,5.29,4.88,15.53,15.53,0,0,0,8,2.13,22.42,22.42,0,0,0,7.4-1.38,9,9,0,0,0-3.34-3.09,2.25,2.25,0,0,1-.54-3.5,2.34,2.34,0,0,1,2.87-.35,12.73,12.73,0,0,1,6.71,11.45A16.31,16.31,0,0,1,729.57,111Zm-.89-27.83a26.88,26.88,0,0,1-13.57-3.56A30.12,30.12,0,0,1,713,82.27a23,23,0,0,1-9,6.29,2.25,2.25,0,0,1-1.51-4.24,18.37,18.37,0,0,0,7.13-5,24.22,24.22,0,0,0,1.86-2.28,21.94,21.94,0,0,1-5.17-6.2,13.65,13.65,0,0,1-1.82-6.4,2.25,2.25,0,0,1,4.5,0,9.16,9.16,0,0,0,1.27,4.24,17.36,17.36,0,0,0,3.89,4.75,22.08,22.08,0,0,0,14.58,5.25,2.25,2.25,0,1,1,0,4.5Zm17.73,31.67a2.25,2.25,0,0,1-3.47-2.86,13.63,13.63,0,0,0,3.36-8.85,14.37,14.37,0,0,0-2-7.27,13.4,13.4,0,0,0-4.61-4.77,6.12,6.12,0,0,0-3-.92,2.25,2.25,0,0,1,0-4.5,9.83,9.83,0,0,1,4,.9,14.3,14.3,0,0,1,3.59,2.3,19.28,19.28,0,0,1,5.3,7.62,18.41,18.41,0,0,1,1.26,6.64A18.21,18.21,0,0,1,746.41,114.86Z"/><path class="cls-15" d="M531.14,291.67c-.06-.18-.07-.35-.13-.53a31.68,31.68,0,0,0-10.4-16.08,48.65,48.65,0,0,0-20.36-10.18,60.53,60.53,0,0,0-28.9,0c-10.3,2.53-19,7.72-24.61,14.49a30.21,30.21,0,0,0-6.14,11.7h-.87c-1.18,0-41,3.1-34.27,32.32h18.63s0-.41,0-.73a15.85,15.85,0,0,1,.23-2.65,15.33,15.33,0,0,1,30.15-.05,14.9,14.9,0,0,1,.24,2.7c0,.29,0,.57,0,.85v.8h0v-.92h39a5.29,5.29,0,0,1,0-.73,15.85,15.85,0,0,1,.23-2.65,15.33,15.33,0,0,1,30.15-.07,16.28,16.28,0,0,1,.24,2.72c0,.29,0,.57,0,.85v.8h0v-.92h15.42a3.76,3.76,0,0,0,3.75-3.74C543.39,299.77,543.69,296.19,531.14,291.67ZM448,291.05a23.62,23.62,0,0,1,4.18-7.2c4.75-5.7,12.16-10,20.88-12.17a53.18,53.18,0,0,1,23.27-.48l.73.16L489,291.07H457.92Zm48.58,0,7.26-17.75a39.34,39.34,0,0,1,12.14,7,25.74,25.74,0,0,1,7.49,10.37c0,.12.1.25.14.37H503.83Z"/><path class="cls-15" d="M439.36,312.65a10,10,0,0,0-10.05,10,7.56,7.56,0,0,0,.05.95,10.06,10.06,0,0,0,20,0c0-.32.05-.63.05-.95a9.08,9.08,0,0,0-.16-1.74A10,10,0,0,0,439.36,312.65Z"/><path class="cls-15" d="M508.87,312.65a10,10,0,0,0-10.05,10,7.56,7.56,0,0,0,.05.95,10,10,0,0,0,20,0,7.57,7.57,0,0,0,.06-.95,10.06,10.06,0,0,0-10.06-10Z"/><circle class="cls-16" cx="1092.35" cy="333.08" r="20.77"/><circle class="cls-17" cx="705.54" cy="335.85" r="20.77"/><circle class="cls-18" cx="219.95" cy="249.99" r="20.77"/><path class="cls-19" d="M952,192.1a52.89,52.89,0,1,1,52.89-52.89A52.95,52.95,0,0,1,952,192.1Z"/><path class="cls-6" d="M952,88.82a50.39,50.39,0,1,1-50.39,50.39A50.45,50.45,0,0,1,952,88.82m0-5a55.39,55.39,0,1,0,55.39,55.39A55.39,55.39,0,0,0,952,83.82Z"/><path class="cls-20" d="M969,175.68H935.67a4.43,4.43,0,0,1-4.34-5.3l5.16-25.82a16.14,16.14,0,0,1,15.82-13h0a16.13,16.13,0,0,1,15.82,13l5.17,25.82A4.43,4.43,0,0,1,969,175.68Z"/><path class="cls-14" d="M952,136.71c-7.78,0-14.11-7.37-14.11-16.42s6.33-16.43,14.11-16.43,14.12,7.37,14.12,16.43S959.81,136.71,952,136.71Z"/><path class="cls-6" d="M952,106.36c6.41,0,11.62,6.25,11.62,13.93s-5.21,13.92-11.62,13.92-11.61-6.24-11.61-13.92,5.21-13.93,11.61-13.93m0-5c-9.17,0-16.61,8.48-16.61,18.93s7.44,18.92,16.61,18.92,16.62-8.47,16.62-18.92S961.2,101.36,952,101.36Z"/><circle class="cls-21" cx="447.05" cy="488.17" r="52.89"/><path class="cls-6" d="M447.05,437.78a50.39,50.39,0,1,1-50.39,50.39,50.45,50.45,0,0,1,50.39-50.39m0-5a55.39,55.39,0,1,0,55.39,55.39,55.39,55.39,0,0,0-55.39-55.39Z"/><path class="cls-22" d="M463.91,523.72H430.63a4.44,4.44,0,0,1-4.35-5.3l5.17-25.83a16.14,16.14,0,0,1,15.82-13h0a16.14,16.14,0,0,1,15.82,13l5.17,25.83A4.44,4.44,0,0,1,463.91,523.72Z"/><ellipse class="cls-14" cx="447.05" cy="469.25" rx="14.12" ry="16.42"/><path class="cls-6" d="M447.05,455.32c6.4,0,11.61,6.25,11.61,13.93s-5.21,13.92-11.61,13.92-11.62-6.24-11.62-13.92,5.21-13.93,11.62-13.93m0-5c-9.18,0-16.62,8.48-16.62,18.93s7.44,18.92,16.62,18.92,16.61-8.47,16.61-18.92-7.44-18.93-16.61-18.93Z"/><circle class="cls-23" cx="980.64" cy="407.86" r="52.89"/><path class="cls-6" d="M980.64,357.47a50.39,50.39,0,1,1-50.39,50.39,50.44,50.44,0,0,1,50.39-50.39m0-5A55.39,55.39,0,1,0,1036,407.86a55.39,55.39,0,0,0-55.39-55.39Z"/><path class="cls-24" d="M997.5,444.32H964.22a4.43,4.43,0,0,1-4.34-5.3L965,413.2a16.14,16.14,0,0,1,15.82-13h0a16.14,16.14,0,0,1,15.82,13l5.17,25.82A4.44,4.44,0,0,1,997.5,444.32Z"/><path class="cls-14" d="M980.64,405.36c-7.78,0-14.11-7.37-14.11-16.43s6.33-16.42,14.11-16.42,14.12,7.36,14.12,16.42S988.43,405.36,980.64,405.36Z"/><path class="cls-6" d="M980.64,375c6.41,0,11.62,6.24,11.62,13.92s-5.21,13.93-11.62,13.93S969,396.61,969,388.93,974.24,375,980.64,375m0-5c-9.18,0-16.61,8.47-16.61,18.92s7.43,18.93,16.61,18.93,16.62-8.48,16.62-18.93S989.82,370,980.64,370Z"/><circle class="cls-25" cx="1028.65" cy="295.23" r="20.77"/><circle class="cls-26" cx="153.48" cy="456.79" r="136.48" transform="translate(-278.04 242.31) rotate(-45)"/><path class="cls-6" d="M153.48,322.31A134.49,134.49,0,1,1,58.39,361.7a133.6,133.6,0,0,1,95.09-39.39m0-4A138.48,138.48,0,1,0,292,456.79,138.48,138.48,0,0,0,153.48,318.31Z"/><circle class="cls-27" cx="1306.52" cy="456.79" r="135.98"/><path class="cls-6" d="M1306.52,323.31a133.46,133.46,0,1,1-94.38,39.09,132.61,132.61,0,0,1,94.38-39.09m0-5A138.48,138.48,0,1,0,1445,456.79a138.48,138.48,0,0,0-138.48-138.48Z"/><rect class="cls-28" x="1196.24" y="394.51" width="220.56" height="123.63"/><path class="cls-6" d="M1416.3,395V517.64H1196.74V395H1416.3m1-1H1195.74V518.64H1417.3V394Z"/><rect class="cls-29" x="1210.09" y="408.36" width="192.87" height="95.93"/><path class="cls-6" d="M1402.46,408.86v94.93H1210.59V408.86h191.87m1-1H1209.59v96.93h193.87V407.86Z"/><polygon class="cls-30" points="1243.01 552.29 1262.9 519.14 1349.44 519.14 1369.33 552.29 1243.01 552.29"/><path class="cls-6" d="M1349.15,519.64l19.3,32.16H1243.89l19.29-32.16h86m.57-1h-87.1l-20.5,34.16h128.09l-20.49-34.16Z"/><circle class="cls-31" cx="87.93" cy="211.22" r="52.89" transform="translate(-74.14 49.73) rotate(-22.5)"/><path class="cls-6" d="M87.93,160.83a50.39,50.39,0,1,1-50.39,50.39,50.44,50.44,0,0,1,50.39-50.39m0-5a55.39,55.39,0,1,0,55.39,55.39,55.39,55.39,0,0,0-55.39-55.39Z"/><path class="cls-32" d="M104.39,247.69H71.11a4.43,4.43,0,0,1-4.34-5.3l5.16-25.82a16.14,16.14,0,0,1,15.82-13h0a16.15,16.15,0,0,1,15.83,13l5.16,25.82A4.43,4.43,0,0,1,104.39,247.69Z"/><path class="cls-14" d="M87.93,208.72c-7.78,0-14.12-7.37-14.12-16.43s6.34-16.42,14.12-16.42,14.12,7.37,14.12,16.42S95.72,208.72,87.93,208.72Z"/><path class="cls-6" d="M87.93,178.37c6.41,0,11.62,6.25,11.62,13.93s-5.21,13.92-11.62,13.92S76.31,200,76.31,192.3s5.22-13.93,11.62-13.93m0-5c-9.18,0-16.62,8.47-16.62,18.93s7.44,18.92,16.62,18.92,16.62-8.47,16.62-18.92-7.44-18.93-16.62-18.93Z"/><path class="cls-33" d="M153.86,400.47c7.59-24.39,26.46-36.12,47.62-36.12,25.31,0,44.64,21.17,44.64,46.71,0,30.83-16.8,53.6-34.05,74.54-16.57,20-49.7,55-58.21,63.5h-.46c-8.52-8.51-41.42-43.48-58-63.5-17.26-20.94-34.05-43.71-34.05-74.54,0-26,20-46.71,44.86-46.71,20.94,0,39.57,11.73,47.17,36.12Z"/><circle class="cls-34" cx="819.09" cy="339.54" r="52.89" transform="translate(352.73 1093.66) rotate(-80.78)"/><path class="cls-6" d="M819.09,289.15a50.39,50.39,0,1,1-50.39,50.39,50.45,50.45,0,0,1,50.39-50.39m0-5a55.39,55.39,0,1,0,55.39,55.39,55.39,55.39,0,0,0-55.39-55.39Z"/><path class="cls-35" d="M836.41,375.08H803.13a4.43,4.43,0,0,1-4.35-5.3L804,344a16.13,16.13,0,0,1,15.82-13h0a16.14,16.14,0,0,1,15.82,13l5.16,25.82A4.43,4.43,0,0,1,836.41,375.08Z"/><path class="cls-14" d="M820,337c-7.78,0-14.12-7.37-14.12-16.42s6.34-16.43,14.12-16.43,14.12,7.37,14.12,16.43S827.79,337,820,337Z"/><path class="cls-6" d="M820,306.69c6.41,0,11.62,6.25,11.62,13.93s-5.21,13.92-11.62,13.92-11.62-6.25-11.62-13.92,5.21-13.93,11.62-13.93m0-5c-9.18,0-16.62,8.47-16.62,18.93s7.44,18.92,16.62,18.92,16.62-8.47,16.62-18.92-7.44-18.93-16.62-18.93Z"/><circle class="cls-36" cx="903.1" cy="222.3" r="20.77"/></g><g id="情報学特集文字"><g class="cls-37"><rect class="cls-6" x="2.5" y="628.06" width="1455" height="209.44"/><path class="cls-6" d="M1455,630.56V835H5V630.56H1455m5-5H0V840H1460V625.56Z"/></g><text class="cls-38" transform="translate(73 694.95) scale(1.06 1)">名大の授業<tspan x="0" y="111.78">TOPICS No.11</tspan></text><text class="cls-39" transform="translate(707.19 794.89) scale(1.03 1)">情報学特集</text></g></svg>