<?xml version="1.0" encoding="utf-8"?>
<!-- Generator: Adobe Illustrator 19.1.1, SVG Export Plug-In . SVG Version: 6.00 Build 0)  -->
<!DOCTYPE svg PUBLIC "-//W3C//DTD SVG 1.1//EN" "http://www.w3.org/Graphics/SVG/1.1/DTD/svg11.dtd">
<svg version="1.1" id="Advising_and_Counselling_Servicesのコピー"
	 xmlns="http://www.w3.org/2000/svg" xmlns:xlink="http://www.w3.org/1999/xlink" x="0px" y="0px" viewBox="0 0 150 40"
	 enable-background="new 0 0 150 40" xml:space="preserve">
<rect fill="#FFFFFF" width="150" height="40"/>
<g opacity="0.7">
	<path fill="#94DE84" d="M56.75,19c0,0,5.471-0.502,13.678-0.857c2.052-0.093,4.274-0.194,6.625-0.258
		c2.351-0.073,4.83-0.166,7.395-0.202c2.565-0.039,5.215-0.123,7.908-0.129c2.693-0.017,5.429-0.035,8.164-0.052
		c2.736,0.017,5.471,0.034,8.164,0.051c2.693,0.001,5.343,0.089,7.908,0.127c5.129,0.105,9.917,0.266,14.02,0.46
		C138.82,18.495,144.292,19,144.292,19s-5.471,0.505-13.678,0.861c-4.104,0.194-8.891,0.355-14.02,0.46
		c-2.565,0.038-5.215,0.127-7.908,0.127c-2.693,0.017-5.429,0.034-8.164,0.051c-2.736-0.017-5.471-0.035-8.164-0.052
		c-2.693-0.006-5.343-0.09-7.908-0.129c-2.565-0.036-5.044-0.129-7.395-0.202c-2.351-0.064-4.574-0.165-6.625-0.258
		C62.221,19.502,56.75,19,56.75,19z"/>
</g>
<g opacity="0.7">
	<path fill="#94DE84" d="M6,33.25c0,0,8.719-0.502,21.797-0.857c3.27-0.093,6.812-0.194,10.558-0.258
		c3.746-0.073,7.697-0.166,11.784-0.202c4.087-0.039,8.31-0.123,12.601-0.129c4.291-0.017,8.651-0.035,13.01-0.052
		c4.359,0.017,8.719,0.034,13.01,0.051c4.291,0.001,8.514,0.089,12.601,0.127c8.174,0.105,15.803,0.266,22.342,0.46
		c13.078,0.357,21.797,0.861,21.797,0.861s-8.719,0.505-21.797,0.861c-6.539,0.194-14.168,0.355-22.342,0.46
		c-4.087,0.038-8.31,0.127-12.601,0.127c-4.291,0.017-8.651,0.034-13.01,0.051c-4.359-0.017-8.719-0.035-13.01-0.052
		c-4.291-0.006-8.514-0.09-12.601-0.129c-4.087-0.036-8.038-0.129-11.784-0.202c-3.746-0.064-7.288-0.165-10.558-0.258
		C14.719,33.752,6,33.25,6,33.25z"/>
</g>
<ellipse transform="matrix(0.7778 0.6285 -0.6285 0.7778 15.1779 -4.0644)" opacity="0.75" fill="#EF9C6B" cx="13.337" cy="19.433" rx="11.978" ry="5.503"/>
<ellipse transform="matrix(0.1724 0.985 -0.985 0.1724 32.6986 -5.7463)" opacity="0.75" fill="#EF9C6B" cx="19.769" cy="16.587" rx="11.978" ry="5.503"/>
<g>
	<rect x="1.917" y="6.75" fill="none" width="143.583" height="26.5"/>
	<path fill="#1F6413" d="M66.731,17.711l-0.479-1.258h-4.074L61.7,17.739c-0.187,0.501-0.346,0.84-0.479,1.015
		s-0.349,0.263-0.649,0.263c-0.255,0-0.481-0.093-0.677-0.28s-0.294-0.399-0.294-0.636c0-0.137,0.023-0.278,0.068-0.424
		s0.121-0.349,0.226-0.608l2.563-6.508c0.073-0.187,0.161-0.411,0.263-0.673s0.212-0.479,0.328-0.653s0.269-0.313,0.458-0.42
		s0.423-0.161,0.701-0.161c0.283,0,0.519,0.054,0.708,0.161s0.342,0.245,0.458,0.414s0.214,0.35,0.294,0.543
		s0.181,0.452,0.304,0.776l2.618,6.467c0.205,0.492,0.308,0.85,0.308,1.073c0,0.232-0.097,0.445-0.291,0.639
		s-0.427,0.291-0.701,0.291c-0.16,0-0.296-0.028-0.41-0.085s-0.209-0.134-0.287-0.232s-0.161-0.249-0.25-0.451
		S66.795,17.866,66.731,17.711z M62.712,14.929h2.994l-1.511-4.136L62.712,14.929z"/>
	<path fill="#1F6413" d="M75.232,17.951v-0.185c-0.25,0.287-0.498,0.521-0.742,0.701s-0.508,0.317-0.793,0.41
		s-0.596,0.14-0.933,0.14c-0.447,0-0.86-0.095-1.241-0.284s-0.71-0.459-0.988-0.81s-0.489-0.763-0.632-1.237
		s-0.215-0.987-0.215-1.538c0-1.167,0.285-2.076,0.854-2.728s1.319-0.978,2.249-0.978c0.538,0,0.991,0.092,1.36,0.277
		s0.729,0.468,1.08,0.851V9.816c0-0.383,0.076-0.672,0.229-0.868s0.37-0.294,0.652-0.294c0.283,0,0.5,0.09,0.653,0.27
		s0.229,0.445,0.229,0.796v8.23c0,0.355-0.082,0.622-0.246,0.8s-0.377,0.267-0.637,0.267c-0.255,0-0.465-0.092-0.632-0.277
		S75.232,18.292,75.232,17.951z M71.561,15.209c0,0.506,0.079,0.937,0.236,1.292s0.373,0.623,0.646,0.803s0.572,0.27,0.896,0.27
		c0.328,0,0.628-0.085,0.899-0.256s0.488-0.433,0.649-0.786s0.243-0.794,0.243-1.323c0-0.497-0.081-0.924-0.243-1.282
		s-0.38-0.631-0.656-0.82s-0.578-0.284-0.906-0.284c-0.342,0-0.647,0.097-0.916,0.291s-0.478,0.472-0.625,0.834
		S71.561,14.731,71.561,15.209z"/>
	<path fill="#1F6413" d="M80.049,12.591l1.51,4.238l1.627-4.423c0.128-0.355,0.254-0.607,0.377-0.755s0.31-0.222,0.561-0.222
		c0.236,0,0.438,0.08,0.604,0.239s0.249,0.344,0.249,0.554c0,0.082-0.014,0.178-0.044,0.287s-0.063,0.212-0.103,0.308
		s-0.083,0.205-0.133,0.328l-1.791,4.443c-0.051,0.127-0.115,0.29-0.195,0.485s-0.168,0.363-0.267,0.502s-0.219,0.247-0.362,0.325
		s-0.318,0.116-0.523,0.116c-0.264,0-0.475-0.061-0.632-0.181s-0.273-0.253-0.349-0.396s-0.201-0.427-0.379-0.851l-1.777-4.396
		c-0.041-0.109-0.084-0.219-0.127-0.328s-0.08-0.221-0.109-0.335s-0.045-0.212-0.045-0.294c0-0.127,0.039-0.254,0.117-0.379
		c0.077-0.125,0.184-0.228,0.32-0.308s0.285-0.12,0.445-0.12c0.31,0,0.522,0.089,0.639,0.267S79.907,12.172,80.049,12.591z"/>
	<path fill="#1F6413" d="M87.12,10.561c-0.26,0-0.481-0.08-0.667-0.239c-0.184-0.16-0.276-0.385-0.276-0.677
		c0-0.264,0.095-0.482,0.284-0.653c0.188-0.171,0.408-0.256,0.659-0.256c0.241,0,0.456,0.078,0.643,0.232s0.28,0.38,0.28,0.677
		c0,0.287-0.092,0.512-0.273,0.673S87.371,10.561,87.12,10.561z M88.043,12.489v5.394c0,0.374-0.089,0.656-0.267,0.848
		s-0.403,0.287-0.677,0.287s-0.496-0.098-0.666-0.294c-0.172-0.196-0.257-0.476-0.257-0.841v-5.339c0-0.369,0.085-0.647,0.257-0.834
		c0.17-0.187,0.393-0.28,0.666-0.28s0.499,0.093,0.677,0.28S88.043,12.156,88.043,12.489z"/>
	<path fill="#1F6413" d="M95.84,16.577c0,0.515-0.126,0.956-0.377,1.323c-0.25,0.367-0.621,0.645-1.11,0.834
		s-1.086,0.284-1.788,0.284c-0.67,0-1.244-0.103-1.723-0.308s-0.831-0.461-1.059-0.769c-0.229-0.308-0.342-0.616-0.342-0.926
		c0-0.205,0.072-0.38,0.219-0.526c0.146-0.146,0.33-0.219,0.553-0.219c0.196,0,0.347,0.048,0.451,0.144
		c0.105,0.096,0.205,0.23,0.301,0.403c0.191,0.333,0.421,0.581,0.688,0.745s0.63,0.246,1.09,0.246c0.374,0,0.681-0.083,0.92-0.25
		s0.359-0.356,0.359-0.571c0-0.328-0.125-0.567-0.373-0.718s-0.657-0.294-1.227-0.431c-0.643-0.16-1.166-0.327-1.569-0.502
		s-0.726-0.407-0.968-0.694c-0.241-0.287-0.361-0.64-0.361-1.06c0-0.374,0.111-0.727,0.334-1.06
		c0.224-0.333,0.553-0.598,0.988-0.796s0.961-0.297,1.576-0.297c0.482,0,0.916,0.05,1.302,0.15s0.706,0.235,0.964,0.403
		s0.453,0.355,0.588,0.561s0.201,0.406,0.201,0.602c0,0.214-0.071,0.39-0.215,0.526s-0.348,0.205-0.611,0.205
		c-0.191,0-0.355-0.055-0.489-0.164s-0.288-0.273-0.462-0.492c-0.141-0.182-0.307-0.328-0.498-0.438s-0.451-0.164-0.779-0.164
		c-0.338,0-0.618,0.072-0.842,0.215c-0.223,0.144-0.334,0.322-0.334,0.537c0,0.196,0.082,0.356,0.246,0.482s0.385,0.229,0.662,0.311
		c0.278,0.082,0.661,0.182,1.148,0.301c0.579,0.141,1.053,0.31,1.419,0.506s0.646,0.427,0.834,0.694S95.84,16.235,95.84,16.577z"/>
	<path fill="#1F6413" d="M98.222,10.561c-0.26,0-0.481-0.08-0.667-0.239c-0.184-0.16-0.276-0.385-0.276-0.677
		c0-0.264,0.095-0.482,0.284-0.653c0.188-0.171,0.408-0.256,0.659-0.256c0.241,0,0.456,0.078,0.643,0.232s0.28,0.38,0.28,0.677
		c0,0.287-0.092,0.512-0.273,0.673S98.473,10.561,98.222,10.561z M99.145,12.489v5.394c0,0.374-0.089,0.656-0.267,0.848
		s-0.403,0.287-0.677,0.287s-0.496-0.098-0.666-0.294c-0.172-0.196-0.257-0.476-0.257-0.841v-5.339c0-0.369,0.085-0.647,0.257-0.834
		c0.17-0.187,0.393-0.28,0.666-0.28s0.499,0.093,0.677,0.28S99.145,12.156,99.145,12.489z"/>
	<path fill="#1F6413" d="M102.628,12.461v0.226c0.328-0.433,0.687-0.751,1.077-0.954c0.389-0.203,0.837-0.304,1.343-0.304
		c0.492,0,0.933,0.107,1.319,0.321s0.677,0.517,0.868,0.909c0.123,0.228,0.202,0.474,0.239,0.738s0.055,0.602,0.055,1.012v3.473
		c0,0.374-0.086,0.656-0.256,0.848c-0.172,0.191-0.394,0.287-0.667,0.287c-0.278,0-0.503-0.098-0.677-0.294s-0.26-0.476-0.26-0.841
		v-3.11c0-0.615-0.086-1.086-0.256-1.412c-0.172-0.326-0.512-0.489-1.022-0.489c-0.333,0-0.636,0.099-0.909,0.297
		s-0.475,0.471-0.602,0.817c-0.092,0.278-0.137,0.797-0.137,1.559v2.338c0,0.378-0.088,0.662-0.264,0.851
		c-0.175,0.189-0.402,0.284-0.68,0.284c-0.27,0-0.49-0.098-0.663-0.294s-0.26-0.476-0.26-0.841v-5.394
		c0-0.355,0.077-0.621,0.232-0.796s0.366-0.263,0.636-0.263c0.164,0,0.313,0.039,0.444,0.116s0.238,0.194,0.317,0.349
		C102.588,12.049,102.628,12.238,102.628,12.461z"/>
	<path fill="#1F6413" d="M116.111,12.796v5.421c0,0.62-0.065,1.153-0.197,1.6c-0.133,0.447-0.345,0.816-0.637,1.107
		c-0.291,0.292-0.673,0.508-1.145,0.65c-0.472,0.141-1.059,0.211-1.76,0.211c-0.643,0-1.217-0.09-1.723-0.27
		s-0.896-0.412-1.17-0.697c-0.273-0.285-0.41-0.578-0.41-0.878c0-0.228,0.078-0.414,0.232-0.557
		c0.155-0.144,0.342-0.215,0.561-0.215c0.273,0,0.514,0.121,0.719,0.362c0.1,0.123,0.203,0.247,0.311,0.373s0.226,0.232,0.355,0.321
		s0.286,0.155,0.469,0.198c0.182,0.043,0.392,0.065,0.629,0.065c0.482,0,0.857-0.067,1.124-0.202s0.454-0.322,0.561-0.564
		s0.17-0.5,0.188-0.776c0.018-0.276,0.031-0.719,0.041-1.33c-0.287,0.401-0.619,0.707-0.995,0.916s-0.823,0.314-1.343,0.314
		c-0.625,0-1.17-0.16-1.638-0.479s-0.826-0.766-1.077-1.34c-0.25-0.574-0.375-1.237-0.375-1.989c0-0.561,0.076-1.066,0.229-1.518
		s0.37-0.832,0.652-1.142c0.283-0.31,0.609-0.543,0.979-0.701s0.774-0.236,1.217-0.236c0.528,0,0.986,0.102,1.373,0.304
		c0.388,0.203,0.748,0.521,1.08,0.954v-0.253c0-0.324,0.08-0.574,0.24-0.752c0.159-0.178,0.364-0.267,0.615-0.267
		c0.359,0,0.599,0.117,0.717,0.352C116.053,12.016,116.111,12.354,116.111,12.796z M110.705,15.162c0,0.756,0.164,1.329,0.495,1.716
		s0.758,0.581,1.282,0.581c0.31,0,0.602-0.083,0.878-0.25s0.5-0.417,0.673-0.752c0.174-0.335,0.26-0.742,0.26-1.22
		c0-0.761-0.167-1.354-0.502-1.777s-0.775-0.636-1.322-0.636c-0.533,0-0.961,0.203-1.282,0.608S110.705,14.414,110.705,15.162z"/>
	<path fill="#1F6413" d="M125.936,17.964c-0.451,0.351-0.888,0.614-1.31,0.79c-0.421,0.175-0.894,0.263-1.418,0.263
		c-0.479,0-0.898-0.095-1.262-0.284c-0.361-0.189-0.641-0.445-0.837-0.769s-0.294-0.674-0.294-1.053c0-0.51,0.162-0.946,0.485-1.306
		s0.768-0.602,1.333-0.725c0.118-0.027,0.412-0.089,0.882-0.185s0.872-0.184,1.206-0.263c0.336-0.08,0.699-0.177,1.091-0.291
		c-0.022-0.492-0.122-0.854-0.298-1.083c-0.175-0.23-0.538-0.345-1.09-0.345c-0.474,0-0.83,0.066-1.07,0.198
		c-0.238,0.132-0.443,0.331-0.615,0.595c-0.17,0.264-0.291,0.438-0.361,0.523c-0.071,0.084-0.223,0.126-0.455,0.126
		c-0.21,0-0.391-0.067-0.543-0.202c-0.153-0.134-0.229-0.307-0.229-0.516c0-0.328,0.116-0.647,0.349-0.957s0.595-0.565,1.087-0.766
		s1.105-0.301,1.839-0.301c0.82,0,1.465,0.097,1.935,0.291s0.801,0.5,0.995,0.919c0.193,0.419,0.29,0.975,0.29,1.668
		c0,0.438-0.001,0.809-0.003,1.114c-0.003,0.305-0.006,0.645-0.011,1.019c0,0.351,0.058,0.717,0.175,1.097
		c0.115,0.38,0.174,0.625,0.174,0.735c0,0.191-0.09,0.366-0.27,0.523c-0.181,0.157-0.385,0.236-0.612,0.236
		c-0.191,0-0.381-0.09-0.567-0.27S126.146,18.306,125.936,17.964z M125.813,15.264c-0.273,0.1-0.671,0.206-1.192,0.318
		c-0.522,0.112-0.884,0.194-1.084,0.246s-0.392,0.155-0.574,0.308s-0.273,0.366-0.273,0.639c0,0.283,0.107,0.523,0.321,0.721
		s0.494,0.297,0.841,0.297c0.369,0,0.71-0.081,1.021-0.243c0.313-0.162,0.542-0.37,0.688-0.625c0.169-0.283,0.253-0.748,0.253-1.395
		V15.264z"/>
	<path fill="#1F6413" d="M131.093,12.461v0.226c0.328-0.433,0.687-0.751,1.077-0.954c0.389-0.203,0.837-0.304,1.343-0.304
		c0.492,0,0.932,0.107,1.319,0.321s0.677,0.517,0.868,0.909c0.123,0.228,0.203,0.474,0.239,0.738s0.055,0.602,0.055,1.012v3.473
		c0,0.374-0.086,0.656-0.256,0.848c-0.172,0.191-0.394,0.287-0.667,0.287c-0.278,0-0.504-0.098-0.677-0.294s-0.26-0.476-0.26-0.841
		v-3.11c0-0.615-0.086-1.086-0.256-1.412c-0.172-0.326-0.512-0.489-1.022-0.489c-0.333,0-0.636,0.099-0.909,0.297
		s-0.474,0.471-0.602,0.817c-0.091,0.278-0.137,0.797-0.137,1.559v2.338c0,0.378-0.088,0.662-0.264,0.851
		c-0.175,0.189-0.401,0.284-0.68,0.284c-0.269,0-0.49-0.098-0.663-0.294s-0.26-0.476-0.26-0.841v-5.394
		c0-0.355,0.077-0.621,0.232-0.796s0.367-0.263,0.636-0.263c0.164,0,0.313,0.039,0.444,0.116s0.238,0.194,0.317,0.349
		C131.053,12.049,131.093,12.238,131.093,12.461z"/>
	<path fill="#1F6413" d="M142.827,17.951v-0.185c-0.251,0.287-0.498,0.521-0.741,0.701c-0.244,0.18-0.509,0.317-0.793,0.41
		c-0.285,0.093-0.597,0.14-0.934,0.14c-0.446,0-0.86-0.095-1.24-0.284c-0.381-0.189-0.71-0.459-0.988-0.81s-0.488-0.763-0.633-1.237
		c-0.143-0.474-0.215-0.987-0.215-1.538c0-1.167,0.285-2.076,0.854-2.728s1.319-0.978,2.249-0.978c0.538,0,0.991,0.092,1.36,0.277
		s0.729,0.468,1.08,0.851V9.816c0-0.383,0.076-0.672,0.229-0.868c0.152-0.196,0.37-0.294,0.652-0.294s0.5,0.09,0.652,0.27
		c0.153,0.18,0.229,0.445,0.229,0.796v8.23c0,0.355-0.082,0.622-0.246,0.8s-0.376,0.267-0.636,0.267
		c-0.255,0-0.466-0.092-0.633-0.277C142.91,18.556,142.827,18.292,142.827,17.951z M139.156,15.209c0,0.506,0.078,0.937,0.236,1.292
		c0.156,0.355,0.372,0.623,0.646,0.803s0.572,0.27,0.896,0.27c0.328,0,0.628-0.085,0.898-0.256c0.271-0.171,0.488-0.433,0.65-0.786
		c0.161-0.353,0.242-0.794,0.242-1.323c0-0.497-0.081-0.924-0.242-1.282c-0.162-0.358-0.381-0.631-0.656-0.82
		c-0.276-0.189-0.578-0.284-0.906-0.284c-0.342,0-0.647,0.097-0.916,0.291s-0.478,0.472-0.625,0.834
		C139.23,14.311,139.156,14.731,139.156,15.209z"/>
	<path fill="#1F6413" d="M14.668,29.681c0,0.319-0.079,0.664-0.236,1.036c-0.157,0.371-0.404,0.735-0.742,1.094
		c-0.337,0.357-0.768,0.647-1.292,0.871s-1.135,0.335-1.832,0.335c-0.529,0-1.009-0.05-1.442-0.15s-0.826-0.257-1.179-0.468
		c-0.353-0.213-0.678-0.491-0.974-0.838c-0.264-0.314-0.49-0.666-0.677-1.057c-0.187-0.389-0.327-0.805-0.42-1.247
		s-0.14-0.911-0.14-1.408c0-0.807,0.117-1.529,0.352-2.167s0.571-1.184,1.008-1.637c0.438-0.454,0.95-0.799,1.538-1.036
		s1.214-0.355,1.88-0.355c0.811,0,1.534,0.161,2.167,0.485s1.119,0.724,1.456,1.199c0.337,0.477,0.506,0.927,0.506,1.351
		c0,0.232-0.082,0.438-0.246,0.615S14.032,26.57,13.8,26.57c-0.26,0-0.455-0.062-0.584-0.185s-0.274-0.335-0.434-0.636
		c-0.264-0.497-0.575-0.868-0.933-1.114s-0.799-0.369-1.323-0.369c-0.834,0-1.498,0.317-1.993,0.95
		c-0.495,0.634-0.742,1.533-0.742,2.7c0,0.779,0.109,1.428,0.328,1.944c0.219,0.518,0.529,0.904,0.93,1.159s0.871,0.383,1.408,0.383
		c0.583,0,1.077-0.145,1.48-0.435c0.403-0.289,0.708-0.714,0.913-1.274c0.086-0.265,0.194-0.479,0.321-0.646
		c0.127-0.167,0.333-0.25,0.615-0.25c0.242,0,0.449,0.084,0.622,0.253S14.668,29.43,14.668,29.681z"/>
	<path fill="#1F6413" d="M23.209,29.223c0,0.556-0.086,1.068-0.26,1.538s-0.424,0.873-0.752,1.21s-0.72,0.596-1.176,0.775
		c-0.456,0.181-0.968,0.271-1.538,0.271c-0.565,0-1.073-0.091-1.524-0.273s-0.842-0.443-1.172-0.782
		c-0.331-0.34-0.581-0.741-0.752-1.203c-0.171-0.463-0.256-0.975-0.256-1.535c0-0.565,0.086-1.082,0.26-1.552
		s0.421-0.87,0.745-1.203s0.715-0.589,1.176-0.769c0.46-0.181,0.968-0.271,1.524-0.271c0.565,0,1.078,0.091,1.538,0.273
		s0.854,0.442,1.183,0.779s0.578,0.738,0.749,1.203S23.209,28.662,23.209,29.223z M21.336,29.223c0-0.761-0.167-1.354-0.502-1.777
		s-0.785-0.636-1.35-0.636c-0.365,0-0.686,0.095-0.964,0.284c-0.278,0.188-0.492,0.468-0.643,0.837s-0.226,0.8-0.226,1.292
		c0,0.487,0.074,0.914,0.222,1.278s0.36,0.644,0.636,0.837c0.276,0.194,0.601,0.291,0.974,0.291c0.565,0,1.015-0.213,1.35-0.639
		C21.169,30.563,21.336,29.975,21.336,29.223z"/>
	<path fill="#1F6413" d="M29.386,31.964v-0.239c-0.223,0.282-0.458,0.52-0.704,0.711s-0.515,0.334-0.807,0.428
		c-0.292,0.093-0.625,0.14-0.998,0.14c-0.451,0-0.855-0.094-1.213-0.28s-0.635-0.444-0.831-0.772
		c-0.232-0.396-0.349-0.966-0.349-1.709v-3.698c0-0.374,0.084-0.652,0.253-0.838c0.168-0.184,0.392-0.276,0.67-0.276
		c0.283,0,0.51,0.094,0.684,0.28s0.26,0.465,0.26,0.834v2.987c0,0.433,0.037,0.796,0.109,1.091c0.073,0.293,0.204,0.523,0.393,0.689
		c0.189,0.167,0.445,0.25,0.769,0.25c0.314,0,0.611-0.094,0.889-0.28s0.481-0.431,0.608-0.731c0.105-0.265,0.157-0.843,0.157-1.736
		v-2.27c0-0.369,0.086-0.647,0.26-0.834s0.399-0.28,0.677-0.28s0.501,0.093,0.67,0.276c0.168,0.186,0.253,0.464,0.253,0.838v5.407
		c0,0.355-0.081,0.622-0.243,0.8s-0.37,0.267-0.625,0.267s-0.466-0.093-0.632-0.276C29.469,32.555,29.386,32.297,29.386,31.964z"/>
	<path fill="#1F6413" d="M34.551,26.461v0.226c0.328-0.433,0.687-0.751,1.077-0.954c0.39-0.202,0.837-0.304,1.343-0.304
		c0.492,0,0.932,0.107,1.319,0.321s0.677,0.518,0.868,0.909c0.123,0.228,0.203,0.474,0.239,0.738s0.055,0.602,0.055,1.012v3.473
		c0,0.374-0.085,0.656-0.256,0.848s-0.393,0.287-0.667,0.287c-0.278,0-0.503-0.098-0.677-0.294s-0.26-0.477-0.26-0.841v-3.11
		c0-0.615-0.085-1.086-0.256-1.412c-0.171-0.325-0.512-0.488-1.022-0.488c-0.333,0-0.636,0.1-0.909,0.297
		c-0.273,0.199-0.474,0.471-0.602,0.817c-0.091,0.278-0.137,0.798-0.137,1.559v2.338c0,0.378-0.088,0.662-0.263,0.851
		c-0.175,0.189-0.402,0.284-0.68,0.284c-0.269,0-0.49-0.098-0.663-0.294s-0.26-0.477-0.26-0.841v-5.394
		c0-0.355,0.078-0.621,0.232-0.797c0.155-0.175,0.367-0.263,0.636-0.263c0.164,0,0.312,0.039,0.444,0.116s0.238,0.193,0.318,0.349
		S34.551,26.237,34.551,26.461z"/>
	<path fill="#1F6413" d="M47.18,30.576c0,0.515-0.125,0.956-0.376,1.322c-0.25,0.367-0.621,0.646-1.111,0.834
		c-0.49,0.189-1.086,0.284-1.788,0.284c-0.67,0-1.244-0.103-1.723-0.308s-0.832-0.461-1.06-0.77
		c-0.228-0.307-0.342-0.616-0.342-0.926c0-0.205,0.073-0.381,0.219-0.526s0.331-0.219,0.554-0.219c0.196,0,0.346,0.048,0.451,0.144
		s0.205,0.23,0.301,0.403c0.191,0.333,0.42,0.581,0.687,0.745s0.63,0.246,1.09,0.246c0.374,0,0.68-0.083,0.919-0.25
		c0.239-0.166,0.359-0.356,0.359-0.57c0-0.328-0.124-0.567-0.373-0.718s-0.657-0.294-1.227-0.431
		c-0.643-0.159-1.166-0.327-1.569-0.502c-0.403-0.176-0.726-0.407-0.967-0.694s-0.362-0.641-0.362-1.06
		c0-0.374,0.112-0.727,0.335-1.06s0.553-0.599,0.988-0.796c0.435-0.199,0.96-0.298,1.576-0.298c0.483,0,0.917,0.05,1.302,0.15
		s0.707,0.234,0.964,0.403s0.454,0.355,0.588,0.561s0.202,0.405,0.202,0.602c0,0.214-0.072,0.39-0.215,0.526
		s-0.348,0.205-0.612,0.205c-0.191,0-0.354-0.055-0.489-0.164s-0.288-0.273-0.461-0.492c-0.141-0.183-0.308-0.328-0.499-0.438
		s-0.451-0.164-0.779-0.164c-0.337,0-0.618,0.071-0.841,0.216c-0.223,0.143-0.335,0.322-0.335,0.536
		c0,0.196,0.082,0.356,0.246,0.481c0.164,0.126,0.385,0.229,0.663,0.312s0.661,0.183,1.148,0.301
		c0.579,0.142,1.052,0.31,1.418,0.506s0.645,0.427,0.834,0.694C47.085,29.93,47.18,30.234,47.18,30.576z"/>
	<path fill="#1F6413" d="M53.828,29.681h-3.65c0.004,0.424,0.09,0.798,0.256,1.121s0.387,0.567,0.663,0.731s0.58,0.246,0.913,0.246
		c0.223,0,0.427-0.026,0.612-0.078c0.185-0.053,0.363-0.135,0.537-0.246c0.173-0.112,0.333-0.231,0.479-0.359
		s0.335-0.301,0.567-0.52c0.096-0.082,0.232-0.123,0.41-0.123c0.191,0,0.346,0.053,0.465,0.157s0.178,0.253,0.178,0.444
		c0,0.169-0.066,0.365-0.198,0.592c-0.132,0.225-0.332,0.441-0.598,0.648c-0.267,0.208-0.602,0.38-1.005,0.517
		s-0.867,0.205-1.391,0.205c-1.199,0-2.13-0.342-2.796-1.025s-0.998-1.611-0.998-2.782c0-0.552,0.082-1.063,0.246-1.535
		c0.164-0.471,0.403-0.876,0.718-1.213s0.702-0.596,1.162-0.775c0.46-0.181,0.971-0.271,1.531-0.271
		c0.729,0,1.354,0.153,1.876,0.462c0.522,0.307,0.913,0.705,1.172,1.192s0.39,0.984,0.39,1.49c0,0.47-0.134,0.773-0.403,0.913
		C54.694,29.611,54.316,29.681,53.828,29.681z M50.178,28.621h3.384c-0.045-0.638-0.218-1.115-0.516-1.432
		c-0.298-0.317-0.691-0.476-1.179-0.476c-0.465,0-0.847,0.161-1.145,0.481C50.423,27.518,50.242,27.992,50.178,28.621z"/>
	<path fill="#1F6413" d="M56.799,31.882v-8.094c0-0.374,0.083-0.656,0.25-0.848s0.391-0.287,0.673-0.287s0.51,0.095,0.684,0.284
		c0.173,0.188,0.26,0.473,0.26,0.851v8.094c0,0.378-0.088,0.662-0.263,0.851c-0.175,0.189-0.402,0.284-0.68,0.284
		c-0.273,0-0.496-0.098-0.667-0.294S56.799,32.246,56.799,31.882z"/>
	<path fill="#1F6413" d="M60.453,31.882v-8.094c0-0.374,0.083-0.656,0.25-0.848s0.391-0.287,0.673-0.287s0.51,0.095,0.684,0.284
		c0.173,0.188,0.26,0.473,0.26,0.851v8.094c0,0.378-0.088,0.662-0.263,0.851c-0.175,0.189-0.402,0.284-0.68,0.284
		c-0.273,0-0.496-0.098-0.667-0.294S60.453,32.246,60.453,31.882z"/>
	<path fill="#1F6413" d="M65.05,24.561c-0.26,0-0.482-0.08-0.667-0.239s-0.277-0.386-0.277-0.677c0-0.264,0.095-0.482,0.284-0.652
		c0.189-0.172,0.409-0.257,0.66-0.257c0.242,0,0.456,0.077,0.643,0.232s0.28,0.38,0.28,0.677c0,0.287-0.091,0.512-0.273,0.674
		C65.517,24.479,65.3,24.561,65.05,24.561z M65.973,26.488v5.394c0,0.374-0.089,0.656-0.267,0.848s-0.403,0.287-0.677,0.287
		s-0.496-0.098-0.667-0.294s-0.256-0.477-0.256-0.841v-5.339c0-0.369,0.085-0.647,0.256-0.834s0.393-0.28,0.667-0.28
		s0.499,0.094,0.677,0.28S65.973,26.155,65.973,26.488z"/>
	<path fill="#1F6413" d="M69.456,26.461v0.226c0.328-0.433,0.687-0.751,1.077-0.954c0.39-0.202,0.837-0.304,1.343-0.304
		c0.492,0,0.932,0.107,1.319,0.321s0.677,0.518,0.868,0.909c0.123,0.228,0.203,0.474,0.239,0.738s0.055,0.602,0.055,1.012v3.473
		c0,0.374-0.085,0.656-0.256,0.848s-0.393,0.287-0.667,0.287c-0.278,0-0.503-0.098-0.677-0.294s-0.26-0.477-0.26-0.841v-3.11
		c0-0.615-0.085-1.086-0.256-1.412c-0.171-0.325-0.512-0.488-1.022-0.488c-0.333,0-0.636,0.1-0.909,0.297
		c-0.273,0.199-0.474,0.471-0.602,0.817c-0.091,0.278-0.137,0.798-0.137,1.559v2.338c0,0.378-0.088,0.662-0.263,0.851
		c-0.175,0.189-0.402,0.284-0.68,0.284c-0.269,0-0.49-0.098-0.663-0.294s-0.26-0.477-0.26-0.841v-5.394
		c0-0.355,0.078-0.621,0.232-0.797c0.155-0.175,0.367-0.263,0.636-0.263c0.164,0,0.312,0.039,0.444,0.116s0.238,0.193,0.318,0.349
		S69.456,26.237,69.456,26.461z"/>
	<path fill="#1F6413" d="M82.939,26.796v5.421c0,0.62-0.065,1.153-0.197,1.6c-0.133,0.446-0.345,0.815-0.637,1.107
		c-0.291,0.292-0.673,0.508-1.145,0.649s-1.059,0.212-1.76,0.212c-0.643,0-1.217-0.09-1.723-0.27
		c-0.506-0.181-0.896-0.413-1.17-0.697c-0.273-0.285-0.41-0.578-0.41-0.879c0-0.228,0.078-0.414,0.232-0.557
		c0.155-0.145,0.342-0.216,0.561-0.216c0.273,0,0.514,0.121,0.719,0.362c0.1,0.123,0.203,0.247,0.311,0.373
		c0.107,0.125,0.226,0.232,0.355,0.32c0.13,0.09,0.286,0.155,0.469,0.199c0.182,0.043,0.392,0.064,0.629,0.064
		c0.482,0,0.857-0.067,1.124-0.201c0.267-0.135,0.454-0.323,0.561-0.564s0.17-0.5,0.188-0.775c0.018-0.276,0.031-0.72,0.041-1.33
		c-0.287,0.401-0.619,0.706-0.995,0.916s-0.823,0.314-1.343,0.314c-0.625,0-1.17-0.159-1.638-0.479s-0.826-0.766-1.077-1.34
		c-0.25-0.574-0.375-1.237-0.375-1.989c0-0.561,0.076-1.066,0.229-1.518c0.152-0.451,0.37-0.832,0.652-1.142
		c0.283-0.31,0.609-0.543,0.979-0.701c0.369-0.156,0.774-0.235,1.217-0.235c0.528,0,0.986,0.102,1.373,0.304
		c0.388,0.203,0.748,0.521,1.08,0.954v-0.253c0-0.323,0.08-0.574,0.24-0.752c0.159-0.178,0.364-0.267,0.615-0.267
		c0.359,0,0.599,0.117,0.717,0.353C82.881,26.016,82.939,26.354,82.939,26.796z M77.533,29.161c0,0.757,0.164,1.328,0.495,1.716
		s0.758,0.581,1.282,0.581c0.31,0,0.602-0.083,0.878-0.249c0.276-0.167,0.5-0.418,0.673-0.752c0.174-0.336,0.26-0.742,0.26-1.221
		c0-0.761-0.167-1.354-0.502-1.777s-0.775-0.636-1.322-0.636c-0.533,0-0.961,0.203-1.282,0.608S77.533,28.414,77.533,29.161z"/>
	<path fill="#1F6413" d="M95.791,29.838c0,0.606-0.156,1.15-0.468,1.634s-0.769,0.861-1.37,1.135s-1.315,0.41-2.141,0.41
		c-0.988,0-1.805-0.187-2.447-0.561c-0.455-0.269-0.826-0.628-1.11-1.077c-0.284-0.448-0.427-0.885-0.427-1.309
		c0-0.246,0.085-0.457,0.256-0.633c0.171-0.175,0.389-0.263,0.652-0.263c0.215,0,0.396,0.068,0.544,0.205s0.274,0.34,0.38,0.608
		c0.127,0.319,0.266,0.586,0.413,0.8s0.356,0.391,0.626,0.53c0.269,0.139,0.621,0.208,1.059,0.208c0.602,0,1.091-0.14,1.467-0.421
		c0.376-0.279,0.564-0.63,0.564-1.049c0-0.333-0.102-0.603-0.305-0.811c-0.203-0.207-0.465-0.365-0.786-0.475
		s-0.751-0.226-1.288-0.349c-0.721-0.169-1.323-0.366-1.809-0.591c-0.485-0.227-0.871-0.533-1.155-0.924
		c-0.284-0.389-0.427-0.873-0.427-1.452c0-0.552,0.15-1.042,0.451-1.47s0.735-0.758,1.305-0.988c0.57-0.229,1.24-0.345,2.01-0.345
		c0.615,0,1.148,0.076,1.597,0.229c0.448,0.152,0.821,0.355,1.118,0.607c0.296,0.254,0.512,0.52,0.648,0.797
		s0.205,0.549,0.205,0.813c0,0.241-0.085,0.459-0.256,0.653c-0.171,0.193-0.384,0.29-0.639,0.29c-0.232,0-0.41-0.058-0.53-0.175
		c-0.12-0.115-0.252-0.306-0.394-0.57c-0.182-0.378-0.4-0.674-0.656-0.885c-0.255-0.213-0.665-0.318-1.23-0.318
		c-0.523,0-0.946,0.115-1.268,0.346c-0.321,0.229-0.482,0.507-0.482,0.83c0,0.2,0.055,0.374,0.164,0.52s0.26,0.271,0.451,0.376
		s0.386,0.187,0.582,0.246c0.195,0.06,0.52,0.146,0.971,0.26c0.564,0.132,1.076,0.278,1.534,0.438s0.848,0.354,1.169,0.581
		s0.572,0.516,0.752,0.865C95.701,28.904,95.791,29.332,95.791,29.838z"/>
	<path fill="#1F6413" d="M102.453,29.681h-3.65c0.005,0.424,0.09,0.798,0.257,1.121s0.388,0.567,0.663,0.731s0.58,0.246,0.912,0.246
		c0.224,0,0.428-0.026,0.612-0.078c0.185-0.053,0.363-0.135,0.536-0.246c0.174-0.112,0.333-0.231,0.479-0.359
		c0.146-0.128,0.336-0.301,0.568-0.52c0.096-0.082,0.232-0.123,0.41-0.123c0.191,0,0.346,0.053,0.465,0.157
		c0.118,0.104,0.178,0.253,0.178,0.444c0,0.169-0.066,0.365-0.199,0.592c-0.132,0.225-0.331,0.441-0.598,0.648
		c-0.267,0.208-0.602,0.38-1.005,0.517s-0.867,0.205-1.392,0.205c-1.198,0-2.13-0.342-2.795-1.025
		c-0.666-0.684-0.998-1.611-0.998-2.782c0-0.552,0.082-1.063,0.246-1.535c0.164-0.471,0.402-0.876,0.717-1.213
		s0.702-0.596,1.162-0.775c0.461-0.181,0.971-0.271,1.531-0.271c0.729,0,1.355,0.153,1.877,0.462
		c0.521,0.307,0.912,0.705,1.172,1.192s0.391,0.984,0.391,1.49c0,0.47-0.135,0.773-0.404,0.913
		C103.319,29.611,102.941,29.681,102.453,29.681z M98.803,28.621h3.385c-0.046-0.638-0.219-1.115-0.517-1.432
		c-0.298-0.317-0.691-0.476-1.179-0.476c-0.465,0-0.848,0.161-1.146,0.481C99.049,27.518,98.867,27.992,98.803,28.621z"/>
	<path fill="#1F6413" d="M107.276,30.323v1.559c0,0.378-0.089,0.662-0.267,0.851c-0.178,0.189-0.403,0.284-0.677,0.284
		c-0.269,0-0.489-0.096-0.663-0.287s-0.26-0.474-0.26-0.848v-5.195c0-0.839,0.303-1.258,0.909-1.258c0.31,0,0.533,0.098,0.67,0.294
		s0.212,0.485,0.226,0.868c0.223-0.383,0.452-0.672,0.688-0.868c0.234-0.196,0.547-0.294,0.939-0.294s0.772,0.098,1.142,0.294
		s0.554,0.456,0.554,0.779c0,0.228-0.078,0.416-0.236,0.564c-0.156,0.147-0.326,0.222-0.509,0.222c-0.068,0-0.233-0.042-0.495-0.126
		c-0.263-0.085-0.494-0.127-0.694-0.127c-0.273,0-0.497,0.072-0.67,0.215c-0.173,0.145-0.308,0.357-0.403,0.64
		s-0.162,0.618-0.198,1.009C107.295,29.287,107.276,29.763,107.276,30.323z"/>
	<path fill="#1F6413" d="M112.734,26.591l1.512,4.238l1.627-4.423c0.127-0.355,0.252-0.607,0.375-0.756
		c0.123-0.147,0.311-0.222,0.561-0.222c0.237,0,0.439,0.08,0.605,0.239s0.25,0.344,0.25,0.554c0,0.082-0.016,0.178-0.045,0.287
		s-0.064,0.212-0.103,0.308s-0.083,0.205-0.134,0.328l-1.791,4.443c-0.05,0.128-0.115,0.289-0.194,0.485s-0.169,0.363-0.267,0.503
		c-0.098,0.139-0.219,0.247-0.362,0.324s-0.317,0.116-0.522,0.116c-0.265,0-0.476-0.061-0.633-0.181
		c-0.157-0.121-0.273-0.254-0.349-0.396c-0.075-0.145-0.202-0.428-0.38-0.852l-1.777-4.396c-0.041-0.109-0.082-0.219-0.126-0.328
		s-0.079-0.221-0.109-0.335s-0.044-0.212-0.044-0.294c0-0.128,0.038-0.254,0.115-0.38c0.078-0.125,0.186-0.228,0.322-0.307
		c0.137-0.08,0.284-0.12,0.443-0.12c0.311,0,0.523,0.089,0.64,0.267S112.594,26.172,112.734,26.591z"/>
	<path fill="#1F6413" d="M119.807,24.561c-0.26,0-0.481-0.08-0.667-0.239c-0.184-0.159-0.276-0.386-0.276-0.677
		c0-0.264,0.095-0.482,0.284-0.652c0.188-0.172,0.408-0.257,0.659-0.257c0.241,0,0.456,0.077,0.643,0.232s0.28,0.38,0.28,0.677
		c0,0.287-0.091,0.512-0.273,0.674C120.273,24.479,120.058,24.561,119.807,24.561z M120.729,26.488v5.394
		c0,0.374-0.089,0.656-0.267,0.848s-0.403,0.287-0.677,0.287s-0.496-0.098-0.666-0.294c-0.172-0.196-0.257-0.477-0.257-0.841v-5.339
		c0-0.369,0.085-0.647,0.257-0.834c0.17-0.187,0.393-0.28,0.666-0.28s0.499,0.094,0.677,0.28S120.729,26.155,120.729,26.488z"/>
	<path fill="#1F6413" d="M129.21,30.706c0,0.232-0.069,0.48-0.209,0.745c-0.139,0.265-0.351,0.516-0.635,0.756
		c-0.285,0.238-0.645,0.432-1.077,0.577s-0.921,0.219-1.463,0.219c-1.153,0-2.053-0.336-2.7-1.009
		c-0.647-0.672-0.971-1.573-0.971-2.703c0-0.766,0.148-1.442,0.444-2.03s0.725-1.042,1.285-1.364c0.561-0.32,1.23-0.481,2.01-0.481
		c0.483,0,0.927,0.07,1.329,0.212c0.404,0.142,0.746,0.323,1.025,0.547c0.281,0.224,0.495,0.461,0.643,0.715
		c0.148,0.252,0.223,0.488,0.223,0.707c0,0.224-0.083,0.412-0.25,0.567c-0.166,0.155-0.367,0.232-0.604,0.232
		c-0.155,0-0.284-0.04-0.386-0.12c-0.104-0.079-0.218-0.208-0.346-0.386c-0.228-0.347-0.466-0.606-0.715-0.779
		c-0.248-0.173-0.563-0.26-0.946-0.26c-0.552,0-0.996,0.216-1.333,0.646c-0.337,0.432-0.506,1.021-0.506,1.768
		c0,0.351,0.043,0.674,0.13,0.967c0.087,0.295,0.212,0.545,0.376,0.752c0.164,0.208,0.362,0.365,0.595,0.473
		c0.232,0.106,0.487,0.16,0.766,0.16c0.374,0,0.694-0.087,0.96-0.26c0.268-0.173,0.503-0.438,0.708-0.793
		c0.114-0.21,0.237-0.374,0.369-0.492s0.294-0.178,0.485-0.178c0.228,0,0.417,0.087,0.567,0.26S129.21,30.51,129.21,30.706z"/>
	<path fill="#1F6413" d="M135.906,29.681h-3.65c0.005,0.424,0.09,0.798,0.257,1.121c0.166,0.323,0.387,0.567,0.662,0.731
		c0.276,0.164,0.58,0.246,0.913,0.246c0.224,0,0.427-0.026,0.612-0.078c0.184-0.053,0.363-0.135,0.536-0.246
		c0.173-0.112,0.333-0.231,0.479-0.359s0.335-0.301,0.567-0.52c0.096-0.082,0.232-0.123,0.41-0.123c0.191,0,0.347,0.053,0.465,0.157
		s0.178,0.253,0.178,0.444c0,0.169-0.066,0.365-0.198,0.592c-0.132,0.225-0.331,0.441-0.599,0.648
		c-0.266,0.208-0.602,0.38-1.004,0.517c-0.404,0.137-0.867,0.205-1.392,0.205c-1.198,0-2.131-0.342-2.796-1.025
		s-0.998-1.611-0.998-2.782c0-0.552,0.082-1.063,0.246-1.535c0.164-0.471,0.403-0.876,0.718-1.213s0.702-0.596,1.162-0.775
		c0.46-0.181,0.971-0.271,1.531-0.271c0.729,0,1.354,0.153,1.876,0.462c0.522,0.307,0.913,0.705,1.173,1.192s0.39,0.984,0.39,1.49
		c0,0.47-0.135,0.773-0.403,0.913C136.772,29.611,136.394,29.681,135.906,29.681z M132.256,28.621h3.384
		c-0.046-0.638-0.218-1.115-0.516-1.432c-0.299-0.317-0.692-0.476-1.18-0.476c-0.465,0-0.847,0.161-1.145,0.481
		C132.501,27.518,132.319,27.992,132.256,28.621z"/>
	<path fill="#1F6413" d="M144.885,30.576c0,0.515-0.125,0.956-0.376,1.322c-0.251,0.367-0.621,0.646-1.11,0.834
		c-0.49,0.189-1.086,0.284-1.788,0.284c-0.67,0-1.244-0.103-1.723-0.308s-0.832-0.461-1.06-0.77
		c-0.228-0.307-0.342-0.616-0.342-0.926c0-0.205,0.073-0.381,0.219-0.526s0.33-0.219,0.554-0.219c0.196,0,0.347,0.048,0.451,0.144
		s0.205,0.23,0.301,0.403c0.191,0.333,0.421,0.581,0.687,0.745c0.268,0.164,0.631,0.246,1.091,0.246c0.374,0,0.681-0.083,0.919-0.25
		c0.24-0.166,0.359-0.356,0.359-0.57c0-0.328-0.124-0.567-0.373-0.718c-0.248-0.15-0.657-0.294-1.227-0.431
		c-0.643-0.159-1.166-0.327-1.568-0.502c-0.404-0.176-0.727-0.407-0.968-0.694s-0.362-0.641-0.362-1.06
		c0-0.374,0.111-0.727,0.335-1.06s0.553-0.599,0.987-0.796c0.436-0.199,0.961-0.298,1.576-0.298c0.483,0,0.917,0.05,1.303,0.15
		c0.385,0.101,0.706,0.234,0.963,0.403c0.258,0.169,0.454,0.355,0.588,0.561c0.135,0.205,0.202,0.405,0.202,0.602
		c0,0.214-0.071,0.39-0.216,0.526c-0.143,0.137-0.347,0.205-0.611,0.205c-0.191,0-0.354-0.055-0.488-0.164
		c-0.135-0.109-0.289-0.273-0.462-0.492c-0.142-0.183-0.308-0.328-0.499-0.438s-0.451-0.164-0.779-0.164
		c-0.337,0-0.617,0.071-0.841,0.216c-0.224,0.143-0.335,0.322-0.335,0.536c0,0.196,0.082,0.356,0.246,0.481
		c0.164,0.126,0.385,0.229,0.663,0.312s0.661,0.183,1.148,0.301c0.579,0.142,1.052,0.31,1.419,0.506
		c0.366,0.196,0.645,0.427,0.834,0.694C144.79,29.93,144.885,30.234,144.885,30.576z"/>
</g>
<g>
</g>
<g>
</g>
<g>
</g>
<g>
</g>
<g>
</g>
<g>
</g>
</svg>
