<?xml version="1.0" encoding="utf-8"?>
<!-- Generator: Adobe Illustrator 19.1.1, SVG Export Plug-In . SVG Version: 6.00 Build 0)  -->
<!DOCTYPE svg PUBLIC "-//W3C//DTD SVG 1.1//EN" "http://www.w3.org/Graphics/SVG/1.1/DTD/svg11.dtd">
<svg version="1.1" id="Admissions_x5F_Ver2" xmlns="http://www.w3.org/2000/svg" xmlns:xlink="http://www.w3.org/1999/xlink"
	 x="0px" y="0px" viewBox="0 0 150 40" enable-background="new 0 0 150 40" xml:space="preserve">
<rect fill="#FFFFFF" width="150" height="40"/>
<g>
	<rect x="57" y="12.605" fill="none" width="89.333" height="17.167"/>
	<path d="M63.104,14.417l4.062,9.719c0.117,0.273,0.244,0.459,0.381,0.557s0.318,0.146,0.543,0.146h0.396v0.682h-5.083v-0.682h0.476
		c0.376,0,0.635-0.041,0.777-0.124c0.141-0.083,0.212-0.193,0.212-0.33c0-0.107-0.029-0.231-0.088-0.373l-0.835-2.007h-4.056
		l-0.386,0.915c-0.161,0.381-0.242,0.664-0.242,0.85c0,0.317,0.118,0.575,0.353,0.773c0.235,0.197,0.556,0.296,0.961,0.296h0.345
		v0.682h-4.115v-0.682h0.234c0.265,0,0.498-0.083,0.698-0.249c0.284-0.234,0.505-0.534,0.662-0.9l3.884-9.272H63.104z
		 M61.926,17.159l-1.736,4.128h3.454L61.926,17.159z"/>
	<path d="M73.117,14.659l3.406-0.132v8.964c0,0.459,0.03,0.769,0.092,0.927c0.061,0.159,0.154,0.273,0.281,0.345
		c0.127,0.07,0.371,0.105,0.732,0.105v0.652l-2.819,0.088l-0.205-1.333c-0.43,0.562-0.819,0.935-1.168,1.12
		c-0.35,0.186-0.785,0.278-1.308,0.278c-0.938,0-1.702-0.314-2.293-0.944s-0.886-1.484-0.886-2.563c0-1.191,0.313-2.136,0.938-2.834
		s1.401-1.047,2.329-1.047c0.498,0,0.941,0.109,1.329,0.326c0.389,0.217,0.741,0.57,1.059,1.058v-3.12
		c0-0.371-0.034-0.637-0.103-0.798s-0.16-0.272-0.274-0.333c-0.115-0.061-0.351-0.092-0.707-0.092h-0.403V14.659z M72.882,19.229
		c-0.566,0-0.988,0.249-1.267,0.747c-0.229,0.405-0.345,1.049-0.345,1.933c0,0.737,0.063,1.288,0.191,1.652
		c0.126,0.363,0.309,0.635,0.545,0.813c0.237,0.179,0.507,0.268,0.81,0.268c0.498,0,0.898-0.213,1.201-0.638
		c0.405-0.557,0.608-1.27,0.608-2.139c0-0.806-0.176-1.446-0.527-1.922C73.748,19.467,73.341,19.229,72.882,19.229z"/>
	<path d="M92.509,24.839v0.682H88.37v-0.682h0.425c0.259,0,0.44-0.051,0.546-0.153c0.104-0.103,0.157-0.261,0.157-0.476v-2.977
		c0-0.551-0.113-0.958-0.341-1.221c-0.227-0.263-0.543-0.395-0.948-0.395c-0.332,0-0.616,0.074-0.854,0.223
		c-0.236,0.149-0.44,0.397-0.611,0.746s-0.257,0.691-0.257,1.027v2.685c0,0.176,0.049,0.31,0.146,0.402s0.229,0.139,0.396,0.139
		h0.563v0.682h-4.212v-0.682h0.469c0.254,0,0.426-0.041,0.514-0.124c0.111-0.107,0.168-0.262,0.168-0.462v-3.091
		c0-0.493-0.122-0.876-0.366-1.149s-0.555-0.41-0.931-0.41c-0.293,0-0.564,0.076-0.816,0.227c-0.251,0.151-0.466,0.386-0.645,0.703
		c-0.178,0.317-0.268,0.608-0.268,0.872v2.688c0,0.273,0.049,0.459,0.146,0.557c0.133,0.127,0.317,0.19,0.557,0.19h0.403v0.682
		H78.38v-0.682h0.483c0.259,0,0.438-0.047,0.538-0.143c0.101-0.095,0.15-0.257,0.15-0.486v-4.118c0-0.186-0.035-0.333-0.106-0.442
		c-0.07-0.11-0.182-0.194-0.333-0.252c-0.112-0.044-0.342-0.066-0.688-0.066v-0.667l2.827-0.154
		c0.107,0.471,0.178,0.979,0.213,1.523c0.469-0.598,0.919-1.016,1.351-1.254c0.433-0.238,0.902-0.357,1.41-0.357
		c0.547,0,1,0.139,1.358,0.416c0.359,0.277,0.624,0.695,0.795,1.254c0.465-0.613,0.926-1.047,1.383-1.302s0.935-0.382,1.434-0.382
		c0.694,0,1.242,0.217,1.644,0.652c0.4,0.439,0.601,1.062,0.601,1.868v3.281c0,0.225,0.051,0.386,0.151,0.483
		s0.257,0.146,0.469,0.146H92.509z"/>
	<path d="M93.215,18.665l3.047-0.139v5.823c0,0.156,0.05,0.277,0.15,0.362c0.1,0.086,0.253,0.128,0.458,0.128h0.461v0.682h-4.116
		v-0.682h0.454c0.244,0,0.416-0.056,0.517-0.168c0.1-0.112,0.149-0.308,0.149-0.586v-3.97c0-0.249-0.071-0.442-0.216-0.579
		c-0.144-0.137-0.343-0.205-0.597-0.205h-0.308V18.665z M95.097,14.71c0.327,0,0.608,0.116,0.843,0.348
		c0.234,0.232,0.352,0.514,0.352,0.846s-0.117,0.614-0.352,0.846s-0.516,0.348-0.843,0.348c-0.332,0-0.615-0.117-0.85-0.352
		s-0.352-0.515-0.352-0.842c0-0.332,0.117-0.614,0.352-0.846C94.481,14.826,94.765,14.71,95.097,14.71z"/>
	<path d="M103.221,18.87l0.479-0.579h0.447l0.146,2.344H103.7c-0.313-0.623-0.655-1.061-1.029-1.313
		c-0.373-0.252-0.826-0.379-1.358-0.379c-0.459,0-0.809,0.088-1.048,0.264s-0.358,0.399-0.358,0.668
		c0,0.264,0.093,0.465,0.278,0.602c0.186,0.142,0.692,0.296,1.523,0.462c0.751,0.151,1.252,0.278,1.501,0.381
		c0.474,0.19,0.844,0.474,1.11,0.851c0.266,0.376,0.398,0.815,0.398,1.318c0,0.636-0.255,1.169-0.765,1.602
		c-0.51,0.432-1.18,0.648-2.009,0.648c-0.4,0-0.763-0.048-1.087-0.143c-0.324-0.096-0.662-0.263-1.014-0.502l-0.523,0.615h-0.557
		l-0.132-2.593h0.607c0.518,1.309,1.406,1.963,2.666,1.963c0.518,0,0.913-0.101,1.188-0.301c0.272-0.2,0.41-0.44,0.41-0.719
		c0-0.254-0.086-0.447-0.257-0.579s-0.625-0.274-1.362-0.426c-0.796-0.161-1.338-0.3-1.626-0.417
		c-0.493-0.19-0.864-0.455-1.113-0.795c-0.249-0.339-0.374-0.747-0.374-1.226c0-0.683,0.228-1.243,0.683-1.68
		c0.454-0.437,1.063-0.655,1.825-0.655c0.371,0,0.704,0.044,1,0.132S102.888,18.655,103.221,18.87z"/>
	<path d="M110.57,18.87l0.479-0.579h0.447l0.146,2.344h-0.594c-0.313-0.623-0.655-1.061-1.029-1.313
		c-0.373-0.252-0.826-0.379-1.358-0.379c-0.459,0-0.809,0.088-1.048,0.264s-0.358,0.399-0.358,0.668
		c0,0.264,0.093,0.465,0.278,0.602c0.186,0.142,0.692,0.296,1.523,0.462c0.751,0.151,1.252,0.278,1.501,0.381
		c0.474,0.19,0.844,0.474,1.11,0.851c0.266,0.376,0.398,0.815,0.398,1.318c0,0.636-0.255,1.169-0.765,1.602
		c-0.51,0.432-1.18,0.648-2.009,0.648c-0.4,0-0.763-0.048-1.087-0.143c-0.324-0.096-0.662-0.263-1.014-0.502l-0.523,0.615h-0.557
		l-0.132-2.593h0.607c0.518,1.309,1.406,1.963,2.666,1.963c0.518,0,0.913-0.101,1.188-0.301c0.272-0.2,0.41-0.44,0.41-0.719
		c0-0.254-0.086-0.447-0.257-0.579s-0.625-0.274-1.362-0.426c-0.796-0.161-1.338-0.3-1.626-0.417
		c-0.493-0.19-0.864-0.455-1.113-0.795c-0.249-0.339-0.374-0.747-0.374-1.226c0-0.683,0.228-1.243,0.683-1.68
		c0.454-0.437,1.063-0.655,1.825-0.655c0.371,0,0.704,0.044,1,0.132S110.237,18.655,110.57,18.87z"/>
	<path d="M113.316,18.665l3.047-0.139v5.823c0,0.156,0.05,0.277,0.15,0.362c0.1,0.086,0.253,0.128,0.458,0.128h0.461v0.682h-4.116
		v-0.682h0.454c0.244,0,0.416-0.056,0.517-0.168c0.1-0.112,0.149-0.308,0.149-0.586v-3.97c0-0.249-0.071-0.442-0.216-0.579
		c-0.144-0.137-0.343-0.205-0.597-0.205h-0.308V18.665z M115.198,14.71c0.327,0,0.608,0.116,0.843,0.348
		c0.234,0.232,0.352,0.514,0.352,0.846s-0.117,0.614-0.352,0.846s-0.516,0.348-0.843,0.348c-0.332,0-0.615-0.117-0.85-0.352
		s-0.352-0.515-0.352-0.842c0-0.332,0.117-0.614,0.352-0.846C114.583,14.826,114.866,14.71,115.198,14.71z"/>
	<path d="M122.403,18.284c0.766,0,1.471,0.166,2.112,0.498c0.643,0.332,1.119,0.766,1.433,1.3c0.312,0.535,0.469,1.178,0.469,1.93
		c0,1.201-0.409,2.123-1.228,2.766c-0.817,0.642-1.744,0.963-2.779,0.963c-0.732,0-1.402-0.165-2.011-0.494
		c-0.607-0.33-1.075-0.774-1.402-1.333c-0.327-0.56-0.49-1.19-0.49-1.894c0-1.06,0.369-1.947,1.109-2.662
		C120.355,18.642,121.284,18.284,122.403,18.284z M122.446,18.98c-0.508,0-0.911,0.223-1.212,0.67c-0.3,0.446-0.45,1.231-0.45,2.354
		c0,1.167,0.148,1.972,0.447,2.413c0.297,0.442,0.7,0.663,1.208,0.663c0.518,0,0.935-0.228,1.253-0.682
		c0.316-0.454,0.476-1.237,0.476-2.351c0-1.143-0.156-1.939-0.469-2.392C123.387,19.206,122.969,18.98,122.446,18.98z"/>
	<path d="M136.755,24.839v0.682h-4.124v-0.682h0.433c0.229,0,0.4-0.059,0.513-0.176s0.168-0.288,0.168-0.513v-2.974
		c0-0.507-0.115-0.896-0.346-1.168c-0.23-0.271-0.533-0.406-0.907-0.406c-0.511,0-0.926,0.192-1.246,0.575
		c-0.321,0.383-0.481,0.943-0.481,1.681v2.292c0,0.225,0.058,0.396,0.172,0.513c0.115,0.117,0.263,0.176,0.443,0.176h0.52v0.682
		h-4.284v-0.682h0.557c0.215,0,0.377-0.059,0.487-0.176c0.109-0.117,0.164-0.288,0.164-0.513v-4.079
		c0-0.234-0.079-0.421-0.237-0.561c-0.159-0.139-0.368-0.208-0.626-0.208h-0.293v-0.637l2.863-0.154
		c0.103,0.42,0.181,0.92,0.234,1.501c0.399-0.542,0.825-0.947,1.278-1.216c0.452-0.269,0.93-0.403,1.431-0.403
		c0.682,0,1.22,0.227,1.614,0.681c0.39,0.454,0.584,1.086,0.584,1.897v3.178c0,0.244,0.056,0.42,0.169,0.527
		c0.111,0.107,0.29,0.161,0.534,0.161H136.755z"/>
	<path d="M142.461,18.87l0.479-0.579h0.447l0.146,2.344h-0.594c-0.313-0.623-0.655-1.061-1.029-1.313
		c-0.373-0.252-0.826-0.379-1.358-0.379c-0.459,0-0.809,0.088-1.048,0.264s-0.358,0.399-0.358,0.668
		c0,0.264,0.093,0.465,0.278,0.602c0.186,0.142,0.692,0.296,1.523,0.462c0.751,0.151,1.252,0.278,1.501,0.381
		c0.474,0.19,0.844,0.474,1.11,0.851c0.266,0.376,0.398,0.815,0.398,1.318c0,0.636-0.255,1.169-0.765,1.602
		c-0.51,0.432-1.18,0.648-2.009,0.648c-0.4,0-0.763-0.048-1.087-0.143c-0.324-0.096-0.662-0.263-1.014-0.502l-0.523,0.615h-0.557
		l-0.132-2.593h0.607c0.518,1.309,1.406,1.963,2.666,1.963c0.518,0,0.913-0.101,1.188-0.301c0.272-0.2,0.41-0.44,0.41-0.719
		c0-0.254-0.086-0.447-0.257-0.579s-0.625-0.274-1.362-0.426c-0.796-0.161-1.338-0.3-1.626-0.417
		c-0.493-0.19-0.864-0.455-1.113-0.795c-0.249-0.339-0.374-0.747-0.374-1.226c0-0.683,0.228-1.243,0.683-1.68
		c0.454-0.437,1.063-0.655,1.825-0.655c0.371,0,0.704,0.044,1,0.132S142.128,18.655,142.461,18.87z"/>
</g>
<g>
	<path fill="#FFFFFE" d="M30.617,34.889c-2.922,0-4.604-1.528-4.614-4.193c0-0.422,0.045-0.898,0.144-1.496l0.046-0.28H25.91H5.622
		l2.87-10.73l0.081-0.3l-0.311-0.004l-4.552-0.044C11.599,6.244,14.66,5.281,17.338,5.281c1.621,0,2.959,0.633,3.766,1.782
		l0.132,0.19l0.195-0.125c1.981-1.266,3.775-1.856,5.647-1.856c1.592,0,2.876,0.443,3.714,1.282c0.768,0.77,1.155,1.849,1.152,3.209
		c-0.001,0.64-0.086,1.265-0.324,2.392l-0.062,0.291h0.297h19.129L48.26,22.665l-0.081,0.304h0.313h4.303
		c-6.973,10.064-9.828,11.911-12.925,11.911c-1.55,0-2.778-0.58-3.549-1.679l-0.131-0.187l-0.193,0.12
		C34.052,34.348,32.392,34.889,30.617,34.889L30.617,34.889z"/>
	<path fill="#006647" d="M52.965,22.728h-4.473l2.805-10.522H31.855c0.227-1.081,0.327-1.754,0.329-2.441
		c0.008-3.172-2.067-4.734-5.106-4.734c-1.909,0-3.75,0.598-5.777,1.895c-0.836-1.191-2.224-1.885-3.963-1.885
		c-2.607,0-5.691,0.688-13.885,12.753c-0.144,0.212-0.116,0.288,0.091,0.288l4.716,0.046c-0.675,2.525-2.951,11.033-2.951,11.033
		h20.6c-0.105,0.632-0.148,1.118-0.148,1.536c0.013,2.97,1.989,4.434,4.855,4.434c1.814,0,3.526-0.555,5.507-1.792
		c0.794,1.132,2.093,1.782,3.746,1.782c3.048,0,5.837-1.477,13.22-12.154C53.199,22.808,53.171,22.73,52.965,22.728z M26.19,27.711
		h-8.511l0.61-2.401h-1.894l-0.61,2.401H7.197l2.947-11.016H5.998C12.749,7.113,15.177,6.49,17.337,6.49
		c1.731,0,2.961,0.783,3.296,2.579c2.957-2.094,4.735-2.589,6.444-2.589c2.701,0,4.335,1.705,3.387,5.382L26.19,27.711z
		 M39.87,33.68c-1.643,0-2.802-0.768-3.122-2.474c-2.257,1.658-4.13,2.484-6.131,2.484c-2.566,0-4.126-1.608-3.218-5.05
		l4.062-15.058h8.059l-0.612,2.28h1.961l0.607-2.208h7.935l-2.819,10.486h3.975C45.142,31.636,42.714,33.68,39.87,33.68z
		 M44.165,20.5H40.11c-0.322,0-0.381-0.125-0.303-0.416c0.078-0.29,0.524-1.965,0.524-1.965c0.12-0.448-0.144-0.708-0.81-0.708
		c-0.668,0-1.092,0.26-1.213,0.708c0,0-0.446,1.675-0.52,1.95c-0.073,0.275-0.313,0.431-0.571,0.431h-4.182
		c-0.627,0-0.965,0.441-1.06,0.793l-1.826,6.813c-0.104,0.384,0.044,0.674,0.744,0.674c0.699,0,0.996-0.27,1.107-0.683l1.501-5.597
		c0.082-0.308,0.294-0.473,0.558-0.473h0.894c0.231,0,0.332,0.137,0.25,0.443s-1.512,5.635-1.512,5.635
		c-0.103,0.384,0.018,0.673,0.746,0.673c0.727,0,1.002-0.289,1.105-0.673l1.52-5.665c0.098-0.367,0.338-0.413,0.66-0.413h1.19
		c0.291,0,0.404,0.091,0.308,0.443c-0.094,0.353-1.512,5.635-1.512,5.635c-0.102,0.384,0.17,0.673,0.745,0.673
		c0.576,0,1.003-0.289,1.106-0.673c0,0,1.418-5.282,1.508-5.619c0.09-0.337,0.279-0.458,0.567-0.458h0.799
		c0.315,0,0.415,0.123,0.32,0.474c-0.098,0.367-1.503,5.606-1.503,5.606c-0.103,0.384,0.192,0.674,0.745,0.674
		c0.552,0,1.002-0.29,1.105-0.674l1.834-6.838C45.078,20.734,45.031,20.5,44.165,20.5z M23.064,18.95h-5.056
		c-0.32,0-0.558,0.212-0.617,0.431l-0.355,1.388c-0.083,0.306-0.004,0.541,0.43,0.541l5.075-0.001c0.227,0,0.385-0.138,0.479-0.489
		l0.358-1.394C23.455,19.136,23.469,18.95,23.064,18.95z M24.548,13.489h-3.165c-0.196,0-0.361,0.096-0.412,0.285l-0.314,1.172
		c-0.055,0.203,0.03,0.273,0.261,0.273h3.166c0.263,0,0.368-0.12,0.417-0.302l0.296-1.1C24.856,13.592,24.756,13.489,24.548,13.489z
		 M27.077,7.414c-2.117,0-3.954,0.948-7.001,3.254c-0.366-2.689-1.293-3.244-2.739-3.244c-1.398,0-3.476,0.006-9.51,8.311
		l3.534,0.033c0,0-2.441,9.124-2.943,11.004h6.639c0.178-0.703,0.609-2.401,0.609-2.401h3.827c0,0-0.453,1.785-0.609,2.401h6.587
		c0.342-1.267,4.087-15.15,4.087-15.15C30.378,8.524,28.667,7.414,27.077,7.414z M25.145,18.724l-0.716,2.737
		c-0.205,0.764-0.744,1.176-1.463,1.176h-6.892c-0.81,0-1.013-0.298-0.819-1.025l0.751-2.861c0.182-0.674,0.618-1.022,1.405-1.022
		h6.984C25.323,17.73,25.331,18.037,25.145,18.724z M26.71,12.985l-0.704,2.625c-0.14,0.521-0.432,0.892-1.039,0.892h-9.279
		c-0.401,0-0.533,0.222-0.631,0.588l-1.36,5.071c-0.108,0.405-0.425,0.637-1.001,0.637c-0.578,0-0.741-0.233-0.632-0.637l1.66-6.2
		c0.112-0.416,0.576-0.741,1.025-0.741h3.72c0.298,0,0.428-0.091,0.488-0.316l0.278-1.035c0.077-0.29-0.103-0.379-0.325-0.379
		h-4.023c-0.425,0-0.553-0.195-0.431-0.651c0.108-0.405,0.35-0.63,0.774-0.63h10.933C26.741,12.207,26.853,12.451,26.71,12.985z"/>
</g>
<g>
</g>
<g>
</g>
<g>
</g>
<g>
</g>
<g>
</g>
<g>
</g>
</svg>
