<?xml version="1.0" encoding="utf-8"?>
<!-- Generator: Adobe Illustrator 19.1.1, SVG Export Plug-In . SVG Version: 6.00 Build 0)  -->
<!DOCTYPE svg PUBLIC "-//W3C//DTD SVG 1.1//EN" "http://www.w3.org/Graphics/SVG/1.1/DTD/svg11.dtd">
<svg version="1.1" id="G30_International_Programsのコピー"
	 xmlns="http://www.w3.org/2000/svg" xmlns:xlink="http://www.w3.org/1999/xlink" x="0px" y="0px" viewBox="0 0 150 40"
	 enable-background="new 0 0 150 40" xml:space="preserve">
<rect fill="#FFFFFF" width="150" height="40"/>
<g>
	<path d="M7.095,13.766V6.607h0.972l3.76,5.62v-5.62h0.908v7.158h-0.972l-3.76-5.625v5.625H7.095z"/>
	<path d="M13.391,13.766l2.749-7.158h1.021l2.93,7.158h-1.079l-0.835-2.168h-2.993l-0.786,2.168H13.391z M15.456,10.826h2.427
		l-0.747-1.982c-0.228-0.602-0.397-1.097-0.508-1.484c-0.091,0.459-0.22,0.915-0.386,1.367L15.456,10.826z"/>
	<path d="M24.046,10.958v-0.84l3.032-0.005v2.656c-0.465,0.371-0.946,0.65-1.44,0.837s-1.002,0.281-1.523,0.281
		c-0.703,0-1.342-0.15-1.917-0.452S21.19,12.7,20.897,12.13s-0.439-1.206-0.439-1.909c0-0.697,0.146-1.347,0.437-1.951
		s0.71-1.052,1.257-1.345s1.177-0.439,1.89-0.439c0.518,0,0.985,0.084,1.404,0.251s0.746,0.401,0.984,0.701s0.418,0.69,0.542,1.172
		l-0.854,0.234c-0.107-0.365-0.241-0.651-0.4-0.859s-0.387-0.375-0.684-0.5s-0.625-0.188-0.986-0.188
		c-0.433,0-0.807,0.066-1.123,0.198s-0.57,0.305-0.764,0.52s-0.344,0.451-0.452,0.708c-0.182,0.443-0.273,0.923-0.273,1.44
		c0,0.638,0.11,1.172,0.33,1.602s0.54,0.749,0.959,0.957s0.866,0.313,1.338,0.313c0.41,0,0.811-0.079,1.201-0.237
		s0.687-0.326,0.889-0.505v-1.333H24.046z"/>
	<path d="M28.037,10.279c0-1.188,0.319-2.118,0.957-2.791s1.461-1.008,2.471-1.008c0.661,0,1.256,0.158,1.787,0.474
		s0.935,0.756,1.213,1.321s0.417,1.205,0.417,1.921c0,0.726-0.146,1.375-0.439,1.948s-0.708,1.007-1.245,1.301
		s-1.117,0.442-1.738,0.442c-0.674,0-1.276-0.163-1.807-0.488s-0.933-0.77-1.206-1.333S28.037,10.908,28.037,10.279z M29.013,10.294
		c0,0.863,0.232,1.542,0.696,2.039s1.046,0.745,1.746,0.745c0.713,0,1.3-0.25,1.76-0.752s0.691-1.212,0.691-2.134
		c0-0.583-0.099-1.091-0.295-1.526s-0.485-0.771-0.864-1.011s-0.805-0.359-1.277-0.359c-0.67,0-1.248,0.23-1.731,0.691
		S29.013,9.216,29.013,10.294z"/>
	<path d="M37.97,13.766v-3.032l-2.759-4.126h1.152l1.411,2.158c0.26,0.404,0.503,0.807,0.728,1.211
		c0.215-0.375,0.475-0.796,0.781-1.265l1.387-2.104h1.104l-2.856,4.126v3.032H37.97z"/>
	<path d="M41.687,13.766l2.749-7.158h1.021l2.93,7.158h-1.079l-0.835-2.168h-2.993l-0.786,2.168H41.687z M43.752,10.826h2.427
		l-0.747-1.982c-0.228-0.602-0.397-1.097-0.508-1.484c-0.091,0.459-0.22,0.915-0.386,1.367L43.752,10.826z"/>
	<path d="M56.319,6.607h0.947v4.136c0,0.719-0.082,1.291-0.244,1.714s-0.457,0.768-0.881,1.033s-0.982,0.398-1.672,0.398
		c-0.67,0-1.219-0.116-1.646-0.347s-0.731-0.565-0.913-1.003s-0.273-1.036-0.273-1.794V6.607h0.947v4.131
		c0,0.622,0.058,1.08,0.173,1.375s0.314,0.521,0.596,0.681s0.626,0.239,1.033,0.239c0.697,0,1.193-0.158,1.489-0.474
		s0.444-0.923,0.444-1.821V6.607z"/>
	<path d="M58.683,13.766V6.607h0.972l3.76,5.62v-5.62h0.908v7.158h-0.972l-3.76-5.625v5.625H58.683z"/>
	<path d="M65.926,13.766V6.607h0.947v7.158H65.926z"/>
	<path d="M70.439,13.766l-2.773-7.158h1.025l1.86,5.2c0.15,0.417,0.275,0.807,0.376,1.172c0.111-0.391,0.239-0.781,0.386-1.172
		l1.934-5.2h0.967l-2.803,7.158H70.439z"/>
	<path d="M74.933,13.766V6.607h5.176v0.845H75.88v2.192h3.96v0.84h-3.96v2.437h4.395v0.845H74.933z"/>
	<path d="M81.447,13.766V6.607h3.174c0.638,0,1.123,0.064,1.455,0.193s0.598,0.355,0.796,0.681s0.298,0.685,0.298,1.079
		c0,0.508-0.164,0.936-0.493,1.284s-0.837,0.57-1.523,0.664c0.251,0.121,0.441,0.239,0.571,0.356
		c0.276,0.254,0.539,0.571,0.786,0.952l1.245,1.948h-1.191l-0.947-1.489c-0.276-0.43-0.505-0.758-0.684-0.986
		s-0.339-0.387-0.481-0.479c-0.141-0.091-0.285-0.155-0.432-0.19c-0.107-0.023-0.283-0.034-0.527-0.034h-1.099v3.179H81.447z
		 M82.395,9.767h2.036c0.433,0,0.771-0.045,1.016-0.134s0.43-0.233,0.557-0.43s0.19-0.411,0.19-0.642
		c0-0.338-0.123-0.617-0.368-0.835c-0.246-0.218-0.635-0.327-1.165-0.327h-2.266V9.767z"/>
	<path d="M88.182,11.466l0.894-0.078c0.042,0.358,0.141,0.652,0.296,0.881c0.154,0.229,0.395,0.415,0.72,0.557
		s0.691,0.212,1.099,0.212c0.361,0,0.681-0.054,0.957-0.161s0.482-0.255,0.617-0.442c0.136-0.187,0.203-0.392,0.203-0.613
		c0-0.225-0.065-0.421-0.195-0.588s-0.345-0.309-0.645-0.422c-0.192-0.075-0.617-0.191-1.274-0.349s-1.118-0.307-1.382-0.447
		c-0.342-0.179-0.597-0.401-0.764-0.667c-0.168-0.265-0.252-0.563-0.252-0.891c0-0.361,0.103-0.699,0.308-1.013
		s0.505-0.553,0.898-0.715s0.832-0.244,1.313-0.244c0.53,0,0.998,0.085,1.404,0.256c0.404,0.171,0.717,0.422,0.935,0.754
		s0.335,0.708,0.352,1.128l-0.908,0.068c-0.049-0.453-0.214-0.794-0.495-1.025c-0.282-0.231-0.698-0.347-1.248-0.347
		c-0.573,0-0.99,0.105-1.252,0.315c-0.263,0.21-0.394,0.463-0.394,0.759c0,0.257,0.093,0.469,0.278,0.635
		c0.183,0.166,0.658,0.336,1.428,0.51c0.771,0.174,1.299,0.326,1.585,0.457c0.417,0.192,0.725,0.436,0.923,0.73
		s0.298,0.634,0.298,1.018c0,0.381-0.109,0.74-0.327,1.077s-0.531,0.599-0.939,0.786c-0.409,0.187-0.869,0.281-1.38,0.281
		c-0.647,0-1.19-0.094-1.628-0.283c-0.438-0.189-0.781-0.473-1.031-0.852C88.326,12.373,88.194,11.944,88.182,11.466z"/>
	<path d="M95.186,13.766V6.607h0.947v7.158H95.186z"/>
	<path d="M99.474,13.766V7.452h-2.358V6.607h5.674v0.845h-2.368v6.313H99.474z"/>
	<path d="M105.627,13.766v-3.032l-2.759-4.126h1.152l1.411,2.158c0.261,0.404,0.503,0.807,0.728,1.211
		c0.215-0.375,0.476-0.796,0.781-1.265l1.387-2.104h1.104l-2.856,4.126v3.032H105.627z"/>
	<path d="M10.455,21.958v-0.84l3.032-0.005v2.656c-0.465,0.371-0.946,0.65-1.44,0.837c-0.495,0.188-1.002,0.281-1.523,0.281
		c-0.703,0-1.342-0.15-1.917-0.452c-0.575-0.301-1.008-0.736-1.301-1.306c-0.293-0.57-0.439-1.206-0.439-1.909
		c0-0.697,0.146-1.347,0.437-1.951s0.71-1.052,1.257-1.345s1.177-0.439,1.89-0.439c0.518,0,0.985,0.084,1.404,0.251
		s0.746,0.401,0.984,0.701s0.418,0.69,0.542,1.172l-0.854,0.234c-0.107-0.365-0.241-0.651-0.4-0.859s-0.387-0.375-0.684-0.5
		s-0.625-0.188-0.986-0.188c-0.433,0-0.807,0.066-1.123,0.198s-0.57,0.305-0.764,0.52s-0.344,0.451-0.452,0.708
		c-0.182,0.443-0.273,0.923-0.273,1.44c0,0.638,0.11,1.172,0.33,1.602s0.54,0.748,0.959,0.957c0.42,0.208,0.866,0.313,1.338,0.313
		c0.41,0,0.811-0.079,1.201-0.237c0.391-0.157,0.687-0.326,0.889-0.505v-1.333H10.455z"/>
	<path d="M14.694,24.766v-7.158h0.947v6.313h3.525v0.845H14.694z"/>
	<path d="M19.857,21.279c0-1.188,0.319-2.118,0.957-2.791s1.461-1.008,2.471-1.008c0.661,0,1.256,0.158,1.787,0.474
		s0.935,0.756,1.213,1.321s0.417,1.205,0.417,1.921c0,0.726-0.146,1.375-0.439,1.948c-0.293,0.572-0.708,1.007-1.245,1.301
		c-0.537,0.295-1.117,0.442-1.738,0.442c-0.674,0-1.276-0.163-1.807-0.488c-0.531-0.326-0.933-0.771-1.206-1.333
		C19.994,22.503,19.857,21.907,19.857,21.279z M20.833,21.294c0,0.862,0.232,1.542,0.696,2.038c0.464,0.497,1.046,0.745,1.746,0.745
		c0.713,0,1.3-0.251,1.76-0.752c0.46-0.502,0.691-1.213,0.691-2.134c0-0.583-0.099-1.091-0.295-1.526s-0.485-0.771-0.864-1.011
		s-0.805-0.359-1.277-0.359c-0.67,0-1.248,0.23-1.731,0.691S20.833,20.216,20.833,21.294z"/>
	<path d="M27.734,24.766v-7.158h2.686c0.547,0,0.985,0.072,1.316,0.217s0.589,0.368,0.776,0.669s0.281,0.616,0.281,0.945
		c0,0.306-0.083,0.594-0.249,0.864s-0.417,0.488-0.752,0.654c0.433,0.127,0.766,0.343,0.999,0.649
		c0.233,0.306,0.349,0.667,0.349,1.084c0,0.335-0.071,0.646-0.212,0.935s-0.316,0.511-0.525,0.667s-0.47,0.274-0.784,0.354
		c-0.314,0.08-0.699,0.12-1.155,0.12H27.734z M28.681,20.615h1.548c0.42,0,0.721-0.028,0.903-0.083
		c0.241-0.072,0.422-0.19,0.544-0.356s0.183-0.375,0.183-0.625c0-0.238-0.057-0.447-0.171-0.627s-0.277-0.304-0.488-0.371
		s-0.575-0.1-1.089-0.1h-1.431V20.615z M28.681,23.921h1.782c0.306,0,0.521-0.012,0.645-0.034c0.218-0.039,0.4-0.104,0.547-0.195
		c0.146-0.092,0.267-0.224,0.361-0.398c0.094-0.174,0.142-0.375,0.142-0.603c0-0.268-0.068-0.499-0.205-0.696
		c-0.137-0.196-0.326-0.335-0.569-0.415c-0.243-0.079-0.592-0.119-1.047-0.119h-1.655V23.921z"/>
	<path d="M33.507,24.766l2.749-7.158h1.021l2.93,7.158h-1.079l-0.835-2.168h-2.993l-0.786,2.168H33.507z M35.572,21.826h2.427
		l-0.747-1.982c-0.228-0.602-0.397-1.097-0.508-1.484c-0.091,0.459-0.22,0.915-0.386,1.367L35.572,21.826z"/>
	<path d="M40.774,24.766v-7.158h0.947v6.313h3.525v0.845H40.774z"/>
	<path d="M48.501,22.876l0.879-0.117c0.101,0.498,0.272,0.856,0.515,1.076s0.538,0.33,0.886,0.33c0.414,0,0.763-0.144,1.047-0.43
		c0.285-0.287,0.427-0.642,0.427-1.064c0-0.404-0.132-0.736-0.396-0.999c-0.264-0.262-0.599-0.393-1.006-0.393
		c-0.166,0-0.373,0.032-0.62,0.098l0.098-0.771c0.059,0.006,0.106,0.01,0.142,0.01c0.375,0,0.711-0.098,1.011-0.293
		s0.449-0.497,0.449-0.903c0-0.322-0.109-0.589-0.327-0.801s-0.5-0.317-0.845-0.317c-0.342,0-0.626,0.107-0.854,0.322
		s-0.375,0.537-0.439,0.967l-0.879-0.156c0.107-0.589,0.352-1.046,0.732-1.37s0.854-0.486,1.421-0.486
		c0.391,0,0.75,0.084,1.079,0.251s0.58,0.396,0.754,0.686s0.261,0.597,0.261,0.923c0,0.309-0.083,0.591-0.249,0.845
		s-0.412,0.456-0.737,0.605c0.423,0.098,0.752,0.3,0.986,0.607s0.352,0.692,0.352,1.155c0,0.625-0.228,1.154-0.684,1.589
		s-1.032,0.652-1.729,0.652c-0.628,0-1.15-0.188-1.565-0.562C48.797,23.956,48.56,23.472,48.501,22.876z"/>
	<path d="M53.908,21.235c0-0.846,0.087-1.527,0.261-2.043s0.433-0.914,0.776-1.194s0.775-0.42,1.296-0.42
		c0.384,0,0.721,0.077,1.011,0.232s0.529,0.377,0.718,0.669s0.337,0.646,0.444,1.064s0.161,0.982,0.161,1.692
		c0,0.84-0.086,1.518-0.259,2.033c-0.172,0.517-0.431,0.915-0.774,1.196c-0.343,0.282-0.777,0.423-1.301,0.423
		c-0.69,0-1.232-0.248-1.626-0.742C54.144,23.55,53.908,22.579,53.908,21.235z M54.811,21.235c0,1.175,0.138,1.957,0.413,2.346
		c0.275,0.39,0.614,0.584,1.018,0.584s0.743-0.195,1.018-0.586s0.413-1.172,0.413-2.344c0-1.178-0.138-1.961-0.413-2.349
		s-0.618-0.581-1.028-0.581c-0.404,0-0.726,0.171-0.967,0.513C54.962,19.254,54.811,20.06,54.811,21.235z"/>
	<path d="M7.266,35.765v-7.158h0.947v7.158H7.266z"/>
	<path d="M9.724,35.765v-7.158h0.972l3.76,5.62v-5.62h0.908v7.158h-0.972l-3.76-5.625v5.625H9.724z"/>
	<path d="M18.626,35.765v-6.313h-2.358v-0.845h5.674v0.845h-2.368v6.313H18.626z"/>
	<path d="M22.783,35.765v-7.158h5.176v0.845H23.73v2.192h3.96v0.84h-3.96v2.437h4.395v0.845H22.783z"/>
	<path d="M29.298,35.765v-7.158h3.174c0.638,0,1.123,0.064,1.455,0.193c0.332,0.128,0.597,0.355,0.796,0.681
		c0.199,0.326,0.298,0.686,0.298,1.079c0,0.508-0.165,0.936-0.493,1.284s-0.836,0.569-1.523,0.664
		c0.25,0.12,0.441,0.239,0.571,0.356c0.277,0.254,0.539,0.571,0.786,0.952l1.245,1.948h-1.191l-0.947-1.489
		c-0.277-0.43-0.504-0.759-0.684-0.986s-0.339-0.388-0.481-0.479s-0.286-0.154-0.432-0.19c-0.107-0.022-0.283-0.034-0.527-0.034
		h-1.099v3.179H29.298z M30.245,31.766h2.036c0.433,0,0.771-0.045,1.016-0.134c0.244-0.09,0.43-0.233,0.557-0.43
		c0.127-0.197,0.19-0.411,0.19-0.643c0-0.338-0.123-0.616-0.369-0.835c-0.246-0.218-0.634-0.327-1.165-0.327h-2.266V31.766z"/>
	<path d="M36.345,35.765v-7.158h0.972l3.76,5.62v-5.62h0.908v7.158h-0.972l-3.76-5.625v5.625H36.345z"/>
	<path d="M42.641,35.765l2.749-7.158h1.021l2.93,7.158h-1.079l-0.835-2.168h-2.993l-0.786,2.168H42.641z M44.706,32.825h2.427
		l-0.747-1.982c-0.228-0.602-0.397-1.097-0.508-1.484c-0.091,0.459-0.22,0.915-0.386,1.367L44.706,32.825z"/>
	<path d="M51.768,35.765v-6.313H49.41v-0.845h5.674v0.845h-2.368v6.313H51.768z"/>
	<path d="M56.066,35.765v-7.158h0.947v7.158H56.066z"/>
	<path d="M58.245,32.278c0-1.188,0.319-2.118,0.957-2.79c0.638-0.673,1.461-1.009,2.471-1.009c0.661,0,1.256,0.158,1.787,0.474
		c0.531,0.316,0.935,0.756,1.213,1.321c0.278,0.564,0.417,1.205,0.417,1.921c0,0.726-0.146,1.375-0.439,1.948
		s-0.708,1.007-1.245,1.301c-0.537,0.295-1.117,0.442-1.738,0.442c-0.674,0-1.276-0.163-1.807-0.488s-0.933-0.77-1.206-1.333
		S58.245,32.906,58.245,32.278z M59.222,32.293c0,0.862,0.232,1.542,0.696,2.038c0.464,0.497,1.046,0.745,1.746,0.745
		c0.713,0,1.3-0.251,1.76-0.752s0.691-1.213,0.691-2.134c0-0.583-0.099-1.092-0.295-1.525c-0.197-0.435-0.485-0.771-0.864-1.011
		s-0.805-0.359-1.277-0.359c-0.67,0-1.248,0.23-1.731,0.691C59.463,30.446,59.222,31.216,59.222,32.293z"/>
	<path d="M66.152,35.765v-7.158h0.972l3.76,5.62v-5.62h0.908v7.158H70.82l-3.76-5.625v5.625H66.152z"/>
	<path d="M72.447,35.765l2.749-7.158h1.021l2.93,7.158h-1.079l-0.835-2.168h-2.993l-0.786,2.168H72.447z M74.513,32.825h2.427
		l-0.747-1.982c-0.228-0.602-0.397-1.097-0.508-1.484c-0.091,0.459-0.22,0.915-0.386,1.367L74.513,32.825z"/>
	<path d="M79.714,35.765v-7.158h0.947v6.313h3.525v0.845H79.714z"/>
	<path d="M87.793,35.765v-7.158h2.7c0.476,0,0.838,0.023,1.089,0.068c0.352,0.059,0.646,0.17,0.884,0.335
		c0.237,0.164,0.429,0.395,0.573,0.69c0.146,0.297,0.218,0.622,0.218,0.977c0,0.608-0.193,1.124-0.581,1.545
		c-0.388,0.422-1.087,0.633-2.1,0.633H88.74v2.91H87.793z M88.74,32.01h1.851c0.612,0,1.047-0.114,1.304-0.342
		s0.386-0.549,0.386-0.962c0-0.299-0.075-0.556-0.228-0.769c-0.15-0.214-0.351-0.354-0.598-0.423
		c-0.159-0.042-0.454-0.063-0.884-0.063H88.74V32.01z"/>
	<path d="M94.327,35.765v-7.158h3.174c0.638,0,1.123,0.064,1.455,0.193c0.332,0.128,0.598,0.355,0.796,0.681
		c0.198,0.326,0.298,0.686,0.298,1.079c0,0.508-0.164,0.936-0.493,1.284s-0.837,0.569-1.523,0.664
		c0.251,0.12,0.441,0.239,0.571,0.356c0.276,0.254,0.539,0.571,0.786,0.952l1.245,1.948h-1.191l-0.947-1.489
		c-0.276-0.43-0.505-0.759-0.684-0.986s-0.339-0.388-0.481-0.479c-0.141-0.091-0.285-0.154-0.432-0.19
		c-0.107-0.022-0.283-0.034-0.527-0.034h-1.099v3.179H94.327z M95.274,31.766h2.036c0.433,0,0.771-0.045,1.016-0.134
		c0.244-0.09,0.43-0.233,0.557-0.43c0.127-0.197,0.19-0.411,0.19-0.643c0-0.338-0.123-0.616-0.368-0.835
		c-0.246-0.218-0.635-0.327-1.165-0.327h-2.266V31.766z"/>
	<path d="M101.096,32.278c0-1.188,0.319-2.118,0.957-2.79c0.638-0.673,1.462-1.009,2.471-1.009c0.661,0,1.257,0.158,1.787,0.474
		c0.53,0.316,0.935,0.756,1.214,1.321c0.277,0.564,0.417,1.205,0.417,1.921c0,0.726-0.146,1.375-0.439,1.948
		s-0.708,1.007-1.245,1.301c-0.537,0.295-1.116,0.442-1.738,0.442c-0.674,0-1.276-0.163-1.807-0.488s-0.933-0.77-1.206-1.333
		S101.096,32.906,101.096,32.278z M102.072,32.293c0,0.862,0.231,1.542,0.696,2.038c0.463,0.497,1.045,0.745,1.745,0.745
		c0.713,0,1.3-0.251,1.761-0.752c0.46-0.501,0.69-1.213,0.69-2.134c0-0.583-0.099-1.092-0.296-1.525
		c-0.196-0.435-0.484-0.771-0.863-1.011c-0.38-0.239-0.806-0.359-1.277-0.359c-0.671,0-1.248,0.23-1.73,0.691
		C102.313,30.446,102.072,31.216,102.072,32.293z"/>
	<path d="M112.362,32.957v-0.84l3.032-0.005v2.656c-0.466,0.371-0.945,0.65-1.44,0.838c-0.495,0.187-1.003,0.28-1.523,0.28
		c-0.703,0-1.342-0.15-1.916-0.452c-0.575-0.301-1.009-0.736-1.302-1.306s-0.439-1.206-0.439-1.909c0-0.696,0.146-1.347,0.437-1.95
		c0.292-0.604,0.711-1.053,1.258-1.346s1.177-0.439,1.89-0.439c0.518,0,0.985,0.084,1.403,0.252c0.419,0.167,0.747,0.401,0.984,0.7
		c0.237,0.3,0.418,0.69,0.542,1.172l-0.854,0.234c-0.107-0.364-0.241-0.65-0.4-0.859c-0.159-0.208-0.388-0.375-0.684-0.5
		c-0.296-0.126-0.625-0.188-0.986-0.188c-0.433,0-0.808,0.066-1.123,0.198s-0.57,0.305-0.764,0.52
		c-0.194,0.215-0.345,0.451-0.452,0.708c-0.183,0.442-0.273,0.923-0.273,1.44c0,0.638,0.11,1.172,0.329,1.602
		c0.221,0.43,0.54,0.749,0.96,0.957s0.866,0.313,1.338,0.313c0.41,0,0.811-0.079,1.201-0.236c0.391-0.158,0.687-0.327,0.889-0.506
		v-1.333H112.362z"/>
	<path d="M116.655,35.765v-7.158h3.174c0.638,0,1.123,0.064,1.455,0.193c0.332,0.128,0.598,0.355,0.796,0.681
		c0.198,0.326,0.298,0.686,0.298,1.079c0,0.508-0.164,0.936-0.493,1.284s-0.837,0.569-1.523,0.664
		c0.251,0.12,0.441,0.239,0.571,0.356c0.276,0.254,0.539,0.571,0.786,0.952l1.245,1.948h-1.191l-0.947-1.489
		c-0.276-0.43-0.505-0.759-0.684-0.986s-0.339-0.388-0.481-0.479c-0.141-0.091-0.285-0.154-0.432-0.19
		c-0.107-0.022-0.283-0.034-0.527-0.034h-1.099v3.179H116.655z M117.603,31.766h2.036c0.433,0,0.771-0.045,1.016-0.134
		c0.244-0.09,0.43-0.233,0.557-0.43c0.127-0.197,0.19-0.411,0.19-0.643c0-0.338-0.123-0.616-0.368-0.835
		c-0.246-0.218-0.635-0.327-1.165-0.327h-2.266V31.766z"/>
	<path d="M122.927,35.765l2.749-7.158h1.021l2.93,7.158h-1.079l-0.835-2.168h-2.993l-0.786,2.168H122.927z M124.992,32.825h2.427
		l-0.747-1.982c-0.228-0.602-0.397-1.097-0.508-1.484c-0.091,0.459-0.22,0.915-0.386,1.367L124.992,32.825z"/>
	<path d="M130.203,35.765v-7.158h1.426l1.694,5.068c0.156,0.472,0.271,0.825,0.342,1.06c0.081-0.261,0.208-0.643,0.381-1.147
		l1.714-4.98h1.274v7.158h-0.913v-5.991l-2.08,5.991h-0.854l-2.07-6.094v6.094H130.203z"/>
	<path d="M138.09,33.465l0.894-0.078c0.042,0.358,0.141,0.651,0.296,0.882c0.154,0.229,0.395,0.414,0.72,0.557
		c0.325,0.141,0.691,0.212,1.099,0.212c0.361,0,0.681-0.054,0.957-0.161s0.482-0.255,0.617-0.441
		c0.136-0.188,0.203-0.392,0.203-0.613c0-0.225-0.065-0.421-0.195-0.588c-0.13-0.168-0.345-0.309-0.645-0.423
		c-0.192-0.075-0.617-0.191-1.274-0.349c-0.657-0.158-1.118-0.308-1.382-0.447c-0.342-0.179-0.597-0.401-0.764-0.666
		c-0.168-0.266-0.252-0.563-0.252-0.892c0-0.361,0.103-0.699,0.308-1.013c0.205-0.314,0.505-0.553,0.898-0.716
		c0.394-0.162,0.832-0.244,1.313-0.244c0.53,0,0.998,0.086,1.404,0.257c0.404,0.171,0.717,0.422,0.935,0.754
		s0.335,0.708,0.352,1.128l-0.908,0.068c-0.049-0.452-0.214-0.794-0.495-1.025c-0.282-0.23-0.698-0.347-1.248-0.347
		c-0.573,0-0.99,0.105-1.252,0.315c-0.263,0.21-0.394,0.463-0.394,0.759c0,0.258,0.093,0.469,0.278,0.635
		c0.183,0.166,0.658,0.336,1.428,0.51c0.771,0.175,1.299,0.327,1.585,0.457c0.417,0.192,0.725,0.436,0.923,0.73
		c0.198,0.294,0.298,0.634,0.298,1.018c0,0.381-0.109,0.74-0.327,1.076c-0.218,0.338-0.531,0.6-0.939,0.787
		c-0.409,0.187-0.869,0.28-1.38,0.28c-0.647,0-1.19-0.095-1.628-0.283c-0.438-0.188-0.781-0.473-1.031-0.853
		C138.234,34.372,138.103,33.943,138.09,33.465z"/>
</g>
<g>
	<g>
		<g>
			<circle fill="#C5D600" cx="122.841" cy="14.766" r="10.5"/>
			<circle fill="#31A339" cx="133.341" cy="14.766" r="10.5"/>
		</g>
		<path fill="#11633A" d="M128.091,5.682c-3.135,1.816-5.25,5.2-5.25,9.084s2.115,7.268,5.25,9.084c3.135-1.816,5.25-5.2,5.25-9.084
			S131.227,7.498,128.091,5.682z"/>
	</g>
	<g>
		<path fill="#FFFFFF" d="M118.296,10.101c0.99-0.27,2.056,0.18,2.565,1.065c0.135,0.225,0.06,0.525-0.18,0.66
			c-0.226,0.135-0.525,0.045-0.66-0.18c-0.285-0.51-0.9-0.765-1.47-0.615c-0.585,0.15-0.99,0.675-0.99,1.275v5.1
			c0,0.735,0.6,1.32,1.319,1.32c0.735,0,1.32-0.585,1.32-1.32v-1.92h-1.02c-0.255,0-0.48-0.21-0.48-0.48s0.226-0.48,0.48-0.48h1.5
			c0.27,0,0.479,0.21,0.479,0.48v2.4c0,1.26-1.02,2.28-2.28,2.28c-1.26,0-2.279-1.02-2.279-2.28v-5.1
			C116.602,11.271,117.307,10.371,118.296,10.101z"/>
		<path fill="#FFFFFF" d="M128.991,17.405v-0.9c0-0.72-0.601-1.32-1.32-1.32c-0.27,0-0.479-0.21-0.479-0.48s0.21-0.48,0.479-0.48
			c0.72,0,1.32-0.585,1.32-1.32v-0.6c0-0.6-0.405-1.125-0.976-1.275c-0.585-0.15-1.185,0.105-1.484,0.615
			c-0.135,0.225-0.436,0.315-0.66,0.18c-0.225-0.135-0.315-0.435-0.18-0.66c0.524-0.885,1.574-1.335,2.564-1.065
			c1.005,0.27,1.695,1.17,1.695,2.205v0.6c0,0.735-0.345,1.38-0.885,1.8c0.54,0.42,0.885,1.065,0.885,1.8v0.9
			c0,1.035-0.69,1.935-1.695,2.205c-0.99,0.27-2.04-0.165-2.564-1.065c-0.136-0.225-0.045-0.525,0.18-0.66
			c0.225-0.12,0.525-0.045,0.66,0.18c0.3,0.51,0.899,0.765,1.484,0.615C128.586,18.53,128.991,18.005,128.991,17.405z"/>
		<path fill="#FFFFFF" d="M135.021,17.405v-5.1c0-1.26,1.021-2.28,2.28-2.28c1.245,0,2.28,1.02,2.28,2.28v5.1
			c0,1.26-1.035,2.28-2.28,2.28C136.041,19.685,135.021,18.665,135.021,17.405z M135.98,12.305v5.1c0,0.735,0.585,1.32,1.32,1.32
			c0.72,0,1.32-0.585,1.32-1.32v-5.1c0-0.72-0.601-1.32-1.32-1.32C136.565,10.985,135.98,11.585,135.98,12.305z"/>
	</g>
</g>
<g>
</g>
<g>
</g>
<g>
</g>
<g>
</g>
<g>
</g>
<g>
</g>
</svg>
