<?xml version="1.0" encoding="utf-8"?>
<!-- Generator: Adobe Illustrator 19.1.1, SVG Export Plug-In . SVG Version: 6.00 Build 0)  -->
<!DOCTYPE svg PUBLIC "-//W3C//DTD SVG 1.1//EN" "http://www.w3.org/Graphics/SVG/1.1/DTD/svg11.dtd">
<svg version="1.1" id="Nagoya_University" xmlns="http://www.w3.org/2000/svg" xmlns:xlink="http://www.w3.org/1999/xlink" x="0px"
	 y="0px" viewBox="0 0 150 40" enable-background="new 0 0 150 40" xml:space="preserve">
<rect fill="#FFFFFF" width="150" height="40"/>
<g>
	<path fill="#FFFFFE" d="M30.761,35.77c-2.976,0-4.689-1.556-4.7-4.271c0-0.43,0.046-0.915,0.147-1.524l0.047-0.286h-0.289H5.301
		L8.225,18.76l0.083-0.305L7.991,18.45l-4.637-0.045C11.389,6.592,14.507,5.611,17.234,5.611c1.652,0,3.014,0.644,3.836,1.815
		l0.134,0.193l0.199-0.127c2.018-1.29,3.845-1.89,5.752-1.89c1.622,0,2.93,0.452,3.783,1.306c0.782,0.784,1.177,1.884,1.173,3.269
		c-0.001,0.652-0.088,1.289-0.33,2.437l-0.063,0.296h0.303h19.485l-2.775,10.409l-0.083,0.309h0.319h4.383
		C46.249,33.879,43.34,35.76,40.186,35.76c-1.579,0-2.829-0.591-3.615-1.711l-0.133-0.19l-0.197,0.123
		C34.259,35.219,32.569,35.77,30.761,35.77L30.761,35.77z"/>
	<path fill="#006647" d="M53.525,23.382h-4.557l2.857-10.718H32.021c0.231-1.101,0.334-1.787,0.335-2.486
		c0.008-3.231-2.105-4.822-5.201-4.822c-1.944,0-3.82,0.609-5.884,1.93c-0.851-1.213-2.265-1.92-4.037-1.92
		c-2.655,0-5.797,0.701-14.143,12.99c-0.146,0.215-0.118,0.293,0.093,0.293l4.804,0.047c-0.688,2.572-3.006,11.238-3.006,11.238
		h20.984c-0.106,0.644-0.151,1.139-0.151,1.565c0.013,3.026,2.026,4.516,4.946,4.516c1.848,0,3.591-0.565,5.61-1.825
		c0.809,1.153,2.132,1.815,3.815,1.815c3.105,0,5.946-1.505,13.466-12.38C53.763,23.464,53.734,23.385,53.525,23.382z
		 M26.251,28.459h-8.669l0.621-2.445h-1.929l-0.621,2.445H6.905l3.002-11.221H5.684c6.876-9.761,9.349-10.396,11.55-10.396
		c1.763,0,3.016,0.798,3.357,2.627c3.012-2.133,4.823-2.637,6.564-2.637c2.752,0,4.416,1.736,3.45,5.482L26.251,28.459z
		 M40.186,34.539c-1.674,0-2.854-0.782-3.18-2.52c-2.299,1.689-4.207,2.53-6.245,2.53c-2.613,0-4.203-1.637-3.277-5.144
		l4.138-15.338h8.208l-0.623,2.323h1.997l0.618-2.249h8.083l-2.872,10.681h4.049C45.556,32.456,43.083,34.539,40.186,34.539z
		 M44.561,21.113H40.43c-0.328,0-0.388-0.128-0.308-0.424c0.079-0.296,0.534-2.002,0.534-2.002c0.122-0.456-0.146-0.721-0.825-0.721
		c-0.68,0-1.113,0.264-1.235,0.721c0,0-0.454,1.706-0.53,1.986c-0.074,0.28-0.319,0.439-0.581,0.439h-4.26
		c-0.639,0-0.983,0.449-1.079,0.808l-1.86,6.94c-0.106,0.391,0.045,0.687,0.758,0.687c0.712,0,1.014-0.275,1.128-0.695l1.529-5.701
		c0.084-0.313,0.299-0.482,0.568-0.482h0.911c0.235,0,0.339,0.139,0.255,0.451c-0.083,0.312-1.54,5.74-1.54,5.74
		c-0.105,0.391,0.019,0.685,0.76,0.685c0.74,0,1.02-0.294,1.126-0.685l1.548-5.77c0.1-0.374,0.345-0.421,0.672-0.421h1.212
		c0.296,0,0.411,0.093,0.314,0.451c-0.096,0.359-1.54,5.74-1.54,5.74c-0.104,0.391,0.173,0.685,0.759,0.685
		c0.587,0,1.022-0.294,1.126-0.685c0,0,1.444-5.38,1.536-5.724c0.091-0.343,0.285-0.467,0.577-0.467h0.814
		c0.321,0,0.423,0.125,0.326,0.482c-0.099,0.374-1.531,5.71-1.531,5.71c-0.105,0.391,0.196,0.686,0.759,0.686
		c0.563,0,1.021-0.295,1.125-0.686l1.868-6.966C45.49,21.351,45.443,21.113,44.561,21.113z M23.067,19.534h-5.15
		c-0.326,0-0.569,0.215-0.628,0.439l-0.362,1.414c-0.084,0.312-0.004,0.551,0.438,0.551l5.17-0.001c0.231,0,0.392-0.14,0.488-0.498
		l0.364-1.42C23.466,19.724,23.48,19.534,23.067,19.534z M24.579,13.972h-3.224c-0.199,0-0.368,0.098-0.42,0.291l-0.32,1.194
		c-0.056,0.207,0.031,0.278,0.266,0.278h3.225c0.268,0,0.375-0.123,0.424-0.308l0.302-1.12
		C24.893,14.076,24.791,13.972,24.579,13.972z M27.156,7.784c-2.156,0-4.028,0.966-7.131,3.315c-0.373-2.739-1.317-3.304-2.79-3.304
		c-1.424,0-3.54,0.006-9.687,8.465l3.6,0.034c0,0-2.487,9.293-2.998,11.209h6.762c0.182-0.716,0.62-2.445,0.62-2.445h3.898
		c0,0-0.462,1.818-0.62,2.445h6.71c0.348-1.291,4.163-15.432,4.163-15.432C30.518,8.914,28.774,7.784,27.156,7.784z M25.187,19.304
		l-0.73,2.788c-0.209,0.778-0.758,1.198-1.49,1.198h-7.021c-0.825,0-1.032-0.303-0.834-1.044l0.765-2.914
		c0.185-0.687,0.629-1.041,1.431-1.041h7.114C25.368,18.292,25.376,18.605,25.187,19.304z M26.781,13.459l-0.717,2.673
		c-0.143,0.531-0.44,0.908-1.058,0.908h-9.451c-0.408,0-0.543,0.226-0.643,0.599l-1.385,5.165c-0.11,0.412-0.433,0.649-1.02,0.649
		c-0.589,0-0.754-0.237-0.644-0.649l1.69-6.316c0.114-0.424,0.587-0.754,1.044-0.754h3.789c0.303,0,0.436-0.093,0.497-0.322
		l0.283-1.054c0.079-0.296-0.105-0.386-0.331-0.386h-4.098c-0.433,0-0.563-0.199-0.439-0.663c0.11-0.412,0.356-0.642,0.789-0.642
		h11.137C26.812,12.666,26.927,12.915,26.781,13.459z"/>
</g>
<g>
	<path fill="#231815" d="M61.875,9.864c0-1.512,0.138-1.949-1.257-1.949c-0.305,0-0.73-0.019-0.73-0.48
		c0-0.522,0.373-0.554,0.751-0.554c0.5,0,1.255,0.062,1.99,0.062c0.614,0,1.099-0.062,1.429-0.062c0.451,0,0.466-0.044,1.242,1.029
		c2.293,3.158,4.839,6.789,7.279,9.933c0.187,0.262,0.265,0.2,0.265-0.292V9.593c0-1.607,0.189-1.678-1.277-1.702
		c-0.261,0-0.667-0.058-0.667-0.456c0-0.43,0.265-0.554,0.525-0.554c0.637,0,1.323,0.124,2.124,0.124
		c0.712,0,1.399-0.124,1.99-0.124c0.395,0,0.564,0.128,0.564,0.518c0,0.409-0.188,0.541-0.776,0.541c-1.35,0-1.22,0.273-1.22,1.713
		v12.145c0,0.402-0.064,0.625-0.558,0.625c-0.616,0-0.895-0.283-1.037-0.52c-0.405-0.495-6.259-8.491-9.042-12.164
		c-0.249-0.323-0.363-0.24-0.363,0v9.576c0,1.73,0.094,1.842,1.507,1.842c0.262,0,0.517,0.087,0.517,0.455
		c0,0.46-0.279,0.555-0.541,0.555c-0.615,0-1.442-0.125-2.269-0.125c-0.707,0-1.419,0.125-2.009,0.125
		c-0.213,0-0.497-0.095-0.497-0.555c0-0.346,0.259-0.455,0.757-0.455c0.928,0,1.302-0.111,1.302-1.812V9.864z"/>
	<path fill="#231815" d="M138.009,17.674c-0.437,0-0.532,0.012-0.748,0.613c-0.616,1.741-0.68,1.941-0.68,2.287
		c0,0.673,0.724,0.712,1.138,0.751c0.238,0.021,0.498,0.088,0.498,0.446c0,0.389-0.316,0.389-0.518,0.389
		c-0.319,0-1.252-0.105-1.687-0.105c-0.461,0-1.713,0.105-2.031,0.105c-0.182,0-0.437-0.054-0.437-0.389
		c0-0.329,0.128-0.403,0.614-0.465c0.856-0.104,0.974-0.168,1.592-1.78c1.142-2.969,2.215-5.964,3.352-8.958
		c0.567-1.493,0.628-1.61,1.144-1.61c0.342,0,0.436,0.025,0.633,0.514c1.512,3.708,3.021,7.44,4.18,10.29
		c0.268,0.668,0.635,1.563,1.471,1.584c0.197,0,0.573,0.039,0.573,0.453c0,0.307-0.256,0.361-0.395,0.361
		c-0.798,0-1.812-0.105-2.784-0.105c-0.676,0-1.724,0.105-2.417,0.105c-0.141,0-0.51-0.075-0.51-0.361
		c0-0.384,0.272-0.474,0.552-0.474c1.043,0,1.262-0.176,1.262-0.534c0-0.271-0.081-0.387-0.74-2.146
		c-0.356-0.938-0.511-0.972-0.943-0.972H138.009z M140.928,16.708c0.223,0,0.343-0.051,0.228-0.35
		c-0.514-1.351-0.933-2.465-1.421-3.702c-0.147-0.376-0.262-0.397-0.399-0.022c-0.544,1.489-1.027,2.915-1.332,3.739
		c-0.093,0.249-0.009,0.335,0.346,0.335H140.928z"/>
	<path fill="#231815" d="M81.493,17.674c-0.438,0-0.536,0.012-0.75,0.613c-0.621,1.741-0.684,1.941-0.684,2.287
		c0,0.673,0.723,0.712,1.139,0.751c0.242,0.021,0.501,0.088,0.501,0.446c0,0.389-0.319,0.389-0.519,0.389
		c-0.32,0-1.252-0.105-1.691-0.105c-0.457,0-1.711,0.105-2.029,0.105c-0.178,0-0.436-0.054-0.436-0.389
		c0-0.329,0.128-0.403,0.616-0.465c0.854-0.104,0.971-0.168,1.589-1.78c1.144-2.969,2.215-5.964,3.353-8.958
		c0.565-1.493,0.629-1.61,1.142-1.61c0.344,0,0.437,0.025,0.636,0.514c1.511,3.708,3.02,7.44,4.176,10.29
		c0.27,0.668,0.637,1.563,1.474,1.584c0.199,0,0.576,0.039,0.576,0.453c0,0.307-0.261,0.361-0.398,0.361
		c-0.794,0-1.809-0.105-2.786-0.105c-0.675,0-1.719,0.105-2.418,0.105c-0.138,0-0.507-0.075-0.507-0.361
		c0-0.384,0.27-0.474,0.547-0.474c1.045,0,1.262-0.176,1.262-0.534c0-0.271-0.079-0.387-0.741-2.146
		c-0.351-0.938-0.508-0.972-0.94-0.972H81.493z M84.412,16.708c0.218,0,0.34-0.051,0.222-0.35c-0.509-1.351-0.929-2.465-1.419-3.702
		c-0.146-0.376-0.259-0.397-0.399-0.022c-0.542,1.489-1.027,2.915-1.333,3.739c-0.089,0.249-0.004,0.335,0.35,0.335H84.412z"/>
	<path fill="#231815" d="M103.593,20.113c0,0.381-0.056,0.572-0.43,0.88c-1.122,0.924-2.692,1.342-4.293,1.342
		c-5.015,0-7.081-2.971-7.081-6.386c0-4.078,2.76-6.839,7.609-6.839c1.073,0,2.245,0.227,3.2,0.683
		c0.547,0.279,0.525,0.764,0.525,1.318c0.022,0.508,0.04,0.603,0.064,0.991c0.018,0.256-0.082,0.513-0.414,0.513
		c-0.35,0-0.468-0.413-0.897-1.055c-0.372-0.645-1.093-1.485-2.868-1.485c-3.788,0-4.762,3.592-4.762,5.641
		c0,2.574,1.37,5.658,4.935,5.658c0.626,0,1.482-0.102,1.952-0.471c0.255-0.199,0.334-0.373,0.334-1.109v-2.014
		c0-1.09-0.197-1.248-1.346-1.248c-0.274-0.019-0.549-0.045-0.549-0.4c0-0.429,0.37-0.429,0.586-0.429
		c0.684,0,1.29,0.101,2.265,0.101c0.917,0,1.679-0.097,2.283-0.101c0.315-0.004,0.444,0.05,0.467,0.406
		c0.02,0.29-0.136,0.366-0.78,0.444c-0.684,0.06-0.8,0.156-0.8,1.358V20.113z"/>
	<path fill="#231815" d="M106.87,15.73c0-3.241,2.442-6.572,6.977-6.572c4.533,0,6.997,3.195,6.997,6.572
		c0,3.805-2.857,6.669-6.959,6.669c-4.099,0-7.015-2.984-7.015-6.65V15.73z M118.379,15.99c0-3.55-1.891-6.019-4.57-6.019
		c-2.685,0-4.474,2.089-4.474,5.617c0,3.31,1.735,5.98,4.651,5.98c2.419,0,4.393-2.049,4.393-5.56V15.99z"/>
	<path fill="#231815" d="M127.11,17.426c0-0.785-0.097-0.943-0.531-1.596c-0.866-1.34-1.388-2.172-2.918-4.438
		c-0.684-1.01-0.804-1.098-1.795-1.115c-0.294-0.021-0.532-0.03-0.532-0.417c0-0.356,0.262-0.435,0.494-0.435
		c0.573,0,1.085,0.103,2.188,0.103c1.104,0,2.091-0.103,2.896-0.103c0.159,0,0.417,0.079,0.417,0.385
		c0,0.438-0.295,0.446-0.67,0.446c-0.316,0.021-0.771,0.038-0.771,0.416c0,0.219,0.089,0.385,1.303,2.261
		c1.439,2.218,1.444,2.346,1.619,2.346c0.16,0,0.283-0.328,1.675-2.44c1.082-1.643,1.282-1.683,1.282-2.119
		c0-0.353-0.321-0.463-0.833-0.463c-0.239,0-0.55-0.036-0.55-0.344c0-0.409,0.292-0.488,0.588-0.488
		c0.512,0,1.125,0.103,1.795,0.103c0.693,0,1.243-0.103,1.774-0.103c0.41,0,0.493,0.103,0.493,0.435
		c0,0.275-0.129,0.357-0.689,0.417c-1.02,0.103-1.755,1.278-2.248,1.988c-0.808,1.261-1.576,2.405-2.404,3.665
		c-0.411,0.65-0.474,0.789-0.451,1.637v2.166c0,1.339,0,1.595,1.242,1.595c0.232,0,0.55,0.054,0.55,0.41
		c0,0.361-0.236,0.416-0.414,0.416c-0.687,0-1.732-0.106-2.402-0.106c-0.692,0-1.773,0.106-2.465,0.106
		c-0.178,0-0.416-0.055-0.416-0.416c0-0.38,0.317-0.41,0.594-0.41c1.142,0,1.18-0.213,1.18-1.555V17.426z"/>
	<path fill="#231815" d="M70.892,31.551c0,1.572,0.708,2.518,2.225,2.518c1.522,0,2.335-0.788,2.335-2.347v-3.659
		c0-1.103,0.073-1.323-0.732-1.349c-0.142,0-0.364-0.006-0.364-0.258c0-0.223,0.17-0.289,0.325-0.289
		c0.326,0,0.741,0.066,1.154,0.066c0.377,0,0.767-0.066,1.051-0.066c0.118,0,0.313,0.017,0.313,0.27
		c0,0.254-0.259,0.263-0.441,0.289c-0.69,0.026-0.617,0.428-0.643,1.115v3.869c0,1.594-0.691,3.003-3.294,3.003
		c-2.729,0-3.37-1.327-3.37-3.094v-3.79c0-0.961-0.011-1.103-0.78-1.116c-0.153,0-0.387,0.011-0.387-0.258
		c0-0.237,0.141-0.289,0.271-0.289c0.456,0,0.974,0.066,1.596,0.066c0.584,0,1.207-0.066,1.635-0.066
		c0.13,0,0.287,0.052,0.287,0.289c0,0.269-0.248,0.258-0.401,0.258c-0.78,0-0.78,0.155-0.78,1.293V31.551z"/>
	<path fill="#231815" d="M99.31,28.846c0-0.79,0-0.929-0.65-0.942c-0.142,0-0.323,0.013-0.323-0.199
		c0-0.198,0.118-0.254,0.226-0.254c0.304,0,1.591,0.057,1.884,0.057c0.519,0,2.392-0.042,2.902-0.042
		c0.207,0,0.216,0.069,0.216,0.493c0,0.436-0.009,0.63-0.009,0.965c0,0.142-0.013,0.294-0.164,0.294
		c-0.086,0-0.162-0.068-0.216-0.176c-0.064-0.107-0.12-0.237-0.184-0.357c-0.27-0.551-0.338-0.735-1.539-0.735
		c-0.521,0-0.727,0.008-0.835,0.087c-0.108,0.075-0.108,0.204-0.108,0.432v1.317c0,0.542,0.095,0.617,0.527,0.617
		c1.114,0,1.282,0.056,1.378-0.619c0.044-0.239,0.076-0.287,0.315-0.287c0.168,0,0.225,0.144,0.225,0.26
		c0,0.283-0.041,0.561-0.041,0.853c0,0.335,0.041,0.649,0.041,0.974c0,0.174-0.057,0.25-0.225,0.25c-0.225,0-0.262-0.27-0.327-0.488
		c-0.116-0.422-0.345-0.465-1.383-0.465c-0.411,0-0.51,0.009-0.51,0.367v1.765c0,0.885,0.379,0.919,1.223,0.919
		c0.932,0,1.418-0.13,1.776-0.951c0.098-0.229,0.161-0.423,0.336-0.423c0.121,0,0.177,0.063,0.139,0.423
		c-0.036,0.368-0.107,0.665-0.139,1.158c-0.022,0.239-0.044,0.252-0.174,0.252h-3.614c-0.312,0-1.228,0.057-1.422,0.057
		c-0.217,0-0.296-0.071-0.296-0.253c0-0.15,0.056-0.22,0.323-0.22c0.65,0,0.65-0.151,0.65-0.962V28.846z"/>
	<path fill="#231815" d="M120.407,33.044c0,0.801,0.01,0.94,0.691,0.94c0.13,0,0.294,0.036,0.294,0.233s-0.121,0.226-0.229,0.226
		c-0.335,0-0.67-0.057-1.301-0.057c-0.636,0-1.024,0.057-1.392,0.057c-0.11,0-0.229-0.029-0.229-0.226
		c0-0.208,0.162-0.233,0.314-0.233c0.651,0,0.651-0.129,0.651-0.94v-4.198c0-0.81,0-0.929-0.651-0.942
		c-0.13,0-0.314,0.013-0.314-0.215c0-0.198,0.108-0.239,0.229-0.239c0.356,0,0.823,0.057,1.36,0.057
		c0.553,0,0.976-0.057,1.333-0.057c0.108,0,0.229,0.041,0.229,0.239c0,0.227-0.207,0.215-0.327,0.215
		c-0.648,0.013-0.658,0.132-0.658,0.942V33.044z"/>
	<path fill="#231815" d="M88.451,33.044c0,0.801,0.011,0.94,0.692,0.94c0.13,0,0.291,0.036,0.291,0.233s-0.118,0.226-0.227,0.226
		c-0.333,0-0.671-0.057-1.299-0.057c-0.638,0-1.025,0.057-1.395,0.057c-0.109,0-0.227-0.029-0.227-0.226
		c0-0.208,0.162-0.233,0.315-0.233c0.647,0,0.647-0.129,0.647-0.94v-4.198c0-0.81,0-0.929-0.647-0.942
		c-0.131,0-0.315,0.013-0.315-0.215c0-0.198,0.106-0.239,0.227-0.239c0.356,0,0.821,0.057,1.364,0.057
		c0.552,0,0.972-0.057,1.329-0.057c0.109,0,0.227,0.041,0.227,0.239c0,0.227-0.204,0.215-0.322,0.215
		c-0.651,0.013-0.661,0.132-0.661,0.942V33.044z"/>
	<path fill="#231815" d="M78.697,28.808c0-0.691,0.063-0.891-0.574-0.891c-0.142,0-0.336-0.01-0.336-0.221
		c0-0.238,0.172-0.254,0.348-0.254c0.225,0,0.573,0.03,0.907,0.03c0.283,0,0.503-0.03,0.653-0.03c0.207,0,0.213-0.019,0.569,0.472
		c1.047,1.444,2.215,3.107,3.331,4.547c0.085,0.118,0.121,0.091,0.121-0.137v-3.639c0-0.735,0.086-0.767-0.585-0.78
		c-0.119,0-0.305-0.025-0.305-0.209c0-0.197,0.12-0.254,0.24-0.254c0.293,0,0.607,0.057,0.975,0.057
		c0.324,0,0.638-0.057,0.909-0.057c0.181,0,0.26,0.062,0.26,0.239c0,0.188-0.089,0.247-0.358,0.247
		c-0.616,0-0.558,0.124-0.558,0.786v5.554c0,0.185-0.028,0.287-0.254,0.287c-0.282,0-0.412-0.13-0.475-0.238
		c-0.184-0.229-2.863-3.885-4.137-5.565c-0.111-0.149-0.167-0.111-0.167,0v4.382c0,0.789,0.046,0.842,0.69,0.842
		c0.119,0,0.238,0.041,0.238,0.208c0,0.21-0.128,0.253-0.247,0.253c-0.282,0-0.662-0.056-1.039-0.056
		c-0.327,0-0.649,0.056-0.922,0.056c-0.095,0-0.227-0.042-0.227-0.253c0-0.158,0.121-0.208,0.349-0.208
		c0.424,0,0.595-0.051,0.595-0.83V28.808z"/>
	<path fill="#231815" d="M107.006,33.129c0,0.704,0.009,0.833,0.66,0.854c0.14,0.013,0.281,0.043,0.281,0.227
		c0,0.196-0.108,0.224-0.335,0.224c-0.36,0-0.835-0.056-1.191-0.056c-0.39,0-0.984,0.056-1.362,0.056
		c-0.098,0-0.228-0.028-0.228-0.224c0-0.212,0.174-0.227,0.326-0.227c0.648,0,0.648-0.129,0.648-0.94v-4.188
		c0-0.821,0-0.94-0.648-0.953c-0.13,0-0.326,0.003-0.326-0.209c0-0.21,0.119-0.254,0.24-0.254c0.324,0,0.69,0.057,1.2,0.057
		c0.725,0,1.318-0.057,2.056-0.057c1.188,0,2.151,0.725,2.151,1.806c0,0.793-0.547,1.482-1.471,1.626
		c0.264,0.4,0.418,0.73,0.567,1.009c0.283,0.55,0.438,0.771,0.733,1.337c0.485,0.921,0.602,1.033,1.084,1.171
		c0.3,0.084,0.514,0.19,0.483,0.344c-0.022,0.104-0.236,0.16-0.951,0.09c-0.626-0.065-1.226-0.308-1.59-0.872
		c-0.43-0.66-0.771-1.386-1.106-2.102c-0.357-0.691-0.268-0.753-0.973-0.753c-0.237,0-0.246,0.075-0.246,0.444V33.129z
		 M107.006,30.398c0,0.183,0.119,0.238,0.303,0.238c1.4,0,1.862-0.53,1.862-1.438c0-0.66-0.511-1.315-1.408-1.315
		c-0.736,0-0.757,0.215-0.757,0.543V30.398z"/>
	<path fill="#231815" d="M116.958,32.254c0,1.197-0.745,2.265-2.613,2.265c-0.455,0-1.262-0.12-1.814-0.412
		c-0.152-0.087-0.193-0.257-0.193-0.465c0-0.324,0.01-0.763,0.021-1.065c0.011-0.14,0.041-0.324,0.237-0.324
		c0.217,0,0.248,0.433,0.323,0.758c0.153,0.682,0.693,1.113,1.49,1.113c0.791,0,1.445-0.507,1.445-1.276
		c0-0.79-0.461-1.129-1.706-1.666c-1.111-0.482-1.74-0.965-1.74-1.894c0-1.362,1.129-1.992,2.327-1.992
		c0.442,0,1.07,0.065,1.569,0.227c0.193,0.074,0.193,0.184,0.193,0.379c0.012,0.279,0.033,0.652,0.043,0.932
		c0,0.121-0.043,0.238-0.193,0.238c-0.153,0-0.206-0.162-0.26-0.291c-0.197-0.681-0.574-1.079-1.331-1.079
		c-0.651,0-1.267,0.345-1.267,1.049c0,0.842,1.019,1.178,1.84,1.524c0.768,0.334,1.63,0.855,1.63,1.969V32.254z"/>
	<path fill="#231815" d="M125.032,28.32c0-0.294-0.053-0.337-0.237-0.337c-1.104,0-1.439,0.054-1.925,0.854
		c-0.11,0.163-0.194,0.348-0.357,0.348c-0.111,0-0.214-0.07-0.098-0.455c0.134-0.454,0.26-0.888,0.399-1.32
		c0.032-0.129,0.092-0.244,0.203-0.244c0.075,0,0.111,0.018,0.172,0.116c0.047,0.074,0.102,0.177,0.524,0.177h4.013
		c0.445,0,0.604-0.02,0.672-0.103c0.129-0.156,0.193-0.203,0.279-0.203c0.106,0,0.144,0.101,0.142,0.225
		c-0.002,0.076-0.044,1.06-0.055,1.494c0,0.141-0.042,0.27-0.206,0.27c-0.108,0-0.16-0.107-0.205-0.239
		c-0.237-0.714-0.312-0.919-1.091-0.919h-0.65c-0.378,0-0.378,0.033-0.378,0.508v4.553c0,0.821,0,0.94,0.681,0.94
		c0.13,0,0.302,0.036,0.302,0.233s-0.129,0.226-0.227,0.226c-0.357,0-0.737-0.057-1.33-0.057c-0.467,0-1.019,0.057-1.376,0.057
		c-0.095,0-0.226-0.029-0.226-0.226c0-0.209,0.174-0.233,0.326-0.233c0.647,0,0.647-0.129,0.647-0.94V28.32z"/>
	<path fill="#231815" d="M93.36,27.674c0,0.183-0.129,0.221-0.259,0.23c-0.128,0.013-0.487,0.036-0.487,0.217
		c0,0.151,0.077,0.314,0.13,0.455l1.279,3.094c0.149,0.358,0.327,1.032,0.381,1.032c0.045,0,0.294-0.808,0.434-1.167l1.19-2.92
		c0.053-0.153,0.153-0.389,0.153-0.542c0-0.151-0.233-0.155-0.526-0.168c-0.128-0.008-0.313-0.019-0.313-0.2
		c0-0.212,0.152-0.254,0.28-0.254c0.27,0,0.617,0.057,0.94,0.057c0.292,0,0.64-0.057,0.899-0.057c0.085,0,0.196,0.057,0.196,0.224
		c0,0.211-0.162,0.23-0.433,0.253c-0.346,0.022-0.531,0.424-0.78,1.051c-0.691,1.698-1.385,3.545-2.078,5.255
		c-0.054,0.151-0.108,0.324-0.312,0.324c-0.24,0-0.283-0.119-0.356-0.324c-0.738-1.807-1.485-3.764-2.232-5.571
		c-0.151-0.368-0.27-0.714-0.65-0.736c-0.279-0.023-0.441-0.041-0.441-0.237c0-0.225,0.173-0.239,0.281-0.239
		c0.303,0,0.888,0.057,1.32,0.057c0.355,0,0.908-0.057,1.146-0.057c0.132,0,0.237,0.014,0.237,0.21V27.674z"/>
	<path fill="#231815" d="M132.639,31.843c0-0.433-0.053-0.521-0.292-0.877c-0.477-0.735-0.762-1.193-1.602-2.438
		c-0.374-0.554-0.443-0.602-0.984-0.613c-0.162-0.013-0.291-0.016-0.291-0.227c0-0.198,0.14-0.239,0.269-0.239
		c0.316,0,0.595,0.057,1.201,0.057c0.607,0,1.148-0.057,1.591-0.057c0.086,0,0.226,0.041,0.226,0.21
		c0,0.241-0.161,0.244-0.367,0.244c-0.174,0.013-0.421,0.023-0.421,0.229c0,0.118,0.048,0.212,0.715,1.244
		c0.789,1.216,0.791,1.288,0.891,1.288c0.085,0,0.151-0.181,0.918-1.343c0.591-0.898,0.704-0.923,0.704-1.161
		c0-0.196-0.177-0.257-0.458-0.257c-0.128,0-0.303-0.019-0.303-0.186c0-0.226,0.163-0.268,0.324-0.268
		c0.282,0,0.617,0.057,0.987,0.057c0.377,0,0.68-0.057,0.972-0.057c0.228,0,0.272,0.057,0.272,0.239c0,0.15-0.072,0.196-0.379,0.227
		c-0.56,0.057-0.964,0.704-1.234,1.094c-0.444,0.692-0.864,1.318-1.321,2.009c-0.225,0.359-0.257,0.433-0.246,0.898v1.19
		c0,0.738,0,0.876,0.681,0.876c0.129,0,0.304,0.032,0.304,0.227c0,0.196-0.129,0.224-0.229,0.224c-0.379,0-0.949-0.056-1.318-0.056
		c-0.38,0-0.974,0.056-1.352,0.056c-0.099,0-0.229-0.028-0.229-0.224c0-0.212,0.173-0.227,0.324-0.227
		c0.627,0,0.65-0.118,0.65-0.854V31.843z"/>
</g>
<g>
</g>
<g>
</g>
<g>
</g>
<g>
</g>
<g>
</g>
<g>
</g>
</svg>
