<?xml version="1.0" encoding="utf-8"?>
<!-- Generator: Adobe Illustrator 19.1.1, SVG Export Plug-In . SVG Version: 6.00 Build 0)  -->
<!DOCTYPE svg PUBLIC "-//W3C//DTD SVG 1.1//EN" "http://www.w3.org/Graphics/SVG/1.1/DTD/svg11.dtd">
<svg version="1.1" id="Nagoya_University_Program_for_Academic_Exchange"
	 xmlns="http://www.w3.org/2000/svg" xmlns:xlink="http://www.w3.org/1999/xlink" x="0px" y="0px" viewBox="0 0 150 40"
	 enable-background="new 0 0 150 40" xml:space="preserve">
<linearGradient id="SVGID_1_" gradientUnits="userSpaceOnUse" x1="75" y1="36" x2="75" y2="1.555791e-007">
	<stop  offset="0" style="stop-color:#18555D"/>
	<stop  offset="1" style="stop-color:#000000"/>
</linearGradient>
<rect x="0" y="0" fill="url(#SVGID_1_)" width="150" height="36"/>
<rect x="0" y="36" fill="#CB9F77" width="150" height="4"/>
<g>
	<rect x="6.542" y="8.083" fill="none" width="139.792" height="26.583"/>
	<path fill="#FFFFFF" d="M7.358,17.521V9.646h1.547l3.223,5.258V9.646h1.477v7.874h-1.595l-3.174-5.135v5.135H7.358z"/>
	<path fill="#FFFFFF" d="M16.183,13.557l-1.37-0.247c0.154-0.551,0.419-0.959,0.795-1.225s0.935-0.397,1.676-0.397
		c0.673,0,1.174,0.08,1.504,0.239c0.33,0.159,0.562,0.361,0.695,0.606c0.135,0.246,0.202,0.696,0.202,1.351l-0.016,1.762
		c0,0.501,0.024,0.871,0.072,1.109c0.049,0.238,0.139,0.494,0.271,0.766h-1.493c-0.04-0.1-0.088-0.249-0.145-0.446
		c-0.025-0.089-0.043-0.148-0.054-0.177c-0.258,0.25-0.534,0.438-0.827,0.564s-0.607,0.188-0.94,0.188
		c-0.587,0-1.05-0.159-1.389-0.478c-0.338-0.319-0.507-0.722-0.507-1.208c0-0.322,0.077-0.609,0.231-0.862
		c0.154-0.252,0.37-0.445,0.647-0.58c0.277-0.134,0.677-0.251,1.2-0.352c0.706-0.132,1.194-0.256,1.466-0.371v-0.15
		c0-0.29-0.072-0.497-0.215-0.621c-0.143-0.123-0.414-0.185-0.811-0.185c-0.269,0-0.478,0.053-0.628,0.159
		C16.397,13.106,16.276,13.292,16.183,13.557z M18.202,14.781c-0.193,0.064-0.5,0.142-0.918,0.231s-0.693,0.177-0.822,0.263
		c-0.197,0.14-0.295,0.317-0.295,0.532c0,0.211,0.079,0.394,0.236,0.548s0.358,0.231,0.602,0.231c0.272,0,0.532-0.089,0.779-0.269
		c0.183-0.136,0.303-0.303,0.36-0.5c0.04-0.129,0.059-0.374,0.059-0.736V14.781z"/>
	<path fill="#FFFFFF" d="M20.813,17.896l1.724,0.209c0.029,0.201,0.095,0.338,0.199,0.414c0.143,0.107,0.369,0.161,0.677,0.161
		c0.394,0,0.689-0.059,0.886-0.177c0.132-0.079,0.233-0.206,0.301-0.381c0.046-0.125,0.07-0.356,0.07-0.693v-0.833
		c-0.451,0.616-1.021,0.924-1.708,0.924c-0.766,0-1.373-0.324-1.821-0.972c-0.351-0.512-0.526-1.149-0.526-1.912
		c0-0.956,0.23-1.687,0.69-2.191c0.46-0.505,1.032-0.757,1.716-0.757c0.706,0,1.287,0.31,1.746,0.929v-0.8h1.413v5.119
		c0,0.673-0.056,1.176-0.167,1.509s-0.267,0.594-0.467,0.784s-0.468,0.338-0.803,0.446c-0.335,0.107-0.758,0.161-1.271,0.161
		c-0.967,0-1.652-0.166-2.057-0.497c-0.405-0.332-0.607-0.751-0.607-1.26C20.808,18.029,20.81,17.968,20.813,17.896z M22.161,14.55
		c0,0.605,0.117,1.048,0.352,1.33c0.235,0.281,0.524,0.421,0.868,0.421c0.369,0,0.68-0.144,0.935-0.432
		c0.254-0.289,0.381-0.715,0.381-1.281c0-0.591-0.122-1.029-0.365-1.316s-0.551-0.43-0.924-0.43c-0.362,0-0.66,0.141-0.895,0.421
		C22.278,13.545,22.161,13.974,22.161,14.55z"/>
	<path fill="#FFFFFF" d="M27.103,14.588c0-0.501,0.124-0.986,0.371-1.456s0.597-0.827,1.05-1.074
		c0.453-0.247,0.958-0.371,1.517-0.371c0.863,0,1.57,0.28,2.122,0.841c0.551,0.56,0.827,1.268,0.827,2.124
		c0,0.863-0.278,1.578-0.835,2.146c-0.557,0.568-1.258,0.852-2.103,0.852c-0.523,0-1.021-0.118-1.496-0.354
		c-0.475-0.236-0.835-0.583-1.083-1.039C27.226,15.799,27.103,15.243,27.103,14.588z M28.649,14.668c0,0.566,0.134,0.999,0.403,1.3
		s0.6,0.451,0.994,0.451s0.724-0.15,0.991-0.451c0.267-0.301,0.4-0.738,0.4-1.311c0-0.559-0.133-0.988-0.4-1.289
		c-0.267-0.301-0.597-0.451-0.991-0.451s-0.725,0.15-0.994,0.451S28.649,14.103,28.649,14.668z"/>
	<path fill="#FFFFFF" d="M33.237,11.816h1.606l1.364,4.05l1.332-4.05h1.563l-2.014,5.489l-0.36,0.994
		c-0.132,0.333-0.259,0.587-0.379,0.763c-0.12,0.175-0.258,0.318-0.413,0.427c-0.156,0.109-0.348,0.194-0.575,0.255
		c-0.227,0.061-0.484,0.091-0.771,0.091c-0.29,0-0.575-0.03-0.854-0.091l-0.134-1.182c0.236,0.046,0.449,0.07,0.639,0.07
		c0.351,0,0.61-0.103,0.779-0.309c0.168-0.206,0.297-0.468,0.387-0.787L33.237,11.816z"/>
	<path fill="#FFFFFF" d="M40.977,13.557l-1.37-0.247c0.154-0.551,0.419-0.959,0.795-1.225s0.935-0.397,1.676-0.397
		c0.673,0,1.174,0.08,1.504,0.239c0.33,0.159,0.562,0.361,0.695,0.606c0.135,0.246,0.202,0.696,0.202,1.351l-0.016,1.762
		c0,0.501,0.024,0.871,0.072,1.109c0.049,0.238,0.139,0.494,0.271,0.766h-1.493c-0.04-0.1-0.088-0.249-0.145-0.446
		c-0.025-0.089-0.043-0.148-0.054-0.177c-0.258,0.25-0.534,0.438-0.827,0.564s-0.607,0.188-0.94,0.188
		c-0.587,0-1.05-0.159-1.389-0.478c-0.338-0.319-0.507-0.722-0.507-1.208c0-0.322,0.077-0.609,0.231-0.862
		c0.154-0.252,0.37-0.445,0.647-0.58c0.277-0.134,0.677-0.251,1.2-0.352c0.706-0.132,1.194-0.256,1.466-0.371v-0.15
		c0-0.29-0.072-0.497-0.215-0.621c-0.143-0.123-0.414-0.185-0.811-0.185c-0.269,0-0.478,0.053-0.628,0.159
		C41.191,13.106,41.07,13.292,40.977,13.557z M42.996,14.781c-0.193,0.064-0.5,0.142-0.918,0.231s-0.693,0.177-0.822,0.263
		c-0.197,0.14-0.295,0.317-0.295,0.532c0,0.211,0.079,0.394,0.236,0.548s0.358,0.231,0.602,0.231c0.272,0,0.532-0.089,0.779-0.269
		c0.183-0.136,0.303-0.303,0.36-0.5c0.04-0.129,0.059-0.374,0.059-0.736V14.781z"/>
	<path fill="#FFFFFF" d="M48.583,9.646h1.59v4.265c0,0.677,0.02,1.115,0.059,1.316c0.068,0.322,0.23,0.581,0.486,0.776
		c0.256,0.195,0.606,0.293,1.05,0.293c0.451,0,0.792-0.092,1.021-0.276c0.229-0.185,0.367-0.411,0.414-0.68s0.07-0.714,0.07-1.337
		V9.646h1.59v4.136c0,0.945-0.043,1.613-0.129,2.003s-0.244,0.72-0.476,0.988c-0.23,0.269-0.54,0.482-0.926,0.642
		c-0.387,0.159-0.892,0.239-1.515,0.239c-0.752,0-1.322-0.087-1.71-0.26c-0.389-0.174-0.696-0.399-0.921-0.677
		c-0.226-0.278-0.374-0.569-0.446-0.873c-0.104-0.451-0.156-1.117-0.156-1.998V9.646z"/>
	<path fill="#FFFFFF" d="M61.495,17.521h-1.509v-2.911c0-0.616-0.032-1.014-0.097-1.195c-0.064-0.181-0.169-0.321-0.314-0.421
		c-0.145-0.1-0.319-0.15-0.523-0.15c-0.261,0-0.496,0.072-0.704,0.215s-0.35,0.333-0.427,0.569
		c-0.077,0.236-0.115,0.673-0.115,1.311v2.583h-1.509v-5.704h1.402v0.838c0.498-0.645,1.125-0.967,1.88-0.967
		c0.333,0,0.637,0.06,0.913,0.18c0.276,0.12,0.484,0.273,0.626,0.459c0.141,0.186,0.24,0.397,0.295,0.634
		c0.056,0.236,0.083,0.575,0.083,1.015V17.521z"/>
	<path fill="#FFFFFF" d="M62.806,11.043V9.646h1.509v1.396H62.806z M62.806,17.521v-5.704h1.509v5.704H62.806z"/>
	<path fill="#FFFFFF" d="M67.21,17.521l-2.299-5.704h1.584l1.074,2.911l0.312,0.972c0.083-0.247,0.134-0.41,0.156-0.489
		c0.05-0.161,0.104-0.322,0.161-0.483l1.085-2.911h1.552l-2.267,5.704H67.21z"/>
	<path fill="#FFFFFF" d="M74.843,15.705l1.504,0.252c-0.193,0.551-0.499,0.971-0.916,1.259c-0.417,0.289-0.939,0.433-1.565,0.433
		c-0.992,0-1.726-0.324-2.202-0.972c-0.376-0.519-0.564-1.174-0.564-1.966c0-0.945,0.247-1.686,0.741-2.221
		c0.494-0.535,1.119-0.803,1.875-0.803c0.849,0,1.518,0.28,2.009,0.841c0.491,0.56,0.726,1.418,0.704,2.575h-3.782
		c0.011,0.448,0.132,0.796,0.365,1.045c0.233,0.249,0.523,0.373,0.87,0.373c0.236,0,0.435-0.064,0.596-0.193
		S74.76,15.992,74.843,15.705z M74.929,14.18c-0.011-0.437-0.124-0.769-0.338-0.996c-0.215-0.228-0.476-0.341-0.784-0.341
		c-0.33,0-0.602,0.12-0.816,0.36s-0.32,0.566-0.317,0.978H74.929z"/>
	<path fill="#FFFFFF" d="M78.882,17.521h-1.509v-5.704h1.401v0.811c0.24-0.383,0.456-0.636,0.647-0.757s0.409-0.183,0.652-0.183
		c0.344,0,0.675,0.095,0.994,0.285l-0.468,1.316c-0.254-0.165-0.49-0.247-0.709-0.247c-0.211,0-0.39,0.058-0.537,0.175
		c-0.146,0.116-0.262,0.327-0.347,0.631c-0.084,0.304-0.126,0.942-0.126,1.912V17.521z"/>
	<path fill="#FFFFFF" d="M80.967,15.893l1.515-0.231c0.064,0.293,0.195,0.517,0.392,0.669c0.197,0.152,0.473,0.228,0.827,0.228
		c0.391,0,0.685-0.072,0.881-0.215c0.133-0.1,0.199-0.234,0.199-0.403c0-0.115-0.036-0.209-0.107-0.285
		c-0.075-0.072-0.244-0.138-0.505-0.199c-1.218-0.269-1.989-0.514-2.315-0.736c-0.451-0.308-0.677-0.736-0.677-1.284
		c0-0.494,0.195-0.91,0.586-1.246c0.39-0.336,0.995-0.505,1.815-0.505c0.78,0,1.36,0.127,1.74,0.381
		c0.379,0.254,0.641,0.63,0.784,1.128l-1.424,0.263c-0.061-0.222-0.176-0.392-0.346-0.51c-0.171-0.118-0.413-0.177-0.729-0.177
		c-0.397,0-0.682,0.056-0.854,0.167c-0.115,0.079-0.172,0.181-0.172,0.306c0,0.107,0.05,0.199,0.15,0.274
		c0.136,0.1,0.605,0.242,1.41,0.424c0.804,0.183,1.364,0.406,1.684,0.671c0.314,0.269,0.473,0.643,0.473,1.123
		c0,0.523-0.219,0.972-0.655,1.348c-0.438,0.376-1.083,0.564-1.939,0.564c-0.776,0-1.392-0.158-1.845-0.473
		S81.106,16.434,80.967,15.893z"/>
	<path fill="#FFFFFF" d="M87.396,11.043V9.646h1.51v1.396H87.396z M87.396,17.521v-5.704h1.51v5.704H87.396z"/>
	<path fill="#FFFFFF" d="M92.848,11.816v1.203h-1.031v2.299c0,0.465,0.01,0.737,0.029,0.813c0.021,0.077,0.064,0.141,0.135,0.191
		c0.069,0.05,0.155,0.075,0.255,0.075c0.14,0,0.342-0.048,0.607-0.145l0.129,1.171c-0.352,0.15-0.749,0.226-1.192,0.226
		c-0.272,0-0.518-0.046-0.736-0.137c-0.218-0.092-0.379-0.21-0.48-0.354c-0.103-0.146-0.173-0.341-0.212-0.588
		c-0.032-0.175-0.049-0.53-0.049-1.063V13.02h-0.692v-1.203h0.692v-1.133l1.515-0.881v2.014H92.848z"/>
	<path fill="#FFFFFF" d="M92.961,11.816h1.605l1.364,4.05l1.332-4.05h1.563l-2.015,5.489l-0.359,0.994
		c-0.133,0.333-0.259,0.587-0.379,0.763s-0.258,0.318-0.413,0.427c-0.156,0.109-0.348,0.194-0.575,0.255s-0.484,0.091-0.771,0.091
		c-0.29,0-0.575-0.03-0.854-0.091l-0.134-1.182c0.236,0.046,0.449,0.07,0.639,0.07c0.352,0,0.61-0.103,0.779-0.309
		c0.168-0.206,0.297-0.468,0.387-0.787L92.961,11.816z"/>
	<path fill="#FFFFFF" d="M102.419,17.521V9.646h2.552c0.967,0,1.597,0.04,1.891,0.118c0.451,0.118,0.829,0.375,1.133,0.771
		c0.305,0.396,0.457,0.907,0.457,1.534c0,0.483-0.088,0.89-0.264,1.219c-0.175,0.33-0.397,0.588-0.668,0.776
		c-0.271,0.188-0.545,0.312-0.824,0.373c-0.38,0.075-0.93,0.113-1.649,0.113h-1.037v2.97H102.419z M104.009,10.979v2.234h0.87
		c0.627,0,1.046-0.041,1.258-0.124c0.211-0.083,0.376-0.211,0.496-0.387s0.18-0.379,0.18-0.612c0-0.287-0.084-0.523-0.252-0.709
		s-0.381-0.303-0.639-0.349c-0.19-0.036-0.571-0.054-1.145-0.054H104.009z"/>
	<path fill="#FFFFFF" d="M110.971,17.521h-1.51v-5.704h1.402v0.811c0.24-0.383,0.456-0.636,0.647-0.757s0.409-0.183,0.652-0.183
		c0.344,0,0.675,0.095,0.993,0.285l-0.467,1.316c-0.254-0.165-0.49-0.247-0.709-0.247c-0.211,0-0.391,0.058-0.537,0.175
		c-0.146,0.116-0.263,0.327-0.347,0.631s-0.126,0.942-0.126,1.912V17.521z"/>
	<path fill="#FFFFFF" d="M113.236,14.588c0-0.501,0.124-0.986,0.37-1.456c0.248-0.469,0.598-0.827,1.051-1.074
		s0.959-0.371,1.518-0.371c0.862,0,1.569,0.28,2.121,0.841c0.552,0.56,0.827,1.268,0.827,2.124c0,0.863-0.278,1.578-0.835,2.146
		c-0.557,0.568-1.258,0.852-2.104,0.852c-0.522,0-1.021-0.118-1.495-0.354s-0.835-0.583-1.083-1.039
		C113.36,15.799,113.236,15.243,113.236,14.588z M114.783,14.668c0,0.566,0.134,0.999,0.403,1.3c0.268,0.301,0.6,0.451,0.993,0.451
		s0.725-0.15,0.991-0.451s0.4-0.738,0.4-1.311c0-0.559-0.134-0.988-0.4-1.289s-0.598-0.451-0.991-0.451s-0.726,0.15-0.993,0.451
		C114.917,13.669,114.783,14.103,114.783,14.668z"/>
	<path fill="#FFFFFF" d="M119.945,17.896l1.724,0.209c0.028,0.201,0.095,0.338,0.198,0.414c0.144,0.107,0.369,0.161,0.678,0.161
		c0.394,0,0.688-0.059,0.886-0.177c0.133-0.079,0.232-0.206,0.301-0.381c0.047-0.125,0.069-0.356,0.069-0.693v-0.833
		c-0.451,0.616-1.02,0.924-1.707,0.924c-0.767,0-1.374-0.324-1.821-0.972c-0.351-0.512-0.526-1.149-0.526-1.912
		c0-0.956,0.23-1.687,0.69-2.191s1.032-0.757,1.716-0.757c0.705,0,1.287,0.31,1.746,0.929v-0.8h1.412v5.119
		c0,0.673-0.056,1.176-0.166,1.509c-0.111,0.333-0.268,0.594-0.468,0.784s-0.468,0.338-0.803,0.446s-0.759,0.161-1.271,0.161
		c-0.967,0-1.652-0.166-2.057-0.497c-0.405-0.332-0.607-0.751-0.607-1.26C119.939,18.029,119.941,17.968,119.945,17.896z
		 M121.293,14.55c0,0.605,0.117,1.048,0.352,1.33c0.234,0.281,0.523,0.421,0.867,0.421c0.369,0,0.681-0.144,0.936-0.432
		c0.254-0.289,0.381-0.715,0.381-1.281c0-0.591-0.122-1.029-0.365-1.316s-0.552-0.43-0.924-0.43c-0.361,0-0.66,0.141-0.895,0.421
		C121.41,13.545,121.293,13.974,121.293,14.55z"/>
	<path fill="#FFFFFF" d="M128.028,17.521h-1.51v-5.704h1.402v0.811c0.24-0.383,0.456-0.636,0.647-0.757s0.409-0.183,0.652-0.183
		c0.344,0,0.675,0.095,0.993,0.285l-0.467,1.316c-0.254-0.165-0.49-0.247-0.709-0.247c-0.211,0-0.391,0.058-0.537,0.175
		c-0.146,0.116-0.263,0.327-0.347,0.631s-0.126,0.942-0.126,1.912V17.521z"/>
	<path fill="#FFFFFF" d="M131.773,13.557l-1.37-0.247c0.154-0.551,0.419-0.959,0.795-1.225s0.935-0.397,1.676-0.397
		c0.673,0,1.175,0.08,1.504,0.239c0.329,0.159,0.562,0.361,0.695,0.606c0.135,0.246,0.202,0.696,0.202,1.351l-0.017,1.762
		c0,0.501,0.024,0.871,0.072,1.109c0.049,0.238,0.139,0.494,0.271,0.766h-1.493c-0.039-0.1-0.088-0.249-0.145-0.446
		c-0.025-0.089-0.043-0.148-0.055-0.177c-0.258,0.25-0.533,0.438-0.826,0.564c-0.294,0.125-0.607,0.188-0.94,0.188
		c-0.587,0-1.05-0.159-1.389-0.478c-0.338-0.319-0.507-0.722-0.507-1.208c0-0.322,0.076-0.609,0.23-0.862
		c0.154-0.252,0.37-0.445,0.647-0.58c0.277-0.134,0.678-0.251,1.2-0.352c0.705-0.132,1.194-0.256,1.467-0.371v-0.15
		c0-0.29-0.072-0.497-0.215-0.621c-0.144-0.123-0.414-0.185-0.812-0.185c-0.269,0-0.478,0.053-0.628,0.159
		C131.988,13.106,131.866,13.292,131.773,13.557z M133.793,14.781c-0.193,0.064-0.5,0.142-0.919,0.231s-0.692,0.177-0.821,0.263
		c-0.197,0.14-0.296,0.317-0.296,0.532c0,0.211,0.079,0.394,0.236,0.548s0.358,0.231,0.602,0.231c0.272,0,0.532-0.089,0.778-0.269
		c0.184-0.136,0.303-0.303,0.36-0.5c0.039-0.129,0.06-0.374,0.06-0.736V14.781z"/>
	<path fill="#FFFFFF" d="M136.429,11.816h1.392v0.779c0.497-0.605,1.09-0.908,1.777-0.908c0.365,0,0.682,0.075,0.951,0.226
		c0.268,0.15,0.488,0.378,0.66,0.682c0.251-0.304,0.521-0.532,0.811-0.682c0.291-0.15,0.601-0.226,0.93-0.226
		c0.419,0,0.773,0.085,1.063,0.255c0.29,0.17,0.507,0.42,0.649,0.75c0.104,0.244,0.156,0.637,0.156,1.182v3.647h-1.51v-3.26
		c0-0.566-0.052-0.931-0.155-1.096c-0.14-0.215-0.354-0.322-0.645-0.322c-0.211,0-0.41,0.064-0.597,0.193
		c-0.186,0.129-0.32,0.318-0.402,0.567c-0.082,0.249-0.123,0.642-0.123,1.179v2.739h-1.51v-3.126c0-0.555-0.027-0.913-0.08-1.074
		c-0.055-0.161-0.138-0.281-0.25-0.36c-0.113-0.079-0.266-0.118-0.459-0.118c-0.233,0-0.442,0.063-0.629,0.188
		s-0.319,0.306-0.4,0.542c-0.08,0.236-0.121,0.628-0.121,1.176v2.771h-1.509V11.816z"/>
	<path fill="#FFFFFF" d="M6.67,23.815h0.838v-0.43c0-0.479,0.051-0.838,0.153-1.074c0.102-0.236,0.29-0.429,0.563-0.577
		c0.274-0.148,0.621-0.223,1.04-0.223c0.43,0,0.851,0.064,1.262,0.193l-0.204,1.053c-0.24-0.058-0.471-0.086-0.693-0.086
		c-0.218,0-0.375,0.051-0.47,0.152c-0.095,0.103-0.142,0.299-0.142,0.589v0.402h1.128v1.188H9.018v4.517H7.508v-4.517H6.67V23.815z"
		/>
	<path fill="#FFFFFF" d="M10.425,26.587c0-0.501,0.124-0.986,0.371-1.455c0.247-0.47,0.597-0.827,1.05-1.074
		c0.453-0.247,0.958-0.371,1.517-0.371c0.863,0,1.57,0.28,2.122,0.841c0.551,0.56,0.827,1.269,0.827,2.124
		c0,0.863-0.278,1.578-0.835,2.146c-0.557,0.567-1.258,0.852-2.103,0.852c-0.523,0-1.021-0.118-1.496-0.354
		c-0.475-0.236-0.835-0.583-1.083-1.039C10.548,27.798,10.425,27.242,10.425,26.587z M11.972,26.668
		c0,0.565,0.134,0.998,0.403,1.299s0.6,0.451,0.994,0.451s0.724-0.15,0.991-0.451c0.267-0.301,0.4-0.737,0.4-1.311
		c0-0.559-0.133-0.988-0.4-1.288c-0.267-0.301-0.597-0.451-0.991-0.451s-0.725,0.15-0.994,0.451
		C12.106,25.668,11.972,26.102,11.972,26.668z"/>
	<path fill="#FFFFFF" d="M18.718,29.52h-1.509v-5.704h1.402v0.812c0.24-0.384,0.456-0.636,0.647-0.758
		c0.191-0.121,0.409-0.183,0.652-0.183c0.344,0,0.675,0.095,0.994,0.285l-0.467,1.315c-0.254-0.165-0.491-0.247-0.709-0.247
		c-0.211,0-0.39,0.059-0.537,0.175s-0.262,0.326-0.347,0.631c-0.084,0.305-0.126,0.941-0.126,1.912V29.52z"/>
	<path fill="#FFFFFF" d="M31.282,29.52h-1.729l-0.688-1.789h-3.147l-0.65,1.789h-1.687l3.067-7.874h1.681L31.282,29.52z
		 M28.354,26.404l-1.085-2.922l-1.063,2.922H28.354z"/>
	<path fill="#FFFFFF" d="M36.868,25.502l-1.488,0.269c-0.05-0.297-0.164-0.521-0.341-0.672c-0.178-0.149-0.408-0.225-0.69-0.225
		c-0.376,0-0.676,0.13-0.899,0.389c-0.224,0.26-0.336,0.694-0.336,1.303c0,0.677,0.114,1.155,0.341,1.435
		c0.228,0.279,0.533,0.418,0.916,0.418c0.287,0,0.521-0.081,0.704-0.244s0.312-0.443,0.387-0.84l1.482,0.252
		c-0.154,0.681-0.449,1.194-0.886,1.541c-0.437,0.348-1.022,0.521-1.756,0.521c-0.834,0-1.5-0.264-1.996-0.789
		c-0.496-0.527-0.744-1.256-0.744-2.187c0-0.941,0.249-1.675,0.747-2.199s1.171-0.787,2.02-0.787c0.695,0,1.247,0.149,1.657,0.448
		C36.394,24.435,36.688,24.89,36.868,25.502z"/>
	<path fill="#FFFFFF" d="M38.92,25.556l-1.37-0.247c0.154-0.551,0.419-0.959,0.795-1.225c0.376-0.265,0.935-0.397,1.676-0.397
		c0.673,0,1.174,0.08,1.504,0.239s0.562,0.361,0.695,0.606c0.135,0.246,0.202,0.695,0.202,1.351l-0.016,1.762
		c0,0.502,0.024,0.871,0.072,1.109c0.049,0.238,0.139,0.493,0.271,0.766h-1.493c-0.04-0.101-0.088-0.249-0.145-0.445
		c-0.025-0.09-0.043-0.149-0.054-0.178c-0.258,0.251-0.534,0.438-0.827,0.564c-0.293,0.125-0.607,0.188-0.94,0.188
		c-0.587,0-1.05-0.159-1.389-0.479c-0.338-0.318-0.507-0.721-0.507-1.208c0-0.322,0.077-0.609,0.231-0.862
		c0.154-0.252,0.37-0.445,0.647-0.58c0.277-0.134,0.677-0.251,1.2-0.352c0.706-0.133,1.194-0.256,1.466-0.371v-0.15
		c0-0.29-0.072-0.496-0.215-0.62c-0.143-0.123-0.414-0.185-0.811-0.185c-0.269,0-0.478,0.053-0.628,0.158S39.013,25.29,38.92,25.556
		z M40.939,26.78c-0.193,0.064-0.5,0.142-0.918,0.231c-0.419,0.089-0.693,0.177-0.822,0.263c-0.197,0.14-0.295,0.317-0.295,0.532
		c0,0.211,0.079,0.394,0.236,0.547c0.158,0.154,0.358,0.231,0.602,0.231c0.272,0,0.532-0.09,0.779-0.269
		c0.183-0.136,0.303-0.303,0.36-0.5c0.04-0.129,0.059-0.374,0.059-0.735V26.78z"/>
	<path fill="#FFFFFF" d="M48.921,29.52h-1.402v-0.838c-0.233,0.326-0.508,0.568-0.824,0.728c-0.317,0.159-0.637,0.239-0.959,0.239
		c-0.655,0-1.217-0.264-1.684-0.792c-0.468-0.528-0.701-1.265-0.701-2.21c0-0.967,0.228-1.702,0.682-2.205s1.029-0.755,1.724-0.755
		c0.637,0,1.189,0.266,1.654,0.795v-2.836h1.509V29.52z M44.893,26.544c0,0.608,0.084,1.049,0.252,1.321
		c0.244,0.394,0.583,0.591,1.021,0.591c0.347,0,0.643-0.147,0.886-0.443c0.244-0.295,0.365-0.736,0.365-1.323
		c0-0.656-0.118-1.128-0.354-1.416s-0.539-0.432-0.908-0.432c-0.358,0-0.658,0.142-0.899,0.427
		C45.013,25.553,44.893,25.979,44.893,26.544z"/>
	<path fill="#FFFFFF" d="M53.492,27.704l1.504,0.253c-0.193,0.551-0.499,0.971-0.916,1.259c-0.417,0.288-0.939,0.433-1.565,0.433
		c-0.992,0-1.726-0.324-2.202-0.973c-0.376-0.519-0.564-1.174-0.564-1.965c0-0.945,0.247-1.686,0.741-2.222
		c0.494-0.535,1.119-0.803,1.875-0.803c0.849,0,1.518,0.28,2.009,0.841c0.491,0.56,0.725,1.419,0.704,2.575h-3.781
		c0.011,0.447,0.132,0.796,0.365,1.045s0.523,0.373,0.87,0.373c0.236,0,0.435-0.064,0.596-0.193S53.41,27.99,53.492,27.704z
		 M53.578,26.179c-0.011-0.437-0.124-0.77-0.338-0.996c-0.215-0.228-0.476-0.341-0.784-0.341c-0.33,0-0.602,0.12-0.816,0.359
		s-0.32,0.565-0.317,0.978H53.578z"/>
	<path fill="#FFFFFF" d="M55.974,23.815h1.391v0.779c0.498-0.605,1.09-0.908,1.778-0.908c0.365,0,0.682,0.075,0.951,0.226
		s0.489,0.378,0.661,0.683c0.25-0.305,0.521-0.532,0.811-0.683s0.6-0.226,0.929-0.226c0.419,0,0.773,0.085,1.063,0.255
		c0.29,0.171,0.507,0.42,0.65,0.75c0.104,0.243,0.156,0.637,0.156,1.182v3.646h-1.509v-3.26c0-0.566-0.052-0.932-0.156-1.097
		c-0.14-0.214-0.354-0.321-0.645-0.321c-0.211,0-0.41,0.064-0.596,0.193c-0.186,0.128-0.32,0.317-0.403,0.566
		s-0.124,0.642-0.124,1.179v2.739h-1.509v-3.126c0-0.555-0.027-0.913-0.081-1.074s-0.137-0.281-0.25-0.359
		c-0.113-0.079-0.266-0.118-0.459-0.118c-0.233,0-0.442,0.063-0.628,0.188c-0.186,0.126-0.319,0.306-0.4,0.543
		c-0.08,0.236-0.121,0.628-0.121,1.176v2.771h-1.509V23.815z"/>
	<path fill="#FFFFFF" d="M65.647,23.042v-1.396h1.509v1.396H65.647z M65.647,29.52v-5.704h1.509v5.704H65.647z"/>
	<path fill="#FFFFFF" d="M73.457,25.502l-1.488,0.269c-0.05-0.297-0.164-0.521-0.341-0.672c-0.178-0.149-0.408-0.225-0.69-0.225
		c-0.376,0-0.676,0.13-0.899,0.389c-0.224,0.26-0.336,0.694-0.336,1.303c0,0.677,0.114,1.155,0.341,1.435
		c0.228,0.279,0.533,0.418,0.916,0.418c0.287,0,0.521-0.081,0.704-0.244s0.312-0.443,0.387-0.84l1.482,0.252
		c-0.154,0.681-0.449,1.194-0.886,1.541c-0.437,0.348-1.022,0.521-1.756,0.521c-0.834,0-1.5-0.264-1.996-0.789
		c-0.496-0.527-0.744-1.256-0.744-2.187c0-0.941,0.249-1.675,0.747-2.199s1.171-0.787,2.02-0.787c0.695,0,1.247,0.149,1.657,0.448
		C72.983,24.435,73.278,24.89,73.457,25.502z"/>
	<path fill="#FFFFFF" d="M77.229,29.52v-7.874h5.838v1.332h-4.248v1.746h3.953v1.326h-3.953v2.144h4.398v1.326H77.229z"/>
	<path fill="#FFFFFF" d="M83.609,29.52l2.057-2.938l-1.971-2.767h1.842l1.01,1.568l1.063-1.568h1.772l-1.934,2.702l2.111,3.002
		h-1.854l-1.16-1.768l-1.171,1.768H83.609z"/>
	<path fill="#FFFFFF" d="M95.206,25.502l-1.488,0.269c-0.05-0.297-0.164-0.521-0.341-0.672c-0.178-0.149-0.407-0.225-0.69-0.225
		c-0.376,0-0.676,0.13-0.899,0.389c-0.224,0.26-0.336,0.694-0.336,1.303c0,0.677,0.114,1.155,0.341,1.435
		c0.228,0.279,0.533,0.418,0.916,0.418c0.287,0,0.521-0.081,0.704-0.244s0.312-0.443,0.387-0.84l1.482,0.252
		c-0.154,0.681-0.449,1.194-0.887,1.541c-0.437,0.348-1.022,0.521-1.756,0.521c-0.835,0-1.5-0.264-1.996-0.789
		c-0.495-0.527-0.743-1.256-0.743-2.187c0-0.941,0.249-1.675,0.746-2.199c0.498-0.524,1.171-0.787,2.02-0.787
		c0.695,0,1.247,0.149,1.657,0.448C94.732,24.435,95.026,24.89,95.206,25.502z"/>
	<path fill="#FFFFFF" d="M97.634,21.646v2.896c0.486-0.569,1.068-0.854,1.745-0.854c0.348,0,0.661,0.064,0.94,0.193
		s0.489,0.294,0.631,0.494c0.142,0.201,0.238,0.423,0.29,0.666c0.052,0.244,0.078,0.621,0.078,1.134v3.346h-1.51v-3.014
		c0-0.598-0.028-0.977-0.086-1.138c-0.057-0.162-0.158-0.289-0.304-0.385c-0.145-0.095-0.326-0.142-0.545-0.142
		c-0.25,0-0.475,0.061-0.671,0.183c-0.197,0.121-0.342,0.305-0.433,0.55c-0.092,0.245-0.137,0.608-0.137,1.088v2.857h-1.51v-7.874
		H97.634z"/>
	<path fill="#FFFFFF" d="M103.756,25.556l-1.369-0.247c0.153-0.551,0.419-0.959,0.795-1.225c0.376-0.265,0.935-0.397,1.676-0.397
		c0.673,0,1.175,0.08,1.504,0.239s0.562,0.361,0.695,0.606c0.135,0.246,0.202,0.695,0.202,1.351l-0.017,1.762
		c0,0.502,0.024,0.871,0.072,1.109c0.049,0.238,0.139,0.493,0.271,0.766h-1.493c-0.039-0.101-0.088-0.249-0.145-0.445
		c-0.025-0.09-0.043-0.149-0.055-0.178c-0.258,0.251-0.533,0.438-0.826,0.564c-0.294,0.125-0.607,0.188-0.94,0.188
		c-0.588,0-1.05-0.159-1.389-0.479c-0.338-0.318-0.508-0.721-0.508-1.208c0-0.322,0.077-0.609,0.231-0.862
		c0.153-0.252,0.369-0.445,0.647-0.58c0.277-0.134,0.677-0.251,1.2-0.352c0.705-0.133,1.194-0.256,1.467-0.371v-0.15
		c0-0.29-0.072-0.496-0.215-0.62c-0.144-0.123-0.414-0.185-0.812-0.185c-0.269,0-0.479,0.053-0.629,0.158
		S103.85,25.29,103.756,25.556z M105.776,26.78c-0.193,0.064-0.5,0.142-0.919,0.231c-0.419,0.089-0.693,0.177-0.822,0.263
		c-0.196,0.14-0.295,0.317-0.295,0.532c0,0.211,0.078,0.394,0.236,0.547c0.157,0.154,0.357,0.231,0.602,0.231
		c0.271,0,0.532-0.09,0.778-0.269c0.184-0.136,0.303-0.303,0.36-0.5c0.04-0.129,0.06-0.374,0.06-0.735V26.78z"/>
	<path fill="#FFFFFF" d="M113.715,29.52h-1.51v-2.911c0-0.616-0.032-1.015-0.097-1.195s-0.169-0.321-0.314-0.421
		c-0.145-0.101-0.319-0.15-0.523-0.15c-0.262,0-0.496,0.071-0.704,0.215c-0.207,0.143-0.35,0.333-0.427,0.568
		c-0.077,0.236-0.115,0.674-0.115,1.311v2.584h-1.509v-5.704h1.401v0.838c0.498-0.645,1.124-0.967,1.88-0.967
		c0.333,0,0.638,0.061,0.913,0.18c0.275,0.12,0.484,0.273,0.626,0.46c0.142,0.186,0.239,0.397,0.295,0.634s0.084,0.574,0.084,1.015
		V29.52z"/>
	<path fill="#FFFFFF" d="M114.886,29.896l1.724,0.21c0.028,0.2,0.095,0.338,0.198,0.413c0.144,0.107,0.369,0.161,0.678,0.161
		c0.394,0,0.688-0.059,0.886-0.178c0.133-0.078,0.232-0.205,0.301-0.381c0.047-0.125,0.069-0.356,0.069-0.693v-0.832
		c-0.451,0.616-1.02,0.924-1.707,0.924c-0.767,0-1.374-0.324-1.821-0.973c-0.351-0.512-0.526-1.148-0.526-1.912
		c0-0.955,0.23-1.686,0.69-2.19s1.032-0.758,1.716-0.758c0.705,0,1.287,0.31,1.746,0.93v-0.801h1.412v5.118
		c0,0.674-0.056,1.177-0.166,1.51c-0.111,0.333-0.268,0.595-0.468,0.784s-0.468,0.339-0.803,0.446s-0.759,0.16-1.271,0.16
		c-0.967,0-1.652-0.165-2.057-0.496c-0.405-0.331-0.607-0.751-0.607-1.26C114.88,30.028,114.882,29.967,114.886,29.896z
		 M116.233,26.549c0,0.605,0.117,1.049,0.352,1.33s0.523,0.422,0.867,0.422c0.369,0,0.681-0.145,0.936-0.433
		c0.254-0.288,0.381-0.716,0.381-1.281c0-0.591-0.122-1.029-0.365-1.316c-0.243-0.286-0.552-0.429-0.924-0.429
		c-0.361,0-0.66,0.141-0.895,0.421C116.351,25.544,116.233,25.973,116.233,26.549z"/>
	<path fill="#FFFFFF" d="M124.826,27.704l1.504,0.253c-0.193,0.551-0.499,0.971-0.916,1.259s-0.938,0.433-1.565,0.433
		c-0.992,0-1.726-0.324-2.202-0.973c-0.376-0.519-0.563-1.174-0.563-1.965c0-0.945,0.246-1.686,0.74-2.222
		c0.494-0.535,1.119-0.803,1.875-0.803c0.849,0,1.519,0.28,2.009,0.841c0.49,0.56,0.726,1.419,0.704,2.575h-3.781
		c0.01,0.447,0.132,0.796,0.365,1.045c0.232,0.249,0.522,0.373,0.869,0.373c0.236,0,0.436-0.064,0.597-0.193
		S124.744,27.99,124.826,27.704z M124.912,26.179c-0.011-0.437-0.124-0.77-0.339-0.996c-0.215-0.228-0.476-0.341-0.783-0.341
		c-0.33,0-0.602,0.12-0.816,0.359s-0.321,0.565-0.317,0.978H124.912z"/>
</g>
<g>
</g>
<g>
</g>
<g>
</g>
<g>
</g>
<g>
</g>
<g>
</g>
</svg>
