<?xml version="1.0" encoding="utf-8"?>
<!-- Generator: Adobe Illustrator 21.1.0, SVG Export Plug-In . SVG Version: 6.00 Build 0)  -->
<svg xmlns="http://www.w3.org/2000/svg" xmlns:xlink="http://www.w3.org/1999/xlink" version="1.1" id="レイヤー_1" x="0px" y="0px" viewBox="0 0 650 374" style="enable-background:new 0 0 650 374;" xml:space="preserve">
<style type="text/css">
	.st0{fill:#B1FF6C;}
	.st1{enable-background:new    ;}
	.st2{fill:#39700E;}
	.st3{fill:#DCFFBD;}
	.st4{fill:#8ED656;}
	.st5{fill:#5AB31B;}
</style>
<g>
	<rect x="-0.3" y="-0.3" class="st0" width="650" height="374"/>
	<g class="st1">
		<path class="st2" d="M45.6,146.9h6.9v7.7H51V154h-6.8v0.9h-1.5v-6c-1.5,0.8-2.8,1.5-4.1,1.9l-0.6-1.7c2.3-0.6,4.6-1.8,6.8-3.6    c-0.4-0.5-1.3-1.1-2.4-1.9c-1,0.9-2.1,1.7-3.3,2.4l-1-1.2c2.7-1.4,4.6-3.6,5.7-6.6l1.6,0.4c0.2,0.2,0.1,0.3-0.2,0.4l-0.3,0.7h5    l0.1-0.3l1.6,1.1c0.2,0.2,0.1,0.3-0.2,0.4C49.8,143.2,47.9,145.2,45.6,146.9z M49.3,141h-4.9l-1.1,1.6c1.1,0.6,2.1,1.2,2.9,1.9    C47.2,143.4,48.3,142.3,49.3,141z M51,148.3h-6.8v4.2H51V148.3z"/>
		<path class="st2" d="M65.7,146h5.1v8.5h-1.7v-1.1h-8.2v1.3h-1.7V146h5v-3.5h-7.4v-1.6h7.4v-2.7h1.4c0.4,0,0.4,0.2,0.1,0.4v2.3h7.7    v1.6h-7.7V146z M69.2,147.4h-8.2v4.6h8.2V147.4z"/>
		<path class="st2" d="M79.6,147.1h2.6l0.9-1.9H79v1.8c0,3.4-0.7,5.9-2.1,7.6l-1.3-1c1.3-1.5,1.9-3.8,1.9-7v-7.9h13.6v3.8H79v1.2    h13.1v1.4h-3.9c1.4,1,2.6,2,3.5,2.9l-1.3,0.9l-1-1l-3.3,0.2v1.8h4.6v1.4h-4.6v1.8h6.5v1.4H78.4v-1.4h6.2v-1.8h-4.6V150h4.6v-1.6    l-4,0.1c-0.1,0.4-0.3,0.4-0.5,0.1L79.6,147.1z M89.6,141.4V140H79v1.4H89.6z M84.9,145.2l-1.3,1.9l4.7-0.1l-1.3-1l0.9-0.8H84.9z"/>
		<path class="st2" d="M94.9,153c4.6-1.6,7-4.6,7.2-9.1h-6.7v-1.6h6.8v-3.9h1.6c0.5,0.1,0.5,0.3,0.1,0.6v3.3h7.1v1.6h-7    c1,4.1,3.6,7,7.6,8.8l-1,1.8c-3.5-1.6-5.9-4.3-7.3-8c-0.8,4.1-3.4,6.9-7.8,8.4L94.9,153z"/>
		<path class="st2" d="M121.6,146.5l1.3,0.1l2.2-1.3h-7.9v-1.2h9.1l0.2-0.2l1.3,1.2c0.1,0.2,0,0.3-0.4,0.3c-1.5,0.9-2.9,1.7-4.3,2.3    v0.7h7.7v1.4H123v3.8c0,0.8-0.4,1.2-1.2,1.2h-2l-0.3-1.6h1.7c0.2,0,0.3-0.1,0.3-0.3v-3h-7.7v-1.4h7.7V146.5z M126.6,141.2h3.6v4.1    h-1.5v-2.7h-13.1v2.9h-1.5v-4.3H125l1.6-3.3l1.6,0.7c0.2,0.2,0.1,0.4-0.2,0.4L126.6,141.2z M117.7,141.1c-0.4-0.9-0.9-1.6-1.3-2.1    l1.4-0.8c0.5,0.6,1,1.3,1.5,2.1L117.7,141.1z M122.1,138c0.7,0.9,1.2,1.7,1.5,2.3l-1.6,0.8c-0.4-0.9-0.8-1.7-1.3-2.3L122.1,138z"/>
		<path class="st2" d="M148.5,141.7c-1.7,0-3.1,0.2-4.1,0.5c-1.1,0.4-2.1,1.1-3,2c-0.9,0.9-1.4,2.2-1.4,3.6c0,1.2,0.4,2.2,1.1,2.9    c1,1,2.9,1.5,5.7,1.6l-0.6,1.6c-2.9-0.1-4.9-0.8-6.1-1.9c-1.1-1.1-1.7-2.5-1.7-4.2c0-2.3,0.9-4.2,2.7-5.5c-2.3,0.3-4.7,0.7-7.1,1    l-0.4-1.7c4.8-0.3,9.7-0.9,14.6-1.8L148.5,141.7z M144,145.7l0.7-0.9c0.7,0.4,1.7,1.1,2.8,1.9l-0.7,0.9    C145.8,146.7,144.8,146.1,144,145.7z M145.5,143.9l0.7-0.9c0.7,0.4,1.6,1,2.8,1.9l-0.7,0.9C147.2,144.9,146.2,144.3,145.5,143.9z"/>
		<path class="st2" d="M153.2,153.8c-0.2-1.4-0.3-3-0.3-4.8c0-4,0.3-7.2,0.9-9.6l1.6,0.3c0.3,0.1,0.3,0.3-0.1,0.5    c-0.5,1.7-0.8,4.7-0.8,8.8c0,1.9,0.1,3.4,0.4,4.5L153.2,153.8z M164.4,143.9c0.1,1.9,0.1,3.8,0,5.6c1.5,0.5,2.9,1.3,4.3,2.3    l-0.9,1.4c-1-0.8-2.2-1.5-3.4-2.1c0,0.9-0.3,1.6-0.8,2.2c-0.6,0.6-1.5,0.9-2.6,0.9c-1.1,0-2-0.3-2.6-0.9c-0.5-0.5-0.7-1.1-0.7-1.9    c0-0.7,0.2-1.2,0.6-1.6c0.6-0.6,1.5-0.9,2.7-0.9c0.6,0,1.3,0.1,1.9,0.2c0.1-1.7,0.1-3.4,0-5.1l-5.5,0.4v-1.6l5.3-0.3    c0-1.4-0.1-2.6-0.3-3.7h1.6c0.5,0.1,0.6,0.3,0.1,0.6c0,1,0.1,2.1,0.1,3l4-0.2v1.6L164.4,143.9z M160.9,150.2    c-0.7,0-1.2,0.1-1.5,0.4c-0.2,0.2-0.4,0.5-0.4,0.7c0,0.4,0.1,0.7,0.3,0.9c0.3,0.3,0.9,0.5,1.6,0.5c0.7,0,1.2-0.2,1.5-0.5    c0.3-0.4,0.5-1,0.4-1.7C162,150.3,161.3,150.2,160.9,150.2z"/>
		<path class="st2" d="M170.9,143.9c2.1-1.5,3.5-3.5,4.3-5.9l1.7,0.4c0.2,0.2,0.1,0.3-0.2,0.4c-0.2,0.5-0.4,0.9-0.7,1.3h10.5v1.4    h-11.3c-0.9,1.4-1.9,2.5-3.1,3.5L170.9,143.9z M174.8,152.6l-0.4,1.6l-1.6-0.3c0.4-1.5,0.8-3.3,1.1-5.3H171v-1.4h3.1    c0.3-2.2,0.4-3.5,0.4-3.9h10.4l-0.1,3.9h2.7v1.4h-2.7l-0.1,2.7h2.7v1.4h-2.9l-0.1,0.8c-0.1,1-0.6,1.5-1.6,1.5h-2.5l-0.1-1.4h2.1    c0.4,0,0.6-0.1,0.7-0.4l0.1-0.4H174.8z M178.1,151.2l0.4-2.7h-3l-0.4,2.7H178.1z M178.6,147.1l0.2-2.4h-3l-0.3,2.4H178.6z     M179.7,151.2h3.4l0.1-2.7H180L179.7,151.2z M180.2,147.1h3.1l0.1-2.4h-3L180.2,147.1z"/>
		<path class="st2" d="M191.2,145.9l-1-1.3c2-1.5,3.4-3.6,4.2-6.5l1.7,0.4c0.2,0.2,0.1,0.3-0.2,0.4l-0.6,1.5h10.5v1.4h-5.4v2.5h4.5    v1.4h-4.5v3.3h6.2v1.4h-6.2v4.5h-1.5v-4.5h-8.5v-1.4h3.3v-4.8h5.2v-2.5h-4.1C193.7,143.4,192.6,144.8,191.2,145.9z M195,149.1h3.7    v-3.3H195V149.1z"/>
		<path class="st2" d="M225.5,153.3l-0.4,1.5c-2.9-0.2-5.3-0.7-7.4-1.5c-2.6,0.9-5.2,1.5-7.9,1.6l-0.4-1.4c2.7,0,5-0.3,7.1-1    c-0.7-0.5-1.5-1.2-2.2-2c-1.2,0.8-2.6,1.4-4,1.8l-0.7-1.3c2.6-0.5,4.3-1.5,5.2-3h-3v-6.7h4l0.4-1.1h-6.8V139h16.1v1.2h-7.7    l-0.4,1.1h5.7v6.7h-6.8c-0.1,0.2-0.3,0.5-0.7,0.9h5.6l0.4-0.4l1.1,1c0,0.2-0.1,0.3-0.4,0.4c-0.9,1-1.9,1.8-3,2.5    C220.8,153,222.9,153.3,225.5,153.3z M221.5,143.1v-1h-8.4v1H221.5z M221.5,145.1v-1h-8.4v1H221.5z M221.5,147.1V146h-8.4v1.1    H221.5z M215.3,150c0.6,0.6,1.5,1.2,2.4,1.8c0.9-0.5,1.7-1.1,2.3-1.8H215.3z"/>
		<path class="st2" d="M229.2,153.9c-0.1-2.6-0.2-4.8-0.2-6.6c0-2.2,0.3-4.9,0.8-7.9l1.5,0.4c0.5,0.1,0.6,0.3,0.1,0.7    c-0.5,2.9-0.7,5.2-0.7,6.9c0,1.9,0.1,4.1,0.3,6.5L229.2,153.9z M239.8,152.5c-2.3,0-4.3-0.7-5.8-2.2l1-1.3    c1.3,1.3,2.9,1.9,4.8,1.9h4.1v1.6H239.8z M242.9,142.9c-2.1,0-4.9,0.1-8.3,0.4v-1.6c3.6-0.3,6.3-0.5,8.3-0.4V142.9z"/>
		<path class="st2" d="M256,138.5v1.2h7.4v1.4h-16.6v-1.4h7.4v-1.8h1.6C256.4,138,256.4,138.2,256,138.5z M261.3,154.9h-1.4    l-0.3-1.4h1.1c0.2,0,0.3-0.1,0.3-0.3v-4.8h-11.7v6.7h-1.5V147h14.7v6.7C262.5,154.5,262.1,154.9,261.3,154.9z M250.3,146V142h9.6    v3.9H250.3z M252.6,153.1v0.8h-1.3v-4.6h7.6v3.8H252.6z M258.7,143.2h-7.1v1.6h7.1V143.2z M252.6,151.9h5v-1.4h-5V151.9z"/>
		<path class="st2" d="M269.8,155h-1.5v-8.1c-0.4,1.1-1.1,2.3-2,3.5l-1-1.3c1.6-2,2.6-4,3-6.1h-2.6v-1.4h2.7v-3.6h1.4    c0.4,0,0.4,0.2,0.1,0.4v3.2h1.9v1.4h-1.9v2.6c1.2,0.8,2.1,1.6,2.6,2.3l-1,1.4c-0.5-0.7-1-1.3-1.6-1.9V155z M271.9,155.1l-0.7-1.6    c2.1-0.8,3.7-1.7,4.8-2.8c-0.6-0.8-1.3-1.8-1.9-3l1.2-0.8c0.6,1.1,1.2,2,1.6,2.5c0.3-0.3,0.8-1.4,1.4-3.1l1.6,0.8    c0.3,0.1,0.2,0.3-0.3,0.4c-0.4,1.1-1,2.1-1.6,3c1,0.8,2.6,1.7,4.7,2.5l-0.9,1.6c-2.3-1-3.8-2-4.7-2.9    C276.2,152.8,274.5,153.9,271.9,155.1z M276.3,144.5c0.4,0.3,0.3,0.4-0.3,0.4c-0.8,0.8-1.9,1.6-3.3,2.4l-1-1.4    c1.3-0.6,2.4-1.4,3.4-2.5L276.3,144.5z M272.8,142.5v-1.4h3.6v-3.1h1.4c0.4,0,0.4,0.2,0.1,0.4v2.7h4.2v1.4H272.8z M278.9,143.2    c1.6,0.9,2.7,1.7,3.5,2.4l-1,1.3c-0.8-0.7-1.9-1.5-3.3-2.4L278.9,143.2z"/>
		<path class="st2" d="M289.4,141.9h3.4v-3.7h1.4c0.4,0,0.4,0.2,0.1,0.4v3.3h6.1v1.4h-6.1v3.4h5.2v1.4h-5.2v4.4h7.1v1.4h-16.3v-1.4    h7.7v-4.4h-5v-1.4h5v-3.4H289c-0.6,1.5-1.5,2.9-2.7,4.1l-1.1-1.2c1.8-1.7,2.8-4,3.2-6.8l1.6,0.4c0.3,0.1,0.3,0.2-0.1,0.4    C289.8,140.4,289.7,141,289.4,141.9z"/>
		<path class="st2" d="M306.4,142.1v12.5H305v-13.9h5.3l1.1-2.7l1.8,0.7c0.2,0.2,0.1,0.3-0.2,0.4l-1.1,1.7h7.6v12.8    c0,0.8-0.4,1.2-1.2,1.2h-2.2l-0.1-1.6h1.7c0.2,0,0.3-0.1,0.3-0.3v-10.6H306.4z M314.2,151.3v-0.9h-3.9v1.3h-1.5v-7.3h6.9v6.8    H314.2z M310.2,145.9v3.1h3.9v-3.1H310.2z"/>
		<path class="st2" d="M325.4,139.6l1.4,0.4c0.6,0.1,0.7,0.4,0.1,0.7c-0.4,2.1-0.7,4.3-0.7,6.5c0,1.8,0.2,3.7,0.6,5.6l-1.6,0.3    c-0.3-1.8-0.5-3.8-0.5-5.9C324.6,144.2,324.9,141.7,325.4,139.6z M335.7,147.3c0,2.9-0.8,5.3-2.5,7.4l-1.6-0.9    c1.7-2,2.6-4.3,2.6-6.8v-2.1c-1.9,0.1-3.7,0.2-5.3,0.2v-1.6c1.7,0,3.5,0,5.3-0.1v-4.5h1.3c0.4,0.1,0.5,0.3,0.1,0.6v3.9    c1.2-0.1,2.4-0.2,3.5-0.4l0.2,1.6c-1.3,0.1-2.5,0.3-3.7,0.4V147.3z"/>
		<path class="st2" d="M343.2,153.9c-0.1-2.6-0.2-4.8-0.2-6.6c0-2.2,0.3-4.9,0.8-7.9l1.5,0.4c0.5,0.1,0.6,0.3,0.1,0.7    c-0.5,2.9-0.7,5.2-0.7,6.9c0,1.9,0.1,4.1,0.3,6.5L343.2,153.9z M353.8,152.5c-2.3,0-4.3-0.7-5.8-2.2l1-1.3    c1.3,1.3,2.9,1.9,4.8,1.9h4.1v1.6H353.8z M356.9,142.9c-2.1,0-4.9,0.1-8.3,0.4v-1.6c3.6-0.3,6.3-0.5,8.3-0.4V142.9z"/>
	</g>
	<g class="st1">
		<path class="st2" d="M37.8,177.4c3.2-2,5.6-4.5,7.4-7.3h-7v-1.6h7.9v-4.1h1.6c0.4,0.1,0.5,0.3,0.1,0.6v3.5h6.2v1.6h-6.2v8.7    c0,1.2-0.6,1.8-1.7,1.8h-2.1l-0.3-1.6h1.5c0.6-0.1,0.9-0.4,0.9-1v-6.2c-1.9,2.8-4.2,5.1-6.8,7L37.8,177.4z"/>
		<path class="st2" d="M56.9,173.3v-1.6h16.6v1.6H56.9z"/>
		<path class="st2" d="M77.9,168.3v-1.6h11l1.9,1.4c-0.2,6-3.6,9.9-10.2,11.7l-1.3-1.6c6.2-1.4,9.4-4.7,9.7-9.9H77.9z M89.7,166.8    c-0.4-0.4-0.6-0.9-0.6-1.5s0.2-1.1,0.6-1.5c0.4-0.4,0.9-0.6,1.5-0.6s1.1,0.2,1.5,0.6c0.4,0.4,0.6,0.9,0.6,1.5s-0.2,1.1-0.6,1.5    c-0.4,0.4-0.9,0.6-1.5,0.6S90.1,167.2,89.7,166.8z M92.2,166.2c0.2-0.2,0.4-0.6,0.4-1c0-0.4-0.1-0.7-0.4-1c-0.2-0.2-0.6-0.4-1-0.4    c-0.4,0-0.7,0.1-1,0.4c-0.2,0.2-0.4,0.6-0.4,1c0,0.4,0.1,0.7,0.4,1c0.2,0.2,0.6,0.4,1,0.4C91.6,166.6,91.9,166.5,92.2,166.2z"/>
		<path class="st2" d="M111.4,170.8c-2.6,5.4-7,8.3-13.2,8.6c-0.2,0.6-0.5,0.7-0.7,0.1l-0.6-1.9c6.4-0.1,10.8-2.8,13-7.9    L111.4,170.8z M97.1,167.7l1.3-1.6c1,0.6,2.3,1.7,3.9,3.2l-1.4,1.4C99.6,169.5,98.3,168.5,97.1,167.7z"/>
		<path class="st2" d="M130.6,173.6l-6.9,0.7l1.4,6l-1.6,0.4l-1.4-6.2l-7.6,0.9l-0.2-1.6l7.4-0.8l-0.7-3.5l-5,0.6l-0.3-1.6l4.9-0.5    l-0.7-3.4l1.6-0.3c0.4,0,0.5,0.1,0.2,0.5l0.6,3l5.4-0.7l0.3,1.6l-5.3,0.7l0.7,3.5l7-0.8L130.6,173.6z"/>
		<path class="st2" d="M140.3,171.4l6.1-1.5l0.4-0.2l1.2,1.2c0.2,0.2,0.1,0.3-0.2,0.4c-0.9,1.4-1.8,2.8-2.8,4.2l-1.3-0.8    c0.8-1,1.5-2.1,2.2-3.3l-5.1,1.3l2.5,7.5l-1.5,0.5l-2.4-7.7l-4.3,1.2l-0.5-1.5l4.3-1l-1.2-3.6l1.6-0.3c0.4,0,0.5,0.2,0.2,0.5    L140.3,171.4z"/>
		<path class="st2" d="M168.4,170.8c-2.6,5.4-7,8.3-13.2,8.6c-0.2,0.6-0.5,0.7-0.7,0.1l-0.6-1.9c6.4-0.1,10.8-2.8,13-7.9    L168.4,170.8z M154.1,167.7l1.3-1.6c1,0.6,2.3,1.7,3.9,3.2l-1.4,1.4C156.6,169.5,155.3,168.5,154.1,167.7z"/>
		<path class="st2" d="M176.8,169.5c0.4,0.2,0.3,0.5-0.1,0.7c-0.9,3.1-2.3,6-4.3,8.5l-1.7-1.1c2.2-2.6,3.6-5.6,4.4-8.9L176.8,169.5z     M182.5,167.8c2.5,3.1,4.2,6.4,5.3,9.9l-2,0.7c-1.2-3.9-2.8-7-4.8-9.4L182.5,167.8z M184,167.6c-0.4-0.4-0.6-0.9-0.6-1.5    s0.2-1.1,0.6-1.5c0.4-0.4,0.9-0.6,1.5-0.6s1.1,0.2,1.5,0.6c0.4,0.4,0.6,0.9,0.6,1.5s-0.2,1.1-0.6,1.5c-0.4,0.4-0.9,0.6-1.5,0.6    S184.4,168,184,167.6z M186.4,167.1c0.2-0.2,0.4-0.6,0.4-1c0-0.4-0.1-0.7-0.4-1c-0.2-0.2-0.6-0.4-1-0.4c-0.4,0-0.7,0.1-1,0.4    c-0.2,0.2-0.4,0.6-0.4,1c0,0.4,0.1,0.7,0.4,1c0.2,0.2,0.6,0.4,1,0.4C185.9,167.4,186.2,167.3,186.4,167.1z"/>
		<path class="st2" d="M205.7,178.3l-1.5,1.3c-2.1-2.2-4.1-4-6-5.5c-1.9,2.1-4.1,3.9-6.6,5.6l-1.4-1.3c5.2-3.4,8.6-6.8,10.1-10.2    l-8.1,0.5l-0.2-1.8l8.6-0.4l0.9-0.2l1.2,1.2c0.3,0.3,0.2,0.6-0.3,0.7c-0.9,1.6-1.9,3.1-3,4.5C201.5,174.3,203.6,176.1,205.7,178.3    z"/>
		<path class="st2" d="M217.9,179c-0.5,0.5-1.1,0.7-1.7,0.7c-0.9,0-1.9-0.5-2.8-1.6l1-1.3c0.8,0.8,1.4,1.2,1.8,1.2    c0.2,0,0.5-0.1,0.7-0.3c0.5-0.5,0.8-2.1,0.8-4.5c0-1.4-0.1-2.2-0.4-2.5c-0.1-0.1-0.4-0.2-0.9-0.2s-1.1,0-1.9,0.1    c-1,3.7-2.3,6.8-3.7,9.4l-1.7-0.6c1.4-2.2,2.7-5.1,3.8-8.7c-1.1,0.1-2.2,0.3-3.2,0.4l-0.1-1.6c0.9,0,2.1-0.1,3.7-0.2    c0.4-1.5,0.8-3.1,1.1-4.7l1.6,0.5c0.6,0.2,0.6,0.5-0.1,0.7c-0.3,1-0.6,2.2-0.9,3.3c0.6-0.1,1.2-0.1,1.9-0.1c0.7,0,1.2,0.2,1.6,0.5    c0.6,0.6,0.9,1.9,0.9,4C219.2,176.3,218.7,178.2,217.9,179z M221.4,167.5c2,2.1,3.4,4.6,4.2,7.5l-1.6,0.7    c-0.9-3.2-2.2-5.6-3.9-7.2L221.4,167.5z M223.8,168.4c-1.1-0.9-2.1-1.7-2.9-2.2l0.9-0.9c0.9,0.5,1.9,1.2,3,2.1L223.8,168.4z     M223.3,163.6c0.9,0.5,1.9,1.2,3,2.1l-0.9,0.9c-1.1-0.8-2.1-1.5-3-2.1L223.3,163.6z"/>
		<path class="st2" d="M235.2,170.6H230V181h-1.5v-16.6h6.7V170.6z M233.7,165.6H230v1.3h3.7V165.6z M230,169.4h3.7v-1.3H230V169.4z     M231,176v-1.2h3V173h-2.4v-1.2h9.4v1.2H239v1.8h2.5v1.2H239v4.5h-1.5V176h-2c0.1,2.2-1,3.8-3.3,4.8l-0.7-1.4    c1.7-0.6,2.6-1.8,2.6-3.4H231z M237.5,174.8V173h-2v1.8H237.5z M237.2,164.5h7v15.1c0,0.8-0.4,1.2-1.2,1.2h-1.8l-0.2-1.4h1.4    c0.2,0,0.3-0.1,0.3-0.3v-8.5h-2.7h-2.7V164.5z M242.7,167v-1.3h-4v1.3H242.7z M238.7,169.4h4v-1.3h-4V169.4z"/>
		<path class="st2" d="M246.3,172.1c1.9-2.2,3.1-4.8,3.6-8l1.5,0.4c0.4,0.1,0.4,0.3,0,0.5c-0.4,1.5-0.8,2.8-1.2,3.9l0.4,0.1    c0.1,0,0.1,0.2-0.1,0.4v11.7h-1.5v-9.8c-0.6,1.1-1.2,2-1.6,2.4L246.3,172.1z M250.6,173.1c1.6-1.2,2.8-2.8,3.5-4.8h-0.4v0.4h-1.5    v-3.5h1.4c0.4,0,0.4,0.2,0.1,0.4v1.5h2.9v-3h1.4c0.4,0,0.4,0.2,0.1,0.4v2.5h3.1v-1.9h1.4c0.4,0,0.4,0.2,0.1,0.4v3h-1.5v-0.3h-3    l1.2,0.6c0.2,0.2,0.1,0.3-0.2,0.4l-0.9,1.4h4.8v1.2h-4.3v1.7h3.6v1.2h-3.6v1.7h3.6v1.2h-3.6v1.7h4.8v1.2h-9.1v0.5H253v-8.2    c-0.6,0.7-1.2,1.2-1.7,1.6L250.6,173.1z M254.3,168.2l1.3,0.5c0.2,0.2,0.1,0.3-0.2,0.4c-0.4,0.8-0.6,1.3-0.7,1.5h2.3l1-2.4H254.3z     M254.5,173.5h3v-1.7h-3V173.5z M254.5,176.4h3v-1.7h-3V176.4z M254.5,179.3h3v-1.7h-3V179.3z"/>
		<path class="st2" d="M268.4,169.7l-0.4-1.5c2.4,0,4.4,0,5.9-0.1c-0.5-1.4-0.8-2.7-1-3.9h1.6c0.4,0.1,0.5,0.3,0.1,0.6    c0.2,0.9,0.5,2,0.9,3.1c1.7-0.1,3.2-0.4,4.5-0.7l0.4,1.6c-1.4,0.2-2.8,0.3-4.2,0.4c1,1.9,2.5,3.5,4.5,4.9l-1.1,1.3    c-1.8-0.8-3.6-1.3-5.4-1.3c-1.6,0-2.8,0.3-3.4,1c-0.3,0.3-0.4,0.7-0.4,1.3c0,0.5,0.2,1,0.7,1.4c0.7,0.7,2.3,1,4.9,1h2.6l-0.4,1.6    h-2.8c-2.6,0-4.4-0.5-5.4-1.6c-0.7-0.7-1.1-1.6-1.1-2.5c0-0.9,0.3-1.7,0.8-2.2c0.9-0.9,2.3-1.3,4.2-1.3c1.9,0,3,0.1,3.3,0.3    c-1.2-1.5-2-2.7-2.4-3.8C272.4,169.7,270.4,169.7,268.4,169.7z"/>
		<path class="st2" d="M295.3,169.5c-0.8,0-2.5,1.2-4.9,3.6v7.4h-1.5v-6.1l-3.3,4.1l-1.2-1.2l3-3.5c0.5-0.7,1-1.4,1.5-2.2v-1.8    l-3.3,1.1l-0.4-1.6l3.7-1v-4.4h1.3c0.4,0.1,0.5,0.3,0.1,0.6v3.3l0.8,0.4c0.4,0.2,0.4,0.4-0.1,0.7l-0.7,1.4v0.5    c2.3-2.2,4.1-3.3,5.3-3.3c1.5,0,2.2,1,2,3l-0.4,5.7c0,0.8,0.2,1.2,0.9,1.2c0.6,0,1.1-0.2,1.4-0.5c0.4-0.5,0.8-1.2,1.1-1.9l1.3,1    c-0.5,0.9-1,1.6-1.4,2.1c-0.6,0.6-1.4,1-2.2,1c-1.8,0-2.7-0.9-2.6-2.8l0.4-5.6C296.2,170,295.9,169.5,295.3,169.5z"/>
		<path class="st2" d="M313.4,175.4c2,0.4,4,1.1,5.9,2.1l-0.8,1.6c-1.8-1.1-3.5-1.9-5.1-2.3c0,1.3-0.3,2.3-1,2.9    c-0.6,0.6-1.6,0.9-2.9,0.9c-1,0-1.9-0.3-2.5-1c-0.4-0.4-0.7-1.1-0.7-1.9c0-0.7,0.2-1.3,0.7-1.8c0.6-0.6,1.6-1,3-1    c0.4,0,1,0,1.9,0.1v-2.3l-5.6,0.1v-1.5l5.6-0.1v-2.6l-7,0.2v-1.5l7-0.2v-2.9h1.3c0.5,0.1,0.6,0.3,0.1,0.6v2.2l6.1-0.2v1.5    l-6.1,0.2v2.7l4.8-0.1v1.5l-4.8,0.1V175.4z M310.2,176.3c-1,0-1.7,0.2-2.1,0.6c-0.2,0.2-0.4,0.6-0.4,1c0,0.3,0.1,0.6,0.4,0.8    c0.3,0.3,0.9,0.5,1.6,0.5c0.6,0,1.1-0.2,1.5-0.6c0.4-0.4,0.6-1.2,0.6-2.2C311.3,176.4,310.8,176.3,310.2,176.3z"/>
		<path class="st2" d="M329.4,176c-0.8,0-1.5-0.2-1.9-0.7c-0.6-0.6-0.9-1.3-0.9-2c0-0.8,0.3-1.5,0.9-2.1s1.3-0.9,2.2-0.9    c0.6,0,1.2,0.1,1.7,0.2V169l-8.2,0.5l-0.3-1.6l8.5-0.4v-3.5h1.3c0.5,0.1,0.6,0.3,0.1,0.6v2.8l6.3-0.4v1.6l-6.3,0.3v2.8    c0.2,0.9,0.3,1.9,0.3,3c0,2.5-1.5,4.7-4.2,6.4l-1.4-1c2.5-1.4,3.7-2.9,3.7-4.5C330.6,175.9,330,176,329.4,176z M328.5,172.2    c-0.3,0.3-0.4,0.7-0.4,1.2c0,0.4,0.1,0.8,0.4,1c0.2,0.2,0.6,0.4,1.2,0.4c0.5,0,1-0.2,1.3-0.5c0.3-0.3,0.4-0.7,0.4-1.1    s-0.1-0.8-0.4-1.1c-0.2-0.2-0.6-0.4-1.1-0.4C329.3,171.7,328.8,171.8,328.5,172.2z"/>
	</g>
	<g class="st1">
		<path class="st2" d="M347.8,178.4c0,0.7-0.2,1.4-0.7,1.9c-0.5,0.5-1.1,0.7-1.9,0.7s-1.4-0.2-1.9-0.7c-0.5-0.5-0.7-1.1-0.7-1.9    s0.2-1.4,0.7-1.9c0.5-0.5,1.1-0.7,1.9-0.7s1.4,0.2,1.9,0.7C347.5,177,347.8,177.7,347.8,178.4z M346.9,178.4    c0-0.4-0.2-0.8-0.5-1.2c-0.3-0.3-0.7-0.5-1.2-0.5s-0.8,0.2-1.2,0.5c-0.3,0.3-0.5,0.7-0.5,1.2s0.2,0.8,0.5,1.2    c0.3,0.3,0.7,0.5,1.2,0.5s0.8-0.2,1.2-0.5C346.7,179.3,346.9,178.9,346.9,178.4z"/>
	</g>
	<g class="st1">
		<path class="st2" d="M44.4,205c-1.5,0-2.6-0.3-3.2-0.9s-0.9-1.4-0.9-2.4c0-0.5,0.1-1.2,0.3-1.9l1.7,0.2c-0.2,0.8-0.4,1.4-0.4,1.7    c0,0.4,0.1,0.8,0.4,1.1c0.3,0.3,1,0.5,2.1,0.5h8.1v1.6H44.4z M41.4,192.5H51v1.6h-9.6V192.5z"/>
		<path class="st2" d="M63.4,205c-1.5,0-2.6-0.3-3.2-0.9s-0.9-1.4-0.9-2.4c0-0.5,0.1-1.2,0.3-1.9l1.7,0.2c-0.2,0.8-0.4,1.4-0.4,1.7    c0,0.4,0.1,0.8,0.4,1.1c0.3,0.3,1,0.5,2.1,0.5h8.1v1.6H63.4z M60.4,192.5H70v1.6h-9.6V192.5z"/>
		<path class="st2" d="M91.5,193.7c-1.7,0-3.1,0.2-4.1,0.5c-1.1,0.4-2.1,1.1-3,2c-0.9,0.9-1.4,2.2-1.4,3.6c0,1.2,0.4,2.2,1.1,2.9    c1,1,2.9,1.5,5.7,1.6l-0.6,1.6c-2.9-0.1-4.9-0.8-6.1-1.9c-1.1-1.1-1.7-2.5-1.7-4.2c0-2.3,0.9-4.2,2.7-5.5c-2.3,0.3-4.7,0.7-7.1,1    l-0.4-1.7c4.8-0.3,9.7-0.9,14.6-1.8L91.5,193.7z M87,197.7l0.7-0.9c0.7,0.4,1.7,1.1,2.8,1.9l-0.7,0.9    C88.8,198.7,87.8,198.1,87,197.7z M88.5,195.9l0.7-0.9c0.7,0.4,1.6,1,2.8,1.9l-0.7,0.9C90.2,196.9,89.2,196.3,88.5,195.9z"/>
		<path class="st2" d="M96.2,205.8c-0.2-1.4-0.3-3-0.3-4.8c0-4,0.3-7.2,0.9-9.6l1.6,0.3c0.3,0.1,0.3,0.3-0.1,0.5    c-0.5,1.7-0.8,4.7-0.8,8.8c0,1.9,0.1,3.4,0.4,4.5L96.2,205.8z M107.4,195.9c0.1,1.9,0.1,3.8,0,5.6c1.5,0.5,2.9,1.3,4.3,2.3    l-0.9,1.4c-1-0.8-2.2-1.5-3.4-2.1c0,0.9-0.3,1.6-0.8,2.2c-0.6,0.6-1.5,0.9-2.6,0.9c-1.1,0-2-0.3-2.6-0.9c-0.5-0.5-0.7-1.1-0.7-1.9    c0-0.7,0.2-1.2,0.6-1.6c0.6-0.6,1.5-0.9,2.7-0.9c0.6,0,1.3,0.1,1.9,0.2c0.1-1.7,0.1-3.4,0-5.1l-5.5,0.4v-1.6l5.3-0.3    c0-1.4-0.1-2.6-0.3-3.7h1.6c0.5,0.1,0.6,0.3,0.1,0.6c0,1,0.1,2.1,0.1,3l4-0.2v1.6L107.4,195.9z M103.9,202.2    c-0.7,0-1.2,0.1-1.5,0.4c-0.2,0.2-0.4,0.5-0.4,0.7c0,0.4,0.1,0.7,0.3,0.9c0.3,0.3,0.9,0.5,1.6,0.5c0.7,0,1.2-0.2,1.5-0.5    c0.3-0.4,0.5-1,0.4-1.7C105,202.3,104.3,202.2,103.9,202.2z"/>
		<path class="st2" d="M118,193.4l-0.3-1.6c3.4-0.1,5.6-0.4,6.5-0.7l0.7-0.3l1.3,1.4c0.3,0.2,0.2,0.4-0.3,0.5c-2,1.5-4,3.1-6,4.7    c3.1-0.4,6.3-0.7,9.8-1v1.6l-2.8,0.2c-1.9,0.1-3.5,0.8-4.6,1.9c-0.6,0.6-0.9,1.3-0.9,2.2c0,0.7,0.2,1.3,0.7,1.7    c0.7,0.7,2.3,1.1,4.7,1.2l-0.7,1.9c-2.5-0.2-4.3-0.8-5.3-1.8c-0.7-0.7-1.1-1.6-1.1-2.7c0-1.2,0.4-2.2,1.1-3    c0.4-0.4,0.9-0.8,1.5-1.2c-2.7,0.3-5.1,0.7-7.3,1.1l-0.4-1.6c1-0.1,2.1-0.3,3-0.4c1.3-0.9,3.2-2.5,5.6-4.8    C121.5,193,119.8,193.2,118,193.4z"/>
		<path class="st2" d="M138.9,204.1c-0.6,0.6-1.3,1-2,1c-0.8,0-1.4-0.2-1.9-0.7c-1.2-1.2-1.8-2.7-1.8-4.5c0-2.2,0.8-4,2.3-5.6    c1.7-1.7,3.7-2.5,6.2-2.5c2.2,0,3.9,0.6,5.1,1.9c1.4,1.4,2.1,3,2.1,4.9c0,2-0.6,3.7-1.9,5c-0.8,0.8-2.1,1.7-3.9,2.4l-1.6-1.6    c1.7-0.5,3.1-1.3,4.1-2.3c0.9-0.9,1.4-2.1,1.4-3.4c0-1.6-0.5-2.9-1.6-3.9s-2.7-1.5-4.9-1.4l1.3,0.7c0.6,0.2,0.6,0.5,0,0.8    C141.1,199.9,140.1,202.9,138.9,204.1z M136.9,195.4c-1.3,1.3-1.9,2.9-1.9,4.8c0,1.1,0.4,2.1,1.1,2.8c0.1,0.1,0.4,0.2,0.7,0.2    s0.6-0.2,1-0.5c1.1-1.1,2-4.2,2.5-9.1C139,193.8,137.9,194.4,136.9,195.4z"/>
		<path class="st2" d="M167.9,197.2v1.6h-15.7v-1.6H167.9z"/>
		<path class="st2" d="M175,190h1.6c0.5,0.1,0.5,0.3,0.1,0.6v1.6h3.5v1.4h-1l-1,3.1h2.8v1.4h-10.2v-1.4h2.8l-0.9-3.1h-1v-1.4h3.3    V190z M172.2,199.5h7.1v6.8h-1.5v-0.8h-4.1v1.2h-1.5V199.5z M173.7,200.9v3.1h4.1v-3.1H173.7z M177.4,193.6h-3l0.7,3.1h1.4    L177.4,193.6z M184.2,204.6l-0.3-1.6h1.2c0.7,0,1-0.6,0.8-1.7c-0.2-1.4-0.8-2.6-1.9-3.6l1.3-5h-2.4v14.4h-1.5v-15.8h4.4l0.1-0.2    l1.3,1.1l-0.3,0.2l-1.6,5c1.5,1.6,2.2,3.1,2.2,4.4c0,1.9-0.7,2.9-2,2.9H184.2z"/>
		<path class="st2" d="M198.1,196.5c0.6,0,1.2,0.2,1.6,0.6c0.3,0.3,0.5,0.8,0.5,1.6c1.5-0.5,3.2-1.1,5-1.7l0.5,1.8    c-1.9,0.3-3.7,0.8-5.4,1.4v3.3h-1.5v-2.7c-1.5,0.7-2.4,1.3-2.9,1.7c-0.5,0.5-0.8,1.1-0.8,1.6c0,0.3,0.1,0.6,0.4,0.9    c0.3,0.3,1,0.5,2,0.5h6.2v1.4h-6.3c-1.6,0-2.7-0.3-3.3-1c-0.5-0.5-0.7-1.1-0.7-1.9c0-0.8,0.3-1.5,1-2.2c1-1,2.4-1.9,4.4-2.7    c0-0.6-0.2-1-0.4-1.2c-0.2-0.2-0.6-0.3-1.3-0.3c-1,0-2.5,0.9-4.5,2.7l-1.3-1.3c2.3-1.4,3.9-3,4.8-4.8c-1.4,0.1-2.8,0.2-4.2,0.3    l-0.3-1.5c1.8,0,3.5-0.1,5-0.2c0.2-0.6,0.5-1.6,0.9-3l1.4,0.4c0.5,0.2,0.5,0.4,0,0.6c-0.2,0.6-0.4,1.3-0.7,1.9    c1.8-0.1,3.5-0.3,5.1-0.6l0.2,1.6c-1.9,0.1-3.9,0.3-5.8,0.4c-0.5,1-1,1.8-1.5,2.4C197,196.6,197.6,196.5,198.1,196.5z"/>
		<path class="st2" d="M209.7,193c0.2,0.1,0.4,0.3,0.6,0.4l2.6-3.3l1.2,0.8c0.2,0.2,0.2,0.3-0.1,0.3l-2.5,3.1    c0.4,0.2,0.8,0.5,1.1,0.8l2.2-2.9l1.1,0.8c0.3,0.2,0.2,0.3-0.1,0.3l-4,4.8l2.8-0.2c-0.2-0.4-0.4-0.8-0.6-1.3l1.2-0.4    c0.7,0.9,1.2,2,1.6,3.3l-1.4,0.6c-0.1-0.3-0.2-0.6-0.4-1l-1.4,0.2v7.8h-1.5v-7.6l-2.7,0.2c0,0.3-0.2,0.4-0.4,0.2l-0.4-1.7h1.3    l1.6-1.9c-1-0.9-1.9-1.6-2.6-2.1L209.7,193z M210.2,205.5l-1.3-0.7c0.5-1.3,0.7-2.8,0.7-4.3l1.6,0.2c0.2,0.2,0.1,0.3-0.2,0.4    C211.1,202.7,210.8,204.2,210.2,205.5z M215.7,200.5c0.6,1,1,2.2,1.3,3.6l-1.5,0.4c-0.2-1.1-0.6-2.3-1.1-3.6L215.7,200.5z     M216.5,197.4c2-0.8,3-2.4,3-5h-2.6V191h8.4l-0.5,5.8c-0.1,0.9-0.5,1.3-1.3,1.3h-1.9v-1.4h1.3c0.2,0,0.4-0.2,0.4-0.6l0.4-3.7h-2.7    c0,3.5-1.3,5.6-3.9,6.4L216.5,197.4z M219.2,205.8v1.1h-1.5v-7.5h7.4v7.2h-1.5v-0.8H219.2z M223.6,200.6h-4.5v4h4.5V200.6z"/>
		<path class="st2" d="M244,198.4c-3.5-1.1-6.1-3.2-7.9-6.2c-1.9,3-4.4,5.2-7.6,6.6l-0.8-1.8c3.7-1.4,6.3-3.7,7.9-6.9l1.7,0.4    c0.1,0,0.1,0.2-0.1,0.4c1.4,2.6,3.9,4.5,7.5,5.6L244,198.4z M232.7,196.8h1.6c0.5,0.1,0.5,0.3,0.1,0.6v3c0,2-0.3,3.5-1,4.4    c-0.7,0.9-1.9,1.7-3.5,2.3l-1-1.6c1.3-0.4,2.3-0.9,2.9-1.6c0.6-0.6,0.9-1.8,0.9-3.5V196.8z M238.1,196.6h1.6    c0.5,0.1,0.5,0.3,0.1,0.6v9.7h-1.7V196.6z"/>
		<path class="st2" d="M255.6,206.2c-1.8,0-3.1-0.4-3.9-1.3c-0.6-0.6-1-1.9-1-3.7v-9.9h1.6c0.4,0.1,0.5,0.3,0.1,0.6v9.4    c0,1.2,0.2,2.1,0.7,2.5c0.5,0.5,1.4,0.8,2.4,0.8c1.9,0,3.9-1.1,5.9-3.3l1.1,1.4C260.4,205,258.1,206.2,255.6,206.2z"/>
		<path class="st2" d="M275.4,201.4c2,0.4,4,1.1,5.9,2.1l-0.8,1.6c-1.8-1.1-3.5-1.9-5.1-2.3c0,1.3-0.3,2.3-1,2.9    c-0.6,0.6-1.6,0.9-2.9,0.9c-1,0-1.9-0.3-2.5-1c-0.4-0.4-0.7-1.1-0.7-1.9c0-0.7,0.2-1.3,0.7-1.8c0.6-0.6,1.6-1,3-1    c0.4,0,1,0,1.9,0.1v-2.3l-5.6,0.1v-1.5l5.6-0.1v-2.6l-7,0.2v-1.5l7-0.2v-2.9h1.3c0.5,0.1,0.6,0.3,0.1,0.6v2.2l6.1-0.2v1.5    l-6.1,0.2v2.7l4.8-0.1v1.5l-4.8,0.1V201.4z M272.2,202.3c-1,0-1.7,0.2-2.1,0.6c-0.2,0.2-0.4,0.6-0.4,1c0,0.3,0.1,0.6,0.4,0.8    c0.3,0.3,0.9,0.5,1.6,0.5c0.6,0,1.1-0.2,1.5-0.6c0.4-0.4,0.6-1.2,0.6-2.2C273.3,202.4,272.8,202.3,272.2,202.3z"/>
		<path class="st2" d="M291.4,202c-0.8,0-1.5-0.2-1.9-0.7c-0.6-0.6-0.9-1.3-0.9-2c0-0.8,0.3-1.5,0.9-2.1s1.3-0.9,2.2-0.9    c0.6,0,1.2,0.1,1.7,0.2V195l-8.2,0.5l-0.3-1.6l8.5-0.4v-3.5h1.3c0.5,0.1,0.6,0.3,0.1,0.6v2.8l6.3-0.4v1.6l-6.3,0.3v2.8    c0.2,0.9,0.3,1.9,0.3,3c0,2.5-1.5,4.7-4.2,6.4l-1.4-1c2.5-1.4,3.7-2.9,3.7-4.5C292.6,201.9,292,202,291.4,202z M290.5,198.2    c-0.3,0.3-0.4,0.7-0.4,1.2c0,0.4,0.1,0.8,0.4,1c0.2,0.2,0.6,0.4,1.2,0.4c0.5,0,1-0.2,1.3-0.5c0.3-0.3,0.4-0.7,0.4-1.1    s-0.1-0.8-0.4-1.1c-0.2-0.2-0.6-0.4-1.1-0.4C291.3,197.7,290.8,197.8,290.5,198.2z"/>
	</g>
	<g class="st1">
		<path class="st2" d="M309.8,204.4c0,0.7-0.2,1.4-0.7,1.9c-0.5,0.5-1.1,0.7-1.9,0.7s-1.4-0.2-1.9-0.7c-0.5-0.5-0.7-1.1-0.7-1.9    s0.2-1.4,0.7-1.9c0.5-0.5,1.1-0.7,1.9-0.7s1.4,0.2,1.9,0.7C309.5,203,309.8,203.7,309.8,204.4z M308.9,204.4    c0-0.4-0.2-0.8-0.5-1.2c-0.3-0.3-0.7-0.5-1.2-0.5s-0.8,0.2-1.2,0.5c-0.3,0.3-0.5,0.7-0.5,1.2s0.2,0.8,0.5,1.2    c0.3,0.3,0.7,0.5,1.2,0.5s0.8-0.2,1.2-0.5C308.7,205.3,308.9,204.9,308.9,204.4z"/>
	</g>
	<rect y="35.7" class="st3" width="409.7" height="67"/>
	<g>
		<rect x="390.2" y="313.8" class="st4" width="177.2" height="15.2"/>
		<rect x="88.2" y="313.8" class="st4" width="54.8" height="13"/>
		<rect x="411.2" y="272.5" class="st4" width="54.7" height="25.8"/>
		<rect x="487.5" y="175.3" class="st3" width="3" height="21.4"/>
		<polygon class="st4" points="413,348 615,348 616.7,368 413,368   "/>
		<polygon class="st4" points="37,368 139,368 139,348 37,347.5   "/>
		<rect x="107.3" y="359.5" class="st5" width="314.7" height="4"/>
		<rect x="117.8" y="364.3" class="st5" width="295.6" height="4"/>
		<rect x="477.3" y="197.7" class="st5" width="22.3" height="54"/>
		<rect x="409" y="266.3" class="st5" width="4.3" height="94"/>
		<rect x="356.3" y="290.3" class="st5" width="23" height="67.3"/>
		<rect x="379.3" y="290.3" class="st5" width="18.7" height="67.3"/>
		<rect x="349.7" y="253.2" class="st5" width="4.3" height="105.7"/>
		<rect x="330" y="253.2" class="st5" width="4.3" height="105.7"/>
		<rect x="198.5" y="253.2" class="st5" width="4.3" height="105.7"/>
		<rect x="178.9" y="253.2" class="st5" width="4.3" height="105.7"/>
		<rect x="80.3" y="270.3" class="st5" width="7.8" height="98"/>
		<rect x="160" y="289.7" class="st5" width="17" height="68"/>
		<rect x="143" y="293" class="st5" width="15.1" height="64.7"/>
		<rect x="202.6" y="256.9" class="st3" width="127.2" height="104"/>
		<rect x="181" y="252.7" class="st5" width="170.8" height="20.7"/>
		<rect x="223.8" y="288.2" class="st4" width="86.2" height="33.2"/>
		<rect x="236.1" y="292.3" class="st3" width="60.7" height="21.5"/>
		<rect x="257.2" y="292.5" class="st5" width="2.2" height="21"/>
		<rect x="271.5" y="292.3" class="st5" width="2.2" height="21"/>
		<rect x="482.1" y="203.6" class="st3" width="12.7" height="12.7"/>
		<rect x="481" y="219" class="st4" width="16" height="12"/>
		<rect x="469.4" y="273.3" class="st3" width="41" height="26.2"/>
		<rect x="519.9" y="273.3" class="st3" width="41" height="26.2"/>
		<rect x="569.6" y="273.3" class="st3" width="41" height="26.2"/>
		<g>
			<polygon class="st4" points="477,273 503,273 503,292 502,292 502,286 478,286.3 478,292    "/>
			<polygon class="st4" points="477,273 477,292 478,292 478,286    "/>
		</g>
		<g>
			<polygon class="st4" points="527,273 553,273 553,292 552,292 552,286 528,286.3 528,292    "/>
			<polygon class="st4" points="527,273 527,292 528,292 528,286    "/>
		</g>
		<g>
			<polygon class="st4" points="577,273 603,273 603,292 602,292 602,286 578,286.3 578,292    "/>
			<polygon class="st4" points="577,273 577,292 578,292 578,286    "/>
		</g>
		<rect x="33.2" y="270.3" class="st5" width="7.8" height="97.4"/>
		<rect x="110.8" y="271" class="st5" width="6.9" height="91.3"/>
		<rect x="221" y="347" class="st4" width="91" height="12"/>
		<rect x="334.3" y="256.9" class="st4" width="16" height="100.8"/>
		<rect x="182" y="256.9" class="st4" width="16" height="100.8"/>
		<rect x="463.7" y="266.3" class="st5" width="4.3" height="102"/>
		<rect x="512.8" y="266.6" class="st5" width="4.3" height="102"/>
		<rect x="564.2" y="266.6" class="st5" width="4.3" height="102"/>
		<polygon class="st4" points="625.9,262.7 632.7,368 615.1,368 616.3,262.5   "/>
		<path class="st3" d="M181,252.7c0,0,88.4-28.7,168.7,0.5"/>
		<rect x="612.7" y="270.3" class="st5" width="4" height="98"/>
		<polygon class="st5" points="620,272.3 354,272.3 354,252.7 620,252.7 620,263   "/>
		<polygon class="st4" points="26.9,262.7 19.4,367.9 37,368.1 36.4,262.5   "/>
		<rect x="31.9" y="252.7" class="st5" width="148.1" height="20.7"/>
		<rect x="52.4" y="320" class="st4" width="28" height="28"/>
		<polygon class="st4" points="117,273 177.4,273 177.9,293 117,293   "/>
		<polygon class="st3" points="354,273 408.8,273 409.2,293 354,293   "/>
	</g>
	<g class="st1">
		<path class="st5" d="M25.3,70.4c0-3.5,0.5-6.4,1.6-8.8c0.8-1.8,1.8-3.3,3.2-4.7s2.8-2.4,4.4-3.1c2.1-0.9,4.6-1.4,7.4-1.4    c5.1,0,9.1,1.6,12.2,4.7s4.6,7.5,4.6,13.1c0,5.5-1.5,9.9-4.5,13s-7,4.7-12.1,4.7c-5.1,0-9.2-1.6-12.2-4.7S25.3,75.8,25.3,70.4z     M32.4,70.1c0,3.9,0.9,6.8,2.7,8.8s4.1,3,6.8,3s5-1,6.8-3s2.7-5,2.7-9c0-3.9-0.9-6.9-2.6-8.8s-4-2.9-6.9-2.9s-5.2,1-6.9,2.9    S32.4,66.2,32.4,70.1z"/>
		<path class="st5" d="M64,87.3V53h11.1c4.2,0,7,0.2,8.2,0.5c2,0.5,3.6,1.6,4.9,3.4s2,4,2,6.7c0,2.1-0.4,3.9-1.1,5.3    s-1.7,2.6-2.9,3.4s-2.4,1.4-3.6,1.6c-1.7,0.3-4.1,0.5-7.2,0.5h-4.5v13H64z M70.9,58.8v9.8h3.8c2.7,0,4.6-0.2,5.5-0.5    s1.6-0.9,2.2-1.7s0.8-1.7,0.8-2.7c0-1.2-0.4-2.3-1.1-3.1s-1.7-1.3-2.8-1.5c-0.8-0.2-2.5-0.2-5-0.2H70.9z"/>
		<path class="st5" d="M96,87.3V53h25.5v5.8h-18.5v7.6h17.2v5.8h-17.2v9.4h19.2v5.8H96z"/>
		<path class="st5" d="M128.1,87.3V53h6.8l14.1,22.9V53h6.4v34.4h-7l-13.9-22.4v22.4H128.1z"/>
		<path class="st5" d="M198,74.7l6.7,2.1c-1,3.8-2.7,6.5-5.1,8.4s-5.4,2.7-9.1,2.7c-4.6,0-8.3-1.6-11.2-4.7s-4.4-7.4-4.4-12.8    c0-5.7,1.5-10.2,4.4-13.3s6.8-4.7,11.6-4.7c4.2,0,7.6,1.2,10.2,3.7c1.6,1.5,2.7,3.6,3.5,6.3l-6.9,1.6c-0.4-1.8-1.3-3.2-2.5-4.2    s-2.9-1.5-4.7-1.5c-2.5,0-4.6,0.9-6.2,2.7s-2.4,4.8-2.4,8.9c0,4.3,0.8,7.4,2.3,9.3s3.6,2.8,6.1,2.8c1.8,0,3.4-0.6,4.8-1.8    S197.4,77.2,198,74.7z"/>
		<path class="st5" d="M241.7,87.3h-7.5l-3-7.8h-13.7l-2.8,7.8h-7.4L220.6,53h7.3L241.7,87.3z M228.9,73.7L224.2,61l-4.6,12.8H228.9    z"/>
		<path class="st5" d="M245.3,87.3V53h10.4l6.2,23.4L268,53h10.4v34.4H272v-27l-6.8,27h-6.7l-6.8-27v27H245.3z"/>
		<path class="st5" d="M285.3,87.3V53h11.1c4.2,0,7,0.2,8.2,0.5c2,0.5,3.6,1.6,4.9,3.4s2,4,2,6.7c0,2.1-0.4,3.9-1.1,5.3    s-1.7,2.6-2.9,3.4s-2.4,1.4-3.6,1.6c-1.7,0.3-4.1,0.5-7.2,0.5h-4.5v13H285.3z M292.3,58.8v9.8h3.8c2.7,0,4.6-0.2,5.5-0.5    s1.6-0.9,2.2-1.7s0.8-1.7,0.8-2.7c0-1.2-0.4-2.3-1.1-3.1s-1.7-1.3-2.8-1.5c-0.8-0.2-2.5-0.2-5-0.2H292.3z"/>
		<path class="st5" d="M317.3,53h6.9v18.6c0,3,0.1,4.9,0.3,5.7c0.3,1.4,1,2.5,2.1,3.4s2.6,1.3,4.6,1.3c2,0,3.5-0.4,4.5-1.2    s1.6-1.8,1.8-3s0.3-3.1,0.3-5.8V53h6.9v18c0,4.1-0.2,7-0.6,8.7s-1.1,3.1-2.1,4.3s-2.4,2.1-4,2.8s-3.9,1-6.6,1    c-3.3,0-5.8-0.4-7.5-1.1c-1.7-0.8-3-1.7-4-3s-1.6-2.5-1.9-3.8c-0.5-2-0.7-4.9-0.7-8.7V53z"/>
		<path class="st5" d="M350.3,76.2l6.8-0.7c0.4,2.3,1.2,3.9,2.5,5s2.9,1.6,5,1.6c2.2,0,3.9-0.5,5.1-1.4s1.7-2.1,1.7-3.3    c0-0.8-0.2-1.5-0.7-2.1s-1.3-1.1-2.5-1.5c-0.8-0.3-2.7-0.8-5.6-1.5c-3.7-0.9-6.3-2.1-7.8-3.4c-2.1-1.9-3.2-4.2-3.2-6.9    c0-1.8,0.5-3.4,1.5-4.9s2.4-2.7,4.3-3.5s4.1-1.2,6.8-1.2c4.3,0,7.6,0.9,9.7,2.8s3.3,4.4,3.4,7.6l-6.9,0.3c-0.3-1.8-0.9-3-1.9-3.8    s-2.4-1.2-4.4-1.2c-2,0-3.6,0.4-4.7,1.2c-0.7,0.5-1.1,1.2-1.1,2.1c0,0.8,0.3,1.5,1,2.1c0.9,0.7,3,1.5,6.4,2.3s5.9,1.6,7.5,2.5    s2.9,2,3.8,3.5s1.4,3.3,1.4,5.5c0,2-0.5,3.8-1.6,5.5s-2.6,3-4.6,3.8s-4.5,1.3-7.5,1.3c-4.3,0-7.7-1-10-3S350.7,80,350.3,76.2z"/>
	</g>
	<g>
		<polygon class="st3" points="509.6,152.9 538,97.7 546.8,111.5   "/>
		<polygon class="st3" points="528.4,163.1 586.4,140.9 582.8,155.3   "/>
		<polygon class="st3" points="499.3,147.1 480.2,88.1 494.3,92.4   "/>
		<polygon class="st3" points="531.7,125.6 560.2,70.4 569,84.2   "/>
		<polygon class="st3" points="562.2,158.6 620.2,136.4 616.7,150.8   "/>
		<polygon class="st3" points="495.8,115.9 476.7,56.9 490.7,61.2   "/>
	</g>
</g>
</svg>
