<?xml version="1.0" encoding="utf-8"?>
<!-- Generator: Adobe Illustrator 21.1.0, SVG Export Plug-In . SVG Version: 6.00 Build 0)  -->
<svg version="1.1" id="編集モード" xmlns="http://www.w3.org/2000/svg" xmlns:xlink="http://www.w3.org/1999/xlink" x="0px"
	 y="0px" viewBox="0 0 214 50" style="enable-background:new 0 0 214 50;" xml:space="preserve">
<style type="text/css">
	.st0{clip-path:url(#SVGID_2_);fill:#FFFFFF;}
	.st1{opacity:0.6;clip-path:url(#SVGID_2_);fill:#10A7EE;enable-background:new    ;}
	.st2{opacity:0.6;clip-path:url(#SVGID_2_);fill:#8C10EE;enable-background:new    ;}
	.st3{opacity:0.6;clip-path:url(#SVGID_2_);fill:#10EE3B;enable-background:new    ;}
	.st4{opacity:0.6;clip-path:url(#SVGID_2_);fill:#F2534A;enable-background:new    ;}
	.st5{opacity:0.6;clip-path:url(#SVGID_2_);fill:#EEE110;enable-background:new    ;}
	.st6{opacity:0.5;clip-path:url(#SVGID_2_);enable-background:new    ;}
	.st7{clip-path:url(#SVGID_2_);enable-background:new    ;}
	.st8{fill:#FFFFFF;}
</style>
<g>
	<defs>
		<rect id="SVGID_1_" width="214" height="50"/>
	</defs>
	<clipPath id="SVGID_2_">
		<use xlink:href="#SVGID_1_"  style="overflow:visible;"/>
	</clipPath>
	<rect x="-4.5" y="-4.25" class="st0" width="221.25" height="61.25"/>
	<rect x="128.4" y="-72.81" class="st1" width="42.8" height="123.1"/>
	<rect x="171.2" y="-72.75" class="st2" width="42.8" height="122.91"/>
	<rect x="85.6" y="-72.75" class="st3" width="42.8" height="122.91"/>
	<rect y="-72.75" class="st4" width="42.8" height="122.91"/>
	<rect x="42.8" y="-72.66" class="st5" width="42.8" height="122.91"/>
	<path class="st0" d="M210.6,25c0,9.92-8.05,18-18,18c-9.92,0-18-8.05-18-18s8.05-18,18-18C202.52,7.03,210.6,15.08,210.6,25z
		 M191.43,22.6h-0.06l0,0H191.43L191.43,22.6z M196,34.16c0,0,8.05-2.75,8.02-7.81c0-2.72-1.55-4.01-3.37-4.74
		c-1.61-0.35-4.13-1.02-3.92-1.05c0,0,0.12-2.17,2.58-2.22h0.47l-0.06-0.26c0-0.41,0.18-0.5,0.18-0.5s0-0.18,0.5-0.85
		c0.5-0.67,1.05-1.4,1.05-1.4l-17.8,0.03c0,0,0.61,0.76,1.08,1.32c0.47,0.56,0.5,0.88,0.5,0.88s0.2,0.15,0.2,0.47
		s-0.09,0.32-0.09,0.32h0.47c1.93,0,2.52,2.31,2.52,2.31s-2.02,0.64-3.86,1.02c-1.64,0.76-3.22,2.14-3.25,4.8
		c-0.06,5.33,8.22,7.67,8.22,7.67 M194.27,24.09c0,0.82-0.73,1.46-1.67,1.46c-0.91,0-1.67-0.64-1.67-1.46s0.73-1.46,1.67-1.46
		C193.51,22.63,194.27,23.27,194.27,24.09z"/>
	<path class="st0" d="M167.8,25c0,9.92-8.05,18-18,18s-18-8.05-18-18s8.05-18,18-18S167.8,15.08,167.8,25z M158.84,36.97l-1.9-2.63
		l-0.06-9.45l-5.68-4.74c0,0,0.09-0.7-0.23-1.43c-0.35-0.73-0.82-0.97-0.82-0.97l3.01-8.34l-2.72-1l-3.1,8.31
		c0,0-1.17-0.23-2.31,0.53c-1.14,0.76-1.58,2.4-1.58,2.4v1.38l-0.38,0.5c0.2,0.26,0.5,0.56,0.5,0.56l-0.82,1.08l0.15,0.15
		l-0.03,0.15l0.12,0.12c0,0-0.06,0.09,0.06,0.2c0.12,0.12,0.2,0.06,0.2,0.06l0.15,0.12l0.15-0.03l0.15,0.12l1.08-1.08l-1.23,1.96
		l0.26,0.18l0.03,0.18l0.18,0.12c0,0,0,0.23,0.2,0.35s0.41,0.03,0.41,0.03l0.2,0.09l0.2-0.06l0.26,0.15l1.26-2.02
		c0.29,0.15,0.15,0,0.15,0l0.03,2.72h0.32l0.15,0.18h0.23c0,0,0.12,0.23,0.47,0.23c0.32,0,0.44-0.23,0.44-0.23h0.23l0.18-0.15h0.29
		v-2.4h0.61V23.3l1.26-0.03l1.38,3.07v0.56l-6.82,0.82l6.82-0.53v0.56l-9.1,0.15v0.85l7.67-0.09l0.09,6.79h-1.26l-0.12-3.78h-3.37
		l-0.03,3.78l-3.78,0.06l-0.76,0.88h-1.02v2.02l18.26-0.06L158.84,36.97z M155.8,32.05c0,1.14-0.94,2.08-2.08,2.08
		s-2.08-0.94-2.08-2.08s0.94-2.08,2.08-2.08C154.86,29.95,155.8,30.88,155.8,32.05z M153.72,30.8c-0.7,0-1.26,0.56-1.26,1.26
		c0,0.7,0.56,1.26,1.26,1.26s1.26-0.56,1.26-1.26C154.95,31.35,154.4,30.8,153.72,30.8z"/>
	<path class="st0" d="M82.2,25c0,9.92-8.05,18-18,18s-18-8.05-18-18s8.05-18,18-18S82.2,15.05,82.2,25z M71.93,25.73L71.9,25.7
		l-6.64,2.93l0.03,0.03L71.93,25.73z M71.28,28.28l9.78-4.36c0.06-0.03,0.09-0.09,0.06-0.15l-0.94-2.08
		c-0.03-0.06-0.09-0.09-0.15-0.06l-7.99,3.57L71.28,28.28z M71.99,25.67l-0.03-0.03l8.28-3.66l0.03,0.03L71.99,25.67z M71.75,26.58
		l-0.03-0.03l8.87-3.92l0.03,0.03L71.75,26.58z M71.58,27.28l-0.03-0.03l9.25-4.1l0.03,0.03L71.58,27.28z M71.37,27.96l-0.03-0.03
		l9.69-4.27l0.03,0.03L71.37,27.96z M71.66,26.67l-0.03-0.03l-6.12,2.58l0.03,0.03L71.66,26.67z M71.49,27.37l-0.03-0.03l-5.71,2.43
		l0.03,0.03L71.49,27.37z M71.34,28.01l-0.03-0.03l-5.27,2.31l0.03,0.03L71.34,28.01z M69.79,33.9l4.6-17.8l-17.36-4.48L51.15,34.4
		l12.67,3.28L69.79,33.9z M63.7,37.5l1.29-4.95l4.71,1.23L63.7,37.5z M71.31,18.33l-12.53-3.25l0.06-0.18l12.53,3.25L71.31,18.33z
		 M70.79,20.4l-12.53-3.25l0.06-0.18l12.53,3.25L70.79,20.4z M70.26,22.54l-12.53-3.22l0.06-0.18l12.53,3.25L70.26,22.54z
		 M69.76,24.8l-12.53-3.25l0.06-0.18l12.53,3.25L69.76,24.8z M68.03,26.84l-11.39-2.96l0.03-0.18l11.39,2.96L68.03,26.84z
		 M64.52,28.42l-8.4-2.2l0.03-0.12l8.4,2.2L64.52,28.42z M63.03,30.71l-7.55-1.96l0.06-0.18l7.55,1.96L63.03,30.71z M63.15,30.59
		l0.61-0.76l0.35,0.79L63.15,30.59z M66.04,30.39L66.04,30.39c0.03-0.06,0-0.12-0.06-0.15l-0.23-0.12
		c-0.06-0.03-0.09-0.09-0.06-0.15l0.09-0.2c0.03-0.06,0-0.12-0.06-0.15l-0.2-0.09c-0.06-0.03-0.09-0.09-0.06-0.15l0.06-0.18
		c0.03-0.06,0-0.12-0.06-0.15l-0.2-0.09c-0.06-0.03-0.09-0.09-0.06-0.15l0.06-0.23c0.03-0.06,0-0.12-0.06-0.12l-0.12-0.06
		c-0.09-0.03-0.09-0.15,0-0.2l14.87-6.64c0.06-0.03,0.12,0,0.15,0.06l0.94,2.08c0.03,0.06,0,0.12-0.06,0.15l-14.81,6.61
		C66.1,30.59,65.99,30.47,66.04,30.39z M63.79,29.8L63.79,29.8l1.23-1.43l0.03,0.03L63.79,29.8z M64.11,30.62L64.11,30.62l1.96-0.06
		v0.03L64.11,30.62z M71.28,28.28l9.78-4.36c0.06-0.03,0.09-0.09,0.06-0.15l-0.94-2.08c-0.03-0.06-0.09-0.09-0.15-0.06l-7.99,3.57
		L71.28,28.28z"/>
	<path class="st0" d="M39.4,25c0,9.93-8.06,18.01-18.01,18.01S3.4,34.96,3.4,25S11.46,6.99,21.41,6.99S39.4,15.07,39.4,25z
		 M17.23,26.41c-1.9-2.11-4.1-2.72-6.83-1.46c-2.96,1.38-4.22,4.86-2.87,7.82c1.38,2.96,4.86,4.22,7.82,2.87
		c2.49-1.17,3.9-3.31,3.4-5.92l-5.33,2.46L17.23,26.41z M13.83,27.37c0.15,0.35,0,0.76-0.32,0.91c-0.32,0.15-0.76,0-0.91-0.32
		c-0.15-0.35,0-0.76,0.32-0.91C13.24,26.9,13.68,27.02,13.83,27.37z M15.38,35.63c2.64-1.23,3.9-3.43,3.4-5.95v-0.06l-5.27,2.4
		l3.75-5.65l-0.03-0.03c-1.99-2.23-4.25-2.69-6.85-1.49c-1.44,0.67-2.52,1.85-3.08,3.34c-0.56,1.49-0.47,3.08,0.18,4.51
		c1,2.17,3.13,3.43,5.36,3.43C13.74,36.19,14.59,36.01,15.38,35.63z M17.2,26.41l-3.87,5.83l5.42-2.49
		c0.47,2.46-0.79,4.63-3.37,5.83c-2.93,1.35-6.41,0.09-7.76-2.84c-0.64-1.41-0.73-3.02-0.18-4.48s1.61-2.64,3.02-3.28
		c0.91-0.44,1.79-0.64,2.64-0.64C14.56,24.33,15.94,25,17.2,26.41z M13.54,28.31c0.35-0.18,0.53-0.59,0.35-0.97
		c-0.18-0.35-0.59-0.53-0.97-0.35l0,0c-0.35,0.18-0.53,0.59-0.35,0.97c0.12,0.26,0.38,0.41,0.64,0.41
		C13.33,28.37,13.42,28.37,13.54,28.31z M12.95,27.08c0.32-0.15,0.7,0,0.85,0.32s0,0.7-0.32,0.85c-0.32,0.15-0.7,0-0.85-0.32
		C12.48,27.61,12.63,27.23,12.95,27.08L12.95,27.08z M21.03,22.31l-0.18-0.12l-2.61,3.84l0.18,0.12L21.03,22.31z M23.35,24.5
		l-0.12-0.18l-4.19,2.87l0.12,0.18L23.35,24.5z M24.34,27.93l-0.03-0.21l-4.63,0.67l0.03,0.21L24.34,27.93z M29.7,22.25l-5.71-1.41
		c0,2.64,1.76,4.48,4.42,5.18c3.13,0.79,6.36-1.11,7.15-4.25s-1.11-6.36-4.25-7.15c-2.9-0.73-4.95,0.26-6.41,2.72L29.7,22.25z
		 M29.24,17.15c0.35,0.09,0.59,0.47,0.5,0.82c-0.09,0.35-0.47,0.59-0.82,0.5c-0.35-0.09-0.59-0.47-0.5-0.82
		C28.5,17.27,28.88,17.06,29.24,17.15z M32.93,25.38c1.35-0.82,2.31-2.11,2.69-3.63c0.79-3.16-1.11-6.39-4.28-7.18
		c-2.81-0.7-4.92,0.18-6.47,2.72v0.03l4.75,4.86l-5.62-1.41v0.06c0,2.55,1.64,4.51,4.45,5.21c0.5,0.12,0.97,0.18,1.46,0.18
		C30.93,26.23,31.99,25.94,32.93,25.38z M29.82,22.31l-4.89-5.01c1.52-2.49,3.6-3.37,6.36-2.67c3.13,0.79,5.01,3.98,4.25,7.09
		c-0.38,1.52-1.32,2.78-2.67,3.57c-1.35,0.79-2.9,1.03-4.42,0.64c-2.75-0.7-4.39-2.61-4.39-5.1L29.82,22.31z M29.79,17.97
		c0.06-0.18,0.03-0.38-0.09-0.56c-0.09-0.18-0.26-0.29-0.44-0.32c-0.38-0.09-0.76,0.15-0.88,0.53l0,0
		c-0.09,0.38,0.15,0.76,0.53,0.88c0.06,0.03,0.12,0.03,0.18,0.03C29.41,18.53,29.7,18.29,29.79,17.97z M28.44,17.65
		c0.09-0.35,0.44-0.56,0.79-0.47c0.18,0.03,0.32,0.15,0.41,0.29c0.09,0.15,0.12,0.32,0.06,0.5c-0.09,0.35-0.44,0.56-0.79,0.47
		C28.59,18.35,28.36,18,28.44,17.65h-0.03H28.44z M23.85,17.12l-3.28-3.28l-0.15,0.15l3.28,3.28L23.85,17.12z M23.29,18.41
		l-4.66-2.02l-0.09,0.21l4.66,2.02L23.29,18.41z M22.88,19.93v-0.21l-4.66,0.21v0.21L22.88,19.93z"/>
	<path class="st0" d="M125,25c0,9.92-8.05,18-18,18s-18-8.05-18-18s8.05-18,18-18S125,15.08,125,25z M118.56,25.53l-21.98-4.98
		L93.89,32.4l21.98,4.98L118.56,25.53z M98.1,22.22l-0.26-0.06l-0.2,0.94l-0.2-0.06l0.2-0.94l-0.26-0.06l0.03-0.18l0.76,0.18
		L98.1,22.22z M98.28,22.07l0.2,0.06l-0.26,1.11l-0.2-0.06L98.28,22.07z M99.33,22.51l-0.26-0.06l-0.2,0.94l-0.2-0.06l0.2-0.94
		l-0.26-0.06l0.03-0.18l0.76,0.18L99.33,22.51z M99.86,23.6l-0.61-0.15l0.26-1.11l0.2,0.06l-0.2,0.94l0.41,0.09L99.86,23.6z
		 M100.62,23.77L100,23.62l0.26-1.11l0.59,0.15l-0.03,0.18l-0.38-0.09l-0.06,0.26l0.35,0.09l-0.03,0.18l-0.35-0.09l-0.06,0.32
		l0.41,0.09L100.62,23.77z M117.07,28.4l-20.43-4.62 M116.45,31.29l-20.43-4.62 M96.84,24.77c0.09,0,0.18,0.03,0.29,0.03
		c0.18,0.03,0.29,0.12,0.38,0.2c0.09,0.12,0.12,0.26,0.06,0.47c-0.06,0.23-0.18,0.35-0.26,0.41c-0.12,0.06-0.29,0.09-0.47,0.03
		c-0.12-0.03-0.18-0.06-0.23-0.06L96.84,24.77z M96.84,25.76c0.03,0,0.06,0.03,0.09,0.03c0.2,0.06,0.38-0.06,0.44-0.35
		c0.06-0.26-0.03-0.41-0.23-0.44c-0.06,0-0.09,0-0.12,0L96.84,25.76z M98.42,26.29l-0.23-0.06v-0.32l-0.29-0.06l-0.15,0.26
		l-0.2-0.06L98.1,25l0.26,0.06L98.42,26.29z M98.19,25.76V25.5c0-0.09,0-0.18,0-0.23l0,0c-0.03,0.06-0.06,0.15-0.09,0.2l-0.12,0.23
		L98.19,25.76z M99.45,25.56l-0.26-0.06l-0.2,0.94l-0.2-0.06l0.2-0.94l-0.26-0.06l0.03-0.18l0.76,0.18L99.45,25.56z M99.98,26.64
		l-0.61-0.15l0.26-1.11l0.59,0.15l-0.03,0.18l-0.38-0.09l-0.06,0.26l0.35,0.09l-0.03,0.18l-0.35-0.09l-0.06,0.32l0.41,0.09
		L99.98,26.64z M96.58,28.95l-0.61-0.15l0.26-1.11l0.2,0.06l-0.2,0.94l0.41,0.09L96.58,28.95z M97.72,28.6
		c-0.09,0.38-0.32,0.53-0.61,0.47c-0.29-0.06-0.41-0.35-0.32-0.67c0.09-0.32,0.32-0.53,0.61-0.47
		C97.69,28.01,97.78,28.31,97.72,28.6z M97.02,28.45c-0.06,0.2,0,0.41,0.15,0.44c0.15,0.03,0.29-0.12,0.32-0.35
		c0.06-0.2,0-0.41-0.15-0.44C97.17,28.07,97.05,28.25,97.02,28.45z M98.48,29.36c-0.06,0-0.15,0-0.26,0
		c-0.32-0.09-0.47-0.35-0.38-0.67c0.09-0.38,0.38-0.53,0.67-0.47c0.12,0.03,0.2,0.06,0.23,0.09l-0.09,0.18
		c-0.03-0.03-0.09-0.06-0.18-0.09c-0.18-0.03-0.35,0.06-0.41,0.32c-0.06,0.26,0.03,0.41,0.23,0.47c0.06,0.03,0.15,0.03,0.18,0V29.36
		z M99.42,29.6l-0.23-0.06v-0.32l-0.29-0.06l-0.15,0.26l-0.2-0.06l0.56-1.05l0.26,0.06L99.42,29.6z M99.21,29.07V28.8
		c0-0.09,0-0.18,0-0.23l0,0c-0.03,0.06-0.06,0.15-0.09,0.2l-0.12,0.23L99.21,29.07z M100.47,28.86l-0.26-0.06l-0.2,0.94l-0.2-0.06
		l0.2-0.94l-0.26-0.06l0.03-0.18l0.76,0.18L100.47,28.86z M100.62,28.69l0.2,0.06l-0.26,1.11l-0.18-0.06L100.62,28.69z
		 M101.82,29.54c-0.09,0.38-0.32,0.53-0.61,0.47c-0.29-0.06-0.41-0.35-0.32-0.67s0.32-0.53,0.61-0.47
		C101.79,28.95,101.88,29.24,101.82,29.54z M101.12,29.39c-0.06,0.2,0,0.41,0.15,0.44s0.29-0.12,0.32-0.35
		c0.06-0.2,0-0.41-0.15-0.44C101.26,29.01,101.15,29.19,101.12,29.39z M102.67,30.33l-0.2-0.06l-0.15-0.53
		c-0.03-0.12-0.06-0.29-0.09-0.41l0,0c-0.03,0.15-0.06,0.29-0.09,0.5l-0.09,0.35l-0.2-0.03l0.26-1.11l0.23,0.06l0.15,0.5
		c0.03,0.12,0.06,0.26,0.09,0.41l0,0c0.03-0.15,0.06-0.29,0.09-0.5l0.09-0.32l0.2,0.03L102.67,30.33z M119.35,22.66L96.9,17.6
		l-0.61,2.72l22.45,5.06L119.35,22.66z M99.8,20.96l-2.55-0.59l2.46-2.05l2.55,0.59L99.8,20.96z M104.4,22.01l-2.55-0.59l2.46-2.05
		l2.55,0.59L104.4,22.01z M109.14,23.1l-2.55-0.59l2.46-2.05l2.55,0.59L109.14,23.1z M113.94,24.18l-2.55-0.59l2.46-2.05l2.55,0.59
		L113.94,24.18z M120.49,20.08L99.62,10.4l-1.17,2.55l20.87,9.69L120.49,20.08z M103.46,15.11L101.09,14l-0.7-3.1l2.37,1.11
		L103.46,15.11z M107.76,17.13l-2.37-1.11l-0.7-3.1l2.37,1.11L107.76,17.13z M112.15,19.15l-2.37-1.11l-0.7-3.1l2.37,1.11
		L112.15,19.15z M116.63,21.22l-2.37-1.11l-0.7-3.1l2.37,1.11L116.63,21.22z M118.8,20.58c-0.06,0.2-0.26,0.35-0.47,0.29
		c-0.2-0.06-0.35-0.26-0.29-0.47c0.06-0.2,0.26-0.35,0.47-0.29C118.71,20.17,118.85,20.38,118.8,20.58z"/>
	<rect x="-1.87" y="5" class="st6" width="217.11" height="40"/>
	<g class="st7">
		<path class="st8" d="M6.69,30.9c-0.22,0.08-0.44,0.07-0.67-0.04c-0.23-0.11-0.38-0.27-0.47-0.49s-0.08-0.44,0.01-0.65
			s0.26-0.37,0.49-0.45c2.2-0.84,4-1.82,5.41-2.95c0.03-0.03,0.04-0.06,0.03-0.09c-0.02-0.03-0.04-0.04-0.08-0.04H6.69
			c-0.22,0-0.4-0.08-0.55-0.23c-0.15-0.15-0.23-0.34-0.23-0.57s0.08-0.42,0.23-0.57c0.15-0.15,0.34-0.23,0.55-0.23h3
			c0.13,0,0.2-0.08,0.2-0.23v-7.83c0-0.13-0.07-0.2-0.2-0.2H6.96c-0.22,0-0.41-0.08-0.57-0.23c-0.16-0.15-0.24-0.34-0.24-0.57
			s0.08-0.42,0.23-0.58c0.15-0.16,0.34-0.24,0.58-0.24h2.72c0.13,0,0.2-0.08,0.2-0.23v-1.16c0-0.27,0.1-0.5,0.29-0.69
			c0.19-0.19,0.43-0.29,0.71-0.29c0.28,0,0.51,0.1,0.7,0.29c0.19,0.19,0.29,0.42,0.29,0.69v1.16c0,0.13,0.07,0.21,0.2,0.23h9.87
			c0.13,0,0.2-0.08,0.2-0.23v-1.16c0-0.27,0.1-0.5,0.29-0.69c0.19-0.19,0.43-0.29,0.7-0.29s0.51,0.1,0.7,0.29
			c0.19,0.19,0.29,0.42,0.29,0.69v1.16c0,0.13,0.07,0.21,0.2,0.23h2.72c0.22,0,0.41,0.08,0.57,0.24c0.16,0.16,0.24,0.35,0.24,0.58
			s-0.08,0.42-0.23,0.57c-0.15,0.15-0.34,0.23-0.58,0.23h-2.72c-0.13,0-0.2,0.07-0.2,0.2v7.83c0,0.15,0.07,0.23,0.2,0.23h3
			c0.22,0,0.4,0.08,0.55,0.23c0.15,0.15,0.23,0.34,0.23,0.57s-0.08,0.42-0.23,0.57c-0.15,0.15-0.34,0.23-0.55,0.23H22.6
			c-0.03,0-0.06,0.01-0.08,0.04c-0.02,0.02-0.01,0.05,0.03,0.09c1.41,1.12,3.21,2.11,5.41,2.95c0.22,0.08,0.38,0.24,0.48,0.45
			c0.1,0.22,0.11,0.44,0.02,0.65s-0.24,0.38-0.47,0.49c-0.23,0.11-0.45,0.12-0.67,0.04c-1.11-0.45-2.06-0.91-2.84-1.36
			c-0.1-0.05-0.15-0.03-0.15,0.08c0,0.29-0.11,0.54-0.33,0.75c-0.22,0.22-0.47,0.33-0.76,0.33h-5.01c-0.15,0-0.23,0.08-0.23,0.23
			v2.06c0,0.13,0.08,0.2,0.23,0.2h8.79c0.22,0,0.41,0.08,0.57,0.23c0.16,0.15,0.24,0.34,0.24,0.57s-0.08,0.42-0.23,0.57
			c-0.15,0.15-0.34,0.23-0.58,0.23H6.99c-0.22,0-0.41-0.08-0.57-0.23c-0.16-0.15-0.24-0.34-0.24-0.57s0.08-0.42,0.23-0.57
			c0.15-0.15,0.34-0.23,0.58-0.23h8.78c0.15,0,0.23-0.07,0.23-0.2v-2.06c0-0.13-0.08-0.21-0.23-0.23h-5.03
			c-0.29,0-0.53-0.1-0.74-0.31s-0.31-0.47-0.31-0.77c0-0.1-0.04-0.13-0.13-0.1C8.7,30,7.74,30.46,6.69,30.9z M10.44,29.01
			c-0.02,0.02-0.02,0.04-0.02,0.08c0,0.03,0.02,0.05,0.05,0.05h5.31c0.15,0,0.23-0.07,0.23-0.2v-1.06c0-0.27,0.1-0.5,0.3-0.71
			c0.2-0.2,0.44-0.3,0.7-0.3s0.5,0.1,0.71,0.29c0.2,0.19,0.3,0.43,0.3,0.72v1.06c0,0.13,0.08,0.2,0.23,0.2h5.34
			c0.03,0,0.05-0.01,0.05-0.04s-0.01-0.05-0.02-0.06c-1.16-0.72-2.24-1.62-3.25-2.69c-0.1-0.1-0.22-0.15-0.35-0.15h-5.94
			c-0.13,0-0.25,0.05-0.35,0.15C12.79,27.33,11.7,28.22,10.44,29.01z M11.87,16.55v1.43c0,0.13,0.07,0.2,0.2,0.2h9.87
			c0.13,0,0.2-0.07,0.2-0.2v-1.43c0-0.13-0.07-0.2-0.2-0.2h-9.87C11.94,16.35,11.87,16.41,11.87,16.55z M11.87,19.75v1.43
			c0,0.13,0.07,0.2,0.2,0.2h9.87c0.13,0,0.2-0.07,0.2-0.2v-1.43c0-0.13-0.07-0.2-0.2-0.2h-9.87C11.94,19.54,11.87,19.61,11.87,19.75
			z M11.87,22.97v1.41c0,0.15,0.07,0.23,0.2,0.23h9.87c0.13,0,0.2-0.08,0.2-0.23v-1.41c0-0.15-0.07-0.23-0.2-0.23h-9.87
			C11.94,22.74,11.87,22.82,11.87,22.97z"/>
		<path class="st8" d="M34.25,34.56c-0.17,0.18-0.37,0.26-0.62,0.26s-0.45-0.08-0.62-0.25s-0.25-0.38-0.25-0.63v-8.26
			c0-0.03-0.01-0.05-0.03-0.05s-0.03,0.01-0.05,0.03c-0.23,0.5-0.53,1.02-0.88,1.53c-0.13,0.18-0.32,0.26-0.55,0.21
			c-0.24-0.04-0.39-0.17-0.45-0.39c-0.22-0.74-0.12-1.44,0.3-2.11c1.43-2.32,2.39-5.4,2.9-9.24c0.02-0.05,0-0.1-0.05-0.15
			s-0.1-0.08-0.15-0.08h-1.59c-0.24,0-0.44-0.08-0.6-0.24c-0.17-0.16-0.25-0.36-0.25-0.59c0-0.23,0.08-0.43,0.25-0.59
			c0.17-0.16,0.37-0.24,0.6-0.24h5.66c0.22,0,0.41,0.08,0.58,0.24c0.17,0.16,0.25,0.36,0.25,0.6c0,0.24-0.08,0.44-0.23,0.59
			c-0.15,0.15-0.35,0.23-0.6,0.23h-1.84c-0.13,0-0.23,0.07-0.28,0.2c-0.25,2.08-0.63,3.96-1.13,5.64c-0.03,0.13,0.02,0.2,0.18,0.2
			h2.19c0.4,0,0.74,0.14,1.01,0.42c0.27,0.28,0.4,0.61,0.4,0.99v8.38c0,0.4-0.14,0.74-0.42,1.02c-0.28,0.28-0.61,0.42-0.99,0.42
			H34.7c-0.13,0-0.2,0.07-0.2,0.2v1.03C34.5,34.18,34.42,34.38,34.25,34.56z M34.5,23.4v7.48c0,0.13,0.07,0.2,0.2,0.2h1.74
			c0.15,0,0.23-0.07,0.23-0.2V23.4c0-0.15-0.08-0.23-0.23-0.25H34.7C34.57,23.16,34.5,23.24,34.5,23.4z M38.43,34.92
			c-0.22-0.1-0.37-0.26-0.44-0.49c-0.08-0.23-0.05-0.45,0.09-0.67c1.17-1.91,2.01-4.09,2.49-6.54c0.05-0.24,0.18-0.43,0.39-0.58
			c0.21-0.15,0.43-0.21,0.67-0.16c0.23,0.04,0.43,0.16,0.59,0.37s0.22,0.42,0.19,0.65c-0.12,0.67-0.32,1.48-0.6,2.42
			c-0.05,0.15-0.02,0.29,0.1,0.4c0.77,0.91,1.78,1.58,3.02,2.01c0.13,0.03,0.2-0.01,0.2-0.13v-6.52c0-0.13-0.07-0.2-0.2-0.2h-5.06
			c-0.22,0-0.4-0.08-0.55-0.24c-0.15-0.16-0.23-0.35-0.23-0.58s0.08-0.42,0.23-0.57c0.15-0.15,0.34-0.23,0.55-0.23h13.54
			c0.22,0,0.41,0.08,0.57,0.23c0.16,0.15,0.24,0.34,0.24,0.58c0,0.55-0.12,1.05-0.35,1.48c-0.3,0.64-0.62,1.21-0.96,1.71
			c-0.13,0.2-0.32,0.33-0.57,0.38c-0.24,0.05-0.48,0.01-0.72-0.13c-0.2-0.13-0.33-0.32-0.38-0.57c-0.05-0.24-0.01-0.46,0.13-0.64
			c0.3-0.45,0.56-0.87,0.78-1.26c0.02-0.03,0.01-0.07-0.01-0.11c-0.03-0.04-0.06-0.06-0.11-0.06h-4.68c-0.15,0-0.23,0.07-0.23,0.2
			v2.24c0,0.13,0.08,0.2,0.23,0.2h3.12c0.22,0,0.4,0.07,0.55,0.21c0.15,0.14,0.23,0.33,0.23,0.55s-0.08,0.41-0.23,0.55
			c-0.15,0.14-0.34,0.21-0.55,0.21h-3.12c-0.15,0-0.23,0.08-0.23,0.25v2.74c0,0.13,0.08,0.22,0.23,0.25
			c1.51,0.22,3.53,0.34,6.07,0.35c0.22,0,0.41,0.08,0.58,0.24c0.17,0.16,0.24,0.37,0.23,0.62c-0.02,0.22-0.11,0.41-0.29,0.57
			s-0.38,0.24-0.62,0.24h-0.08c-3.29,0-5.84-0.22-7.64-0.65c-1.8-0.44-3.23-1.19-4.29-2.27c-0.1-0.1-0.19-0.09-0.25,0.03
			c-0.44,1.01-0.86,1.85-1.28,2.52c-0.13,0.22-0.33,0.36-0.59,0.44C38.91,35.06,38.66,35.04,38.43,34.92z M42.92,22.82
			c-0.16,0.17-0.36,0.25-0.6,0.25c-0.24,0-0.44-0.08-0.6-0.25c-0.16-0.17-0.24-0.36-0.24-0.58v-3.9c0-0.03-0.01-0.05-0.04-0.05
			c-0.02,0-0.05,0.02-0.06,0.05c-0.52,0.99-1.14,1.95-1.86,2.87c-0.13,0.17-0.31,0.25-0.54,0.24s-0.41-0.1-0.54-0.26
			c-0.34-0.44-0.33-0.88,0.02-1.33c0.92-1.12,1.65-2.21,2.19-3.27c0.07-0.13,0.03-0.2-0.1-0.2h-1.28c-0.22,0-0.41-0.08-0.57-0.23
			c-0.16-0.15-0.24-0.34-0.24-0.57s0.08-0.42,0.23-0.57c0.15-0.15,0.34-0.23,0.58-0.23h1.94c0.13,0,0.2-0.08,0.2-0.23v-0.91
			c0-0.25,0.09-0.47,0.26-0.65c0.18-0.18,0.39-0.28,0.65-0.28c0.26,0,0.48,0.09,0.65,0.26c0.18,0.18,0.26,0.4,0.26,0.67v0.91
			c0,0.13,0.08,0.21,0.23,0.23h1.51c0.22,0,0.41,0.08,0.57,0.23c0.16,0.15,0.24,0.34,0.24,0.57s-0.08,0.42-0.24,0.57
			c-0.16,0.15-0.35,0.23-0.57,0.23h-1.01c-0.03,0-0.06,0.02-0.09,0.05c-0.03,0.03-0.03,0.07-0.01,0.1c0.57,0.71,1.17,1.49,1.79,2.37
			c0.13,0.17,0.19,0.37,0.16,0.6c-0.02,0.24-0.12,0.44-0.29,0.6c-0.13,0.13-0.31,0.19-0.52,0.18c-0.21-0.02-0.37-0.12-0.47-0.3
			c-0.25-0.42-0.68-1.05-1.28-1.89c-0.02-0.03-0.04-0.05-0.06-0.04c-0.03,0.01-0.04,0.03-0.04,0.06v4.13
			C43.16,22.46,43.08,22.65,42.92,22.82z M50.66,22.83c-0.17,0.16-0.37,0.24-0.59,0.24s-0.42-0.08-0.59-0.25
			c-0.17-0.17-0.25-0.36-0.25-0.58v-3.57c-0.02-0.03-0.05-0.05-0.1-0.05c-0.64,1.21-1.38,2.32-2.21,3.35
			c-0.13,0.17-0.31,0.26-0.54,0.26s-0.41-0.08-0.54-0.26c-0.15-0.18-0.23-0.4-0.23-0.64c0-0.24,0.08-0.45,0.23-0.62
			c1.12-1.33,2.03-2.7,2.72-4.13c0.07-0.13,0.02-0.2-0.13-0.2h-1.18c-0.22,0-0.41-0.08-0.57-0.23c-0.16-0.15-0.24-0.34-0.24-0.57
			s0.08-0.42,0.24-0.57c0.16-0.15,0.35-0.23,0.57-0.23h1.69c0.15,0,0.23-0.08,0.23-0.23v-0.91c0-0.25,0.09-0.47,0.26-0.65
			c0.18-0.18,0.39-0.28,0.65-0.28s0.48,0.09,0.65,0.26c0.18,0.18,0.26,0.4,0.26,0.67v0.91c0,0.13,0.08,0.21,0.23,0.23h2.29
			c0.22,0,0.41,0.08,0.58,0.23c0.17,0.15,0.25,0.34,0.25,0.57s-0.08,0.42-0.25,0.57c-0.17,0.15-0.36,0.23-0.58,0.23h-1.79
			c-0.05,0-0.09,0.03-0.11,0.08s-0.02,0.09,0.01,0.13c0.7,1.39,1.57,2.69,2.59,3.9c0.17,0.19,0.25,0.41,0.25,0.68s-0.07,0.5-0.2,0.7
			c-0.13,0.19-0.31,0.28-0.54,0.28s-0.41-0.08-0.54-0.25c-0.89-1.11-1.61-2.19-2.16-3.25c-0.02-0.03-0.04-0.05-0.06-0.05
			c-0.03,0-0.04,0.02-0.04,0.05v3.6C50.91,22.47,50.83,22.67,50.66,22.83z"/>
		<path class="st8" d="M58.57,21.78c-0.23,0.03-0.46-0.02-0.67-0.15c-0.21-0.13-0.33-0.32-0.36-0.57c-0.03-0.24,0.02-0.47,0.16-0.67
			c0.14-0.2,0.33-0.33,0.57-0.38l5.26-0.86c0.13-0.03,0.21-0.13,0.23-0.28v-4.35c0-0.27,0.1-0.5,0.29-0.69
			c0.19-0.19,0.43-0.29,0.7-0.29s0.51,0.1,0.69,0.29c0.18,0.19,0.28,0.42,0.28,0.69v4.03c0,0.15,0.08,0.21,0.23,0.18L78,16.75
			c0.23-0.03,0.46,0.02,0.67,0.16c0.21,0.14,0.33,0.33,0.37,0.57c0.1,0.6,0.05,1.18-0.15,1.74c-1.06,2.87-2.84,5.2-5.34,7
			c-0.22,0.15-0.46,0.21-0.72,0.16c-0.26-0.04-0.48-0.16-0.67-0.36c-0.17-0.18-0.24-0.4-0.2-0.65c0.03-0.25,0.16-0.45,0.38-0.6
			c2.18-1.64,3.76-3.6,4.73-5.87c0.03-0.03,0.03-0.07,0-0.11c-0.03-0.04-0.08-0.05-0.13-0.04l-11,1.81
			c-0.13,0.03-0.21,0.12-0.23,0.25v7.45c0,1.51,0.21,2.48,0.64,2.91c0.43,0.43,1.38,0.64,2.86,0.64c2.82,0,5.65-0.24,8.51-0.73
			c0.23-0.03,0.45,0.02,0.64,0.16c0.19,0.14,0.3,0.32,0.31,0.54c0.03,0.24-0.03,0.46-0.19,0.68c-0.16,0.22-0.36,0.34-0.59,0.38
			c-2.79,0.49-5.7,0.73-8.73,0.73c-2.2,0-3.65-0.35-4.35-1.04c-0.7-0.7-1.06-2.15-1.06-4.37v-7c0-0.15-0.08-0.22-0.23-0.2
			L58.57,21.78z"/>
		<path class="st8" d="M86.23,32.03c-0.25-0.02-0.46-0.12-0.63-0.31c-0.17-0.19-0.24-0.42-0.23-0.67c0.03-0.25,0.15-0.47,0.34-0.65
			c0.19-0.18,0.42-0.27,0.69-0.25c4.97,0.22,10.25,0.84,15.86,1.86c0.25,0.05,0.46,0.18,0.62,0.39c0.16,0.21,0.22,0.44,0.19,0.7
			c-0.03,0.26-0.16,0.47-0.38,0.62s-0.45,0.2-0.7,0.15C96.43,32.86,91.18,32.25,86.23,32.03z M102.13,16.59
			c0.14,0.21,0.2,0.44,0.16,0.69c-0.03,0.25-0.15,0.45-0.35,0.6c-0.2,0.15-0.44,0.21-0.71,0.18c-4.68-0.7-9.27-1.17-13.77-1.38
			c-0.25-0.02-0.47-0.11-0.64-0.29s-0.26-0.4-0.24-0.67c0.03-0.25,0.14-0.47,0.31-0.64s0.4-0.26,0.67-0.24
			c4.43,0.2,9.09,0.66,13.97,1.38C101.79,16.25,101.98,16.38,102.13,16.59z M88.65,22.11c3.71,0.2,7.53,0.66,11.45,1.38
			c0.27,0.05,0.48,0.18,0.64,0.38c0.16,0.2,0.22,0.44,0.19,0.73c-0.03,0.25-0.15,0.46-0.35,0.62c-0.2,0.16-0.44,0.21-0.7,0.14
			c-3.89-0.71-7.68-1.16-11.35-1.36c-0.25-0.02-0.47-0.12-0.65-0.31c-0.19-0.19-0.27-0.42-0.25-0.69c0.02-0.27,0.13-0.49,0.33-0.65
			C88.14,22.17,88.38,22.09,88.65,22.11z"/>
		<path class="st8" d="M110.52,20.9c-0.23,0-0.44-0.08-0.63-0.25c-0.18-0.17-0.28-0.37-0.28-0.62s0.09-0.45,0.28-0.63
			s0.39-0.26,0.63-0.26h9.21c0.13,0,0.2-0.08,0.2-0.23v-4.33c0-0.29,0.1-0.53,0.29-0.73c0.19-0.2,0.44-0.3,0.73-0.3
			c0.29,0,0.54,0.1,0.74,0.3s0.3,0.44,0.3,0.73v4.33c0,0.13,0.08,0.21,0.23,0.23h7.48c0.24,0,0.45,0.09,0.63,0.26
			s0.28,0.39,0.28,0.63s-0.09,0.45-0.28,0.62c-0.18,0.17-0.39,0.25-0.63,0.25h-7.48c-0.15,0-0.23,0.07-0.23,0.2
			c-0.02,3.49-0.71,6.25-2.06,8.29c-1.36,2.04-3.48,3.51-6.37,4.42c-0.24,0.07-0.47,0.04-0.69-0.08c-0.23-0.12-0.38-0.3-0.46-0.54
			c-0.08-0.24-0.07-0.48,0.05-0.71s0.29-0.37,0.53-0.44c2.45-0.86,4.22-2.12,5.3-3.8c1.08-1.68,1.63-4.06,1.65-7.15
			c0-0.13-0.07-0.2-0.2-0.2H110.52z"/>
		<path class="st8" d="M136.72,25.18c-0.27,0-0.49-0.09-0.68-0.28c-0.18-0.18-0.28-0.42-0.28-0.69s0.09-0.51,0.28-0.7
			c0.19-0.19,0.41-0.29,0.68-0.29h18.32c0.27,0,0.5,0.1,0.68,0.29c0.19,0.19,0.28,0.43,0.28,0.7s-0.09,0.51-0.28,0.69
			c-0.18,0.19-0.41,0.28-0.68,0.28H136.72z"/>
		<path class="st8" d="M160.49,23.4c-0.22-0.05-0.39-0.18-0.52-0.39c-0.13-0.21-0.16-0.42-0.09-0.64c0.65-2.3,1.12-4.83,1.41-7.6
			c0.02-0.22,0.12-0.41,0.3-0.57c0.18-0.16,0.4-0.23,0.64-0.21s0.44,0.11,0.58,0.28c0.14,0.17,0.21,0.37,0.19,0.6
			c-0.03,0.5-0.1,1.09-0.2,1.76c-0.02,0.05,0,0.1,0.05,0.14c0.05,0.04,0.1,0.06,0.15,0.06h0.83c0.13,0,0.2-0.07,0.2-0.2v-2.72
			c0-0.27,0.09-0.5,0.28-0.69c0.18-0.19,0.42-0.29,0.69-0.29c0.28,0,0.51,0.09,0.71,0.28s0.29,0.42,0.29,0.7v2.72
			c0,0.13,0.07,0.2,0.2,0.2h1.76c0.24,0,0.43,0.09,0.59,0.26c0.16,0.18,0.24,0.38,0.24,0.6c0,0.23-0.08,0.42-0.24,0.58
			c-0.16,0.16-0.36,0.24-0.59,0.24h-1.76c-0.13,0-0.2,0.08-0.2,0.23v5.21c0,0.13,0.06,0.19,0.18,0.15c0.57-0.15,1.22-0.34,1.96-0.58
			c0.2-0.07,0.4-0.05,0.6,0.06c0.2,0.11,0.31,0.27,0.33,0.49c0.03,0.23-0.03,0.46-0.18,0.68c-0.15,0.22-0.34,0.36-0.58,0.43
			c-0.92,0.3-1.63,0.53-2.11,0.68c-0.13,0.03-0.2,0.13-0.2,0.28v8.38c0,0.27-0.1,0.5-0.29,0.69c-0.19,0.19-0.43,0.29-0.71,0.29
			c-0.28,0-0.51-0.1-0.69-0.29c-0.19-0.19-0.28-0.42-0.28-0.69v-7.85c0-0.13-0.06-0.19-0.18-0.18c-0.94,0.25-1.94,0.49-3,0.71
			c-0.22,0.05-0.42,0.01-0.62-0.13c-0.19-0.13-0.3-0.31-0.31-0.53c-0.03-0.24,0.02-0.45,0.16-0.65c0.14-0.2,0.33-0.33,0.57-0.38
			c1.49-0.32,2.56-0.57,3.2-0.75c0.12-0.02,0.18-0.11,0.18-0.28v-5.74c0-0.15-0.07-0.23-0.2-0.23h-1.08c-0.13,0-0.23,0.08-0.28,0.23
			c-0.22,1.26-0.53,2.61-0.93,4.05c-0.07,0.22-0.2,0.39-0.4,0.52C160.94,23.43,160.72,23.46,160.49,23.4z M180.98,21.81
			c-0.13,0-0.21,0.07-0.23,0.2v2.42c0,0.13,0.08,0.2,0.23,0.2h1.41c0.23,0,0.44,0.08,0.6,0.25c0.17,0.17,0.25,0.37,0.25,0.59
			c0,0.23-0.08,0.42-0.25,0.59c-0.17,0.17-0.37,0.25-0.6,0.25h-1.41c-0.13,0-0.21,0.08-0.23,0.23v5.31c0,1.53-0.16,2.47-0.47,2.84
			s-1.14,0.55-2.5,0.55c-0.5,0-1.3-0.02-2.39-0.08c-0.22-0.02-0.41-0.11-0.58-0.29c-0.17-0.18-0.26-0.38-0.28-0.62
			c-0.02-0.22,0.05-0.41,0.21-0.57c0.16-0.16,0.36-0.23,0.59-0.21c1.01,0.05,1.71,0.08,2.12,0.08c0.65,0,1.04-0.07,1.16-0.2
			s0.18-0.61,0.18-1.43v-5.39c0-0.13-0.08-0.21-0.23-0.23h-9.14c-0.22,0-0.41-0.08-0.58-0.24c-0.17-0.16-0.25-0.36-0.25-0.6
			c0-0.24,0.08-0.44,0.25-0.6s0.36-0.24,0.58-0.24h9.14c0.13,0,0.21-0.07,0.23-0.2v-2.42c0-0.13-0.08-0.2-0.23-0.2h-9.14
			c-0.22,0-0.41-0.08-0.58-0.24c-0.17-0.16-0.25-0.36-0.25-0.6c0-0.24,0.08-0.44,0.25-0.59c0.17-0.15,0.36-0.23,0.58-0.23h5.24
			c0.13,0,0.2-0.08,0.2-0.25v-2.92c0-0.13-0.07-0.21-0.2-0.23h-4.4c-0.22,0-0.41-0.08-0.58-0.24c-0.17-0.16-0.25-0.35-0.25-0.58
			s0.08-0.42,0.24-0.58c0.16-0.16,0.36-0.24,0.59-0.24h4.4c0.13,0,0.2-0.07,0.2-0.2V13.4c0-0.27,0.1-0.5,0.3-0.69
			c0.2-0.19,0.44-0.29,0.71-0.29c0.27,0,0.5,0.1,0.69,0.29c0.19,0.19,0.29,0.42,0.29,0.69v1.51c0,0.13,0.07,0.2,0.2,0.2h4.43
			c0.22,0,0.41,0.08,0.58,0.24c0.17,0.16,0.25,0.35,0.25,0.58s-0.08,0.42-0.25,0.58c-0.17,0.16-0.36,0.24-0.58,0.24h-4.43
			c-0.13,0-0.2,0.08-0.2,0.23v2.92c0,0.15,0.07,0.24,0.2,0.25h5.34c0.23,0,0.44,0.08,0.6,0.24s0.25,0.35,0.25,0.57
			c0,0.24-0.08,0.44-0.25,0.6c-0.17,0.17-0.37,0.25-0.6,0.25H180.98z M174.61,30.64c0.17,0.19,0.25,0.41,0.24,0.67
			c-0.01,0.26-0.11,0.48-0.3,0.66c-0.19,0.18-0.4,0.26-0.63,0.24c-0.23-0.02-0.42-0.12-0.59-0.3c-0.82-0.91-1.79-1.86-2.89-2.87
			c-0.18-0.17-0.28-0.37-0.29-0.62c-0.01-0.24,0.07-0.45,0.24-0.62c0.18-0.18,0.4-0.29,0.64-0.3c0.24-0.02,0.46,0.07,0.64,0.25
			C172.79,28.76,173.77,29.72,174.61,30.64z"/>
		<path class="st8" d="M187.39,20.35c-0.15,0.2-0.36,0.29-0.62,0.28c-0.26-0.02-0.46-0.13-0.59-0.35c-0.37-0.57-0.33-1.14,0.13-1.71
			c1.22-1.54,2.22-3.24,3-5.08c0.1-0.25,0.27-0.44,0.52-0.58s0.5-0.18,0.77-0.13c0.24,0.03,0.41,0.16,0.53,0.37s0.13,0.43,0.05,0.67
			l-0.38,0.93c-0.02,0.03-0.01,0.07,0.01,0.11c0.03,0.04,0.06,0.06,0.11,0.06h6.07c0.15,0,0.25-0.07,0.3-0.2
			c0.07-0.15,0.16-0.38,0.29-0.68c0.13-0.3,0.2-0.48,0.21-0.53c0.1-0.25,0.28-0.45,0.53-0.59c0.25-0.14,0.52-0.2,0.81-0.16
			c0.24,0.03,0.41,0.16,0.53,0.36c0.12,0.21,0.13,0.43,0.05,0.67c-0.13,0.39-0.27,0.71-0.4,0.96c-0.02,0.03-0.01,0.07,0.01,0.11
			c0.03,0.04,0.06,0.06,0.11,0.06h6.92c0.22,0,0.41,0.08,0.57,0.23c0.16,0.15,0.24,0.34,0.24,0.57s-0.08,0.42-0.23,0.57
			c-0.15,0.15-0.34,0.23-0.58,0.23h-7.2c-0.15,0-0.24,0.07-0.25,0.2v1.38c0,0.13,0.08,0.2,0.25,0.2h6.54c0.18,0,0.35,0.07,0.49,0.21
			c0.14,0.14,0.21,0.31,0.21,0.5c0,0.19-0.07,0.36-0.21,0.49c-0.14,0.13-0.31,0.2-0.49,0.2h-6.54c-0.15,0-0.24,0.08-0.25,0.23v1.36
			c0,0.13,0.08,0.2,0.25,0.2h6.54c0.18,0,0.35,0.07,0.49,0.21c0.14,0.14,0.21,0.31,0.21,0.5c0,0.19-0.07,0.36-0.21,0.49
			c-0.14,0.13-0.31,0.2-0.49,0.2h-6.54c-0.15,0-0.24,0.08-0.25,0.23v1.36c0,0.13,0.08,0.2,0.25,0.2h7.27c0.2,0,0.37,0.07,0.52,0.21
			c0.14,0.14,0.21,0.32,0.21,0.53s-0.07,0.38-0.2,0.52c-0.13,0.13-0.31,0.2-0.53,0.2h-7.75c-0.15,0-0.23,0.07-0.23,0.2v1.11
			c0,0.13,0.08,0.21,0.23,0.23h8.86c0.22,0,0.41,0.08,0.57,0.23c0.16,0.15,0.24,0.34,0.24,0.57s-0.08,0.42-0.23,0.57
			c-0.15,0.15-0.34,0.23-0.58,0.23h-7.9c-0.02,0-0.03,0.02-0.03,0.05c0,0.03,0.01,0.06,0.03,0.08c2.18,1.22,4.99,2.35,8.43,3.37
			c0.24,0.08,0.42,0.23,0.54,0.45c0.13,0.22,0.15,0.45,0.08,0.69s-0.22,0.42-0.44,0.53c-0.22,0.11-0.45,0.12-0.71,0.04
			c-3.64-1.22-6.61-2.58-8.91-4.08c-0.12-0.08-0.18-0.05-0.18,0.1v4c0,0.29-0.1,0.52-0.3,0.72c-0.2,0.19-0.44,0.29-0.71,0.29
			s-0.5-0.1-0.71-0.29c-0.2-0.19-0.3-0.43-0.3-0.72v-4c0-0.03-0.02-0.06-0.05-0.09c-0.03-0.02-0.07-0.03-0.1-0.01
			c-2.33,1.53-5.31,2.89-8.94,4.1c-0.24,0.08-0.47,0.07-0.69-0.05s-0.38-0.3-0.45-0.54c-0.08-0.24-0.05-0.47,0.06-0.69
			c0.12-0.22,0.29-0.37,0.53-0.45c3.52-1.04,6.35-2.17,8.48-3.4c0.02-0.02,0.03-0.04,0.03-0.06c0-0.02-0.02-0.04-0.05-0.04h-8.18
			c-0.22,0-0.4-0.08-0.55-0.23c-0.15-0.15-0.23-0.34-0.23-0.57s0.08-0.42,0.23-0.57c0.15-0.15,0.33-0.23,0.55-0.23h9.14
			c0.15,0,0.23-0.08,0.23-0.23v-1.11c0-0.13-0.08-0.2-0.23-0.2h-6.34c-0.4,0-0.74-0.14-1.02-0.42c-0.28-0.28-0.42-0.61-0.42-0.99
			v-5.71c0-0.03-0.01-0.06-0.04-0.08c-0.03-0.02-0.05-0.02-0.06,0C188.01,19.43,187.7,19.9,187.39,20.35z M190.36,16.7v1.38
			c0,0.13,0.08,0.2,0.23,0.2h6.07c0.15,0,0.23-0.07,0.23-0.2V16.7c0-0.13-0.08-0.2-0.23-0.2h-6.07
			C190.44,16.5,190.36,16.57,190.36,16.7z M190.36,19.92v1.36c0,0.13,0.08,0.2,0.23,0.2h6.07c0.15,0,0.23-0.07,0.23-0.2v-1.36
			c0-0.15-0.08-0.23-0.23-0.23h-6.07C190.44,19.69,190.36,19.77,190.36,19.92z M190.36,23.12v1.36c0,0.13,0.08,0.2,0.23,0.2h6.07
			c0.15,0,0.23-0.07,0.23-0.2v-1.36c0-0.15-0.08-0.23-0.23-0.23h-6.07C190.44,22.89,190.36,22.97,190.36,23.12z"/>
	</g>
</g>
<g>
</g>
<g>
</g>
<g>
</g>
<g>
</g>
<g>
</g>
</svg>
