<svg xmlns="http://www.w3.org/2000/svg" xmlns:xlink="http://www.w3.org/1999/xlink" viewBox="0 0 216.86 52.9"><defs><style>.cls-1{font-size:10.14px;fill:#dadf00;font-family:KozGoPr6N-Regular-83pv-RKSJ-H, Kozuka Gothic Pr6N;letter-spacing:0.05em;}.cls-2{opacity:0.5;fill:url(#名称未設定グラデーション_16);}.cls-3{fill:#cde8ee;}.cls-4{fill:#040000;}.cls-5{fill:#ef9394;}.cls-6{fill:url(#名称未設定グラデーション_2);}.cls-7{fill:#7d76a2;}.cls-8{fill:url(#名称未設定グラデーション_2-2);}.cls-9{fill:#d78360;}.cls-10{opacity:0.3;}.cls-11{fill:#fff;}</style><radialGradient id="名称未設定グラデーション_16" cx="105.49" cy="-45.89" r="87.71" gradientTransform="translate(2.59 43.87) scale(0.99 0.41)" gradientUnits="userSpaceOnUse"><stop offset="0" stop-color="#fff"/><stop offset="1" stop-color="#2ca6e0"/></radialGradient><linearGradient id="名称未設定グラデーション_2" x1="1782.35" y1="-685" x2="1795.8" y2="-685" gradientTransform="translate(882 1814) rotate(-90)" gradientUnits="userSpaceOnUse"><stop offset="1" stop-color="#040000"/><stop offset="1" stop-color="#fff"/></linearGradient><linearGradient id="名称未設定グラデーション_2-2" x1="190.02" y1="33.54" x2="203.81" y2="33.54" gradientTransform="matrix(1, 0, 0, 1, 0, 0)" xlink:href="#名称未設定グラデーション_2"/></defs><title>topis11bannerアセット 1</title><g id="レイヤー_2" data-name="レイヤー 2"><g id="レイヤー_1-2" data-name="レイヤー 1"><text class="cls-1" transform="translate(0 8.92)">0101 0111 0100 0101 0100 1100 0100 0011 <tspan x="0" y="13.51">0100 1111 0100 1101 0100 0101 0101 0100 </tspan><tspan x="0" y="27.03">0100 1111 0100 1111 0100 0011 0101 0111</tspan><tspan x="0" y="40.54">0101 0111 0100 0101 0100 1100 0100 0011 </tspan></text><rect class="cls-2" width="214" height="50"/><circle class="cls-3" cx="17" cy="25" r="14.8"/><path class="cls-4" d="M17,10.4A14.6,14.6,0,1,1,2.4,25,14.62,14.62,0,0,1,17,10.4m0-.4A15,15,0,1,0,32,25,15,15,0,0,0,17,10Z"/><circle class="cls-5" cx="197" cy="25" r="14.75"/><path class="cls-4" d="M197,10.5A14.5,14.5,0,1,1,182.5,25,14.51,14.51,0,0,1,197,10.5m0-.5a15,15,0,1,0,15,15,15,15,0,0,0-15-15Z"/><polygon class="cls-6" points="185 31.65 185.05 18.2 209 18.25 208.95 31.65 185 31.65"/><path class="cls-4" d="M208.9,18.3V31.6H185.1V18.3h23.8m.1-.1H185V31.7h24V18.2Z"/><polygon class="cls-7" points="186.5 30.15 186.55 19.7 207.5 19.75 207.45 30.15 186.5 30.15"/><path class="cls-4" d="M207.4,19.8V30.1H186.6V19.8h20.8m.1-.1h-21V30.2h21V19.7Z"/><polygon class="cls-8" points="190.02 35.35 192.29 31.73 201.68 31.75 203.81 35.35 190.02 35.35"/><path class="cls-4" d="M201.62,31.8l2.1,3.5H190.2l2.1-3.5h9.32m.06-.1h-9.44L190,35.4H203.9l-2.22-3.7Z"/><path class="cls-9" d="M17,18.9A5.22,5.22,0,0,1,22.2,15,4.93,4.93,0,0,1,27,20.05c0,3.34-1.82,5.8-3.69,8.07S18,34.08,17,35H17c-.92-.92-4.48-4.71-6.28-6.88S7,23.39,7,20.05A4.94,4.94,0,0,1,11.88,15,5.18,5.18,0,0,1,17,18.9Z"/><g class="cls-10"><rect class="cls-4" x="37.26" y="10.26" width="139.47" height="29.47"/><path class="cls-4" d="M176.47,10.53V39.47H37.53V10.53H176.47M177,10H37V40H177V10Z"/></g><path class="cls-11" d="M42.39,25.55l-2.34-.74A28.61,28.61,0,0,0,41.15,18l2.27.31A29.33,29.33,0,0,1,42.39,25.55Zm15.85-4.48h7.34V23.3H47.86V21.07H55V19.94h-5.6l.06.13-2.12,1a22.42,22.42,0,0,0-1-2.86v19H43.5V12.8h2.88V17l1.53-.64a26.06,26.06,0,0,1,1.53,3.56V17.85H55V16.8H48.7V14.57H55V12.8h3.2v1.77h6.52V16.8H58.24v1.05H64v2.09h-5.8Zm5.54,3.23v10a3.79,3.79,0,0,1-.28,1.63,1.77,1.77,0,0,1-1,.9,12.13,12.13,0,0,1-4.14.44,9.41,9.41,0,0,0-.87-2.64c.49,0,1.4,0,2.72,0,.35,0,.52-.14.52-.43v-.85H52.66V37.3h-3v-13Zm-3,2.27H52.66V27.8h8.08Zm-8.08,4.66h8.08V30H52.66Z"/><path class="cls-11" d="M75.24,17.69v1.82h4.51v2.61H77.51l1,.26c-.15.32-.37.8-.64,1.44s-.47,1.09-.6,1.35h2v2.61H75.24v2H79v2.63h-3.8v4.76h-3V32.43h-4V29.8h4v-2H68V25.17h2a14.15,14.15,0,0,0-.9-2.82l1-.23H67.45V19.51h4.81V17.69H68.4V15.13h3.86V12.86h3v2.27h3.51v2.56Zm.47,7.48-.87-.23c.49-1.35.81-2.29,1-2.82H71.7a10.55,10.55,0,0,1,.92,2.82l-.84.23Zm14.5-2.41,1.93.64A25.85,25.85,0,0,1,89.28,32a13.53,13.53,0,0,0,3.78,2.87A9.19,9.19,0,0,0,91,37.3a14.22,14.22,0,0,1-3.38-2.77,14.17,14.17,0,0,1-3,2.79,8.48,8.48,0,0,0-1.48-1.61v1.54H80.23V13.91H91.5v4.91a3.7,3.7,0,0,1-.29,1.62,1.89,1.89,0,0,1-1,.89,14.45,14.45,0,0,1-4.47.46,10.45,10.45,0,0,0-.92-2.69c1.32,0,2.39.08,3.22.08.37,0,.55-.16.55-.41V16.62H83.16v6.27h6.52Zm-7,3.66v8.34a14.71,14.71,0,0,0,2.59-2.68A25.51,25.51,0,0,1,83.16,26.42Zm5.62-1.07H85.43a18.47,18.47,0,0,0,1.9,4.06A16.63,16.63,0,0,0,88.78,25.35Z"/><path class="cls-11" d="M119.17,27.55v2.89H108.74v3.48a4.3,4.3,0,0,1-.35,1.92,2.15,2.15,0,0,1-1.31,1,19,19,0,0,1-5.26.49,12.44,12.44,0,0,0-1.32-3c.8,0,1.66.06,2.59.07s1.5,0,1.69,0a1.23,1.23,0,0,0,.57-.09c.1-.06.14-.18.14-.37v-3.4H95.09V27.55h10.4V25.86H107a23.17,23.17,0,0,0,2.08-1.46H100V21.71h12.12l.71-.15,2,1.51a24.65,24.65,0,0,1-5.8,4.48Zm-20.7-7.86V23.3h-3V16.93h3.67a18.09,18.09,0,0,0-1.87-2.69L100,13.06a12.72,12.72,0,0,1,2.46,3.43l-1,.44h4.25A16.49,16.49,0,0,0,104,13.65l2.85-1A12.66,12.66,0,0,1,109,16.44l-1.29.49h4.06a19.46,19.46,0,0,0,2.32-4l3.49,1c-.77,1.08-1.53,2.06-2.27,2.95h3.59V23.3h-3.14V19.69Z"/><path class="cls-11" d="M146.71,23.07h-3v2.35h2.72v2.89h-2.72v5.48a4.92,4.92,0,0,1-.29,1.89,2,2,0,0,1-1.08,1,14.1,14.1,0,0,1-4.65.51,9.21,9.21,0,0,0-1-3.1c.9,0,2,.05,3.25.05a1,1,0,0,0,.46-.1q.12-.07.12-.33V28.31h-5.65a18.93,18.93,0,0,1,3.25,3.89l-2.59,1.62a17.56,17.56,0,0,0-3.06-4.12l2.32-1.39h-3.27V26.93c-.26.09-.66.21-1.19.36s-.92.27-1.19.36v9.62h-2.95V28.52l-1.89.54-2.18.61-.74-3q1-.21,4.81-1.18V20.69h-1.83a19.87,19.87,0,0,1-1,3.32,11.42,11.42,0,0,0-2.27-1.4,29.87,29.87,0,0,0,1.56-8.45l2.66.41q-.15,1.59-.39,3.15h1.27V12.83h2.95v4.89h2.25v2.46h5.94V18h-4.78V15.13h4.78V12.8h3.19v2.33h5V18h-5v2.23h6.13Zm-6.13,2.35V23.07H131V20.69H129.2v4l2.48-.7.22,1.41Z"/><path class="cls-11" d="M173.32,31.31h-8A31,31,0,0,0,174,34.48,9.58,9.58,0,0,0,172,37a28.65,28.65,0,0,1-9.29-4.3v4.59h-3.14V32.77a28.8,28.8,0,0,1-9.35,4.32,13,13,0,0,0-2.06-2.56,31.35,31.35,0,0,0,9-3.22H149V28.8h10.51v-1h-7.45V20.71A19.82,19.82,0,0,1,150.56,22a7.79,7.79,0,0,0-1-1.14,8.71,8.71,0,0,0-1.23-1,20.36,20.36,0,0,0,6.39-7.11l3.33.59c-.27.46-.75,1.21-1.45,2.25h3.82a18.34,18.34,0,0,0,1.19-2.82l3.64.41c-.19.38-.68,1.18-1.47,2.41h8.08V18h-8.48V19.1h7.16v2h-7.16v1.1h7.18V24.3h-7.18v1.12h9.27v2.36h-9.93v1h10.64ZM160.25,19.1V18h-5.09V19.1Zm0,3.15v-1.1h-5.09v1.1Zm-5.09,2.05v1.12h5.09V24.3Z"/></g></g></svg>