<svg xmlns="http://www.w3.org/2000/svg" viewBox="0 0 65.5 65.5">
  <defs>
    <style>
      .cls-1 {
        fill: #259bd8;
      }

      .cls-2, .cls-3 {
        fill: #fff;
        stroke: #259bd8;
        stroke-miterlimit: 10;
      }

      .cls-2 {
        stroke-width: 0.25px;
      }
    </style>
  </defs>
  <title>アセット 2</title>
  <g id="レイヤー_2" data-name="レイヤー 2">
    <g id="デザイン">
      <g>
        <path class="cls-1" d="M65.5,32.75A32.75,32.75,0,1,1,32.75,0,32.75,32.75,0,0,1,65.5,32.75Zm-16.27,22L45.87,50l-.11-16.85L35.64,24.76a5,5,0,0,0-.43-2.54,3.65,3.65,0,0,0-1.44-1.71L39.14,5.67,34.27,3.89,28.76,18.67a6,6,0,0,0-4.13,1,8.49,8.49,0,0,0-2.84,4.27v2.43l-.69.88c.37.49.87,1,.87,1l-1.46,1.93.24.25-.06.26.23.21s-.11.17.12.36.37.1.37.1l.26.23.28,0,.24.2,1.91-1.93-2.18,3.51.45.29.05.31.34.2a.73.73,0,0,0,.34.61,1,1,0,0,0,.74,0l.35.18.34-.11.48.27,2.24-3.6c.54.24.27,0,.27,0l0,4.86h.56l.27.29h.44a.89.89,0,0,0,.83.41.93.93,0,0,0,.8-.42l.4,0,.32-.27h.5V32h1.12v-1.7l2.24-.06,2.45,5.48v1L25.33,38.17l12.16-.94v1l-16.2.25V40L35,39.82l.15,12.08-2.23,0-.19-6.72h-6l0,6.71L19.95,52,18.6,53.56l-1.85,0,0,3.6,32.54-.12Z"/>
        <circle class="cls-2" cx="40.14" cy="45.94" r="3.71"/>
        <circle class="cls-3" cx="40.11" cy="45.93" r="2.23"/>
      </g>
    </g>
  </g>
</svg>
