<svg xmlns="http://www.w3.org/2000/svg" viewBox="0 0 68.89 68.89">
  <defs>
    <style>
      .cls-1 {
        fill: #231815;
      }

      .cls-2, .cls-5 {
        fill: none;
        stroke: #fff;
        stroke-miterlimit: 10;
      }

      .cls-3 {
        fill: #fff;
      }

      .cls-4 {
        fill: #259bd8;
        opacity: 0.8;
      }

      .cls-5 {
        stroke-width: 0.25px;
      }
    </style>
  </defs>
  <title>アセット 1</title>
  <g id="レイヤー_2" data-name="レイヤー 2">
    <g id="デザイン">
      <g>
        <polygon class="cls-1" points="31.8 31.41 31.68 31.41 31.68 31.41 31.8 31.41 31.8 31.41"/>
        <path class="cls-2" d="M19.89,52.7"/>
        <circle class="cls-3" cx="34.44" cy="34.44" r="34.44"/>
        <path class="cls-4" d="M51.77,57.56l-3.54-4.95-.11-17.72L37.48,26A5.22,5.22,0,0,0,37,23.36a3.84,3.84,0,0,0-1.51-1.8L41.16,6,36,4.1,30.25,19.64a6.33,6.33,0,0,0-4.34,1,8.93,8.93,0,0,0-3,4.49v2.56l-.72.92c.39.52.91,1.05.91,1.05l-1.53,2,.26.26-.06.27.25.22s-.11.18.12.38.39.1.39.1l.27.24.3,0,.25.21,2-2L23.08,35l.47.3.06.33.35.21a.76.76,0,0,0,.36.64,1,1,0,0,0,.78,0l.37.19.36-.12.51.28,2.35-3.79c.57.25.29,0,.29,0l0,5.12h.59l.28.31h.46a.94.94,0,0,0,.87.43,1,1,0,0,0,.84-.44l.42,0,.34-.28h.52v-4.5h1.17V31.88l2.35-.06,2.57,5.77v1l-12.8,1.52,12.79-1v1l-17,.26v1.6l14.38-.18.16,12.7-2.35,0-.2-7.07H28.1l0,7.05L21,54.68l-1.42,1.65-1.95,0,0,3.78L51.82,60Z"/>
        <circle class="cls-5" cx="42.22" cy="48.31" r="3.9"/>
        <circle class="cls-2" cx="42.19" cy="48.31" r="2.35"/>
      </g>
    </g>
  </g>
</svg>
