<svg id="画像作成用レイヤー" xmlns="http://www.w3.org/2000/svg" xmlns:xlink="http://www.w3.org/1999/xlink" viewBox="0 0 620 575">
  <defs>
    <style>
      .cls-1 {
        fill: #fff;
        filter: url(#luminosity-invert-noclip);
      }

      .cls-2 {
        fill: none;
      }

      .cls-3 {
        clip-path: url(#clip-path);
      }

      .cls-4 {
        mask: url(#mask);
      }

      .cls-5 {
        fill: #10a7ee;
        opacity: 0.5;
        isolation: isolate;
      }
    </style>
    <clipPath id="clip-path">
      <rect class="cls-2" width="620" height="575"/>
    </clipPath>
    <filter id="luminosity-invert-noclip" x="-190" y="0" width="1000" height="575" filterUnits="userSpaceOnUse" color-interpolation-filters="sRGB">
      <feColorMatrix values="-1 0 0 0 1 0 -1 0 0 1 0 0 -1 0 1 0 0 0 1 0" result="invert"/>
      <feFlood flood-color="#fff" result="bg"/>
      <feBlend in="invert" in2="bg"/>
    </filter>
    <mask id="mask" x="-190" y="0" width="1000" height="575" maskUnits="userSpaceOnUse">
      <path class="cls-1" d="M597.5,287.5C597.5,446,468.94,575,310,575S22.5,446.44,22.5,287.5,151.06,0,310,0,597.5,129,597.5,287.5Zm-143,191.2-30.39-42.07-.94-151L332.44,209.9A48.1,48.1,0,0,0,328.7,187c-5.61-11.69-13.09-15.43-13.09-15.43L363.76,38.33,320.28,22.44,270.73,155.2a53.25,53.25,0,0,0-36.93,8.41C215.57,175.77,208.56,202,208.56,202v22l-6.08,7.95a114.76,114.76,0,0,0,7.95,8.88L197.34,258l2.34,2.34-.47,2.34,1.87,1.87s-.94,1.4.94,3.27,3.27.93,3.27.93l2.34,1.87,2.34-.47,2.34,1.87,17.3-17.3L210,286.1l4.21,2.8.47,2.8,2.8,1.87a6.86,6.86,0,0,0,3.27,5.61,7.88,7.88,0,0,0,6.54.47l3.27,1.4,3.27-.93,4.21,2.34,20.1-32.26c4.67,2.34,2.34,0,2.34,0l.47,43.48h5.14l2.34,2.8h3.74s1.87,3.74,7.48,3.74a7.75,7.75,0,0,0,7-3.74h3.74l2.8-2.34h4.67V275.81h9.82V260.39l20.1-.47,22,49.09v8.88L240.81,331l108.92-8.41v8.88l-145.39,2.34v13.56l122.48-1.4,1.4,108.46h-20.1l-1.87-60.3H252.5l-.47,60.3-60.3.93-12.15,14H163.21v32.26l291.71-.93Zm-48.62-78.54A33.19,33.19,0,1,1,372.64,367C390.87,366.5,405.83,381.46,405.83,400.16Zm-33.19-20.1a20.1,20.1,0,1,0,20.1,20.1C392.28,388.94,383.39,380.06,372.64,380.06Z"/>
    </mask>
  </defs>
  <title>名称未設定-1</title>
  <g class="cls-3">
    <g class="cls-4">
      <rect class="cls-5" x="-190" width="1000" height="575"/>
    </g>
  </g>
</svg>
