<?xml version="1.0" encoding="utf-8"?>
<!-- Generator: Adobe Illustrator 16.0.0, SVG Export Plug-In . SVG Version: 6.00 Build 0)  -->
<!DOCTYPE svg PUBLIC "-//W3C//DTD SVG 1.1//EN" "http://www.w3.org/Graphics/SVG/1.1/DTD/svg11.dtd">
<svg version="1.1" id="レイヤー_1" xmlns="http://www.w3.org/2000/svg" xmlns:xlink="http://www.w3.org/1999/xlink" x="0px"
	 y="0px" width="130px" height="55px" viewBox="0 0 130 55" enable-background="new 0 0 130 55" xml:space="preserve">
<g>
	<g>
		<rect x="2.943" y="0.731" fill="none" width="124.083" height="53.013"/>
		<path fill="#77BB44" d="M11.935,13.157h-0.729l-6.132-9.19H5.018c0.057,1.095,0.085,1.921,0.085,2.478v6.712H4.409V2.806h0.722
			l6.125,9.176h0.042c-0.042-0.85-0.063-1.657-0.063-2.421V2.806h0.701V13.157z"/>
		<path fill="#77BB44" d="M19.885,13.157l-0.177-1.218h-0.057c-0.387,0.496-0.785,0.846-1.193,1.051
			c-0.408,0.206-0.891,0.308-1.448,0.308c-0.755,0-1.343-0.193-1.763-0.581c-0.42-0.387-0.63-0.923-0.63-1.607
			c0-0.751,0.313-1.333,0.938-1.749s1.531-0.635,2.715-0.658l1.465-0.043v-0.51c0-0.731-0.148-1.284-0.446-1.656
			c-0.297-0.373-0.776-0.56-1.437-0.56c-0.713,0-1.452,0.198-2.216,0.595l-0.262-0.609c0.845-0.396,1.681-0.595,2.507-0.595
			c0.845,0,1.476,0.219,1.894,0.659c0.418,0.438,0.627,1.123,0.627,2.053v5.119H19.885z M17.053,12.661
			c0.821,0,1.469-0.235,1.943-0.705c0.475-0.47,0.711-1.122,0.711-1.958V9.242l-1.345,0.057c-1.081,0.052-1.852,0.22-2.312,0.506
			c-0.46,0.286-0.69,0.73-0.69,1.335c0,0.481,0.147,0.855,0.442,1.122S16.515,12.661,17.053,12.661z"/>
		<path fill="#77BB44" d="M29.42,5.46v0.489l-1.593,0.099c0.425,0.529,0.638,1.109,0.638,1.742c0,0.741-0.247,1.342-0.74,1.802
			c-0.493,0.46-1.155,0.69-1.986,0.69c-0.349,0-0.595-0.014-0.736-0.042c-0.278,0.146-0.491,0.318-0.637,0.517
			s-0.22,0.409-0.22,0.63c0,0.246,0.093,0.425,0.28,0.538s0.5,0.17,0.938,0.17h1.346c0.835,0,1.475,0.169,1.918,0.506
			s0.666,0.836,0.666,1.497c0,0.812-0.329,1.438-0.988,1.88c-0.658,0.441-1.596,0.662-2.814,0.662c-0.968,0-1.717-0.187-2.248-0.56
			c-0.531-0.373-0.797-0.892-0.797-1.558c0-0.528,0.164-0.967,0.492-1.316c0.328-0.35,0.773-0.588,1.335-0.715
			c-0.231-0.099-0.417-0.24-0.556-0.421s-0.208-0.391-0.208-0.626c0-0.515,0.328-0.968,0.984-1.359
			c-0.448-0.184-0.798-0.473-1.048-0.867s-0.375-0.846-0.375-1.356c0-0.77,0.245-1.387,0.733-1.852
			c0.489-0.465,1.148-0.697,1.979-0.697c0.505,0,0.897,0.05,1.175,0.148H29.42z M23.19,14.459c0,1.057,0.786,1.586,2.358,1.586
			c2.02,0,3.03-0.645,3.03-1.933c0-0.463-0.158-0.798-0.475-1.006c-0.316-0.208-0.828-0.312-1.536-0.312h-1.261
			C23.896,12.795,23.19,13.35,23.19,14.459z M23.777,7.861c0,0.595,0.181,1.056,0.542,1.384c0.361,0.328,0.844,0.492,1.448,0.492
			c0.642,0,1.134-0.163,1.476-0.488s0.514-0.798,0.514-1.416c0-0.656-0.176-1.148-0.528-1.476s-0.844-0.492-1.476-0.492
			c-0.614,0-1.096,0.176-1.448,0.527S23.777,7.233,23.777,7.861z"/>
		<path fill="#77BB44" d="M37.887,9.298c0,1.255-0.304,2.236-0.913,2.941s-1.449,1.059-2.521,1.059c-0.675,0-1.27-0.163-1.784-0.488
			c-0.515-0.326-0.909-0.793-1.183-1.402c-0.273-0.608-0.41-1.312-0.41-2.109c0-1.256,0.304-2.234,0.913-2.935
			c0.609-0.701,1.444-1.051,2.506-1.051c1.057,0,1.887,0.355,2.489,1.065C37.586,7.088,37.887,8.062,37.887,9.298z M31.813,9.298
			c0,1.057,0.232,1.882,0.697,2.474s1.122,0.889,1.972,0.889s1.507-0.296,1.972-0.889s0.697-1.417,0.697-2.474
			c0-1.063-0.234-1.886-0.704-2.471s-1.129-0.878-1.979-0.878s-1.504,0.292-1.965,0.875C32.042,7.407,31.813,8.231,31.813,9.298z"/>
		<path fill="#77BB44" d="M39.252,5.46h0.722l1.628,4.319c0.496,1.326,0.81,2.221,0.941,2.683h0.043
			c0.198-0.609,0.521-1.518,0.97-2.726l1.628-4.276h0.722l-3.448,8.942c-0.278,0.727-0.512,1.218-0.701,1.473
			s-0.41,0.446-0.662,0.573c-0.252,0.128-0.558,0.191-0.917,0.191c-0.27,0-0.569-0.05-0.899-0.148v-0.609
			c0.274,0.076,0.569,0.113,0.885,0.113c0.241,0,0.453-0.057,0.638-0.17c0.184-0.113,0.35-0.289,0.499-0.527
			c0.148-0.238,0.321-0.616,0.517-1.133c0.196-0.517,0.322-0.853,0.379-1.009L39.252,5.46z"/>
		<path fill="#77BB44" d="M52.392,13.157l-0.177-1.218h-0.057c-0.387,0.496-0.785,0.846-1.193,1.051
			c-0.408,0.206-0.891,0.308-1.448,0.308c-0.755,0-1.343-0.193-1.763-0.581c-0.42-0.387-0.63-0.923-0.63-1.607
			c0-0.751,0.313-1.333,0.938-1.749s1.531-0.635,2.715-0.658l1.465-0.043v-0.51c0-0.731-0.148-1.284-0.446-1.656
			c-0.297-0.373-0.776-0.56-1.437-0.56c-0.713,0-1.452,0.198-2.216,0.595l-0.262-0.609c0.845-0.396,1.681-0.595,2.507-0.595
			c0.845,0,1.476,0.219,1.894,0.659c0.418,0.438,0.627,1.123,0.627,2.053v5.119H52.392z M49.56,12.661
			c0.821,0,1.469-0.235,1.943-0.705c0.475-0.47,0.711-1.122,0.711-1.958V9.242L50.87,9.298c-1.081,0.052-1.852,0.22-2.312,0.506
			c-0.46,0.286-0.69,0.73-0.69,1.335c0,0.481,0.147,0.855,0.442,1.122S49.022,12.661,49.56,12.661z"/>
		<path fill="#77BB44" d="M67.337,2.806v6.698c0,1.189-0.345,2.119-1.034,2.79s-1.649,1.005-2.882,1.005
			c-1.199,0-2.134-0.336-2.807-1.009c-0.672-0.673-1.009-1.611-1.009-2.814V2.806h0.729v6.698c0,0.996,0.276,1.771,0.829,2.326
			s1.333,0.832,2.343,0.832c0.987,0,1.751-0.272,2.294-0.818c0.543-0.545,0.814-1.301,0.814-2.269V2.806H67.337z"/>
		<path fill="#77BB44" d="M75.867,13.157V8.166c0-0.774-0.163-1.337-0.488-1.689c-0.326-0.352-0.831-0.527-1.516-0.527
			c-0.92,0-1.594,0.232-2.021,0.697s-0.641,1.219-0.641,2.262v4.248H70.5V5.46h0.595l0.134,1.055h0.043
			c0.5-0.802,1.39-1.204,2.669-1.204c1.747,0,2.62,0.937,2.62,2.811v5.034H75.867z"/>
		<path fill="#77BB44" d="M79.477,3.323c0-0.453,0.148-0.68,0.446-0.68c0.146,0,0.261,0.059,0.343,0.177s0.124,0.286,0.124,0.503
			c0,0.212-0.041,0.38-0.124,0.502s-0.197,0.184-0.343,0.184C79.625,4.009,79.477,3.78,79.477,3.323z M80.276,13.157h-0.701V5.46
			h0.701V13.157z"/>
		<path fill="#77BB44" d="M85.062,13.157L82.088,5.46h0.722l1.99,5.232c0.264,0.67,0.462,1.255,0.595,1.756h0.042
			c0.194-0.642,0.392-1.232,0.595-1.77l1.99-5.218h0.722l-2.974,7.696H85.062z"/>
		<path fill="#77BB44" d="M93.663,13.298c-1.118,0-1.99-0.345-2.616-1.034s-0.938-1.654-0.938-2.896c0-1.227,0.302-2.21,0.906-2.949
			c0.604-0.739,1.418-1.108,2.442-1.108c0.906,0,1.621,0.316,2.146,0.949c0.523,0.632,0.786,1.492,0.786,2.577v0.566h-5.543
			c0.009,1.057,0.256,1.864,0.74,2.421s1.176,0.835,2.078,0.835c0.439,0,0.825-0.031,1.158-0.092
			c0.333-0.061,0.754-0.193,1.264-0.396v0.638c-0.435,0.188-0.836,0.317-1.204,0.386S94.107,13.298,93.663,13.298z M93.458,5.935
			c-0.741,0-1.336,0.244-1.784,0.733c-0.448,0.488-0.71,1.193-0.786,2.113h4.758c0-0.892-0.193-1.589-0.58-2.092
			C94.678,6.187,94.143,5.935,93.458,5.935z"/>
		<path fill="#77BB44" d="M102.066,5.312c0.326,0,0.675,0.033,1.048,0.099l-0.134,0.672c-0.321-0.08-0.654-0.12-0.999-0.12
			c-0.656,0-1.194,0.278-1.614,0.835s-0.63,1.26-0.63,2.11v4.248h-0.701V5.46h0.595l0.071,1.388h0.05
			c0.316-0.566,0.653-0.964,1.012-1.193S101.557,5.312,102.066,5.312z"/>
		<path fill="#77BB44" d="M109.974,11.153c0,0.689-0.262,1.219-0.786,1.59c-0.523,0.371-1.267,0.556-2.23,0.556
			c-1.029,0-1.846-0.158-2.45-0.475v-0.757c0.774,0.387,1.591,0.581,2.45,0.581c0.76,0,1.337-0.126,1.731-0.379
			s0.591-0.589,0.591-1.009c0-0.387-0.157-0.713-0.471-0.977s-0.83-0.524-1.547-0.779c-0.769-0.278-1.31-0.518-1.621-0.719
			s-0.546-0.427-0.705-0.68s-0.237-0.561-0.237-0.924c0-0.576,0.242-1.031,0.726-1.366c0.484-0.335,1.16-0.503,2.028-0.503
			c0.831,0,1.619,0.156,2.365,0.467l-0.262,0.637c-0.755-0.312-1.456-0.467-2.103-0.467c-0.628,0-1.126,0.104-1.494,0.312
			s-0.552,0.496-0.552,0.864c0,0.401,0.143,0.722,0.428,0.963s0.844,0.51,1.674,0.807c0.694,0.25,1.199,0.476,1.515,0.676
			s0.553,0.428,0.711,0.683S109.974,10.809,109.974,11.153z"/>
		<path fill="#77BB44" d="M112.379,3.323c0-0.453,0.148-0.68,0.446-0.68c0.146,0,0.261,0.059,0.343,0.177s0.124,0.286,0.124,0.503
			c0,0.212-0.041,0.38-0.124,0.502s-0.197,0.184-0.343,0.184C112.528,4.009,112.379,3.78,112.379,3.323z M113.179,13.157h-0.701
			V5.46h0.701V13.157z"/>
		<path fill="#77BB44" d="M118.311,12.675c0.444,0,0.831-0.038,1.161-0.113v0.566c-0.34,0.113-0.731,0.17-1.175,0.17
			c-0.68,0-1.182-0.182-1.505-0.545c-0.323-0.364-0.485-0.935-0.485-1.714V6.07h-1.14V5.659l1.14-0.318l0.354-1.742h0.361V5.46
			h2.258V6.07h-2.258v4.871c0,0.59,0.104,1.026,0.312,1.31C117.542,12.534,117.868,12.675,118.311,12.675z"/>
		<path fill="#77BB44" d="M120.371,5.46h0.722l1.628,4.319c0.496,1.326,0.81,2.221,0.941,2.683h0.043
			c0.198-0.609,0.521-1.518,0.97-2.726l1.628-4.276h0.722l-3.448,8.942c-0.278,0.727-0.512,1.218-0.701,1.473
			s-0.41,0.446-0.662,0.573c-0.252,0.128-0.558,0.191-0.917,0.191c-0.27,0-0.569-0.05-0.899-0.148v-0.609
			c0.274,0.076,0.569,0.113,0.885,0.113c0.241,0,0.453-0.057,0.638-0.17c0.184-0.113,0.35-0.289,0.499-0.527
			c0.148-0.238,0.321-0.616,0.517-1.133c0.196-0.517,0.322-0.853,0.379-1.009L120.371,5.46z"/>
		<path fill="#77BB44" d="M13.11,21.967c0,1.643-0.411,2.941-1.232,3.897c-0.821,0.956-1.954,1.434-3.398,1.434
			c-1.439,0-2.57-0.478-3.391-1.434c-0.821-0.956-1.232-2.26-1.232-3.912c0-1.647,0.415-2.944,1.243-3.89
			c0.829-0.946,1.96-1.419,3.395-1.419c1.444,0,2.575,0.475,3.392,1.426C12.702,19.021,13.11,20.32,13.11,21.967z M4.643,21.967
			c0,1.482,0.331,2.627,0.991,3.437s1.609,1.214,2.846,1.214c1.246,0,2.198-0.401,2.857-1.204c0.658-0.802,0.987-1.952,0.987-3.448
			c0-1.492-0.329-2.635-0.987-3.431c-0.659-0.795-1.606-1.193-2.843-1.193c-1.232,0-2.182,0.401-2.85,1.204
			S4.643,20.49,4.643,21.967z"/>
		<path fill="#77BB44" d="M19.161,27.298c-1.185,0-2.049-0.444-2.592-1.331H16.52l0.021,0.595c0.019,0.349,0.028,0.731,0.028,1.147
			v2.931h-0.701V19.46h0.595l0.134,1.098h0.043c0.528-0.831,1.373-1.246,2.534-1.246c1.039,0,1.831,0.341,2.375,1.023
			c0.545,0.682,0.818,1.674,0.818,2.977c0,1.265-0.287,2.246-0.86,2.942C20.935,26.95,20.152,27.298,19.161,27.298z M19.146,26.675
			c0.789,0,1.398-0.292,1.831-0.878c0.432-0.585,0.648-1.404,0.648-2.457c0-2.261-0.817-3.391-2.45-3.391
			c-0.896,0-1.555,0.247-1.975,0.74s-0.63,1.297-0.63,2.411v0.227c0,1.203,0.202,2.063,0.605,2.577
			C17.579,26.418,18.236,26.675,19.146,26.675z"/>
		<path fill="#77BB44" d="M28.164,27.298c-1.118,0-1.99-0.345-2.616-1.034s-0.938-1.654-0.938-2.896c0-1.227,0.302-2.21,0.906-2.949
			c0.604-0.739,1.418-1.108,2.442-1.108c0.906,0,1.621,0.316,2.146,0.949c0.523,0.632,0.786,1.492,0.786,2.577v0.566h-5.543
			c0.009,1.057,0.256,1.864,0.74,2.421s1.176,0.835,2.078,0.835c0.439,0,0.825-0.031,1.158-0.092
			c0.333-0.061,0.754-0.193,1.264-0.396v0.638c-0.435,0.188-0.836,0.317-1.204,0.386S28.607,27.298,28.164,27.298z M27.958,19.935
			c-0.741,0-1.336,0.244-1.784,0.733c-0.448,0.488-0.71,1.193-0.786,2.113h4.758c0-0.892-0.193-1.589-0.58-2.092
			C29.179,20.187,28.643,19.935,27.958,19.935z"/>
		<path fill="#77BB44" d="M38.937,27.157v-4.991c0-0.774-0.163-1.337-0.488-1.689c-0.326-0.352-0.831-0.527-1.516-0.527
			c-0.92,0-1.594,0.232-2.021,0.697s-0.641,1.219-0.641,2.262v4.248H33.57V19.46h0.595l0.134,1.055h0.043
			c0.5-0.802,1.39-1.204,2.669-1.204c1.747,0,2.62,0.937,2.62,2.811v5.034H38.937z"/>
		<path fill="#77BB44" d="M47.274,17.308c-1.298,0-2.32,0.416-3.066,1.246c-0.746,0.831-1.119,1.969-1.119,3.413
			c0,1.477,0.352,2.624,1.055,3.44c0.704,0.817,1.709,1.225,3.017,1.225c0.868,0,1.666-0.111,2.393-0.333v0.637
			c-0.684,0.241-1.539,0.361-2.563,0.361c-1.454,0-2.599-0.47-3.434-1.409c-0.835-0.939-1.253-2.251-1.253-3.937
			c0-1.052,0.2-1.98,0.599-2.782s0.972-1.422,1.72-1.858s1.618-0.655,2.609-0.655c1.01,0,1.914,0.189,2.712,0.566l-0.29,0.651
			C48.898,17.497,48.105,17.308,47.274,17.308z"/>
		<path fill="#77BB44" d="M58.606,23.298c0,1.255-0.304,2.236-0.913,2.941s-1.449,1.059-2.521,1.059
			c-0.675,0-1.27-0.163-1.784-0.488c-0.515-0.326-0.909-0.793-1.183-1.402c-0.273-0.608-0.41-1.312-0.41-2.109
			c0-1.256,0.304-2.234,0.913-2.935c0.609-0.701,1.444-1.051,2.506-1.051c1.057,0,1.887,0.355,2.489,1.065
			C58.306,21.088,58.606,22.062,58.606,23.298z M52.532,23.298c0,1.057,0.232,1.882,0.697,2.474s1.122,0.889,1.972,0.889
			s1.507-0.296,1.972-0.889s0.697-1.417,0.697-2.474c0-1.063-0.234-1.886-0.704-2.471s-1.129-0.878-1.979-0.878
			s-1.504,0.292-1.965,0.875C52.762,21.407,52.532,22.231,52.532,23.298z"/>
		<path fill="#77BB44" d="M61.903,19.46v4.984c0,0.774,0.163,1.337,0.488,1.689c0.326,0.352,0.831,0.527,1.516,0.527
			c0.916,0,1.589-0.231,2.021-0.694c0.432-0.462,0.648-1.215,0.648-2.259V19.46h0.694v7.696h-0.595l-0.127-1.062h-0.042
			c-0.5,0.802-1.39,1.204-2.669,1.204c-1.751,0-2.626-0.937-2.626-2.811V19.46H61.903z"/>
		<path fill="#77BB44" d="M73.434,19.312c0.326,0,0.675,0.033,1.048,0.099l-0.134,0.672c-0.321-0.08-0.654-0.12-0.999-0.12
			c-0.656,0-1.194,0.278-1.614,0.835s-0.63,1.26-0.63,2.11v4.248h-0.701V19.46h0.595l0.071,1.388h0.05
			c0.316-0.566,0.653-0.964,1.012-1.193S72.924,19.312,73.434,19.312z"/>
		<path fill="#77BB44" d="M81.375,25.153c0,0.689-0.262,1.219-0.786,1.59c-0.523,0.371-1.267,0.556-2.23,0.556
			c-1.029,0-1.846-0.158-2.45-0.475v-0.757c0.774,0.387,1.591,0.581,2.45,0.581c0.76,0,1.337-0.126,1.731-0.379
			s0.591-0.589,0.591-1.009c0-0.387-0.157-0.713-0.471-0.977s-0.83-0.524-1.547-0.779c-0.769-0.278-1.31-0.518-1.621-0.719
			s-0.546-0.427-0.705-0.68S76.1,21.544,76.1,21.181c0-0.576,0.242-1.031,0.726-1.366c0.484-0.335,1.16-0.503,2.028-0.503
			c0.831,0,1.619,0.156,2.365,0.467l-0.262,0.637c-0.755-0.312-1.456-0.467-2.103-0.467c-0.628,0-1.126,0.104-1.494,0.312
			s-0.552,0.496-0.552,0.864c0,0.401,0.143,0.722,0.428,0.963s0.844,0.51,1.674,0.807c0.694,0.25,1.199,0.476,1.515,0.676
			s0.553,0.428,0.711,0.683S81.375,24.809,81.375,25.153z"/>
		<path fill="#77BB44" d="M87.021,27.298c-1.118,0-1.99-0.345-2.616-1.034s-0.938-1.654-0.938-2.896c0-1.227,0.302-2.21,0.906-2.949
			c0.604-0.739,1.418-1.108,2.442-1.108c0.906,0,1.621,0.316,2.146,0.949c0.523,0.632,0.786,1.492,0.786,2.577v0.566h-5.543
			c0.009,1.057,0.256,1.864,0.74,2.421s1.176,0.835,2.078,0.835c0.439,0,0.825-0.031,1.158-0.092
			c0.333-0.061,0.754-0.193,1.264-0.396v0.638c-0.435,0.188-0.836,0.317-1.204,0.386S87.465,27.298,87.021,27.298z M86.816,19.935
			c-0.741,0-1.336,0.244-1.784,0.733c-0.448,0.488-0.71,1.193-0.786,2.113h4.758c0-0.892-0.193-1.589-0.58-2.092
			C88.037,20.187,87.501,19.935,86.816,19.935z"/>
		<path fill="#77BB44" d="M100.853,27.157h-0.595l-2.272-7.986c-0.189-0.656-0.331-1.194-0.425-1.614
			c-0.076,0.411-0.183,0.883-0.322,1.416s-0.9,3.262-2.283,8.185h-0.609L91.5,16.806h0.757l1.813,6.669
			c0.071,0.269,0.137,0.518,0.198,0.747s0.117,0.443,0.167,0.644c0.049,0.201,0.094,0.394,0.134,0.581s0.077,0.374,0.11,0.563
			c0.113-0.642,0.354-1.617,0.722-2.924l1.77-6.28h0.8l2.075,7.208c0.241,0.831,0.413,1.501,0.517,2.011
			c0.061-0.34,0.14-0.701,0.237-1.083c0.097-0.383,0.825-3.094,2.184-8.135h0.729L100.853,27.157z"/>
		<path fill="#77BB44" d="M110.592,27.157l-0.177-1.218h-0.057c-0.387,0.496-0.785,0.846-1.193,1.051
			c-0.408,0.206-0.891,0.308-1.448,0.308c-0.755,0-1.343-0.193-1.763-0.581c-0.42-0.387-0.63-0.923-0.63-1.607
			c0-0.751,0.313-1.333,0.938-1.749s1.531-0.635,2.715-0.658l1.465-0.043v-0.51c0-0.731-0.148-1.284-0.446-1.656
			c-0.297-0.373-0.776-0.56-1.437-0.56c-0.713,0-1.452,0.198-2.216,0.595l-0.262-0.609c0.845-0.396,1.681-0.595,2.507-0.595
			c0.845,0,1.476,0.219,1.894,0.659c0.418,0.438,0.627,1.123,0.627,2.053v5.119H110.592z M107.76,26.661
			c0.821,0,1.469-0.235,1.943-0.705c0.475-0.47,0.711-1.122,0.711-1.958v-0.757l-1.345,0.057c-1.081,0.052-1.852,0.22-2.312,0.506
			c-0.46,0.286-0.69,0.73-0.69,1.335c0,0.481,0.147,0.855,0.442,1.122S107.222,26.661,107.76,26.661z"/>
		<path fill="#77BB44" d="M117.188,19.312c0.326,0,0.675,0.033,1.048,0.099l-0.134,0.672c-0.321-0.08-0.654-0.12-0.999-0.12
			c-0.656,0-1.194,0.278-1.614,0.835s-0.63,1.26-0.63,2.11v4.248h-0.701V19.46h0.595l0.071,1.388h0.05
			c0.316-0.566,0.653-0.964,1.012-1.193S116.678,19.312,117.188,19.312z"/>
		<path fill="#77BB44" d="M123.464,27.298c-1.118,0-1.99-0.345-2.616-1.034s-0.938-1.654-0.938-2.896
			c0-1.227,0.302-2.21,0.906-2.949c0.604-0.739,1.418-1.108,2.442-1.108c0.906,0,1.621,0.316,2.146,0.949
			c0.523,0.632,0.786,1.492,0.786,2.577v0.566h-5.543c0.009,1.057,0.256,1.864,0.74,2.421s1.176,0.835,2.078,0.835
			c0.439,0,0.825-0.031,1.158-0.092c0.333-0.061,0.754-0.193,1.264-0.396v0.638c-0.435,0.188-0.836,0.317-1.204,0.386
			S123.908,27.298,123.464,27.298z M123.259,19.935c-0.741,0-1.336,0.244-1.784,0.733c-0.448,0.488-0.71,1.193-0.786,2.113h4.758
			c0-0.892-0.193-1.589-0.58-2.092C124.479,20.187,123.944,19.935,123.259,19.935z"/>
		<path fill="#77BB44" d="M18.157,53.157h-2.198L6.908,39.257H6.817c0.121,1.631,0.182,3.126,0.182,4.486v9.414H5.22V36.595h2.175
			l9.028,13.843h0.091c-0.016-0.204-0.049-0.859-0.102-1.965c-0.053-1.106-0.072-1.897-0.057-2.374v-9.504h1.801V53.157z"/>
		<path fill="#77BB44" d="M41.197,36.595v10.716c0,1.888-0.57,3.372-1.71,4.452c-1.141,1.08-2.708,1.62-4.701,1.62
			s-3.537-0.544-4.627-1.631c-1.092-1.087-1.637-2.583-1.637-4.486V36.595h1.926v10.807c0,1.382,0.377,2.443,1.133,3.184
			s1.865,1.11,3.331,1.11c1.397,0,2.473-0.372,3.229-1.116c0.755-0.744,1.133-1.811,1.133-3.2V36.595H41.197z"/>
		<path fill="#77BB44" d="M77.537,44.853c0,2.651-0.67,4.735-2.011,6.253c-1.341,1.518-3.204,2.277-5.59,2.277
			c-2.439,0-4.322-0.746-5.647-2.237c-1.326-1.491-1.988-3.597-1.988-6.315c0-2.696,0.665-4.786,1.994-6.27s3.217-2.226,5.664-2.226
			c2.379,0,4.237,0.755,5.574,2.266C76.868,40.111,77.537,42.195,77.537,44.853z M64.339,44.853c0,2.243,0.478,3.944,1.433,5.104
			c0.955,1.159,2.343,1.739,4.163,1.739c1.835,0,3.221-0.578,4.157-1.733c0.937-1.156,1.405-2.858,1.405-5.109
			c0-2.228-0.466-3.917-1.399-5.069c-0.933-1.151-2.313-1.728-4.141-1.728c-1.835,0-3.23,0.58-4.186,1.739
			C64.817,40.955,64.339,42.641,64.339,44.853z"/>
		<path fill="#77BB44" d="M94.301,38.079c-1.82,0-3.257,0.606-4.31,1.818c-1.054,1.212-1.581,2.872-1.581,4.979
			c0,2.167,0.508,3.842,1.524,5.024c1.016,1.182,2.464,1.773,4.344,1.773c1.155,0,2.473-0.208,3.954-0.623v1.688
			c-1.148,0.43-2.564,0.646-4.248,0.646c-2.439,0-4.322-0.74-5.647-2.22c-1.326-1.48-1.988-3.583-1.988-6.31
			c0-1.707,0.319-3.202,0.957-4.486c0.638-1.284,1.56-2.273,2.764-2.968s2.623-1.042,4.254-1.042c1.737,0,3.255,0.317,4.554,0.952
			l-0.815,1.654C96.808,38.374,95.555,38.079,94.301,38.079z"/>
		<path fill="#77BB44" d="M122.28,53.157h-1.903l-3.342-11.09c-0.159-0.491-0.336-1.11-0.533-1.858
			c-0.196-0.748-0.298-1.197-0.306-1.348c-0.166,0.997-0.431,2.088-0.793,3.273l-3.24,11.022h-1.903l-4.407-16.562h2.039
			l2.617,10.229c0.362,1.435,0.626,2.734,0.793,3.897c0.204-1.382,0.506-2.734,0.906-4.056l2.968-10.07h2.039l3.115,10.161
			c0.362,1.171,0.668,2.492,0.917,3.965c0.144-1.072,0.416-2.379,0.816-3.919l2.605-10.207h2.039L122.28,53.157z"/>
	</g>
</g>
</svg>
