<?xml version="1.0" encoding="utf-8"?>
<!-- Generator: Adobe Illustrator 16.0.0, SVG Export Plug-In . SVG Version: 6.00 Build 0)  -->
<!DOCTYPE svg PUBLIC "-//W3C//DTD SVG 1.1//EN" "http://www.w3.org/Graphics/SVG/1.1/DTD/svg11.dtd">
<svg version="1.1" id="レイヤー_1" xmlns="http://www.w3.org/2000/svg" xmlns:xlink="http://www.w3.org/1999/xlink" x="0px"
	 y="0px" width="400.758px" height="27.023px" viewBox="0 0 400.758 27.023" enable-background="new 0 0 400.758 27.023"
	 xml:space="preserve">
<g>
	<g>
		<path fill="#666666" d="M11.016,20.566v-8.262c0-1.281-0.27-2.213-0.809-2.795S8.832,8.637,7.699,8.637
			c-1.523,0-2.639,0.385-3.346,1.154s-1.061,2.018-1.061,3.744v7.031h-1.16V7.828h0.984L3.34,9.574h0.07
			c0.828-1.328,2.301-1.992,4.418-1.992c2.891,0,4.336,1.551,4.336,4.652v8.332H11.016z"/>
		<path fill="#666666" d="M17.297,7.828v8.25c0,1.281,0.27,2.213,0.809,2.795s1.375,0.873,2.508,0.873
			c1.516,0,2.631-0.383,3.346-1.148s1.072-2.012,1.072-3.738V7.828h1.148v12.738h-0.984l-0.211-1.758h-0.07
			c-0.828,1.328-2.301,1.992-4.418,1.992c-2.898,0-4.348-1.551-4.348-4.652v-8.32H17.297z"/>
		<path fill="#666666" d="M40.98,14.18c0,2.078-0.504,3.701-1.512,4.869s-2.398,1.752-4.172,1.752c-1.117,0-2.102-0.27-2.953-0.809
			s-1.504-1.313-1.957-2.32s-0.68-2.172-0.68-3.492c0-2.078,0.504-3.697,1.512-4.857s2.391-1.74,4.148-1.74
			c1.75,0,3.123,0.588,4.119,1.764S40.98,12.133,40.98,14.18z M30.926,14.18c0,1.75,0.385,3.115,1.154,4.096
			s1.857,1.471,3.264,1.471s2.494-0.49,3.264-1.471s1.154-2.346,1.154-4.096c0-1.758-0.389-3.121-1.166-4.09
			s-1.869-1.453-3.275-1.453s-2.49,0.482-3.252,1.447S30.926,12.414,30.926,14.18z"/>
		<path fill="#666666" d="M49.594,20.801c-1.82,0-3.246-0.574-4.277-1.723s-1.547-2.75-1.547-4.805c0-2.109,0.535-3.752,1.605-4.928
			s2.535-1.764,4.395-1.764c1.102,0,2.156,0.191,3.164,0.574l-0.316,1.031c-1.102-0.367-2.059-0.551-2.871-0.551
			c-1.563,0-2.746,0.482-3.551,1.447s-1.207,2.354-1.207,4.166c0,1.719,0.402,3.064,1.207,4.037s1.93,1.459,3.375,1.459
			c1.156,0,2.23-0.207,3.223-0.621v1.078C51.98,20.602,50.914,20.801,49.594,20.801z"/>
		<path fill="#666666" d="M66.094,20.566l-2.789-8.52c-0.18-0.578-0.41-1.426-0.691-2.543h-0.07l-0.246,0.867L61.77,12.07
			l-2.836,8.496h-1.148L54.141,7.828h1.242l2.039,7.383c0.477,1.828,0.789,3.172,0.938,4.031h0.07
			c0.461-1.828,0.797-3.043,1.008-3.645l2.625-7.77h1.055l2.496,7.746c0.563,1.836,0.906,3.051,1.031,3.645h0.07
			c0.063-0.508,0.375-1.867,0.938-4.078l1.945-7.313h1.172l-3.457,12.738H66.094z"/>
		<path fill="#666666" d="M72.211,14.566v-0.961h5.566v0.961H72.211z"/>
		<path fill="#666666" d="M80.824,4.289c0-0.75,0.246-1.125,0.738-1.125c0.242,0,0.432,0.098,0.568,0.293s0.205,0.473,0.205,0.832
			c0,0.352-0.068,0.629-0.205,0.832s-0.326,0.305-0.568,0.305C81.07,5.426,80.824,5.047,80.824,4.289z M82.148,20.566h-1.16V7.828
			h1.16V20.566z"/>
		<path fill="#666666" d="M95.297,20.566v-8.262c0-1.281-0.27-2.213-0.809-2.795s-1.375-0.873-2.508-0.873
			c-1.523,0-2.639,0.385-3.346,1.154s-1.061,2.018-1.061,3.744v7.031h-1.16V7.828h0.984l0.223,1.746h0.07
			c0.828-1.328,2.301-1.992,4.418-1.992c2.891,0,4.336,1.551,4.336,4.652v8.332H95.297z"/>
		<path fill="#666666" d="M105.105,20.801c-1.672,0-2.969-0.555-3.891-1.664s-1.383-2.711-1.383-4.805
			c0-2.148,0.461-3.811,1.383-4.986s2.242-1.764,3.961-1.764c1.844,0,3.223,0.68,4.137,2.039h0.07l0.211-1.793h0.984v18.504h-1.148
			V21.48c0-0.953,0.023-1.922,0.07-2.906h-0.07C108.508,20.059,107.066,20.801,105.105,20.801z M105.129,19.77
			c1.547,0,2.65-0.426,3.311-1.277s0.99-2.281,0.99-4.289v-0.141c0-1.914-0.332-3.297-0.996-4.148s-1.723-1.277-3.176-1.277
			c-1.375,0-2.42,0.484-3.135,1.453s-1.072,2.391-1.072,4.266c0,1.789,0.35,3.139,1.049,4.049S103.809,19.77,105.129,19.77z"/>
		<path fill="#666666" d="M115.863,7.828v8.25c0,1.281,0.27,2.213,0.809,2.795s1.375,0.873,2.508,0.873
			c1.516,0,2.631-0.383,3.346-1.148s1.072-2.012,1.072-3.738V7.828h1.148v12.738h-0.984l-0.211-1.758h-0.07
			c-0.828,1.328-2.301,1.992-4.418,1.992c-2.898,0-4.348-1.551-4.348-4.652v-8.32H115.863z"/>
		<path fill="#666666" d="M128.848,4.289c0-0.75,0.246-1.125,0.738-1.125c0.242,0,0.432,0.098,0.568,0.293s0.205,0.473,0.205,0.832
			c0,0.352-0.068,0.629-0.205,0.832s-0.326,0.305-0.568,0.305C129.094,5.426,128.848,5.047,128.848,4.289z M130.172,20.566h-1.16
			V7.828h1.16V20.566z"/>
		<path fill="#666666" d="M139.453,7.582c0.539,0,1.117,0.055,1.734,0.164l-0.223,1.113c-0.531-0.133-1.082-0.199-1.652-0.199
			c-1.086,0-1.977,0.461-2.672,1.383s-1.043,2.086-1.043,3.492v7.031h-1.16V7.828h0.984l0.117,2.297h0.082
			c0.523-0.938,1.082-1.596,1.676-1.975S138.609,7.582,139.453,7.582z"/>
		<path fill="#666666" d="M141.645,7.828h1.195l2.695,7.148c0.82,2.195,1.34,3.676,1.559,4.441h0.07
			c0.328-1.008,0.863-2.512,1.605-4.512l2.695-7.078h1.195l-5.707,14.801c-0.461,1.203-0.848,2.016-1.16,2.438
			s-0.678,0.738-1.096,0.949s-0.924,0.316-1.518,0.316c-0.445,0-0.941-0.082-1.488-0.246v-1.008
			c0.453,0.125,0.941,0.188,1.465,0.188c0.398,0,0.75-0.094,1.055-0.281s0.58-0.479,0.826-0.873s0.531-1.02,0.855-1.875
			s0.533-1.412,0.627-1.67L141.645,7.828z"/>
		<path fill="#666666" d="M172.605,12.07c0,1.781-0.354,3.211-1.061,4.289s-1.666,1.617-2.877,1.617
			c-0.695,0-1.26-0.211-1.693-0.633s-0.686-0.996-0.756-1.723h-0.047c-0.336,0.781-0.82,1.369-1.453,1.764s-1.371,0.592-2.215,0.592
			c-1.156,0-2.051-0.377-2.684-1.131s-0.949-1.811-0.949-3.17c0-1.578,0.471-2.869,1.412-3.873s2.17-1.506,3.686-1.506
			c1.078,0,2.195,0.16,3.352,0.48l-0.258,5.438v0.352c0,0.813,0.137,1.424,0.41,1.834s0.727,0.615,1.359,0.615
			c0.805,0,1.463-0.455,1.975-1.365s0.768-2.096,0.768-3.557c0-1.516-0.309-2.844-0.926-3.984s-1.498-2.018-2.643-2.631
			s-2.451-0.92-3.92-0.92c-1.797,0-3.381,0.389-4.752,1.166s-2.426,1.877-3.164,3.299s-1.107,3.055-1.107,4.898
			c0,2.516,0.652,4.459,1.957,5.83s3.156,2.057,5.555,2.057c0.727,0,1.463-0.07,2.209-0.211s1.65-0.414,2.713-0.82v1.16
			c-1.586,0.625-3.203,0.938-4.852,0.938c-2.727,0-4.852-0.783-6.375-2.35s-2.285-3.744-2.285-6.533c0-2,0.424-3.799,1.271-5.396
			s2.047-2.838,3.598-3.721s3.303-1.324,5.256-1.324c1.68,0,3.166,0.348,4.459,1.043s2.289,1.689,2.988,2.982
			S172.605,10.367,172.605,12.07z M160.078,13.652c0,1.117,0.215,1.957,0.645,2.52s1.109,0.844,2.039,0.844
			c1.992,0,3.059-1.352,3.199-4.055l0.188-3.41c-0.617-0.211-1.371-0.316-2.262-0.316c-1.164,0-2.09,0.4-2.777,1.201
			S160.078,12.309,160.078,13.652z"/>
		<path fill="#666666" d="M191.977,20.566v-8.355c0-1.242-0.242-2.148-0.727-2.719s-1.227-0.855-2.227-0.855
			c-1.305,0-2.27,0.359-2.895,1.078s-0.938,1.848-0.938,3.387v7.465h-1.184v-8.707c0-2.148-0.984-3.223-2.953-3.223
			c-1.336,0-2.309,0.389-2.918,1.166s-0.914,2.021-0.914,3.732v7.031h-1.16V7.828h0.961l0.246,1.746h0.07
			c0.352-0.633,0.852-1.123,1.5-1.471s1.363-0.521,2.145-0.521c2.008,0,3.297,0.754,3.867,2.262h0.047
			c0.414-0.727,0.971-1.285,1.67-1.676s1.494-0.586,2.385-0.586c1.391,0,2.434,0.371,3.129,1.113s1.043,1.922,1.043,3.539v8.332
			H191.977z"/>
		<path fill="#666666" d="M202.395,20.801c-1.852,0-3.295-0.57-4.33-1.711s-1.553-2.738-1.553-4.793c0-2.031,0.5-3.658,1.5-4.881
			s2.348-1.834,4.043-1.834c1.5,0,2.684,0.523,3.551,1.57s1.301,2.469,1.301,4.266v0.938h-9.176c0.016,1.75,0.424,3.086,1.225,4.008
			s1.947,1.383,3.439,1.383c0.727,0,1.365-0.051,1.916-0.152s1.248-0.32,2.092-0.656v1.055c-0.719,0.313-1.383,0.525-1.992,0.639
			S203.129,20.801,202.395,20.801z M202.055,8.613c-1.227,0-2.211,0.404-2.953,1.213s-1.176,1.975-1.301,3.498h7.875
			c0-1.477-0.32-2.631-0.961-3.463S203.188,8.613,202.055,8.613z"/>
		<path fill="#666666" d="M215.086,7.582c0.922,0,1.719,0.168,2.391,0.504s1.273,0.91,1.805,1.723h0.07
			c-0.047-0.984-0.07-1.949-0.07-2.895V2.332h1.148v18.234h-0.762l-0.293-1.945h-0.094c-0.969,1.453-2.359,2.18-4.172,2.18
			c-1.758,0-3.102-0.547-4.031-1.641s-1.395-2.688-1.395-4.781c0-2.203,0.461-3.887,1.383-5.051S213.328,7.582,215.086,7.582z
			 M215.086,8.637c-1.391,0-2.436,0.488-3.135,1.465s-1.049,2.395-1.049,4.254c0,3.609,1.402,5.414,4.207,5.414
			c1.438,0,2.492-0.418,3.164-1.254s1.008-2.215,1.008-4.137V14.18c0-1.969-0.33-3.385-0.99-4.248S216.563,8.637,215.086,8.637z"/>
		<path fill="#666666" d="M224.543,4.289c0-0.75,0.246-1.125,0.738-1.125c0.242,0,0.432,0.098,0.568,0.293s0.205,0.473,0.205,0.832
			c0,0.352-0.068,0.629-0.205,0.832s-0.326,0.305-0.568,0.305C224.789,5.426,224.543,5.047,224.543,4.289z M225.867,20.566h-1.16
			V7.828h1.16V20.566z"/>
		<path fill="#666666" d="M237.867,20.566l-0.293-2.016h-0.094c-0.641,0.82-1.299,1.4-1.975,1.74s-1.475,0.51-2.396,0.51
			c-1.25,0-2.223-0.32-2.918-0.961s-1.043-1.527-1.043-2.66c0-1.242,0.518-2.207,1.553-2.895s2.533-1.051,4.494-1.09l2.426-0.07
			v-0.844c0-1.211-0.246-2.125-0.738-2.742s-1.285-0.926-2.379-0.926c-1.18,0-2.402,0.328-3.668,0.984l-0.434-1.008
			c1.398-0.656,2.781-0.984,4.148-0.984c1.398,0,2.443,0.363,3.135,1.09s1.037,1.859,1.037,3.398v8.473H237.867z M233.18,19.746
			c1.359,0,2.432-0.389,3.217-1.166s1.178-1.857,1.178-3.24v-1.254l-2.227,0.094c-1.789,0.086-3.064,0.365-3.826,0.838
			s-1.143,1.209-1.143,2.209c0,0.797,0.244,1.416,0.732,1.857S232.289,19.746,233.18,19.746z"/>
		<path fill="#666666" d="M242.613,19.652c0-0.766,0.313-1.148,0.938-1.148c0.641,0,0.961,0.383,0.961,1.148
			s-0.32,1.148-0.961,1.148C242.926,20.801,242.613,20.418,242.613,19.652z"/>
		<path fill="#666666" d="M257.438,20.566v-8.262c0-1.281-0.27-2.213-0.809-2.795s-1.375-0.873-2.508-0.873
			c-1.523,0-2.639,0.385-3.346,1.154s-1.061,2.018-1.061,3.744v7.031h-1.16V7.828h0.984l0.223,1.746h0.07
			c0.828-1.328,2.301-1.992,4.418-1.992c2.891,0,4.336,1.551,4.336,4.652v8.332H257.438z"/>
		<path fill="#666666" d="M270.445,20.566l-0.293-2.016h-0.094c-0.641,0.82-1.299,1.4-1.975,1.74s-1.475,0.51-2.396,0.51
			c-1.25,0-2.223-0.32-2.918-0.961s-1.043-1.527-1.043-2.66c0-1.242,0.518-2.207,1.553-2.895s2.533-1.051,4.494-1.09l2.426-0.07
			v-0.844c0-1.211-0.246-2.125-0.738-2.742s-1.285-0.926-2.379-0.926c-1.18,0-2.402,0.328-3.668,0.984L262.98,8.59
			c1.398-0.656,2.781-0.984,4.148-0.984c1.398,0,2.443,0.363,3.135,1.09s1.037,1.859,1.037,3.398v8.473H270.445z M265.758,19.746
			c1.359,0,2.432-0.389,3.217-1.166s1.178-1.857,1.178-3.24v-1.254l-2.227,0.094c-1.789,0.086-3.064,0.365-3.826,0.838
			s-1.143,1.209-1.143,2.209c0,0.797,0.244,1.416,0.732,1.857S264.867,19.746,265.758,19.746z"/>
		<path fill="#666666" d="M285.363,7.828v0.809l-2.637,0.164c0.703,0.875,1.055,1.836,1.055,2.883c0,1.227-0.408,2.221-1.225,2.982
			s-1.912,1.143-3.287,1.143c-0.578,0-0.984-0.023-1.219-0.07c-0.461,0.242-0.813,0.527-1.055,0.855s-0.363,0.676-0.363,1.043
			c0,0.406,0.154,0.703,0.463,0.891s0.826,0.281,1.553,0.281h2.227c1.383,0,2.441,0.279,3.176,0.838s1.102,1.385,1.102,2.479
			c0,1.344-0.545,2.381-1.635,3.111s-2.643,1.096-4.658,1.096c-1.602,0-2.842-0.309-3.721-0.926s-1.318-1.477-1.318-2.578
			c0-0.875,0.271-1.602,0.814-2.18s1.279-0.973,2.209-1.184c-0.383-0.164-0.689-0.396-0.92-0.697s-0.346-0.646-0.346-1.037
			c0-0.852,0.543-1.602,1.629-2.25c-0.742-0.305-1.32-0.783-1.734-1.436s-0.621-1.4-0.621-2.244c0-1.273,0.404-2.295,1.213-3.064
			s1.9-1.154,3.275-1.154c0.836,0,1.484,0.082,1.945,0.246H285.363z M275.051,22.723c0,1.75,1.301,2.625,3.902,2.625
			c3.344,0,5.016-1.066,5.016-3.199c0-0.766-0.262-1.32-0.785-1.664s-1.371-0.516-2.543-0.516h-2.086
			C276.219,19.969,275.051,20.887,275.051,22.723z M276.023,11.801c0,0.984,0.299,1.748,0.896,2.291s1.396,0.814,2.396,0.814
			c1.063,0,1.877-0.27,2.443-0.809s0.85-1.32,0.85-2.344c0-1.086-0.291-1.9-0.873-2.443s-1.396-0.814-2.443-0.814
			c-1.016,0-1.814,0.291-2.396,0.873S276.023,10.762,276.023,11.801z"/>
		<path fill="#666666" d="M298.512,14.18c0,2.078-0.504,3.701-1.512,4.869s-2.398,1.752-4.172,1.752
			c-1.117,0-2.102-0.27-2.953-0.809s-1.504-1.313-1.957-2.32s-0.68-2.172-0.68-3.492c0-2.078,0.504-3.697,1.512-4.857
			s2.391-1.74,4.148-1.74c1.75,0,3.123,0.588,4.119,1.764S298.512,12.133,298.512,14.18z M288.457,14.18
			c0,1.75,0.385,3.115,1.154,4.096s1.857,1.471,3.264,1.471s2.494-0.49,3.264-1.471s1.154-2.346,1.154-4.096
			c0-1.758-0.389-3.121-1.166-4.09s-1.869-1.453-3.275-1.453s-2.49,0.482-3.252,1.447S288.457,12.414,288.457,14.18z"/>
		<path fill="#666666" d="M299.906,7.828h1.195l2.695,7.148c0.82,2.195,1.34,3.676,1.559,4.441h0.07
			c0.328-1.008,0.863-2.512,1.605-4.512l2.695-7.078h1.195l-5.707,14.801c-0.461,1.203-0.848,2.016-1.16,2.438
			s-0.678,0.738-1.096,0.949s-0.924,0.316-1.518,0.316c-0.445,0-0.941-0.082-1.488-0.246v-1.008
			c0.453,0.125,0.941,0.188,1.465,0.188c0.398,0,0.75-0.094,1.055-0.281s0.58-0.479,0.826-0.873s0.531-1.02,0.855-1.875
			s0.533-1.412,0.627-1.67L299.906,7.828z"/>
		<path fill="#666666" d="M320.789,20.566l-0.293-2.016h-0.094c-0.641,0.82-1.299,1.4-1.975,1.74s-1.475,0.51-2.396,0.51
			c-1.25,0-2.223-0.32-2.918-0.961s-1.043-1.527-1.043-2.66c0-1.242,0.518-2.207,1.553-2.895s2.533-1.051,4.494-1.09l2.426-0.07
			v-0.844c0-1.211-0.246-2.125-0.738-2.742s-1.285-0.926-2.379-0.926c-1.18,0-2.402,0.328-3.668,0.984l-0.434-1.008
			c1.398-0.656,2.781-0.984,4.148-0.984c1.398,0,2.443,0.363,3.135,1.09s1.037,1.859,1.037,3.398v8.473H320.789z M316.102,19.746
			c1.359,0,2.432-0.389,3.217-1.166s1.178-1.857,1.178-3.24v-1.254l-2.227,0.094c-1.789,0.086-3.064,0.365-3.826,0.838
			s-1.143,1.209-1.143,2.209c0,0.797,0.244,1.416,0.732,1.857S315.211,19.746,316.102,19.746z"/>
		<path fill="#666666" d="M324.715,14.566v-0.961h5.566v0.961H324.715z"/>
		<path fill="#666666" d="M334.5,7.828v8.25c0,1.281,0.27,2.213,0.809,2.795s1.375,0.873,2.508,0.873
			c1.516,0,2.631-0.383,3.346-1.148s1.072-2.012,1.072-3.738V7.828h1.148v12.738h-0.984l-0.211-1.758h-0.07
			c-0.828,1.328-2.301,1.992-4.418,1.992c-2.898,0-4.348-1.551-4.348-4.652v-8.32H334.5z"/>
		<path fill="#666666" d="M347.414,19.652c0-0.766,0.313-1.148,0.938-1.148c0.641,0,0.961,0.383,0.961,1.148
			s-0.32,1.148-0.961,1.148C347.727,20.801,347.414,20.418,347.414,19.652z"/>
		<path fill="#666666" d="M361.09,20.566l-0.293-2.016h-0.094c-0.641,0.82-1.299,1.4-1.975,1.74s-1.475,0.51-2.396,0.51
			c-1.25,0-2.223-0.32-2.918-0.961s-1.043-1.527-1.043-2.66c0-1.242,0.518-2.207,1.553-2.895s2.533-1.051,4.494-1.09l2.426-0.07
			v-0.844c0-1.211-0.246-2.125-0.738-2.742s-1.285-0.926-2.379-0.926c-1.18,0-2.402,0.328-3.668,0.984l-0.434-1.008
			c1.398-0.656,2.781-0.984,4.148-0.984c1.398,0,2.443,0.363,3.135,1.09s1.037,1.859,1.037,3.398v8.473H361.09z M356.402,19.746
			c1.359,0,2.432-0.389,3.217-1.166s1.178-1.857,1.178-3.24v-1.254l-2.227,0.094c-1.789,0.086-3.064,0.365-3.826,0.838
			s-1.143,1.209-1.143,2.209c0,0.797,0.244,1.416,0.732,1.857S355.512,19.746,356.402,19.746z"/>
		<path fill="#666666" d="M371.156,20.801c-1.82,0-3.246-0.574-4.277-1.723s-1.547-2.75-1.547-4.805
			c0-2.109,0.535-3.752,1.605-4.928s2.535-1.764,4.395-1.764c1.102,0,2.156,0.191,3.164,0.574l-0.316,1.031
			c-1.102-0.367-2.059-0.551-2.871-0.551c-1.563,0-2.746,0.482-3.551,1.447s-1.207,2.354-1.207,4.166
			c0,1.719,0.402,3.064,1.207,4.037s1.93,1.459,3.375,1.459c1.156,0,2.23-0.207,3.223-0.621v1.078
			C373.543,20.602,372.477,20.801,371.156,20.801z"/>
		<path fill="#666666" d="M377.238,19.652c0-0.766,0.313-1.148,0.938-1.148c0.641,0,0.961,0.383,0.961,1.148
			s-0.32,1.148-0.961,1.148C377.551,20.801,377.238,20.418,377.238,19.652z"/>
		<path fill="#666666" d="M381.48,26.332c-0.625,0-1.152-0.098-1.582-0.293v-1.008c0.539,0.156,1.043,0.234,1.512,0.234
			c1.18,0,1.77-0.688,1.77-2.063V7.828h1.16v15.211c0,1.055-0.248,1.867-0.744,2.438S382.395,26.332,381.48,26.332z M383.016,4.289
			c0-0.75,0.246-1.125,0.738-1.125c0.242,0,0.432,0.098,0.568,0.293s0.205,0.473,0.205,0.832c0,0.352-0.068,0.629-0.205,0.832
			s-0.326,0.305-0.568,0.305C383.262,5.426,383.016,5.047,383.016,4.289z"/>
		<path fill="#666666" d="M394.055,20.801c-1.961,0-3.391-0.734-4.289-2.203h-0.082l0.035,0.984
			c0.031,0.578,0.047,1.211,0.047,1.898v4.852h-1.16V7.828h0.984l0.223,1.816h0.07c0.875-1.375,2.273-2.063,4.195-2.063
			c1.719,0,3.029,0.564,3.932,1.693s1.354,2.771,1.354,4.928c0,2.094-0.475,3.717-1.424,4.869S395.695,20.801,394.055,20.801z
			 M394.031,19.77c1.305,0,2.314-0.484,3.029-1.453s1.072-2.324,1.072-4.066c0-3.742-1.352-5.613-4.055-5.613
			c-1.484,0-2.574,0.408-3.27,1.225s-1.043,2.146-1.043,3.99v0.375c0,1.992,0.334,3.414,1.002,4.266S392.523,19.77,394.031,19.77z"
			/>
	</g>
</g>
<g>
</g>
<g>
</g>
<g>
</g>
<g>
</g>
<g>
</g>
</svg>
