<?xml version="1.0" encoding="utf-8"?>
<!-- Generator: Adobe Illustrator 16.0.0, SVG Export Plug-In . SVG Version: 6.00 Build 0)  -->
<!DOCTYPE svg PUBLIC "-//W3C//DTD SVG 1.1//EN" "http://www.w3.org/Graphics/SVG/1.1/DTD/svg11.dtd">
<svg version="1.1" id="レイヤー_1" xmlns="http://www.w3.org/2000/svg" xmlns:xlink="http://www.w3.org/1999/xlink" x="0px"
	 y="0px" width="293.121px" height="27.023px" viewBox="0 0 293.121 27.023" enable-background="new 0 0 293.121 27.023"
	 xml:space="preserve">
<g>
	<g>
		<path fill="#666666" d="M11.016,20.566v-8.262c0-1.281-0.27-2.213-0.809-2.795S8.832,8.637,7.699,8.637
			c-1.523,0-2.639,0.385-3.346,1.154s-1.061,2.018-1.061,3.744v7.031h-1.16V7.828h0.984L3.34,9.574h0.07
			c0.828-1.328,2.301-1.992,4.418-1.992c2.891,0,4.336,1.551,4.336,4.652v8.332H11.016z"/>
		<path fill="#666666" d="M17.297,7.828v8.25c0,1.281,0.27,2.213,0.809,2.795s1.375,0.873,2.508,0.873
			c1.516,0,2.631-0.383,3.346-1.148s1.072-2.012,1.072-3.738V7.828h1.148v12.738h-0.984l-0.211-1.758h-0.07
			c-0.828,1.328-2.301,1.992-4.418,1.992c-2.898,0-4.348-1.551-4.348-4.652v-8.32H17.297z"/>
		<path fill="#666666" d="M40.98,14.18c0,2.078-0.504,3.701-1.512,4.869s-2.398,1.752-4.172,1.752c-1.117,0-2.102-0.27-2.953-0.809
			s-1.504-1.313-1.957-2.32s-0.68-2.172-0.68-3.492c0-2.078,0.504-3.697,1.512-4.857s2.391-1.74,4.148-1.74
			c1.75,0,3.123,0.588,4.119,1.764S40.98,12.133,40.98,14.18z M30.926,14.18c0,1.75,0.385,3.115,1.154,4.096
			s1.857,1.471,3.264,1.471s2.494-0.49,3.264-1.471s1.154-2.346,1.154-4.096c0-1.758-0.389-3.121-1.166-4.09
			s-1.869-1.453-3.275-1.453s-2.49,0.482-3.252,1.447S30.926,12.414,30.926,14.18z"/>
		<path fill="#666666" d="M49.594,20.801c-1.82,0-3.246-0.574-4.277-1.723s-1.547-2.75-1.547-4.805c0-2.109,0.535-3.752,1.605-4.928
			s2.535-1.764,4.395-1.764c1.102,0,2.156,0.191,3.164,0.574l-0.316,1.031c-1.102-0.367-2.059-0.551-2.871-0.551
			c-1.563,0-2.746,0.482-3.551,1.447s-1.207,2.354-1.207,4.166c0,1.719,0.402,3.064,1.207,4.037s1.93,1.459,3.375,1.459
			c1.156,0,2.23-0.207,3.223-0.621v1.078C51.98,20.602,50.914,20.801,49.594,20.801z"/>
		<path fill="#666666" d="M66.094,20.566l-2.789-8.52c-0.18-0.578-0.41-1.426-0.691-2.543h-0.07l-0.246,0.867L61.77,12.07
			l-2.836,8.496h-1.148L54.141,7.828h1.242l2.039,7.383c0.477,1.828,0.789,3.172,0.938,4.031h0.07
			c0.461-1.828,0.797-3.043,1.008-3.645l2.625-7.77h1.055l2.496,7.746c0.563,1.836,0.906,3.051,1.031,3.645h0.07
			c0.063-0.508,0.375-1.867,0.938-4.078l1.945-7.313h1.172l-3.457,12.738H66.094z"/>
		<path fill="#666666" d="M73.031,19.652c0-0.766,0.313-1.148,0.938-1.148c0.641,0,0.961,0.383,0.961,1.148s-0.32,1.148-0.961,1.148
			C73.344,20.801,73.031,20.418,73.031,19.652z"/>
		<path fill="#666666" d="M86.871,17.25c0,1.141-0.434,2.018-1.301,2.631s-2.098,0.92-3.691,0.92c-1.703,0-3.055-0.262-4.055-0.785
			v-1.254c1.281,0.641,2.633,0.961,4.055,0.961c1.258,0,2.213-0.209,2.865-0.627s0.979-0.975,0.979-1.67
			c0-0.641-0.26-1.18-0.779-1.617s-1.373-0.867-2.561-1.289c-1.273-0.461-2.168-0.857-2.684-1.189s-0.904-0.707-1.166-1.125
			s-0.393-0.928-0.393-1.529c0-0.953,0.4-1.707,1.201-2.262s1.92-0.832,3.357-0.832c1.375,0,2.68,0.258,3.914,0.773L86.18,9.41
			c-1.25-0.516-2.41-0.773-3.48-0.773c-1.039,0-1.863,0.172-2.473,0.516s-0.914,0.82-0.914,1.43c0,0.664,0.236,1.195,0.709,1.594
			s1.396,0.844,2.771,1.336c1.148,0.414,1.984,0.787,2.508,1.119s0.916,0.709,1.178,1.131S86.871,16.68,86.871,17.25z"/>
		<path fill="#666666" d="M91.16,7.828v8.25c0,1.281,0.27,2.213,0.809,2.795s1.375,0.873,2.508,0.873
			c1.516,0,2.631-0.383,3.346-1.148s1.072-2.012,1.072-3.738V7.828h1.148v12.738h-0.984l-0.211-1.758h-0.07
			c-0.828,1.328-2.301,1.992-4.418,1.992c-2.898,0-4.348-1.551-4.348-4.652v-8.32H91.16z"/>
		<path fill="#666666" d="M109.758,20.801c-1.961,0-3.391-0.734-4.289-2.203h-0.082l0.035,0.984
			c0.031,0.578,0.047,1.211,0.047,1.898v4.852h-1.16V7.828h0.984l0.223,1.816h0.07c0.875-1.375,2.273-2.063,4.195-2.063
			c1.719,0,3.029,0.564,3.932,1.693s1.354,2.771,1.354,4.928c0,2.094-0.475,3.717-1.424,4.869S111.398,20.801,109.758,20.801z
			 M109.734,19.77c1.305,0,2.314-0.484,3.029-1.453s1.072-2.324,1.072-4.066c0-3.742-1.352-5.613-4.055-5.613
			c-1.484,0-2.574,0.408-3.27,1.225s-1.043,2.146-1.043,3.99v0.375c0,1.992,0.334,3.414,1.002,4.266S108.227,19.77,109.734,19.77z"
			/>
		<path fill="#666666" d="M124.043,20.801c-1.961,0-3.391-0.734-4.289-2.203h-0.082l0.035,0.984
			c0.031,0.578,0.047,1.211,0.047,1.898v4.852h-1.16V7.828h0.984l0.223,1.816h0.07c0.875-1.375,2.273-2.063,4.195-2.063
			c1.719,0,3.029,0.564,3.932,1.693s1.354,2.771,1.354,4.928c0,2.094-0.475,3.717-1.424,4.869S125.684,20.801,124.043,20.801z
			 M124.02,19.77c1.305,0,2.314-0.484,3.029-1.453s1.072-2.324,1.072-4.066c0-3.742-1.352-5.613-4.055-5.613
			c-1.484,0-2.574,0.408-3.27,1.225s-1.043,2.146-1.043,3.99v0.375c0,1.992,0.334,3.414,1.002,4.266S122.512,19.77,124.02,19.77z"/>
		<path fill="#666666" d="M143.414,14.18c0,2.078-0.504,3.701-1.512,4.869s-2.398,1.752-4.172,1.752
			c-1.117,0-2.102-0.27-2.953-0.809s-1.504-1.313-1.957-2.32s-0.68-2.172-0.68-3.492c0-2.078,0.504-3.697,1.512-4.857
			s2.391-1.74,4.148-1.74c1.75,0,3.123,0.588,4.119,1.764S143.414,12.133,143.414,14.18z M133.359,14.18
			c0,1.75,0.385,3.115,1.154,4.096s1.857,1.471,3.264,1.471s2.494-0.49,3.264-1.471s1.154-2.346,1.154-4.096
			c0-1.758-0.389-3.121-1.166-4.09s-1.869-1.453-3.275-1.453s-2.49,0.482-3.252,1.447S133.359,12.414,133.359,14.18z"/>
		<path fill="#666666" d="M151.957,7.582c0.539,0,1.117,0.055,1.734,0.164l-0.223,1.113c-0.531-0.133-1.082-0.199-1.652-0.199
			c-1.086,0-1.977,0.461-2.672,1.383s-1.043,2.086-1.043,3.492v7.031h-1.16V7.828h0.984l0.117,2.297h0.082
			c0.523-0.938,1.082-1.596,1.676-1.975S151.113,7.582,151.957,7.582z"/>
		<path fill="#666666" d="M159.645,19.77c0.734,0,1.375-0.063,1.922-0.188v0.938c-0.563,0.188-1.211,0.281-1.945,0.281
			c-1.125,0-1.955-0.301-2.49-0.902s-0.803-1.547-0.803-2.836V8.836h-1.887v-0.68l1.887-0.527l0.586-2.883h0.598v3.082h3.738v1.008
			h-3.738v8.063c0,0.977,0.172,1.699,0.516,2.168S158.91,19.77,159.645,19.77z"/>
		<path fill="#666666" d="M182.133,12.07c0,1.781-0.354,3.211-1.061,4.289s-1.666,1.617-2.877,1.617
			c-0.695,0-1.26-0.211-1.693-0.633s-0.686-0.996-0.756-1.723h-0.047c-0.336,0.781-0.82,1.369-1.453,1.764s-1.371,0.592-2.215,0.592
			c-1.156,0-2.051-0.377-2.684-1.131s-0.949-1.811-0.949-3.17c0-1.578,0.471-2.869,1.412-3.873s2.17-1.506,3.686-1.506
			c1.078,0,2.195,0.16,3.352,0.48l-0.258,5.438v0.352c0,0.813,0.137,1.424,0.41,1.834s0.727,0.615,1.359,0.615
			c0.805,0,1.463-0.455,1.975-1.365s0.768-2.096,0.768-3.557c0-1.516-0.309-2.844-0.926-3.984s-1.498-2.018-2.643-2.631
			s-2.451-0.92-3.92-0.92c-1.797,0-3.381,0.389-4.752,1.166s-2.426,1.877-3.164,3.299s-1.107,3.055-1.107,4.898
			c0,2.516,0.652,4.459,1.957,5.83s3.156,2.057,5.555,2.057c0.727,0,1.463-0.07,2.209-0.211s1.65-0.414,2.713-0.82v1.16
			c-1.586,0.625-3.203,0.938-4.852,0.938c-2.727,0-4.852-0.783-6.375-2.35s-2.285-3.744-2.285-6.533c0-2,0.424-3.799,1.271-5.396
			s2.047-2.838,3.598-3.721s3.303-1.324,5.256-1.324c1.68,0,3.166,0.348,4.459,1.043s2.289,1.689,2.988,2.982
			S182.133,10.367,182.133,12.07z M169.605,13.652c0,1.117,0.215,1.957,0.645,2.52s1.109,0.844,2.039,0.844
			c1.992,0,3.059-1.352,3.199-4.055l0.188-3.41c-0.617-0.211-1.371-0.316-2.262-0.316c-1.164,0-2.09,0.4-2.777,1.201
			S169.605,12.309,169.605,13.652z"/>
		<path fill="#666666" d="M195.527,7.828v0.809l-2.637,0.164c0.703,0.875,1.055,1.836,1.055,2.883c0,1.227-0.408,2.221-1.225,2.982
			s-1.912,1.143-3.287,1.143c-0.578,0-0.984-0.023-1.219-0.07c-0.461,0.242-0.813,0.527-1.055,0.855s-0.363,0.676-0.363,1.043
			c0,0.406,0.154,0.703,0.463,0.891s0.826,0.281,1.553,0.281h2.227c1.383,0,2.441,0.279,3.176,0.838s1.102,1.385,1.102,2.479
			c0,1.344-0.545,2.381-1.635,3.111s-2.643,1.096-4.658,1.096c-1.602,0-2.842-0.309-3.721-0.926s-1.318-1.477-1.318-2.578
			c0-0.875,0.271-1.602,0.814-2.18s1.279-0.973,2.209-1.184c-0.383-0.164-0.689-0.396-0.92-0.697s-0.346-0.646-0.346-1.037
			c0-0.852,0.543-1.602,1.629-2.25c-0.742-0.305-1.32-0.783-1.734-1.436s-0.621-1.4-0.621-2.244c0-1.273,0.404-2.295,1.213-3.064
			s1.9-1.154,3.275-1.154c0.836,0,1.484,0.082,1.945,0.246H195.527z M185.215,22.723c0,1.75,1.301,2.625,3.902,2.625
			c3.344,0,5.016-1.066,5.016-3.199c0-0.766-0.262-1.32-0.785-1.664s-1.371-0.516-2.543-0.516h-2.086
			C186.383,19.969,185.215,20.887,185.215,22.723z M186.188,11.801c0,0.984,0.299,1.748,0.896,2.291s1.396,0.814,2.396,0.814
			c1.063,0,1.877-0.27,2.443-0.809s0.85-1.32,0.85-2.344c0-1.086-0.291-1.9-0.873-2.443s-1.396-0.814-2.443-0.814
			c-1.016,0-1.814,0.291-2.396,0.873S186.188,10.762,186.188,11.801z"/>
		<path fill="#666666" d="M214.055,20.566v-8.355c0-1.242-0.242-2.148-0.727-2.719s-1.227-0.855-2.227-0.855
			c-1.305,0-2.27,0.359-2.895,1.078s-0.938,1.848-0.938,3.387v7.465h-1.184v-8.707c0-2.148-0.984-3.223-2.953-3.223
			c-1.336,0-2.309,0.389-2.918,1.166s-0.914,2.021-0.914,3.732v7.031h-1.16V7.828h0.961l0.246,1.746h0.07
			c0.352-0.633,0.852-1.123,1.5-1.471s1.363-0.521,2.145-0.521c2.008,0,3.297,0.754,3.867,2.262h0.047
			c0.414-0.727,0.971-1.285,1.67-1.676s1.494-0.586,2.385-0.586c1.391,0,2.434,0.371,3.129,1.113s1.043,1.922,1.043,3.539v8.332
			H214.055z"/>
		<path fill="#666666" d="M227.063,20.566l-0.293-2.016h-0.094c-0.641,0.82-1.299,1.4-1.975,1.74s-1.475,0.51-2.396,0.51
			c-1.25,0-2.223-0.32-2.918-0.961s-1.043-1.527-1.043-2.66c0-1.242,0.518-2.207,1.553-2.895s2.533-1.051,4.494-1.09l2.426-0.07
			v-0.844c0-1.211-0.246-2.125-0.738-2.742s-1.285-0.926-2.379-0.926c-1.18,0-2.402,0.328-3.668,0.984l-0.434-1.008
			c1.398-0.656,2.781-0.984,4.148-0.984c1.398,0,2.443,0.363,3.135,1.09s1.037,1.859,1.037,3.398v8.473H227.063z M222.375,19.746
			c1.359,0,2.432-0.389,3.217-1.166s1.178-1.857,1.178-3.24v-1.254l-2.227,0.094c-1.789,0.086-3.064,0.365-3.826,0.838
			s-1.143,1.209-1.143,2.209c0,0.797,0.244,1.416,0.732,1.857S221.484,19.746,222.375,19.746z"/>
		<path fill="#666666" d="M231.879,4.289c0-0.75,0.246-1.125,0.738-1.125c0.242,0,0.432,0.098,0.568,0.293s0.205,0.473,0.205,0.832
			c0,0.352-0.068,0.629-0.205,0.832s-0.326,0.305-0.568,0.305C232.125,5.426,231.879,5.047,231.879,4.289z M233.203,20.566h-1.16
			V7.828h1.16V20.566z"/>
		<path fill="#666666" d="M238.629,20.566h-1.16V2.332h1.16V20.566z"/>
		<path fill="#666666" d="M242.66,19.652c0-0.766,0.313-1.148,0.938-1.148c0.641,0,0.961,0.383,0.961,1.148s-0.32,1.148-0.961,1.148
			C242.973,20.801,242.66,20.418,242.66,19.652z"/>
		<path fill="#666666" d="M253.688,20.801c-1.82,0-3.246-0.574-4.277-1.723s-1.547-2.75-1.547-4.805
			c0-2.109,0.535-3.752,1.605-4.928s2.535-1.764,4.395-1.764c1.102,0,2.156,0.191,3.164,0.574l-0.316,1.031
			c-1.102-0.367-2.059-0.551-2.871-0.551c-1.563,0-2.746,0.482-3.551,1.447s-1.207,2.354-1.207,4.166
			c0,1.719,0.402,3.064,1.207,4.037s1.93,1.459,3.375,1.459c1.156,0,2.23-0.207,3.223-0.621v1.078
			C256.074,20.602,255.008,20.801,253.688,20.801z"/>
		<path fill="#666666" d="M270.539,14.18c0,2.078-0.504,3.701-1.512,4.869s-2.398,1.752-4.172,1.752
			c-1.117,0-2.102-0.27-2.953-0.809s-1.504-1.313-1.957-2.32s-0.68-2.172-0.68-3.492c0-2.078,0.504-3.697,1.512-4.857
			s2.391-1.74,4.148-1.74c1.75,0,3.123,0.588,4.119,1.764S270.539,12.133,270.539,14.18z M260.484,14.18
			c0,1.75,0.385,3.115,1.154,4.096s1.857,1.471,3.264,1.471s2.494-0.49,3.264-1.471s1.154-2.346,1.154-4.096
			c0-1.758-0.389-3.121-1.166-4.09s-1.869-1.453-3.275-1.453s-2.49,0.482-3.252,1.447S260.484,12.414,260.484,14.18z"/>
		<path fill="#666666" d="M289.98,20.566v-8.355c0-1.242-0.242-2.148-0.727-2.719s-1.227-0.855-2.227-0.855
			c-1.305,0-2.27,0.359-2.895,1.078s-0.938,1.848-0.938,3.387v7.465h-1.184v-8.707c0-2.148-0.984-3.223-2.953-3.223
			c-1.336,0-2.309,0.389-2.918,1.166s-0.914,2.021-0.914,3.732v7.031h-1.16V7.828h0.961l0.246,1.746h0.07
			c0.352-0.633,0.852-1.123,1.5-1.471s1.363-0.521,2.145-0.521c2.008,0,3.297,0.754,3.867,2.262h0.047
			c0.414-0.727,0.971-1.285,1.67-1.676s1.494-0.586,2.385-0.586c1.391,0,2.434,0.371,3.129,1.113s1.043,1.922,1.043,3.539v8.332
			H289.98z"/>
	</g>
</g>
<g>
</g>
<g>
</g>
<g>
</g>
<g>
</g>
<g>
</g>
</svg>
