<?xml version="1.0" encoding="utf-8"?>
<!-- Generator: Adobe Illustrator 21.0.0, SVG Export Plug-In . SVG Version: 6.00 Build 0)  -->
<svg version="1.1" id="レイヤー_1" xmlns="http://www.w3.org/2000/svg" xmlns:xlink="http://www.w3.org/1999/xlink" x="0px"
	 y="0px" viewBox="0 0 750 500" style="enable-background:new 0 0 750 500;" xml:space="preserve">
<style type="text/css">
	.st0{fill:#FFE0A9;}
	.st1{fill:#FFFFFF;}
	.st2{fill:url(#SVGID_1_);}
	.st3{fill:url(#SVGID_2_);}
	.st4{fill:#CC9B4C;}
	.st5{fill:url(#SVGID_3_);}
	.st6{fill:#4F2F02;}
	.st7{fill:url(#SVGID_4_);}
	.st8{fill:url(#SVGID_5_);}
	.st9{fill:#A07227;}
	.st10{clip-path:url(#SVGID_7_);fill:#845B1F;}
	.st11{clip-path:url(#SVGID_9_);fill:#AD844E;}
	.st12{clip-path:url(#SVGID_11_);fill:#AD844E;}
	.st13{clip-path:url(#SVGID_13_);fill:#845B1F;}
	.st14{clip-path:url(#SVGID_15_);fill:#845B1F;}
	.st15{clip-path:url(#SVGID_17_);fill:#AD844E;}
	.st16{clip-path:url(#SVGID_19_);fill:#AD844E;}
	.st17{clip-path:url(#SVGID_21_);fill:#845B1F;}
	.st18{clip-path:url(#SVGID_23_);fill:#AD844E;}
</style>
<rect y="-0.2" class="st0" width="750" height="500"/>
<path class="st1" d="M279.5,334.5c0,0,9.5-31,33.5-17s4.5,83-16.8,92s-40.2,0-40.2,0s-3-22-5-21s49.3,23.8,53-24.8
	s-17.1-34.3-36,8.1s-2-32.3-2-32.3L279.5,334.5z"/>
<g>
	<ellipse class="st1" cx="175.5" cy="297.5" rx="112" ry="37"/>
	<path class="st1" d="M63.5,297.5c0,0-0.5,161,112,162s112-162,112-162H63.5z"/>
	
		<radialGradient id="SVGID_1_" cx="170.6626" cy="382.5023" r="91.4121" gradientTransform="matrix(0.8442 0 0 0.5656 30.7915 184.9336)" gradientUnits="userSpaceOnUse">
		<stop  offset="9.404007e-02" style="stop-color:#AF976E;stop-opacity:0.1441"/>
		<stop  offset="1" style="stop-color:#FFFFFF"/>
	</radialGradient>
	<path class="st2" d="M85.4,343.2c0,0-0.4,115.5,89.5,116.2c89.9,0.7,89.5-116.2,89.5-116.2H85.4z"/>
	
		<linearGradient id="SVGID_2_" gradientUnits="userSpaceOnUse" x1="172.0094" y1="433.5754" x2="172.0094" y2="230.568" gradientTransform="matrix(0.8442 0 0 0.4532 30.7915 246.6767)">
		<stop  offset="7.122138e-02" style="stop-color:#FFFFFF;stop-opacity:0"/>
		<stop  offset="0.1915" style="stop-color:#FFFFFF;stop-opacity:0.59"/>
		<stop  offset="0.4254" style="stop-color:#FFFFFF"/>
	</linearGradient>
	<path class="st3" d="M74,351.2c0,0-0.5,91.4,102,92c102.5,0.6,102-92,102-92H74z"/>
</g>
<ellipse class="st4" cx="175.5" cy="311.5" rx="88.5" ry="22.5"/>
<radialGradient id="SVGID_3_" cx="175.5" cy="312.1432" r="48.902" gradientTransform="matrix(1.194 0 0 0.2765 -33.6075 227.9016)" gradientUnits="userSpaceOnUse">
	<stop  offset="0.4649" style="stop-color:#FFFFFF;stop-opacity:0"/>
	<stop  offset="0.5451" style="stop-color:#FFFFFF;stop-opacity:0"/>
	<stop  offset="0.7959" style="stop-color:#FFFFFF;stop-opacity:0.3"/>
	<stop  offset="0.934" style="stop-color:#FFFFFF;stop-opacity:0.1471"/>
	<stop  offset="0.9343" style="stop-color:#FFFFFF;stop-opacity:0.1"/>
	<stop  offset="1" style="stop-color:#FFFFFF;stop-opacity:0"/>
</radialGradient>
<ellipse class="st5" cx="175.9" cy="314.2" rx="80" ry="15.7"/>
<g>
	<path class="st1" d="M153.8,242.1c0,0-14.8-10.4-8.2-32.2c6.6-21.8,24.3-97.7,24.3-97.7s29.3-2.1,53.3,20.8S260,210.5,238,206
		c-29.8-6.1-71.6,4-72.7,19.5c-1.1,15.6,7.7,24.9,7.7,24.9L153.8,242.1z"/>
	<path class="st1" d="M152.4,188.8c0,0,4.6-23.6-14.2-39.2c-16.6-13.7-22.3-24.6-22.3-24.6c-14.5-60.6,88.7-64.3,88.7-64.3
		s135.5-18.3,199.1,3.7c68.9,23.9,143.5,8.4,176.1,10.7c29,2,55.3,12.6,79.1,38.4c24.3,26.4,30.8,73.7,15.4,92.3
		c-13.1,15.8-33.9,32.9-100.6,42.7s-232.3-7-270.3-18c-38-11-74.2-29.4-88.1-27.3c-11.3,1.7-18,1.6-18,1.6L152.4,188.8z"/>
</g>
<g>
	<path class="st6" d="M323,179.7v7.4c-4.6,2.7-10,4-16.1,4c-4.9,0-9.1-1.1-12.6-3.2c-3.4-2.1-6.2-5-8.2-8.7c-2-3.7-3-7.7-3-12
		c0-6.9,2.3-12.6,6.9-17.3c4.6-4.7,10.3-7,17-7c4.6,0,9.8,1.3,15.5,3.9v7.2c-5.2-3.1-10.2-4.7-15.2-4.7c-5.1,0-9.3,1.7-12.6,5.1
		c-3.3,3.4-5,7.7-5,12.8c0,5.2,1.6,9.4,4.9,12.7c3.3,3.3,7.5,5,12.6,5C312.7,184.9,317.9,183.2,323,179.7z"/>
	<path class="st6" d="M343.8,159.5c4.4,0,8,1.5,10.9,4.6c2.9,3,4.4,6.9,4.4,11.5c0,4.5-1.5,8.2-4.4,11.1c-2.9,3-6.7,4.4-11.1,4.4
		c-4.3,0-7.9-1.5-10.8-4.5c-2.9-3-4.4-6.7-4.4-11.2c0-4.5,1.5-8.3,4.4-11.3C335.6,161,339.3,159.5,343.8,159.5z M343.4,165
		c-2.7,0-5,1-6.7,2.9c-1.8,1.9-2.6,4.4-2.6,7.4c0,3,0.9,5.4,2.7,7.3c1.8,1.9,4.1,2.8,6.9,2.8c2.8,0,5.1-0.9,6.9-2.8
		c1.8-1.9,2.7-4.3,2.7-7.3c0-2.9-0.9-5.4-2.8-7.3C348.6,166,346.3,165,343.4,165z"/>
	<path class="st6" d="M368.4,159.6v-1.9c0-5,1.1-8.7,3.2-11.2c2.1-2.4,4.7-3.7,7.6-3.7c1.3,0,2.8,0.2,4.5,0.6v6
		c-1-0.4-1.9-0.5-2.8-0.5c-2.4,0-4.1,0.6-5,1.9c-0.9,1.3-1.4,3.6-1.4,6.8v1.9h5.5v5.5h-5.5v25.5h-6.1v-25.5h-4.4v-5.5H368.4z"/>
	<path class="st6" d="M390.5,159.6v-1.9c0-5,1.1-8.7,3.2-11.2c2.1-2.4,4.7-3.7,7.6-3.7c1.3,0,2.8,0.2,4.5,0.6v6
		c-1-0.4-1.9-0.5-2.8-0.5c-2.4,0-4.1,0.6-5,1.9c-0.9,1.3-1.4,3.6-1.4,6.8v1.9h5.5v5.5h-5.5v25.5h-6.1v-25.5h-4.4v-5.5H390.5z"/>
	<path class="st6" d="M433.5,175.6h-21.8c0.2,3,1.2,5.3,3,7.1s4.2,2.6,7.1,2.6c4,0,7.8-1.3,11.2-3.8v6c-1.9,1.3-3.8,2.2-5.6,2.7
		c-1.9,0.5-4,0.8-6.5,0.8c-3.4,0-6.2-0.7-8.3-2.1c-2.1-1.4-3.8-3.3-5.1-5.7c-1.3-2.4-1.9-5.2-1.9-8.3c0-4.7,1.3-8.6,4-11.5
		c2.7-3,6.1-4.4,10.4-4.4c4.1,0,7.4,1.4,9.8,4.3c2.4,2.9,3.7,6.7,3.7,11.6V175.6z M411.8,172h15.6c-0.2-2.4-0.9-4.3-2.2-5.7
		c-1.3-1.3-3.1-2-5.3-2s-4,0.7-5.4,2C413.2,167.6,412.2,169.5,411.8,172z"/>
	<path class="st6" d="M466.5,175.6h-21.8c0.2,3,1.2,5.3,3,7.1s4.2,2.6,7.1,2.6c4,0,7.8-1.3,11.2-3.8v6c-1.9,1.3-3.8,2.2-5.6,2.7
		c-1.9,0.5-4,0.8-6.5,0.8c-3.4,0-6.2-0.7-8.3-2.1c-2.1-1.4-3.8-3.3-5.1-5.7c-1.3-2.4-1.9-5.2-1.9-8.3c0-4.7,1.3-8.6,4-11.5
		c2.7-3,6.1-4.4,10.4-4.4c4.1,0,7.4,1.4,9.8,4.3c2.4,2.9,3.7,6.7,3.7,11.6V175.6z M444.9,172h15.6c-0.2-2.4-0.9-4.3-2.2-5.7
		c-1.3-1.3-3.1-2-5.3-2s-4,0.7-5.4,2C446.2,167.6,445.3,169.5,444.9,172z"/>
	<path class="st6" d="M522.5,143.5h6.1v47.1h-6.1v-20.5h-23.8v20.5h-6.1v-47.1h6.1v20.3h23.8V143.5z"/>
	<path class="st6" d="M550.2,159.5c4.4,0,8,1.5,10.9,4.6s4.4,6.9,4.4,11.5c0,4.5-1.5,8.2-4.4,11.1c-2.9,3-6.7,4.4-11.1,4.4
		c-4.3,0-7.9-1.5-10.8-4.5c-2.9-3-4.4-6.7-4.4-11.2c0-4.5,1.5-8.3,4.4-11.3C542,161,545.7,159.5,550.2,159.5z M549.8,165
		c-2.7,0-5,1-6.7,2.9c-1.8,1.9-2.6,4.4-2.6,7.4c0,3,0.9,5.4,2.7,7.3c1.8,1.9,4.1,2.8,6.9,2.8c2.8,0,5.1-0.9,6.9-2.8s2.7-4.3,2.7-7.3
		c0-2.9-0.9-5.4-2.8-7.3C555,166,552.7,165,549.8,165z"/>
	<path class="st6" d="M591.8,190.6v-4c-1.3,1.4-2.8,2.5-4.5,3.3c-1.7,0.8-3.3,1.2-5,1.2c-2,0-3.8-0.5-5.4-1.5c-1.7-1-2.9-2.3-3.7-4
		c-0.8-1.7-1.3-4.5-1.3-8.3v-17.8h6.1v17.7c0,3.3,0.5,5.5,1.4,6.8c0.9,1.3,2.6,1.9,4.9,1.9c2.9,0,5.4-1.4,7.4-4.3v-22.1h6.1v31
		H591.8z"/>
	<path class="st6" d="M613.1,159.6v7.1l0.3-0.5c3-4.8,5.9-7.2,8.9-7.2c2.3,0,4.7,1.2,7.2,3.5l-3.2,5.4c-2.1-2-4.1-3-5.9-3
		c-2,0-3.7,0.9-5.1,2.8c-1.4,1.9-2.2,4.1-2.2,6.7v16.2H607v-31H613.1z"/>
</g>
<g>
	<path class="st6" d="M193.2,87.3c2.4,0,4.7,0.6,6.9,1.8v4.2c-2.5-1.5-4.8-2.3-6.8-2.3c-1.2,0-2.1,0.2-2.8,0.7s-1,1.1-1,1.9
		c0,0.9,0.6,1.8,1.9,2.6c0.4,0.2,1.7,0.9,4.1,2c2,0.9,3.5,2,4.4,3.2s1.3,2.6,1.3,4.2c0,2.1-0.8,3.8-2.3,5.1s-3.5,1.9-5.9,1.9
		c-1.6,0-2.9-0.2-4.1-0.5s-2.4-0.9-3.8-1.8v-4.7c2.6,2.2,5.1,3.3,7.4,3.3c1.2,0,2.1-0.3,2.8-0.8s1.1-1.2,1.1-2
		c0-1.1-0.6-2.1-1.9-2.8c-1-0.6-2.4-1.2-4-2c-1.9-0.9-3.4-1.9-4.3-3.1s-1.4-2.5-1.4-4.1c0-2.1,0.8-3.7,2.3-4.9
		S190.6,87.3,193.2,87.3z"/>
	<path class="st6" d="M213.9,95.5c1.2,0,2.2,0.3,3,0.9c0.8,0.6,1.5,1.4,1.9,2.4c0.9-1.1,1.8-2,2.6-2.5s1.8-0.8,2.9-0.8
		c1.6,0,3,0.6,4,1.7s1.5,2.6,1.5,4.5v10.5h-4.1v-9.8c0-1.1-0.2-2-0.7-2.7s-1.1-1-2-1c-1.3,0-2.5,0.8-3.6,2.5v10.9h-4.1v-9.9
		c0-1.1-0.2-2-0.7-2.6c-0.5-0.6-1.1-1-2-1c-0.7,0-1.3,0.2-1.8,0.6s-1.2,1.1-1.8,1.9v10.9h-4.1V95.8h4.1v2.3c0.7-0.9,1.5-1.5,2.3-2
		S212.9,95.5,213.9,95.5z"/>
	<path class="st6" d="M240.3,95.5c2.1,0,3.7,0.4,4.8,1.3s1.7,2.1,1.7,3.8v8c0,0.6,0.3,0.9,0.8,0.9c0.2,0,0.5-0.1,0.9-0.3
		s0.7-0.4,1-0.6v2.5c-1.5,0.9-2.9,1.4-4.1,1.4c-0.8,0-1.4-0.1-1.8-0.4s-0.7-0.7-0.9-1.4c-1.7,1.2-3.3,1.8-5,1.8
		c-1.2,0-2.2-0.4-3-1.2s-1.3-1.8-1.3-2.9c0-1.4,0.4-2.5,1.3-3.4s2.3-1.5,4.4-2.1l3.5-1v-0.8c0-1.6-1-2.4-2.9-2.4c-1,0-2,0.2-3,0.7
		s-1.9,1.1-2.7,2v-3.9C235.7,96.2,237.9,95.5,240.3,95.5z M237.7,107.8c0,0.6,0.2,1.1,0.6,1.4s0.9,0.5,1.4,0.5
		c0.9,0,1.9-0.4,2.8-1.3v-4.3c-1.2,0.4-2.2,0.8-2.8,1.2s-1.2,0.7-1.5,1.1S237.7,107.3,237.7,107.8z"/>
	<path class="st6" d="M257.5,87.6v24.6h-4.3V87.6H257.5z"/>
	<path class="st6" d="M267.1,87.6v24.6h-4.3V87.6H267.1z"/>
	<path class="st6" d="M283.6,87.6l5.1,15.2l5.3-15.2h3.3l5.4,15.2l5.1-15.2h4l-8.4,24.9h-1.3l-6.4-18.2l-6.4,18.2h-1.3l-8.4-24.9
		H283.6z"/>
	<path class="st6" d="M319.6,95.5c1.6,0,3,0.4,4.3,1.1s2.3,1.7,3,3c0.7,1.3,1.1,2.7,1.1,4.4c0,1.7-0.3,3.2-1,4.5
		c-0.7,1.3-1.7,2.3-3,3s-2.8,1.1-4.4,1.1c-1.6,0-3.1-0.4-4.4-1.1s-2.3-1.7-3-3c-0.7-1.3-1-2.8-1-4.5c0-1.7,0.4-3.1,1.1-4.4
		c0.7-1.3,1.7-2.3,3-3C316.6,95.8,318,95.5,319.6,95.5z M315.4,103.9c0,1.6,0.4,3,1.1,3.9c0.7,1,1.7,1.5,3,1.5
		c1.3,0,2.3-0.5,3.1-1.4s1.1-2.3,1.1-4c0-1.7-0.4-3-1.1-3.9c-0.8-0.9-1.8-1.4-3.1-1.4c-1.2,0-2.2,0.5-3,1.4
		C315.8,101.1,315.4,102.3,315.4,103.9z"/>
	<path class="st6" d="M340.7,95.5c0.6,0,1.1,0.1,1.7,0.4s1.2,0.7,1.9,1.3l-1.5,3.8c-1.3-0.9-2.3-1.4-3-1.4c-0.7,0-1.3,0.2-2,0.7
		s-1.2,1.2-1.6,2s-0.6,1.6-0.6,2.5v7.5h-4.3V95.8h4.3v4.2h0.1c0.8-1.6,1.6-2.7,2.4-3.4S339.8,95.5,340.7,95.5z"/>
	<path class="st6" d="M352.2,87.6v24.6h-4.3V87.6H352.2z"/>
	<path class="st6" d="M367.8,96.2v-8.5h4.3v24.6h-7.6c-2.6,0-4.7-0.8-6.3-2.3s-2.4-3.6-2.4-6.2c0-1.5,0.4-3,1.1-4.2s1.7-2.3,3-3
		s2.7-1.1,4.2-1.1C365.2,95.5,366.5,95.7,367.8,96.2z M365.5,108.9h2.3v-9.5c-0.9-0.5-1.8-0.7-2.8-0.7c-1.4,0-2.6,0.5-3.5,1.4
		s-1.3,2.1-1.3,3.6C360.2,107.1,362,108.9,365.5,108.9z"/>
</g>
<g>
	<path class="st6" d="M447.5,340.6h11.2v4.1h-18.6v-0.3l1.8-2.1c2.8-3.4,5-6.3,6.6-8.7c1.6-2.4,2.7-4.2,3.2-5.4s0.7-2.4,0.7-3.6
		c0-1.7-0.5-3-1.4-4s-2.2-1.5-3.7-1.5c-1.2,0-2.3,0.3-3.5,1c-1.1,0.7-2.2,1.7-3.1,2.9v-5.3c2.3-1.9,4.6-2.8,7.1-2.8
		c2.6,0,4.7,0.9,6.3,2.6c1.7,1.7,2.5,3.9,2.5,6.5c0,1.2-0.2,2.4-0.6,3.8s-1.1,2.9-2.2,4.6s-2.8,4.1-5.4,7.1L447.5,340.6z"/>
	<path class="st6" d="M471,314.9c2.7,0,4.9,1.4,6.7,4.2s2.6,6.4,2.6,10.7c0,4.5-0.9,8.1-2.6,10.9c-1.8,2.8-4,4.2-6.8,4.2
		c-2.8,0-5.1-1.4-6.8-4.1c-1.7-2.7-2.6-6.3-2.6-10.9c0-4.5,0.9-8.1,2.7-10.9C465.9,316.3,468.2,314.9,471,314.9z M471.1,318.9h-0.2
		c-1.6,0-2.9,1-3.8,3c-0.9,2-1.4,4.7-1.4,8.1c0,3.5,0.5,6.2,1.4,8.2c0.9,2,2.2,3,3.8,3s2.9-1,3.8-3c0.9-2,1.4-4.7,1.4-8
		c0-3.4-0.5-6.1-1.4-8.1C473.8,319.9,472.6,318.9,471.1,318.9z"/>
	<path class="st6" d="M490.3,315.3h4.2v29.3h-4.2V315.3z"/>
	<path class="st6" d="M516.3,315.2l0.4-0.3l2.5,3.2c-2.2,1.4-4.1,3-5.6,4.7c-1.5,1.7-2.6,3.7-3.4,6c1.6-0.8,3.1-1.2,4.6-1.2
		c2.3,0,4.3,0.8,5.8,2.5c1.6,1.6,2.4,3.6,2.4,6c0,2.4-0.9,4.5-2.6,6.2c-1.7,1.7-3.8,2.6-6.3,2.6c-2.8,0-5-1-6.7-2.9
		c-1.7-1.9-2.6-4.5-2.6-7.6c0-2.4,0.4-4.7,1.3-7c0.9-2.3,2.1-4.5,3.8-6.6C511.8,318.8,513.9,317,516.3,315.2z M509.4,333.2
		c-0.1,0.7-0.2,1.4-0.2,2.2c0,1.7,0.5,3,1.4,4.1s2.2,1.6,3.7,1.6c1.3,0,2.5-0.5,3.3-1.4c0.9-0.9,1.3-2.1,1.3-3.4
		c0-1.4-0.5-2.6-1.4-3.4c-0.9-0.9-2.2-1.3-3.7-1.3c-0.8,0-1.5,0.1-2.1,0.4C511.1,332.2,510.4,332.6,509.4,333.2z"/>
	<path class="st6" d="M529.3,340c0.7,0,1.3,0.2,1.8,0.7s0.8,1.1,0.8,1.8c0,0.7-0.2,1.3-0.7,1.8c-0.5,0.5-1.1,0.7-1.8,0.7
		c-0.7,0-1.3-0.2-1.8-0.7c-0.5-0.5-0.7-1.1-0.7-1.8c0-0.7,0.2-1.3,0.7-1.8C528,340.2,528.6,340,529.3,340z"/>
	<path class="st6" d="M554.7,315.3h4.2v29.3h-4.2V315.3z"/>
	<path class="st6" d="M578.4,314.9c2.7,0,4.9,1.4,6.7,4.2s2.6,6.4,2.6,10.7c0,4.5-0.9,8.1-2.6,10.9c-1.8,2.8-4,4.2-6.8,4.2
		c-2.8,0-5.1-1.4-6.8-4.1c-1.7-2.7-2.6-6.3-2.6-10.9c0-4.5,0.9-8.1,2.7-10.9C573.3,316.3,575.6,314.9,578.4,314.9z M578.5,318.9
		h-0.2c-1.6,0-2.9,1-3.8,3c-0.9,2-1.4,4.7-1.4,8.1c0,3.5,0.5,6.2,1.4,8.2c0.9,2,2.2,3,3.8,3s2.9-1,3.8-3c0.9-2,1.4-4.7,1.4-8
		c0-3.4-0.5-6.1-1.4-8.1C581.2,319.9,580,318.9,578.5,318.9z"/>
	<path class="st6" d="M593.7,340c0.7,0,1.3,0.2,1.8,0.7s0.8,1.1,0.8,1.8c0,0.7-0.2,1.3-0.7,1.8c-0.5,0.5-1.1,0.7-1.8,0.7
		c-0.7,0-1.3-0.2-1.8-0.7c-0.5-0.5-0.7-1.1-0.7-1.8c0-0.7,0.2-1.3,0.7-1.8C592.4,340.2,593,340,593.7,340z"/>
	<path class="st6" d="M619.2,340.6h11.2v4.1h-18.6v-0.3l1.8-2.1c2.8-3.4,5-6.3,6.6-8.7c1.6-2.4,2.7-4.2,3.2-5.4s0.7-2.4,0.7-3.6
		c0-1.7-0.5-3-1.4-4s-2.2-1.5-3.7-1.5c-1.2,0-2.3,0.3-3.5,1c-1.1,0.7-2.2,1.7-3.1,2.9v-5.3c2.3-1.9,4.6-2.8,7.1-2.8
		c2.6,0,4.7,0.9,6.3,2.6c1.7,1.7,2.5,3.9,2.5,6.5c0,1.2-0.2,2.4-0.6,3.8s-1.1,2.9-2.2,4.6s-2.8,4.1-5.4,7.1L619.2,340.6z"/>
	<path class="st6" d="M640.6,315.3h4.2v29.3h-4.2V315.3z"/>
</g>
<g>
	<path class="st6" d="M469.2,375.9h3.2v22.5h-3.2V375.9z"/>
	<path class="st6" d="M487.1,375.9l0.3-0.2l2,2.4c-1.7,1.1-3.1,2.3-4.3,3.6c-1.1,1.3-2,2.9-2.6,4.6c1.2-0.6,2.4-0.9,3.6-0.9
		c1.8,0,3.3,0.6,4.5,1.9s1.8,2.8,1.8,4.6c0,1.9-0.7,3.5-2,4.8c-1.3,1.3-2.9,2-4.8,2c-2.1,0-3.8-0.7-5.1-2.2c-1.3-1.5-2-3.4-2-5.8
		c0-1.8,0.3-3.6,1-5.4c0.7-1.8,1.6-3.5,2.9-5C483.6,378.7,485.2,377.2,487.1,375.9z M481.8,389.7c-0.1,0.5-0.1,1.1-0.1,1.7
		c0,1.3,0.4,2.3,1.1,3.1c0.7,0.8,1.7,1.2,2.8,1.2c1,0,1.9-0.3,2.6-1c0.7-0.7,1-1.6,1-2.6c0-1.1-0.4-2-1.1-2.6c-0.7-0.7-1.7-1-2.8-1
		c-0.6,0-1.1,0.1-1.6,0.3C483.1,388.9,482.5,389.2,481.8,389.7z"/>
	<path class="st6" d="M497.9,390.8c0.5,0,1,0.2,1.4,0.6c0.4,0.4,0.6,0.9,0.6,1.4c0,0.5-0.2,1-0.6,1.4c-0.4,0.4-0.9,0.6-1.4,0.6
		c-0.5,0-1-0.2-1.4-0.6c-0.4-0.4-0.6-0.8-0.6-1.4c0-0.5,0.2-1,0.6-1.4C496.9,391,497.3,390.8,497.9,390.8z M498.1,379.3
		c0.5,0,1,0.2,1.4,0.6s0.6,0.9,0.6,1.4c0,0.5-0.2,1-0.6,1.4c-0.4,0.4-0.9,0.6-1.4,0.6c-0.5,0-1-0.2-1.4-0.6
		c-0.4-0.4-0.6-0.8-0.6-1.4c0-0.5,0.2-1,0.6-1.4S497.6,379.3,498.1,379.3z"/>
	<path class="st6" d="M508.6,385.4h0.2c1.4,0,2.5-0.3,3.2-0.9c0.7-0.6,1.1-1.4,1.1-2.5c0-1-0.4-1.8-1.1-2.4
		c-0.7-0.6-1.7-0.9-2.8-0.9c-1.2,0-2.5,0.4-3.9,1.1v-3.1c1.3-0.7,2.7-1,4.3-1c2.1,0,3.7,0.5,4.9,1.6c1.2,1.1,1.8,2.6,1.8,4.4
		c0,1.1-0.2,2.1-0.7,2.9c-0.5,0.8-1.2,1.4-2.2,2c0.9,0.3,1.5,0.8,1.9,1.3c0.4,0.5,0.7,1.1,1,1.8c0.2,0.7,0.3,1.5,0.3,2.3
		c0,2-0.7,3.6-2,4.9s-3,1.9-5,1.9c-1.7,0-3.4-0.4-4.9-1.2V394c1.7,1.1,3.3,1.6,4.9,1.6c1.1,0,2-0.3,2.6-1c0.7-0.6,1-1.5,1-2.6
		c0-0.9-0.3-1.7-0.8-2.3c-0.3-0.4-0.7-0.7-1.1-0.8c-0.4-0.2-1.2-0.3-2.5-0.5l-0.3,0V385.4z"/>
	<path class="st6" d="M527.5,375.7c2.1,0,3.8,1.1,5.1,3.2c1.3,2.2,2,4.9,2,8.2c0,3.4-0.7,6.2-2,8.3c-1.3,2.1-3.1,3.2-5.2,3.2
		c-2.2,0-3.9-1-5.3-3.1c-1.3-2.1-2-4.9-2-8.3c0-3.4,0.7-6.2,2-8.3C523.6,376.7,525.3,375.7,527.5,375.7z M527.6,378.7h-0.2
		c-1.2,0-2.2,0.8-2.9,2.3c-0.7,1.5-1.1,3.6-1.1,6.2c0,2.7,0.4,4.8,1.1,6.3c0.7,1.5,1.7,2.3,2.9,2.3s2.2-0.8,2.9-2.3
		c0.7-1.5,1.1-3.6,1.1-6.2c0-2.6-0.3-4.7-1-6.2C529.7,379.5,528.7,378.7,527.6,378.7z"/>
	<path class="st6" d="M550.4,387.7c-0.7,0-1.4,0.2-2,0.5c-0.6,0.3-1.3,0.9-2.2,1.7v-3.3c1.2-1.3,2.7-1.9,4.5-1.9
		c1.2,0,2.7,0.4,4.4,1.1l1.3,0.6c0.7,0.3,1.4,0.5,2.1,0.5c1.4,0,2.8-0.7,4.2-2.2v3.4c-1.3,1.2-2.8,1.8-4.4,1.8c-1.1,0-2.4-0.3-4-1
		l-1-0.4C552.2,387.9,551.2,387.7,550.4,387.7z"/>
	<path class="st6" d="M579.9,375.9h3.2v22.5h-3.2V375.9z"/>
	<path class="st6" d="M589.2,382c0-1.8,0.7-3.3,2-4.5c1.3-1.2,2.9-1.8,4.9-1.8c1.9,0,3.5,0.6,4.8,1.8c1.3,1.2,1.9,2.7,1.9,4.5
		c0,2-0.9,3.7-2.8,5c2.1,1.2,3.1,3,3.1,5.3c0,1.9-0.7,3.4-2,4.6c-1.4,1.2-3.1,1.8-5.1,1.8c-2,0-3.8-0.6-5.1-1.9
		c-1.4-1.2-2.1-2.8-2.1-4.6c0-2.3,1.1-4.1,3.2-5.3c-1-0.8-1.6-1.5-2.1-2.3C589.4,383.9,589.2,383,589.2,382z M599.8,392.4v-0.3
		c0-1-0.4-1.9-1.1-2.5c-0.7-0.6-1.7-1-2.9-1c-1.1,0-2.1,0.3-2.8,1c-0.7,0.7-1.1,1.5-1.1,2.5s0.4,1.9,1.1,2.5c0.7,0.7,1.7,1,2.9,1
		c1.1,0,2.1-0.3,2.8-0.9C599.4,394.1,599.8,393.4,599.8,392.4z M599.5,382.1c0-1-0.3-1.8-1-2.4c-0.7-0.6-1.5-1-2.6-1
		c-1,0-1.9,0.3-2.6,0.9c-0.7,0.6-1,1.4-1,2.4c0,0.9,0.4,1.7,1.1,2.4c0.7,0.7,1.5,1,2.5,1c1,0,1.8-0.3,2.5-1
		C599.1,383.8,599.5,383,599.5,382.1z"/>
	<path class="st6" d="M608.5,390.8c0.5,0,1,0.2,1.4,0.6c0.4,0.4,0.6,0.9,0.6,1.4c0,0.5-0.2,1-0.6,1.4c-0.4,0.4-0.9,0.6-1.4,0.6
		c-0.5,0-1-0.2-1.4-0.6c-0.4-0.4-0.6-0.8-0.6-1.4c0-0.5,0.2-1,0.6-1.4C607.5,391,608,390.8,608.5,390.8z M608.8,379.3
		c0.5,0,1,0.2,1.4,0.6s0.6,0.9,0.6,1.4c0,0.5-0.2,1-0.6,1.4c-0.4,0.4-0.9,0.6-1.4,0.6c-0.5,0-1-0.2-1.4-0.6
		c-0.4-0.4-0.6-0.8-0.6-1.4c0-0.5,0.2-1,0.6-1.4S608.3,379.3,608.8,379.3z"/>
	<path class="st6" d="M621.7,375.7c2.1,0,3.8,1.1,5.1,3.2c1.3,2.2,2,4.9,2,8.2c0,3.4-0.7,6.2-2,8.3c-1.3,2.1-3.1,3.2-5.2,3.2
		c-2.2,0-3.9-1-5.3-3.1c-1.3-2.1-2-4.9-2-8.3c0-3.4,0.7-6.2,2-8.3C617.7,376.7,619.5,375.7,621.7,375.7z M621.7,378.7h-0.2
		c-1.2,0-2.2,0.8-2.9,2.3c-0.7,1.5-1.1,3.6-1.1,6.2c0,2.7,0.4,4.8,1.1,6.3c0.7,1.5,1.7,2.3,2.9,2.3s2.2-0.8,2.9-2.3
		c0.7-1.5,1.1-3.6,1.1-6.2c0-2.6-0.3-4.7-1-6.2C623.8,379.5,622.9,378.7,621.7,378.7z"/>
	<path class="st6" d="M639.8,375.7c2.1,0,3.8,1.1,5.1,3.2c1.3,2.2,2,4.9,2,8.2c0,3.4-0.7,6.2-2,8.3c-1.3,2.1-3.1,3.2-5.2,3.2
		c-2.2,0-3.9-1-5.3-3.1c-1.3-2.1-2-4.9-2-8.3c0-3.4,0.7-6.2,2-8.3C635.8,376.7,637.6,375.7,639.8,375.7z M639.8,378.7h-0.2
		c-1.2,0-2.2,0.8-2.9,2.3c-0.7,1.5-1.1,3.6-1.1,6.2c0,2.7,0.4,4.8,1.1,6.3c0.7,1.5,1.7,2.3,2.9,2.3s2.2-0.8,2.9-2.3
		c0.7-1.5,1.1-3.6,1.1-6.2c0-2.6-0.3-4.7-1-6.2C641.9,379.5,641,378.7,639.8,378.7z"/>
</g>
<linearGradient id="SVGID_4_" gradientUnits="userSpaceOnUse" x1="375" y1="32.2266" x2="375" y2="-1.1754">
	<stop  offset="0" style="stop-color:#FFFFFF;stop-opacity:0"/>
	<stop  offset="0" style="stop-color:#FFFCF6;stop-opacity:0.1911"/>
	<stop  offset="0" style="stop-color:#FFF2DC;stop-opacity:0.5087"/>
	<stop  offset="0" style="stop-color:#FFE4B3;stop-opacity:0.9115"/>
	<stop  offset="0" style="stop-color:#FFE0A9"/>
	<stop  offset="0.1296" style="stop-color:#F5D6A0"/>
	<stop  offset="0.3526" style="stop-color:#DCBA87"/>
	<stop  offset="0.6421" style="stop-color:#B28D5E"/>
	<stop  offset="0.9837" style="stop-color:#784F27"/>
	<stop  offset="1" style="stop-color:#754C24"/>
</linearGradient>
<rect y="-1.2" class="st7" width="750" height="33.4"/>
<linearGradient id="SVGID_5_" gradientUnits="userSpaceOnUse" x1="375" y1="464.1667" x2="375" y2="499.9781">
	<stop  offset="0" style="stop-color:#FFFFFF;stop-opacity:0"/>
	<stop  offset="0" style="stop-color:#FFFCF6;stop-opacity:0.1911"/>
	<stop  offset="0" style="stop-color:#FFF2DC;stop-opacity:0.5087"/>
	<stop  offset="0" style="stop-color:#FFE4B3;stop-opacity:0.9115"/>
	<stop  offset="0" style="stop-color:#FFE0A9"/>
	<stop  offset="0.1296" style="stop-color:#F5D6A0"/>
	<stop  offset="0.3526" style="stop-color:#DCBA87"/>
	<stop  offset="0.6421" style="stop-color:#B28D5E"/>
	<stop  offset="0.9837" style="stop-color:#784F27"/>
	<stop  offset="1" style="stop-color:#754C24"/>
</linearGradient>
<rect y="464.2" class="st8" width="750" height="35.8"/>
<g>
	<g>
		
			<ellipse transform="matrix(0.1283 -0.9917 0.9917 0.1283 -166.6482 239.7803)" class="st9" cx="53.1" cy="214.7" rx="16" ry="21"/>
	</g>
	<g>
		<defs>
			
				<ellipse id="SVGID_6_" transform="matrix(0.1283 -0.9917 0.9917 0.1283 -166.6482 239.7803)" cx="53.1" cy="214.7" rx="16" ry="21"/>
		</defs>
		<clipPath id="SVGID_7_">
			<use xlink:href="#SVGID_6_"  style="overflow:visible;"/>
		</clipPath>
		
			<rect x="50.6" y="188.2" transform="matrix(-0.1283 0.9917 -0.9917 -0.1283 273.4134 189.1709)" class="st10" width="6" height="53"/>
	</g>
</g>
<g>
	<g>
		<ellipse transform="matrix(0.8117 -0.5841 0.5841 0.8117 -112.909 278.2266)" class="st4" cx="375" cy="314.2" rx="21" ry="16"/>
	</g>
	<g>
		<defs>
			
				<ellipse id="SVGID_8_" transform="matrix(0.8117 -0.5841 0.5841 0.8117 -112.909 278.2266)" cx="375" cy="314.2" rx="21" ry="16"/>
		</defs>
		<clipPath id="SVGID_9_">
			<use xlink:href="#SVGID_8_"  style="overflow:visible;"/>
		</clipPath>
		
			<rect x="371.6" y="288" transform="matrix(-0.5841 -0.8117 0.8117 -0.5841 338.1419 802.2471)" class="st11" width="6" height="53"/>
	</g>
</g>
<g>
	<g>
		<ellipse transform="matrix(0.375 -0.927 0.927 0.375 186.029 811.2941)" class="st4" cx="694.7" cy="267.7" rx="16" ry="21"/>
	</g>
	<g>
		<defs>
			<ellipse id="SVGID_10_" transform="matrix(0.375 -0.927 0.927 0.375 186.029 811.2941)" cx="694.7" cy="267.7" rx="16" ry="21"/>
		</defs>
		<clipPath id="SVGID_11_">
			<use xlink:href="#SVGID_10_"  style="overflow:visible;"/>
		</clipPath>
		<rect x="691.2" y="241" transform="matrix(0.375 -0.927 0.927 0.375 185.9131 810.7472)" class="st12" width="6" height="53"/>
	</g>
</g>
<g>
	<g>
		<ellipse transform="matrix(0.1283 -0.9917 0.9917 0.1283 -59.1628 767.463)" class="st9" cx="407" cy="417.4" rx="16" ry="21"/>
	</g>
	<g>
		<defs>
			
				<ellipse id="SVGID_12_" transform="matrix(0.1283 -0.9917 0.9917 0.1283 -59.1628 767.463)" cx="407" cy="417.4" rx="16" ry="21"/>
		</defs>
		<clipPath id="SVGID_13_">
			<use xlink:href="#SVGID_12_"  style="overflow:visible;"/>
		</clipPath>
		
			<rect x="404.5" y="390.9" transform="matrix(-0.1283 0.9917 -0.9917 -0.1283 873.741 66.8882)" class="st13" width="6" height="53"/>
	</g>
</g>
<g>
	<g>
		<ellipse transform="matrix(0.9092 -0.4164 0.4164 0.9092 36.3645 293.9037)" class="st9" cx="691.9" cy="63.6" rx="21" ry="16"/>
	</g>
	<g>
		<defs>
			
				<ellipse id="SVGID_14_" transform="matrix(0.9092 -0.4164 0.4164 0.9092 36.3645 293.9037)" cx="691.9" cy="63.6" rx="21" ry="16"/>
		</defs>
		<clipPath id="SVGID_15_">
			<use xlink:href="#SVGID_14_"  style="overflow:visible;"/>
		</clipPath>
		
			<rect x="689.3" y="36.9" transform="matrix(0.4164 0.9092 -0.9092 0.4164 461.6509 -592.4584)" class="st14" width="6" height="53"/>
	</g>
</g>
<g>
	<g>
		
			<ellipse transform="matrix(7.380219e-02 -0.9973 0.9973 7.380219e-02 -375.4604 439.0979)" class="st4" cx="48.7" cy="421.7" rx="16" ry="21"/>
	</g>
	<g>
		<defs>
			
				<ellipse id="SVGID_16_" transform="matrix(7.380219e-02 -0.9973 0.9973 7.380219e-02 -375.4604 439.0979)" cx="48.7" cy="421.7" rx="16" ry="21"/>
		</defs>
		<clipPath id="SVGID_17_">
			<use xlink:href="#SVGID_16_"  style="overflow:visible;"/>
		</clipPath>
		
			<rect x="45.2" y="395.1" transform="matrix(7.380219e-02 -0.9973 0.9973 7.380219e-02 -375.8854 438.5665)" class="st15" width="6" height="53"/>
	</g>
</g>
<g>
	<g>
		<ellipse transform="matrix(0.9242 -0.3819 0.3819 0.9242 -23.5432 34.666)" class="st4" cx="75.6" cy="76.6" rx="21" ry="16"/>
	</g>
	<g>
		<defs>
			
				<ellipse id="SVGID_18_" transform="matrix(0.9242 -0.3819 0.3819 0.9242 -23.5432 34.666)" cx="75.6" cy="76.6" rx="21" ry="16"/>
		</defs>
		<clipPath id="SVGID_19_">
			<use xlink:href="#SVGID_18_"  style="overflow:visible;"/>
		</clipPath>
		
			<rect x="72.1" y="50.3" transform="matrix(-0.3819 -0.9242 0.9242 -0.3819 32.7661 175.5769)" class="st16" width="6" height="53"/>
	</g>
</g>
<g>
	<g>
		<ellipse transform="matrix(0.9694 -0.2453 0.2453 0.9694 -83.2802 181.4465)" class="st9" cx="686.7" cy="425" rx="21" ry="16"/>
	</g>
	<g>
		<defs>
			
				<ellipse id="SVGID_20_" transform="matrix(0.9694 -0.2453 0.2453 0.9694 -83.2802 181.4465)" cx="686.7" cy="425" rx="21" ry="16"/>
		</defs>
		<clipPath id="SVGID_21_">
			<use xlink:href="#SVGID_20_"  style="overflow:visible;"/>
		</clipPath>
		
			<rect x="684.2" y="398.4" transform="matrix(0.2453 0.9694 -0.9694 0.2453 930.5256 -345.5294)" class="st17" width="6" height="53"/>
	</g>
</g>
<g>
	<g>
		
			<ellipse transform="matrix(4.811368e-02 -0.9988 0.9988 4.811368e-02 392.2397 486.751)" class="st4" cx="451.5" cy="37.6" rx="16" ry="21"/>
	</g>
	<g>
		<defs>
			
				<ellipse id="SVGID_22_" transform="matrix(4.811368e-02 -0.9988 0.9988 4.811368e-02 392.2397 486.751)" cx="451.5" cy="37.6" rx="16" ry="21"/>
		</defs>
		<clipPath id="SVGID_23_">
			<use xlink:href="#SVGID_22_"  style="overflow:visible;"/>
		</clipPath>
		
			<rect x="448" y="11.1" transform="matrix(4.811368e-02 -0.9988 0.9988 4.811368e-02 391.7883 486.2293)" class="st18" width="6" height="53"/>
	</g>
</g>
</svg>
