<svg xmlns="http://www.w3.org/2000/svg" viewBox="0 0 750 500"><defs><style>.cls-1{fill:#7b68d8;}.cls-2{fill:#ffff1d;}.cls-26,.cls-3,.cls-5{fill:#fff;}.cls-3,.cls-4{stroke:#4a00bf;}.cls-13,.cls-14,.cls-16,.cls-17,.cls-20,.cls-3,.cls-34,.cls-4,.cls-5,.cls-6{stroke-miterlimit:10;}.cls-14,.cls-3,.cls-5{stroke-width:2px;}.cls-13,.cls-14,.cls-16,.cls-20,.cls-34,.cls-4,.cls-6{fill:none;}.cls-4,.cls-6{stroke-width:3.2px;}.cls-34,.cls-5,.cls-6{stroke:#fff;}.cls-7{fill:#3d3733;}.cls-8{fill:red;}.cls-9{fill:#faee00;}.cls-10{fill:#01425e;}.cls-11{fill:#ff8500;}.cls-12{fill:#38ff00;}.cls-13,.cls-14,.cls-16,.cls-17,.cls-20{stroke:#515151;}.cls-15{fill:#232323;}.cls-16{stroke-width:4px;}.cls-17,.cls-18{fill:#515151;}.cls-17,.cls-20{stroke-width:7px;}.cls-19{fill:#878787;}.cls-21{fill:#cecece;}.cls-22{fill:#606060;}.cls-23{fill:#efefef;}.cls-24{fill:#b7b7b7;}.cls-25{fill:#dbdbdb;}.cls-27{fill:#e8e8e8;}.cls-28{fill:#af2f2f;}.cls-29{fill:#1e1e1e;}.cls-30{fill:#afafaf;}.cls-31{fill:#5b5b5b;}.cls-32{fill:#fefefe;}.cls-33{fill:#545454;}.cls-35{fill:#525fff;}</style></defs><title>study_abroad_seminar</title><g id="空"><rect class="cls-1" x="-8.5" y="-8.61" width="766.66" height="517.01"/><circle class="cls-2" cx="608.91" cy="239.82" r="63.55"/><path class="cls-3" d="M57.18,136.83c0,9.82-7.17,15.33-15.54,15.33-5.85,0-128.34,1.39-128.34,1.39v-2L41.39,150c7.24,0,13.78-4.3,13.78-12.91,0-16.67-29.76-6.59-29.76-25.21,0-9.75,8.19-13.69,15.57-13.69,6.17,0,22.43.24,22.43.24v1.68s-16.8-.07-22.15-.07c-7.24,0-13.84,3-13.91,11.56C27.29,128.36,57.18,118.21,57.18,136.83Z"/><path class="cls-3" d="M80.94,100.14v52.27H78.78V100.14H62.12V98.43h41.69v1.71Z"/><path class="cls-3" d="M102.29,135.3V100.43h2v34.09c0,8.77,6.86,15.78,15.16,15.78s15.16-7,15.16-15.78V100.43h2v34.09c0,9.8-7.74,17.86-17.18,17.86A17.07,17.07,0,0,1,102.29,135.3Z"/><path class="cls-3" d="M144.57,151.73V98.65h11.62c12.74,0,23.18,12,23.18,26.54s-10.44,26.54-23.18,26.54Zm1.65-51.2v49.31h10c11.86,0,21.53-11,21.53-24.66s-9.68-24.66-21.53-24.66Z"/><path class="cls-3" d="M197.4,126.47v25.26h-1.78V126.47l-14.71-26H183l13.54,23.89,13.54-23.89h2.05Z"/><path class="cls-3" d="M246.72,100.43l16.55,51.29h-2l-3.84-12.27H235.59l-3.84,12.27h-2l16.55-51.29Zm-.19,5.26-10.26,32.2h20.45Z"/><path class="cls-3" d="M269.23,151.73V98h16c7.36,0,13.53,6.32,13.53,14a13.8,13.8,0,0,1-7.56,12.84c5.7,1.7,8.89,7.54,8.89,12.84a13.79,13.79,0,0,1-13.53,14Zm2.19-51.38V124.2h14.52c6,0,10.61-5.44,10.61-12a11.52,11.52,0,0,0-11.27-11.83Zm0,25.69v23.38h15.18a11.7,11.7,0,0,0,0-23.38Z"/><path class="cls-3" d="M333.6,151.58c-3.17-6.8-6.23-14.19-10.72-25H310.6v25h-1.67V99.43h14.53c6.4,0,11.64,6.2,11.64,13.6,0,6.67-4.38,12.28-10.38,13.53l10.78,25Zm-23-50.1v23.1h12.86c5.42,0,9.91-5,9.91-11.42s-4.38-11.68-9.91-11.68Z"/><path class="cls-3" d="M340,125.06c0-15.59,10.07-27.32,23.41-27.32s23.47,11.73,23.47,27.32-10.13,27.32-23.47,27.32S340,140.72,340,125.06Zm2,0c0,14.37,9.19,25.15,21.39,25.15s21.39-10.78,21.39-25.15S375.65,100,363.45,100,342.05,110.75,342.05,125.06Z"/><path class="cls-3" d="M404.19,100.43l17.09,51.29H419.2l-4-12.27H392.69l-4,12.27h-2.08l17.09-51.29Zm-.2,5.26L393.4,137.9h21.12Z"/><path class="cls-3" d="M429.35,151.88V99.43h11.43c12.53,0,22.81,11.82,22.81,26.23s-10.27,26.22-22.81,26.22ZM431,101.29V150h9.81c11.66,0,21.18-10.89,21.18-24.37s-9.52-24.37-21.18-24.37Z"/><path class="cls-3" d="M517,136.85c0,9.9-7.17,15.46-15.54,15.46-5.85,0-11.89-2.44-15.42-7.6l1.76-1.22a16.13,16.13,0,0,0,13.4,6.65c7.24,0,13.78-4.34,13.78-13,0-16.82-29.76-6.65-29.76-25.43,0-9.83,7.17-14.18,15.54-14.18A17.47,17.47,0,0,1,516,105.79l-1.7,1.22A15.29,15.29,0,0,0,501,99.75c-7.24,0-13.84,3-13.91,11.67C487.07,128.3,517,118.06,517,136.85Z"/><path class="cls-3" d="M525.25,151.73V98h28.57v1.7H527.2V123.8H546v1.7H527.2V150h26.62v1.7Z"/><path class="cls-3" d="M599.05,151.73h-1.8V107.25l-16.76,31.88-16.76-31.88v44.48h-1.8V100.37h.29l18.27,35,18.21-35,.41.06Z"/><path class="cls-3" d="M609.46,151.73V100.43h2.08v51.29Z"/><path class="cls-3" d="M622.8,102.81v47.92H621V99.43l2-.13,30.2,47.46V98.85H655v51.88h-1.57Z"/><path class="cls-3" d="M677.5,99.43,694,150.73h-2l-3.84-12.27H666.36l-3.84,12.27h-2l16.55-51.29Zm-.19,5.26-10.26,32.2h20.45Z"/><path class="cls-3" d="M728.58,150.73c-3.46-6.69-6.8-14-11.7-24.54h-13.4v24.54h-1.82V99.43h15.86c7,0,12.71,6.1,12.71,13.38a13.65,13.65,0,0,1-11.33,13.31l11.77,24.61Zm-25.11-49.28v22.73h14a11,11,0,0,0,10.82-11.23c0-6.36-4.78-11.49-10.82-11.49Z"/><line class="cls-4" x1="849.75" y1="149.9" x2="726.14" y2="149.9"/><path class="cls-5" d="M53.47,133.85c0,9.91-7.22,15.47-15.64,15.47-5.89,0-129.15,1.41-129.15,1.41v-2l128.9-1.56c7.28,0,13.87-4.34,13.87-13,0-16.83-30-6.65-30-25.45,0-9.84,8.24-13.81,15.67-13.81,6.21,0,22.57.24,22.57.24v1.7s-16.91-.07-22.29-.07c-7.28,0-13.93,3-14,11.67C23.39,125.3,53.47,115,53.47,133.85Z"/><path class="cls-5" d="M77.4,96.79v51.92h-2V96.79H59.74V95.1H98.87v1.7Z"/><path class="cls-5" d="M98.87,131.54V95.1h2v35.63c0,9.16,6.9,16.49,15.26,16.49s15.26-7.33,15.26-16.49V95.1h2v35.63c0,10.25-7.79,18.66-17.29,18.66A17.51,17.51,0,0,1,98.87,131.54Z"/><path class="cls-5" d="M140.4,148.71V95.1h12.47c13.68,0,24.89,12.08,24.89,26.81s-11.21,26.81-24.89,26.81ZM142.18,97v49.81h10.7c12.73,0,23.11-11.13,23.11-24.91S165.61,97,152.88,97Z"/><path class="cls-5" d="M194.79,122.31v26.4h-2v-26.4L176,95.1h2.34l15.45,25,15.45-25h2.34Z"/><path class="cls-5" d="M244.22,95.1l16.65,53.61h-2L255,135.88H233l-3.86,12.83h-2L243.77,95.1Zm-.19,5.5L233.7,134.25h20.58Z"/><path class="cls-5" d="M267.45,148.71V95.1h15.32c7,0,12.92,6.31,12.92,14,0,5.29-2.22,10.11-7.22,12.83,5.45,1.7,8.49,7.53,8.49,12.83,0,7.67-5.76,14-12.92,14Zm2.09-51.3v23.82h13.87c5.76,0,10.13-5.43,10.13-12S288.79,97.4,282.78,97.4Zm0,25.65V146.4H284c6,0,10.76-5.23,10.76-11.67s-4.75-11.67-10.76-11.67Z"/><path class="cls-5" d="M330.9,148.71c-3.48-7-6.84-14.59-11.78-25.65H305.63v25.65H303.8V95.1h16c7,0,12.79,6.38,12.79,14A14.12,14.12,0,0,1,321.15,123L333,148.71ZM305.63,97.2V121h14.12c6,0,10.89-5.16,10.89-11.74s-4.81-12-10.89-12Z"/><path class="cls-5" d="M337.12,122c0-15.61,10.13-27.35,23.56-27.35S384.3,106.43,384.3,122s-10.19,27.35-23.62,27.35S337.12,137.71,337.12,122Zm2,0c0,14.39,9.24,25.18,21.53,25.18s21.53-10.79,21.53-25.18S373,96.93,360.68,96.93,339.15,107.72,339.15,122Z"/><path class="cls-5" d="M402.13,95.1l16.65,53.61h-2l-3.86-12.83h-22l-3.86,12.83h-2L401.68,95.1Zm-.19,5.5-10.32,33.66h20.58Z"/><path class="cls-5" d="M425,148.71V95.1h12.47c13.68,0,24.89,12.08,24.89,26.81s-11.21,26.81-24.89,26.81ZM426.76,97v49.81h10.7c12.73,0,23.11-11.13,23.11-24.91S450.19,97,437.46,97Z"/><path class="cls-5" d="M514.16,133.85c0,9.91-7.22,15.47-15.64,15.47-5.89,0-12-2.44-15.51-7.6l1.77-1.22a16.26,16.26,0,0,0,13.49,6.65c7.28,0,13.87-4.34,13.87-13,0-16.83-30-6.65-30-25.45,0-9.84,7.22-14.18,15.64-14.18a17.6,17.6,0,0,1,15.39,8.28L511.5,104a15.4,15.4,0,0,0-13.36-7.26c-7.28,0-13.93,3-14,11.67C484.08,125.3,514.16,115,514.16,133.85Z"/><path class="cls-5" d="M521.5,148.71V95.1h28.75v1.7H523.46v24h18.87v1.7H523.46V147h26.79v1.7Z"/><path class="cls-5" d="M598.81,148.71h-2V102.22l-18.24,33.32-18.24-33.32v46.49h-2V95h.32l19.88,36.58L598.43,95l.44.07Z"/><path class="cls-5" d="M606.24,148.71V95.1h2.09v53.61Z"/><path class="cls-5" d="M618.66,98.62v50.08h-1.84V95.1l2-.14,30.4,49.61V94.49H651v54.22h-1.58Z"/><path class="cls-5" d="M674.72,95.1l16.65,53.61h-2l-3.86-12.83h-22l-3.86,12.83h-2L674.27,95.1Zm-.19,5.5-10.32,33.66h20.58Z"/><path class="cls-5" d="M725.12,148.71c-3.48-7-6.84-14.59-11.78-25.65H699.85v25.65H698V95.1h16c7,0,12.79,6.38,12.79,14A14.12,14.12,0,0,1,715.37,123l11.84,25.72ZM699.85,97.2V121H714c6,0,10.89-5.16,10.89-11.74s-4.81-12-10.89-12Z"/><line class="cls-6" x1="849.07" y1="147.84" x2="724.68" y2="147.84"/></g><g id="背景2"><path class="cls-7" d="M-8.54,214.61l75.91.08v42.66h44.94V302h45.94v64h28V507.22l-194.84,1.3S-8.54,214.69-8.54,214.61Z"/><rect class="cls-2" x="43.19" y="221.28" width="17.49" height="16.92"/><rect class="cls-2" x="18.99" y="221.29" width="17.61" height="17.03"/><rect class="cls-2" x="43.12" y="243.31" width="17.49" height="16.92"/><rect class="cls-2" x="-5.37" y="243.4" width="17.55" height="16.98"/><rect class="cls-2" x="19.15" y="265.63" width="17.61" height="17.03"/><rect class="cls-2" x="-5.14" y="265.71" width="17.55" height="16.98"/><rect class="cls-2" x="43.49" y="288.77" width="17.49" height="16.92"/><rect class="cls-2" x="19.29" y="288.79" width="17.61" height="17.03"/><rect class="cls-2" x="-4.88" y="311.53" width="17.55" height="16.98"/><rect class="cls-2" x="19.39" y="334.44" width="17.61" height="17.03"/><rect class="cls-2" x="-4.9" y="334.52" width="17.55" height="16.98"/><rect class="cls-2" x="43.56" y="357.53" width="17.49" height="16.92"/><rect class="cls-2" x="19.36" y="380.21" width="17.61" height="17.03"/><rect class="cls-2" x="-4.93" y="380.29" width="17.55" height="16.98"/><rect class="cls-2" x="115.9" y="307.67" width="37.08" height="9.47" rx="4.74" ry="4.74"/><rect class="cls-2" x="116.39" y="347.11" width="37.08" height="9.47" rx="4.74" ry="4.74"/><rect class="cls-2" x="116.65" y="360.38" width="37.08" height="9.47" rx="4.74" ry="4.74"/><rect class="cls-2" x="117.36" y="387.04" width="37.08" height="9.47" rx="4.74" ry="4.74"/><path class="cls-7" d="M758.82,216.25H689.24v27.2H644.68v94.28H589.18v35.63l-24.88,0V508.16H757.84S757.65,217.16,758.82,216.25Z"/><path class="cls-8" d="M188.89,366.6c-3.28,0-3.27,0-3.26,6.31,0-6.35,0-6.33-3.26-6.31,3.28,0,3.27,0,3.26-6.31C185.62,366.63,185.61,366.62,188.89,366.6Z"/><path class="cls-8" d="M187.34,368.36c-1.63-1.49-1.78-1.48-3.32.12,1.35-1.8,1.35-2-.11-3.65,1.63,1.49,1.78,1.48,3.32-.12C185.88,366.51,185.88,366.67,187.34,368.36Z"/><path class="cls-8" d="M187.74,367.72c-2-.88-2.1-.83-3.13,1.2.8-2.16.76-2.31-1.09-3.45,2,.88,2.1.83,3.13-1.2C185.84,366.43,185.89,366.58,187.74,367.72Z"/><path class="cls-8" d="M186.65,368.92c-1-2-1.18-2.09-3.14-1.2,1.85-1.14,1.89-1.3,1.09-3.45,1,2,1.18,2.09,3.14,1.2C185.89,366.61,185.84,366.77,186.65,368.92Z"/><path class="cls-8" d="M161.61,301.72c-3.58,0-3.57,0-3.56,6.89,0-6.93,0-6.91-3.56-6.89,3.58,0,3.57,0,3.56-6.89C158,301.76,158,301.74,161.61,301.72Z"/><path class="cls-8" d="M159.92,303.65c-1.78-1.62-1.94-1.62-3.62.13,1.47-2,1.47-2.14-.12-4,1.78,1.62,1.94,1.62,3.62-.13C158.32,301.62,158.33,301.8,159.92,303.65Z"/><path class="cls-8" d="M160.35,302.95c-2.14-1-2.29-.91-3.42,1.31.88-2.35.82-2.52-1.19-3.76,2.14,1,2.29.91,3.42-1.31C158.28,301.54,158.34,301.7,160.35,302.95Z"/><path class="cls-8" d="M159.17,304.26C158,302,157.88,302,155.74,303c2-1.25,2.07-1.41,1.19-3.77,1.13,2.22,1.29,2.28,3.42,1.3C158.34,301.74,158.28,301.91,159.17,304.26Z"/><path class="cls-8" d="M114.81,257.16c-3,0-3,0-3,5.77,0-5.8,0-5.78-3-5.77,3,0,3,0,3-5.77C111.83,257.19,111.82,257.18,114.81,257.16Z"/><path class="cls-8" d="M113.4,258.77c-1.49-1.36-1.62-1.35-3,.11,1.23-1.64,1.23-1.79-.1-3.33,1.49,1.36,1.62,1.35,3-.11C112.06,257.08,112.07,257.23,113.4,258.77Z"/><path class="cls-8" d="M113.76,258.19c-1.79-.81-1.92-.76-2.86,1.1.73-2,.69-2.11-1-3.15,1.79.81,1.92.76,2.86-1.1C112,257,112.08,257.15,113.76,258.19Z"/><path class="cls-8" d="M112.77,259.28c-.95-1.86-1.08-1.9-2.86-1.09,1.69-1,1.73-1.18,1-3.15.95,1.86,1.08,1.9,2.86,1.09C112.08,257.17,112,257.31,112.77,259.28Z"/><path class="cls-8" d="M70.15,214.67c-3.28,0-3.27,0-3.26,6.31,0-6.35,0-6.33-3.26-6.31,3.28,0,3.27,0,3.26-6.31C66.88,214.7,66.87,214.69,70.15,214.67Z"/><path class="cls-8" d="M68.6,216.43c-1.63-1.49-1.78-1.48-3.32.12,1.35-1.8,1.35-2-.11-3.65,1.63,1.49,1.78,1.48,3.32-.12C67.14,214.58,67.15,214.74,68.6,216.43Z"/><path class="cls-8" d="M69,215.79c-2-.88-2.1-.83-3.13,1.2.8-2.16.76-2.31-1.09-3.45,2,.88,2.1.83,3.13-1.2C67.1,214.5,67.15,214.65,69,215.79Z"/><path class="cls-8" d="M67.91,217c-1-2-1.18-2.09-3.14-1.2,1.85-1.14,1.89-1.3,1.09-3.45,1,2,1.18,2.09,3.14,1.2C67.15,214.69,67.11,214.84,67.91,217Z"/><path class="cls-8" d="M116.88,302.11c-3.58,0-3.57,0-3.56,6.89,0-6.93,0-6.91-3.56-6.89,3.58,0,3.57,0,3.56-6.89C113.31,302.15,113.3,302.13,116.88,302.11Z"/><path class="cls-8" d="M115.19,304c-1.78-1.62-1.94-1.62-3.62.13,1.47-2,1.47-2.14-.12-4,1.78,1.62,1.94,1.62,3.62-.13C113.6,302,113.6,302.19,115.19,304Z"/><path class="cls-8" d="M115.63,303.34c-2.14-1-2.29-.91-3.42,1.31.88-2.35.82-2.52-1.19-3.76,2.14,1,2.29.91,3.42-1.31C113.56,301.93,113.61,302.09,115.63,303.34Z"/><path class="cls-8" d="M114.44,304.65c-1.13-2.22-1.29-2.28-3.42-1.3,2-1.25,2.07-1.41,1.19-3.77,1.13,2.22,1.29,2.28,3.42,1.3C113.61,302.13,113.56,302.3,114.44,304.65Z"/><rect class="cls-9" x="699.67" y="221.83" width="9.38" height="9.38"/><rect class="cls-9" x="726.02" y="221.81" width="9.38" height="9.38"/><rect class="cls-9" x="739.68" y="221.78" width="9.38" height="9.38"/><rect class="cls-9" x="699.59" y="234.7" width="9.38" height="9.38"/><rect class="cls-9" x="712.96" y="234.65" width="9.38" height="9.38"/><rect class="cls-9" x="725.95" y="234.68" width="9.38" height="9.38"/><rect class="cls-9" x="739.6" y="234.65" width="9.38" height="9.38"/><rect class="cls-9" x="713.04" y="247.09" width="9.38" height="9.38"/><rect class="cls-9" x="726.03" y="247.12" width="9.38" height="9.38"/><rect class="cls-9" x="699.59" y="259.46" width="9.38" height="9.38"/><rect class="cls-9" x="712.96" y="259.41" width="9.38" height="9.38"/><rect class="cls-9" x="725.95" y="259.44" width="9.38" height="9.38"/><rect class="cls-9" x="739.6" y="259.41" width="9.38" height="9.38"/><rect class="cls-9" x="725.95" y="271.88" width="9.38" height="9.38"/><rect class="cls-9" x="739.6" y="271.85" width="9.38" height="9.38"/><rect class="cls-9" x="699.58" y="284.36" width="9.38" height="9.38"/><rect class="cls-9" x="712.94" y="284.31" width="9.38" height="9.38"/><rect class="cls-9" x="739.59" y="284.31" width="9.38" height="9.38"/><rect class="cls-9" x="713.03" y="296.82" width="9.38" height="9.38"/><rect class="cls-9" x="726.01" y="296.85" width="9.38" height="9.38"/><rect class="cls-9" x="699.59" y="309.56" width="9.38" height="9.38"/><rect class="cls-9" x="725.94" y="309.54" width="9.38" height="9.38"/><rect class="cls-9" x="739.59" y="309.52" width="9.38" height="9.38"/><rect class="cls-9" x="699.61" y="335.07" width="9.38" height="9.38"/><rect class="cls-9" x="712.97" y="335.02" width="9.38" height="9.38"/><rect class="cls-9" x="725.96" y="335.05" width="9.38" height="9.38"/><rect class="cls-9" x="739.62" y="335.02" width="9.38" height="9.38"/><rect class="cls-9" x="712.81" y="347.69" width="9.38" height="9.38"/><rect class="cls-9" x="739.45" y="347.7" width="9.38" height="9.38"/><rect class="cls-9" x="699.52" y="360.73" width="9.38" height="9.38"/><rect class="cls-9" x="725.88" y="360.71" width="9.38" height="9.38"/><rect class="cls-9" x="712.81" y="373.36" width="9.38" height="9.38"/><rect class="cls-9" x="725.79" y="373.39" width="9.38" height="9.38"/><rect class="cls-9" x="739.45" y="373.36" width="9.38" height="9.38"/><rect class="cls-9" x="712.86" y="386.18" width="9.38" height="9.38"/><rect class="cls-9" x="739.5" y="386.18" width="9.38" height="9.38"/><rect class="cls-9" x="699.58" y="399.08" width="9.38" height="9.38"/><rect class="cls-9" x="712.94" y="399.03" width="9.38" height="9.38"/><path class="cls-8" d="M698.15,216.47c-3.28,0-3.27,0-3.26,6.31,0-6.35,0-6.33-3.26-6.31,3.28,0,3.27,0,3.26-6.31C694.87,216.51,694.87,216.49,698.15,216.47Z"/><path class="cls-8" d="M696.6,218.24c-1.63-1.49-1.78-1.48-3.32.12,1.35-1.8,1.35-2-.11-3.65,1.63,1.49,1.78,1.48,3.32-.12C695.14,216.38,695.14,216.55,696.6,218.24Z"/><path class="cls-8" d="M697,217.6c-2-.88-2.1-.83-3.13,1.2.8-2.16.76-2.31-1.09-3.45,2,.88,2.1.83,3.13-1.2C695.1,216.31,695.15,216.46,697,217.6Z"/><path class="cls-8" d="M695.91,218.8c-1-2-1.18-2.09-3.14-1.2,1.85-1.14,1.89-1.3,1.09-3.45,1,2,1.18,2.09,3.14,1.2C695.15,216.49,695.1,216.64,695.91,218.8Z"/><path class="cls-8" d="M647.75,243.9c-3.1,0-3.09,0-3.08,6.31,0-6.35,0-6.33-3.08-6.31,3.1,0,3.09,0,3.08-6.31C644.66,243.93,644.65,243.92,647.75,243.9Z"/><path class="cls-8" d="M646.29,245.67c-1.54-1.49-1.68-1.48-3.13.12,1.28-1.8,1.27-2-.1-3.65,1.54,1.49,1.68,1.48,3.13-.12C644.9,243.81,644.91,244,646.29,245.67Z"/><path class="cls-8" d="M646.66,245c-1.85-.88-2-.83-3,1.2.76-2.16.71-2.31-1-3.45,1.85.88,2,.83,3-1.2C644.87,243.73,644.92,243.89,646.66,245Z"/><path class="cls-8" d="M645.63,246.22c-1-2-1.11-2.09-3-1.2,1.74-1.14,1.79-1.3,1-3.45,1,2,1.11,2.09,3,1.2C644.92,243.92,644.87,244.07,645.63,246.22Z"/><path class="cls-8" d="M565.88,377.36c-1.69-3.31-1.92-3.4-5.11-1.95,3-1.86,3.09-2.11,1.77-5.62,1.69,3.31,1.92,3.4,5.11,1.95C564.64,373.6,564.57,373.85,565.88,377.36Z"/><rect class="cls-9" x="594.47" y="342.63" width="49.86" height="7.22"/><rect class="cls-9" x="594.47" y="353.47" width="36.7" height="7.22"/><rect class="cls-9" x="594.47" y="364.85" width="46.86" height="7.22"/><rect class="cls-9" x="594.47" y="376.15" width="49.86" height="7.22"/><rect class="cls-9" x="594.47" y="386.99" width="28.86" height="7.22"/><rect class="cls-9" x="594.47" y="398.37" width="49.86" height="7.22"/></g><g id="滑走路"><polygon class="cls-10" points="758.15 508.5 -8.85 508.5 -8.85 413.54 379.55 409.67 758.15 413.54 758.15 508.5"/><path class="cls-11" d="M384,511c-8.84-11.08-8.77-11.1-30.11,6.16,21.39-17.19,21.36-17.13,12.4-28.12,8.84,11.08,8.77,11.1,30.11-6.16C375.05,500.06,375.08,500,384,511Z"/><path class="cls-11" d="M373.89,510.56c.58-9.53.16-10-9.41-10.84,9.71-.33,10.24-.78,12-10.28-.58,9.53-.16,10,9.41,10.84C376.17,500.6,375.64,501.06,373.89,510.56Z"/><path class="cls-11" d="M377.14,510.16c-2.34-9-2.9-9.32-12.56-7.28,9.44-3.15,9.83-3.73,8.64-13,2.34,9,2.9,9.32,12.56,7.28C376.34,500.27,376,500.85,377.14,510.16Z"/><path class="cls-11" d="M370.14,509.76c4-9,3.82-9.62-4.49-13.8,8.86,3.11,9.5,2.86,14.57-5.71-4,9-3.82,9.62,4.49,13.8C375.85,500.93,375.2,501.19,370.14,509.76Z"/><path class="cls-11" d="M381.26,458.65C376,452,376,452,363.32,462.31c12.74-10.24,12.73-10.21,7.39-16.76,5.27,6.6,5.23,6.61,17.94-3.67C375.91,452.13,375.93,452.1,381.26,458.65Z"/><path class="cls-11" d="M375.22,458.39c.34-5.68.1-6-5.61-6.46,5.79-.19,6.1-.47,7.14-6.13-.34,5.68-.1,6,5.61,6.46C376.58,452.46,376.26,452.73,375.22,458.39Z"/><path class="cls-11" d="M377.15,458.16c-1.4-5.36-1.73-5.55-7.48-4.34,5.63-1.88,5.85-2.22,5.15-7.77,1.4,5.36,1.73,5.55,7.48,4.34C376.68,452.26,376.45,452.61,377.15,458.16Z"/><path class="cls-11" d="M373,457.91c2.4-5.37,2.28-5.73-2.67-8.22,5.28,1.85,5.66,1.7,8.68-3.4-2.4,5.37-2.28,5.73,2.67,8.22C376.39,452.66,376,452.81,373,457.91Z"/><path class="cls-11" d="M380.28,435.7c-3.81-4.78-3.79-4.79-13,2.66,9.23-7.42,9.22-7.39,5.35-12.13,3.81,4.78,3.79,4.79,13-2.66C376.41,431,376.42,431,380.28,435.7Z"/><path class="cls-11" d="M375.91,435.52c.25-4.11.07-4.32-4.06-4.68,4.19-.14,4.42-.34,5.17-4.44-.25,4.11-.07,4.32,4.06,4.68C376.89,431.22,376.66,431.42,375.91,435.52Z"/><path class="cls-11" d="M377.31,435.34c-1-3.88-1.25-4-5.42-3.14,4.08-1.36,4.24-1.61,3.73-5.63,1,3.88,1.25,4,5.42,3.14C377,431.08,376.8,431.32,377.31,435.34Z"/><path class="cls-11" d="M374.29,435.17c1.74-3.89,1.65-4.15-1.94-6,3.82,1.34,4.1,1.23,6.29-2.46-1.74,3.89-1.65,4.15,1.94,6C376.75,431.36,376.47,431.47,374.29,435.17Z"/><path class="cls-11" d="M378.36,422.46c-2.37-3-2.35-3-8.07,1.65,5.73-4.61,5.72-4.59,3.32-7.53,2.37,3,2.35,3,8.07-1.65C376,419.53,376,419.51,378.36,422.46Z"/><path class="cls-11" d="M375.64,422.34c.15-2.55,0-2.68-2.52-2.9,2.6-.09,2.74-.21,3.21-2.75-.15,2.55,0,2.68,2.52,2.9C376.25,419.68,376.11,419.8,375.64,422.34Z"/><path class="cls-11" d="M376.51,422.24c-.63-2.41-.78-2.5-3.36-2,2.53-.84,2.63-1,2.32-3.49.63,2.41.78,2.5,3.36,2C376.3,419.59,376.2,419.74,376.51,422.24Z"/><path class="cls-11" d="M374.64,422.13c1.08-2.41,1-2.58-1.2-3.7,2.37.83,2.55.77,3.9-1.53-1.08,2.41-1,2.58,1.2,3.7C376.17,419.76,376,419.83,374.64,422.13Z"/><path class="cls-11" d="M377.18,416c-1.37-1.72-1.36-1.72-4.66,1,3.31-2.66,3.31-2.65,1.92-4.36,1.37,1.72,1.36,1.72,4.66-1C375.79,414.34,375.8,414.33,377.18,416Z"/><path class="cls-11" d="M375.61,416c.09-1.48,0-1.55-1.46-1.68,1.5-.05,1.59-.12,1.86-1.59-.09,1.48,0,1.55,1.46,1.68C376,414.43,375.88,414.5,375.61,416Z"/><path class="cls-11" d="M376.11,415.91c-.36-1.39-.45-1.44-1.94-1.13,1.46-.49,1.52-.58,1.34-2,.36,1.39.45,1.44,1.94,1.13C376,414.37,375.93,414.46,376.11,415.91Z"/><path class="cls-11" d="M375,415.84c.62-1.4.59-1.49-.69-2.14,1.37.48,1.47.44,2.26-.88-.62,1.4-.59,1.49.69,2.14C375.91,414.48,375.81,414.52,375,415.84Z"/><path class="cls-11" d="M376.56,412.24c-.75-.94-.74-.94-2.55.52,1.81-1.46,1.81-1.45,1.05-2.38.75.94.74.94,2.55-.52C375.8,411.32,375.8,411.31,376.56,412.24Z"/><path class="cls-11" d="M375.7,412.21c0-.81,0-.85-.8-.92.82,0,.87-.07,1-.87,0,.81,0,.85.8.92C375.89,411.36,375.85,411.4,375.7,412.21Z"/><path class="cls-11" d="M376,412.17c-.2-.76-.25-.79-1.06-.62.8-.27.83-.32.73-1.11.2.76.25.79,1.06.62C375.91,411.34,375.88,411.38,376,412.17Z"/><path class="cls-11" d="M375.38,412.14c.34-.76.32-.82-.38-1.17.75.26.81.24,1.24-.48-.34.76-.32.82.38,1.17C375.87,411.39,375.81,411.41,375.38,412.14Z"/><path class="cls-11" d="M105.33,500c-16.45-.08-16.41-.14-16.36,28.78C89,499.86,89,499.92,72.6,500,89,500.08,89,500.14,89,471.22,88.92,500.14,88.88,500.08,105.33,500Z"/><path class="cls-11" d="M97.56,508c-8.19-6.78-8.92-6.75-16.64.56,6.78-8.19,6.75-8.92-.56-16.64,8.19,6.78,8.92,6.75,16.64-.56C90.23,499.59,90.25,500.33,97.56,508Z"/><path class="cls-11" d="M99.56,505.12c-9.83-4-10.53-3.79-15.72,5.49,4-9.83,3.79-10.53-5.49-15.72,9.83,4,10.53,3.79,15.72-5.49C90,499.23,90.29,499.93,99.56,505.12Z"/><path class="cls-11" d="M94.1,510.59c-5.21-9.26-5.91-9.5-15.73-5.45,9.26-5.21,9.5-5.91,5.45-15.73,5.21,9.26,5.91,9.5,15.73,5.45C90.29,500.07,90,500.77,94.1,510.59Z"/><path class="cls-11" d="M163.21,500c-16.45-.08-16.41-.14-16.36,28.78,0-28.92.08-28.86-16.36-28.78,16.45.08,16.41.14,16.36-28.78C146.8,500.14,146.77,500.08,163.21,500Z"/><path class="cls-11" d="M155.44,508c-8.19-6.78-8.92-6.75-16.64.56,6.78-8.19,6.75-8.92-.56-16.64,8.19,6.78,8.92,6.75,16.64-.56C148.11,499.59,148.14,500.33,155.44,508Z"/><path class="cls-11" d="M157.45,505.12c-9.83-4-10.53-3.79-15.72,5.49,4-9.83,3.79-10.53-5.49-15.72,9.83,4,10.53,3.79,15.72-5.49C147.93,499.23,148.18,499.93,157.45,505.12Z"/><path class="cls-11" d="M152,510.59c-5.21-9.26-5.91-9.5-15.73-5.45,9.26-5.21,9.5-5.91,5.45-15.73,5.21,9.26,5.91,9.5,15.73,5.45C148.18,500.07,147.94,500.77,152,510.59Z"/><path class="cls-11" d="M47.41,500C31,499.92,31,499.86,31,528.78c0-28.92.08-28.86-16.36-28.78,16.45.08,16.41.14,16.36-28.78C31,500.14,31,500.08,47.41,500Z"/><path class="cls-11" d="M39.64,508c-8.19-6.78-8.92-6.75-16.64.56,6.78-8.19,6.75-8.92-.56-16.64,8.19,6.78,8.92,6.75,16.64-.56C32.31,499.59,32.33,500.33,39.64,508Z"/><path class="cls-11" d="M41.64,505.12c-9.83-4-10.53-3.79-15.72,5.49,4-9.83,3.79-10.53-5.49-15.72,9.83,4,10.53,3.79,15.72-5.49C32.13,499.23,32.37,499.93,41.64,505.12Z"/><path class="cls-11" d="M36.18,510.59c-5.21-9.26-5.91-9.5-15.73-5.45,9.26-5.21,9.5-5.91,5.45-15.73,5.21,9.26,5.91,9.5,15.73,5.45C32.37,500.07,32.13,500.77,36.18,510.59Z"/><path class="cls-11" d="M677.87,499.33c-16.45-.08-16.41-.14-16.36,28.78,0-28.92.08-28.86-16.36-28.78,16.45.08,16.41.14,16.36-28.78C661.47,499.48,661.43,499.41,677.87,499.33Z"/><path class="cls-11" d="M670.11,507.37c-8.19-6.78-8.92-6.75-16.64.56,6.78-8.19,6.75-8.92-.56-16.64,8.19,6.78,8.92,6.75,16.64-.56C662.78,498.92,662.8,499.66,670.11,507.37Z"/><path class="cls-11" d="M672.11,504.45c-9.83-4-10.53-3.79-15.72,5.49,4-9.83,3.79-10.53-5.49-15.72,9.83,4,10.53,3.79,15.72-5.49C662.6,498.56,662.84,499.26,672.11,504.45Z"/><path class="cls-11" d="M666.65,509.92c-5.21-9.26-5.91-9.5-15.73-5.45,9.26-5.21,9.5-5.91,5.45-15.73,5.21,9.26,5.91,9.5,15.73,5.45C662.84,499.4,662.6,500.1,666.65,509.92Z"/><path class="cls-11" d="M735.76,499.33c-16.45-.08-16.41-.14-16.36,28.78,0-28.92.08-28.86-16.36-28.78,16.45.08,16.41.14,16.36-28.78C719.35,499.48,719.32,499.41,735.76,499.33Z"/><path class="cls-11" d="M728,507.37c-8.19-6.78-8.92-6.75-16.64.56,6.78-8.19,6.75-8.92-.56-16.64,8.19,6.78,8.92,6.75,16.64-.56C720.66,498.92,720.69,499.66,728,507.37Z"/><path class="cls-11" d="M730,504.45c-9.83-4-10.53-3.79-15.72,5.49,4-9.83,3.79-10.53-5.49-15.72,9.83,4,10.53,3.79,15.72-5.49C720.48,498.56,720.73,499.26,730,504.45Z"/><path class="cls-11" d="M724.54,509.92c-5.21-9.26-5.91-9.5-15.73-5.45,9.26-5.21,9.5-5.91,5.45-15.73,5.21,9.26,5.91,9.5,15.73,5.45C720.73,499.4,720.48,500.1,724.54,509.92Z"/><path class="cls-11" d="M620,499.33c-16.45-.08-16.41-.14-16.36,28.78,0-28.92.08-28.86-16.36-28.78,16.45.08,16.41.14,16.36-28.78C603.55,499.48,603.51,499.41,620,499.33Z"/><path class="cls-11" d="M612.19,507.37c-8.19-6.78-8.92-6.75-16.64.56,6.78-8.19,6.75-8.92-.56-16.64,8.19,6.78,8.92,6.75,16.64-.56C604.86,498.92,604.88,499.66,612.19,507.37Z"/><path class="cls-11" d="M614.19,504.45c-9.83-4-10.53-3.79-15.72,5.49,4-9.83,3.79-10.53-5.49-15.72,9.83,4,10.53,3.79,15.72-5.49C604.68,498.56,604.92,499.26,614.19,504.45Z"/><path class="cls-11" d="M608.73,509.92c-5.21-9.26-5.91-9.5-15.73-5.45,9.26-5.21,9.5-5.91,5.45-15.73,5.21,9.26,5.91,9.5,15.73,5.45C604.92,499.4,604.68,500.1,608.73,509.92Z"/><path class="cls-11" d="M171.86,452.1c-9.58,0-9.56-.08-9.54,16.77,0-16.86,0-16.82-9.54-16.77,9.58,0,9.56.08,9.54-16.77C162.29,452.19,162.27,452.15,171.86,452.1Z"/><path class="cls-11" d="M167.33,456.79c-4.77-3.95-5.2-3.93-9.7.32,3.95-4.77,3.93-5.2-.32-9.7,4.77,3.95,5.2,3.93,9.7-.32C163.06,451.86,163.07,452.29,167.33,456.79Z"/><path class="cls-11" d="M168.5,455.08c-5.73-2.35-6.14-2.21-9.16,3.2,2.35-5.73,2.21-6.14-3.2-9.16,5.73,2.35,6.14,2.21,9.16-3.2C163,451.65,163.09,452.06,168.5,455.08Z"/><path class="cls-11" d="M165.32,458.27c-3-5.4-3.44-5.54-9.17-3.18,5.4-3,5.54-3.44,3.18-9.17,3,5.4,3.44,5.54,9.17,3.18C163.09,452.14,163,452.55,165.32,458.27Z"/><path class="cls-11" d="M205.59,452.1c-9.58,0-9.56-.08-9.54,16.77,0-16.86,0-16.82-9.54-16.77,9.58,0,9.56.08,9.54-16.77C196,452.19,196,452.15,205.59,452.1Z"/><path class="cls-11" d="M201.07,456.79c-4.77-3.95-5.2-3.93-9.7.32,3.95-4.77,3.93-5.2-.32-9.7,4.77,3.95,5.2,3.93,9.7-.32C196.79,451.86,196.81,452.29,201.07,456.79Z"/><path class="cls-11" d="M202.24,455.08c-5.73-2.35-6.14-2.21-9.16,3.2,2.35-5.73,2.21-6.14-3.2-9.16,5.73,2.35,6.14,2.21,9.16-3.2C196.69,451.65,196.83,452.06,202.24,455.08Z"/><path class="cls-11" d="M199.05,458.27c-3-5.4-3.44-5.54-9.17-3.18,5.4-3,5.54-3.44,3.18-9.17,3,5.4,3.44,5.54,9.17,3.18C196.83,452.14,196.69,452.55,199.05,458.27Z"/><path class="cls-11" d="M138.1,452.1c-9.58,0-9.56-.08-9.54,16.77,0-16.86,0-16.82-9.54-16.77,9.58,0,9.56.08,9.54-16.77C128.54,452.19,128.52,452.15,138.1,452.1Z"/><path class="cls-11" d="M133.57,456.79c-4.77-3.95-5.2-3.93-9.7.32,3.95-4.77,3.93-5.2-.32-9.7,4.77,3.95,5.2,3.93,9.7-.32C129.3,451.86,129.32,452.29,133.57,456.79Z"/><path class="cls-11" d="M134.74,455.08c-5.73-2.35-6.14-2.21-9.16,3.2,2.35-5.73,2.21-6.14-3.2-9.16,5.73,2.35,6.14,2.21,9.16-3.2C129.2,451.65,129.34,452.06,134.74,455.08Z"/><path class="cls-11" d="M131.56,458.27c-3-5.4-3.44-5.54-9.17-3.18,5.4-3,5.54-3.44,3.18-9.17,3,5.4,3.44,5.54,9.17,3.18C129.34,452.14,129.2,452.55,131.56,458.27Z"/><path class="cls-11" d="M597.88,452.1c-9.58,0-9.56-.08-9.54,16.77,0-16.86,0-16.82-9.54-16.77,9.58,0,9.56.08,9.54-16.77C588.31,452.19,588.29,452.15,597.88,452.1Z"/><path class="cls-11" d="M593.35,456.79c-4.77-3.95-5.2-3.93-9.7.32,3.95-4.77,3.93-5.2-.32-9.7,4.77,3.95,5.2,3.93,9.7-.32C589.08,451.86,589.09,452.29,593.35,456.79Z"/><path class="cls-11" d="M594.52,455.08c-5.73-2.35-6.14-2.21-9.16,3.2,2.35-5.73,2.21-6.14-3.2-9.16,5.73,2.35,6.14,2.21,9.16-3.2C589,451.65,589.11,452.06,594.52,455.08Z"/><path class="cls-11" d="M591.34,458.27c-3-5.4-3.44-5.54-9.17-3.18,5.4-3,5.54-3.44,3.18-9.17,3,5.4,3.44,5.54,9.17,3.18C589.11,452.14,589,452.55,591.34,458.27Z"/><path class="cls-11" d="M631.62,452.1c-9.58,0-9.56-.08-9.54,16.77,0-16.86,0-16.82-9.54-16.77,9.58,0,9.56.08,9.54-16.77C622.05,452.19,622,452.15,631.62,452.1Z"/><path class="cls-11" d="M627.09,456.79c-4.77-3.95-5.2-3.93-9.7.32,3.95-4.77,3.93-5.2-.32-9.7,4.77,3.95,5.2,3.93,9.7-.32C622.82,451.86,622.83,452.29,627.09,456.79Z"/><path class="cls-11" d="M628.26,455.08c-5.73-2.35-6.14-2.21-9.16,3.2,2.35-5.73,2.21-6.14-3.2-9.16,5.73,2.35,6.14,2.21,9.16-3.2C622.71,451.65,622.85,452.06,628.26,455.08Z"/><path class="cls-11" d="M625.07,458.27c-3-5.4-3.44-5.54-9.17-3.18,5.4-3,5.54-3.44,3.18-9.17,3,5.4,3.44,5.54,9.17,3.18C622.85,452.14,622.71,452.55,625.07,458.27Z"/><path class="cls-11" d="M564.12,452.1c-9.58,0-9.56-.08-9.54,16.77,0-16.86,0-16.82-9.54-16.77,9.58,0,9.56.08,9.54-16.77C554.56,452.19,554.54,452.15,564.12,452.1Z"/><path class="cls-11" d="M559.59,456.79c-4.77-3.95-5.2-3.93-9.7.32,3.95-4.77,3.93-5.2-.32-9.7,4.77,3.95,5.2,3.93,9.7-.32C555.32,451.86,555.34,452.29,559.59,456.79Z"/><path class="cls-11" d="M560.76,455.08c-5.73-2.35-6.14-2.21-9.16,3.2,2.35-5.73,2.21-6.14-3.2-9.16,5.73,2.35,6.14,2.21,9.16-3.2C555.22,451.65,555.36,452.06,560.76,455.08Z"/><path class="cls-11" d="M557.58,458.27c-3-5.4-3.44-5.54-9.17-3.18,5.4-3,5.54-3.44,3.18-9.17,3,5.4,3.44,5.54,9.17,3.18C555.36,452.14,555.22,452.55,557.58,458.27Z"/><path class="cls-11" d="M212.48,431c-6.27,0-6.26-.05-6.24,11,0-11,0-11-6.24-11,6.27,0,6.26.05,6.24-11C206.22,431,206.21,431,212.48,431Z"/><path class="cls-11" d="M209.52,434c-3.12-2.58-3.4-2.57-6.34.21,2.58-3.12,2.57-3.4-.21-6.34,3.12,2.58,3.4,2.57,6.34-.21C206.72,430.8,206.73,431.08,209.52,434Z"/><path class="cls-11" d="M210.28,432.91c-3.75-1.54-4-1.44-6,2.09,1.54-3.75,1.44-4-2.09-6,3.75,1.54,4,1.44,6-2.09C206.65,430.67,206.75,430.93,210.28,432.91Z"/><path class="cls-11" d="M208.2,435c-2-3.53-2.25-3.62-6-2.08,3.53-2,3.62-2.25,2.08-6,2,3.53,2.25,3.62,6,2.08C206.75,431,206.65,431.25,208.2,435Z"/><path class="cls-11" d="M234.55,431c-6.27,0-6.26-.05-6.24,11,0-11,0-11-6.24-11,6.27,0,6.26.05,6.24-11C228.3,431,228.28,431,234.55,431Z"/><path class="cls-11" d="M231.59,434c-3.12-2.58-3.4-2.57-6.34.21,2.58-3.12,2.57-3.4-.21-6.34,3.12,2.58,3.4,2.57,6.34-.21C228.8,430.8,228.81,431.08,231.59,434Z"/><path class="cls-11" d="M232.36,432.91c-3.75-1.54-4-1.44-6,2.09,1.54-3.75,1.44-4-2.09-6,3.75,1.54,4,1.44,6-2.09C228.73,430.67,228.82,430.93,232.36,432.91Z"/><path class="cls-11" d="M230.27,435c-2-3.53-2.25-3.62-6-2.08,3.53-2,3.62-2.25,2.08-6,2,3.53,2.25,3.62,6,2.08C228.82,431,228.73,431.25,230.27,435Z"/><path class="cls-11" d="M190.39,431c-6.27,0-6.26-.05-6.24,11,0-11,0-11-6.24-11,6.27,0,6.26.05,6.24-11C184.14,431,184.12,431,190.39,431Z"/><path class="cls-11" d="M187.43,434c-3.12-2.58-3.4-2.57-6.34.21,2.58-3.12,2.57-3.4-.21-6.34,3.12,2.58,3.4,2.57,6.34-.21C184.64,430.8,184.65,431.08,187.43,434Z"/><path class="cls-11" d="M188.2,432.91c-3.75-1.54-4-1.44-6,2.09,1.54-3.75,1.44-4-2.09-6,3.75,1.54,4,1.44,6-2.09C184.57,430.67,184.66,430.93,188.2,432.91Z"/><path class="cls-11" d="M186.11,435c-2-3.53-2.25-3.62-6-2.08,3.53-2,3.62-2.25,2.08-6,2,3.53,2.25,3.62,6,2.08C184.66,431,184.57,431.25,186.11,435Z"/><path class="cls-11" d="M550.93,431c-6.27,0-6.26-.05-6.24,11,0-11,0-11-6.24-11,6.27,0,6.26.05,6.24-11C544.67,431,544.66,431,550.93,431Z"/><path class="cls-11" d="M548,434c-3.12-2.58-3.4-2.57-6.34.21,2.58-3.12,2.57-3.4-.21-6.34,3.12,2.58,3.4,2.57,6.34-.21C545.17,430.8,545.18,431.08,548,434Z"/><path class="cls-11" d="M548.73,432.91c-3.75-1.54-4-1.44-6,2.09,1.54-3.75,1.44-4-2.09-6,3.75,1.54,4,1.44,6-2.09C545.1,430.67,545.19,430.93,548.73,432.91Z"/><path class="cls-11" d="M546.65,435c-2-3.53-2.25-3.62-6-2.08,3.53-2,3.62-2.25,2.08-6,2,3.53,2.25,3.62,6,2.08C545.19,431,545.1,431.25,546.65,435Z"/><path class="cls-11" d="M573,431c-6.27,0-6.26-.05-6.24,11,0-11,0-11-6.24-11,6.27,0,6.26.05,6.24-11C566.75,431,566.73,431,573,431Z"/><path class="cls-11" d="M570,434c-3.12-2.58-3.4-2.57-6.34.21,2.58-3.12,2.57-3.4-.21-6.34,3.12,2.58,3.4,2.57,6.34-.21C567.24,430.8,567.25,431.08,570,434Z"/><path class="cls-11" d="M570.81,432.91c-3.75-1.54-4-1.44-6,2.09,1.54-3.75,1.44-4-2.09-6,3.75,1.54,4,1.44,6-2.09C567.18,430.67,567.27,430.93,570.81,432.91Z"/><path class="cls-11" d="M568.72,435c-2-3.53-2.25-3.62-6-2.08,3.53-2,3.62-2.25,2.08-6,2,3.53,2.25,3.62,6,2.08C567.27,431,567.18,431.25,568.72,435Z"/><path class="cls-11" d="M528.84,431c-6.27,0-6.26-.05-6.24,11,0-11,0-11-6.24-11,6.27,0,6.26.05,6.24-11C522.58,431,522.57,431,528.84,431Z"/><path class="cls-11" d="M525.88,434c-3.12-2.58-3.4-2.57-6.34.21,2.58-3.12,2.57-3.4-.21-6.34,3.12,2.58,3.4,2.57,6.34-.21C523.08,430.8,523.09,431.08,525.88,434Z"/><path class="cls-11" d="M526.64,432.91c-3.75-1.54-4-1.44-6,2.09,1.54-3.75,1.44-4-2.09-6,3.75,1.54,4,1.44,6-2.09C523,430.67,523.11,430.93,526.64,432.91Z"/><path class="cls-11" d="M524.56,435c-2-3.53-2.25-3.62-6-2.08,3.53-2,3.62-2.25,2.08-6,2,3.53,2.25,3.62,6,2.08C523.11,431,523,431.25,524.56,435Z"/><path class="cls-11" d="M239.58,419.51c-4.41,0-4.4,0-4.39,7.72,0-7.76,0-7.74-4.39-7.72,4.41,0,4.4,0,4.39-7.72C235.18,419.55,235.17,419.54,239.58,419.51Z"/><path class="cls-11" d="M237.5,421.67c-2.19-1.82-2.39-1.81-4.46.15,1.82-2.19,1.81-2.39-.15-4.46,2.19,1.82,2.39,1.81,4.46-.15C235.53,419.4,235.54,419.6,237.5,421.67Z"/><path class="cls-11" d="M238,420.89c-2.64-1.08-2.82-1-4.21,1.47,1.08-2.64,1-2.82-1.47-4.21,2.64,1.08,2.82,1,4.21-1.47C235.49,419.31,235.55,419.49,238,420.89Z"/><path class="cls-11" d="M236.57,422.35c-1.4-2.48-1.58-2.55-4.22-1.46,2.48-1.4,2.55-1.58,1.46-4.22,1.4,2.48,1.58,2.55,4.22,1.46C235.55,419.53,235.49,419.72,236.57,422.35Z"/><path class="cls-11" d="M255.1,419.51c-4.41,0-4.4,0-4.39,7.72,0-7.76,0-7.74-4.39-7.72,4.41,0,4.4,0,4.39-7.72C250.7,419.55,250.69,419.54,255.1,419.51Z"/><path class="cls-11" d="M253,421.67c-2.19-1.82-2.39-1.81-4.46.15,1.82-2.19,1.81-2.39-.15-4.46,2.19,1.82,2.39,1.81,4.46-.15C251.06,419.4,251.06,419.6,253,421.67Z"/><path class="cls-11" d="M253.56,420.89c-2.64-1.08-2.82-1-4.21,1.47,1.08-2.64,1-2.82-1.47-4.21,2.64,1.08,2.82,1,4.21-1.47C251,419.31,251.07,419.49,253.56,420.89Z"/><path class="cls-11" d="M252.1,422.35c-1.4-2.48-1.58-2.55-4.22-1.46,2.48-1.4,2.55-1.58,1.46-4.22,1.4,2.48,1.58,2.55,4.22,1.46C251.07,419.53,251,419.72,252.1,422.35Z"/><path class="cls-11" d="M224.05,419.51c-4.41,0-4.4,0-4.39,7.72,0-7.76,0-7.74-4.39-7.72,4.41,0,4.4,0,4.39-7.72C219.65,419.55,219.64,419.54,224.05,419.51Z"/><path class="cls-11" d="M222,421.67c-2.19-1.82-2.39-1.81-4.46.15,1.82-2.19,1.81-2.39-.15-4.46,2.19,1.82,2.39,1.81,4.46-.15C220,419.4,220,419.6,222,421.67Z"/><path class="cls-11" d="M222.51,420.89c-2.64-1.08-2.82-1-4.21,1.47,1.08-2.64,1-2.82-1.47-4.21,2.64,1.08,2.82,1,4.21-1.47C220,419.31,220,419.49,222.51,420.89Z"/><path class="cls-11" d="M221,422.35c-1.4-2.48-1.58-2.55-4.22-1.46,2.48-1.4,2.55-1.58,1.46-4.22,1.4,2.48,1.58,2.55,4.22,1.46C220,419.53,220,419.72,221,422.35Z"/><path class="cls-11" d="M519.81,419.51c-4.41,0-4.4,0-4.39,7.72,0-7.76,0-7.74-4.39-7.72,4.41,0,4.4,0,4.39-7.72C515.41,419.55,515.4,419.54,519.81,419.51Z"/><path class="cls-11" d="M517.72,421.67c-2.19-1.82-2.39-1.81-4.46.15,1.82-2.19,1.81-2.39-.15-4.46,2.19,1.82,2.39,1.81,4.46-.15C515.76,419.4,515.76,419.6,517.72,421.67Z"/><path class="cls-11" d="M518.26,420.89c-2.64-1.08-2.82-1-4.21,1.47,1.08-2.64,1-2.82-1.47-4.21,2.64,1.08,2.82,1,4.21-1.47C515.71,419.31,515.77,419.49,518.26,420.89Z"/><path class="cls-11" d="M516.8,422.35c-1.4-2.48-1.58-2.55-4.22-1.46,2.48-1.4,2.55-1.58,1.46-4.22,1.4,2.48,1.58,2.55,4.22,1.46C515.77,419.53,515.71,419.72,516.8,422.35Z"/><path class="cls-11" d="M535.33,419.51c-4.41,0-4.4,0-4.39,7.72,0-7.76,0-7.74-4.39-7.72,4.41,0,4.4,0,4.39-7.72C530.93,419.55,530.92,419.54,535.33,419.51Z"/><path class="cls-11" d="M533.24,421.67c-2.19-1.82-2.39-1.81-4.46.15,1.82-2.19,1.81-2.39-.15-4.46,2.19,1.82,2.39,1.81,4.46-.15C531.28,419.4,531.29,419.6,533.24,421.67Z"/><path class="cls-11" d="M533.78,420.89c-2.64-1.08-2.82-1-4.21,1.47,1.08-2.64,1-2.82-1.47-4.21,2.64,1.08,2.82,1,4.21-1.47C531.23,419.31,531.3,419.49,533.78,420.89Z"/><path class="cls-11" d="M532.32,422.35c-1.4-2.48-1.58-2.55-4.22-1.46,2.48-1.4,2.55-1.58,1.46-4.22,1.4,2.48,1.58,2.55,4.22,1.46C531.3,419.53,531.23,419.72,532.32,422.35Z"/><path class="cls-11" d="M504.27,419.51c-4.41,0-4.4,0-4.39,7.72,0-7.76,0-7.74-4.39-7.72,4.41,0,4.4,0,4.39-7.72C499.87,419.55,499.86,419.54,504.27,419.51Z"/><path class="cls-11" d="M502.19,421.67c-2.19-1.82-2.39-1.81-4.46.15,1.82-2.19,1.81-2.39-.15-4.46,2.19,1.82,2.39,1.81,4.46-.15C500.23,419.4,500.23,419.6,502.19,421.67Z"/><path class="cls-11" d="M502.73,420.89c-2.64-1.08-2.82-1-4.21,1.47,1.08-2.64,1-2.82-1.47-4.21,2.64,1.08,2.82,1,4.21-1.47C500.18,419.31,500.24,419.49,502.73,420.89Z"/><path class="cls-11" d="M501.26,422.35c-1.4-2.48-1.58-2.55-4.22-1.46,2.48-1.4,2.55-1.58,1.46-4.22,1.4,2.48,1.58,2.55,4.22,1.46C500.24,419.53,500.18,419.72,501.26,422.35Z"/><path class="cls-12" d="M331.3,414.56c-3.81-4.78-3.79-4.79-13,2.66,9.23-7.42,9.22-7.39,5.35-12.13,3.81,4.78,3.79,4.79,13-2.66C327.42,409.84,327.43,409.82,331.3,414.56Z"/><path class="cls-12" d="M326.92,414.38c.25-4.11.07-4.32-4.06-4.68,4.19-.14,4.42-.34,5.17-4.44-.25,4.11-.07,4.32,4.06,4.68C327.9,410.08,327.67,410.28,326.92,414.38Z"/><path class="cls-12" d="M328.32,414.21c-1-3.88-1.25-4-5.42-3.14,4.08-1.36,4.24-1.61,3.73-5.63,1,3.88,1.25,4,5.42,3.14C328,409.94,327.81,410.19,328.32,414.21Z"/><path class="cls-12" d="M325.3,414c1.74-3.89,1.65-4.15-1.94-6,3.82,1.34,4.1,1.23,6.29-2.46-1.74,3.89-1.65,4.15,1.94,6C327.76,410.22,327.49,410.33,325.3,414Z"/><path class="cls-12" d="M412.09,414.56c3.81-4.78,3.79-4.79,13,2.66-9.23-7.42-9.22-7.39-5.35-12.13-3.81,4.78-3.79,4.79-13-2.66C416,409.84,416,409.82,412.09,414.56Z"/><path class="cls-12" d="M416.47,414.38c-.25-4.11-.07-4.32,4.06-4.68-4.19-.14-4.42-.34-5.17-4.44.25,4.11.07,4.32-4.06,4.68C415.49,410.08,415.72,410.28,416.47,414.38Z"/><path class="cls-12" d="M415.07,414.21c1-3.88,1.25-4,5.42-3.14-4.08-1.36-4.24-1.61-3.73-5.63-1,3.88-1.25,4-5.42,3.14C415.42,409.94,415.58,410.19,415.07,414.21Z"/><path class="cls-12" d="M418.09,414c-1.74-3.89-1.65-4.15,1.94-6-3.82,1.34-4.1,1.23-6.29-2.46,1.74,3.89,1.65,4.15-1.94,6C415.63,410.22,415.91,410.33,418.09,414Z"/><path class="cls-12" d="M250.22,415.54c-3.81-4.78-3.79-4.79-13,2.66,9.23-7.42,9.22-7.39,5.35-12.13,3.81,4.78,3.79,4.79,13-2.66C246.34,410.83,246.35,410.8,250.22,415.54Z"/><path class="cls-12" d="M245.84,415.36c.25-4.11.07-4.32-4.06-4.68,4.19-.14,4.42-.34,5.17-4.44-.25,4.11-.07,4.32,4.06,4.68C246.82,411.07,246.59,411.26,245.84,415.36Z"/><path class="cls-12" d="M247.24,415.19c-1-3.88-1.25-4-5.42-3.14,4.08-1.36,4.24-1.61,3.73-5.63,1,3.88,1.25,4,5.42,3.14C246.9,410.92,246.73,411.17,247.24,415.19Z"/><path class="cls-12" d="M244.22,415c1.74-3.89,1.65-4.15-1.94-6,3.82,1.34,4.1,1.23,6.29-2.46-1.74,3.89-1.65,4.15,1.94,6C246.69,411.21,246.41,411.32,244.22,415Z"/><path class="cls-12" d="M167.91,417.06c-3.81-4.78-3.79-4.79-13,2.66,9.23-7.42,9.22-7.39,5.35-12.13,3.81,4.78,3.79,4.79,13-2.66C164,412.35,164,412.32,167.91,417.06Z"/><path class="cls-12" d="M163.53,416.88c.25-4.11.07-4.32-4.06-4.68,4.19-.14,4.42-.34,5.17-4.44-.25,4.11-.07,4.32,4.06,4.68C164.52,412.59,164.29,412.78,163.53,416.88Z"/><path class="cls-12" d="M164.93,416.71c-1-3.88-1.25-4-5.42-3.14,4.08-1.36,4.24-1.61,3.73-5.63,1,3.88,1.25,4,5.42,3.14C164.59,412.44,164.42,412.69,164.93,416.71Z"/><path class="cls-12" d="M161.91,416.53c1.74-3.89,1.65-4.15-1.94-6,3.82,1.34,4.1,1.23,6.29-2.46-1.74,3.89-1.65,4.15,1.94,6C164.38,412.73,164.1,412.84,161.91,416.53Z"/><path class="cls-12" d="M79.7,418.57c-3.81-4.78-3.79-4.79-13,2.66,9.23-7.42,9.22-7.39,5.35-12.13,3.81,4.78,3.79,4.79,13-2.66C75.82,413.85,75.83,413.83,79.7,418.57Z"/><path class="cls-12" d="M75.32,418.39c.25-4.11.07-4.32-4.06-4.68,4.19-.14,4.42-.34,5.17-4.44-.25,4.11-.07,4.32,4.06,4.68C76.3,414.09,76.07,414.29,75.32,418.39Z"/><path class="cls-12" d="M76.72,418.21c-1-3.88-1.25-4-5.42-3.14,4.08-1.36,4.24-1.61,3.73-5.63,1,3.88,1.25,4,5.42,3.14C76.37,413.95,76.21,414.2,76.72,418.21Z"/><path class="cls-12" d="M73.7,418c1.74-3.89,1.65-4.15-1.94-6,3.82,1.34,4.1,1.23,6.29-2.46-1.74,3.89-1.65,4.15,1.94,6C76.16,414.23,75.89,414.34,73.7,418Z"/><path class="cls-12" d="M499.76,415.25c3.81-4.78,3.79-4.79,13,2.66-9.23-7.42-9.22-7.39-5.35-12.13-3.81,4.78-3.79,4.79-13-2.66C503.63,410.54,503.62,410.51,499.76,415.25Z"/><path class="cls-12" d="M504.13,415.07c-.25-4.11-.07-4.32,4.06-4.68-4.19-.14-4.42-.34-5.17-4.44.25,4.11.07,4.32-4.06,4.68C503.15,410.78,503.38,411,504.13,415.07Z"/><path class="cls-12" d="M502.73,414.9c1-3.88,1.25-4,5.42-3.14-4.08-1.36-4.24-1.61-3.73-5.63-1,3.88-1.25,4-5.42,3.14C503.08,410.63,503.25,410.88,502.73,414.9Z"/><path class="cls-12" d="M505.75,414.73c-1.74-3.89-1.65-4.15,1.94-6-3.82,1.34-4.1,1.23-6.29-2.46,1.74,3.89,1.65,4.15-1.94,6C503.29,410.92,503.57,411,505.75,414.73Z"/><path class="cls-12" d="M581.77,416.54c3.81-4.78,3.79-4.79,13,2.66-9.23-7.42-9.22-7.39-5.35-12.13-3.81,4.78-3.79,4.79-13-2.66C585.65,411.83,585.64,411.8,581.77,416.54Z"/><path class="cls-12" d="M586.15,416.36c-.25-4.11-.07-4.32,4.06-4.68-4.19-.14-4.42-.34-5.17-4.44.25,4.11.07,4.32-4.06,4.68C585.17,412.07,585.4,412.26,586.15,416.36Z"/><path class="cls-12" d="M584.75,416.19c1-3.88,1.25-4,5.42-3.14-4.08-1.36-4.24-1.61-3.73-5.63-1,3.88-1.25,4-5.42,3.14C585.1,411.92,585.26,412.17,584.75,416.19Z"/><path class="cls-12" d="M587.77,416c-1.74-3.89-1.65-4.15,1.94-6-3.82,1.34-4.1,1.23-6.29-2.46,1.74,3.89,1.65,4.15-1.94,6C585.31,412.21,585.59,412.32,587.77,416Z"/><path class="cls-12" d="M665.63,417.57c3.81-4.78,3.79-4.79,13,2.66-9.23-7.42-9.22-7.39-5.35-12.13-3.81,4.78-3.79,4.79-13-2.66C669.51,412.85,669.5,412.83,665.63,417.57Z"/><path class="cls-12" d="M670,417.39c-.25-4.11-.07-4.32,4.06-4.68-4.19-.14-4.42-.34-5.17-4.44.25,4.11.07,4.32-4.06,4.68C669,413.09,669.26,413.29,670,417.39Z"/><path class="cls-12" d="M668.61,417.21c1-3.88,1.25-4,5.42-3.14-4.08-1.36-4.24-1.61-3.73-5.63-1,3.88-1.25,4-5.42,3.14C669,412.95,669.12,413.2,668.61,417.21Z"/><path class="cls-12" d="M671.63,417c-1.74-3.89-1.65-4.15,1.94-6-3.82,1.34-4.1,1.23-6.29-2.46,1.74,3.89,1.65,4.15-1.94,6C669.17,413.23,669.45,413.34,671.63,417Z"/><path class="cls-11" d="M728.29,417.75c-.75-.94-.74-.94-2.55.52,1.81-1.46,1.81-1.45,1.05-2.38.75.94.74.94,2.55-.52C727.53,416.82,727.53,416.82,728.29,417.75Z"/><path class="cls-11" d="M727.43,417.71c0-.81,0-.85-.8-.92.82,0,.87-.07,1-.87,0,.81,0,.85.8.92C727.62,416.87,727.58,416.91,727.43,417.71Z"/><path class="cls-11" d="M727.7,417.68c-.2-.76-.25-.79-1.06-.62.8-.27.83-.32.73-1.11.2.76.25.79,1.06.62C727.64,416.84,727.6,416.89,727.7,417.68Z"/><path class="cls-11" d="M727.11,417.64c.34-.76.32-.82-.38-1.17.75.26.81.24,1.24-.48-.34.76-.32.82.38,1.17C727.59,416.9,727.54,416.92,727.11,417.64Z"/><path class="cls-11" d="M739.48,422.46c-2.37-3-2.35-3-8.07,1.65,5.73-4.61,5.72-4.59,3.32-7.53,2.37,3,2.35,3,8.07-1.65C737.07,419.53,737.08,419.51,739.48,422.46Z"/><path class="cls-11" d="M736.76,422.34c.15-2.55,0-2.68-2.52-2.9,2.6-.09,2.74-.21,3.21-2.75-.15,2.55,0,2.68,2.52,2.9C737.37,419.68,737.23,419.8,736.76,422.34Z"/><path class="cls-11" d="M737.63,422.24c-.63-2.41-.78-2.5-3.36-2,2.53-.84,2.63-1,2.32-3.49.63,2.41.78,2.5,3.36,2C737.42,419.59,737.31,419.74,737.63,422.24Z"/><path class="cls-11" d="M735.76,422.13c1.08-2.41,1-2.58-1.2-3.7,2.37.83,2.55.77,3.9-1.53-1.08,2.41-1,2.58,1.2,3.7C737.28,419.76,737.11,419.83,735.76,422.13Z"/><path class="cls-11" d="M753.82,430.24c-3.81-4.78-3.79-4.79-13,2.66,9.23-7.42,9.22-7.39,5.35-12.13,3.81,4.78,3.79,4.79,13-2.66C749.94,425.52,750,425.5,753.82,430.24Z"/><path class="cls-11" d="M749.44,430.06c.25-4.11.07-4.32-4.06-4.68,4.19-.14,4.42-.34,5.17-4.44-.25,4.11-.07,4.32,4.06,4.68C750.43,425.76,750.2,426,749.44,430.06Z"/><path class="cls-11" d="M750.84,429.88c-1-3.88-1.25-4-5.42-3.14,4.08-1.36,4.24-1.61,3.73-5.63,1,3.88,1.25,4,5.42,3.14C750.5,425.62,750.33,425.87,750.84,429.88Z"/><path class="cls-11" d="M747.82,429.71c1.74-3.89,1.65-4.15-1.94-6,3.82,1.34,4.1,1.23,6.29-2.46-1.74,3.89-1.65,4.15,1.94,6C750.29,425.9,750,426,747.82,429.71Z"/><path class="cls-11" d="M22.85,417.83c.75-.94.74-.94,2.55.52-1.81-1.46-1.81-1.45-1.05-2.38-.75.94-.74.94-2.55-.52C23.61,416.9,23.61,416.9,22.85,417.83Z"/><path class="cls-11" d="M23.71,417.79c0-.81,0-.85.8-.92-.82,0-.87-.07-1-.87,0,.81,0,.85-.8.92C23.52,416.95,23.56,417,23.71,417.79Z"/><path class="cls-11" d="M23.44,417.76c.2-.76.25-.79,1.06-.62-.8-.27-.83-.32-.73-1.11-.2.76-.25.79-1.06.62C23.51,416.92,23.54,417,23.44,417.76Z"/><path class="cls-11" d="M24,417.72c-.34-.76-.32-.82.38-1.17-.75.26-.81.24-1.24-.48.34.76.32.82-.38,1.17C23.55,417,23.6,417,24,417.72Z"/><path class="cls-11" d="M11.66,422.54c2.37-3,2.35-3,8.07,1.65-5.73-4.61-5.72-4.59-3.32-7.53-2.37,3-2.35,3-8.07-1.65C14.07,419.61,14.06,419.59,11.66,422.54Z"/><path class="cls-11" d="M14.38,422.42c-.15-2.55,0-2.68,2.52-2.9-2.6-.09-2.74-.21-3.21-2.75.15,2.55,0,2.68-2.52,2.9C13.77,419.76,13.91,419.88,14.38,422.42Z"/><path class="cls-11" d="M13.51,422.32c.63-2.41.78-2.5,3.36-2-2.53-.84-2.63-1-2.32-3.49-.63,2.41-.78,2.5-3.36,2C13.73,419.67,13.83,419.82,13.51,422.32Z"/><path class="cls-11" d="M15.39,422.21c-1.08-2.41-1-2.58,1.2-3.7-2.37.83-2.55.77-3.9-1.53,1.08,2.41,1,2.58-1.2,3.7C13.86,419.85,14,419.91,15.39,422.21Z"/><path class="cls-11" d="M-2.68,430.32c3.81-4.78,3.79-4.79,13,2.66C1.09,425.56,1.1,425.58,5,420.84c-3.81,4.78-3.79,4.79-13-2.66C1.2,425.6,1.19,425.58-2.68,430.32Z"/><path class="cls-11" d="M1.7,430.14c-.25-4.11-.07-4.32,4.06-4.68-4.19-.14-4.42-.34-5.17-4.44.25,4.11.07,4.32-4.06,4.68C.72,425.84.94,426,1.7,430.14Z"/><path class="cls-11" d="M.3,430c1-3.88,1.25-4,5.42-3.14-4.08-1.36-4.24-1.61-3.73-5.63-1,3.88-1.25,4-5.42,3.14C.64,425.7.81,425.95.3,430Z"/><path class="cls-11" d="M3.32,429.79c-1.74-3.89-1.65-4.15,1.94-6-3.82,1.34-4.1,1.23-6.29-2.46,1.74,3.89,1.65,4.15-1.94,6C.85,426,1.13,426.09,3.32,429.79Z"/></g><g id="飛行機"><line class="cls-13" x1="369.24" y1="398.42" x2="380.81" y2="398.42"/><line class="cls-14" x1="375.02" y1="374.37" x2="375.02" y2="398.42"/><rect class="cls-15" x="368.08" y="393.39" width="3.97" height="10.55"/><rect class="cls-15" x="377.99" y="393.39" width="3.97" height="10.55"/><line class="cls-16" x1="446.69" y1="408.71" x2="430.4" y2="408.71"/><line class="cls-17" x1="438.54" y1="374.14" x2="438.54" y2="408.71"/><polyline class="cls-18" points="438.54 406.22 411.2 366.45 414.62 364.26 438.54 406.22 438.54 406.22 438.54 406.22"/><polygon class="cls-18" points="441.54 377.12 424.85 385.93 441.54 379.61 441.54 377.12"/><rect class="cls-19" x="434.19" y="358.18" width="8.83" height="36.94"/><rect class="cls-15" x="425.91" y="400.7" width="7.45" height="16.01"/><rect class="cls-15" x="443.86" y="400.7" width="7.45" height="16.01"/><line class="cls-16" x1="298.95" y1="406.82" x2="315.24" y2="406.82"/><line class="cls-20" x1="307.1" y1="372.25" x2="307.1" y2="406.82"/><polyline class="cls-18" points="307.1 404.33 334.44 364.55 331.01 362.37 307.1 404.33 307.1 404.33 307.1 404.33"/><polygon class="cls-18" points="304.1 375.23 320.79 384.04 304.1 377.72 304.1 375.23"/><rect class="cls-19" x="302.68" y="353.5" width="8.83" height="40.28"/><rect class="cls-15" x="294.4" y="398.81" width="7.45" height="16.01"/><rect class="cls-15" x="312.34" y="398.81" width="7.45" height="16.01"/><circle class="cls-21" cx="521.15" cy="372.25" r="21.54"/><circle class="cls-15" cx="521.21" cy="372.25" r="16.63"/><circle class="cls-22" cx="521.2" cy="372.25" r="12.56"/><circle class="cls-21" cx="229.77" cy="372.25" r="21.54"/><circle class="cls-15" cx="229.77" cy="372.25" r="16.63"/><circle class="cls-22" cx="229.77" cy="372.25" r="12.56"/><path class="cls-23" d="M229.71,363.83s2.68-4.67,3.09-7.16.38-15.43.38-15.43h-6.63s-.45,12.11,0,15.6,3.16,7,3.16,7"/><path class="cls-24" d="M422.89,341.88s32.57-7.13,59.63-11,49.14-5.8,90.56-9.11,146.33-3.31,146.33-3.31l-24.85,7.73s-46.44,4.64-68.75,7.76S569.5,341.06,541,345.8s-33.41,6-49.42,9.66-32.75,8.95-54.94,17.67S409,382.61,409,382.61Z"/><path class="cls-23" d="M521.15,363.83s2.68-4.67,3.09-7.16.38-15.43.38-15.43H518s-.45,12.11,0,15.6,3.16,7,3.16,7"/><path class="cls-25" d="M422.89,341.88s32.57-7.13,59.63-11,49.14-5.8,90.56-9.11,146.33-3.31,146.33-3.31l-24.85,7.73-33.72,3.65-1.06-6.41s-40.08,2-72.34,5.25c-23.75,2.41-50.18,6.57-50.18,6.57l2,10.88c-21.86,3-29.56,5.68-35.59,6.53l-1.76-9.8-86,19.51Z"/><path class="cls-24" d="M327.9,341.88s-32.57-7.13-59.63-11-49.14-5.8-90.56-9.11-146.33-3.31-146.33-3.31l24.85,7.73S102.67,330.84,125,334s56.3,7.11,84.76,11.85,33.41,6,49.42,9.66,32.75,8.95,54.94,17.67,27.66,9.47,27.66,9.47Z"/><path class="cls-25" d="M327.9,341.88s-32.57-7.13-59.63-11-49.14-5.8-90.56-9.11-146.33-3.31-146.33-3.31l24.85,7.73L90,329.85,91,323.44s40.08,2,72.34,5.25c23.75,2.41,50.18,6.57,50.18,6.57l-2,10.88c21.86,3,29.56,5.68,35.59,6.53l1.76-9.8,86,19.51Z"/><rect class="cls-26" x="327.48" y="318.47" width="95.41" height="64.49" rx="20.94" ry="20.94"/><circle class="cls-27" cx="375.18" cy="335.26" r="47.7"/><path class="cls-28" d="M375.81,183.68s-3.33,30.87-3.79,37.66-1.79,47.37-1.79,47.37-1.38,21.56,0,26.23,5.59,9.39,5.59,9.39,3.71-5.22,4.86-9.66,0-26.5,0-26.5-.87-40-1.27-46.89S375.81,183.68,375.81,183.68Z"/><circle class="cls-29" cx="521.15" cy="372.25" r="8.42"/><path class="cls-30" d="M385.88,325.07c3.73-2,29.49-10.65,57.15-17.08,25.37-5.9,65.6-13.11,63.16-11.49,0,0-9.2,4.07-12.73,5-1.78.45-26,6-48.87,13.66-22.43,7.52-43.52,17.16-47.16,18.63a3.05,3.05,0,0,1-3.46-.86c-1.56-1.82-4.27-4.38-6.84-4C383.19,329.52,382.84,326.67,385.88,325.07Z"/><path class="cls-30" d="M364.91,325.07c-3.73-2-29.49-10.65-57.15-17.08-25.37-5.9-65.6-13.11-63.16-11.49,0,0,9.2,4.07,12.73,5,1.78.45,26,6,48.87,13.66,22.43,7.52,43.52,17.16,47.16,18.63a3.05,3.05,0,0,0,3.46-.86c1.56-1.82,4.27-4.38,6.84-4C367.6,329.52,368,326.67,364.91,325.07Z"/><circle class="cls-29" cx="229.77" cy="372.25" r="8.42"/><circle class="cls-31" cx="229.77" cy="372.25" r="3.79"/><circle class="cls-31" cx="521.2" cy="372.25" r="3.79"/><circle class="cls-32" cx="374.65" cy="333.96" r="5.74"/><circle class="cls-33" cx="374.65" cy="333.96" r="1.84"/><line class="cls-34" x1="375.81" y1="183.68" x2="375.81" y2="304.33"/><path class="cls-35" d="M386.84,320.26c-12.1-.06-12.08-.11-12,21.18,0-21.28.06-21.24-12-21.18,12.1.06,12.08.11,12-21.18C374.77,320.36,374.74,320.32,386.84,320.26Z"/><path class="cls-35" d="M381.12,326.18c-6-5-6.57-5-12.24.41,5-6,5-6.57-.41-12.24,6,5,6.57,5,12.24-.41C375.73,320,375.75,320.5,381.12,326.18Z"/><path class="cls-35" d="M382.6,324c-7.24-3-7.75-2.79-11.57,4,3-7.24,2.79-7.75-4-11.57,7.24,3,7.75,2.79,11.57-4C375.6,319.69,375.78,320.21,382.6,324Z"/><path class="cls-35" d="M378.58,328.05c-3.83-6.82-4.35-7-11.58-4,6.82-3.83,7-4.35,4-11.58,3.83,6.82,4.35,7,11.58,4C375.78,320.31,375.6,320.82,378.58,328.05Z"/><path class="cls-8" d="M42.93,319.21c-8.65,0-8.63-.08-8.61,16.66,0-16.74,0-16.7-8.61-16.66,8.65,0,8.63.08,8.61-16.66C34.3,319.3,34.28,319.26,42.93,319.21Z"/><path class="cls-8" d="M38.84,323.87c-4.3-3.92-4.69-3.91-8.75.32,3.56-4.74,3.55-5.16-.29-9.63,4.3,3.92,4.69,3.91,8.75-.32C35,319,35,319.4,38.84,323.87Z"/><path class="cls-8" d="M39.9,322.17c-5.17-2.33-5.54-2.19-8.27,3.17,2.12-5.69,2-6.09-2.88-9.1,5.17,2.33,5.54,2.19,8.27-3.17C34.89,318.77,35,319.17,39.9,322.17Z"/><path class="cls-8" d="M37,325.34c-2.74-5.36-3.11-5.5-8.27-3.15,4.87-3,5-3.42,2.87-9.1,2.74,5.36,3.11,5.5,8.27,3.15C35,319.25,34.9,319.66,37,325.34Z"/><path class="cls-8" d="M724.59,318.65c-8.23,0-8.21-.08-8.19,15.85,0-15.93,0-15.9-8.19-15.85,8.23,0,8.21.08,8.19-15.85C716.38,318.73,716.36,318.69,724.59,318.65Z"/><path class="cls-8" d="M720.7,323.08c-4.1-3.73-4.47-3.72-8.33.31,3.39-4.51,3.38-4.92-.28-9.17,4.1,3.73,4.47,3.72,8.33-.31C717,318.42,717,318.83,720.7,323.08Z"/><path class="cls-8" d="M721.71,321.47c-4.92-2.22-5.27-2.09-7.87,3,2-5.42,1.9-5.8-2.75-8.66,4.92,2.22,5.27,2.09,7.87-3C716.94,318.23,717.06,318.61,721.71,321.47Z"/><path class="cls-8" d="M719,324.48c-2.61-5.1-3-5.23-7.87-3,4.64-2.87,4.76-3.25,2.73-8.67,2.61,5.1,3,5.23,7.87,3C717.06,318.69,716.94,319.07,719,324.48Z"/></g></svg>