<?xml version="1.0" encoding="utf-8"?>
<!-- Generator: Adobe Illustrator 21.1.0, SVG Export Plug-In . SVG Version: 6.00 Build 0)  -->
<svg version="1.1" id="レイヤー_1" xmlns="http://www.w3.org/2000/svg" xmlns:xlink="http://www.w3.org/1999/xlink" x="0px"
	 y="0px" viewBox="0 0 750 500" style="enable-background:new 0 0 750 500;" xml:space="preserve">
<style type="text/css">
	.st0{fill:#B9DDC0;}
	.st1{fill:#7A6A56;}
	.st2{fill:#B5B5B6;}
	.st3{clip-path:url(#SVGID_2_);fill:#FFFFFF;}
	.st4{clip-path:url(#SVGID_4_);fill:#FFFFFF;}
	.st5{fill:#004B31;}
	.st6{fill:#1890CF;}
	.st7{fill:#FFFFFF;}
</style>
<g>
	<rect class="st0" width="750" height="499.6"/>
</g>
<path class="st1" d="M750,163l-25.6,27.4l-10.2-35.7l-19.4,41.6l-13.3-41.6c0,0-56.9,352.4-378.4,320.7l8,24.2H750V163z"/>
<path class="st2" d="M0.5,190.3l14.8-10.7c0,0,18.4-13.1,25.6,0c7.2,13.1,200.5,333.1,351,320H0L0.5,190.3z"/>
<g>
	<defs>
		<path id="SVGID_1_" d="M0,190.6l14.9-10.7c0,0,18.4-13.1,25.6,0S241.4,512.7,392,499.6H-0.5L0,190.6z"/>
	</defs>
	<clipPath id="SVGID_2_">
		<use xlink:href="#SVGID_1_"  style="overflow:visible;"/>
	</clipPath>
	<path class="st3" d="M-0.5,340.6L17.9,294c0,0,18.4,46.3,17.4,46.3c-1,0,5.1-46.3,5.1-46.3l47.1,57l-7.2-77.2l36.9,44v-21
		L89.7,135.9L0,143.1L-0.5,340.6z"/>
</g>
<g>
	<defs>
		<path id="SVGID_3_" d="M750,163l-25.6,27.4l-10.2-35.7l-19.4,41.6l-13.3-41.6c0,0-56.9,352.4-378.4,320.7l8,24.2H750V163z"/>
	</defs>
	<clipPath id="SVGID_4_">
		<use xlink:href="#SVGID_3_"  style="overflow:visible;"/>
	</clipPath>
	<polygon class="st4" points="622.1,310.6 664.1,287.9 650.8,335.5 679.4,297.4 679.4,360.4 718.3,287.9 734.7,368.8 750,328.3 
		750,161.8 724.4,189.1 714.2,153.5 667.1,132 	"/>
</g>
<g>
	<path class="st5" d="M58.8,93h-3.7l-6.3-10.7c-1.4-2.5-2.9-5.2-4-7.8l-0.1,0c0.2,2.9,0.3,5.9,0.3,9.9V93h-3.4V70.1h4l6.3,10.6
		c1.5,2.5,2.9,5.2,3.9,7.6l0.1,0c-0.3-3.1-0.4-6.1-0.4-9.7v-8.5h3.4V93z"/>
	<path class="st5" d="M75.4,89.1c0,1.4,0,2.8,0.2,3.9h-3.1l-0.2-1.9h-0.1c-0.9,1.3-2.5,2.2-4.6,2.2c-3.1,0-4.9-2.3-4.9-4.8
		c0-4.1,3.6-6.1,9.2-6.1c0-1.2,0-3.7-3.3-3.7c-1.5,0-3,0.4-4,1.1l-0.7-2.3c1.2-0.8,3.1-1.4,5.3-1.4c4.9,0,6.2,3.2,6.2,6.7V89.1z
		 M72,84.7c-2.7,0-5.9,0.5-5.9,3.4c0,1.8,1.1,2.6,2.4,2.6c1.9,0,3.5-1.4,3.5-3.4V84.7z"/>
	<path class="st5" d="M93.6,76.5c-0.1,1.2-0.2,2.5-0.2,4.8v9.4c0,3.3-0.3,9.4-8.1,9.4c-1.9,0-3.9-0.4-5.2-1.2l0.8-2.7
		c1,0.6,2.6,1.2,4.5,1.2c2.7,0,4.6-1.5,4.6-5.2v-1.6h-0.1c-0.8,1.4-2.5,2.4-4.6,2.4c-3.9,0-6.6-3.5-6.6-8.1c0-5.6,3.4-8.7,7-8.7
		c2.5,0,3.8,1.3,4.5,2.6h0.1l0.2-2.2H93.6z M90,82.9c0-2.2-1.4-4-3.6-4c-2.4,0-4.1,2.3-4.1,5.8c0,3.2,1.5,5.5,4,5.5
		c1.8,0,3.6-1.4,3.6-4.1V82.9z"/>
	<path class="st5" d="M112,84.6c0,6.2-4,8.7-7.7,8.7c-4.3,0-7.6-3.1-7.6-8.5c0-5.6,3.4-8.7,7.8-8.7C109,76.1,112,79.5,112,84.6z
		 M104.4,78.7c-3,0-4.1,3.2-4.1,6c0,3.2,1.5,6,4.1,6c2.5,0,4.1-2.7,4.1-6C108.4,82,107.3,78.7,104.4,78.7z"/>
	<path class="st5" d="M128.4,76.5l-4,11.5c-2,5.4-3.3,8.5-5.3,10.4c-1.5,1.4-3,1.9-3.8,2.1l-0.9-2.9c3.6-1.3,4.9-4.6,4.9-5.1
		c0-0.2,0-0.4-0.2-0.7l-5.7-15.2h3.8l3,9.3c0.3,1.1,0.7,2.3,0.9,3.3h0.1c0.2-1,0.6-2.2,0.9-3.3l2.7-9.3H128.4z"/>
	<path class="st5" d="M142.6,89.1c0,1.4,0,2.8,0.2,3.9h-3.1l-0.2-1.9h-0.1c-0.9,1.3-2.5,2.2-4.6,2.2c-3.1,0-4.9-2.3-4.9-4.8
		c0-4.1,3.6-6.1,9.2-6.1c0-1.2,0-3.7-3.3-3.7c-1.5,0-3,0.4-4,1.1l-0.7-2.3c1.2-0.8,3.1-1.4,5.3-1.4c4.9,0,6.2,3.2,6.2,6.7V89.1z
		 M139.2,84.7c-2.7,0-5.9,0.5-5.9,3.4c0,1.8,1.1,2.6,2.4,2.6c1.9,0,3.4-1.4,3.4-3.4V84.7z"/>
	<path class="st5" d="M170,83.6c0,6.8-3.6,9.7-8.7,9.7c-4.9,0-8.3-2.8-8.3-9.6V70.1h3.7v13.9c0,4.6,2,6.5,4.8,6.5c3,0,4.9-2,4.9-6.5
		V70.1h3.7V83.6z"/>
	<path class="st5" d="M188.2,93h-3.5v-9.7c0-2.3-0.8-4.3-3.1-4.3c-1.7,0-3.5,1.4-3.5,4v10h-3.5V81.1c0-1.8-0.1-3.2-0.1-4.6h3
		l0.2,2.5h0.1c0.8-1.4,2.5-2.8,5-2.8c2.6,0,5.5,1.7,5.5,6.8V93z"/>
	<path class="st5" d="M194.3,73.9c-1.2,0-2-0.9-2-2c0-1.2,0.8-2,2-2c1.2,0,2,0.9,2,2C196.3,73,195.6,73.9,194.3,73.9z M196,93h-3.5
		V76.4h3.5V93z"/>
	<path class="st5" d="M214.5,76.5L208.5,93h-3.3l-5.8-16.5h3.7l2.7,8.8c0.4,1.4,0.8,2.8,1.1,4.2h0.1c0.3-1.4,0.7-2.7,1.1-4.2
		l2.7-8.8H214.5z"/>
	<path class="st5" d="M229,92.3c-1.2,0.5-3,1-5.2,1c-5,0-7.9-3.3-7.9-8.4c0-4.9,2.8-8.8,7.4-8.8c4.6,0,6.5,3.9,6.5,7.9
		c0,0.6,0,1-0.1,1.5h-10.5c0.1,3.7,2.4,5.1,5,5.1c1.8,0,3.1-0.3,4.2-0.8L229,92.3z M226.5,83c0-2-0.8-4.4-3.4-4.4
		c-2.6,0-3.6,2.5-3.8,4.4H226.5z"/>
	<path class="st5" d="M242.2,79.5c-0.3-0.1-0.7-0.1-1.1-0.1c-2.5,0-4,1.9-4,4.8V93h-3.7V81.5c0-1.9,0-3.5-0.1-5h3.2l0.1,3h0.1
		c0.8-2.1,2.6-3.4,4.5-3.4c0.3,0,0.6,0,0.9,0.1V79.5z"/>
	<path class="st5" d="M253.1,79.6c-0.7-0.4-1.8-0.9-3.1-0.9c-1.6,0-2.4,0.9-2.4,2c0,1.1,0.8,1.7,2.8,2.6c2.7,1.1,4.2,2.6,4.2,5
		c0,3.2-2.4,5.1-6.2,5.1c-1.7,0-3.4-0.5-4.5-1.1l0.8-2.6c0.8,0.5,2.4,1.1,3.8,1.1c1.9,0,2.8-0.9,2.8-2.2c0-1.3-0.7-2-2.7-2.8
		c-2.9-1.2-4.2-2.8-4.2-4.7c0-2.8,2.2-4.9,5.7-4.9c1.6,0,3,0.4,3.9,1L253.1,79.6z"/>
	<path class="st5" d="M260.2,73.9c-1.2,0-2-0.9-2-2c0-1.2,0.8-2,2-2c1.2,0,2,0.9,2,2C262.3,73,261.5,73.9,260.2,73.9z M262,93h-3.5
		V76.4h3.5V93z"/>
	<path class="st5" d="M267.7,73.5l3.5-1.1v4.1h3.9v2.6h-3.9v8.4c0,2,0.6,3,2.1,3c0.7,0,1.1-0.1,1.5-0.2l0.1,2.7
		c-0.6,0.2-1.5,0.4-2.7,0.4c-1.4,0-2.5-0.5-3.3-1.3c-0.8-0.9-1.2-2.3-1.2-4.4v-8.5h-2.3v-2.6h2.3V73.5z"/>
	<path class="st5" d="M292.7,76.5l-4,11.5c-1.9,5.4-3.3,8.5-5.3,10.4c-1.5,1.4-3,1.9-3.8,2.1l-0.9-2.9c3.6-1.3,4.9-4.6,4.9-5.1
		c0-0.2,0-0.4-0.2-0.7l-5.7-15.2h3.8l3,9.3c0.3,1.1,0.7,2.3,0.9,3.3h0.1c0.2-1,0.6-2.2,0.9-3.3l2.7-9.3H292.7z"/>
	<path class="st5" d="M315.1,93h-13.6V70.1h3.8v20h9.7V93z"/>
	<path class="st5" d="M320.7,73.9c-1.2,0-2-0.9-2-2c0-1.2,0.8-2,2-2c1.2,0,2,0.9,2,2C322.7,73,321.9,73.9,320.7,73.9z M322.4,93
		h-3.5V76.4h3.5V93z"/>
	<path class="st5" d="M330.9,78.8c1-1.7,2.7-2.7,5-2.7c3.8,0,6.4,3.3,6.4,8.4c0,6-3.5,8.8-6.9,8.8c-2.1,0-3.8-0.9-4.9-2.8h-0.1
		l-0.2,2.5h-3c0.1-1.1,0.1-2.9,0.1-4.4V68.9h3.5L330.9,78.8L330.9,78.8z M330.8,86.5c0,2.1,1.5,4.1,3.8,4.1c2.7,0,4.1-2.4,4.1-5.9
		c0-3.1-1.3-5.7-4.1-5.7c-2.2,0-3.8,2.1-3.8,4.3V86.5z"/>
	<path class="st5" d="M354,79.5c-0.3-0.1-0.6-0.1-1-0.1c-2.3,0-3.8,1.9-3.8,4.8V93h-3.5V81.5c0-1.9,0-3.5-0.1-5h3l0.1,3h0.1
		c0.8-2.1,2.5-3.4,4.3-3.4c0.3,0,0.6,0,0.9,0.1V79.5z"/>
	<path class="st5" d="M368.3,89.1c0,1.4,0,2.8,0.2,3.9h-3.1l-0.2-1.9H365c-0.9,1.3-2.5,2.2-4.6,2.2c-3.1,0-4.9-2.3-4.9-4.8
		c0-4.1,3.6-6.1,9.2-6.1c0-1.2,0-3.7-3.3-3.7c-1.5,0-3,0.4-4,1.1l-0.7-2.3c1.2-0.8,3.1-1.4,5.3-1.4c4.9,0,6.2,3.2,6.2,6.7V89.1z
		 M364.9,84.7c-2.7,0-5.9,0.5-5.9,3.4c0,1.8,1.1,2.6,2.4,2.6c1.9,0,3.4-1.4,3.4-3.4V84.7z"/>
	<path class="st5" d="M381.5,79.5c-0.3-0.1-0.7-0.1-1.1-0.1c-2.5,0-4,1.9-4,4.8V93h-3.7V81.5c0-1.9,0-3.5-0.1-5h3.2l0.1,3h0.1
		c0.8-2.1,2.6-3.4,4.5-3.4c0.3,0,0.6,0,0.9,0.1V79.5z"/>
	<path class="st5" d="M398.9,76.5l-4,11.5c-2,5.4-3.3,8.5-5.3,10.4c-1.5,1.4-3,1.9-3.8,2.1l-0.9-2.9c3.6-1.3,4.9-4.6,4.9-5.1
		c0-0.2,0-0.4-0.2-0.7l-5.7-15.2h3.8l3,9.3c0.3,1.1,0.7,2.3,0.9,3.3h0.1c0.2-1,0.6-2.2,0.9-3.3l2.7-9.3H398.9z"/>
	<path class="st5" d="M430.4,70.1L425.1,93h-3.3l-2.2-11.1c-0.5-2.7-0.9-5-1.2-7.4h-0.1c-0.3,2.5-0.8,4.7-1.4,7.4L414.4,93h-3.3
		l-4.8-22.9h3.3l2.1,10.9c0.5,2.8,1,5.6,1.3,8h0.1c0.3-2.5,0.9-5.2,1.5-8.1l2.3-10.9h3.1l2.2,10.9c0.5,2.7,1,5.3,1.3,8h0.1
		c0.4-2.7,0.8-5.3,1.4-8.1l2.2-10.8H430.4z"/>
	<path class="st5" d="M446.9,84.6c0,6.2-4,8.7-7.7,8.7c-4.3,0-7.6-3.1-7.6-8.5c0-5.6,3.4-8.7,7.8-8.7
		C443.9,76.1,446.9,79.5,446.9,84.6z M439.3,78.7c-3,0-4.1,3.2-4.1,6c0,3.2,1.5,6,4.1,6c2.5,0,4.1-2.7,4.1-6
		C443.3,82,442.2,78.7,439.3,78.7z"/>
	<path class="st5" d="M459.4,79.5c-0.3-0.1-0.7-0.1-1.1-0.1c-2.5,0-4,1.9-4,4.8V93h-3.7V81.5c0-1.9,0-3.5-0.1-5h3.2l0.1,3h0.1
		c0.8-2.1,2.6-3.4,4.5-3.4c0.3,0,0.6,0,0.9,0.1V79.5z"/>
	<path class="st5" d="M476.8,93h-4.2l-4.7-7.6l-1.3,1.6V93H463V68.9h3.5v15h0.1c0.4-0.6,0.8-1.3,1.3-1.9l4.1-5.5h4.1l-5.8,6.8
		L476.8,93z"/>
	<path class="st5" d="M487.7,79.6c-0.7-0.4-1.8-0.9-3.1-0.9c-1.6,0-2.4,0.9-2.4,2c0,1.1,0.8,1.7,2.8,2.6c2.7,1.1,4.2,2.6,4.2,5
		c0,3.2-2.4,5.1-6.2,5.1c-1.7,0-3.4-0.5-4.5-1.1l0.8-2.6c0.8,0.5,2.4,1.1,3.8,1.1c1.9,0,2.8-0.9,2.8-2.2c0-1.3-0.7-2-2.7-2.8
		c-2.9-1.2-4.2-2.8-4.2-4.7c0-2.8,2.2-4.9,5.7-4.9c1.6,0,3,0.4,3.9,1L487.7,79.6z"/>
	<path class="st5" d="M506.9,93h-3.5v-9.7c0-2.4-0.8-4.3-3.2-4.3c-1.7,0-3.5,1.4-3.5,3.9V93h-3.5V68.9h3.5v9.8h0.1
		c1.1-1.7,2.9-2.6,4.7-2.6c2.5,0,5.4,1.7,5.4,6.9V93z"/>
	<path class="st5" d="M525.8,84.6c0,6.2-4,8.7-7.7,8.7c-4.3,0-7.6-3.1-7.6-8.5c0-5.6,3.4-8.7,7.8-8.7
		C522.8,76.1,525.8,79.5,525.8,84.6z M518.2,78.7c-3,0-4.1,3.2-4.1,6c0,3.2,1.5,6,4.1,6c2.5,0,4.1-2.7,4.1-6
		C522.2,82,521.1,78.7,518.2,78.7z"/>
	<path class="st5" d="M532.7,79c1.1-1.9,2.9-2.9,5.2-2.9c3.7,0,6.5,3.3,6.5,8.4c0,6.1-3.5,8.8-7,8.8c-2,0-3.6-0.9-4.4-2.3H533v8.6
		h-3.5V81.8c0-2.2-0.1-3.9-0.1-5.3h3.1L532.7,79L532.7,79z M533,86.3c0,3,2,4.2,3.7,4.2c2.7,0,4.2-2.5,4.2-5.9
		c0-3.1-1.4-5.8-4.1-5.8c-2.1,0-3.8,2-3.8,4.4V86.3z"/>
	<path class="st5" d="M556.6,79.6c-0.7-0.4-1.8-0.9-3.1-0.9c-1.6,0-2.4,0.9-2.4,2c0,1.1,0.8,1.7,2.8,2.6c2.7,1.1,4.2,2.6,4.2,5
		c0,3.2-2.4,5.1-6.2,5.1c-1.7,0-3.4-0.5-4.5-1.1l0.8-2.6c0.8,0.5,2.4,1.1,3.8,1.1c1.9,0,2.8-0.9,2.8-2.2c0-1.3-0.7-2-2.7-2.8
		c-2.9-1.2-4.2-2.8-4.2-4.7c0-2.8,2.2-4.9,5.7-4.9c1.6,0,3,0.4,3.9,1L556.6,79.6z"/>
	<path class="st5" d="M569.8,73.9c-1.2,0-2-0.9-2-2c0-1.2,0.8-2,2-2c1.2,0,2,0.9,2,2C571.9,73,571.1,73.9,569.8,73.9z M571.6,93
		h-3.5V76.4h3.5V93z"/>
	<path class="st5" d="M589.7,93h-3.5v-9.7c0-2.3-0.8-4.3-3.2-4.3c-1.7,0-3.5,1.4-3.5,4v10H576V81.1c0-1.8-0.1-3.2-0.1-4.6h3l0.2,2.5
		h0.1c0.8-1.4,2.5-2.8,5-2.8c2.6,0,5.5,1.7,5.5,6.8V93z"/>
	<path class="st5" d="M611.4,93h-13.7v-2.1l2.4-2.5c4.8-4.9,7.4-8,7.4-11.4c0-2.2-1-4.1-3.9-4.1c-1.7,0-3.3,0.9-4.3,1.8l-1-2.5
		c1.4-1.1,3.6-2.1,6.1-2.1c4.7,0,6.7,3.1,6.7,6.6c0,4.1-2.8,7.6-6.8,11.5l-1.9,1.9v0.1h9.1V93z"/>
	<path class="st5" d="M614.3,81.8c0-7.4,2.8-11.7,7.5-11.7c4.8,0,7.2,4.6,7.2,11.5c0,7.6-2.8,11.8-7.4,11.8
		C616.8,93.3,614.3,88.7,614.3,81.8z M625.4,81.6c0-5.4-1.1-8.8-3.8-8.8c-2.3,0-3.8,3.2-3.8,8.8c0,5.6,1.4,8.9,3.8,8.9
		C624.5,90.5,625.4,86.3,625.4,81.6z"/>
	<path class="st5" d="M636.2,93V73.6h-0.1l-3.8,2.1l-0.8-2.6l5.1-2.7h2.9V93H636.2z"/>
	<path class="st5" d="M644.4,70.4h13.6v2.2l-9,20.4h-3.6l9-19.6v-0.1h-10.1V70.4z"/>
</g>
<g>
	<path class="st5" d="M104.8,214h-9.3l-3.3-12.2H79.8L76.6,214h-9l13.1-46.1h11.2L104.8,214z M90.9,195.1l-2.8-10.5
		c-0.7-2.9-1.5-6.6-2.1-9.4h-0.2c-0.6,2.9-1.4,6.7-2,9.4l-2.8,10.6H90.9z"/>
	<path class="st5" d="M132.4,213.2c-1.5,0.7-4.6,1.4-8.1,1.4c-9.8,0-16.1-6.4-16.1-17c0-10,6.5-17.7,17.5-17.7c2.9,0,5.5,0.7,7,1.3
		l-1.4,6.8c-1.1-0.5-2.8-1.1-5.2-1.1c-5.6,0-8.8,4.5-8.8,10.4c0,6.5,3.8,10.3,8.9,10.3c2.2,0,4-0.4,5.4-1.1L132.4,213.2z"/>
	<path class="st5" d="M165.8,206.1c0,2.9,0.1,5.9,0.5,7.9h-8l-0.5-3.5h-0.2c-1.9,2.6-5.2,4.1-8.9,4.1c-6.2,0-10-4.6-10-10
		c0-8.6,7.6-12.6,18.2-12.6c0-3.3-1.1-5.8-6-5.8c-3.1,0-6.1,1-8.2,2.3l-1.7-5.8c2.2-1.3,6.4-2.8,11.6-2.8c10.4,0,13.2,6.6,13.2,13.9
		V206.1z M157.2,197.7c-4.8,0-9.8,1.1-9.8,6c0,3.2,2,4.6,4.2,4.6c2.1,0,5.6-1.5,5.6-5.8V197.7z"/>
	<path class="st5" d="M201.9,204.5c0,3.4,0.1,7.1,0.2,9.5h-7.8l-0.4-4.7h-0.2c-1.7,3.3-5.3,5.4-9.4,5.4c-7.6,0-13-7-13-17.1
		c0-11.4,6.3-17.6,13.5-17.6c3.9,0,6.7,1.6,8,3.9h0.1v-18.1h8.9V204.5z M193,194.2c0-4.9-2.9-7.3-5.9-7.3c-4.6,0-6.8,4.7-6.8,10.5
		c0,6.1,2.5,10.1,6.7,10.1c2.6,0,6-1.9,6-7.2V194.2z"/>
	<path class="st5" d="M234.5,212.7c-2.8,1.2-6.7,1.9-10.8,1.9c-10.3,0-16.2-6.5-16.2-16.9c0-9.6,5.5-17.9,15.3-17.9
		c8.1,0,13.4,5.8,13.4,16.6c0,1.3-0.1,2.6-0.2,3.5h-20c0.2,5.7,4.3,8,9.1,8c3.3,0,5.9-0.6,8.2-1.4L234.5,212.7z M228,193.8
		c0.1-3.5-1.3-7.7-5.7-7.7c-4.3,0-6.1,4.4-6.3,7.7H228z"/>
	<path class="st5" d="M283.9,214h-7.8v-18.9c0-4.8-1.2-8-4.4-8c-2.2,0-4.7,1.9-4.7,6.6V214h-7.8v-19.7c0-4-1.1-7.1-4.3-7.1
		c-2.2,0-4.8,2.3-4.8,6.8V214h-7.8v-23.3c0-3.9-0.1-7.1-0.2-10h6.8l0.4,4.4h0.2c1.4-2.4,4.1-5.2,8.5-5.2c3.7,0,6.5,2.2,7.7,5.6h0.1
		c2.5-4.1,5.6-5.6,8.9-5.6c5.2,0,9.3,4.1,9.3,13.8V214z"/>
	<path class="st5" d="M296.4,176.2c-2.8,0-4.7-2-4.7-4.7c0-2.8,2-4.7,4.7-4.7c2.9,0,4.8,2,4.8,4.7
		C301.2,174.3,299.2,176.2,296.4,176.2z M300.9,214H292v-33.4h8.9V214z"/>
	<path class="st5" d="M331.3,213.2c-1.5,0.7-4.6,1.4-8.1,1.4c-9.8,0-16.1-6.4-16.1-17c0-10,6.5-17.7,17.5-17.7c2.9,0,5.5,0.7,7,1.3
		l-1.4,6.8c-1.1-0.5-2.8-1.1-5.2-1.1c-5.6,0-8.8,4.5-8.8,10.4c0,6.5,3.8,10.3,8.9,10.3c2.2,0,4-0.4,5.4-1.1L331.3,213.2z"/>
	<path class="st5" d="M395,167.9l-9.8,46.1h-8.5l-3.6-19.6c-0.9-4.8-1.6-9.5-2.1-14.7H371c-0.7,5.2-1.5,9.8-2.5,14.7l-4,19.6H356
		l-9.1-46.1h8.5l3.2,19.9c0.9,5.5,1.7,11.2,2.3,16.1h0.2c0.6-5.2,1.6-10.5,2.7-16.3l3.8-19.8h7.9l3.5,20c0.9,5.4,1.7,10.5,2.3,15.9
		h0.2c0.6-5.5,1.5-10.7,2.3-16.2l3.4-19.7H395z"/>
	<path class="st5" d="M419.7,188.5c-0.7-0.1-1.4-0.2-2.4-0.2c-4.2,0-7.4,2.7-7.4,8.4V214h-9.3v-23c0-4.1-0.1-7.4-0.3-10.4h8l0.4,5.8
		h0.3c1.6-4.3,5.4-6.5,8.7-6.5c0.9,0,1.4,0.1,2.1,0.2V188.5z"/>
	<path class="st5" d="M430.3,176.2c-2.8,0-4.7-2-4.7-4.7c0-2.8,2-4.7,4.7-4.7c2.9,0,4.8,2,4.8,4.7
		C435.1,174.3,433.1,176.2,430.3,176.2z M434.8,214h-8.9v-33.4h8.9V214z"/>
	<path class="st5" d="M445.1,174.5l8.8-2.6v8.7h7.4v6.5h-7.4v14.5c0,4,1.3,5.7,4,5.7c1.3,0,2-0.1,2.9-0.3l0.1,6.8
		c-1.2,0.5-3.4,0.8-5.9,0.8c-9.6,0-9.8-8.3-9.8-12.1v-15.4h-4.4v-6.5h4.4V174.5z"/>
	<path class="st5" d="M472.7,176.2c-2.8,0-4.7-2-4.7-4.7c0-2.8,2-4.7,4.7-4.7c2.9,0,4.8,2,4.8,4.7
		C477.5,174.3,475.4,176.2,472.7,176.2z M477.2,214h-8.9v-33.4h8.9V214z"/>
	<path class="st5" d="M513.7,214h-8.9v-19.5c0-4.1-1.3-7.3-5.1-7.3c-2.4,0-5.7,1.9-5.7,7V214h-8.9v-23.3c0-3.9-0.1-7.1-0.2-10h7.7
		l0.4,4.5h0.2c1.5-2.5,4.8-5.2,9.7-5.2c6.1,0,10.9,4.3,10.9,13.6V214z"/>
	<path class="st5" d="M549.8,180.6c-0.2,2.4-0.3,5.3-0.3,10v18.8c0,6.5-0.6,18.7-16.9,18.7c-3.9,0-7.9-0.8-10.6-2.3l1.7-6.8
		c2,1.1,5.1,2.2,8.6,2.2c5,0,8.3-2.8,8.3-9.2v-2.5h-0.1c-1.7,2.6-4.7,4.3-8.3,4.3c-7.9,0-12.9-7.1-12.9-16.3
		c0-11,6.4-17.6,13.8-17.6c4.2,0,6.9,2,8.4,4.7h0.1l0.4-4H549.8z M540.6,193.6c0-4.3-2.6-6.7-5.6-6.7c-4,0-6.7,4.1-6.7,10.4
		c0,5.8,2.5,9.8,6.7,9.8c2,0,5.6-1.3,5.6-7V193.6z"/>
	<path class="st5" d="M595.5,206.1c0,2.9,0.1,5.9,0.5,7.9h-8l-0.5-3.5h-0.2c-1.9,2.6-5.2,4.1-8.9,4.1c-6.2,0-10-4.6-10-10
		c0-8.6,7.6-12.6,18.2-12.6c0-3.3-1.1-5.8-6-5.8c-3.1,0-6.1,1-8.2,2.3l-1.7-5.8c2.2-1.3,6.4-2.8,11.6-2.8c10.4,0,13.2,6.6,13.2,13.9
		V206.1z M586.8,197.7c-4.8,0-9.8,1.1-9.8,6c0,3.2,2,4.6,4.2,4.6c2.1,0,5.6-1.5,5.6-5.8V197.7z"/>
	<path class="st5" d="M632,214h-8.9v-19.5c0-4.1-1.3-7.3-5.1-7.3c-2.4,0-5.7,1.9-5.7,7V214h-8.9v-23.3c0-3.9-0.1-7.1-0.2-10h7.7
		l0.4,4.5h0.2c1.5-2.5,4.8-5.2,9.7-5.2c6.1,0,10.9,4.3,10.9,13.6V214z"/>
	<path class="st5" d="M668.6,204.5c0,3.4,0.1,7.1,0.2,9.5h-7.8l-0.4-4.7h-0.2c-1.7,3.3-5.3,5.4-9.4,5.4c-7.6,0-13-7-13-17.1
		c0-11.4,6.3-17.6,13.5-17.6c3.9,0,6.7,1.6,8,3.9h0.1v-18.1h8.9V204.5z M659.7,194.2c0-4.9-2.9-7.3-5.9-7.3c-4.6,0-6.8,4.7-6.8,10.5
		c0,6.1,2.5,10.1,6.7,10.1c2.6,0,6-1.9,6-7.2V194.2z"/>
	<path class="st5" d="M97.9,289H71.2v-46.1h9.3v38.6h17.3V289z"/>
	<path class="st5" d="M132.9,272c0,12.7-8.2,17.6-15.6,17.6c-9,0-15.5-6.4-15.5-17.2c0-11.2,6.8-17.6,15.8-17.6
		C127,254.9,132.9,261.9,132.9,272z M117.5,261.4c-4.9,0-6.7,5.8-6.7,10.9c0,5.9,2.3,10.9,6.6,10.9c4.2,0,6.5-5,6.5-10.9
		C123.9,267,122,261.4,117.5,261.4z"/>
	<path class="st5" d="M168.4,255.6c-0.2,2.4-0.3,5.3-0.3,10v18.8c0,6.5-0.6,18.7-16.9,18.7c-3.9,0-7.9-0.8-10.6-2.3l1.7-6.8
		c2,1.1,5.1,2.2,8.6,2.2c5,0,8.3-2.8,8.3-9.2v-2.5h-0.1c-1.7,2.6-4.7,4.3-8.3,4.3c-7.9,0-12.9-7.1-12.9-16.3
		c0-11,6.4-17.6,13.8-17.6c4.2,0,6.9,2,8.4,4.7h0.1l0.4-4H168.4z M159.2,268.6c0-4.3-2.6-6.7-5.6-6.7c-4,0-6.7,4.1-6.7,10.4
		c0,5.8,2.5,9.8,6.7,9.8c2,0,5.6-1.3,5.6-7V268.6z"/>
	<path class="st5" d="M181.1,251.2c-2.8,0-4.7-2-4.7-4.7c0-2.8,2-4.7,4.7-4.7c2.9,0,4.8,2,4.8,4.7
		C185.9,249.3,183.9,251.2,181.1,251.2z M185.6,289h-8.9v-33.4h8.9V289z"/>
	<path class="st5" d="M216.6,288.2c-1.5,0.7-4.6,1.4-8.1,1.4c-9.8,0-16.1-6.4-16.1-17c0-10,6.5-17.7,17.5-17.7c2.9,0,5.5,0.7,7,1.3
		l-1.4,6.8c-1.1-0.5-2.8-1.1-5.2-1.1c-5.6,0-8.8,4.5-8.8,10.4c0,6.5,3.8,10.3,8.9,10.3c2.2,0,4-0.4,5.4-1.1L216.6,288.2z"/>
	<path class="st5" d="M250.3,281.1c0,2.9,0.1,5.9,0.5,7.9h-8l-0.5-3.5h-0.2c-1.9,2.6-5.2,4.1-8.9,4.1c-6.2,0-10-4.6-10-10
		c0-8.6,7.6-12.6,18.2-12.6c0-3.3-1.1-5.8-6-5.8c-3.1,0-6.1,1-8.2,2.3l-1.7-5.8c2.2-1.3,6.4-2.8,11.6-2.8c10.4,0,13.2,6.6,13.2,13.9
		V281.1z M241.7,272.7c-4.8,0-9.8,1.1-9.8,6c0,3.2,2,4.6,4.2,4.6c2.1,0,5.6-1.5,5.6-5.8V272.7z"/>
	<path class="st5" d="M266.5,289h-8.9v-48.2h8.9V289z"/>
	<path class="st5" d="M315.8,250.5h-11.4V289h-8.9v-38.5h-11.3v-7.7h31.6V250.5z"/>
	<path class="st5" d="M350.6,289.3h-8.9v-18.7c0-4.1-1.3-7.3-5.2-7.3c-2.2,0-5.6,1.5-5.6,6.3v19.7h-8.9v-46.8h8.9v18.3h0.1
		c2.4-3.4,6.1-4.6,8.9-4.6c5.9,0,10.6,4.2,10.6,13.7V289.3z"/>
	<path class="st5" d="M362.9,251.2c-2.8,0-4.7-2-4.7-4.7c0-2.8,2-4.7,4.7-4.7c2.9,0,4.8,2,4.8,4.7
		C367.7,249.3,365.7,251.2,362.9,251.2z M367.4,289h-8.9v-33.4h8.9V289z"/>
	<path class="st5" d="M404,289h-8.9v-19.5c0-4.1-1.3-7.3-5.1-7.3c-2.4,0-5.7,1.9-5.7,7V289h-8.9v-23.3c0-3.9-0.1-7.1-0.2-10h7.7
		l0.4,4.5h0.2c1.5-2.5,4.8-5.2,9.7-5.2c6.1,0,10.9,4.3,10.9,13.6V289z"/>
	<path class="st5" d="M441.5,289h-10.6l-7.8-14.3l-2.3,3.2V289h-8.9v-48.2h8.9v29.4h0.2c0.7-1.5,1.4-2.9,2.2-4.1l6.7-10.4h10.3
		l-10.9,13.7L441.5,289z"/>
	<path class="st5" d="M450.2,251.2c-2.8,0-4.7-2-4.7-4.7c0-2.8,2-4.7,4.7-4.7c2.9,0,4.8,2,4.8,4.7
		C455,249.3,452.9,251.2,450.2,251.2z M454.7,289h-8.9v-33.4h8.9V289z"/>
	<path class="st5" d="M491.2,289h-8.9v-19.5c0-4.1-1.3-7.3-5.1-7.3c-2.4,0-5.7,1.9-5.7,7V289h-8.9v-23.3c0-3.9-0.1-7.1-0.2-10h7.7
		l0.4,4.5h0.2c1.5-2.5,4.8-5.2,9.7-5.2c6.1,0,10.9,4.3,10.9,13.6V289z"/>
	<path class="st5" d="M527.4,255.6c-0.2,2.4-0.3,5.3-0.3,10v18.8c0,6.5-0.6,18.7-16.9,18.7c-3.9,0-7.9-0.8-10.6-2.3l1.7-6.8
		c2,1.1,5.1,2.2,8.6,2.2c5,0,8.3-2.8,8.3-9.2v-2.5h-0.1c-1.7,2.6-4.7,4.3-8.3,4.3c-7.9,0-12.9-7.1-12.9-16.3
		c0-11,6.4-17.6,13.8-17.6c4.2,0,6.9,2,8.4,4.7h0.1l0.4-4H527.4z M518.2,268.6c0-4.3-2.6-6.7-5.6-6.7c-4,0-6.7,4.1-6.7,10.4
		c0,5.8,2.5,9.8,6.7,9.8c2,0,5.6-1.3,5.6-7V268.6z"/>
	<path class="st5" d="M571.1,251.6c-1.6-0.8-4.4-2-8.2-2c-4.7,0-6.8,2.5-6.8,5.1c0,3.3,2.3,4.8,7.9,7.4c7.4,3.3,10.7,7.6,10.7,13.6
		c0,8-6.1,13.9-16.8,13.9c-4.6,0-9.2-1.3-11.3-2.6l1.7-7.4c2.4,1.4,6.2,2.6,10,2.6c4.9,0,7.5-2.3,7.5-5.8c0-3.3-2.2-5.3-7.3-7.5
		c-7-3-11.3-7.3-11.3-13.3c0-7.6,5.9-13.4,15.9-13.4c4.4,0,7.7,1,9.9,2.1L571.1,251.6z"/>
	<path class="st5" d="M610.6,289H600l-7.8-14.3l-2.3,3.2V289H581v-48.2h8.9v29.4h0.2c0.7-1.5,1.4-2.9,2.2-4.1l6.7-10.4h10.3
		l-10.9,13.7L610.6,289z"/>
	<path class="st5" d="M619,251.2c-2.8,0-4.7-2-4.7-4.7c0-2.8,2-4.7,4.7-4.7c2.9,0,4.8,2,4.8,4.7C623.8,249.3,621.7,251.2,619,251.2z
		 M623.5,289h-8.9v-33.4h8.9V289z"/>
	<path class="st5" d="M641.8,289H633v-48.2h8.9V289z"/>
	<path class="st5" d="M659.3,289h-8.9v-48.2h8.9V289z"/>
	<path class="st5" d="M686.1,263c-1.4-0.8-3.8-1.7-6.3-1.7c-2.7,0-4.1,1.4-4.1,3.2c0,1.9,1.3,2.8,5.1,4.4c5.6,2.3,8.3,5.6,8.3,10.2
		c0,6.4-4.8,10.6-13.1,10.6c-3.7,0-7.2-0.9-9.4-2.2l1.7-6.4c1.7,1,5,2.2,7.8,2.2c3.1,0,4.6-1.3,4.6-3.4s-1.1-3.1-4.8-4.7
		c-6.2-2.5-8.5-6.1-8.5-9.7c0-6,4.8-10.6,12.2-10.6c3.4,0,6.4,0.8,8.3,1.9L686.1,263z"/>
</g>
<g>
	<path d="M132.1,375.7h2.3V391h-2.3V375.7z"/>
	<path d="M147.4,391h-2.3v-6.5c0-1.6-0.5-2.9-2.1-2.9c-1.1,0-2.4,0.9-2.4,2.7v6.6h-2.3v-7.9c0-1.2,0-2.2-0.1-3.1h2l0.1,1.6h0.1
		c0.5-0.9,1.7-1.9,3.3-1.9c1.7,0,3.6,1.1,3.6,4.5V391z"/>
	<path d="M155.9,382.1c-0.4-0.3-1.2-0.6-2.1-0.6c-1,0-1.6,0.6-1.6,1.3c0,0.8,0.5,1.1,1.8,1.7c1.8,0.7,2.8,1.7,2.8,3.3
		c0,2.1-1.6,3.4-4.1,3.4c-1.2,0-2.3-0.3-3-0.7l0.5-1.7c0.6,0.3,1.6,0.7,2.5,0.7c1.2,0,1.8-0.6,1.8-1.4c0-0.8-0.5-1.3-1.8-1.9
		c-2-0.8-2.8-1.9-2.8-3.2c0-1.8,1.5-3.3,3.8-3.3c1.1,0,2,0.3,2.6,0.6L155.9,382.1z"/>
	<path d="M159.7,378l2.3-0.7v2.7h2.6v1.7H162v5.6c0,1.4,0.4,2,1.4,2c0.5,0,0.7-0.1,1-0.1l0.1,1.8c-0.4,0.2-1,0.3-1.8,0.3
		c-0.9,0-1.7-0.3-2.2-0.8c-0.6-0.6-0.8-1.5-0.8-3v-5.7h-1.6V380h1.6V378z"/>
	<path d="M172.2,382c-0.2,0-0.4-0.1-0.7-0.1c-1.6,0-2.5,1.3-2.5,3.2v5.8h-2.3v-7.7c0-1.3,0-2.3-0.1-3.4h2l0.1,2h0.1
		c0.5-1.4,1.7-2.3,2.9-2.3c0.2,0,0.4,0,0.6,0.1V382z"/>
	<path d="M183.1,387.8c0,1.2,0.1,2.3,0.1,3.2h-2l-0.1-1.6H181c-0.5,0.8-1.5,1.8-3.3,1.8c-1.9,0-3.6-1.2-3.6-4.7V380h2.3v6.2
		c0,1.9,0.5,3.2,2.1,3.2c1.1,0,2.3-0.8,2.3-2.5V380h2.3V387.8z"/>
	<path d="M193.7,390.7c-0.5,0.2-1.6,0.6-2.8,0.6c-3.2,0-5.3-2.2-5.3-5.6c0-3.3,2.2-5.9,5.7-5.9c1.1,0,2,0.3,2.5,0.5l-0.5,1.8
		c-0.4-0.2-1-0.4-2-0.4c-2.2,0-3.4,1.8-3.4,3.9c0,2.4,1.4,3.9,3.3,3.9c0.9,0,1.6-0.2,2.1-0.4L193.7,390.7z"/>
	<path d="M196.8,378l2.3-0.7v2.7h2.6v1.7h-2.6v5.6c0,1.4,0.4,2,1.4,2c0.5,0,0.7-0.1,1-0.1l0.1,1.8c-0.4,0.2-1,0.3-1.8,0.3
		c-0.9,0-1.7-0.3-2.2-0.8c-0.6-0.6-0.8-1.5-0.8-3v-5.7h-1.6V380h1.6V378z"/>
	<path d="M213.2,385.4c0,4.1-2.7,5.8-5.2,5.8c-2.9,0-5-2.1-5-5.7c0-3.7,2.3-5.8,5.2-5.8C211.2,379.7,213.2,382,213.2,385.4z
		 M208.1,381.5c-2,0-2.7,2.1-2.7,4c0,2.2,1,4,2.7,4c1.7,0,2.7-1.8,2.7-4C210.8,383.6,210.1,381.5,208.1,381.5z"/>
	<path d="M221,382c-0.2,0-0.4-0.1-0.7-0.1c-1.6,0-2.5,1.3-2.5,3.2v5.8h-2.3v-7.7c0-1.3,0-2.3-0.1-3.4h2l0.1,2h0.1
		c0.5-1.4,1.7-2.3,2.9-2.3c0.2,0,0.4,0,0.6,0.1V382z"/>
	<path d="M225.5,381.8c0-0.9,0.6-1.6,1.5-1.6c0.9,0,1.5,0.6,1.5,1.6c0,0.9-0.6,1.6-1.5,1.6C226.1,383.3,225.5,382.6,225.5,381.8z
		 M225.5,389.7c0-0.9,0.6-1.6,1.5-1.6c0.9,0,1.5,0.7,1.5,1.6c0,0.9-0.6,1.6-1.5,1.6C226.1,391.2,225.5,390.5,225.5,389.7z"/>
	<path d="M235.3,375.9c0.9-0.2,2.1-0.3,3.7-0.3c1.9,0,3.3,0.4,4.2,1.2c0.9,0.7,1.4,1.9,1.4,3.3c0,3.7-3,5-5.7,5
		c-0.5,0-0.9,0-1.3-0.1v6h-2.3V375.9z M237.6,383.1c0.3,0.1,0.8,0.1,1.3,0.1c2.1,0,3.4-1.1,3.4-3.1c0-1.9-1.3-2.8-3.1-2.8
		c-0.7,0-1.3,0.1-1.6,0.1V383.1z"/>
	<path d="M254.6,388.4c0,0.9,0,1.9,0.2,2.6h-2.1l-0.2-1.3h-0.1c-0.6,0.9-1.7,1.5-3.1,1.5c-2.1,0-3.2-1.5-3.2-3.2
		c0-2.7,2.4-4.1,6.2-4.1c0-0.8,0-2.5-2.2-2.5c-1,0-2,0.3-2.7,0.8l-0.5-1.5c0.8-0.5,2.1-0.9,3.6-0.9c3.2,0,4.1,2.1,4.1,4.5V388.4z
		 M252.4,385.5c-1.8,0-3.9,0.3-3.9,2.3c0,1.2,0.8,1.8,1.6,1.8c1.3,0,2.3-1,2.3-2.2V385.5z"/>
	<path d="M266.5,387.8c0,1.2,0.1,2.3,0.1,3.2h-2l-0.1-1.6h-0.1c-0.5,0.8-1.5,1.8-3.3,1.8c-1.9,0-3.6-1.2-3.6-4.7V380h2.3v6.2
		c0,1.9,0.5,3.2,2.1,3.2c1.1,0,2.3-0.8,2.3-2.5V380h2.3V387.8z"/>
	<path d="M271.8,391h-2.3v-16h2.3V391z"/>
	<path d="M287.6,391h-8.2v-15.3h2.3V389h5.9V391z"/>
	<path d="M297.3,388.4c0,0.9,0,1.9,0.2,2.6h-2.1l-0.2-1.3h-0.1c-0.6,0.9-1.7,1.5-3.1,1.5c-2.1,0-3.2-1.5-3.2-3.2
		c0-2.7,2.4-4.1,6.2-4.1c0-0.8,0-2.5-2.2-2.5c-1,0-2,0.3-2.7,0.8l-0.5-1.5c0.8-0.5,2.1-0.9,3.6-0.9c3.2,0,4.1,2.1,4.1,4.5V388.4z
		 M295,385.5c-1.8,0-3.9,0.3-3.9,2.3c0,1.2,0.8,1.8,1.6,1.8c1.3,0,2.3-1,2.3-2.2V385.5z"/>
	<path d="M301.3,378.3c-0.8,0-1.3-0.6-1.3-1.3c0-0.8,0.6-1.4,1.4-1.4s1.3,0.6,1.3,1.4C302.7,377.7,302.2,378.3,301.3,378.3z
		 M302.5,391h-2.3v-11h2.3V391z"/>
	<path d="M308.2,387.9c-0.6,2-1.6,4.5-2.3,5.7l-1.6,0.2c0.6-1.5,1.2-3.9,1.4-5.7L308.2,387.9z"/>
	<path d="M315,375.9c0.9-0.2,2.1-0.3,3.7-0.3c1.9,0,3.3,0.4,4.2,1.2c0.9,0.7,1.4,1.9,1.4,3.3c0,3.7-3,5-5.7,5c-0.5,0-0.9,0-1.3-0.1
		v6H315V375.9z M317.3,383.1c0.3,0.1,0.8,0.1,1.3,0.1c2.1,0,3.4-1.1,3.4-3.1c0-1.9-1.3-2.8-3.1-2.8c-0.7,0-1.3,0.1-1.6,0.1V383.1z"
		/>
	<path d="M335.7,391h-2.3v-6.4c0-1.6-0.5-2.9-2.1-2.9c-1.1,0-2.4,0.9-2.4,2.6v6.7h-2.3v-16h2.3v6.5h0c0.7-1.1,2-1.7,3.2-1.7
		c1.7,0,3.6,1.1,3.6,4.6V391z"/>
	<path d="M338.3,389.6c0-0.9,0.6-1.6,1.5-1.6c0.9,0,1.5,0.7,1.5,1.6c0,0.9-0.6,1.6-1.5,1.6C338.9,391.2,338.3,390.5,338.3,389.6z"/>
	<path d="M343.6,375.9c1.1-0.2,2.5-0.3,3.9-0.3c6.5,0,7.9,4,7.9,7.4v0c0,2.8-0.9,4.8-2.2,6.1c-1.4,1.3-3.6,2-6.3,2
		c-1.4,0-2.5-0.1-3.3-0.2V375.9z M346,389.2c0.4,0.1,1,0.1,1.5,0.1c3.4,0,5.5-2,5.5-6.2c0-3.7-1.9-5.6-5.2-5.6
		c-0.8,0-1.4,0.1-1.8,0.2V389.2z"/>
	<path d="M132.1,410.9c1.1-0.2,2.5-0.3,3.9-0.3c6.5,0,7.9,4,7.9,7.4v0c0,2.8-0.9,4.8-2.2,6.1c-1.4,1.3-3.6,2-6.3,2
		c-1.4,0-2.5-0.1-3.3-0.2V410.9z M134.4,424.2c0.4,0.1,1,0.1,1.5,0.1c3.4,0,5.5-2,5.5-6.2c0-3.7-1.9-5.6-5.2-5.6
		c-0.8,0-1.4,0.1-1.8,0.2V424.2z"/>
	<path d="M147.3,413.3c-0.8,0-1.3-0.6-1.3-1.3c0-0.8,0.6-1.4,1.4-1.4s1.3,0.6,1.3,1.4C148.7,412.7,148.1,413.3,147.3,413.3z
		 M148.5,426h-2.3v-11h2.3V426z"/>
	<path d="M157,417c-0.2,0-0.4-0.1-0.7-0.1c-1.6,0-2.5,1.3-2.5,3.2v5.8h-2.3v-7.7c0-1.3,0-2.3-0.1-3.4h2l0.1,2h0.1
		c0.5-1.4,1.7-2.3,2.9-2.3c0.2,0,0.4,0,0.6,0.1V417z"/>
	<path d="M166.8,425.6c-0.8,0.4-2,0.7-3.5,0.7c-3.3,0-5.2-2.2-5.2-5.6c0-3.3,1.8-5.9,5-5.9c3.1,0,4.3,2.6,4.3,5.3c0,0.4,0,0.7-0.1,1
		h-7c0.1,2.5,1.6,3.4,3.3,3.4c1.2,0,2.1-0.2,2.8-0.5L166.8,425.6z M165.2,419.4c0-1.3-0.5-3-2.3-3c-1.7,0-2.4,1.7-2.5,3H165.2z"/>
	<path d="M177.6,425.7c-0.5,0.2-1.6,0.6-2.8,0.6c-3.2,0-5.3-2.2-5.3-5.6c0-3.3,2.2-5.9,5.7-5.9c1.1,0,2,0.3,2.5,0.5l-0.5,1.8
		c-0.4-0.2-1-0.4-2-0.4c-2.2,0-3.4,1.8-3.4,3.9c0,2.4,1.4,3.9,3.3,3.9c0.9,0,1.6-0.2,2.1-0.4L177.6,425.7z"/>
	<path d="M181.1,413l2.3-0.7v2.7h2.6v1.7h-2.6v5.6c0,1.4,0.4,2,1.4,2c0.5,0,0.7-0.1,1-0.1l0.1,1.8c-0.4,0.2-1,0.3-1.8,0.3
		c-0.9,0-1.7-0.3-2.2-0.8c-0.6-0.6-0.8-1.5-0.8-3v-5.7h-1.6V415h1.6V413z"/>
	<path d="M197.5,420.4c0,4.1-2.7,5.8-5.2,5.8c-2.9,0-5-2.1-5-5.7c0-3.7,2.3-5.8,5.2-5.8C195.5,414.7,197.5,417,197.5,420.4z
		 M192.4,416.5c-2,0-2.7,2.1-2.7,4c0,2.2,1,4,2.7,4c1.7,0,2.7-1.8,2.7-4C195.1,418.6,194.4,416.5,192.4,416.5z"/>
	<path d="M205.4,417c-0.2,0-0.4-0.1-0.7-0.1c-1.6,0-2.5,1.3-2.5,3.2v5.8h-2.3v-7.7c0-1.3,0-2.3-0.1-3.4h2l0.1,2h0.1
		c0.5-1.4,1.7-2.3,2.9-2.3c0.2,0,0.4,0,0.6,0.1V417z"/>
	<path d="M210.2,416.8c0-0.9,0.6-1.6,1.5-1.6c0.9,0,1.5,0.6,1.5,1.6c0,0.9-0.6,1.6-1.5,1.6C210.8,418.3,210.2,417.6,210.2,416.8z
		 M210.2,424.7c0-0.9,0.6-1.6,1.5-1.6c0.9,0,1.5,0.7,1.5,1.6c0,0.9-0.6,1.6-1.5,1.6C210.8,426.2,210.2,425.5,210.2,424.7z"/>
	<path d="M231,426h-2.3l-4-7.2c-0.9-1.7-1.8-3.5-2.5-5.2l-0.1,0c0.1,1.9,0.2,3.9,0.2,6.6v5.7h-2.1v-15.3h2.5l4,7.1
		c1,1.7,1.8,3.4,2.5,5.1l0.1,0c-0.2-2.1-0.2-4-0.2-6.5v-5.6h2.1V426z"/>
	<path d="M241.8,423.4c0,0.9,0,1.9,0.2,2.6h-2.1l-0.2-1.3h-0.1c-0.6,0.9-1.7,1.5-3.1,1.5c-2.1,0-3.2-1.5-3.2-3.2
		c0-2.7,2.4-4.1,6.2-4.1c0-0.8,0-2.5-2.2-2.5c-1,0-2,0.3-2.7,0.8l-0.5-1.5c0.8-0.5,2.1-0.9,3.6-0.9c3.2,0,4.1,2.1,4.1,4.5V423.4z
		 M239.6,420.5c-1.8,0-3.9,0.3-3.9,2.3c0,1.2,0.8,1.8,1.6,1.8c1.3,0,2.3-1,2.3-2.2V420.5z"/>
	<path d="M253.9,415c-0.1,0.8-0.1,1.7-0.1,3.2v6.3c0,2.2-0.2,6.3-5.4,6.3c-1.3,0-2.6-0.3-3.5-0.8l0.5-1.8c0.7,0.4,1.7,0.8,3,0.8
		c1.8,0,3.1-1,3.1-3.5v-1.1h0c-0.6,0.9-1.6,1.6-3.1,1.6c-2.6,0-4.4-2.3-4.4-5.4c0-3.7,2.3-5.8,4.7-5.8c1.6,0,2.6,0.8,3,1.7h0
		l0.1-1.5H253.9z M251.5,419.2c0-1.5-1-2.7-2.4-2.7c-1.6,0-2.7,1.5-2.7,3.9c0,2.2,1,3.7,2.7,3.7c1.2,0,2.4-0.9,2.4-2.8V419.2z"/>
	<path d="M266.3,420.4c0,4.1-2.7,5.8-5.2,5.8c-2.9,0-5-2.1-5-5.7c0-3.7,2.3-5.8,5.2-5.8C264.3,414.7,266.3,417,266.3,420.4z
		 M261.2,416.5c-2,0-2.7,2.1-2.7,4c0,2.2,1,4,2.7,4c1.7,0,2.7-1.8,2.7-4C263.9,418.6,263.2,416.5,261.2,416.5z"/>
	<path d="M277.3,415l-2.7,7.6c-1.3,3.6-2.2,5.7-3.5,6.9c-1,0.9-2,1.3-2.6,1.4l-0.6-2c2.4-0.9,3.3-3.1,3.3-3.4c0-0.1,0-0.3-0.1-0.5
		l-3.8-10.2h2.5l2,6.2c0.2,0.7,0.4,1.6,0.6,2.2h0.1c0.2-0.6,0.4-1.5,0.6-2.2l1.8-6.2H277.3z"/>
	<path d="M286.7,423.4c0,0.9,0,1.9,0.2,2.6h-2.1l-0.2-1.3h-0.1c-0.6,0.9-1.7,1.5-3.1,1.5c-2.1,0-3.2-1.5-3.2-3.2
		c0-2.7,2.4-4.1,6.2-4.1c0-0.8,0-2.5-2.2-2.5c-1,0-2,0.3-2.7,0.8l-0.5-1.5c0.8-0.5,2.1-0.9,3.6-0.9c3.2,0,4.1,2.1,4.1,4.5V423.4z
		 M284.4,420.5c-1.8,0-3.9,0.3-3.9,2.3c0,1.2,0.8,1.8,1.6,1.8c1.3,0,2.3-1,2.3-2.2V420.5z"/>
	<path d="M305,419.8c0,4.5-2.3,6.5-5.5,6.5c-3.1,0-5.3-1.8-5.3-6.4v-9.1h2.3v9.3c0,3.1,1.3,4.4,3,4.4c1.9,0,3.1-1.3,3.1-4.4v-9.3
		h2.3V419.8z"/>
	<path d="M317.1,426h-2.3v-6.5c0-1.6-0.5-2.9-2.1-2.9c-1.1,0-2.4,0.9-2.4,2.7v6.6H308v-7.9c0-1.2,0-2.2-0.1-3.1h2l0.1,1.6h0.1
		c0.5-0.9,1.7-1.9,3.3-1.9c1.7,0,3.6,1.1,3.6,4.5V426z"/>
	<path d="M321.2,413.3c-0.8,0-1.3-0.6-1.3-1.3c0-0.8,0.6-1.4,1.4-1.4s1.3,0.6,1.3,1.4C322.5,412.7,322,413.3,321.2,413.3z
		 M322.3,426H320v-11h2.3V426z"/>
	<path d="M334.5,415l-4,11h-2.2l-3.9-11h2.5l1.8,5.9c0.3,1,0.5,1.9,0.7,2.8h0.1c0.2-0.9,0.5-1.8,0.7-2.8l1.8-5.9H334.5z"/>
	<path d="M344.3,425.6c-0.8,0.4-2,0.7-3.5,0.7c-3.3,0-5.2-2.2-5.2-5.6c0-3.3,1.8-5.9,5-5.9c3.1,0,4.3,2.6,4.3,5.3c0,0.4,0,0.7-0.1,1
		h-7c0.1,2.5,1.6,3.4,3.3,3.4c1.2,0,2.1-0.2,2.8-0.5L344.3,425.6z M342.7,419.4c0-1.3-0.5-3-2.3-3c-1.7,0-2.4,1.7-2.5,3H342.7z"/>
	<path d="M352.7,417c-0.2,0-0.4-0.1-0.7-0.1c-1.6,0-2.5,1.3-2.5,3.2v5.8h-2.3v-7.7c0-1.3,0-2.3-0.1-3.4h2l0.1,2h0.1
		c0.5-1.4,1.7-2.3,2.9-2.3c0.2,0,0.4,0,0.6,0.1V417z"/>
	<path d="M360.4,417.1c-0.4-0.3-1.2-0.6-2.1-0.6c-1,0-1.6,0.6-1.6,1.3c0,0.8,0.5,1.1,1.8,1.7c1.8,0.7,2.8,1.7,2.8,3.3
		c0,2.1-1.6,3.4-4.1,3.4c-1.2,0-2.3-0.3-3-0.7l0.5-1.7c0.6,0.3,1.6,0.7,2.5,0.7c1.2,0,1.8-0.6,1.8-1.4c0-0.8-0.5-1.3-1.8-1.9
		c-2-0.8-2.8-1.9-2.8-3.2c0-1.8,1.5-3.3,3.8-3.3c1.1,0,2,0.3,2.6,0.6L360.4,417.1z"/>
	<path d="M365.3,413.3c-0.8,0-1.3-0.6-1.3-1.3c0-0.8,0.6-1.4,1.4-1.4s1.3,0.6,1.3,1.4C366.6,412.7,366.1,413.3,365.3,413.3z
		 M366.4,426h-2.3v-11h2.3V426z"/>
	<path d="M370.7,413l2.3-0.7v2.7h2.6v1.7H373v5.6c0,1.4,0.4,2,1.4,2c0.5,0,0.7-0.1,1-0.1l0.1,1.8c-0.4,0.2-1,0.3-1.8,0.3
		c-0.9,0-1.7-0.3-2.2-0.8c-0.6-0.6-0.8-1.5-0.8-3v-5.7h-1.6V415h1.6V413z"/>
	<path d="M387.3,415l-2.7,7.6c-1.3,3.6-2.2,5.7-3.5,6.9c-1,0.9-2,1.3-2.6,1.4l-0.6-2c2.4-0.9,3.3-3.1,3.3-3.4c0-0.1,0-0.3-0.1-0.5
		l-3.8-10.2h2.5l2,6.2c0.2,0.7,0.4,1.6,0.6,2.2h0.1c0.2-0.6,0.4-1.5,0.6-2.2l1.8-6.2H387.3z"/>
	<path d="M410.1,410.7l-3.9,15.3h-2.4l-1.7-7.4c-0.4-1.8-0.7-3.3-0.9-5h-0.1c-0.2,1.6-0.6,3.1-1,5l-1.8,7.4h-2.4l-3.6-15.3h2.5
		l1.5,7.3c0.4,1.9,0.7,3.8,1,5.3h0c0.2-1.6,0.7-3.4,1.1-5.4l1.7-7.2h2.3l1.6,7.3c0.4,1.8,0.7,3.6,1,5.3h0.1c0.3-1.8,0.6-3.5,1-5.4
		l1.6-7.2H410.1z"/>
	<path d="M417.4,417c-0.2,0-0.4-0.1-0.7-0.1c-1.6,0-2.5,1.3-2.5,3.2v5.8h-2.3v-7.7c0-1.3,0-2.3-0.1-3.4h2l0.1,2h0.1
		c0.5-1.4,1.7-2.3,2.9-2.3c0.2,0,0.4,0,0.6,0.1V417z"/>
	<path d="M420.9,413.3c-0.8,0-1.3-0.6-1.3-1.3c0-0.8,0.6-1.4,1.4-1.4c0.8,0,1.3,0.6,1.3,1.4C422.2,412.7,421.7,413.3,420.9,413.3z
		 M422,426h-2.3v-11h2.3V426z"/>
	<path d="M426,413l2.3-0.7v2.7h2.6v1.7h-2.6v5.6c0,1.4,0.4,2,1.4,2c0.5,0,0.7-0.1,1-0.1l0.1,1.8c-0.4,0.2-1,0.3-1.8,0.3
		c-0.9,0-1.7-0.3-2.2-0.8c-0.6-0.6-0.8-1.5-0.8-3v-5.7h-1.6V415h1.6V413z"/>
	<path d="M434.3,413.3c-0.8,0-1.3-0.6-1.3-1.3c0-0.8,0.6-1.4,1.4-1.4c0.8,0,1.3,0.6,1.3,1.4C435.6,412.7,435.1,413.3,434.3,413.3z
		 M435.4,426h-2.3v-11h2.3V426z"/>
	<path d="M448,426h-2.3v-6.5c0-1.6-0.5-2.9-2.1-2.9c-1.1,0-2.4,0.9-2.4,2.7v6.6h-2.3v-7.9c0-1.2,0-2.2-0.1-3.1h2l0.1,1.6h0.1
		c0.5-0.9,1.7-1.9,3.3-1.9c1.7,0,3.6,1.1,3.6,4.5V426z"/>
	<path d="M460.1,415c-0.1,0.8-0.1,1.7-0.1,3.2v6.3c0,2.2-0.2,6.3-5.4,6.3c-1.3,0-2.6-0.3-3.5-0.8l0.5-1.8c0.7,0.4,1.7,0.8,3,0.8
		c1.8,0,3.1-1,3.1-3.5v-1.1h0c-0.6,0.9-1.6,1.6-3.1,1.6c-2.6,0-4.4-2.3-4.4-5.4c0-3.7,2.3-5.8,4.7-5.8c1.6,0,2.6,0.8,3,1.7h0
		l0.1-1.5H460.1z M457.7,419.2c0-1.5-1-2.7-2.4-2.7c-1.6,0-2.7,1.5-2.7,3.9c0,2.2,1,3.7,2.7,3.7c1.2,0,2.4-0.9,2.4-2.8V419.2z"/>
	<path d="M477.5,425.6c-0.6,0.3-1.9,0.6-3.6,0.6c-4.3,0-7.1-2.8-7.1-7.7c0-5.2,3.3-8,7.5-8c1.8,0,2.8,0.4,3.3,0.6L477,413
		c-0.6-0.3-1.5-0.6-2.7-0.6c-3,0-5.2,2-5.2,6c0,3.8,2,5.9,5.1,5.9c1,0,2.1-0.2,2.8-0.5L477.5,425.6z"/>
	<path d="M487.7,425.6c-0.8,0.4-2,0.7-3.5,0.7c-3.3,0-5.2-2.2-5.2-5.6c0-3.3,1.8-5.9,5-5.9c3.1,0,4.3,2.6,4.3,5.3c0,0.4,0,0.7-0.1,1
		h-7c0.1,2.5,1.6,3.4,3.3,3.4c1.2,0,2.1-0.2,2.8-0.5L487.7,425.6z M486.1,419.4c0-1.3-0.5-3-2.3-3c-1.7,0-2.4,1.7-2.5,3H486.1z"/>
	<path d="M499.6,426h-2.3v-6.5c0-1.6-0.5-2.9-2.1-2.9c-1.1,0-2.4,0.9-2.4,2.7v6.6h-2.3v-7.9c0-1.2,0-2.2-0.1-3.1h2l0.1,1.6h0.1
		c0.5-0.9,1.7-1.9,3.3-1.9c1.7,0,3.6,1.1,3.6,4.5V426z"/>
	<path d="M503,413l2.3-0.7v2.7h2.6v1.7h-2.6v5.6c0,1.4,0.4,2,1.4,2c0.5,0,0.7-0.1,1-0.1l0.1,1.8c-0.4,0.2-1,0.3-1.8,0.3
		c-0.9,0-1.7-0.3-2.2-0.8c-0.6-0.6-0.8-1.5-0.8-3v-5.7h-1.6V415h1.6V413z"/>
	<path d="M518,425.6c-0.8,0.4-2,0.7-3.5,0.7c-3.3,0-5.2-2.2-5.2-5.6c0-3.3,1.8-5.9,5-5.9c3.1,0,4.3,2.6,4.3,5.3c0,0.4,0,0.7-0.1,1
		h-7c0.1,2.5,1.6,3.4,3.3,3.4c1.2,0,2.1-0.2,2.8-0.5L518,425.6z M516.3,419.4c0-1.3-0.5-3-2.3-3c-1.7,0-2.4,1.7-2.5,3H516.3z"/>
	<path d="M526.3,417c-0.2,0-0.4-0.1-0.7-0.1c-1.6,0-2.5,1.3-2.5,3.2v5.8h-2.3v-7.7c0-1.3,0-2.3-0.1-3.4h2l0.1,2h0.1
		c0.5-1.4,1.7-2.3,2.9-2.3c0.2,0,0.4,0,0.6,0.1V417z"/>
	<path d="M535.3,428.7c-1.3-1.8-2.8-4.8-2.8-9.2c0-4.5,1.5-7.4,2.8-9.3h1.7c-1.5,2.2-2.6,5.2-2.6,9.3c0,4,1.2,7,2.6,9.2H535.3z"/>
	<path d="M553.8,426h-2.2l-0.3-6.4c-0.1-2.1-0.2-4.4-0.2-6.3H551c-0.5,1.8-1.1,3.8-1.7,5.7l-2.3,6.9h-1.7l-2.1-6.8
		c-0.6-2-1.2-4-1.5-5.8h-0.1c0,1.9-0.2,4.3-0.3,6.5l-0.3,6.3h-2.2l1-15.3h2.9l2.2,6.7c0.6,1.9,1,3.6,1.4,5.3h0.1
		c0.4-1.6,0.9-3.4,1.5-5.3l2.2-6.7h2.9L553.8,426z"/>
	<path d="M564.5,425.6c-0.8,0.4-2,0.7-3.5,0.7c-3.3,0-5.2-2.2-5.2-5.6c0-3.3,1.8-5.9,5-5.9c3.1,0,4.3,2.6,4.3,5.3c0,0.4,0,0.7-0.1,1
		h-7c0.1,2.5,1.6,3.4,3.3,3.4c1.2,0,2.1-0.2,2.8-0.5L564.5,425.6z M562.9,419.4c0-1.3-0.5-3-2.3-3c-1.7,0-2.4,1.7-2.5,3H562.9z"/>
	<path d="M568.5,413.3c-0.8,0-1.3-0.6-1.3-1.3c0-0.8,0.6-1.4,1.4-1.4c0.8,0,1.3,0.6,1.3,1.4C569.8,412.7,569.3,413.3,568.5,413.3z
		 M569.6,426h-2.3v-11h2.3V426z"/>
	<path d="M571.8,419.1h5.5v1.7h-5.5V419.1z"/>
	<path d="M596.2,410.7l-3.9,15.3h-2.4l-1.7-7.4c-0.4-1.8-0.7-3.3-0.9-5h-0.1c-0.2,1.6-0.6,3.1-1,5l-1.8,7.4h-2.4l-3.6-15.3h2.5
		l1.5,7.3c0.4,1.9,0.7,3.8,1,5.3h0c0.2-1.6,0.7-3.4,1.1-5.4l1.7-7.2h2.3l1.6,7.3c0.4,1.8,0.7,3.6,1,5.3h0.1c0.3-1.8,0.6-3.5,1-5.4
		l1.6-7.2H596.2z"/>
	<path d="M603.5,417c-0.2,0-0.4-0.1-0.7-0.1c-1.6,0-2.5,1.3-2.5,3.2v5.8h-2.3v-7.7c0-1.3,0-2.3-0.1-3.4h2l0.1,2h0.1
		c0.5-1.4,1.7-2.3,2.9-2.3c0.2,0,0.4,0,0.6,0.1V417z"/>
	<path d="M606.4,413.3c-0.8,0-1.3-0.6-1.3-1.3c0-0.8,0.6-1.4,1.4-1.4c0.8,0,1.3,0.6,1.3,1.4C607.8,412.7,607.3,413.3,606.4,413.3z
		 M607.6,426h-2.3v-11h2.3V426z"/>
	<path d="M611.5,413l2.3-0.7v2.7h2.6v1.7h-2.6v5.6c0,1.4,0.4,2,1.4,2c0.5,0,0.7-0.1,1-0.1l0.1,1.8c-0.4,0.2-1,0.3-1.8,0.3
		c-0.9,0-1.7-0.3-2.2-0.8c-0.6-0.6-0.8-1.5-0.8-3v-5.7H610V415h1.6V413z"/>
	<path d="M620.1,413.3c-0.8,0-1.3-0.6-1.3-1.3c0-0.8,0.6-1.4,1.4-1.4c0.8,0,1.3,0.6,1.3,1.4C621.5,412.7,620.9,413.3,620.1,413.3z
		 M621.3,426h-2.3v-11h2.3V426z"/>
	<path d="M633.3,426H631v-6.5c0-1.6-0.5-2.9-2.1-2.9c-1.1,0-2.4,0.9-2.4,2.7v6.6h-2.3v-7.9c0-1.2,0-2.2-0.1-3.1h2l0.1,1.6h0.1
		c0.5-0.9,1.7-1.9,3.3-1.9c1.7,0,3.6,1.1,3.6,4.5V426z"/>
	<path d="M645.5,415c-0.1,0.8-0.1,1.7-0.1,3.2v6.3c0,2.2-0.2,6.3-5.4,6.3c-1.3,0-2.6-0.3-3.5-0.8l0.5-1.8c0.7,0.4,1.7,0.8,3,0.8
		c1.8,0,3.1-1,3.1-3.5v-1.1h0c-0.6,0.9-1.6,1.6-3.1,1.6c-2.6,0-4.4-2.3-4.4-5.4c0-3.7,2.3-5.8,4.7-5.8c1.6,0,2.6,0.8,3,1.7h0
		l0.1-1.5H645.5z M643,419.2c0-1.5-1-2.7-2.4-2.7c-1.6,0-2.7,1.5-2.7,3.9c0,2.2,1,3.7,2.7,3.7c1.2,0,2.4-0.9,2.4-2.8V419.2z"/>
	<path d="M649.1,410.3c1.3,1.8,2.8,4.7,2.8,9.2c0,4.5-1.4,7.4-2.8,9.2h-1.7c1.5-2.2,2.6-5.2,2.6-9.2c0-4.1-1.1-7-2.6-9.2H649.1z"/>
</g>
<g>
	<g>
		<g>
			<polygon class="st6" points="689,62 689,94 712,94 694.3,62 691.4,65.5 			"/>
			<polygon class="st6" points="689,62 689,94 666,94 683.7,62 686.6,65.5 			"/>
		</g>
		<polygon class="st7" points="694.4,62 691.5,65.5 689.1,62 686.5,65.5 683.6,62 678.2,71.9 683.4,70 688.7,72.8 693.6,70 
			699.8,71.9 		"/>
	</g>
</g>
</svg>
