<?xml version="1.0"?>
<svg xmlns="http://www.w3.org/2000/svg" viewBox="0 0 65.28 65.28">
  <defs>
    <style>
      .cls-1 {
        fill: #10ee3b;
      }

      .cls-2 {
        fill: #fff;
      }
    </style>
  </defs>
  <title>&#x30A2;&#x30BB;&#x30C3;&#x30C8; 2</title>
  <g id="&#x30EC;&#x30A4;&#x30E4;&#x30FC;_2">
    <g id="&#x30C7;&#x30B6;&#x30A4;&#x30F3;">
      <g id="goto_headline_1">
        <g>
          <g>
            <g>
              <circle class="cls-1" cx="32.64" cy="32.64" r="32.59"/>
              <path class="cls-1" d="M32.64,65.28A32.65,32.65,0,0,1,19.93,2.56,32.65,32.65,0,0,1,45.34,62.71,32.43,32.43,0,0,1,32.64,65.28Zm0-65.19A32.55,32.55,0,1,0,65.19,32.64,32.59,32.59,0,0,0,32.64.09Z"/>
            </g>
            <rect class="cls-2" x="19.72" y="17.66" width="25.83" height="42.54" transform="translate(-12.52 62.19) rotate(-77.27)"/>
            <g>
              <path class="cls-1" d="M17.86,27.42l-.52-.12L17,29.05l-.4-.09.39-1.75-.51-.12.08-.35,1.44.32Z"/>
              <path class="cls-1" d="M18.18,27.13l.4.09-.47,2.09-.4-.09Z"/>
              <path class="cls-1" d="M20.18,27.95l-.52-.12-.39,1.75-.4-.09.39-1.75-.51-.12.08-.35,1.44.32Z"/>
              <path class="cls-1" d="M21.18,30,20,29.75l.47-2.09.4.09-.4,1.75.75.17Z"/>
              <path class="cls-1" d="M22.63,30.33l-1.17-.26L21.93,28l1.13.25-.08.34-.72-.16-.11.51.68.15-.07.33-.68-.15-.13.58.77.17Z"/>
            </g>
            <g>
              <line class="cls-1" x1="15.13" y1="30.37" x2="53.67" y2="39.08"/>
              <rect class="cls-1" x="34.31" y="14.97" width="0.17" height="39.52" transform="translate(-7.05 60.63) rotate(-77.27)"/>
            </g>
            <g>
              <line class="cls-1" x1="13.95" y1="35.85" x2="52.5" y2="44.56"/>
              <rect class="cls-1" x="33.14" y="20.44" width="0.17" height="39.52" transform="translate(-13.31 63.75) rotate(-77.27)"/>
            </g>
            <g>
              <path class="cls-1" d="M15.47,32.24a3.19,3.19,0,0,1,.55.08,1.16,1.16,0,0,1,.71.39,1,1,0,0,1,.14.87,1.12,1.12,0,0,1-.51.78,1.27,1.27,0,0,1-.9.06A3.73,3.73,0,0,1,15,34.3Zm0,1.85.15,0c.38.09.69-.09.82-.64s-.07-.76-.45-.84l-.19,0Z"/>
              <path class="cls-1" d="M18.46,35.09,18,35l0-.59-.56-.13-.27.52-.41-.09,1.07-2,.51.12Zm-.43-1,0-.51c0-.14,0-.31,0-.45h0l-.19.4-.23.45Z"/>
              <path class="cls-1" d="M20.4,33.69l-.52-.12-.39,1.75-.4-.09.39-1.75L19,33.36,19,33l1.44.32Z"/>
              <path class="cls-1" d="M21.42,35.75l-1.17-.27.47-2.09,1.13.25-.08.34L21,33.82l-.11.51.68.15-.07.33-.68-.15-.13.58.77.17Z"/>
            </g>
            <g>
              <path class="cls-1" d="M15,40.11l-1.15-.26.47-2.09.4.09-.4,1.75.75.17Z"/>
              <path class="cls-1" d="M17.13,39.47c-.17.73-.62,1-1.14.9s-.76-.66-.62-1.27.59-1,1.14-.88A.94.94,0,0,1,17.13,39.47Zm-1.34-.28c-.09.41,0,.79.29.85s.53-.23.63-.65,0-.77-.29-.84S15.88,38.81,15.79,39.2Z"/>
              <path class="cls-1" d="M18.55,40.87a1.2,1.2,0,0,1-.48,0,1,1,0,0,1-.74-1.27,1,1,0,0,1,1.28-.87,1,1,0,0,1,.42.18l-.15.31a.85.85,0,0,0-.32-.14c-.35-.08-.68.1-.79.6s.08.78.46.87a1,1,0,0,0,.35,0Z"/>
              <path class="cls-1" d="M20.37,41.33l-.42-.1,0-.59-.56-.13-.27.52L18.68,41l1.07-2,.51.12Zm-.44-1,0-.5c0-.14,0-.32,0-.45h0l-.19.4-.23.45Z"/>
              <path class="cls-1" d="M22.31,39.93l-.52-.12-.39,1.75-.4-.09.39-1.75-.52-.12.08-.35,1.44.32Z"/>
              <path class="cls-1" d="M22.62,39.64l.4.09-.47,2.09-.4-.09Z"/>
              <path class="cls-1" d="M24.86,41.22c-.17.73-.62,1-1.14.9s-.76-.66-.62-1.27.59-1,1.14-.88A.94.94,0,0,1,24.86,41.22Zm-1.34-.28c-.09.41,0,.79.29.85s.53-.23.63-.66,0-.77-.28-.84S23.61,40.56,23.52,40.94Z"/>
              <path class="cls-1" d="M26.46,42.71l-.4-.09-.25-1a7.26,7.26,0,0,1-.16-.78h0c0,.26-.1.56-.18.93l-.15.64-.37-.08.47-2.1.44.1.25,1a7,7,0,0,1,.16.75h0c0-.27.09-.57.17-.91l.14-.63.37.08Z"/>
            </g>
          </g>
          <g>
            <rect class="cls-2" x="32.9" y="4.38" width="5.28" height="43.4" transform="matrix(0.22, -0.98, 0.98, 0.22, 2.27, 55)"/>
            <g>
              <polygon class="cls-1" points="21.05 25.64 16.23 24.55 20.86 20.7 25.68 21.79 21.05 25.64"/>
              <path class="cls-1" d="M21.06,25.68l-4.93-1.11,4.72-3.91,4.93,1.11Zm-4.74-1.16L21,25.59l4.55-3.77-4.72-1.07Z"/>
            </g>
            <g>
              <polygon class="cls-1" points="29.77 27.61 24.95 26.52 29.58 22.67 34.41 23.76 29.77 27.61"/>
              <path class="cls-1" d="M29.78,27.65l-4.93-1.11,4.72-3.91,4.93,1.11ZM25,26.49l4.72,1.07,4.55-3.77-4.72-1.07Z"/>
            </g>
            <g>
              <polygon class="cls-1" points="38.68 29.63 33.85 28.54 38.48 24.7 43.31 25.79 38.68 29.63"/>
              <path class="cls-1" d="M38.69,29.68l-4.93-1.11,4.72-3.91,4.93,1.11Zm-4.74-1.16,4.72,1.07,4.55-3.77L38.5,24.74Z"/>
            </g>
            <g>
              <polygon class="cls-1" points="47.72 31.67 42.9 30.58 47.53 26.74 52.35 27.83 47.72 31.67"/>
              <path class="cls-1" d="M47.73,31.72h0L42.8,30.61l4.72-3.91,4.93,1.11ZM43,30.56l4.72,1.07,4.55-3.77-4.72-1.07Z"/>
            </g>
          </g>
          <g>
            <rect class="cls-2" x="35.31" y="-2.76" width="5.28" height="43.4" transform="translate(4.78 45.37) rotate(-65.06)"/>
            <g>
              <polygon class="cls-1" points="26.11 10.44 21.63 8.35 22.95 14.22 27.43 16.31 26.11 10.44"/>
              <path class="cls-1" d="M27.49,16.39l-4.59-2.13v0l-1.34-6,4.59,2.13v0ZM23,14.19l4.39,2-1.29-5.77-4.39-2Z"/>
            </g>
            <g>
              <polygon class="cls-1" points="34.22 14.21 29.74 12.12 31.05 18 35.54 20.08 34.22 14.21"/>
              <path class="cls-1" d="M35.6,20.16,31,18v0l-1.34-6,4.59,2.13v0ZM31.09,18l4.39,2-1.29-5.77-4.39-2Z"/>
            </g>
            <g>
              <polygon class="cls-1" points="42.51 18.04 38.02 15.96 39.34 21.83 43.83 23.92 42.51 18.04"/>
              <path class="cls-1" d="M43.89,24,39.3,21.86v0l-1.34-6L42.55,18v0ZM39.38,21.8l4.39,2-1.29-5.77-4.39-2Z"/>
            </g>
            <g>
              <polygon class="cls-1" points="50.91 21.95 46.43 19.87 47.75 25.74 52.23 27.83 50.91 21.95"/>
              <path class="cls-1" d="M52.3,27.9l-4.59-2.13v0l-1.34-6L51,21.92v0Zm-4.51-2.19,4.39,2L50.88,22l-4.39-2Z"/>
            </g>
            <g>
              <circle class="cls-1" cx="55.63" cy="26.45" r="0.74" transform="translate(17.57 74.89) rotate(-77.27)"/>
              <path class="cls-1" d="M55.63,27.24l-.18,0a.78.78,0,1,1,.18,0Zm0-1.49a.7.7,0,1,0,.69.86h0a.7.7,0,0,0-.53-.84Z"/>
            </g>
          </g>
        </g>
      </g>
    </g>
  </g>
</svg>
