<?xml version="1.0"?>
<svg xmlns="http://www.w3.org/2000/svg" xmlns:xlink="http://www.w3.org/1999/xlink" id="&#x753B;&#x50CF;&#x4F5C;&#x6210;&#x7528;&#x30EC;&#x30A4;&#x30E4;&#x30FC;" viewBox="0 0 620 575">
  <defs>
    <style>
      .cls-1 {
        fill: #fff;
        filter: url(#luminosity-invert-noclip);
      }

      .cls-2 {
        fill: none;
      }

      .cls-3 {
        clip-path: url(#clip-path);
      }

      .cls-4 {
        mask: url(#mask);
      }

      .cls-5 {
        fill: #10ee3b;
        opacity: 0.5;
        isolation: isolate;
      }
    </style>
    <clipPath id="clip-path">
      <rect class="cls-2" width="620" height="575"/>
    </clipPath>
    <filter id="luminosity-invert-noclip" x="-190" y="0" width="1000" height="575" filterUnits="userSpaceOnUse" color-interpolation-filters="sRGB">
      <feColorMatrix values="-1 0 0 0 1 0 -1 0 0 1 0 0 -1 0 1 0 0 0 1 0" result="invert"/>
      <feFlood flood-color="#fff" result="bg"/>
      <feBlend in="invert" in2="bg"/>
    </filter>
    <mask id="mask" x="-190" y="0" width="1000" height="575" maskUnits="userSpaceOnUse">
      <path class="cls-1" d="M597.5,287.5C597.5,446,468.94,575,310,575S22.5,446.44,22.5,287.5,151.06,0,310,0,597.5,129,597.5,287.5Zm-102.85,8.41L143.58,216.44l-43,189.33,351.08,79.47ZM167.89,243.09l-4.21-.93-3.27,15-3.27-.93,3.27-15-4.21-.93.47-2.8,12.15,2.8Zm2.8-2.34,3.27.93-4.21,17.76-3.27-.93Zm16.83,7-4.21-.93-3.27,15-3.27-.93,3.27-15-4.21-.93.47-2.8,12.15,2.8Zm8.41,17.3-9.82-2.34L190.32,245l3.27.93-3.27,15,6.54,1.4Zm12.15,2.8-9.82-2.34,4.21-17.76,9.35,2.34-.47,2.8-6.08-1.4-.94,4.21,5.61,1.4-.47,2.8-5.61-1.4-.94,5.14,6.54,1.4Zm262.72,73.86-326.3-73.86M461,388l-326.3-73.86m13.09-30.39c1.4,0,2.8.47,4.67.47a10.88,10.88,0,0,1,6.08,3.27c1.4,1.87,1.87,4.21.94,7.48a10.52,10.52,0,0,1-4.21,6.54,10,10,0,0,1-7.48.47,21,21,0,0,0-3.74-.93Zm0,15.89c.47,0,.94.47,1.4.47,3.27.93,6.08-.93,7-5.61.94-4.21-.47-6.54-3.74-7h-1.87ZM173,308.07l-3.74-.93V302l-4.67-.93-2.34,4.21-3.27-.93,8.88-16.83,4.21.93Zm-3.74-8.41v-7.95h0c-.47.93-.94,2.34-1.4,3.27L166,298.72Zm20.1-3.27-4.21-.93-3.27,15-3.27-.93,3.27-15-4.21-.93.47-2.8,12.15,2.8Zm8.41,17.3L188,311.34l4.21-17.76,9.35,2.34-.47,2.8-6.08-1.4-.94,4.21,5.61,1.4-.47,2.8-5.61-1.4-.94,5.14,6.54,1.4Zm-54.23,36.93-9.82-2.34L138,330.51l3.27.93-3.27,15,6.54,1.4ZM161.81,345c-1.4,6.08-5.14,8.41-9.82,7.48s-6.54-5.61-5.14-10.75,5.14-8.41,9.82-7.48C161.34,335.65,162.74,340.33,161.81,345Zm-11.22-2.34c-.94,3.27,0,6.54,2.34,7s4.67-1.87,5.14-5.61c.94-3.27,0-6.54-2.34-7C152.93,336.59,151.06,339.39,150.59,342.66ZM174,357.15h-4.21c-5.14-1.4-7.48-5.61-6.08-10.75,1.4-6.08,6.08-8.41,10.75-7.48a10.25,10.25,0,0,1,3.74,1.4l-1.4,2.8a7.61,7.61,0,0,0-2.8-1.4c-2.8-.47-5.61.93-6.54,5.14s.47,6.54,3.74,7.48a2.94,2.94,0,0,0,2.8,0Zm15,3.74-3.74-.93v-5.14l-4.67-.93-2.34,4.21-3.27-.93,8.88-16.83,4.21.93Zm-3.27-8.41v-7.95h0c-.47.93-.94,2.34-1.4,3.27l-1.87,3.74Zm20.1-3.27-4.21-.93-3.27,15L195,362.3l3.27-15-4.21-.93.47-2.8,12.15,2.8Zm2.34-2.8,3.27.93-4.21,17.76-2.8-.93ZM227.26,360c-1.4,6.08-5.14,8.41-9.82,7.48s-6.54-5.61-5.14-10.75,5.14-8.41,9.82-7.48C226.79,350.61,228.19,355.28,227.26,360ZM216,357.62c-.94,3.27,0,6.54,2.34,7s4.67-1.87,5.14-5.61c.94-3.27,0-6.54-2.34-7C218.37,351.54,216.5,354.35,216,357.62Zm24.78,15-3.27-.93-2.34-8.41c-.47-1.87-.94-4.67-1.4-6.54h0c-.47,2.34-.94,4.67-1.4,7.95l-1.4,5.61-3.27-.47L231.93,352l3.74.93,2.34,7.95c.47,1.87.94,4.21,1.4,6.54h0c.47-2.34.94-4.67,1.4-7.95l1.4-5.14,3.27.47ZM507.28,250.1,148.72,169.23,138.9,212.7l358.56,80.87ZM195,223l-40.67-9.35,39.27-32.72,40.67,9.35Zm73.39,16.83-40.67-9.35L267,197.74l40.67,9.35Zm75.73,17.3-40.67-9.35L342.72,215l40.67,9.35Zm76.67,17.3-40.67-9.35,39.27-32.72,40.67,9.35ZM525.51,209,192.2,54.23,173.5,94.9,506.81,249.63ZM253.43,129.49l-37.87-17.76L204.35,62.17l37.87,17.76Zm68.72,32.26L284.29,144,273.07,94.43l37.87,17.76ZM392.28,194l-37.87-17.76-11.22-49.55,37.87,17.76ZM463.8,227.2l-37.87-17.76-11.22-49.55,37.87,17.76Zm34.59-10.28c-.94,3.27-4.21,5.61-7.48,4.67s-5.61-4.21-4.67-7.48,4.21-5.61,7.48-4.67S499.33,213.64,498.39,216.91Z"/>
    </mask>
  </defs>
  <title>&#x540D;&#x79F0;&#x672A;&#x8A2D;&#x5B9A;-1</title>
  <g class="cls-3">
    <g class="cls-4">
      <rect class="cls-5" x="-190" width="1000" height="575"/>
    </g>
  </g>
</svg>
