<?xml version="1.0"?>
<svg xmlns="http://www.w3.org/2000/svg" viewBox="0 0 66.85 66.85">
  <defs>
    <style>
      .cls-1 {
        fill: #fff;
      }

      .cls-2 {
        fill: #10ee3b;
      }
    </style>
  </defs>
  <title>&#x30A2;&#x30BB;&#x30C3;&#x30C8; 3</title>
  <g id="&#x30EC;&#x30A4;&#x30E4;&#x30FC;_2">
    <g id="&#x30C7;&#x30B6;&#x30A4;&#x30F3;">
      <g id="&#x30D5;&#x30C3;&#x30BF;&#x30FC;&#x30C7;&#x30B6;&#x30A4;&#x30F3;">
        <g id="goto_headline_5">
          <g>
            <g>
              <g>
                <circle class="cls-1" cx="33.43" cy="33.43" r="33.38"/>
                <path class="cls-1" d="M33.43,66.85a33.44,33.44,0,0,1-13-64.23,33.44,33.44,0,0,1,26,61.6A33.22,33.22,0,0,1,33.43,66.85Zm0-66.77A33.34,33.34,0,1,0,66.77,33.43,33.38,33.38,0,0,0,33.43.09Z"/>
              </g>
              <rect class="cls-2" x="11.65" y="26.64" width="43.56" height="26.45" transform="translate(9.61 -6.39) rotate(12.73)"/>
              <g>
                <path class="cls-1" d="M18.31,28.08,17.78,28l-.41,1.79L17,29.66l.41-1.79-.53-.12.08-.36,1.47.33Z"/>
                <path class="cls-1" d="M18.63,27.78l.41.09L18.56,30l-.41-.09Z"/>
                <path class="cls-1" d="M20.68,28.62l-.53-.12-.41,1.79-.41-.09.41-1.79-.53-.12.08-.36,1.47.33Z"/>
                <path class="cls-1" d="M21.7,30.74l-1.18-.27L21,28.32l.41.09L21,30.21l.77.17Z"/>
                <path class="cls-1" d="M23.18,31.07,22,30.8l.49-2.15,1.16.26-.08.35-.74-.17-.12.52.7.16-.08.34-.7-.16-.14.6.79.18Z"/>
              </g>
              <g>
                <line class="cls-1" x1="15.49" y1="31.1" x2="54.97" y2="40.02"/>
                <rect class="cls-1" x="35.14" y="15.33" width="0.18" height="40.47" transform="translate(-7.22 62.09) rotate(-77.27)"/>
              </g>
              <g>
                <line class="cls-1" x1="14.29" y1="36.71" x2="53.76" y2="45.63"/>
                <rect class="cls-1" x="33.94" y="20.94" width="0.18" height="40.47" transform="translate(-13.63 65.29) rotate(-77.27)"/>
              </g>
              <g>
                <path class="cls-1" d="M15.85,33a3.27,3.27,0,0,1,.57.08,1.2,1.2,0,0,1,.73.4,1,1,0,0,1,.14.9,1.14,1.14,0,0,1-.52.8,1.31,1.31,0,0,1-.93.07,4,4,0,0,1-.46-.13Zm0,1.9L16,35c.39.09.71-.09.84-.66s-.07-.78-.46-.87l-.2,0Z"/>
                <path class="cls-1" d="M18.92,35.94l-.43-.1,0-.6-.58-.13-.28.54-.42-.09,1.1-2,.52.12Zm-.45-1,0-.52c0-.14,0-.32,0-.46h0l-.19.42L18,34.8Z"/>
                <path class="cls-1" d="M20.9,34.5l-.53-.12L20,36.17l-.41-.09L20,34.29l-.53-.12.08-.36,1.47.33Z"/>
                <path class="cls-1" d="M21.94,36.62l-1.2-.27.49-2.15,1.16.26-.08.35-.74-.17-.12.52.7.16-.08.34-.7-.16-.14.6.79.18Z"/>
              </g>
              <g>
                <path class="cls-1" d="M15.33,41.08l-1.18-.27.49-2.15.41.09-.41,1.8.77.17Z"/>
                <path class="cls-1" d="M17.55,40.43c-.17.75-.64,1-1.17.93s-.78-.68-.64-1.3.61-1,1.17-.91A1,1,0,0,1,17.55,40.43Zm-1.38-.29c-.1.42,0,.81.3.88s.55-.24.64-.67,0-.79-.29-.87S16.27,39.75,16.18,40.14Z"/>
                <path class="cls-1" d="M19,41.86a1.25,1.25,0,0,1-.5,0,1,1,0,0,1-.76-1.3,1.05,1.05,0,0,1,1.31-.89,1,1,0,0,1,.43.18l-.16.32A.85.85,0,0,0,19,40c-.36-.08-.7.1-.81.62s.08.8.47.89a1,1,0,0,0,.36,0Z"/>
                <path class="cls-1" d="M20.87,42.33l-.43-.1,0-.6-.58-.13-.28.53-.42-.09,1.1-2,.52.12Zm-.45-1,0-.52c0-.14,0-.32,0-.46h0l-.19.42L20,41.2Z"/>
                <path class="cls-1" d="M22.86,40.9l-.53-.12-.41,1.79-.41-.09.41-1.79-.53-.12.08-.36,1.47.33Z"/>
                <path class="cls-1" d="M23.18,40.59l.42.09-.49,2.15-.42-.09Z"/>
                <path class="cls-1" d="M25.47,42.22c-.17.75-.64,1-1.17.93s-.78-.68-.64-1.3.61-1,1.17-.91A1,1,0,0,1,25.47,42.22Zm-1.38-.29c-.1.42,0,.81.3.88s.54-.24.64-.67,0-.79-.29-.87S24.19,41.53,24.1,41.93Z"/>
                <path class="cls-1" d="M27.1,43.74l-.41-.09-.26-1a7.19,7.19,0,0,1-.17-.8h0c0,.27-.1.57-.19,1l-.15.66-.37-.08L26,41.24l.45.1.26,1a6.85,6.85,0,0,1,.16.77h0c0-.28.09-.59.17-.94l.15-.65.38.08Z"/>
              </g>
            </g>
            <g>
              <rect class="cls-2" x="14.17" y="24.01" width="44.45" height="5.41" transform="translate(6.78 -7.36) rotate(12.73)"/>
              <g>
                <polygon class="cls-1" points="21.56 26.26 16.62 25.14 21.36 21.2 26.3 22.32 21.56 26.26"/>
                <path class="cls-1" d="M21.57,26.3l-5.05-1.14,4.83-4,5.05,1.14Zm-4.86-1.19,4.83,1.09,4.66-3.87-4.83-1.09Z"/>
              </g>
              <g>
                <polygon class="cls-1" points="30.49 28.27 25.55 27.16 30.3 23.22 35.24 24.34 30.49 28.27"/>
                <path class="cls-1" d="M30.5,28.32l-5.05-1.14,4.83-4,5.05,1.14Zm-4.86-1.19,4.83,1.09,4.66-3.87-4.83-1.09Z"/>
              </g>
              <g>
                <polygon class="cls-1" points="39.61 30.35 34.67 29.23 39.41 25.29 44.36 26.41 39.61 30.35"/>
                <path class="cls-1" d="M39.62,30.4l-5.05-1.14,4.83-4,5.05,1.14Zm-4.86-1.19L39.6,30.3l4.66-3.87-4.83-1.09Z"/>
              </g>
              <g>
                <polygon class="cls-1" points="48.87 32.44 43.93 31.32 48.68 27.39 53.62 28.5 48.87 32.44"/>
                <path class="cls-1" d="M48.89,32.49h0l-5-1.14,4.83-4,5.05,1.14ZM44,31.3l4.83,1.09,4.66-3.87-4.83-1.09Z"/>
              </g>
            </g>
            <g>
              <rect class="cls-2" x="16.64" y="16.7" width="44.45" height="5.41" transform="translate(11.8 -14.58) rotate(24.94)"/>
              <g>
                <polygon class="cls-1" points="26.75 10.69 22.15 8.55 23.5 14.57 28.1 16.7 26.75 10.69"/>
                <path class="cls-1" d="M28.16,16.78l-4.7-2.18v0L22.09,8.47l4.7,2.18v0Zm-4.62-2.25L28,16.62l-1.33-5.91L22.21,8.63Z"/>
              </g>
              <g>
                <polygon class="cls-1" points="35.05 14.55 30.45 12.41 31.8 18.43 36.4 20.57 35.05 14.55"/>
                <path class="cls-1" d="M36.46,20.64l-4.7-2.18v0l-1.37-6.11,4.7,2.18v0ZM31.84,18.4l4.49,2.09L35,14.58l-4.49-2.09Z"/>
              </g>
              <g>
                <polygon class="cls-1" points="43.54 18.48 38.94 16.34 40.29 22.36 44.89 24.5 43.54 18.48"/>
                <path class="cls-1" d="M44.95,24.57l-4.7-2.18v0l-1.37-6.11,4.7,2.18v0Zm-4.62-2.25,4.49,2.09L43.5,18.51,39,16.42Z"/>
              </g>
              <g>
                <polygon class="cls-1" points="52.15 22.48 47.55 20.35 48.9 26.36 53.5 28.5 52.15 22.48"/>
                <path class="cls-1" d="M53.56,28.58l-4.7-2.18v0l-1.37-6.11,4.7,2.18v0Zm-4.62-2.25,4.49,2.09-1.33-5.91-4.49-2.09Z"/>
              </g>
              <g>
                <circle class="cls-1" cx="56.97" cy="27.09" r="0.76" transform="translate(17.99 76.7) rotate(-77.27)"/>
                <path class="cls-1" d="M57,27.9l-.18,0a.8.8,0,1,1,.18,0Zm0-1.53a.72.72,0,1,0,.7.88h0a.72.72,0,0,0-.54-.86Z"/>
              </g>
            </g>
          </g>
        </g>
      </g>
    </g>
  </g>
</svg>
