<svg id="画像作成用レイヤー" xmlns="http://www.w3.org/2000/svg" xmlns:xlink="http://www.w3.org/1999/xlink" viewBox="0 0 620 575">
  <defs>
    <style>
      .cls-1 {
        fill: #fff;
        filter: url(#luminosity-invert-noclip);
      }

      .cls-2 {
        fill: none;
      }

      .cls-3 {
        clip-path: url(#clip-path);
      }

      .cls-4 {
        mask: url(#mask);
      }

      .cls-5 {
        fill: #f2534a;
        opacity: 0.5;
        isolation: isolate;
      }
    </style>
    <clipPath id="clip-path">
      <rect class="cls-2" width="620" height="575"/>
    </clipPath>
    <filter id="luminosity-invert-noclip" x="-190" y="0" width="1000" height="575" filterUnits="userSpaceOnUse" color-interpolation-filters="sRGB">
      <feColorMatrix values="-1 0 0 0 1 0 -1 0 0 1 0 0 -1 0 1 0 0 0 1 0" result="invert"/>
      <feFlood flood-color="#fff" result="bg"/>
      <feBlend in="invert" in2="bg"/>
    </filter>
    <mask id="mask" x="-190" y="0" width="1000" height="575" maskUnits="userSpaceOnUse">
      <path class="cls-1" d="M597.5,287.5C597.5,446,468.84,575,309.77,575S22.5,446.44,22.5,287.5,151.16,0,310.23,0,597.5,129,597.5,287.5ZM243.33,309.94c-30.41-33.66-65.5-43.48-109-23.37A94.19,94.19,0,0,0,88.47,411.38c22,47.22,77.66,67.32,124.92,45.81,39.77-18.7,62.23-52.83,54.27-94.43L182.51,402Zm-54.27,15.43c2.34,5.61,0,12.15-5.15,14.49s-12.16,0-14.5-5.14c-2.34-5.61,0-12.15,5.15-14.49S186.72,319.76,189.06,325.37Zm24.8,131.83c42.11-19.63,62.23-54.7,54.27-94.9v-.93L183.91,399.7l59.89-90.22-.47-.47c-31.81-35.53-67.84-43-109.48-23.84a94.84,94.84,0,0,0-49.13,53.29c-8.89,23.84-7.49,49.09,2.81,72a94,94,0,0,0,85.62,54.7A80.53,80.53,0,0,0,213.85,457.2Zm29-147.26L181.1,403l86.55-39.74c7.49,39.27-12.63,73.86-53.8,93-46.79,21.5-102.46,1.4-124-45.35a92.53,92.53,0,0,1-2.81-71.52C96,316,112.8,297.32,135.25,287c14.5-7,28.54-10.28,42.11-10.28C200.75,276.75,222.74,287.5,242.86,309.94Zm-58.48,30.39a11.61,11.61,0,1,0-9.83-21h0a11.64,11.64,0,0,0-5.61,15.43,11.22,11.22,0,0,0,10.29,6.54A10.08,10.08,0,0,0,184.38,340.33ZM175,320.69a10.25,10.25,0,1,1-5.15,13.56A10.28,10.28,0,0,1,175,320.69Zm129.13-76.2-2.81-1.87L259.7,303.86l2.81,1.87Zm37,35.06-1.87-2.8-66.9,45.81,1.87,2.8ZM357,334.25l-.47-3.27-73.92,10.75.47,3.27Zm85.62-90.69-91.23-22.44c0,42.07,28.07,71.52,70.65,82.74,50.06,12.62,101.53-17.76,114.16-67.78S518.43,134.63,468.37,122c-46.32-11.69-79.07,4.21-102.46,43.48Zm-7.49-81.34a10.83,10.83,0,1,1-13.1,7.95A10.73,10.73,0,0,1,435.15,162.22Zm59,131.36a94.63,94.63,0,0,0,43-58c12.63-50.49-17.78-101.91-68.31-114.53-44.91-11.22-78.6,2.8-103.4,43.48V165l75.79,77.6-89.83-22.44v.93c0,40.67,26.2,72,71.11,83.21a100,100,0,0,0,23.39,2.8A95.19,95.19,0,0,0,494.1,293.58Zm-49.59-49.09-78.13-79.94c24.33-39.74,57.55-53.76,101.53-42.54,50.06,12.62,80,63.58,67.84,113.13a90.83,90.83,0,0,1-42.58,57,93.39,93.39,0,0,1-70.65,10.28c-44-11.22-70.18-41.61-70.18-81.34ZM444,175.3a10.23,10.23,0,0,0-1.4-8.88,9.8,9.8,0,0,0-7-5.14,12,12,0,0,0-14,8.41h0a12,12,0,0,0,8.42,14,5.94,5.94,0,0,0,2.81.47A11.94,11.94,0,0,0,444,175.3Zm-21.52-5.14a10.32,10.32,0,0,1,12.63-7.48,9.67,9.67,0,0,1,6.55,4.67,9.42,9.42,0,0,1,.94,7.95A10.32,10.32,0,0,1,430,182.78a10.68,10.68,0,0,1-7.49-12.62h0Zm-73.45-8.41-52.4-52.36-2.34,2.34,52.4,52.36Zm-8.89,20.57-74.39-32.26-1.4,3.27,74.39,32.26Zm-6.55,24.31v-3.27l-74.39,3.27v3.27Z"/>
    </mask>
  </defs>
  <title>名称未設定-1</title>
  <g class="cls-3">
    <g class="cls-4">
      <rect class="cls-5" x="-190" width="1000" height="575"/>
    </g>
  </g>
</svg>
