<svg xmlns="http://www.w3.org/2000/svg" viewBox="0 0 66.97 66.97">
  <defs>
    <style>
      .cls-1 {
        fill: #fff;
      }

      .cls-2 {
        opacity: 0.8;
      }

      .cls-3 {
        fill: #e35248;
      }

      .cls-4 {
        fill: none;
        stroke: #e35248;
        stroke-miterlimit: 10;
      }
    </style>
  </defs>
  <title>アセット 1</title>
  <g id="レイヤー_2" data-name="レイヤー 2">
    <g id="デザイン">
      <g>
        <circle class="cls-1" cx="33.49" cy="33.49" r="33.49"/>
        <g class="cls-2">
          <path class="cls-3" d="M26.32,36.41c-3.47-3.86-7.46-5-12.39-2.68a10.69,10.69,0,0,0,9,19.4C27.48,51,30,47.1,29.1,42.39l-9.71,4.45Z"/>
          <circle class="cls-1" cx="19.02" cy="38.69" r="1.24" transform="translate(-14.52 11.6) rotate(-24.89)"/>
        </g>
        <g class="cls-2">
          <path class="cls-3" d="M49,28.84,38.65,26.27c0,4.8,3.19,8.18,8.06,9.4a10.69,10.69,0,1,0,5.24-20.73c-5.28-1.33-9,.5-11.68,4.94Z"/>
          <circle class="cls-1" cx="47.87" cy="20.77" r="1.24" transform="translate(16.01 62.09) rotate(-75.82)"/>
        </g>
        <g class="cls-2">
          <line class="cls-4" x1="28.29" y1="35.83" x2="33.04" y2="28.86"/>
          <line class="cls-4" x1="29.67" y1="38" x2="37.31" y2="32.79"/>
          <line class="cls-4" x1="30.82" y1="40.21" x2="39.21" y2="38.99"/>
          <line class="cls-4" x1="38.22" y1="19.68" x2="32.26" y2="13.71"/>
          <line class="cls-4" x1="37.27" y1="22.07" x2="28.8" y2="18.37"/>
          <line class="cls-4" x1="36.55" y1="24.45" x2="28.08" y2="24.81"/>
        </g>
      </g>
    </g>
  </g>
</svg>
