<svg xmlns="http://www.w3.org/2000/svg" viewBox="0 0 65.51 65.51">
  <defs>
    <style>
      .cls-1 {
        fill: #f2534a;
      }

      .cls-2 {
        fill: none;
        stroke: #fff;
        stroke-miterlimit: 10;
      }
    </style>
  </defs>
  <title>アセット 2</title>
  <g id="レイヤー_2" data-name="レイヤー 2">
    <g id="デザイン">
      <g>
        <path class="cls-1" d="M65.51,32.76A32.76,32.76,0,1,1,32.76,0,32.76,32.76,0,0,1,65.51,32.76ZM25.75,35.61c-3.4-3.77-7.29-4.86-12.12-2.62a10.46,10.46,0,0,0,8.8,19c4.45-2.06,6.93-5.89,6-10.5L19,45.81Zm-7.66,1.13a1.21,1.21,0,1,0,1.61.59A1.21,1.21,0,0,0,18.09,36.75Zm29.85-8.53L37.8,25.7c0,4.7,3.12,8,7.88,9.2a10.46,10.46,0,1,0,5.12-20.28c-5.16-1.3-8.79.49-11.43,4.83ZM45.64,20a1.21,1.21,0,1,0,1.47-.88A1.21,1.21,0,0,0,45.64,20Z"/>
        <g>
          <line class="cls-2" x1="27.67" y1="35.05" x2="32.32" y2="28.23"/>
          <line class="cls-2" x1="29.02" y1="37.17" x2="36.49" y2="32.07"/>
          <line class="cls-2" x1="30.14" y1="39.33" x2="38.35" y2="38.14"/>
          <line class="cls-2" x1="37.39" y1="19.25" x2="31.55" y2="13.41"/>
          <line class="cls-2" x1="36.46" y1="21.58" x2="28.17" y2="17.97"/>
          <line class="cls-2" x1="35.76" y1="23.92" x2="27.47" y2="24.27"/>
        </g>
      </g>
    </g>
  </g>
</svg>
