<?xml version="1.0" encoding="utf-8"?>
<!-- Generator: Adobe Illustrator 20.1.0, SVG Export Plug-In . SVG Version: 6.00 Build 0)  -->
<svg version="1.1" xmlns="http://www.w3.org/2000/svg" xmlns:xlink="http://www.w3.org/1999/xlink" x="0px" y="0px"
	 viewBox="0 0 87.5 85" style="enable-background:new 0 0 87.5 85;" xml:space="preserve">
<style type="text/css">
	.st0{fill:#FF9933;}
	.st1{fill:#FFFFFF;}
	.st2{fill:none;}
	.st3{fill:#FFFFFF;stroke:#FFFFFF;stroke-miterlimit:10;}
	.st4{fill:none;stroke:#FFFFFF;stroke-width:3;stroke-miterlimit:10;}
	.st5{fill:#FFFFFF;stroke:#FFFFFF;stroke-width:3;stroke-miterlimit:10;}
	.st6{display:none;}
	.st7{display:inline;fill:#FF9933;stroke:#FFFFFF;stroke-miterlimit:10;}
	.st8{display:inline;}
	.st9{fill:#F4B2CE;stroke:#FFFFFF;stroke-width:3;stroke-miterlimit:10;}
	.st10{fill:none;stroke:#FFFFFF;stroke-width:3;stroke-linejoin:bevel;stroke-miterlimit:10;}
	.st11{fill:#FF9933;stroke:#FFFFFF;stroke-miterlimit:10;}
</style>
<g id="bungakubu">
	<g>
		<g id="XMLID_10_">
			<rect x="0.2" y="0.2" class="st0" width="87" height="84.5"/>
			<path class="st1" d="M87,0.5v84H0.5v-84H87 M87.5,0H0v85h87.5V0L87.5,0z"/>
		</g>
	</g>
	<g id="XMLID_74_">
		<rect id="XMLID_91_" x="18.9" y="64.3" class="st2" width="55.2" height="17.5"/>
		<path class="st3" d="M20.1,68.1c-0.1,0-0.5,0-0.5-0.5s0.4-0.5,0.5-0.5H27v-1.9c0-0.2,0-0.5,0.5-0.5c0.5,0,0.5,0.3,0.5,0.5v1.9h6.8
			c0.1,0,0.5,0,0.5,0.5c0,0.4-0.3,0.5-0.5,0.5h-2.4c-0.6,1.9-1.6,4.9-4.3,7.8c1.8,1.8,4.1,3,6.6,3.7c0.3,0.1,0.5,0.2,0.5,0.4
			c0,0.3-0.2,0.6-0.5,0.6c-0.4,0-3.9-1-7.2-4.1c-2.9,2.7-6.9,4-7.2,4c-0.3,0-0.5-0.3-0.5-0.6s0.2-0.4,0.5-0.5c2.9-0.9,5-2.2,6.6-3.6
			c-2.3-2.5-3.6-5.4-4.2-7.8H20.1z M23.6,68.1c0.8,2.9,2.3,5.3,3.9,7.1c1.9-2,3.2-4.5,3.9-7.1H23.6z"/>
		<path class="st3" d="M51.7,74.7c0.1,0,0.5,0,0.5,0.4c0,0.4-0.2,0.4-0.5,0.4h-6.7v3.1c0,1.4-0.6,1.7-1.8,1.7c-0.3,0-2.2,0-2.3,0
			c-0.2-0.1-0.3-0.3-0.3-0.6c0-0.5,0.3-0.5,0.5-0.5c0.1,0,2,0,2,0c0.4,0,1,0,1-0.9v-2.9h-7.1c-0.1,0-0.5,0-0.5-0.4
			c0-0.4,0.4-0.4,0.5-0.4h7.1v-1c0-0.1,0-0.5,0.4-0.5c0.1,0,0.2,0,0.2,0c0.8-0.4,1.5-0.8,2-1.2c0.2-0.1,0.8-0.5,0.8-0.7
			c0-0.2-0.1-0.2-0.4-0.2h-7.5c-0.1,0-0.5,0-0.5-0.4s0.3-0.4,0.5-0.4h7.9c0.5,0,0.6,0,0.7,0.1c0.2,0.1,0.5,0.3,0.5,0.7
			c0,0.5-0.4,0.9-1.7,1.7c-0.4,0.2-1,0.6-2.2,1.2v0.6H51.7z M50.1,67.7c1.2,0,1.7,0.4,1.7,1.7v1.5c0,0.2,0,0.5-0.5,0.5
			s-0.5-0.3-0.5-0.5v-1.5c0-0.6-0.3-0.9-0.9-0.9H39c-0.6,0-0.9,0.3-0.9,0.9v1.5c0,0.2,0,0.5-0.5,0.5c-0.4,0-0.5-0.1-0.5-0.5v-1.5
			c0-1.3,0.4-1.7,1.7-1.7h9.1c0.4-0.6,0.6-1,1.1-2c0.4-0.8,0.4-0.8,0.7-0.8c0.2,0,0.5,0.2,0.5,0.5c0,0.4-1,2.1-1.2,2.3H50.1z
			 M40.6,67c0,0.3-0.3,0.4-0.5,0.4c-0.2,0-0.3-0.1-0.5-0.6c-0.2-0.5-0.4-0.7-0.7-1.2c-0.1-0.2-0.2-0.3-0.2-0.4
			c0-0.3,0.4-0.5,0.6-0.4C39.6,65,40.6,66.7,40.6,67z M44.4,65.5c0.2,0.3,0.6,1.1,0.6,1.3c0,0.3-0.4,0.4-0.5,0.4
			c-0.2,0-0.3-0.1-0.6-0.6c-0.2-0.3-0.5-0.8-0.7-1.2c-0.1-0.2-0.2-0.3-0.2-0.4c0-0.2,0.2-0.4,0.4-0.4C43.9,64.7,44,64.9,44.4,65.5z"
			/>
		<path class="st3" d="M57.7,66.8v-1.5c0-0.2,0-0.5,0.5-0.5c0.5,0,0.5,0.3,0.5,0.5v1.5h3.2c0.1,0,0.5,0,0.5,0.4
			c0,0.4-0.4,0.4-0.5,0.4H61c-0.3,1.7-0.4,1.9-1,3.9h2.2c0.2,0,0.5,0,0.5,0.4c0,0.4-0.3,0.4-0.5,0.4h-8.1c-0.1,0-0.5,0-0.5-0.4
			c0-0.4,0.4-0.4,0.5-0.4h2.1c-0.2-1.2-0.2-1.4-0.8-3.9h-0.9c-0.1,0-0.5,0-0.5-0.4c0-0.4,0.4-0.4,0.5-0.4H57.7z M59.9,74.2
			c1.3,0,1.7,0.4,1.7,1.7v2.6c0,1.3-0.4,1.7-1.7,1.7h-3.5c-1.3,0-1.7-0.4-1.7-1.7v-2.6c0-1.3,0.4-1.7,1.7-1.7H59.9z M60.7,75.9
			c0-0.6-0.3-0.9-0.9-0.9h-3.3c-0.6,0-0.9,0.3-0.9,0.9v2.6c0,0.6,0.3,0.9,0.9,0.9h3.3c0.6,0,0.9-0.3,0.9-0.9V75.9z M56.3,67.6
			c0.4,1.5,0.6,2.5,0.8,3.9h2c0.2-0.6,0.6-2,0.9-3.9H56.3z M64.2,80.2c0,0.2,0,0.5-0.5,0.5c-0.5,0-0.5-0.3-0.5-0.5V66.8
			c0-1,0.3-1.4,1.4-1.4H67c0.6,0,0.8,0,1.1,0.1c0.2,0.1,0.5,0.3,0.5,0.9c0,0.6-0.9,2.4-1.2,3.1c-0.1,0.2-0.7,1.3-0.7,1.3
			c0,0.1-0.1,0.1-0.1,0.2c0,0.2,0.1,0.3,0.2,0.3c0.9,0.8,1.4,1.4,1.9,2.5c0.4,0.9,0.5,1.6,0.5,2c0,1.6-1,2.8-2.3,2.9
			c-0.3,0-0.3,0-1.4,0c-0.3,0-0.6,0-0.6-0.5c0-0.3,0.1-0.5,0.5-0.5c0.1,0,0.9,0.1,1,0.1c1.7,0,1.9-1.6,1.9-2.1
			c0-1.5-1.1-2.7-1.5-3.2c-0.8-0.9-0.9-1-1-1.2c-0.1-0.1-0.1-0.3-0.1-0.4c0-0.2,0-0.4,0.2-0.6c0.3-0.6,1.8-3.2,1.8-3.8
			c0-0.3-0.4-0.3-0.6-0.3h-2.2c-0.5,0-0.6,0.2-0.6,0.6V80.2z"/>
	</g>
	<g id="XMLID_11_">
		<g id="XMLID_13_">
			<path id="XMLID_18_" class="st4" d="M13.8,54.6L13.8,54.6c0-2,7.6-3.6,14.6-3.6c6.9,0,13,1.8,14.7,3.8h0.7V15.1
				c0-0.2,0-0.6,0-0.8c0-2.7-7-5.8-15.3-5.8c-8,0-13.6,2.8-14.5,5.4c-0.1,0.2-0.1,1.2-0.1,1.5v37V54V54.6z"/>
			<path id="XMLID_17_" class="st4" d="M73.8,54.6L73.8,54.6c0-2-7.2-3.6-14.1-3.6c-6.9,0-12.5,1.8-14.3,3.8h-1.6V15.1
				c0-0.2,0-0.6,0-0.8c0-2.7,7.4-5.8,15.8-5.8c8,0,13.4,2.8,14.3,5.4c0.1,0.2-0.1,1.2-0.1,1.5v37V54V54.6z"/>
			<path id="XMLID_16_" class="st4" d="M18.9,16.5c3.3-1.5,9-2.2,15.2-1.3c1.5,0.2,2.3,0.4,3.3,0.6"/>
			<path id="XMLID_15_" class="st4" d="M18.9,22c3.3-1.5,9-2.2,15.2-1.3c1.5,0.2,2.3,0.4,3.3,0.6"/>
			<path id="XMLID_14_" class="st4" d="M18.9,27.5c3.3-1.5,9-2.2,15.2-1.3c1.5,0.2,2.3,0.4,3.3,0.6"/>
		</g>
		<path id="XMLID_12_" class="st5" d="M31.4,48.4c2.4-3.5,4.1-6.3,5.2-8.1c3.2-5.4,15.7-27,22.3-32.7c0.5-0.5,1.7-1.4,3.5-1.8
			c2.1-0.4,4.8,0,6.3,1.5c2.6,2.6,0.5,7.1-0.7,9.6c-0.8,1.7-3.1,6.5-7.1,6.9c-0.2,0-3,0.3-3.9-1.2c-0.6-0.9-0.3-2.2,0.6-3
			c1.2-1,3-0.8,4-0.3c1.1,0.6,1.6,1.6,1.6,1.8c1.5,3.4-2.9,9.7-8.5,10.8c-0.7,0.1-3.6,0.7-4.9-0.7c-0.7-0.8-1-2.3,0-3.2
			c0.7-0.7,2-1,2.9-0.6c1.7,0.7,1.6,3.4,1.6,3.8c-0.3,4.5-6.4,7.3-7.8,7.9c-1.5,0.6-5.8,1.4-10,1.2"/>
	</g>
</g>
<g id="kyouikugakubu" class="st6">
	<rect id="XMLID_1_" x="-0.7" y="0.3" class="st7" width="89" height="85"/>
	<g id="XMLID_80_" class="st8">
		<rect id="XMLID_2_" x="12.1" y="64.5" class="st2" width="69.6" height="17.5"/>
		<path class="st3" d="M20.8,70.1c0.1,0,0.5,0,0.5,0.4s-0.4,0.4-0.5,0.4h-2.4c-0.9,0.9-1.5,1.4-1.9,1.7h2.1c0.5,0,1.3,0,1.3,0.8
			c0,0.7-1,1.6-2.1,2.3v0.7c0.7-0.1,1.4-0.1,1.9-0.2c0.1,0,1.3-0.2,1.4-0.2c0.3,0,0.4,0.2,0.4,0.4c0,0.2-0.1,0.4-0.4,0.4
			c-0.3,0.1-1.8,0.3-3.3,0.4v2c0,0.4,0,1.1-0.7,1.3c-0.3,0.1-0.4,0.1-2,0.1c-0.3,0-0.6,0-0.6-0.5c0-0.4,0.3-0.5,0.5-0.5
			c0.1,0,1.2,0,1.2,0c0.4,0,0.7-0.1,0.7-0.6v-1.8c-1.1,0.1-3.2,0.3-3.7,0.3c-0.1,0-0.2,0-0.3-0.1c-0.1-0.1-0.1-0.2-0.1-0.4
			c0-0.2,0.1-0.4,0.4-0.4c0.2,0,3.2-0.2,3.8-0.3v-1c0-0.6,0.4-0.5,0.7-0.5c0.3-0.3,1.2-1,1.2-1.3c0-0.2-0.2-0.2-0.4-0.2h-3
			c-0.4,0.3-1.8,1.2-2.1,1.2c-0.3,0-0.5-0.3-0.5-0.5c0-0.2,0.1-0.3,0.4-0.4c1-0.5,2.5-1.4,4-2.7h-3.9c-0.1,0-0.5,0-0.5-0.4
			s0.4-0.4,0.5-0.4h3v-2.3h-2.7c-0.1,0-0.5,0-0.5-0.4c0-0.4,0.4-0.4,0.5-0.4h2.7v-1.3c0-0.1,0-0.5,0.4-0.5c0.4,0,0.4,0.3,0.4,0.5
			v1.3h2.2c0.1,0,0.5,0,0.5,0.4c0,0.4-0.4,0.4-0.5,0.4H17v2.3h0.9c0.8-0.8,2-2.2,3-4.2c0.1-0.1,0.2-0.3,0.4-0.3
			c0.2,0,0.5,0.1,0.5,0.4c0,0.2-1.2,2.3-2.7,4H20.8z M28.1,68c0.1,0,0.5,0,0.5,0.4c0,0.4-0.4,0.4-0.5,0.4h-0.5
			c-0.2,2.2-0.7,5-2.4,7.7c0.6,0.9,1.5,2.1,3,3.1c0.2,0.1,0.3,0.2,0.3,0.4c0,0.3-0.2,0.6-0.5,0.6c-0.3,0-1.2-0.8-1.5-1.1
			c-0.7-0.7-1.3-1.4-1.8-2.2c-1.9,2.4-4.1,3.3-4.3,3.3c-0.3,0-0.5-0.2-0.5-0.5c0-0.3,0.2-0.4,0.4-0.5c1.7-0.8,3-2,3.9-3.2
			c-1-1.9-1.5-3.6-1.8-4.7c-0.4,0.8-0.7,1.2-0.8,1.2c-0.1,0.1-0.2,0.2-0.3,0.2c-0.3,0-0.5-0.3-0.5-0.5c0-0.1,0.1-0.2,0.2-0.4
			c1-1.3,1.9-3.6,2.4-6.7c0-0.2,0.1-0.5,0.5-0.5c0.2,0,0.5,0.1,0.5,0.4c0,0.1-0.1,0.9-0.5,2.5H28.1z M23.5,68.9
			c-0.3,0.9-0.5,1.4-0.6,1.6c0.2,1.2,0.6,3.2,1.7,5.2c1.6-2.6,1.9-5.4,2-6.8H23.5z"/>
		<path class="st3" d="M30.2,67.3c-0.1,0-0.5,0-0.5-0.4c0-0.4,0.3-0.4,0.5-0.4h6.8v-0.9c0-0.2,0-0.5,0.5-0.5c0.4,0,0.5,0.3,0.5,0.5
			v0.9h6.9c0.2,0,0.5,0,0.5,0.4c0,0.4-0.3,0.4-0.5,0.4h-8.7c-0.6,1-1.5,2.2-1.7,2.4c2.1-0.1,3.1-0.1,6.7-0.3
			c-0.4-0.3-0.9-0.6-1.3-0.8c-0.2-0.1-0.3-0.2-0.3-0.4c0-0.2,0.2-0.5,0.5-0.5c0.4,0,2.6,1.5,3.4,2.1c0.9,0.7,1,0.8,1,1
			c0,0.3-0.3,0.5-0.5,0.5c-0.1,0-0.2-0.1-0.4-0.2c-0.8-0.6-1.1-0.9-1.3-1c-4,0.3-11.2,0.5-11.6,0.5c-0.2,0-0.5,0-0.5-0.5
			c0-0.3,0.3-0.4,0.3-0.4c0.1,0,2.6-0.1,2.8-0.1c0.8-1,1.2-1.6,1.6-2.4H30.2z M33.3,77.5v2.9c0,0.2,0,0.5-0.5,0.5
			c-0.4,0-0.5-0.3-0.5-0.5v-7.3c0-1,0.3-1.4,1.4-1.4h7.7c1,0,1.4,0.4,1.4,1.4v6.2c0,0.9-0.3,1.4-1.2,1.4h-2c-0.3,0-0.7,0-0.7-0.5
			c0-0.4,0.3-0.4,0.5-0.4c0.3,0,1.5,0,1.7,0c0.3,0,0.7-0.1,0.7-0.6v-1.5H33.3z M33.3,74.2h8.6v-1c0-0.4-0.2-0.6-0.6-0.6h-7.3
			c-0.4,0-0.6,0.2-0.6,0.6V74.2z M41.8,75h-8.6v1.7h8.6V75z"/>
		<path class="st3" d="M61.9,74.9c0.1,0,0.5,0,0.5,0.4c0,0.4-0.2,0.4-0.5,0.4h-6.7v3.1c0,1.4-0.6,1.7-1.8,1.7c-0.3,0-2.2,0-2.3,0
			c-0.2-0.1-0.3-0.3-0.3-0.6c0-0.5,0.3-0.5,0.5-0.5c0.1,0,2,0,2,0c0.4,0,1,0,1-0.9v-2.9h-7.1c-0.1,0-0.5,0-0.5-0.4
			c0-0.4,0.4-0.4,0.5-0.4h7.1v-1c0-0.1,0-0.5,0.4-0.5c0.1,0,0.2,0,0.2,0c0.8-0.4,1.5-0.8,2-1.2c0.2-0.1,0.8-0.5,0.8-0.7
			c0-0.2-0.1-0.2-0.4-0.2h-7.5c-0.1,0-0.5,0-0.5-0.4s0.3-0.4,0.5-0.4h7.9c0.5,0,0.6,0,0.7,0.1c0.2,0.1,0.5,0.3,0.5,0.7
			c0,0.5-0.4,0.9-1.7,1.7c-0.4,0.2-1,0.6-2.2,1.2v0.6H61.9z M60.2,67.9c1.2,0,1.7,0.4,1.7,1.7v1.5c0,0.2,0,0.5-0.5,0.5
			c-0.5,0-0.5-0.3-0.5-0.5v-1.5c0-0.6-0.3-0.9-0.9-0.9h-11c-0.6,0-0.9,0.3-0.9,0.9v1.5c0,0.2,0,0.5-0.5,0.5c-0.4,0-0.5-0.1-0.5-0.5
			v-1.5c0-1.3,0.4-1.7,1.7-1.7H58c0.4-0.6,0.6-1,1.1-2c0.4-0.8,0.4-0.8,0.7-0.8c0.2,0,0.5,0.2,0.5,0.5c0,0.4-1,2.1-1.2,2.3H60.2z
			 M50.7,67.2c0,0.3-0.3,0.4-0.5,0.4c-0.2,0-0.3-0.1-0.5-0.6c-0.2-0.5-0.4-0.7-0.7-1.2c-0.1-0.2-0.2-0.3-0.2-0.4
			c0-0.3,0.4-0.5,0.6-0.4C49.7,65.2,50.7,67,50.7,67.2z M54.5,65.8c0.2,0.3,0.6,1.1,0.6,1.3c0,0.3-0.4,0.4-0.5,0.4
			c-0.2,0-0.3-0.1-0.6-0.6c-0.2-0.3-0.5-0.8-0.7-1.2c-0.1-0.2-0.2-0.3-0.2-0.4c0-0.2,0.2-0.4,0.4-0.4C54.1,65,54.2,65.1,54.5,65.8z"
			/>
		<path class="st3" d="M67.8,67v-1.5c0-0.2,0-0.5,0.5-0.5s0.5,0.3,0.5,0.5V67H72c0.1,0,0.5,0,0.5,0.4s-0.4,0.4-0.5,0.4h-0.9
			c-0.3,1.7-0.4,1.9-1,3.9h2.2c0.2,0,0.5,0,0.5,0.4s-0.3,0.4-0.5,0.4h-8.1c-0.1,0-0.5,0-0.5-0.4c0-0.4,0.4-0.4,0.5-0.4h2.1
			c-0.2-1.2-0.2-1.4-0.8-3.9h-0.9c-0.1,0-0.5,0-0.5-0.4s0.4-0.4,0.5-0.4H67.8z M70,74.5c1.3,0,1.7,0.4,1.7,1.7v2.6
			c0,1.3-0.4,1.7-1.7,1.7h-3.5c-1.3,0-1.7-0.4-1.7-1.7v-2.6c0-1.3,0.4-1.7,1.7-1.7H70z M70.8,76.2c0-0.6-0.3-0.9-0.9-0.9h-3.3
			c-0.6,0-0.9,0.3-0.9,0.9v2.6c0,0.6,0.3,0.9,0.9,0.9h3.3c0.6,0,0.9-0.3,0.9-0.9V76.2z M66.4,67.8c0.4,1.5,0.6,2.5,0.8,3.9h2
			c0.2-0.6,0.6-2,0.9-3.9H66.4z M74.3,80.5c0,0.2,0,0.5-0.5,0.5c-0.5,0-0.5-0.3-0.5-0.5V67c0-1,0.3-1.4,1.4-1.4h2.4
			c0.6,0,0.8,0,1.1,0.1c0.2,0.1,0.5,0.3,0.5,0.9c0,0.6-0.9,2.4-1.2,3.1c-0.1,0.2-0.7,1.3-0.7,1.3c0,0.1-0.1,0.1-0.1,0.2
			c0,0.2,0.1,0.3,0.2,0.3c0.9,0.8,1.4,1.4,1.9,2.5c0.4,0.9,0.5,1.6,0.5,2c0,1.6-1,2.8-2.3,2.9c-0.3,0-0.3,0-1.4,0
			c-0.3,0-0.6,0-0.6-0.5c0-0.3,0.1-0.5,0.5-0.5c0.1,0,0.8,0.1,1,0.1c1.7,0,1.9-1.6,1.9-2.1c0-1.5-1.1-2.7-1.5-3.2
			c-0.8-0.9-0.9-1-1-1.2c-0.1-0.1-0.1-0.3-0.1-0.4c0-0.2,0-0.4,0.2-0.6c0.3-0.6,1.8-3.2,1.8-3.8c0-0.3-0.4-0.3-0.6-0.3h-2.2
			c-0.5,0-0.6,0.2-0.6,0.6V80.5z"/>
	</g>
	<g id="XMLID_19_" class="st8">
		<rect id="XMLID_38_" x="13" y="8.3" class="st4" width="64" height="45"/>
		<rect id="XMLID_37_" x="53" y="41.2" class="st4" width="17.9" height="12.1"/>
		<rect id="XMLID_36_" x="60.1" y="41.2" class="st9" width="3.9" height="12.1"/>
		<line id="XMLID_35_" class="st4" x1="13" y1="19.1" x2="18.7" y2="8.3"/>
		<line id="XMLID_34_" class="st4" x1="13" y1="29.5" x2="24.3" y2="8.3"/>
		<line id="XMLID_33_" class="st4" x1="13" y1="40.2" x2="29.9" y2="8.3"/>
		<line id="XMLID_32_" class="st4" x1="13" y1="50.8" x2="35.6" y2="8.3"/>
		<line id="XMLID_31_" class="st4" x1="17.3" y1="53.3" x2="41.2" y2="8.3"/>
		<line id="XMLID_30_" class="st4" x1="22.9" y1="53.3" x2="46.8" y2="8.3"/>
		<line id="XMLID_29_" class="st4" x1="28.5" y1="53.3" x2="52.4" y2="8.3"/>
		<line id="XMLID_28_" class="st4" x1="34.2" y1="53.3" x2="58.2" y2="8.3"/>
		<line id="XMLID_27_" class="st4" x1="39.9" y1="53.3" x2="63.8" y2="8.3"/>
		<line id="XMLID_26_" class="st4" x1="45.5" y1="53.3" x2="69.4" y2="8.3"/>
		<line id="XMLID_25_" class="st4" x1="57.6" y1="41.2" x2="75" y2="8.3"/>
		<line id="XMLID_24_" class="st4" x1="51.1" y1="53.3" x2="53" y2="49.8"/>
		<line id="XMLID_23_" class="st4" x1="63.2" y1="41.2" x2="77" y2="15.3"/>
		<line id="XMLID_22_" class="st4" x1="68.9" y1="41.2" x2="77" y2="26.1"/>
		<line id="XMLID_21_" class="st4" x1="70.9" y1="48.3" x2="77" y2="36.8"/>
		<line id="XMLID_20_" class="st4" x1="73.8" y1="53.3" x2="77" y2="47.4"/>
	</g>
</g>
<g id="hogakubu" class="st6">
	<rect id="XMLID_6_" x="-0.7" y="0.3" class="st7" width="89" height="85"/>
	<g id="XMLID_82_" class="st8">
		<rect id="XMLID_44_" x="19.9" y="64.7" class="st2" width="55.2" height="17.5"/>
		<path class="st3" d="M21,70c0.3,0,1.4,0.7,1.8,1c1,0.7,1,0.8,1,0.9c0,0.2-0.2,0.6-0.5,0.6c-0.2,0-0.3-0.1-0.7-0.5
			c-0.4-0.4-0.9-0.7-1.8-1.2c-0.2-0.1-0.3-0.2-0.3-0.5C20.6,70.2,20.7,70,21,70z M22.6,78.9c-0.3,0.6-0.7,1.2-1.1,1.8
			c-0.1,0.1-0.2,0.2-0.4,0.2c-0.3,0-0.6-0.3-0.6-0.5c0-0.2,0.1-0.3,0.2-0.5c0.5-0.6,1.8-2.6,2.6-4.5c0.1-0.1,0.4-0.9,0.5-1
			c0.1-0.1,0.2-0.1,0.3-0.1c0.2,0,0.5,0.2,0.5,0.4C24.6,75.1,23.6,77.2,22.6,78.9z M21.7,65.7c0.3,0,1.5,0.8,1.8,1
			c1.1,0.7,1.1,0.8,1.1,1c0,0.3-0.2,0.5-0.5,0.5c-0.1,0-0.2-0.1-0.8-0.5c-0.6-0.4-1.2-0.8-1.9-1.2c-0.2-0.1-0.3-0.2-0.3-0.5
			C21.3,65.9,21.5,65.7,21.7,65.7z M25.2,73.6c-0.1,0-0.5,0-0.5-0.4c0-0.4,0.4-0.4,0.5-0.4h4.7V69H26c-0.1,0-0.5,0-0.5-0.4
			c0-0.4,0.4-0.4,0.5-0.4h3.9v-2.4c0-0.2,0-0.5,0.5-0.5c0.5,0,0.5,0.3,0.5,0.5v2.4h4.3c0.1,0,0.5,0,0.5,0.4c0,0.4-0.4,0.4-0.5,0.4
			h-4.3v3.7h4.8c0.2,0,0.5,0,0.5,0.4c0,0.4-0.3,0.4-0.5,0.4h-6c-0.8,2-1.7,3.9-2.7,5.8c1.6-0.1,5.5-0.3,7-0.5
			c-0.6-1-1.2-1.8-1.9-2.7C32,76,31.9,76,31.9,75.8c0-0.2,0.3-0.4,0.5-0.4c0.2,0,0.3,0.1,0.8,0.7c0.9,1,1.7,2.3,2.4,3.6
			c0.3,0.5,0.4,0.7,0.4,0.9c0,0.3-0.3,0.5-0.5,0.5c-0.3,0-0.3-0.2-0.4-0.3c-0.2-0.4-0.4-0.8-0.6-1.2c-2.6,0.5-9.1,0.8-9.2,0.8
			c-0.2,0-0.6,0-0.6-0.5c0-0.3,0.2-0.4,0.3-0.4c0.1,0,0.2,0,0.9-0.1c1.4-2.6,2.1-4.1,2.8-5.9H25.2z"/>
		<path class="st3" d="M52.7,75.2c0.1,0,0.5,0,0.5,0.4c0,0.4-0.2,0.4-0.5,0.4H46v3.1c0,1.4-0.6,1.7-1.8,1.7c-0.3,0-2.2,0-2.3,0
			c-0.2-0.1-0.3-0.3-0.3-0.6c0-0.5,0.3-0.5,0.5-0.5c0.1,0,2,0,2,0c0.4,0,1,0,1-0.9V76H38c-0.1,0-0.5,0-0.5-0.4
			c0-0.4,0.4-0.4,0.5-0.4h7.1v-1c0-0.1,0-0.5,0.4-0.5c0.1,0,0.2,0,0.2,0c0.8-0.4,1.5-0.8,2-1.2c0.2-0.1,0.8-0.5,0.8-0.7
			c0-0.2-0.1-0.2-0.4-0.2h-7.5c-0.1,0-0.5,0-0.5-0.4s0.3-0.4,0.5-0.4h7.9c0.5,0,0.6,0,0.7,0.1c0.2,0.1,0.5,0.3,0.5,0.7
			c0,0.5-0.4,0.9-1.7,1.7c-0.4,0.2-1,0.6-2.2,1.2v0.6H52.7z M51.1,68.2c1.2,0,1.7,0.4,1.7,1.7v1.5c0,0.2,0,0.5-0.5,0.5
			c-0.5,0-0.5-0.3-0.5-0.5v-1.5c0-0.6-0.3-0.9-0.9-0.9h-11c-0.6,0-0.9,0.3-0.9,0.9v1.5c0,0.2,0,0.5-0.5,0.5c-0.4,0-0.5-0.1-0.5-0.5
			v-1.5c0-1.3,0.4-1.7,1.7-1.7h9.1c0.4-0.6,0.6-1,1.1-2c0.4-0.8,0.4-0.8,0.7-0.8c0.2,0,0.5,0.2,0.5,0.5c0,0.4-1,2.1-1.2,2.3H51.1z
			 M41.5,67.4c0,0.3-0.3,0.4-0.5,0.4c-0.2,0-0.3-0.1-0.5-0.6c-0.2-0.5-0.4-0.7-0.7-1.2c-0.1-0.2-0.2-0.3-0.2-0.4
			c0-0.3,0.4-0.5,0.6-0.4C40.6,65.5,41.5,67.2,41.5,67.4z M45.4,66c0.2,0.3,0.6,1.1,0.6,1.3c0,0.3-0.4,0.4-0.5,0.4
			c-0.2,0-0.3-0.1-0.6-0.6c-0.2-0.3-0.5-0.8-0.7-1.2c-0.1-0.2-0.2-0.3-0.2-0.4c0-0.2,0.2-0.4,0.4-0.4C44.9,65.2,45,65.3,45.4,66z"/>
		<path class="st3" d="M58.6,67.3v-1.5c0-0.2,0-0.5,0.5-0.5c0.5,0,0.5,0.3,0.5,0.5v1.5h3.2c0.1,0,0.5,0,0.5,0.4
			c0,0.4-0.4,0.4-0.5,0.4h-0.9c-0.3,1.7-0.4,1.9-1,3.9h2.2c0.2,0,0.5,0,0.5,0.4c0,0.4-0.3,0.4-0.5,0.4h-8.1c-0.1,0-0.5,0-0.5-0.4
			c0-0.4,0.4-0.4,0.5-0.4h2.1c-0.2-1.2-0.2-1.4-0.8-3.9h-0.9c-0.1,0-0.5,0-0.5-0.4c0-0.4,0.4-0.4,0.5-0.4H58.6z M60.9,74.7
			c1.3,0,1.7,0.4,1.7,1.7V79c0,1.3-0.4,1.7-1.7,1.7h-3.5c-1.3,0-1.7-0.4-1.7-1.7v-2.6c0-1.3,0.4-1.7,1.7-1.7H60.9z M61.6,76.4
			c0-0.6-0.3-0.9-0.9-0.9h-3.3c-0.6,0-0.9,0.3-0.9,0.9V79c0,0.6,0.3,0.9,0.9,0.9h3.3c0.6,0,0.9-0.3,0.9-0.9V76.4z M57.3,68.1
			c0.4,1.5,0.6,2.5,0.8,3.9h2c0.2-0.6,0.6-2,0.9-3.9H57.3z M65.1,80.7c0,0.2,0,0.5-0.5,0.5c-0.5,0-0.5-0.3-0.5-0.5V67.3
			c0-1,0.3-1.4,1.4-1.4h2.4c0.6,0,0.8,0,1.1,0.1c0.2,0.1,0.5,0.3,0.5,0.9c0,0.6-0.9,2.4-1.2,3.1c-0.1,0.2-0.7,1.3-0.7,1.3
			c0,0.1-0.1,0.1-0.1,0.2c0,0.2,0.1,0.3,0.2,0.3c0.9,0.8,1.4,1.4,1.9,2.5c0.4,0.9,0.5,1.6,0.5,2c0,1.6-1,2.8-2.3,2.9
			c-0.3,0-0.3,0-1.4,0c-0.3,0-0.6,0-0.6-0.5c0-0.3,0.1-0.5,0.5-0.5c0.1,0,0.8,0.1,1,0.1c1.7,0,1.9-1.6,1.9-2.1
			c0-1.5-1.1-2.7-1.5-3.2c-0.8-0.9-0.9-1-1-1.2c-0.1-0.1-0.1-0.3-0.1-0.4c0-0.2,0-0.4,0.2-0.6c0.3-0.6,1.8-3.2,1.8-3.8
			c0-0.3-0.4-0.3-0.6-0.3h-2.2c-0.5,0-0.6,0.2-0.6,0.6V80.7z"/>
	</g>
	<g id="XMLID_50_" class="st8">
		<path id="XMLID_48_" class="st4" d="M18.2,20.5l10.5-2c9.8-1.9,19.9-1.9,29.7,0l10.5,2"/>
		<polyline id="XMLID_47_" class="st4" points="43.6,30.7 52.4,49.3 34.8,49.3 43.6,30.7 43.6,4.3 		"/>
		<rect id="XMLID_46_" x="30" y="49.3" class="st4" width="27.2" height="6"/>
		<line id="XMLID_45_" class="st4" x1="22.7" y1="19.6" x2="17.1" y2="37"/>
		<line id="XMLID_4_" class="st4" x1="22.7" y1="19.6" x2="28.3" y2="37"/>
		<path id="XMLID_43_" class="st4" d="M13.6,37l5.4,1c2.4,0.4,4.9,0.4,7.3,0l5.4-1"/>
		<path id="XMLID_42_" class="st4" d="M31.8,35.3c0,4.3-4.1,6.2-9.1,6.2s-9.1-1.9-9.1-6.2"/>
		<line id="XMLID_41_" class="st4" x1="64.5" y1="19.6" x2="70.1" y2="37"/>
		<line id="XMLID_40_" class="st4" x1="64.5" y1="19.6" x2="58.9" y2="37"/>
		<path id="XMLID_39_" class="st4" d="M73.6,37l-5.4,1c-2.4,0.4-4.9,0.4-7.3,0l-5.4-1"/>
		<path id="XMLID_3_" class="st4" d="M55.4,35.3c0,4.3,4.1,6.2,9.1,6.2s9.1-1.9,9.1-6.2"/>
	</g>
</g>
<g id="keizaigakubu" class="st6">
	<rect id="XMLID_8_" x="-0.8" y="0" class="st7" width="89" height="85"/>
	<g id="XMLID_84_" class="st8">
		<rect id="XMLID_5_" x="8.2" y="64.3" class="st2" width="71.2" height="17.5"/>
		<path class="st3" d="M11.6,73.1c-0.6,0-1.7,0.1-2.2,0.1c-0.4,0-0.7,0-0.7-0.5c0-0.2,0.1-0.4,0.4-0.4c0.2,0,0.9,0,1.1,0
			c0.2-0.2,0.4-0.5,1-1.4c-0.7-0.9-1.7-1.7-2.2-2.2c-0.2-0.1-0.2-0.2-0.2-0.3C8.8,68.2,9,68,9.2,68s0.3,0.1,0.6,0.4
			c0.6-0.8,1.2-2,1.3-2.3c0.4-0.9,0.5-1,0.8-1c0.1,0,0.5,0.1,0.5,0.4c0,0.4-1.6,3-2,3.5c0.4,0.4,0.9,0.8,1.2,1.2
			c0.9-1.4,1-1.6,2-3.3c0.1-0.1,0.2-0.3,0.4-0.3c0.1,0,0.5,0.1,0.5,0.4c0,0.4-2.2,3.9-3.2,5.2c0.5,0,1.9-0.1,2.5-0.1
			c-0.2-0.5-0.4-1-0.4-1.1c0-0.2,0.2-0.4,0.4-0.4c0.2,0,0.3,0.1,0.6,0.8c0.2,0.4,0.5,1.4,0.5,1.7c0,0.4-0.4,0.4-0.5,0.4
			c-0.3,0-0.3-0.1-0.5-0.6C13.3,73,12.9,73,12.5,73v7c0,0.2,0,0.5-0.4,0.5c-0.4,0-0.4-0.3-0.4-0.5V73.1z M10.5,75
			c0,0.5-0.3,2.2-0.6,3.1c-0.3,0.9-0.4,1.2-0.7,1.2c-0.1,0-0.5-0.1-0.5-0.4c0-0.1,0.4-1.3,0.5-1.5c0.2-1,0.4-1.9,0.4-2.4
			c0-0.2,0.1-0.5,0.4-0.5C10.4,74.6,10.5,74.7,10.5,75z M14.7,75.4c0.4,1,0.6,2,0.6,2.2c0,0.3-0.3,0.4-0.5,0.4c-0.3,0-0.3-0.1-0.5-1
			c-0.2-0.6-0.2-1-0.4-1.4c-0.1-0.4-0.2-0.7-0.2-0.7c0-0.3,0.3-0.4,0.4-0.4C14.4,74.5,14.4,74.5,14.7,75.4z M20.2,79.1h3.9
			c0.1,0,0.5,0,0.5,0.4s-0.4,0.4-0.5,0.4h-8.9c-0.1,0-0.5,0-0.5-0.4s0.4-0.4,0.5-0.4h4.1v-3.3h-3.1c-0.2,0-0.5,0-0.5-0.4
			c0-0.4,0.3-0.4,0.5-0.4h3.1v-1.6c0-0.2,0-0.5,0.4-0.5c0.4,0,0.5,0.2,0.5,0.5v1.6h3.2c0.1,0,0.5,0,0.5,0.4c0,0.4-0.3,0.4-0.5,0.4
			h-3.2V79.1z M15.8,66.5c-0.1,0-0.5,0-0.5-0.4c0-0.4,0.4-0.4,0.5-0.4h5.8c0.7,0,0.9,0,1.2,0.2c0.3,0.2,0.5,0.5,0.5,0.9
			c0,0.6-0.9,2.3-2.9,4.1c1,0.6,1.8,1,3.8,1.7c0.1,0,0.4,0.1,0.4,0.3c0,0.2-0.2,0.6-0.5,0.6c-0.2,0-2.8-0.8-4.4-2
			c-1.5,1.2-3.7,2.1-3.9,2.1c-0.3,0-0.5-0.3-0.5-0.5c0-0.3,0.2-0.3,0.4-0.4c1.6-0.6,2.4-1,3.3-1.7c-1.8-1.6-2.5-3.3-2.5-3.5
			c0-0.3,0.3-0.4,0.5-0.4c0.2,0,0.3,0.1,0.4,0.3c0.7,1.4,1.5,2.3,2.3,3.1c1.7-1.5,2.6-3.1,2.6-3.4c0-0.4-0.3-0.4-0.8-0.4H15.8z"/>
		<path class="st3" d="M28,70.7c0.8,0.6,0.8,0.7,0.8,0.8c0,0.3-0.3,0.6-0.5,0.6c-0.1,0-0.2-0.1-0.7-0.5c-0.5-0.4-0.8-0.6-1.5-1
			c-0.2-0.1-0.3-0.2-0.3-0.4c0-0.2,0.2-0.5,0.4-0.5C26.6,69.7,27.6,70.4,28,70.7z M29.1,75.9c-0.5,1.2-1.3,2.8-1.9,3.6
			c-0.3,0.5-0.5,0.7-0.7,0.7c-0.3,0-0.6-0.3-0.6-0.5c0-0.2,0-0.2,0.5-0.9c1.1-1.5,1.9-3.3,2.1-4c0.1-0.2,0.1-0.3,0.4-0.3
			c0.3,0,0.5,0.3,0.5,0.4C29.4,75.2,29.4,75.3,29.1,75.9z M28.9,66.1c0.6,0.4,0.7,0.5,0.7,0.7c0,0.2-0.2,0.6-0.5,0.6
			c-0.1,0-0.2,0-0.7-0.4c-0.3-0.2-1-0.6-1.5-1c-0.2-0.1-0.2-0.2-0.2-0.3c0-0.3,0.2-0.5,0.5-0.5C27.4,65.1,28.1,65.5,28.9,66.1z
			 M30.6,67.2c-0.1,0-0.5,0-0.5-0.4c0-0.4,0.4-0.4,0.5-0.4h4.7v-1.1c0-0.2,0-0.5,0.5-0.5c0.5,0,0.5,0.3,0.5,0.5v1.1h4.7
			c0.1,0,0.5,0,0.5,0.4c0,0.4-0.3,0.4-0.5,0.4h-1.3c-0.9,1.5-1.9,2.4-3,3.1c1.3,0.5,2.4,0.8,4.2,1.1c0.3,0.1,0.5,0.1,0.5,0.4
			c0,0.2-0.1,0.6-0.5,0.6c-0.2,0-3.1-0.6-5.2-1.6c-2.3,1.2-5.1,1.6-5.5,1.6c-0.4,0-0.5-0.4-0.5-0.5c0-0.4,0.3-0.4,0.5-0.4
			c1.9-0.2,3.3-0.6,4.6-1.2c-0.8-0.5-2-1.5-2.9-3.1H30.6z M39,73.4v-0.5c0-0.2,0-0.5,0.5-0.5c0.5,0,0.5,0.3,0.5,0.5v7.3
			c0,0.2,0,0.5-0.5,0.5c-0.4,0-0.5-0.1-0.5-0.5V77h-6.6c-0.2,1.1-0.6,2.2-1.3,3.1c-0.4,0.5-0.5,0.6-0.6,0.6c-0.3,0-0.5-0.3-0.5-0.5
			c0-0.2,0.1-0.2,0.2-0.4c0.6-0.7,1.1-1.8,1.3-2.5c0.2-0.8,0.2-1.6,0.2-2v-2.3c0-0.1,0-0.5,0.5-0.5c0.5,0,0.5,0.4,0.5,0.5v0.5H39z
			 M32.5,74.2v1.1c0,0.2,0,0.6-0.1,0.9H39v-2H32.5z M33,67.2c0.7,1.2,1.5,2,2.7,2.6c1.9-1.1,2.5-2.1,2.8-2.6H33z"/>
		<path class="st3" d="M58,74.7c0.1,0,0.5,0,0.5,0.4c0,0.4-0.2,0.4-0.5,0.4h-6.7v3.1c0,1.4-0.6,1.7-1.8,1.7c-0.3,0-2.2,0-2.3,0
			c-0.2-0.1-0.3-0.3-0.3-0.6c0-0.5,0.3-0.5,0.5-0.5c0.1,0,2,0,2,0c0.4,0,1,0,1-0.9v-2.9h-7.1c-0.1,0-0.5,0-0.5-0.4
			c0-0.4,0.4-0.4,0.5-0.4h7.1v-1c0-0.1,0-0.5,0.4-0.5c0.1,0,0.2,0,0.2,0c0.8-0.4,1.5-0.8,2-1.2c0.2-0.1,0.8-0.5,0.8-0.7
			c0-0.2-0.1-0.2-0.4-0.2H46c-0.1,0-0.5,0-0.5-0.4s0.3-0.4,0.5-0.4h7.9c0.5,0,0.6,0,0.7,0.1c0.2,0.1,0.5,0.3,0.5,0.7
			c0,0.5-0.4,0.9-1.7,1.7c-0.4,0.2-1,0.6-2.2,1.2v0.6H58z M56.3,67.7c1.2,0,1.7,0.4,1.7,1.7v1.5c0,0.2,0,0.5-0.5,0.5
			s-0.5-0.3-0.5-0.5v-1.5c0-0.6-0.3-0.9-0.9-0.9h-11c-0.6,0-0.9,0.3-0.9,0.9v1.5c0,0.2,0,0.5-0.5,0.5c-0.4,0-0.5-0.1-0.5-0.5v-1.5
			c0-1.3,0.4-1.7,1.7-1.7h9.1c0.4-0.6,0.6-1,1.1-2c0.4-0.8,0.4-0.8,0.7-0.8c0.2,0,0.5,0.2,0.5,0.5c0,0.4-1,2.1-1.2,2.3H56.3z
			 M46.8,67c0,0.3-0.3,0.4-0.5,0.4c-0.2,0-0.3-0.1-0.5-0.6c-0.2-0.5-0.4-0.7-0.7-1.2c-0.1-0.2-0.2-0.3-0.2-0.4
			c0-0.3,0.4-0.5,0.6-0.4C45.8,65,46.8,66.7,46.8,67z M50.6,65.5c0.2,0.3,0.6,1.1,0.6,1.3c0,0.3-0.4,0.4-0.5,0.4
			c-0.2,0-0.3-0.1-0.6-0.6c-0.2-0.3-0.5-0.8-0.7-1.2c-0.1-0.2-0.2-0.3-0.2-0.4c0-0.2,0.2-0.4,0.4-0.4C50.2,64.7,50.3,64.9,50.6,65.5
			z"/>
		<path class="st3" d="M63.9,66.8v-1.5c0-0.2,0-0.5,0.5-0.5c0.5,0,0.5,0.3,0.5,0.5v1.5h3.2c0.1,0,0.5,0,0.5,0.4
			c0,0.4-0.4,0.4-0.5,0.4h-0.9c-0.3,1.7-0.4,1.9-1,3.9h2.2c0.2,0,0.5,0,0.5,0.4c0,0.4-0.3,0.4-0.5,0.4h-8.1c-0.1,0-0.5,0-0.5-0.4
			c0-0.4,0.4-0.4,0.5-0.4h2.1c-0.2-1.2-0.2-1.4-0.8-3.9h-0.9c-0.1,0-0.5,0-0.5-0.4c0-0.4,0.4-0.4,0.5-0.4H63.9z M66.1,74.2
			c1.3,0,1.7,0.4,1.7,1.7v2.6c0,1.3-0.4,1.7-1.7,1.7h-3.5c-1.3,0-1.7-0.4-1.7-1.7v-2.6c0-1.3,0.4-1.7,1.7-1.7H66.1z M66.9,75.9
			c0-0.6-0.3-0.9-0.9-0.9h-3.3c-0.6,0-0.9,0.3-0.9,0.9v2.6c0,0.6,0.3,0.9,0.9,0.9H66c0.6,0,0.9-0.3,0.9-0.9V75.9z M62.5,67.6
			c0.4,1.5,0.6,2.5,0.8,3.9h2c0.2-0.6,0.6-2,0.9-3.9H62.5z M70.4,80.2c0,0.2,0,0.5-0.5,0.5s-0.5-0.3-0.5-0.5V66.8
			c0-1,0.3-1.4,1.4-1.4h2.4c0.6,0,0.8,0,1.1,0.1c0.2,0.1,0.5,0.3,0.5,0.9c0,0.6-0.9,2.4-1.2,3.1c-0.1,0.2-0.7,1.3-0.7,1.3
			c0,0.1-0.1,0.1-0.1,0.2c0,0.2,0.1,0.3,0.2,0.3c0.9,0.8,1.4,1.4,1.9,2.5c0.4,0.9,0.5,1.6,0.5,2c0,1.6-1,2.8-2.3,2.9
			c-0.3,0-0.3,0-1.4,0c-0.3,0-0.6,0-0.6-0.5c0-0.3,0.1-0.5,0.5-0.5c0.1,0,0.9,0.1,1,0.1c1.7,0,1.9-1.6,1.9-2.1
			c0-1.5-1.1-2.7-1.5-3.2c-0.8-0.9-0.9-1-1-1.2c-0.1-0.1-0.1-0.3-0.1-0.4c0-0.2,0-0.4,0.2-0.6c0.3-0.6,1.8-3.2,1.8-3.8
			c0-0.3-0.4-0.3-0.6-0.3H71c-0.5,0-0.6,0.2-0.6,0.6V80.2z"/>
	</g>
	<g id="XMLID_55_" class="st8">
		<g id="XMLID_58_">
			<rect id="XMLID_53_" x="11.4" y="14.8" class="st4" width="60.1" height="35.6"/>
			<ellipse id="XMLID_52_" class="st4" cx="60.8" cy="42.8" rx="14.6" ry="15.3"/>
		</g>
		<g id="XMLID_51_">
			<path class="st4" d="M33.6,46.6h-2.3V39h-6.8v-1.5h6.8v-3.4h-6.8v-1.5h6l-7.5-12.9h2.6l5.3,9.5c0.7,1.4,1.2,2.3,1.7,3.5h0.2
				c0.4-1,1-2.2,1.8-3.5l5.5-9.4h2.6l-8,12.9h6v1.5h-6.9v3.4h6.9V39h-6.9V46.6z"/>
		</g>
		<g id="XMLID_49_">
			<path class="st4" d="M62,52.2h-1.3v-2.8c-4.4-0.4-5.8-3.5-5.8-6.5c0-3.6,2.4-6.2,5.8-6.7v-2.8H62v2.8c1.5,0,2.7,0.4,3.3,0.7
				l-0.5,1.1c-0.6-0.3-1.7-0.8-3.2-0.8c-3.2,0-5.1,2.6-5.1,5.5c0,3.3,2.1,5.4,4.9,5.4c1.7,0,2.8-0.5,3.5-0.8l0.4,1
				c-0.5,0.3-1.8,0.8-3.3,0.9V52.2z"/>
		</g>
	</g>
</g>
<g id="zyohogakubu" class="st6">
	<rect id="XMLID_59_" x="-1" y="0" class="st7" width="89" height="85"/>
	<g id="XMLID_86_" class="st8">
		<rect id="XMLID_7_" x="8.9" y="64.3" class="st2" width="69.1" height="17.5"/>
		<path class="st3" d="M10.9,68.7c0,0.2-0.1,1.6-0.4,3.1c-0.3,1.1-0.4,1.1-0.6,1.1c-0.2,0-0.5-0.2-0.5-0.4c0-0.1,0.3-1.2,0.4-1.4
			c0.2-1,0.3-1.9,0.4-2.4c0-0.2,0-0.5,0.5-0.4C10.9,68.3,10.9,68.6,10.9,68.7z M12.8,80.3c0,0.1,0,0.5-0.4,0.5
			c-0.3,0-0.5-0.1-0.5-0.5v-15c0-0.2,0-0.5,0.5-0.5c0.4,0,0.5,0.3,0.5,0.5V80.3z M14.4,68.6c0.1,0.3,0.4,1,0.4,1.2
			c0,0.3-0.3,0.4-0.5,0.4c-0.3,0-0.3-0.1-0.5-0.6c-0.1-0.2-0.5-1.2-0.5-1.3c0-0.2,0.2-0.4,0.4-0.4C14.1,67.9,14.2,68,14.4,68.6z
			 M24.4,66.1c0.1,0,0.5,0,0.5,0.4c0,0.4-0.3,0.4-0.5,0.4h-3.9v1.4H24c0.1,0,0.5,0,0.5,0.4s-0.3,0.4-0.5,0.4h-3.6v1.5h4.2
			c0.2,0,0.5,0,0.5,0.4c0,0.3-0.2,0.4-0.5,0.4h-9.6c-0.1,0-0.5,0-0.5-0.4c0-0.3,0.3-0.4,0.5-0.4h4.4v-1.5h-3.7
			c-0.3,0-0.5-0.1-0.5-0.4c0-0.3,0.1-0.4,0.5-0.4h3.7v-1.4h-4c-0.3,0-0.5-0.1-0.5-0.4c0-0.2,0.1-0.4,0.5-0.4h4v-0.8
			c0-0.1,0-0.5,0.4-0.5c0.5,0,0.5,0.4,0.5,0.5v0.8H24.4z M16.6,77.4v2.9c0,0.2,0,0.5-0.5,0.5c-0.4,0-0.4-0.2-0.4-0.5v-6.4
			c0-1,0.3-1.4,1.4-1.4H23c1,0,1.4,0.4,1.4,1.4V79c0,0.8-0.2,1.4-1.2,1.4h-1.5c-0.3,0-0.7,0-0.7-0.5c0-0.5,0.3-0.5,0.5-0.5h1.4
			c0.4,0,0.6-0.3,0.6-0.6v-1.4H16.6z M23.4,74.5v-0.6c0-0.4-0.2-0.6-0.6-0.6h-5.5c-0.4,0-0.6,0.2-0.6,0.6v0.6H23.4z M23.4,75.3h-6.8
			v1.3h6.8V75.3z"/>
		<path class="st3" d="M33.9,66.7c0.2,0,0.5,0,0.5,0.4c0,0.4-0.2,0.4-0.5,0.4h-2.7v2.1h3.2c0.1,0,0.5,0,0.5,0.4
			c0,0.4-0.3,0.4-0.5,0.4h-0.8c-0.2,0.9-0.5,1.9-0.7,2.6h1.4c0.1,0,0.5,0,0.5,0.4c0,0.4-0.3,0.4-0.5,0.4h-3.1v2.4h2.7
			c0.1,0,0.5,0,0.5,0.4c0,0.4-0.4,0.4-0.5,0.4h-2.7v3c0,0.2,0,0.5-0.4,0.5c-0.4,0-0.5-0.3-0.5-0.5v-3h-2.7c-0.2,0-0.5,0-0.5-0.4
			c0-0.4,0.2-0.4,0.5-0.4h2.7v-2.4h-3.1c-0.1,0-0.5,0-0.5-0.4c0-0.4,0.3-0.4,0.5-0.4h1.6c-0.2-0.7-0.6-2-0.8-2.6h-0.9
			c-0.1,0-0.5,0-0.5-0.4c0-0.4,0.4-0.4,0.5-0.4h3.2v-2.1h-2.7c-0.1,0-0.5,0-0.5-0.4c0-0.3,0.1-0.5,0.5-0.5h2.7v-1.3
			c0-0.1,0-0.5,0.4-0.5c0.4,0,0.5,0.3,0.5,0.5v1.3H33.9z M31.9,73.1c0.2-0.3,0.6-1.9,0.6-2.6h-3.7c0.1,0.3,0.7,2.2,0.8,2.6H31.9z
			 M36.2,72.2v7.9c0,0.2,0,0.5-0.5,0.5c-0.4,0-0.4-0.2-0.4-0.5V67.2c0-1.2,0.4-1.7,1.7-1.7h3.2c0.9,0,1.4,0.2,1.4,1.2
			c0,0.4-0.1,2.2-0.5,2.9c-0.3,0.7-0.7,0.7-2.6,0.7c-0.4,0-0.7,0-0.7-0.5c0-0.4,0.4-0.4,0.5-0.4c0.2,0,1.2,0,1.4,0
			c0.4,0,0.6-0.3,0.7-0.7c0.1-0.3,0.2-1.3,0.2-1.7c0-0.4-0.2-0.6-0.7-0.6H37c-0.6,0-0.9,0.3-0.9,0.9v4.1h4c0.6,0,1.5,0,1.5,1.1
			c0,0.5-0.4,2.8-1.8,5.1c0.5,0.5,0.9,1,2,1.8c0.1,0.1,0.3,0.3,0.3,0.5c0,0.3-0.3,0.5-0.5,0.5c-0.5,0-1.9-1.6-2.3-2.1
			c-0.8,1.1-1.8,2-2.1,2c-0.3,0-0.5-0.3-0.5-0.5c0-0.2,0.1-0.3,0.3-0.4c1-0.8,1.5-1.4,1.8-1.8c-1.2-1.5-2-3.8-2-4.1
			c0-0.3,0.3-0.4,0.4-0.4c0.3,0,0.4,0.3,0.4,0.4c0.4,1.2,0.9,2.3,1.7,3.3c0.4-0.7,1-1.7,1.4-3.4c0.1-0.4,0.1-0.6,0.1-0.8
			c0-0.4-0.4-0.5-0.7-0.5H36.2z"/>
		<path class="st3" d="M58.7,74.7c0.1,0,0.5,0,0.5,0.4c0,0.4-0.2,0.4-0.5,0.4h-6.7v3.1c0,1.4-0.6,1.7-1.8,1.7c-0.3,0-2.2,0-2.3,0
			c-0.2-0.1-0.3-0.3-0.3-0.6c0-0.5,0.3-0.5,0.5-0.5c0.1,0,2,0,2,0c0.4,0,1,0,1-0.9v-2.9h-7.1c-0.1,0-0.5,0-0.5-0.4
			c0-0.4,0.4-0.4,0.5-0.4h7.1v-1c0-0.1,0-0.5,0.4-0.5c0.1,0,0.2,0,0.2,0c0.8-0.4,1.5-0.8,2-1.2c0.2-0.1,0.8-0.5,0.8-0.7
			c0-0.2-0.1-0.2-0.4-0.2h-7.5c-0.1,0-0.5,0-0.5-0.4s0.3-0.4,0.5-0.4h7.9c0.5,0,0.6,0,0.7,0.1c0.2,0.1,0.5,0.3,0.5,0.7
			c0,0.5-0.4,0.9-1.7,1.7c-0.4,0.2-1,0.6-2.2,1.2v0.6H58.7z M57.1,67.7c1.2,0,1.7,0.4,1.7,1.7v1.5c0,0.2,0,0.5-0.5,0.5
			s-0.5-0.3-0.5-0.5v-1.5c0-0.6-0.3-0.9-0.9-0.9H46c-0.6,0-0.9,0.3-0.9,0.9v1.5c0,0.2,0,0.5-0.5,0.5c-0.4,0-0.5-0.1-0.5-0.5v-1.5
			c0-1.3,0.4-1.7,1.7-1.7h9.1c0.4-0.6,0.6-1,1.1-2c0.4-0.8,0.4-0.8,0.7-0.8c0.2,0,0.5,0.2,0.5,0.5c0,0.4-1,2.1-1.2,2.3H57.1z
			 M47.6,67c0,0.3-0.3,0.4-0.5,0.4c-0.2,0-0.3-0.1-0.5-0.6c-0.2-0.5-0.4-0.7-0.7-1.2c-0.1-0.2-0.2-0.3-0.2-0.4
			c0-0.3,0.4-0.5,0.6-0.4C46.6,65,47.6,66.7,47.6,67z M51.4,65.5c0.2,0.3,0.6,1.1,0.6,1.3c0,0.3-0.4,0.4-0.5,0.4
			c-0.2,0-0.3-0.1-0.6-0.6c-0.2-0.3-0.5-0.8-0.7-1.2c-0.1-0.2-0.2-0.3-0.2-0.4c0-0.2,0.2-0.4,0.4-0.4C50.9,64.7,51,64.9,51.4,65.5z"
			/>
		<path class="st3" d="M64.7,66.8v-1.5c0-0.2,0-0.5,0.5-0.5c0.5,0,0.5,0.3,0.5,0.5v1.5h3.2c0.1,0,0.5,0,0.5,0.4
			c0,0.4-0.4,0.4-0.5,0.4h-0.9c-0.3,1.7-0.4,1.9-1,3.9h2.2c0.2,0,0.5,0,0.5,0.4c0,0.4-0.3,0.4-0.5,0.4h-8.1c-0.1,0-0.5,0-0.5-0.4
			c0-0.4,0.4-0.4,0.5-0.4h2.1c-0.2-1.2-0.2-1.4-0.8-3.9h-0.9c-0.1,0-0.5,0-0.5-0.4c0-0.4,0.4-0.4,0.5-0.4H64.7z M66.9,74.2
			c1.3,0,1.7,0.4,1.7,1.7v2.6c0,1.3-0.4,1.7-1.7,1.7h-3.5c-1.3,0-1.7-0.4-1.7-1.7v-2.6c0-1.3,0.4-1.7,1.7-1.7H66.9z M67.7,75.9
			c0-0.6-0.3-0.9-0.9-0.9h-3.3c-0.6,0-0.9,0.3-0.9,0.9v2.6c0,0.6,0.3,0.9,0.9,0.9h3.3c0.6,0,0.9-0.3,0.9-0.9V75.9z M63.3,67.6
			c0.4,1.5,0.6,2.5,0.8,3.9h2c0.2-0.6,0.6-2,0.9-3.9H63.3z M71.1,80.2c0,0.2,0,0.5-0.5,0.5s-0.5-0.3-0.5-0.5V66.8
			c0-1,0.3-1.4,1.4-1.4H74c0.6,0,0.8,0,1.1,0.1c0.2,0.1,0.5,0.3,0.5,0.9c0,0.6-0.9,2.4-1.2,3.1c-0.1,0.2-0.7,1.3-0.7,1.3
			c0,0.1-0.1,0.1-0.1,0.2c0,0.2,0.1,0.3,0.2,0.3c0.9,0.8,1.4,1.4,1.9,2.5c0.4,0.9,0.5,1.6,0.5,2c0,1.6-1,2.8-2.3,2.9
			c-0.3,0-0.3,0-1.4,0c-0.3,0-0.6,0-0.6-0.5c0-0.3,0.1-0.5,0.5-0.5c0.1,0,0.9,0.1,1,0.1c1.7,0,1.9-1.6,1.9-2.1
			c0-1.5-1.1-2.7-1.5-3.2c-0.8-0.9-0.9-1-1-1.2c-0.1-0.1-0.1-0.3-0.1-0.4c0-0.2,0-0.4,0.2-0.6c0.3-0.6,1.8-3.2,1.8-3.8
			c0-0.3-0.4-0.3-0.6-0.3h-2.2c-0.5,0-0.6,0.2-0.6,0.6V80.2z"/>
	</g>
	<g id="XMLID_60_" class="st8">
		<rect id="XMLID_57_" x="19.6" y="5.8" class="st10" width="44.7" height="32.7"/>
		<polygon id="XMLID_56_" class="st10" points="71.1,54.5 63.6,39.8 20.4,39.8 12.1,54.9 		"/>
		<rect id="XMLID_54_" x="25.6" y="11.7" class="st10" width="32.9" height="20.9"/>
	</g>
</g>
<g id="rigakubu" class="st6">
	<rect id="XMLID_67_" x="-1" y="0" class="st7" width="89" height="85"/>
	<g id="XMLID_88_" class="st8">
		<rect id="XMLID_9_" x="15.7" y="64.3" class="st2" width="55.2" height="17.5"/>
		<path class="st3" d="M18.8,72h-1.7c-0.1,0-0.5,0-0.5-0.4c0-0.4,0.4-0.4,0.5-0.4h1.7v-4.4h-1.9c-0.1,0-0.5,0-0.5-0.4
			c0-0.4,0.4-0.4,0.5-0.4h4.6c0.1,0,0.5,0,0.5,0.4c0,0.4-0.4,0.4-0.5,0.4h-1.7v4.4h1.4c0.1,0,0.5,0,0.5,0.4S21.3,72,21.1,72h-1.4
			v5.1c0.7-0.2,1.2-0.4,1.5-0.5c0.2-0.1,0.3-0.1,0.4-0.1c0.3,0,0.4,0.3,0.4,0.4c0,0.3-0.1,0.4-1.3,0.8c-2.9,0.9-3.8,1-4,1
			c-0.3,0-0.4-0.3-0.4-0.5c0-0.3,0.2-0.4,0.3-0.4c0.3-0.1,1.9-0.4,2.2-0.5V72z M27.3,75.5h3.8c0.1,0,0.5,0,0.5,0.4
			c0,0.4-0.4,0.4-0.5,0.4h-3.8v3h4.2c0.1,0,0.5,0,0.5,0.4c0,0.4-0.4,0.4-0.5,0.4h-9.8c-0.1,0-0.5,0-0.5-0.4c0-0.4,0.4-0.4,0.5-0.4
			h4.7v-3h-3.7c-0.1,0-0.5,0-0.5-0.4c0-0.4,0.4-0.4,0.5-0.4h3.7v-2.3h-2.3c-1.3,0-1.7-0.4-1.7-1.7v-4.4c0-1.3,0.4-1.7,1.7-1.7h5.6
			c1.2,0,1.7,0.4,1.7,1.7v4.4c0,1.3-0.4,1.7-1.7,1.7h-2.4V75.5z M26.4,68.9v-2.7h-2.2c-0.6,0-0.9,0.3-0.9,0.9v1.8H26.4z M26.4,69.7
			h-3.1v1.8c0,0.6,0.3,0.9,0.9,0.9h2.2V69.7z M27.3,68.9h3.2v-1.8c0-0.6-0.3-0.9-0.9-0.9h-2.3V68.9z M27.3,69.7v2.7h2.3
			c0.6,0,0.9-0.3,0.9-0.9v-1.8H27.3z"/>
		<path class="st3" d="M48.5,74.7c0.1,0,0.5,0,0.5,0.4c0,0.4-0.2,0.4-0.5,0.4h-6.7v3.1c0,1.4-0.6,1.7-1.8,1.7c-0.3,0-2.2,0-2.3,0
			c-0.2-0.1-0.3-0.3-0.3-0.6c0-0.5,0.3-0.5,0.5-0.5c0.1,0,2,0,2,0c0.4,0,1,0,1-0.9v-2.9h-7.1c-0.1,0-0.5,0-0.5-0.4
			c0-0.4,0.4-0.4,0.5-0.4h7.1v-1c0-0.1,0-0.5,0.4-0.5c0.1,0,0.2,0,0.2,0c0.8-0.4,1.5-0.8,2-1.2c0.2-0.1,0.8-0.5,0.8-0.7
			c0-0.2-0.1-0.2-0.4-0.2h-7.5c-0.1,0-0.5,0-0.5-0.4s0.3-0.4,0.5-0.4h7.9c0.5,0,0.6,0,0.7,0.1c0.2,0.1,0.5,0.3,0.5,0.7
			c0,0.5-0.4,0.9-1.7,1.7c-0.4,0.2-1,0.6-2.2,1.2v0.6H48.5z M46.9,67.7c1.2,0,1.7,0.4,1.7,1.7v1.5c0,0.2,0,0.5-0.5,0.5
			s-0.5-0.3-0.5-0.5v-1.5c0-0.6-0.3-0.9-0.9-0.9h-11c-0.6,0-0.9,0.3-0.9,0.9v1.5c0,0.2,0,0.5-0.5,0.5c-0.4,0-0.5-0.1-0.5-0.5v-1.5
			c0-1.3,0.4-1.7,1.7-1.7h9.1c0.4-0.6,0.6-1,1.1-2c0.4-0.8,0.4-0.8,0.7-0.8c0.2,0,0.5,0.2,0.5,0.5c0,0.4-1,2.1-1.2,2.3H46.9z
			 M37.3,67c0,0.3-0.3,0.4-0.5,0.4c-0.2,0-0.3-0.1-0.5-0.6c-0.2-0.5-0.4-0.7-0.7-1.2c-0.1-0.2-0.2-0.3-0.2-0.4
			c0-0.3,0.4-0.5,0.6-0.4C36.4,65,37.3,66.7,37.3,67z M41.2,65.5c0.2,0.3,0.6,1.1,0.6,1.3c0,0.3-0.4,0.4-0.5,0.4
			c-0.2,0-0.3-0.1-0.6-0.6c-0.2-0.3-0.5-0.8-0.7-1.2c-0.1-0.2-0.2-0.3-0.2-0.4c0-0.2,0.2-0.4,0.4-0.4C40.7,64.7,40.8,64.9,41.2,65.5
			z"/>
		<path class="st3" d="M54.4,66.8v-1.5c0-0.2,0-0.5,0.5-0.5c0.5,0,0.5,0.3,0.5,0.5v1.5h3.2c0.1,0,0.5,0,0.5,0.4
			c0,0.4-0.4,0.4-0.5,0.4h-0.9c-0.3,1.7-0.4,1.9-1,3.9h2.2c0.2,0,0.5,0,0.5,0.4c0,0.4-0.3,0.4-0.5,0.4h-8.1c-0.1,0-0.5,0-0.5-0.4
			c0-0.4,0.4-0.4,0.5-0.4h2.1c-0.2-1.2-0.2-1.4-0.8-3.9h-0.9c-0.1,0-0.5,0-0.5-0.4c0-0.4,0.4-0.4,0.5-0.4H54.4z M56.6,74.2
			c1.3,0,1.7,0.4,1.7,1.7v2.6c0,1.3-0.4,1.7-1.7,1.7h-3.5c-1.3,0-1.7-0.4-1.7-1.7v-2.6c0-1.3,0.4-1.7,1.7-1.7H56.6z M57.4,75.9
			c0-0.6-0.3-0.9-0.9-0.9h-3.3c-0.6,0-0.9,0.3-0.9,0.9v2.6c0,0.6,0.3,0.9,0.9,0.9h3.3c0.6,0,0.9-0.3,0.9-0.9V75.9z M53,67.6
			c0.4,1.5,0.6,2.5,0.8,3.9h2c0.2-0.6,0.6-2,0.9-3.9H53z M60.9,80.2c0,0.2,0,0.5-0.5,0.5s-0.5-0.3-0.5-0.5V66.8c0-1,0.3-1.4,1.4-1.4
			h2.4c0.6,0,0.8,0,1.1,0.1c0.2,0.1,0.5,0.3,0.5,0.9c0,0.6-0.9,2.4-1.2,3.1c-0.1,0.2-0.7,1.3-0.7,1.3c0,0.1-0.1,0.1-0.1,0.2
			c0,0.2,0.1,0.3,0.2,0.3c0.9,0.8,1.4,1.4,1.9,2.5c0.4,0.9,0.5,1.6,0.5,2c0,1.6-1,2.8-2.3,2.9c-0.3,0-0.3,0-1.4,0
			c-0.3,0-0.6,0-0.6-0.5c0-0.3,0.1-0.5,0.5-0.5c0.1,0,0.9,0.1,1,0.1c1.7,0,1.9-1.6,1.9-2.1c0-1.5-1.1-2.7-1.5-3.2
			c-0.8-0.9-0.9-1-1-1.2c-0.1-0.1-0.1-0.3-0.1-0.4c0-0.2,0-0.4,0.2-0.6c0.3-0.6,1.8-3.2,1.8-3.8c0-0.3-0.4-0.3-0.6-0.3h-2.2
			c-0.5,0-0.6,0.2-0.6,0.6V80.2z"/>
	</g>
	<g id="XMLID_61_" class="st8">
		<ellipse id="XMLID_66_" class="st4" cx="41.2" cy="30.4" rx="9" ry="26.5"/>
		<path id="XMLID_65_" class="st4" d="M45.7,23.9C60.1,31.2,69.8,40.2,67.3,44c-2.5,3.8-16.2,0.9-30.6-6.4S12.6,21.2,15.1,17.5
			S31.2,16.6,45.7,23.9z"/>
		<path id="XMLID_64_" class="st4" d="M36.7,23.9c14.4-7.3,28.1-10.2,30.6-6.4c2.5,3.8-7.2,12.8-21.6,20.1S17.5,47.7,15.1,44
			S22.3,31.2,36.7,23.9z"/>
		<ellipse id="XMLID_63_" class="st4" cx="41.3" cy="30.8" rx="3.4" ry="3"/>
	</g>
</g>
<g id="igakubu" class="st6">
	<rect id="XMLID_78_" x="-1" y="0" class="st7" width="89" height="85"/>
	<g id="XMLID_92_" class="st8">
		<rect id="XMLID_62_" x="15.9" y="64.3" class="st2" width="55.2" height="17.5"/>
		<path class="st3" d="M31.3,65.7c0.2,0,0.5,0,0.5,0.4c0,0.4-0.3,0.4-0.5,0.4H19.4c-0.8,0-1.2,0.4-1.2,1.2v10.6
			c0,0.8,0.3,1.2,1.2,1.2h12.3c0.1,0,0.5,0,0.5,0.4s-0.3,0.4-0.5,0.4H19.4c-1.6,0-2.1-0.5-2.1-2.1V67.8c0-1.6,0.5-2.1,2.1-2.1H31.3z
			 M30.8,72.8c0.1,0,0.5,0,0.5,0.4c0,0.4-0.3,0.4-0.5,0.4h-4.7c0.9,1.7,2.5,2.9,4.3,3.6c0.1,0.1,0.8,0.3,0.9,0.4
			c0.1,0.1,0.1,0.2,0.1,0.2c0,0.2-0.1,0.6-0.5,0.6c-0.3,0-1.5-0.6-2.5-1.3c-2.3-1.5-3-3.1-3.2-3.6h-0.1c-1.3,3.7-5.1,4.8-5.5,4.8
			c-0.3,0-0.5-0.4-0.5-0.5c0-0.2,0.2-0.3,0.4-0.4c3.1-0.9,4.2-2.9,4.6-3.9h-4.6c-0.2,0-0.5-0.1-0.5-0.4c0-0.3,0.2-0.4,0.5-0.4h4.9
			c0.1-0.3,0.2-0.9,0.2-1.8v-1.1H22c-0.5,0.8-1,1.5-1.5,2c-0.1,0.1-0.2,0.2-0.4,0.2c-0.3,0-0.5-0.3-0.5-0.5c0-0.1,0.1-0.2,0.2-0.4
			c1.2-1.1,2-2.7,2.4-3.8c0.1-0.1,0.1-0.3,0.4-0.3c0.2,0,0.5,0.1,0.5,0.4c0,0.3-0.4,1.2-0.6,1.5h7.4c0.1,0,0.5,0,0.5,0.4
			c0,0.4-0.3,0.4-0.5,0.4h-4.4v1c0,0.9-0.1,1.5-0.2,1.9H30.8z"/>
		<path class="st3" d="M48.6,74.7c0.1,0,0.5,0,0.5,0.4c0,0.4-0.2,0.4-0.5,0.4H42v3.1c0,1.4-0.6,1.7-1.8,1.7c-0.3,0-2.2,0-2.3,0
			c-0.2-0.1-0.3-0.3-0.3-0.6c0-0.5,0.3-0.5,0.5-0.5c0.1,0,2,0,2,0c0.4,0,1,0,1-0.9v-2.9H34c-0.1,0-0.5,0-0.5-0.4
			c0-0.4,0.4-0.4,0.5-0.4H41v-1c0-0.1,0-0.5,0.4-0.5c0.1,0,0.2,0,0.2,0c0.8-0.4,1.5-0.8,2-1.2c0.2-0.1,0.8-0.5,0.8-0.7
			c0-0.2-0.1-0.2-0.4-0.2h-7.5c-0.1,0-0.5,0-0.5-0.4s0.3-0.4,0.5-0.4h7.9c0.5,0,0.6,0,0.7,0.1c0.2,0.1,0.5,0.3,0.5,0.7
			c0,0.5-0.4,0.9-1.7,1.7c-0.4,0.2-1,0.6-2.2,1.2v0.6H48.6z M47,67.7c1.2,0,1.7,0.4,1.7,1.7v1.5c0,0.2,0,0.5-0.5,0.5
			c-0.5,0-0.5-0.3-0.5-0.5v-1.5c0-0.6-0.3-0.9-0.9-0.9h-11c-0.6,0-0.9,0.3-0.9,0.9v1.5c0,0.2,0,0.5-0.5,0.5c-0.4,0-0.5-0.1-0.5-0.5
			v-1.5c0-1.3,0.4-1.7,1.7-1.7h9.1c0.4-0.6,0.6-1,1.1-2c0.4-0.8,0.4-0.8,0.7-0.8c0.2,0,0.5,0.2,0.5,0.5c0,0.4-1,2.1-1.2,2.3H47z
			 M37.5,67c0,0.3-0.3,0.4-0.5,0.4c-0.2,0-0.3-0.1-0.5-0.6c-0.2-0.5-0.4-0.7-0.7-1.2c-0.1-0.2-0.2-0.3-0.2-0.4
			c0-0.3,0.4-0.5,0.6-0.4C36.5,65,37.5,66.7,37.5,67z M41.3,65.5c0.2,0.3,0.6,1.1,0.6,1.3c0,0.3-0.4,0.4-0.5,0.4
			c-0.2,0-0.3-0.1-0.6-0.6c-0.2-0.3-0.5-0.8-0.7-1.2c-0.1-0.2-0.2-0.3-0.2-0.4c0-0.2,0.2-0.4,0.4-0.4C40.8,64.7,40.9,64.9,41.3,65.5
			z"/>
		<path class="st3" d="M54.6,66.8v-1.5c0-0.2,0-0.5,0.5-0.5c0.5,0,0.5,0.3,0.5,0.5v1.5h3.2c0.1,0,0.5,0,0.5,0.4
			c0,0.4-0.4,0.4-0.5,0.4h-0.9c-0.3,1.7-0.4,1.9-1,3.9h2.2c0.2,0,0.5,0,0.5,0.4c0,0.4-0.3,0.4-0.5,0.4H51c-0.1,0-0.5,0-0.5-0.4
			c0-0.4,0.4-0.4,0.5-0.4h2.1c-0.2-1.2-0.2-1.4-0.8-3.9h-0.9c-0.1,0-0.5,0-0.5-0.4c0-0.4,0.4-0.4,0.5-0.4H54.6z M56.8,74.2
			c1.3,0,1.7,0.4,1.7,1.7v2.6c0,1.3-0.4,1.7-1.7,1.7h-3.5c-1.3,0-1.7-0.4-1.7-1.7v-2.6c0-1.3,0.4-1.7,1.7-1.7H56.8z M57.6,75.9
			c0-0.6-0.3-0.9-0.9-0.9h-3.3c-0.6,0-0.9,0.3-0.9,0.9v2.6c0,0.6,0.3,0.9,0.9,0.9h3.3c0.6,0,0.9-0.3,0.9-0.9V75.9z M53.2,67.6
			c0.4,1.5,0.6,2.5,0.8,3.9h2c0.2-0.6,0.6-2,0.9-3.9H53.2z M61.1,80.2c0,0.2,0,0.5-0.5,0.5c-0.5,0-0.5-0.3-0.5-0.5V66.8
			c0-1,0.3-1.4,1.4-1.4h2.4c0.6,0,0.8,0,1.1,0.1c0.2,0.1,0.5,0.3,0.5,0.9c0,0.6-0.9,2.4-1.2,3.1c-0.1,0.2-0.7,1.3-0.7,1.3
			c0,0.1-0.1,0.1-0.1,0.2c0,0.2,0.1,0.3,0.2,0.3c0.9,0.8,1.4,1.4,1.9,2.5c0.4,0.9,0.5,1.6,0.5,2c0,1.6-1,2.8-2.3,2.9
			c-0.3,0-0.3,0-1.4,0c-0.3,0-0.6,0-0.6-0.5c0-0.3,0.1-0.5,0.5-0.5c0.1,0,0.8,0.1,1,0.1c1.7,0,1.9-1.6,1.9-2.1
			c0-1.5-1.1-2.7-1.5-3.2c-0.8-0.9-0.9-1-1-1.2c-0.1-0.1-0.1-0.3-0.1-0.4c0-0.2,0-0.4,0.2-0.6c0.3-0.6,1.8-3.2,1.8-3.8
			c0-0.3-0.4-0.3-0.6-0.3h-2.2c-0.5,0-0.6,0.2-0.6,0.6V80.2z"/>
	</g>
	<g id="XMLID_73_" class="st8">
		<path id="XMLID_76_" class="st4" d="M41,5.4c-3,15.6,2.2,28.1,11.3,31c1.8,0.6,3.9,1.2,8.3,0.1"/>
		<path id="XMLID_75_" class="st4" d="M72.2,5.4c3,15.6-2.2,28.1-11.3,31c-1.8,0.6-3.6,1.4-8,0.3"/>
		<line id="XMLID_72_" class="st4" x1="66.3" y1="4.8" x2="73.3" y2="4.8"/>
		<line id="XMLID_71_" class="st4" x1="38.3" y1="4.8" x2="47.3" y2="4.8"/>
		<path id="XMLID_70_" class="st4" d="M26.5,20.1c-0.1,2-2,3.5-4.3,3.5c-2.3,0-4.2-1.7-4.1-3.7s2-3.5,4.3-3.5S26.6,18.2,26.5,20.1z"
			/>
		<path id="XMLID_69_" class="st4" d="M30.7,20.2c-0.1,3.9-4,7.1-8.7,7c-4.7-0.1-8.4-3.4-8.3-7.3s4-7.1,8.7-7
			C27.1,13,30.9,16.3,30.7,20.2z"/>
		<path id="XMLID_68_" class="st4" d="M22.5,23.3c-4.4,15,1.9,28,12.3,31.5c4.5,1.5,10.4,1.6,15.3-0.6c7.6-3.5,11.3-8.7,9.3-17.8"/>
	</g>
</g>
<g id="kogakubu" class="st6">
	<rect id="XMLID_81_" x="-0.7" y="0" class="st7" width="89" height="85"/>
	<g id="XMLID_90_" class="st8">
		<rect id="XMLID_77_" x="16.2" y="64.3" class="st2" width="55.2" height="17.5"/>
		<path class="st3" d="M25.2,78.7H32c0.2,0,0.5,0,0.5,0.4c0,0.4-0.3,0.5-0.5,0.5H17.3c-0.1,0-0.5,0-0.5-0.5c0-0.4,0.3-0.4,0.5-0.4
			h6.8V67.1h-6.2c-0.2,0-0.5,0-0.5-0.4c0-0.4,0.3-0.4,0.5-0.4h13.6c0.1,0,0.5,0,0.5,0.4c0,0.4-0.3,0.4-0.5,0.4h-6.3V78.7z"/>
		<path class="st3" d="M49,74.7c0.1,0,0.5,0,0.5,0.4c0,0.4-0.2,0.4-0.5,0.4h-6.7v3.1c0,1.4-0.6,1.7-1.8,1.7c-0.3,0-2.2,0-2.3,0
			c-0.2-0.1-0.3-0.3-0.3-0.6c0-0.5,0.3-0.5,0.5-0.5c0.1,0,2,0,2,0c0.4,0,1,0,1-0.9v-2.9h-7.1c-0.1,0-0.5,0-0.5-0.4
			c0-0.4,0.4-0.4,0.5-0.4h7.1v-1c0-0.1,0-0.5,0.4-0.5c0.1,0,0.2,0,0.2,0c0.8-0.4,1.5-0.8,2-1.2c0.2-0.1,0.8-0.5,0.8-0.7
			c0-0.2-0.1-0.2-0.4-0.2H37c-0.1,0-0.5,0-0.5-0.4s0.3-0.4,0.5-0.4h7.9c0.5,0,0.6,0,0.7,0.1c0.2,0.1,0.5,0.3,0.5,0.7
			c0,0.5-0.4,0.9-1.7,1.7c-0.4,0.2-1,0.6-2.2,1.2v0.6H49z M47.4,67.7c1.2,0,1.7,0.4,1.7,1.7v1.5c0,0.2,0,0.5-0.5,0.5
			s-0.5-0.3-0.5-0.5v-1.5c0-0.6-0.3-0.9-0.9-0.9h-11c-0.6,0-0.9,0.3-0.9,0.9v1.5c0,0.2,0,0.5-0.5,0.5c-0.4,0-0.5-0.1-0.5-0.5v-1.5
			c0-1.3,0.4-1.7,1.7-1.7h9.1c0.4-0.6,0.6-1,1.1-2c0.4-0.8,0.4-0.8,0.7-0.8c0.2,0,0.5,0.2,0.5,0.5c0,0.4-1,2.1-1.2,2.3H47.4z
			 M37.8,67c0,0.3-0.3,0.4-0.5,0.4c-0.2,0-0.3-0.1-0.5-0.6c-0.2-0.5-0.4-0.7-0.7-1.2c-0.1-0.2-0.2-0.3-0.2-0.4
			c0-0.3,0.4-0.5,0.6-0.4C36.9,65,37.8,66.7,37.8,67z M41.7,65.5c0.2,0.3,0.6,1.1,0.6,1.3c0,0.3-0.4,0.4-0.5,0.4
			c-0.2,0-0.3-0.1-0.6-0.6c-0.2-0.3-0.5-0.8-0.7-1.2c-0.1-0.2-0.2-0.3-0.2-0.4c0-0.2,0.2-0.4,0.4-0.4C41.2,64.7,41.3,64.9,41.7,65.5
			z"/>
		<path class="st3" d="M54.9,66.8v-1.5c0-0.2,0-0.5,0.5-0.5c0.5,0,0.5,0.3,0.5,0.5v1.5h3.2c0.1,0,0.5,0,0.5,0.4
			c0,0.4-0.4,0.4-0.5,0.4h-0.9c-0.3,1.7-0.4,1.9-1,3.9h2.2c0.2,0,0.5,0,0.5,0.4c0,0.4-0.3,0.4-0.5,0.4h-8.1c-0.1,0-0.5,0-0.5-0.4
			c0-0.4,0.4-0.4,0.5-0.4h2.1c-0.2-1.2-0.2-1.4-0.8-3.9h-0.9c-0.1,0-0.5,0-0.5-0.4c0-0.4,0.4-0.4,0.5-0.4H54.9z M57.1,74.2
			c1.3,0,1.7,0.4,1.7,1.7v2.6c0,1.3-0.4,1.7-1.7,1.7h-3.5c-1.3,0-1.7-0.4-1.7-1.7v-2.6c0-1.3,0.4-1.7,1.7-1.7H57.1z M57.9,75.9
			c0-0.6-0.3-0.9-0.9-0.9h-3.3c-0.6,0-0.9,0.3-0.9,0.9v2.6c0,0.6,0.3,0.9,0.9,0.9H57c0.6,0,0.9-0.3,0.9-0.9V75.9z M53.6,67.6
			c0.4,1.5,0.6,2.5,0.8,3.9h2c0.2-0.6,0.6-2,0.9-3.9H53.6z M61.4,80.2c0,0.2,0,0.5-0.5,0.5s-0.5-0.3-0.5-0.5V66.8
			c0-1,0.3-1.4,1.4-1.4h2.4c0.6,0,0.8,0,1.1,0.1c0.2,0.1,0.5,0.3,0.5,0.9c0,0.6-0.9,2.4-1.2,3.1c-0.1,0.2-0.7,1.3-0.7,1.3
			c0,0.1-0.1,0.1-0.1,0.2c0,0.2,0.1,0.3,0.2,0.3c0.9,0.8,1.4,1.4,1.9,2.5c0.4,0.9,0.5,1.6,0.5,2c0,1.6-1,2.8-2.3,2.9
			c-0.3,0-0.3,0-1.4,0c-0.3,0-0.6,0-0.6-0.5c0-0.3,0.1-0.5,0.5-0.5c0.1,0,0.9,0.1,1,0.1c1.7,0,1.9-1.6,1.9-2.1
			c0-1.5-1.1-2.7-1.5-3.2c-0.8-0.9-0.9-1-1-1.2c-0.1-0.1-0.1-0.3-0.1-0.4c0-0.2,0-0.4,0.2-0.6c0.3-0.6,1.8-3.2,1.8-3.8
			c0-0.3-0.4-0.3-0.6-0.3H62c-0.5,0-0.6,0.2-0.6,0.6V80.2z"/>
	</g>
	<g id="XMLID_99_" class="st8">
		<circle id="XMLID_105_" class="st3" cx="43.8" cy="30.6" r="21"/>
		
			<rect id="XMLID_104_" x="38.8" y="3.8" transform="matrix(0.7071 -0.7071 0.7071 0.7071 -8.6418 39.7159)" class="st3" width="9.6" height="53"/>
		
			<rect id="XMLID_103_" x="38.8" y="3.8" transform="matrix(-1 8.885591e-11 -8.885591e-11 -1 87.241 60.5791)" class="st3" width="9.6" height="53"/>
		
			<rect id="XMLID_102_" x="17.1" y="25.5" transform="matrix(0.7071 -0.7071 0.7071 0.7071 -8.6418 39.7159)" class="st3" width="53" height="9.6"/>
		
			<rect id="XMLID_101_" x="38.8" y="3.8" transform="matrix(4.566487e-11 -1 1 4.566487e-11 13.3309 73.91)" class="st3" width="9.6" height="53"/>
		<circle id="XMLID_100_" class="st11" cx="44" cy="30.6" r="13.4"/>
	</g>
	<g id="XMLID_98_" class="st8">
	</g>
</g>
<g id="nogakubu" class="st6">
	<rect id="XMLID_85_" x="-0.7" y="0" class="st7" width="89" height="85"/>
	<g id="XMLID_94_" class="st8">
		<rect id="XMLID_79_" x="16.2" y="64.3" class="st2" width="55.2" height="17.5"/>
		<path class="st3" d="M22.2,76.1v3.2c1.3-0.1,1.9-0.2,2.9-0.3c0.2,0,0.8-0.1,0.9-0.1c0.2,0,0.3,0.2,0.3,0.4c0,0.4-0.3,0.4-0.5,0.5
			c-1.9,0.3-6.4,0.6-6.6,0.6c-0.1,0-0.2,0-0.3-0.1c-0.1-0.1-0.1-0.2-0.1-0.4c0-0.3,0.2-0.4,0.4-0.4c0.1,0,1.8-0.1,2.1-0.1v-3.3h-2.4
			c-0.1,1.2-0.4,2.5-1,3.6c-0.3,0.7-0.5,0.8-0.7,0.8c-0.3,0-0.5-0.3-0.5-0.5c0-0.1,0-0.2,0.1-0.4c1.1-1.8,1.1-3.9,1.1-5v-1.3
			c0-1.3,0.4-1.7,1.7-1.7h12c0.1,0,0.5,0,0.5,0.4c0,0.4-0.4,0.4-0.5,0.4H19.7c-0.6,0-0.9,0.3-0.9,0.9v2.1H32c0.1,0,0.5,0,0.5,0.4
			s-0.4,0.4-0.5,0.4h-6.7c0.7,0.8,1.5,1.4,2.3,1.8c0.9-0.6,1.6-1.1,2.1-1.5c0.2-0.1,0.3-0.2,0.4-0.2c0.2,0,0.4,0.2,0.4,0.5
			c0,0.2-0.2,0.3-0.3,0.4c-0.7,0.6-1.3,0.9-1.8,1.2c1.3,0.6,2.1,0.8,3.6,1.2c0.2,0.1,0.4,0.1,0.4,0.4c0,0.1-0.1,0.5-0.5,0.5
			c-0.1,0-5.1-0.9-7.7-4.4H22.2z M30,65.9c1,0,1.4,0.4,1.4,1.4v1.9c0,1-0.3,1.4-1.4,1.4H19.4c-1,0-1.4-0.4-1.4-1.4v-1.9
			c0-1,0.3-1.4,1.4-1.4h2.9v-0.5c0-0.1,0-0.5,0.4-0.5c0.4,0,0.4,0.4,0.4,0.5v0.5h3.1v-0.5c0-0.2,0.1-0.5,0.4-0.5
			c0.4,0,0.4,0.4,0.4,0.5v0.5H30z M22.3,67.9v-1.2h-2.7c-0.4,0-0.6,0.2-0.6,0.6v0.6H22.3z M22.3,68.5H19v0.7c0,0.4,0.2,0.6,0.6,0.6
			h2.7V68.5z M20.4,74.2c-0.1,0-0.5,0-0.5-0.4s0.4-0.4,0.5-0.4h9.9c0.1,0,0.5,0,0.5,0.4c0,0.4-0.4,0.4-0.5,0.4H20.4z M26.2,66.6
			h-3.1v1.2h3.1V66.6z M26.2,68.5h-3.1v1.4h3.1V68.5z M27.1,67.9h3.4v-0.6c0-0.4-0.2-0.6-0.6-0.6h-2.7V67.9z M27.1,68.5v1.4h2.7
			c0.4,0,0.6-0.2,0.6-0.6v-0.7H27.1z"/>
		<path class="st3" d="M49,74.7c0.1,0,0.5,0,0.5,0.4c0,0.4-0.2,0.4-0.5,0.4h-6.7v3.1c0,1.4-0.6,1.7-1.8,1.7c-0.3,0-2.2,0-2.3,0
			c-0.2-0.1-0.3-0.3-0.3-0.6c0-0.5,0.3-0.5,0.5-0.5c0.1,0,2,0,2,0c0.4,0,1,0,1-0.9v-2.9h-7.1c-0.1,0-0.5,0-0.5-0.4
			c0-0.4,0.4-0.4,0.5-0.4h7.1v-1c0-0.1,0-0.5,0.4-0.5c0.1,0,0.2,0,0.2,0c0.8-0.4,1.5-0.8,2-1.2c0.2-0.1,0.8-0.5,0.8-0.7
			c0-0.2-0.1-0.2-0.4-0.2H37c-0.1,0-0.5,0-0.5-0.4s0.3-0.4,0.5-0.4h7.9c0.5,0,0.6,0,0.7,0.1c0.2,0.1,0.5,0.3,0.5,0.7
			c0,0.5-0.4,0.9-1.7,1.7c-0.4,0.2-1,0.6-2.2,1.2v0.6H49z M47.4,67.7c1.2,0,1.7,0.4,1.7,1.7v1.5c0,0.2,0,0.5-0.5,0.5
			s-0.5-0.3-0.5-0.5v-1.5c0-0.6-0.3-0.9-0.9-0.9h-11c-0.6,0-0.9,0.3-0.9,0.9v1.5c0,0.2,0,0.5-0.5,0.5c-0.4,0-0.5-0.1-0.5-0.5v-1.5
			c0-1.3,0.4-1.7,1.7-1.7h9.1c0.4-0.6,0.6-1,1.1-2c0.4-0.8,0.4-0.8,0.7-0.8c0.2,0,0.5,0.2,0.5,0.5c0,0.4-1,2.1-1.2,2.3H47.4z
			 M37.8,67c0,0.3-0.3,0.4-0.5,0.4c-0.2,0-0.3-0.1-0.5-0.6c-0.2-0.5-0.4-0.7-0.7-1.2c-0.1-0.2-0.2-0.3-0.2-0.4
			c0-0.3,0.4-0.5,0.6-0.4C36.9,65,37.8,66.7,37.8,67z M41.7,65.5c0.2,0.3,0.6,1.1,0.6,1.3c0,0.3-0.4,0.4-0.5,0.4
			c-0.2,0-0.3-0.1-0.6-0.6c-0.2-0.3-0.5-0.8-0.7-1.2c-0.1-0.2-0.2-0.3-0.2-0.4c0-0.2,0.2-0.4,0.4-0.4C41.2,64.7,41.3,64.9,41.7,65.5
			z"/>
		<path class="st3" d="M54.9,66.8v-1.5c0-0.2,0-0.5,0.5-0.5c0.5,0,0.5,0.3,0.5,0.5v1.5h3.2c0.1,0,0.5,0,0.5,0.4
			c0,0.4-0.4,0.4-0.5,0.4h-0.9c-0.3,1.7-0.4,1.9-1,3.9h2.2c0.2,0,0.5,0,0.5,0.4c0,0.4-0.3,0.4-0.5,0.4h-8.1c-0.1,0-0.5,0-0.5-0.4
			c0-0.4,0.4-0.4,0.5-0.4h2.1c-0.2-1.2-0.2-1.4-0.8-3.9h-0.9c-0.1,0-0.5,0-0.5-0.4c0-0.4,0.4-0.4,0.5-0.4H54.9z M57.1,74.2
			c1.3,0,1.7,0.4,1.7,1.7v2.6c0,1.3-0.4,1.7-1.7,1.7h-3.5c-1.3,0-1.7-0.4-1.7-1.7v-2.6c0-1.3,0.4-1.7,1.7-1.7H57.1z M57.9,75.9
			c0-0.6-0.3-0.9-0.9-0.9h-3.3c-0.6,0-0.9,0.3-0.9,0.9v2.6c0,0.6,0.3,0.9,0.9,0.9H57c0.6,0,0.9-0.3,0.9-0.9V75.9z M53.6,67.6
			c0.4,1.5,0.6,2.5,0.8,3.9h2c0.2-0.6,0.6-2,0.9-3.9H53.6z M61.4,80.2c0,0.2,0,0.5-0.5,0.5s-0.5-0.3-0.5-0.5V66.8
			c0-1,0.3-1.4,1.4-1.4h2.4c0.6,0,0.8,0,1.1,0.1c0.2,0.1,0.5,0.3,0.5,0.9c0,0.6-0.9,2.4-1.2,3.1c-0.1,0.2-0.7,1.3-0.7,1.3
			c0,0.1-0.1,0.1-0.1,0.2c0,0.2,0.1,0.3,0.2,0.3c0.9,0.8,1.4,1.4,1.9,2.5c0.4,0.9,0.5,1.6,0.5,2c0,1.6-1,2.8-2.3,2.9
			c-0.3,0-0.3,0-1.4,0c-0.3,0-0.6,0-0.6-0.5c0-0.3,0.1-0.5,0.5-0.5c0.1,0,0.9,0.1,1,0.1c1.7,0,1.9-1.6,1.9-2.1
			c0-1.5-1.1-2.7-1.5-3.2c-0.8-0.9-0.9-1-1-1.2c-0.1-0.1-0.1-0.3-0.1-0.4c0-0.2,0-0.4,0.2-0.6c0.3-0.6,1.8-3.2,1.8-3.8
			c0-0.3-0.4-0.3-0.6-0.3H62c-0.5,0-0.6,0.2-0.6,0.6V80.2z"/>
	</g>
	<g id="XMLID_130_" class="st8">
		<polygon id="XMLID_132_" class="st5" points="18.8,54.8 29.8,32 40.7,54.8 		"/>
		<polygon id="XMLID_131_" class="st5" points="37.8,54.8 53.4,7.3 69,54.8 		"/>
	</g>
</g>
<g id="sonota" class="st6">
	<rect id="XMLID_96_" x="-0.7" y="0.3" class="st7" width="89" height="85"/>
	<g id="XMLID_133_" class="st8">
		<rect id="XMLID_83_" x="16.2" y="64.5" class="st2" width="55.2" height="17.5"/>
		<path class="st3" d="M22.8,71.7c1.5-0.2,7.3-1.1,8.6-1.1c0.4,0,0.5,0.2,0.5,0.5c0,0.4-0.4,0.4-0.8,0.5c-5,0.4-7.8,3.2-7.8,4.9
			c0,2.1,3.1,2.5,4.5,2.5c0.8,0,1,0,1,0.5c0,0.5-0.4,0.5-0.7,0.5c-1.6,0-5.7-0.4-5.7-3.4c0-2.7,3.5-4.4,4.7-4.8
			c-1.3,0.2-4.1,0.6-7.3,1.3c-0.7,0.2-2,0.4-2.1,0.4c-0.4,0-0.4-0.3-0.4-0.5c0-0.4,0.3-0.5,0.6-0.5c0.5-0.1,3.1-0.5,3.3-0.5
			c1.9-1.4,3.8-2.7,6.7-4.8c-3.4,0.4-6.9,0.5-7.3,0.5c-0.2,0-0.6,0-0.6-0.5c0-0.1,0.1-0.3,0.2-0.3c0.1-0.1,0.2-0.1,1.1-0.1
			c1.3,0,2.6,0,4.5-0.1c0.3,0,3-0.3,3.1-0.3c0.6,0,0.7,0.4,0.7,0.5c0,0.2-0.1,0.4-0.4,0.5c-0.3,0.2-0.7,0.5-1,0.7L22.8,71.7z"/>
		<path class="st3" d="M40.3,76c-0.8,1.9-1.6,3.1-2.7,3.1c-1.6,0-3.2-2.5-3.2-5.6c0-4,3.1-7.3,7.5-7.3c4.2,0,6.9,2.9,6.9,6.7
			c0,5.3-5,7.1-5.5,7.1c-0.4,0-0.5-0.3-0.5-0.5c0-0.3,0.1-0.3,0.6-0.5c2.3-0.9,4.4-3.1,4.4-6.1c0-1.9-0.8-3.6-2.2-4.6
			c-1.3-1-2.3-1.1-3.2-1.1C42.1,70.2,41.5,73.2,40.3,76z M35.4,73.7c0,2.3,1.2,4.5,2.2,4.5c0.9,0,1.7-1.9,2.2-3.3
			c0.9-2.4,1.4-5.1,1.7-7.6C38.1,67.5,35.4,70.1,35.4,73.7z"/>
		<path class="st3" d="M54,80.5c0,0.2,0,0.5-0.5,0.5c-0.5,0-0.5-0.3-0.5-0.5V71c-0.4,0.6-0.8,1.2-1.3,1.8c-0.2,0.3-0.4,0.3-0.5,0.3
			c-0.3,0-0.5-0.3-0.5-0.5c0-0.2,0.1-0.3,0.2-0.4c1.7-1.9,2.9-4.2,3.7-6.6c0.1-0.2,0.2-0.5,0.5-0.5c0.1,0,0.5,0.1,0.5,0.4
			c0,0.2-0.6,1.9-1.6,3.9V80.5z M55.4,72.1c-0.1,0-0.1,0-0.2,0c-0.3,0-0.4-0.3-0.4-0.5c0-0.3,0.3-0.4,0.4-0.4l1.9-0.5v-3.6
			c0-0.1,0-0.5,0.5-0.5c0.5,0,0.5,0.4,0.5,0.5v3.3l2.9-0.7v-4.1c0-0.1,0-0.5,0.5-0.5c0.4,0,0.5,0.2,0.5,0.5v3.9l1.8-0.5
			c0.4-0.1,0.6-0.2,1-0.2c1.3,0,1.3,1.2,1.3,1.5c0,0.2,0,1.9-0.1,2.9c-0.1,2.3-0.3,2.9-2.1,2.9c-0.3,0-0.8,0-0.9,0
			c-0.2-0.1-0.3-0.3-0.3-0.5c0-0.5,0.3-0.5,0.5-0.5c0.2,0,0.9,0,1,0c0.6,0,0.7-0.3,0.7-0.9c0.1-1,0.2-2.8,0.2-3.6
			c0-0.5,0-1.1-0.6-1.1c-0.2,0-0.4,0.1-0.6,0.1l-2,0.5v6.5c0,0.2,0,0.5-0.5,0.5c-0.5,0-0.5-0.3-0.5-0.5v-6.3l-2.9,0.8v7.5
			c0,0.9,0.6,0.9,1.1,0.9h5.3c0.7,0,0.9-0.1,1-1.7c0.1-1,0.1-1.1,0.5-1.1c0.1,0,0.4,0,0.5,0.2c0.1,0.1,0.1,0.2,0.1,0.3
			c0,0.6-0.2,2.1-0.5,2.7c-0.3,0.5-1,0.5-1.5,0.5c-0.6,0-5.8,0-6,0C57.2,80.6,57,79.9,57,79v-7.3L55.4,72.1z"/>
	</g>
	<g id="XMLID_87_" class="st8">
		<circle id="XMLID_140_" class="st4" cx="43.8" cy="30.3" r="27"/>
		<line id="XMLID_139_" class="st4" x1="16.8" y1="30.3" x2="70.8" y2="30.3"/>
		<path id="XMLID_138_" class="st4" d="M24.4,11.5c12.9,8.2,25.6,8.4,38.2,0"/>
		<path id="XMLID_137_" class="st4" d="M24.4,49.7c12.9-8.2,25.6-8.4,38.2,0"/>
		<line id="XMLID_136_" class="st4" x1="43.8" y1="3.3" x2="43.8" y2="57.3"/>
		<ellipse id="XMLID_135_" class="st4" cx="43.8" cy="30.3" rx="14.5" ry="27"/>
	</g>
</g>
</svg>
