<?xml version="1.0" encoding="utf-8"?>
<!-- Generator: Adobe Illustrator 20.0.0, SVG Export Plug-In . SVG Version: 6.00 Build 0)  -->
<svg version="1.1" xmlns="http://www.w3.org/2000/svg" xmlns:xlink="http://www.w3.org/1999/xlink" x="0px" y="0px"
	 viewBox="0 0 85 85" style="enable-background:new 0 0 85 85;" xml:space="preserve">
<style type="text/css">
	.st0{display:none;}
	.st1{display:inline;}
	.st2{fill:#E95383;}
	.st3{fill:#FFFFFF;}
	.st4{fill:#FF9933;}
	.st5{fill:none;}
	.st6{fill:#FFFFFF;stroke:#FFFFFF;stroke-miterlimit:10;}
	.st7{fill:none;stroke:#FFFFFF;stroke-width:3;stroke-miterlimit:10;}
	.st8{fill:#FFFFFF;stroke:#FFFFFF;stroke-width:3;stroke-miterlimit:10;}
	.st9{fill:#F4B2CE;stroke:#FFFFFF;stroke-width:3;stroke-miterlimit:10;}
	.st10{fill:none;stroke:#FFFFFF;stroke-width:3;stroke-linejoin:bevel;stroke-miterlimit:10;}
	.st11{fill:#FF9933;stroke:#FFFFFF;stroke-miterlimit:10;}
	.st12{fill:#E95383;stroke:#FFFFFF;stroke-miterlimit:10;}
</style>
<g id="レイヤー_11" class="st0">
	<g id="XMLID_59_" class="st1">
		<rect x="0.3" y="0.2" class="st2" width="84.5" height="84.5"/>
		<path class="st3" d="M84.5,0.5v84h-84v-84H84.5 M85,0H0v85h85V0L85,0z"/>
	</g>
</g>
<g id="レイヤー_11のコピー">
	<g id="XMLID_95_">
		<rect x="0.3" y="0.2" class="st4" width="84.5" height="84.5"/>
		<path class="st3" d="M84.5,0.5v84h-84v-84H84.5 M85,0H0v85h85V0L85,0z"/>
	</g>
</g>
<g id="bungakubu" class="st0">
	<g id="XMLID_74_" class="st1">
		<rect id="XMLID_96_" x="18" y="64.3" class="st5" width="55.2" height="17.5"/>
		<path class="st6" d="M19.2,68.1c-0.1,0-0.5,0-0.5-0.5s0.4-0.5,0.5-0.5H26v-1.9c0-0.2,0-0.5,0.5-0.5c0.5,0,0.5,0.3,0.5,0.5v1.9h6.8
			c0.1,0,0.5,0,0.5,0.5c0,0.4-0.3,0.5-0.5,0.5h-2.4c-0.6,1.9-1.6,4.9-4.3,7.8c1.8,1.8,4.1,3,6.6,3.7c0.3,0.1,0.5,0.2,0.5,0.4
			c0,0.3-0.2,0.6-0.5,0.6c-0.4,0-3.9-1-7.2-4.1c-2.9,2.7-6.9,4-7.2,4c-0.3,0-0.5-0.3-0.5-0.6s0.2-0.4,0.5-0.5c2.9-0.9,5-2.2,6.6-3.6
			c-2.3-2.5-3.6-5.4-4.2-7.8H19.2z M22.6,68.1c0.8,2.9,2.3,5.3,3.9,7.1c1.9-2,3.2-4.5,3.9-7.1H22.6z"/>
		<path class="st6" d="M50.8,74.7c0.1,0,0.5,0,0.5,0.4c0,0.4-0.2,0.4-0.5,0.4h-6.7v3.1c0,1.4-0.6,1.7-1.8,1.7c-0.3,0-2.2,0-2.3,0
			c-0.2-0.1-0.3-0.3-0.3-0.6c0-0.5,0.3-0.5,0.5-0.5c0.1,0,2,0,2,0c0.4,0,1,0,1-0.9v-2.9h-7.1c-0.1,0-0.5,0-0.5-0.4
			c0-0.4,0.4-0.4,0.5-0.4h7.1v-1c0-0.1,0-0.5,0.4-0.5c0.1,0,0.2,0,0.2,0c0.8-0.4,1.5-0.8,2-1.2c0.2-0.1,0.8-0.5,0.8-0.7
			c0-0.2-0.1-0.2-0.4-0.2h-7.5c-0.1,0-0.5,0-0.5-0.4s0.3-0.4,0.5-0.4h7.9c0.5,0,0.6,0,0.7,0.1c0.2,0.1,0.5,0.3,0.5,0.7
			c0,0.5-0.4,0.9-1.7,1.7c-0.4,0.2-1,0.6-2.2,1.2v0.6H50.8z M49.2,67.7c1.2,0,1.7,0.4,1.7,1.7v1.5c0,0.2,0,0.5-0.5,0.5
			s-0.5-0.3-0.5-0.5v-1.5c0-0.6-0.3-0.9-0.9-0.9H38c-0.6,0-0.9,0.3-0.9,0.9v1.5c0,0.2,0,0.5-0.5,0.5c-0.4,0-0.5-0.1-0.5-0.5v-1.5
			c0-1.3,0.4-1.7,1.7-1.7H47c0.4-0.6,0.6-1,1.1-2c0.4-0.8,0.4-0.8,0.7-0.8c0.2,0,0.5,0.2,0.5,0.5c0,0.4-1,2.1-1.2,2.3H49.2z
			 M39.6,67c0,0.3-0.3,0.4-0.5,0.4c-0.2,0-0.3-0.1-0.5-0.6c-0.2-0.5-0.4-0.7-0.7-1.2c-0.1-0.2-0.2-0.3-0.2-0.4
			c0-0.3,0.4-0.5,0.6-0.4C38.7,65,39.6,66.7,39.6,67z M43.5,65.5c0.2,0.3,0.6,1.1,0.6,1.3c0,0.3-0.4,0.4-0.5,0.4
			c-0.2,0-0.3-0.1-0.6-0.6c-0.2-0.3-0.5-0.8-0.7-1.2c-0.1-0.2-0.2-0.3-0.2-0.4c0-0.2,0.2-0.4,0.4-0.4C43,64.7,43.1,64.9,43.5,65.5z"
			/>
		<path class="st6" d="M56.7,66.8v-1.5c0-0.2,0-0.5,0.5-0.5c0.5,0,0.5,0.3,0.5,0.5v1.5h3.2c0.1,0,0.5,0,0.5,0.4
			c0,0.4-0.4,0.4-0.5,0.4H60c-0.3,1.7-0.4,1.9-1,3.9h2.2c0.2,0,0.5,0,0.5,0.4c0,0.4-0.3,0.4-0.5,0.4h-8.1c-0.1,0-0.5,0-0.5-0.4
			c0-0.4,0.4-0.4,0.5-0.4h2.1c-0.2-1.2-0.2-1.4-0.8-3.9h-0.9c-0.1,0-0.5,0-0.5-0.4c0-0.4,0.4-0.4,0.5-0.4H56.7z M58.9,74.2
			c1.3,0,1.7,0.4,1.7,1.7v2.6c0,1.3-0.4,1.7-1.7,1.7h-3.5c-1.3,0-1.7-0.4-1.7-1.7v-2.6c0-1.3,0.4-1.7,1.7-1.7H58.9z M59.7,75.9
			c0-0.6-0.3-0.9-0.9-0.9h-3.3c-0.6,0-0.9,0.3-0.9,0.9v2.6c0,0.6,0.3,0.9,0.9,0.9h3.3c0.6,0,0.9-0.3,0.9-0.9V75.9z M55.4,67.6
			c0.4,1.5,0.6,2.5,0.8,3.9h2c0.2-0.6,0.6-2,0.9-3.9H55.4z M63.2,80.2c0,0.2,0,0.5-0.5,0.5s-0.5-0.3-0.5-0.5V66.8
			c0-1,0.3-1.4,1.4-1.4H66c0.6,0,0.8,0,1.1,0.1c0.2,0.1,0.5,0.3,0.5,0.9c0,0.6-0.9,2.4-1.2,3.1c-0.1,0.2-0.7,1.3-0.7,1.3
			c0,0.1-0.1,0.1-0.1,0.2c0,0.2,0.1,0.3,0.2,0.3c0.9,0.8,1.4,1.4,1.9,2.5c0.4,0.9,0.5,1.6,0.5,2c0,1.6-1,2.8-2.3,2.9
			c-0.3,0-0.3,0-1.4,0c-0.3,0-0.6,0-0.6-0.5c0-0.3,0.1-0.5,0.5-0.5c0.1,0,0.9,0.1,1,0.1c1.7,0,1.9-1.6,1.9-2.1
			c0-1.5-1.1-2.7-1.5-3.2c-0.8-0.9-0.9-1-1-1.2c-0.1-0.1-0.1-0.3-0.1-0.4c0-0.2,0-0.4,0.2-0.6c0.3-0.6,1.8-3.2,1.8-3.8
			c0-0.3-0.4-0.3-0.6-0.3h-2.2c-0.5,0-0.6,0.2-0.6,0.6V80.2z"/>
	</g>
	<g id="XMLID_11_" class="st1">
		<g id="XMLID_13_">
			<path id="XMLID_18_" class="st7" d="M12.8,54.6L12.8,54.6c0-2,7.6-3.6,14.6-3.6c6.9,0,13,1.8,14.7,3.8h0.7V15.1
				c0-0.2,0-0.6,0-0.8c0-2.7-7-5.8-15.3-5.8c-8,0-13.6,2.8-14.5,5.4c-0.1,0.2-0.1,1.2-0.1,1.5v37V54V54.6z"/>
			<path id="XMLID_17_" class="st7" d="M72.8,54.6L72.8,54.6c0-2-7.2-3.6-14.1-3.6c-6.9,0-12.5,1.8-14.3,3.8h-1.6V15.1
				c0-0.2,0-0.6,0-0.8c0-2.7,7.4-5.8,15.8-5.8c8,0,13.4,2.8,14.3,5.4c0.1,0.2-0.1,1.2-0.1,1.5v37V54V54.6z"/>
			<path id="XMLID_16_" class="st7" d="M18,16.5c3.3-1.5,9-2.2,15.2-1.3c1.5,0.2,2.3,0.4,3.3,0.6"/>
			<path id="XMLID_15_" class="st7" d="M18,22c3.3-1.5,9-2.2,15.2-1.3c1.5,0.2,2.3,0.4,3.3,0.6"/>
			<path id="XMLID_14_" class="st7" d="M18,27.5c3.3-1.5,9-2.2,15.2-1.3c1.5,0.2,2.3,0.4,3.3,0.6"/>
		</g>
		<path id="XMLID_12_" class="st8" d="M30.4,48.4c2.4-3.5,4.1-6.3,5.2-8.1c3.2-5.4,15.7-27,22.3-32.7c0.5-0.5,1.7-1.4,3.5-1.8
			c2.1-0.4,4.8,0,6.3,1.5c2.6,2.6,0.5,7.1-0.7,9.6c-0.8,1.7-3.1,6.5-7.1,6.9c-0.2,0-3,0.3-3.9-1.2c-0.6-0.9-0.3-2.2,0.6-3
			c1.2-1,3-0.8,4-0.3c1.1,0.6,1.6,1.6,1.6,1.8c1.5,3.4-2.9,9.7-8.5,10.8c-0.7,0.1-3.6,0.7-4.9-0.7c-0.7-0.8-1-2.3,0-3.2
			c0.7-0.7,2-1,2.9-0.6c1.7,0.7,1.6,3.4,1.6,3.8c-0.3,4.5-6.4,7.3-7.8,7.9c-1.5,0.6-5.8,1.4-10,1.2"/>
	</g>
</g>
<g id="kyouikugakubu" class="st0">
	<g id="XMLID_80_" class="st1">
		<rect id="XMLID_2_" x="11.1" y="64.5" class="st5" width="69.6" height="17.5"/>
		<path class="st6" d="M19.8,70.1c0.1,0,0.5,0,0.5,0.4s-0.4,0.4-0.5,0.4h-2.4c-0.9,0.9-1.5,1.4-1.9,1.7h2.1c0.5,0,1.3,0,1.3,0.8
			c0,0.7-1,1.6-2.1,2.3v0.7c0.7-0.1,1.4-0.1,1.9-0.2c0.1,0,1.3-0.2,1.4-0.2c0.3,0,0.4,0.2,0.4,0.4c0,0.2-0.1,0.4-0.4,0.4
			c-0.3,0.1-1.8,0.3-3.3,0.4v2c0,0.4,0,1.1-0.7,1.3c-0.3,0.1-0.4,0.1-2,0.1c-0.3,0-0.6,0-0.6-0.5c0-0.4,0.3-0.5,0.5-0.5
			c0.1,0,1.2,0,1.2,0c0.4,0,0.7-0.1,0.7-0.6v-1.8c-1.1,0.1-3.2,0.3-3.7,0.3c-0.1,0-0.2,0-0.3-0.1c-0.1-0.1-0.1-0.2-0.1-0.4
			c0-0.2,0.1-0.4,0.4-0.4c0.2,0,3.2-0.2,3.8-0.3v-1c0-0.6,0.4-0.5,0.7-0.5c0.3-0.3,1.2-1,1.2-1.3c0-0.2-0.2-0.2-0.4-0.2h-3
			c-0.4,0.3-1.8,1.2-2.1,1.2c-0.3,0-0.5-0.3-0.5-0.5c0-0.2,0.1-0.3,0.4-0.4c1-0.5,2.5-1.4,4-2.7h-3.9c-0.1,0-0.5,0-0.5-0.4
			s0.4-0.4,0.5-0.4h3v-2.3h-2.7c-0.1,0-0.5,0-0.5-0.4c0-0.4,0.4-0.4,0.5-0.4h2.7v-1.3c0-0.1,0-0.5,0.4-0.5c0.4,0,0.4,0.3,0.4,0.5
			v1.3h2.2c0.1,0,0.5,0,0.5,0.4c0,0.4-0.4,0.4-0.5,0.4H16v2.3H17c0.8-0.8,2-2.2,3-4.2c0.1-0.1,0.2-0.3,0.4-0.3
			c0.2,0,0.5,0.1,0.5,0.4c0,0.2-1.2,2.3-2.7,4H19.8z M27.1,68c0.1,0,0.5,0,0.5,0.4c0,0.4-0.4,0.4-0.5,0.4h-0.5
			c-0.2,2.2-0.7,5-2.4,7.7c0.6,0.9,1.5,2.1,3,3.1c0.2,0.1,0.3,0.2,0.3,0.4c0,0.3-0.2,0.6-0.5,0.6c-0.3,0-1.2-0.8-1.5-1.1
			c-0.7-0.7-1.3-1.4-1.8-2.2c-1.9,2.4-4.1,3.3-4.3,3.3c-0.3,0-0.5-0.2-0.5-0.5c0-0.3,0.2-0.4,0.4-0.5c1.7-0.8,3-2,3.9-3.2
			c-1-1.9-1.5-3.6-1.8-4.7c-0.4,0.8-0.7,1.2-0.8,1.2c-0.1,0.1-0.2,0.2-0.3,0.2c-0.3,0-0.5-0.3-0.5-0.5c0-0.1,0.1-0.2,0.2-0.4
			c1-1.3,1.9-3.6,2.4-6.7c0-0.2,0.1-0.5,0.5-0.5c0.2,0,0.5,0.1,0.5,0.4c0,0.1-0.1,0.9-0.5,2.5H27.1z M22.5,68.9
			c-0.3,0.9-0.5,1.4-0.6,1.6c0.2,1.2,0.6,3.2,1.7,5.2c1.6-2.6,1.9-5.4,2-6.8H22.5z"/>
		<path class="st6" d="M29.3,67.3c-0.1,0-0.5,0-0.5-0.4c0-0.4,0.3-0.4,0.5-0.4h6.8v-0.9c0-0.2,0-0.5,0.5-0.5c0.4,0,0.5,0.3,0.5,0.5
			v0.9h6.9c0.2,0,0.5,0,0.5,0.4c0,0.4-0.3,0.4-0.5,0.4h-8.7c-0.6,1-1.5,2.2-1.7,2.4c2.1-0.1,3.1-0.1,6.7-0.3
			c-0.4-0.3-0.9-0.6-1.3-0.8c-0.2-0.1-0.3-0.2-0.3-0.4c0-0.2,0.2-0.5,0.5-0.5c0.4,0,2.6,1.5,3.4,2.1c0.9,0.7,1,0.8,1,1
			c0,0.3-0.3,0.5-0.5,0.5c-0.1,0-0.2-0.1-0.4-0.2c-0.8-0.6-1.1-0.9-1.3-1c-4,0.3-11.2,0.5-11.6,0.5c-0.2,0-0.5,0-0.5-0.5
			c0-0.3,0.3-0.4,0.3-0.4c0.1,0,2.6-0.1,2.8-0.1c0.8-1,1.2-1.6,1.6-2.4H29.3z M32.3,77.5v2.9c0,0.2,0,0.5-0.5,0.5
			c-0.4,0-0.5-0.3-0.5-0.5v-7.3c0-1,0.3-1.4,1.4-1.4h7.7c1,0,1.4,0.4,1.4,1.4v6.2c0,0.9-0.3,1.4-1.2,1.4h-2c-0.3,0-0.7,0-0.7-0.5
			c0-0.4,0.3-0.4,0.5-0.4c0.3,0,1.5,0,1.7,0c0.3,0,0.7-0.1,0.7-0.6v-1.5H32.3z M32.3,74.2h8.6v-1c0-0.4-0.2-0.6-0.6-0.6h-7.3
			c-0.4,0-0.6,0.2-0.6,0.6V74.2z M40.9,75h-8.6v1.7h8.6V75z"/>
		<path class="st6" d="M60.9,74.9c0.1,0,0.5,0,0.5,0.4c0,0.4-0.2,0.4-0.5,0.4h-6.7v3.1c0,1.4-0.6,1.7-1.8,1.7c-0.3,0-2.2,0-2.3,0
			c-0.2-0.1-0.3-0.3-0.3-0.6c0-0.5,0.3-0.5,0.5-0.5c0.1,0,2,0,2,0c0.4,0,1,0,1-0.9v-2.9h-7.1c-0.1,0-0.5,0-0.5-0.4
			c0-0.4,0.4-0.4,0.5-0.4h7.1v-1c0-0.1,0-0.5,0.4-0.5c0.1,0,0.2,0,0.2,0c0.8-0.4,1.5-0.8,2-1.2c0.2-0.1,0.8-0.5,0.8-0.7
			c0-0.2-0.1-0.2-0.4-0.2h-7.5c-0.1,0-0.5,0-0.5-0.4s0.3-0.4,0.5-0.4h7.9c0.5,0,0.6,0,0.7,0.1c0.2,0.1,0.5,0.3,0.5,0.7
			c0,0.5-0.4,0.9-1.7,1.7c-0.4,0.2-1,0.6-2.2,1.2v0.6H60.9z M59.3,67.9c1.2,0,1.7,0.4,1.7,1.7v1.5c0,0.2,0,0.5-0.5,0.5
			c-0.5,0-0.5-0.3-0.5-0.5v-1.5c0-0.6-0.3-0.9-0.9-0.9h-11c-0.6,0-0.9,0.3-0.9,0.9v1.5c0,0.2,0,0.5-0.5,0.5c-0.4,0-0.5-0.1-0.5-0.5
			v-1.5c0-1.3,0.4-1.7,1.7-1.7h9.1c0.4-0.6,0.6-1,1.1-2c0.4-0.8,0.4-0.8,0.7-0.8c0.2,0,0.5,0.2,0.5,0.5c0,0.4-1,2.1-1.2,2.3H59.3z
			 M49.7,67.2c0,0.3-0.3,0.4-0.5,0.4c-0.2,0-0.3-0.1-0.5-0.6c-0.2-0.5-0.4-0.7-0.7-1.2c-0.1-0.2-0.2-0.3-0.2-0.4
			c0-0.3,0.4-0.5,0.6-0.4C48.8,65.2,49.7,67,49.7,67.2z M53.6,65.8c0.2,0.3,0.6,1.1,0.6,1.3c0,0.3-0.4,0.4-0.5,0.4
			c-0.2,0-0.3-0.1-0.6-0.6c-0.2-0.3-0.5-0.8-0.7-1.2c-0.1-0.2-0.2-0.3-0.2-0.4c0-0.2,0.2-0.4,0.4-0.4C53.1,65,53.2,65.1,53.6,65.8z"
			/>
		<path class="st6" d="M66.8,67v-1.5c0-0.2,0-0.5,0.5-0.5s0.5,0.3,0.5,0.5V67H71c0.1,0,0.5,0,0.5,0.4s-0.4,0.4-0.5,0.4h-0.9
			c-0.3,1.7-0.4,1.9-1,3.9h2.2c0.2,0,0.5,0,0.5,0.4s-0.3,0.4-0.5,0.4h-8.1c-0.1,0-0.5,0-0.5-0.4c0-0.4,0.4-0.4,0.5-0.4h2.1
			c-0.2-1.2-0.2-1.4-0.8-3.9h-0.9c-0.1,0-0.5,0-0.5-0.4s0.4-0.4,0.5-0.4H66.8z M69.1,74.5c1.3,0,1.7,0.4,1.7,1.7v2.6
			c0,1.3-0.4,1.7-1.7,1.7h-3.5c-1.3,0-1.7-0.4-1.7-1.7v-2.6c0-1.3,0.4-1.7,1.7-1.7H69.1z M69.8,76.2c0-0.6-0.3-0.9-0.9-0.9h-3.3
			c-0.6,0-0.9,0.3-0.9,0.9v2.6c0,0.6,0.3,0.9,0.9,0.9H69c0.6,0,0.9-0.3,0.9-0.9V76.2z M65.5,67.8c0.4,1.5,0.6,2.5,0.8,3.9h2
			c0.2-0.6,0.6-2,0.9-3.9H65.5z M73.3,80.5c0,0.2,0,0.5-0.5,0.5c-0.5,0-0.5-0.3-0.5-0.5V67c0-1,0.3-1.4,1.4-1.4h2.4
			c0.6,0,0.8,0,1.1,0.1c0.2,0.1,0.5,0.3,0.5,0.9c0,0.6-0.9,2.4-1.2,3.1c-0.1,0.2-0.7,1.3-0.7,1.3c0,0.1-0.1,0.1-0.1,0.2
			c0,0.2,0.1,0.3,0.2,0.3c0.9,0.8,1.4,1.4,1.9,2.5c0.4,0.9,0.5,1.6,0.5,2c0,1.6-1,2.8-2.3,2.9c-0.3,0-0.3,0-1.4,0
			c-0.3,0-0.6,0-0.6-0.5c0-0.3,0.1-0.5,0.5-0.5c0.1,0,0.8,0.1,1,0.1c1.7,0,1.9-1.6,1.9-2.1c0-1.5-1.1-2.7-1.5-3.2
			c-0.8-0.9-0.9-1-1-1.2c-0.1-0.1-0.1-0.3-0.1-0.4c0-0.2,0-0.4,0.2-0.6c0.3-0.6,1.8-3.2,1.8-3.8c0-0.3-0.4-0.3-0.6-0.3H74
			c-0.5,0-0.6,0.2-0.6,0.6V80.5z"/>
	</g>
	<g id="XMLID_19_" class="st1">
		<rect id="XMLID_38_" x="12" y="8.3" class="st7" width="64" height="45"/>
		<rect id="XMLID_37_" x="52" y="41.2" class="st7" width="17.9" height="12.1"/>
		<rect id="XMLID_36_" x="59.1" y="41.2" class="st9" width="3.9" height="12.1"/>
		<line id="XMLID_35_" class="st7" x1="12" y1="19.1" x2="17.8" y2="8.3"/>
		<line id="XMLID_34_" class="st7" x1="12" y1="29.5" x2="23.3" y2="8.3"/>
		<line id="XMLID_33_" class="st7" x1="12" y1="40.2" x2="29" y2="8.3"/>
		<line id="XMLID_32_" class="st7" x1="12" y1="50.8" x2="34.6" y2="8.3"/>
		<line id="XMLID_31_" class="st7" x1="16.3" y1="53.3" x2="40.2" y2="8.3"/>
		<line id="XMLID_30_" class="st7" x1="22" y1="53.3" x2="45.9" y2="8.3"/>
		<line id="XMLID_29_" class="st7" x1="27.6" y1="53.3" x2="51.5" y2="8.3"/>
		<line id="XMLID_28_" class="st7" x1="33.3" y1="53.3" x2="57.2" y2="8.3"/>
		<line id="XMLID_27_" class="st7" x1="38.9" y1="53.3" x2="62.8" y2="8.3"/>
		<line id="XMLID_26_" class="st7" x1="44.6" y1="53.3" x2="68.5" y2="8.3"/>
		<line id="XMLID_25_" class="st7" x1="56.6" y1="41.2" x2="74.1" y2="8.3"/>
		<line id="XMLID_24_" class="st7" x1="50.2" y1="53.3" x2="52" y2="49.8"/>
		<line id="XMLID_23_" class="st7" x1="62.3" y1="41.2" x2="76" y2="15.3"/>
		<line id="XMLID_22_" class="st7" x1="68" y1="41.2" x2="76" y2="26.1"/>
		<line id="XMLID_21_" class="st7" x1="69.9" y1="48.3" x2="76" y2="36.8"/>
		<line id="XMLID_20_" class="st7" x1="72.9" y1="53.3" x2="76" y2="47.4"/>
	</g>
</g>
<g id="hogakubu" class="st0">
	<g id="XMLID_82_" class="st1">
		<rect id="XMLID_44_" x="18.9" y="64.7" class="st5" width="55.2" height="17.5"/>
		<path class="st6" d="M20,70c0.3,0,1.4,0.7,1.8,1c1,0.7,1,0.8,1,0.9c0,0.2-0.2,0.6-0.5,0.6c-0.2,0-0.3-0.1-0.7-0.5
			c-0.4-0.4-0.9-0.7-1.8-1.2c-0.2-0.1-0.3-0.2-0.3-0.5C19.6,70.2,19.8,70,20,70z M21.6,78.9c-0.3,0.6-0.7,1.2-1.1,1.8
			c-0.1,0.1-0.2,0.2-0.4,0.2c-0.3,0-0.6-0.3-0.6-0.5c0-0.2,0.1-0.3,0.2-0.5c0.5-0.6,1.8-2.6,2.6-4.5c0.1-0.1,0.4-0.9,0.5-1
			c0.1-0.1,0.2-0.1,0.3-0.1c0.2,0,0.5,0.2,0.5,0.4C23.6,75.1,22.6,77.2,21.6,78.9z M20.7,65.7c0.3,0,1.5,0.8,1.8,1
			c1.1,0.7,1.1,0.8,1.1,1c0,0.3-0.2,0.5-0.5,0.5c-0.1,0-0.2-0.1-0.8-0.5c-0.6-0.4-1.2-0.8-1.9-1.2c-0.2-0.1-0.3-0.2-0.3-0.5
			C20.3,65.9,20.5,65.7,20.7,65.7z M24.3,73.6c-0.1,0-0.5,0-0.5-0.4c0-0.4,0.4-0.4,0.5-0.4h4.7V69H25c-0.1,0-0.5,0-0.5-0.4
			c0-0.4,0.4-0.4,0.5-0.4h3.9v-2.4c0-0.2,0-0.5,0.5-0.5c0.5,0,0.5,0.3,0.5,0.5v2.4h4.3c0.1,0,0.5,0,0.5,0.4c0,0.4-0.4,0.4-0.5,0.4
			h-4.3v3.7h4.8c0.2,0,0.5,0,0.5,0.4c0,0.4-0.3,0.4-0.5,0.4h-6c-0.8,2-1.7,3.9-2.7,5.8c1.6-0.1,5.5-0.3,7-0.5
			c-0.6-1-1.2-1.8-1.9-2.7C31,76,31,76,31,75.8c0-0.2,0.3-0.4,0.5-0.4c0.2,0,0.3,0.1,0.8,0.7c0.9,1,1.7,2.3,2.4,3.6
			c0.3,0.5,0.4,0.7,0.4,0.9c0,0.3-0.3,0.5-0.5,0.5c-0.3,0-0.3-0.2-0.4-0.3c-0.2-0.4-0.4-0.8-0.6-1.2c-2.6,0.5-9.1,0.8-9.2,0.8
			c-0.2,0-0.6,0-0.6-0.5c0-0.3,0.2-0.4,0.3-0.4c0.1,0,0.2,0,0.9-0.1c1.4-2.6,2.1-4.1,2.8-5.9H24.3z"/>
		<path class="st6" d="M51.7,75.2c0.1,0,0.5,0,0.5,0.4c0,0.4-0.2,0.4-0.5,0.4h-6.7v3.1c0,1.4-0.6,1.7-1.8,1.7c-0.3,0-2.2,0-2.3,0
			c-0.2-0.1-0.3-0.3-0.3-0.6c0-0.5,0.3-0.5,0.5-0.5c0.1,0,2,0,2,0c0.4,0,1,0,1-0.9V76h-7.1c-0.1,0-0.5,0-0.5-0.4
			c0-0.4,0.4-0.4,0.5-0.4h7.1v-1c0-0.1,0-0.5,0.4-0.5c0.1,0,0.2,0,0.2,0c0.8-0.4,1.5-0.8,2-1.2c0.2-0.1,0.8-0.5,0.8-0.7
			c0-0.2-0.1-0.2-0.4-0.2h-7.5c-0.1,0-0.5,0-0.5-0.4s0.3-0.4,0.5-0.4h7.9c0.5,0,0.6,0,0.7,0.1c0.2,0.1,0.5,0.3,0.5,0.7
			c0,0.5-0.4,0.9-1.7,1.7c-0.4,0.2-1,0.6-2.2,1.2v0.6H51.7z M50.1,68.2c1.2,0,1.7,0.4,1.7,1.7v1.5c0,0.2,0,0.5-0.5,0.5
			c-0.5,0-0.5-0.3-0.5-0.5v-1.5c0-0.6-0.3-0.9-0.9-0.9H39c-0.6,0-0.9,0.3-0.9,0.9v1.5c0,0.2,0,0.5-0.5,0.5c-0.4,0-0.5-0.1-0.5-0.5
			v-1.5c0-1.3,0.4-1.7,1.7-1.7h9.1c0.4-0.6,0.6-1,1.1-2c0.4-0.8,0.4-0.8,0.7-0.8c0.2,0,0.5,0.2,0.5,0.5c0,0.4-1,2.1-1.2,2.3H50.1z
			 M40.6,67.4c0,0.3-0.3,0.4-0.5,0.4c-0.2,0-0.3-0.1-0.5-0.6c-0.2-0.5-0.4-0.7-0.7-1.2c-0.1-0.2-0.2-0.3-0.2-0.4
			c0-0.3,0.4-0.5,0.6-0.4C39.6,65.5,40.6,67.2,40.6,67.4z M44.4,66c0.2,0.3,0.6,1.1,0.6,1.3c0,0.3-0.4,0.4-0.5,0.4
			c-0.2,0-0.3-0.1-0.6-0.6c-0.2-0.3-0.5-0.8-0.7-1.2c-0.1-0.2-0.2-0.3-0.2-0.4c0-0.2,0.2-0.4,0.4-0.4C43.9,65.2,44,65.3,44.4,66z"/>
		<path class="st6" d="M57.7,67.3v-1.5c0-0.2,0-0.5,0.5-0.5c0.5,0,0.5,0.3,0.5,0.5v1.5h3.2c0.1,0,0.5,0,0.5,0.4
			c0,0.4-0.4,0.4-0.5,0.4h-0.9c-0.3,1.7-0.4,1.9-1,3.9h2.2c0.2,0,0.5,0,0.5,0.4c0,0.4-0.3,0.4-0.5,0.4h-8.1c-0.1,0-0.5,0-0.5-0.4
			c0-0.4,0.4-0.4,0.5-0.4h2.1c-0.2-1.2-0.2-1.4-0.8-3.9h-0.9c-0.1,0-0.5,0-0.5-0.4c0-0.4,0.4-0.4,0.5-0.4H57.7z M59.9,74.7
			c1.3,0,1.7,0.4,1.7,1.7V79c0,1.3-0.4,1.7-1.7,1.7h-3.5c-1.3,0-1.7-0.4-1.7-1.7v-2.6c0-1.3,0.4-1.7,1.7-1.7H59.9z M60.7,76.4
			c0-0.6-0.3-0.9-0.9-0.9h-3.3c-0.6,0-0.9,0.3-0.9,0.9V79c0,0.6,0.3,0.9,0.9,0.9h3.3c0.6,0,0.9-0.3,0.9-0.9V76.4z M56.3,68.1
			c0.4,1.5,0.6,2.5,0.8,3.9h2c0.2-0.6,0.6-2,0.9-3.9H56.3z M64.1,80.7c0,0.2,0,0.5-0.5,0.5c-0.5,0-0.5-0.3-0.5-0.5V67.3
			c0-1,0.3-1.4,1.4-1.4H67c0.6,0,0.8,0,1.1,0.1c0.2,0.1,0.5,0.3,0.5,0.9c0,0.6-0.9,2.4-1.2,3.1c-0.1,0.2-0.7,1.3-0.7,1.3
			c0,0.1-0.1,0.1-0.1,0.2c0,0.2,0.1,0.3,0.2,0.3c0.9,0.8,1.4,1.4,1.9,2.5c0.4,0.9,0.5,1.6,0.5,2c0,1.6-1,2.8-2.3,2.9
			c-0.3,0-0.3,0-1.4,0c-0.3,0-0.6,0-0.6-0.5c0-0.3,0.1-0.5,0.5-0.5c0.1,0,0.8,0.1,1,0.1c1.7,0,1.9-1.6,1.9-2.1
			c0-1.5-1.1-2.7-1.5-3.2c-0.8-0.9-0.9-1-1-1.2c-0.1-0.1-0.1-0.3-0.1-0.4c0-0.2,0-0.4,0.2-0.6c0.3-0.6,1.8-3.2,1.8-3.8
			c0-0.3-0.4-0.3-0.6-0.3h-2.2c-0.5,0-0.6,0.2-0.6,0.6V80.7z"/>
	</g>
	<g id="XMLID_50_" class="st1">
		<path id="XMLID_48_" class="st7" d="M17.2,20.5l10.5-2c9.8-1.9,19.9-1.9,29.7,0l10.5,2"/>
		<polyline id="XMLID_47_" class="st7" points="42.6,30.7 51.5,49.3 33.8,49.3 42.6,30.7 42.6,4.3 		"/>
		<rect id="XMLID_46_" x="29" y="49.3" class="st7" width="27.2" height="6"/>
		<line id="XMLID_45_" class="st7" x1="21.8" y1="19.6" x2="16.1" y2="37"/>
		<line id="XMLID_4_" class="st7" x1="21.8" y1="19.6" x2="27.4" y2="37"/>
		<path id="XMLID_43_" class="st7" d="M12.6,37l5.4,1c2.4,0.4,4.9,0.4,7.3,0l5.4-1"/>
		<path id="XMLID_42_" class="st7" d="M30.8,35.3c0,4.3-4.1,6.2-9.1,6.2s-9.1-1.9-9.1-6.2"/>
		<line id="XMLID_41_" class="st7" x1="63.5" y1="19.6" x2="69.2" y2="37"/>
		<line id="XMLID_40_" class="st7" x1="63.5" y1="19.6" x2="57.9" y2="37"/>
		<path id="XMLID_39_" class="st7" d="M72.6,37l-5.4,1c-2.4,0.4-4.9,0.4-7.3,0l-5.4-1"/>
		<path id="XMLID_3_" class="st7" d="M54.4,35.3c0,4.3,4.1,6.2,9.1,6.2s9.1-1.9,9.1-6.2"/>
	</g>
</g>
<g id="keizaigakubu" class="st0">
	<g id="XMLID_84_" class="st1">
		<rect id="XMLID_5_" x="7.2" y="64.3" class="st5" width="71.2" height="17.5"/>
		<path class="st6" d="M10.7,73.1c-0.6,0-1.7,0.1-2.2,0.1c-0.4,0-0.7,0-0.7-0.5c0-0.2,0.1-0.4,0.4-0.4c0.2,0,0.9,0,1.1,0
			c0.2-0.2,0.4-0.5,1-1.4C9.5,70,8.5,69.2,8,68.7c-0.2-0.1-0.2-0.2-0.2-0.3C7.8,68.2,8,68,8.2,68s0.3,0.1,0.6,0.4
			c0.6-0.8,1.2-2,1.3-2.3c0.4-0.9,0.5-1,0.8-1c0.1,0,0.5,0.1,0.5,0.4c0,0.4-1.6,3-2,3.5c0.4,0.4,0.9,0.8,1.2,1.2
			c0.9-1.4,1-1.6,2-3.3c0.1-0.1,0.2-0.3,0.4-0.3c0.1,0,0.5,0.1,0.5,0.4c0,0.4-2.2,3.9-3.2,5.2c0.5,0,1.9-0.1,2.5-0.1
			c-0.2-0.5-0.4-1-0.4-1.1c0-0.2,0.2-0.4,0.4-0.4c0.2,0,0.3,0.1,0.6,0.8c0.2,0.4,0.5,1.4,0.5,1.7c0,0.4-0.4,0.4-0.5,0.4
			c-0.3,0-0.3-0.1-0.5-0.6C12.3,73,11.9,73,11.6,73v7c0,0.2,0,0.5-0.4,0.5c-0.4,0-0.4-0.3-0.4-0.5V73.1z M9.6,75
			c0,0.5-0.3,2.2-0.6,3.1c-0.3,0.9-0.4,1.2-0.7,1.2c-0.1,0-0.5-0.1-0.5-0.4c0-0.1,0.4-1.3,0.5-1.5c0.2-1,0.4-1.9,0.4-2.4
			c0-0.2,0.1-0.5,0.4-0.5C9.4,74.6,9.6,74.7,9.6,75z M13.7,75.4c0.4,1,0.6,2,0.6,2.2c0,0.3-0.3,0.4-0.5,0.4c-0.3,0-0.3-0.1-0.5-1
			c-0.2-0.6-0.2-1-0.4-1.4c-0.1-0.4-0.2-0.7-0.2-0.7c0-0.3,0.3-0.4,0.4-0.4C13.4,74.5,13.4,74.5,13.7,75.4z M19.3,79.1h3.9
			c0.1,0,0.5,0,0.5,0.4s-0.4,0.4-0.5,0.4h-8.9c-0.1,0-0.5,0-0.5-0.4s0.4-0.4,0.5-0.4h4.1v-3.3h-3.1c-0.2,0-0.5,0-0.5-0.4
			c0-0.4,0.3-0.4,0.5-0.4h3.1v-1.6c0-0.2,0-0.5,0.4-0.5c0.4,0,0.5,0.2,0.5,0.5v1.6h3.2c0.1,0,0.5,0,0.5,0.4c0,0.4-0.3,0.4-0.5,0.4
			h-3.2V79.1z M14.8,66.5c-0.1,0-0.5,0-0.5-0.4c0-0.4,0.4-0.4,0.5-0.4h5.8c0.7,0,0.9,0,1.2,0.2c0.3,0.2,0.5,0.5,0.5,0.9
			c0,0.6-0.9,2.3-2.9,4.1c1,0.6,1.8,1,3.8,1.7c0.1,0,0.4,0.1,0.4,0.3c0,0.2-0.2,0.6-0.5,0.6c-0.2,0-2.8-0.8-4.4-2
			c-1.5,1.2-3.7,2.1-3.9,2.1c-0.3,0-0.5-0.3-0.5-0.5c0-0.3,0.2-0.3,0.4-0.4c1.6-0.6,2.4-1,3.3-1.7c-1.8-1.6-2.5-3.3-2.5-3.5
			c0-0.3,0.3-0.4,0.5-0.4c0.2,0,0.3,0.1,0.4,0.3c0.7,1.4,1.5,2.3,2.3,3.1c1.7-1.5,2.6-3.1,2.6-3.4c0-0.4-0.3-0.4-0.8-0.4H14.8z"/>
		<path class="st6" d="M27,70.7c0.8,0.6,0.8,0.7,0.8,0.8c0,0.3-0.3,0.6-0.5,0.6c-0.1,0-0.2-0.1-0.7-0.5c-0.5-0.4-0.8-0.6-1.5-1
			c-0.2-0.1-0.3-0.2-0.3-0.4c0-0.2,0.2-0.5,0.4-0.5C25.6,69.7,26.6,70.4,27,70.7z M28.1,75.9c-0.5,1.2-1.3,2.8-1.9,3.6
			c-0.3,0.5-0.5,0.7-0.7,0.7c-0.3,0-0.6-0.3-0.6-0.5c0-0.2,0-0.2,0.5-0.9c1.1-1.5,1.9-3.3,2.1-4c0.1-0.2,0.1-0.3,0.4-0.3
			c0.3,0,0.5,0.3,0.5,0.4C28.4,75.2,28.4,75.3,28.1,75.9z M28,66.1c0.6,0.4,0.7,0.5,0.7,0.7c0,0.2-0.2,0.6-0.5,0.6
			c-0.1,0-0.2,0-0.7-0.4c-0.3-0.2-1-0.6-1.5-1c-0.2-0.1-0.2-0.2-0.2-0.3c0-0.3,0.2-0.5,0.5-0.5C26.4,65.1,27.1,65.5,28,66.1z
			 M29.6,67.2c-0.1,0-0.5,0-0.5-0.4c0-0.4,0.4-0.4,0.5-0.4h4.7v-1.1c0-0.2,0-0.5,0.5-0.5c0.5,0,0.5,0.3,0.5,0.5v1.1h4.7
			c0.1,0,0.5,0,0.5,0.4c0,0.4-0.3,0.4-0.5,0.4h-1.3c-0.9,1.5-1.9,2.4-3,3.1c1.3,0.5,2.4,0.8,4.3,1.1c0.3,0.1,0.5,0.1,0.5,0.4
			c0,0.2-0.1,0.6-0.5,0.6c-0.2,0-3.1-0.6-5.2-1.6c-2.3,1.2-5.1,1.6-5.5,1.6c-0.4,0-0.5-0.4-0.5-0.5c0-0.4,0.3-0.4,0.5-0.4
			c1.9-0.2,3.3-0.6,4.6-1.2c-0.8-0.5-2-1.5-2.9-3.1H29.6z M38,73.4v-0.5c0-0.2,0-0.5,0.5-0.5c0.5,0,0.5,0.3,0.5,0.5v7.3
			c0,0.2,0,0.5-0.5,0.5c-0.4,0-0.5-0.1-0.5-0.5V77h-6.6c-0.2,1.1-0.6,2.2-1.3,3.1c-0.4,0.5-0.5,0.6-0.6,0.6c-0.3,0-0.5-0.3-0.5-0.5
			c0-0.2,0.1-0.2,0.2-0.4c0.6-0.7,1.1-1.8,1.3-2.5c0.2-0.8,0.2-1.6,0.2-2v-2.3c0-0.1,0-0.5,0.5-0.5s0.5,0.4,0.5,0.5v0.5H38z
			 M31.6,74.2v1.1c0,0.2,0,0.6-0.1,0.9H38v-2H31.6z M32.1,67.2c0.7,1.2,1.5,2,2.7,2.6c1.9-1.1,2.5-2.1,2.8-2.6H32.1z"/>
		<path class="st6" d="M57,74.7c0.1,0,0.5,0,0.5,0.4c0,0.4-0.2,0.4-0.5,0.4h-6.7v3.1c0,1.4-0.6,1.7-1.8,1.7c-0.3,0-2.2,0-2.3,0
			c-0.2-0.1-0.3-0.3-0.3-0.6c0-0.5,0.3-0.5,0.5-0.5c0.1,0,2,0,2,0c0.4,0,1,0,1-0.9v-2.9h-7.1c-0.1,0-0.5,0-0.5-0.4
			c0-0.4,0.4-0.4,0.5-0.4h7.1v-1c0-0.1,0-0.5,0.4-0.5c0.1,0,0.2,0,0.2,0c0.8-0.4,1.5-0.8,2-1.2c0.2-0.1,0.8-0.5,0.8-0.7
			c0-0.2-0.1-0.2-0.4-0.2H45c-0.1,0-0.5,0-0.5-0.4s0.3-0.4,0.5-0.4h7.9c0.5,0,0.6,0,0.7,0.1c0.2,0.1,0.5,0.3,0.5,0.7
			c0,0.5-0.4,0.9-1.7,1.7c-0.4,0.2-1,0.6-2.2,1.2v0.6H57z M55.4,67.7c1.2,0,1.7,0.4,1.7,1.7v1.5c0,0.2,0,0.5-0.5,0.5
			s-0.5-0.3-0.5-0.5v-1.5c0-0.6-0.3-0.9-0.9-0.9h-11c-0.6,0-0.9,0.3-0.9,0.9v1.5c0,0.2,0,0.5-0.5,0.5c-0.4,0-0.5-0.1-0.5-0.5v-1.5
			c0-1.3,0.4-1.7,1.7-1.7h9.1c0.4-0.6,0.6-1,1.1-2c0.4-0.8,0.4-0.8,0.7-0.8c0.2,0,0.5,0.2,0.5,0.5c0,0.4-1,2.1-1.2,2.3H55.4z
			 M45.8,67c0,0.3-0.3,0.4-0.5,0.4c-0.2,0-0.3-0.1-0.5-0.6c-0.2-0.5-0.4-0.7-0.7-1.2c-0.1-0.2-0.2-0.3-0.2-0.4
			c0-0.3,0.4-0.5,0.6-0.4C44.9,65,45.8,66.7,45.8,67z M49.7,65.5c0.2,0.3,0.6,1.1,0.6,1.3c0,0.3-0.4,0.4-0.5,0.4
			c-0.2,0-0.3-0.1-0.6-0.6c-0.2-0.3-0.5-0.8-0.7-1.2c-0.1-0.2-0.2-0.3-0.2-0.4c0-0.2,0.2-0.4,0.4-0.4C49.2,64.7,49.3,64.9,49.7,65.5
			z"/>
		<path class="st6" d="M62.9,66.8v-1.5c0-0.2,0-0.5,0.5-0.5c0.5,0,0.5,0.3,0.5,0.5v1.5h3.2c0.1,0,0.5,0,0.5,0.4
			c0,0.4-0.4,0.4-0.5,0.4h-0.9c-0.3,1.7-0.4,1.9-1,3.9h2.2c0.2,0,0.5,0,0.5,0.4c0,0.4-0.3,0.4-0.5,0.4h-8.1c-0.1,0-0.5,0-0.5-0.4
			c0-0.4,0.4-0.4,0.5-0.4h2.1c-0.2-1.2-0.2-1.4-0.8-3.9h-0.9c-0.1,0-0.5,0-0.5-0.4c0-0.4,0.4-0.4,0.5-0.4H62.9z M65.2,74.2
			c1.3,0,1.7,0.4,1.7,1.7v2.6c0,1.3-0.4,1.7-1.7,1.7h-3.5c-1.3,0-1.7-0.4-1.7-1.7v-2.6c0-1.3,0.4-1.7,1.7-1.7H65.2z M65.9,75.9
			c0-0.6-0.3-0.9-0.9-0.9h-3.3c-0.6,0-0.9,0.3-0.9,0.9v2.6c0,0.6,0.3,0.9,0.9,0.9h3.3c0.6,0,0.9-0.3,0.9-0.9V75.9z M61.6,67.6
			c0.4,1.5,0.6,2.5,0.8,3.9h2c0.2-0.6,0.6-2,0.9-3.9H61.6z M69.4,80.2c0,0.2,0,0.5-0.5,0.5s-0.5-0.3-0.5-0.5V66.8
			c0-1,0.3-1.4,1.4-1.4h2.4c0.6,0,0.8,0,1.1,0.1c0.2,0.1,0.5,0.3,0.5,0.9c0,0.6-0.9,2.4-1.2,3.1c-0.1,0.2-0.7,1.3-0.7,1.3
			c0,0.1-0.1,0.1-0.1,0.2c0,0.2,0.1,0.3,0.2,0.3c0.9,0.8,1.4,1.4,1.9,2.5c0.4,0.9,0.5,1.6,0.5,2c0,1.6-1,2.8-2.3,2.9
			c-0.3,0-0.3,0-1.4,0c-0.3,0-0.6,0-0.6-0.5c0-0.3,0.1-0.5,0.5-0.5c0.1,0,0.9,0.1,1,0.1c1.7,0,1.9-1.6,1.9-2.1
			c0-1.5-1.1-2.7-1.5-3.2c-0.8-0.9-0.9-1-1-1.2c-0.1-0.1-0.1-0.3-0.1-0.4c0-0.2,0-0.4,0.2-0.6c0.3-0.6,1.8-3.2,1.8-3.8
			c0-0.3-0.4-0.3-0.6-0.3h-2.2c-0.5,0-0.6,0.2-0.6,0.6V80.2z"/>
	</g>
	<g id="XMLID_55_" class="st1">
		<g id="XMLID_58_">
			<rect id="XMLID_53_" x="10.4" y="14.8" class="st7" width="60.1" height="35.6"/>
			<ellipse id="XMLID_52_" class="st7" cx="59.8" cy="42.8" rx="14.6" ry="15.3"/>
		</g>
		<g id="XMLID_51_">
			<path class="st7" d="M32.6,46.6h-2.3V39h-6.8v-1.5h6.8v-3.4h-6.8v-1.5h6L22,19.8h2.6l5.3,9.5c0.7,1.4,1.2,2.3,1.7,3.5h0.2
				c0.4-1,1-2.2,1.8-3.5l5.5-9.4h2.6l-8,12.9h6v1.5h-6.9v3.4h6.9V39h-6.9V46.6z"/>
		</g>
		<g id="XMLID_49_">
			<path class="st7" d="M61.1,52.2h-1.3v-2.8C55.4,49,54,45.9,54,42.9c0-3.6,2.4-6.2,5.8-6.7v-2.8h1.3v2.8c1.5,0,2.7,0.4,3.3,0.7
				l-0.5,1.1c-0.6-0.3-1.7-0.8-3.2-0.8c-3.2,0-5.1,2.6-5.1,5.5c0,3.3,2.1,5.4,4.9,5.4c1.7,0,2.8-0.5,3.5-0.8l0.4,1
				c-0.5,0.3-1.8,0.8-3.3,0.9V52.2z"/>
		</g>
	</g>
</g>
<g id="zyohogakubu" class="st0">
	<g id="XMLID_86_" class="st1">
		<rect id="XMLID_7_" x="8" y="64.3" class="st5" width="69.1" height="17.5"/>
		<path class="st6" d="M10,68.7c0,0.2-0.1,1.6-0.4,3.1C9.3,72.9,9.2,73,8.9,73c-0.2,0-0.5-0.2-0.5-0.4c0-0.1,0.3-1.2,0.4-1.4
			c0.2-1,0.3-1.9,0.4-2.4c0-0.2,0-0.5,0.5-0.4C10,68.3,10,68.6,10,68.7z M11.8,80.3c0,0.1,0,0.5-0.4,0.5c-0.3,0-0.5-0.1-0.5-0.5v-15
			c0-0.2,0-0.5,0.5-0.5c0.4,0,0.5,0.3,0.5,0.5V80.3z M13.5,68.6c0.1,0.3,0.4,1,0.4,1.2c0,0.3-0.3,0.4-0.5,0.4
			c-0.3,0-0.3-0.1-0.5-0.6c-0.1-0.2-0.5-1.2-0.5-1.3c0-0.2,0.2-0.4,0.4-0.4C13.1,67.9,13.2,68,13.5,68.6z M23.4,66.1
			c0.1,0,0.5,0,0.5,0.4c0,0.4-0.3,0.4-0.5,0.4h-3.9v1.4h3.6c0.1,0,0.5,0,0.5,0.4s-0.3,0.4-0.5,0.4h-3.6v1.5h4.2c0.2,0,0.5,0,0.5,0.4
			c0,0.3-0.2,0.4-0.5,0.4h-9.6c-0.1,0-0.5,0-0.5-0.4c0-0.3,0.3-0.4,0.5-0.4h4.4v-1.5h-3.7c-0.3,0-0.5-0.1-0.5-0.4
			c0-0.3,0.1-0.4,0.5-0.4h3.7v-1.4h-4c-0.3,0-0.5-0.1-0.5-0.4c0-0.2,0.1-0.4,0.5-0.4h4v-0.8c0-0.1,0-0.5,0.4-0.5
			c0.5,0,0.5,0.4,0.5,0.5v0.8H23.4z M15.7,77.4v2.9c0,0.2,0,0.5-0.5,0.5c-0.4,0-0.4-0.2-0.4-0.5v-6.4c0-1,0.3-1.4,1.4-1.4H22
			c1,0,1.4,0.4,1.4,1.4V79c0,0.8-0.2,1.4-1.2,1.4h-1.5c-0.3,0-0.7,0-0.7-0.5c0-0.5,0.3-0.5,0.5-0.5h1.4c0.4,0,0.6-0.3,0.6-0.6v-1.4
			H15.7z M22.5,74.5v-0.6c0-0.4-0.2-0.6-0.6-0.6h-5.5c-0.4,0-0.6,0.2-0.6,0.6v0.6H22.5z M22.5,75.3h-6.8v1.3h6.8V75.3z"/>
		<path class="st6" d="M32.9,66.7c0.2,0,0.5,0,0.5,0.4c0,0.4-0.2,0.4-0.5,0.4h-2.7v2.1h3.2c0.1,0,0.5,0,0.5,0.4
			c0,0.4-0.3,0.4-0.5,0.4h-0.8c-0.2,0.9-0.5,1.9-0.7,2.6h1.4c0.1,0,0.5,0,0.5,0.4c0,0.4-0.3,0.4-0.5,0.4h-3.1v2.4h2.7
			c0.1,0,0.5,0,0.5,0.4c0,0.4-0.4,0.4-0.5,0.4h-2.7v3c0,0.2,0,0.5-0.4,0.5c-0.4,0-0.5-0.3-0.5-0.5v-3h-2.7c-0.2,0-0.5,0-0.5-0.4
			c0-0.4,0.2-0.4,0.5-0.4h2.7v-2.4h-3.1c-0.1,0-0.5,0-0.5-0.4c0-0.4,0.3-0.4,0.5-0.4h1.6c-0.2-0.7-0.6-2-0.8-2.6h-0.9
			c-0.1,0-0.5,0-0.5-0.4c0-0.4,0.4-0.4,0.5-0.4h3.2v-2.1h-2.7c-0.1,0-0.5,0-0.5-0.4c0-0.3,0.1-0.5,0.5-0.5h2.7v-1.3
			c0-0.1,0-0.5,0.4-0.5c0.4,0,0.5,0.3,0.5,0.5v1.3H32.9z M31,73.1c0.2-0.3,0.6-1.9,0.6-2.6h-3.7c0.1,0.3,0.7,2.2,0.8,2.6H31z
			 M35.2,72.2v7.9c0,0.2,0,0.5-0.5,0.5c-0.4,0-0.4-0.2-0.4-0.5V67.2c0-1.2,0.4-1.7,1.7-1.7h3.2c0.9,0,1.4,0.2,1.4,1.2
			c0,0.4-0.1,2.2-0.5,2.9c-0.3,0.7-0.7,0.7-2.6,0.7c-0.4,0-0.7,0-0.7-0.5c0-0.4,0.4-0.4,0.5-0.4c0.2,0,1.2,0,1.4,0
			c0.4,0,0.6-0.3,0.7-0.7c0.1-0.3,0.2-1.3,0.2-1.7c0-0.4-0.2-0.6-0.7-0.6h-2.9c-0.6,0-0.9,0.3-0.9,0.9v4.1h4c0.6,0,1.5,0,1.5,1.1
			c0,0.5-0.4,2.8-1.8,5.1c0.5,0.5,0.9,1,2,1.8c0.1,0.1,0.3,0.3,0.3,0.5c0,0.3-0.3,0.5-0.5,0.5c-0.5,0-1.9-1.6-2.3-2.1
			c-0.8,1.1-1.8,2-2.1,2c-0.3,0-0.5-0.3-0.5-0.5c0-0.2,0.1-0.3,0.3-0.4c1-0.8,1.5-1.4,1.8-1.8c-1.2-1.5-2-3.8-2-4.1
			c0-0.3,0.3-0.4,0.4-0.4c0.3,0,0.4,0.3,0.4,0.4c0.4,1.2,0.9,2.3,1.7,3.3c0.4-0.7,1-1.7,1.4-3.4c0.1-0.4,0.1-0.6,0.1-0.8
			c0-0.4-0.4-0.5-0.7-0.5H35.2z"/>
		<path class="st6" d="M57.8,74.7c0.1,0,0.5,0,0.5,0.4c0,0.4-0.2,0.4-0.5,0.4h-6.7v3.1c0,1.4-0.6,1.7-1.8,1.7c-0.3,0-2.2,0-2.3,0
			c-0.2-0.1-0.3-0.3-0.3-0.6c0-0.5,0.3-0.5,0.5-0.5c0.1,0,2,0,2,0c0.4,0,1,0,1-0.9v-2.9h-7.1c-0.1,0-0.5,0-0.5-0.4
			c0-0.4,0.4-0.4,0.5-0.4h7.1v-1c0-0.1,0-0.5,0.4-0.5c0.1,0,0.2,0,0.2,0c0.8-0.4,1.5-0.8,2-1.2c0.2-0.1,0.8-0.5,0.8-0.7
			c0-0.2-0.1-0.2-0.4-0.2h-7.5c-0.1,0-0.5,0-0.5-0.4s0.3-0.4,0.5-0.4h7.9c0.5,0,0.6,0,0.7,0.1c0.2,0.1,0.5,0.3,0.5,0.7
			c0,0.5-0.4,0.9-1.7,1.7c-0.4,0.2-1,0.6-2.2,1.2v0.6H57.8z M56.2,67.7c1.2,0,1.7,0.4,1.7,1.7v1.5c0,0.2,0,0.5-0.5,0.5
			s-0.5-0.3-0.5-0.5v-1.5c0-0.6-0.3-0.9-0.9-0.9H45c-0.6,0-0.9,0.3-0.9,0.9v1.5c0,0.2,0,0.5-0.5,0.5c-0.4,0-0.5-0.1-0.5-0.5v-1.5
			c0-1.3,0.4-1.7,1.7-1.7h9.1c0.4-0.6,0.6-1,1.1-2c0.4-0.8,0.4-0.8,0.7-0.8c0.2,0,0.5,0.2,0.5,0.5c0,0.4-1,2.1-1.2,2.3H56.2z
			 M46.6,67c0,0.3-0.3,0.4-0.5,0.4c-0.2,0-0.3-0.1-0.5-0.6c-0.2-0.5-0.4-0.7-0.7-1.2c-0.1-0.2-0.2-0.3-0.2-0.4
			c0-0.3,0.4-0.5,0.6-0.4C45.6,65,46.6,66.7,46.6,67z M50.5,65.5c0.2,0.3,0.6,1.1,0.6,1.3c0,0.3-0.4,0.4-0.5,0.4
			c-0.2,0-0.3-0.1-0.6-0.6c-0.2-0.3-0.5-0.8-0.7-1.2c-0.1-0.2-0.2-0.3-0.2-0.4c0-0.2,0.2-0.4,0.4-0.4C50,64.7,50.1,64.9,50.5,65.5z"
			/>
		<path class="st6" d="M63.7,66.8v-1.5c0-0.2,0-0.5,0.5-0.5c0.5,0,0.5,0.3,0.5,0.5v1.5h3.2c0.1,0,0.5,0,0.5,0.4
			c0,0.4-0.4,0.4-0.5,0.4H67c-0.3,1.7-0.4,1.9-1,3.9h2.2c0.2,0,0.5,0,0.5,0.4c0,0.4-0.3,0.4-0.5,0.4h-8.1c-0.1,0-0.5,0-0.5-0.4
			c0-0.4,0.4-0.4,0.5-0.4h2.1c-0.2-1.2-0.2-1.4-0.8-3.9h-0.9c-0.1,0-0.5,0-0.5-0.4c0-0.4,0.4-0.4,0.5-0.4H63.7z M65.9,74.2
			c1.3,0,1.7,0.4,1.7,1.7v2.6c0,1.3-0.4,1.7-1.7,1.7h-3.5c-1.3,0-1.7-0.4-1.7-1.7v-2.6c0-1.3,0.4-1.7,1.7-1.7H65.9z M66.7,75.9
			c0-0.6-0.3-0.9-0.9-0.9h-3.3c-0.6,0-0.9,0.3-0.9,0.9v2.6c0,0.6,0.3,0.9,0.9,0.9h3.3c0.6,0,0.9-0.3,0.9-0.9V75.9z M62.3,67.6
			c0.4,1.5,0.6,2.5,0.8,3.9h2c0.2-0.6,0.6-2,0.9-3.9H62.3z M70.2,80.2c0,0.2,0,0.5-0.5,0.5s-0.5-0.3-0.5-0.5V66.8
			c0-1,0.3-1.4,1.4-1.4H73c0.6,0,0.8,0,1.1,0.1c0.2,0.1,0.5,0.3,0.5,0.9c0,0.6-0.9,2.4-1.2,3.1c-0.1,0.2-0.7,1.3-0.7,1.3
			c0,0.1-0.1,0.1-0.1,0.2c0,0.2,0.1,0.3,0.2,0.3c0.9,0.8,1.4,1.4,1.9,2.5c0.4,0.9,0.5,1.6,0.5,2c0,1.6-1,2.8-2.3,2.9
			c-0.3,0-0.3,0-1.4,0c-0.3,0-0.6,0-0.6-0.5c0-0.3,0.1-0.5,0.5-0.5c0.1,0,0.9,0.1,1,0.1c1.7,0,1.9-1.6,1.9-2.1
			c0-1.5-1.1-2.7-1.5-3.2c-0.8-0.9-0.9-1-1-1.2c-0.1-0.1-0.1-0.3-0.1-0.4c0-0.2,0-0.4,0.2-0.6c0.3-0.6,1.8-3.2,1.8-3.8
			c0-0.3-0.4-0.3-0.6-0.3h-2.2c-0.5,0-0.6,0.2-0.6,0.6V80.2z"/>
	</g>
	<g id="XMLID_60_" class="st1">
		<rect id="XMLID_57_" x="18.7" y="5.8" class="st10" width="44.7" height="32.7"/>
		<polygon id="XMLID_56_" class="st10" points="70.2,54.5 62.7,39.8 19.4,39.8 11.2,54.9 		"/>
		<rect id="XMLID_54_" x="24.6" y="11.7" class="st10" width="32.9" height="20.9"/>
	</g>
</g>
<g id="rigakubu" class="st0">
	<g id="XMLID_88_" class="st1">
		<rect id="XMLID_9_" x="14.7" y="64.3" class="st5" width="55.2" height="17.5"/>
		<path class="st6" d="M17.8,72h-1.7c-0.1,0-0.5,0-0.5-0.4c0-0.4,0.4-0.4,0.5-0.4h1.7v-4.4h-1.9c-0.1,0-0.5,0-0.5-0.4
			c0-0.4,0.4-0.4,0.5-0.4h4.6c0.1,0,0.5,0,0.5,0.4c0,0.4-0.4,0.4-0.5,0.4h-1.7v4.4h1.4c0.1,0,0.5,0,0.5,0.4S20.3,72,20.1,72h-1.4
			v5.1c0.7-0.2,1.2-0.4,1.5-0.5c0.2-0.1,0.3-0.1,0.4-0.1c0.3,0,0.4,0.3,0.4,0.4c0,0.3-0.1,0.4-1.3,0.8c-2.9,0.9-3.8,1-4,1
			c-0.3,0-0.4-0.3-0.4-0.5c0-0.3,0.2-0.4,0.3-0.4c0.3-0.1,1.9-0.4,2.2-0.5V72z M26.4,75.5h3.8c0.1,0,0.5,0,0.5,0.4
			c0,0.4-0.4,0.4-0.5,0.4h-3.8v3h4.2c0.1,0,0.5,0,0.5,0.4c0,0.4-0.4,0.4-0.5,0.4h-9.8c-0.1,0-0.5,0-0.5-0.4c0-0.4,0.4-0.4,0.5-0.4
			h4.7v-3h-3.7c-0.1,0-0.5,0-0.5-0.4c0-0.4,0.4-0.4,0.5-0.4h3.7v-2.3h-2.3c-1.3,0-1.7-0.4-1.7-1.7v-4.4c0-1.3,0.4-1.7,1.7-1.7h5.6
			c1.2,0,1.7,0.4,1.7,1.7v4.4c0,1.3-0.4,1.7-1.7,1.7h-2.4V75.5z M25.5,68.9v-2.7h-2.2c-0.6,0-0.9,0.3-0.9,0.9v1.8H25.5z M25.5,69.7
			h-3.1v1.8c0,0.6,0.3,0.9,0.9,0.9h2.2V69.7z M26.4,68.9h3.2v-1.8c0-0.6-0.3-0.9-0.9-0.9h-2.3V68.9z M26.4,69.7v2.7h2.3
			c0.6,0,0.9-0.3,0.9-0.9v-1.8H26.4z"/>
		<path class="st6" d="M47.5,74.7c0.1,0,0.5,0,0.5,0.4c0,0.4-0.2,0.4-0.5,0.4h-6.7v3.1c0,1.4-0.6,1.7-1.8,1.7c-0.3,0-2.2,0-2.3,0
			c-0.2-0.1-0.3-0.3-0.3-0.6c0-0.5,0.3-0.5,0.5-0.5c0.1,0,2,0,2,0c0.4,0,1,0,1-0.9v-2.9h-7.1c-0.1,0-0.5,0-0.5-0.4
			c0-0.4,0.4-0.4,0.5-0.4h7.1v-1c0-0.1,0-0.5,0.4-0.5c0.1,0,0.2,0,0.2,0c0.8-0.4,1.5-0.8,2-1.2c0.2-0.1,0.8-0.5,0.8-0.7
			c0-0.2-0.1-0.2-0.4-0.2h-7.5c-0.1,0-0.5,0-0.5-0.4s0.3-0.4,0.5-0.4h7.9c0.5,0,0.6,0,0.7,0.1c0.2,0.1,0.5,0.3,0.5,0.7
			c0,0.5-0.4,0.9-1.7,1.7c-0.4,0.2-1,0.6-2.2,1.2v0.6H47.5z M45.9,67.7c1.2,0,1.7,0.4,1.7,1.7v1.5c0,0.2,0,0.5-0.5,0.5
			s-0.5-0.3-0.5-0.5v-1.5c0-0.6-0.3-0.9-0.9-0.9h-11c-0.6,0-0.9,0.3-0.9,0.9v1.5c0,0.2,0,0.5-0.5,0.5c-0.4,0-0.5-0.1-0.5-0.5v-1.5
			c0-1.3,0.4-1.7,1.7-1.7h9.1c0.4-0.6,0.6-1,1.1-2c0.4-0.8,0.4-0.8,0.7-0.8c0.2,0,0.5,0.2,0.5,0.5c0,0.4-1,2.1-1.2,2.3H45.9z
			 M36.4,67c0,0.3-0.3,0.4-0.5,0.4c-0.2,0-0.3-0.1-0.5-0.6c-0.2-0.5-0.4-0.7-0.7-1.2c-0.1-0.2-0.2-0.3-0.2-0.4
			c0-0.3,0.4-0.5,0.6-0.4C35.4,65,36.4,66.7,36.4,67z M40.2,65.5c0.2,0.3,0.6,1.1,0.6,1.3c0,0.3-0.4,0.4-0.5,0.4
			c-0.2,0-0.3-0.1-0.6-0.6c-0.2-0.3-0.5-0.8-0.7-1.2C39,65.4,39,65.3,39,65.2c0-0.2,0.2-0.4,0.4-0.4C39.7,64.7,39.8,64.9,40.2,65.5z
			"/>
		<path class="st6" d="M53.5,66.8v-1.5c0-0.2,0-0.5,0.5-0.5c0.5,0,0.5,0.3,0.5,0.5v1.5h3.2c0.1,0,0.5,0,0.5,0.4
			c0,0.4-0.4,0.4-0.5,0.4h-0.9c-0.3,1.7-0.4,1.9-1,3.9H58c0.2,0,0.5,0,0.5,0.4c0,0.4-0.3,0.4-0.5,0.4h-8.1c-0.1,0-0.5,0-0.5-0.4
			c0-0.4,0.4-0.4,0.5-0.4h2.1c-0.2-1.2-0.2-1.4-0.8-3.9h-0.9c-0.1,0-0.5,0-0.5-0.4c0-0.4,0.4-0.4,0.5-0.4H53.5z M55.7,74.2
			c1.3,0,1.7,0.4,1.7,1.7v2.6c0,1.3-0.4,1.7-1.7,1.7h-3.5c-1.3,0-1.7-0.4-1.7-1.7v-2.6c0-1.3,0.4-1.7,1.7-1.7H55.7z M56.5,75.9
			c0-0.6-0.3-0.9-0.9-0.9h-3.3c-0.6,0-0.9,0.3-0.9,0.9v2.6c0,0.6,0.3,0.9,0.9,0.9h3.3c0.6,0,0.9-0.3,0.9-0.9V75.9z M52.1,67.6
			c0.4,1.5,0.6,2.5,0.8,3.9h2c0.2-0.6,0.6-2,0.9-3.9H52.1z M59.9,80.2c0,0.2,0,0.5-0.5,0.5S59,80.4,59,80.2V66.8
			c0-1,0.3-1.4,1.4-1.4h2.4c0.6,0,0.8,0,1.1,0.1c0.2,0.1,0.5,0.3,0.5,0.9c0,0.6-0.9,2.4-1.2,3.1c-0.1,0.2-0.7,1.3-0.7,1.3
			c0,0.1-0.1,0.1-0.1,0.2c0,0.2,0.1,0.3,0.2,0.3c0.9,0.8,1.4,1.4,1.9,2.5c0.4,0.9,0.5,1.6,0.5,2c0,1.6-1,2.8-2.3,2.9
			c-0.3,0-0.3,0-1.4,0c-0.3,0-0.6,0-0.6-0.5c0-0.3,0.1-0.5,0.5-0.5c0.1,0,0.9,0.1,1,0.1c1.7,0,1.9-1.6,1.9-2.1
			c0-1.5-1.1-2.7-1.5-3.2c-0.8-0.9-0.9-1-1-1.2c-0.1-0.1-0.1-0.3-0.1-0.4c0-0.2,0-0.4,0.2-0.6c0.3-0.6,1.8-3.2,1.8-3.8
			c0-0.3-0.4-0.3-0.6-0.3h-2.2c-0.5,0-0.6,0.2-0.6,0.6V80.2z"/>
	</g>
	<g id="XMLID_61_" class="st1">
		<ellipse id="XMLID_66_" class="st7" cx="40.2" cy="30.4" rx="9" ry="26.5"/>
		<path id="XMLID_65_" class="st7" d="M44.7,23.9C59.1,31.2,68.8,40.2,66.3,44c-2.5,3.8-16.2,0.9-30.6-6.4S11.6,21.2,14.1,17.5
			S30.3,16.6,44.7,23.9z"/>
		<path id="XMLID_64_" class="st7" d="M35.7,23.9c14.4-7.3,28.1-10.2,30.6-6.4c2.5,3.8-7.2,12.8-21.6,20.1S16.6,47.7,14.1,44
			C11.6,40.2,21.3,31.2,35.7,23.9z"/>
		<ellipse id="XMLID_63_" class="st7" cx="40.3" cy="30.8" rx="3.4" ry="3"/>
	</g>
</g>
<g id="igakubu" class="st0">
	<g id="XMLID_92_" class="st1">
		<rect id="XMLID_62_" x="14.9" y="64.3" class="st5" width="55.2" height="17.5"/>
		<path class="st6" d="M30.4,65.7c0.2,0,0.5,0,0.5,0.4c0,0.4-0.3,0.4-0.5,0.4H18.4c-0.8,0-1.2,0.4-1.2,1.2v10.6
			c0,0.8,0.3,1.2,1.2,1.2h12.3c0.1,0,0.5,0,0.5,0.4s-0.3,0.4-0.5,0.4H18.4c-1.6,0-2.1-0.5-2.1-2.1V67.8c0-1.6,0.5-2.1,2.1-2.1H30.4z
			 M29.8,72.8c0.1,0,0.5,0,0.5,0.4c0,0.4-0.3,0.4-0.5,0.4h-4.7c0.9,1.7,2.5,2.9,4.3,3.6c0.1,0.1,0.8,0.3,0.9,0.4
			c0.1,0.1,0.1,0.2,0.1,0.2c0,0.2-0.1,0.6-0.5,0.6c-0.3,0-1.5-0.6-2.5-1.3c-2.3-1.5-3-3.1-3.2-3.6h-0.1c-1.3,3.7-5.1,4.8-5.5,4.8
			c-0.3,0-0.5-0.4-0.5-0.5c0-0.2,0.2-0.3,0.4-0.4c3.1-0.9,4.2-2.9,4.6-3.9h-4.6c-0.2,0-0.5-0.1-0.5-0.4c0-0.3,0.2-0.4,0.5-0.4h4.9
			c0.1-0.3,0.2-0.9,0.2-1.8v-1.1h-2.6c-0.5,0.8-1,1.5-1.5,2c-0.1,0.1-0.2,0.2-0.4,0.2c-0.3,0-0.5-0.3-0.5-0.5c0-0.1,0.1-0.2,0.2-0.4
			c1.2-1.1,2-2.7,2.4-3.8c0.1-0.1,0.1-0.3,0.4-0.3c0.2,0,0.5,0.1,0.5,0.4c0,0.3-0.4,1.2-0.6,1.5h7.4c0.1,0,0.5,0,0.5,0.4
			c0,0.4-0.3,0.4-0.5,0.4h-4.4v1c0,0.9-0.1,1.5-0.2,1.9H29.8z"/>
		<path class="st6" d="M47.7,74.7c0.1,0,0.5,0,0.5,0.4c0,0.4-0.2,0.4-0.5,0.4H41v3.1c0,1.4-0.6,1.7-1.8,1.7c-0.3,0-2.2,0-2.3,0
			c-0.2-0.1-0.3-0.3-0.3-0.6c0-0.5,0.3-0.5,0.5-0.5c0.1,0,2,0,2,0c0.4,0,1,0,1-0.9v-2.9H33c-0.1,0-0.5,0-0.5-0.4
			c0-0.4,0.4-0.4,0.5-0.4h7.1v-1c0-0.1,0-0.5,0.4-0.5c0.1,0,0.2,0,0.2,0c0.8-0.4,1.5-0.8,2-1.2c0.2-0.1,0.8-0.5,0.8-0.7
			c0-0.2-0.1-0.2-0.4-0.2h-7.5c-0.1,0-0.5,0-0.5-0.4s0.3-0.4,0.5-0.4h7.9c0.5,0,0.6,0,0.7,0.1c0.2,0.1,0.5,0.3,0.5,0.7
			c0,0.5-0.4,0.9-1.7,1.7c-0.4,0.2-1,0.6-2.2,1.2v0.6H47.7z M46.1,67.7c1.2,0,1.7,0.4,1.7,1.7v1.5c0,0.2,0,0.5-0.5,0.5
			c-0.5,0-0.5-0.3-0.5-0.5v-1.5c0-0.6-0.3-0.9-0.9-0.9h-11c-0.6,0-0.9,0.3-0.9,0.9v1.5c0,0.2,0,0.5-0.5,0.5c-0.4,0-0.5-0.1-0.5-0.5
			v-1.5c0-1.3,0.4-1.7,1.7-1.7h9.1c0.4-0.6,0.6-1,1.1-2c0.4-0.8,0.4-0.8,0.7-0.8c0.2,0,0.5,0.2,0.5,0.5c0,0.4-1,2.1-1.2,2.3H46.1z
			 M36.5,67c0,0.3-0.3,0.4-0.5,0.4c-0.2,0-0.3-0.1-0.5-0.6c-0.2-0.5-0.4-0.7-0.7-1.2c-0.1-0.2-0.2-0.3-0.2-0.4
			c0-0.3,0.4-0.5,0.6-0.4C35.6,65,36.5,66.7,36.5,67z M40.4,65.5c0.2,0.3,0.6,1.1,0.6,1.3c0,0.3-0.4,0.4-0.5,0.4
			c-0.2,0-0.3-0.1-0.6-0.6c-0.2-0.3-0.5-0.8-0.7-1.2c-0.1-0.2-0.2-0.3-0.2-0.4c0-0.2,0.2-0.4,0.4-0.4C39.9,64.7,40,64.9,40.4,65.5z"
			/>
		<path class="st6" d="M53.6,66.8v-1.5c0-0.2,0-0.5,0.5-0.5c0.5,0,0.5,0.3,0.5,0.5v1.5h3.2c0.1,0,0.5,0,0.5,0.4
			c0,0.4-0.4,0.4-0.5,0.4h-0.9c-0.3,1.7-0.4,1.9-1,3.9h2.2c0.2,0,0.5,0,0.5,0.4c0,0.4-0.3,0.4-0.5,0.4h-8.1c-0.1,0-0.5,0-0.5-0.4
			c0-0.4,0.4-0.4,0.5-0.4h2.1c-0.2-1.2-0.2-1.4-0.8-3.9h-0.9c-0.1,0-0.5,0-0.5-0.4c0-0.4,0.4-0.4,0.5-0.4H53.6z M55.8,74.2
			c1.3,0,1.7,0.4,1.7,1.7v2.6c0,1.3-0.4,1.7-1.7,1.7h-3.5c-1.3,0-1.7-0.4-1.7-1.7v-2.6c0-1.3,0.4-1.7,1.7-1.7H55.8z M56.6,75.9
			c0-0.6-0.3-0.9-0.9-0.9h-3.3c-0.6,0-0.9,0.3-0.9,0.9v2.6c0,0.6,0.3,0.9,0.9,0.9h3.3c0.6,0,0.9-0.3,0.9-0.9V75.9z M52.3,67.6
			c0.4,1.5,0.6,2.5,0.8,3.9h2c0.2-0.6,0.6-2,0.9-3.9H52.3z M60.1,80.2c0,0.2,0,0.5-0.5,0.5c-0.5,0-0.5-0.3-0.5-0.5V66.8
			c0-1,0.3-1.4,1.4-1.4h2.4c0.6,0,0.8,0,1.1,0.1c0.2,0.1,0.5,0.3,0.5,0.9c0,0.6-0.9,2.4-1.2,3.1c-0.1,0.2-0.7,1.3-0.7,1.3
			c0,0.1-0.1,0.1-0.1,0.2c0,0.2,0.1,0.3,0.2,0.3c0.9,0.8,1.4,1.4,1.9,2.5c0.4,0.9,0.5,1.6,0.5,2c0,1.6-1,2.8-2.3,2.9
			c-0.3,0-0.3,0-1.4,0c-0.3,0-0.6,0-0.6-0.5c0-0.3,0.1-0.5,0.5-0.5c0.1,0,0.8,0.1,1,0.1c1.7,0,1.9-1.6,1.9-2.1
			c0-1.5-1.1-2.7-1.5-3.2c-0.8-0.9-0.9-1-1-1.2c-0.1-0.1-0.1-0.3-0.1-0.4c0-0.2,0-0.4,0.2-0.6c0.3-0.6,1.8-3.2,1.8-3.8
			c0-0.3-0.4-0.3-0.6-0.3h-2.2c-0.5,0-0.6,0.2-0.6,0.6V80.2z"/>
	</g>
	<g id="XMLID_73_" class="st1">
		<path id="XMLID_76_" class="st7" d="M40,5.4c-3,15.6,2.2,28.1,11.3,31c1.8,0.6,3.9,1.2,8.3,0.1"/>
		<path id="XMLID_75_" class="st7" d="M71.3,5.4c3,15.6-2.2,28.1-11.3,31c-1.8,0.6-3.6,1.4-8,0.3"/>
		<line id="XMLID_72_" class="st7" x1="65.3" y1="4.8" x2="72.3" y2="4.8"/>
		<line id="XMLID_71_" class="st7" x1="37.3" y1="4.8" x2="46.3" y2="4.8"/>
		<path id="XMLID_70_" class="st7" d="M25.5,20.1c-0.1,2-2,3.5-4.3,3.5c-2.3,0-4.2-1.7-4.1-3.7c0.1-2,2-3.5,4.3-3.5
			S25.6,18.2,25.5,20.1z"/>
		<path id="XMLID_69_" class="st7" d="M29.8,20.2c-0.1,3.9-4,7.1-8.7,7c-4.7-0.1-8.4-3.4-8.3-7.3c0.1-3.9,4-7.1,8.7-7
			S29.9,16.3,29.8,20.2z"/>
		<path id="XMLID_68_" class="st7" d="M21.5,23.3c-4.4,15,1.9,28,12.3,31.5c4.5,1.5,10.4,1.6,15.3-0.6c7.6-3.5,11.3-8.7,9.3-17.8"/>
	</g>
</g>
<g id="kogakubu" class="st0">
	<g id="XMLID_90_" class="st1">
		<rect id="XMLID_77_" x="15.2" y="64.3" class="st5" width="55.2" height="17.5"/>
		<path class="st6" d="M24.2,78.7h6.9c0.2,0,0.5,0,0.5,0.4c0,0.4-0.3,0.5-0.5,0.5H16.3c-0.1,0-0.5,0-0.5-0.5c0-0.4,0.3-0.4,0.5-0.4
			h6.8V67.1h-6.2c-0.2,0-0.5,0-0.5-0.4c0-0.4,0.3-0.4,0.5-0.4h13.6c0.1,0,0.5,0,0.5,0.4c0,0.4-0.3,0.4-0.5,0.4h-6.3V78.7z"/>
		<path class="st6" d="M48,74.7c0.1,0,0.5,0,0.5,0.4c0,0.4-0.2,0.4-0.5,0.4h-6.7v3.1c0,1.4-0.6,1.7-1.8,1.7c-0.3,0-2.2,0-2.3,0
			C37.1,80.3,37,80,37,79.8c0-0.5,0.3-0.5,0.5-0.5c0.1,0,2,0,2,0c0.4,0,1,0,1-0.9v-2.9h-7.1c-0.1,0-0.5,0-0.5-0.4
			c0-0.4,0.4-0.4,0.5-0.4h7.1v-1c0-0.1,0-0.5,0.4-0.5c0.1,0,0.2,0,0.2,0c0.8-0.4,1.5-0.8,2-1.2c0.2-0.1,0.8-0.5,0.8-0.7
			c0-0.2-0.1-0.2-0.4-0.2H36c-0.1,0-0.5,0-0.5-0.4s0.3-0.4,0.5-0.4H44c0.5,0,0.6,0,0.7,0.1c0.2,0.1,0.5,0.3,0.5,0.7
			c0,0.5-0.4,0.9-1.7,1.7c-0.4,0.2-1,0.6-2.2,1.2v0.6H48z M46.4,67.7c1.2,0,1.7,0.4,1.7,1.7v1.5c0,0.2,0,0.5-0.5,0.5
			s-0.5-0.3-0.5-0.5v-1.5c0-0.6-0.3-0.9-0.9-0.9h-11c-0.6,0-0.9,0.3-0.9,0.9v1.5c0,0.2,0,0.5-0.5,0.5c-0.4,0-0.5-0.1-0.5-0.5v-1.5
			c0-1.3,0.4-1.7,1.7-1.7h9.1c0.4-0.6,0.6-1,1.1-2c0.4-0.8,0.4-0.8,0.7-0.8c0.2,0,0.5,0.2,0.5,0.5c0,0.4-1,2.1-1.2,2.3H46.4z
			 M36.9,67c0,0.3-0.3,0.4-0.5,0.4c-0.2,0-0.3-0.1-0.5-0.6c-0.2-0.5-0.4-0.7-0.7-1.2C35,65.5,35,65.4,35,65.3c0-0.3,0.4-0.5,0.6-0.4
			C35.9,65,36.9,66.7,36.9,67z M40.7,65.5c0.2,0.3,0.6,1.1,0.6,1.3c0,0.3-0.4,0.4-0.5,0.4c-0.2,0-0.3-0.1-0.6-0.6
			c-0.2-0.3-0.5-0.8-0.7-1.2c-0.1-0.2-0.2-0.3-0.2-0.4c0-0.2,0.2-0.4,0.4-0.4C40.2,64.7,40.3,64.9,40.7,65.5z"/>
		<path class="st6" d="M54,66.8v-1.5c0-0.2,0-0.5,0.5-0.5c0.5,0,0.5,0.3,0.5,0.5v1.5h3.2c0.1,0,0.5,0,0.5,0.4c0,0.4-0.4,0.4-0.5,0.4
			h-0.9c-0.3,1.7-0.4,1.9-1,3.9h2.2c0.2,0,0.5,0,0.5,0.4c0,0.4-0.3,0.4-0.5,0.4h-8.1c-0.1,0-0.5,0-0.5-0.4c0-0.4,0.4-0.4,0.5-0.4
			h2.1c-0.2-1.2-0.2-1.4-0.8-3.9h-0.9c-0.1,0-0.5,0-0.5-0.4c0-0.4,0.4-0.4,0.5-0.4H54z M56.2,74.2c1.3,0,1.7,0.4,1.7,1.7v2.6
			c0,1.3-0.4,1.7-1.7,1.7h-3.5c-1.3,0-1.7-0.4-1.7-1.7v-2.6c0-1.3,0.4-1.7,1.7-1.7H56.2z M57,75.9c0-0.6-0.3-0.9-0.9-0.9h-3.3
			c-0.6,0-0.9,0.3-0.9,0.9v2.6c0,0.6,0.3,0.9,0.9,0.9h3.3c0.6,0,0.9-0.3,0.9-0.9V75.9z M52.6,67.6c0.4,1.5,0.6,2.5,0.8,3.9h2
			c0.2-0.6,0.6-2,0.9-3.9H52.6z M60.4,80.2c0,0.2,0,0.5-0.5,0.5s-0.5-0.3-0.5-0.5V66.8c0-1,0.3-1.4,1.4-1.4h2.4c0.6,0,0.8,0,1.1,0.1
			c0.2,0.1,0.5,0.3,0.5,0.9c0,0.6-0.9,2.4-1.2,3.1c-0.1,0.2-0.7,1.3-0.7,1.3c0,0.1-0.1,0.1-0.1,0.2c0,0.2,0.1,0.3,0.2,0.3
			c0.9,0.8,1.4,1.4,1.9,2.5c0.4,0.9,0.5,1.6,0.5,2c0,1.6-1,2.8-2.3,2.9c-0.3,0-0.3,0-1.4,0c-0.3,0-0.6,0-0.6-0.5
			c0-0.3,0.1-0.5,0.5-0.5c0.1,0,0.9,0.1,1,0.1c1.7,0,1.9-1.6,1.9-2.1c0-1.5-1.1-2.7-1.5-3.2c-0.8-0.9-0.9-1-1-1.2
			c-0.1-0.1-0.1-0.3-0.1-0.4c0-0.2,0-0.4,0.2-0.6c0.3-0.6,1.8-3.2,1.8-3.8c0-0.3-0.4-0.3-0.6-0.3h-2.2c-0.5,0-0.6,0.2-0.6,0.6V80.2z
			"/>
	</g>
	<g id="XMLID_98_" class="st1">
	</g>
	<g id="XMLID_99_" class="st1">
		<circle id="XMLID_105_" class="st6" cx="42.8" cy="30.6" r="21"/>
		
			<rect id="XMLID_104_" x="37.9" y="3.8" transform="matrix(0.7071 -0.7071 0.7071 0.7071 -8.9235 39.0358)" class="st6" width="9.6" height="53"/>
		
			<rect id="XMLID_103_" x="37.9" y="3.8" transform="matrix(-1 8.885591e-11 -8.885591e-11 -1 85.3173 60.5791)" class="st6" width="9.6" height="53"/>
		
			<rect id="XMLID_102_" x="16.2" y="25.5" transform="matrix(0.7071 -0.7071 0.7071 0.7071 -8.9235 39.0358)" class="st6" width="53" height="9.6"/>
		
			<rect id="XMLID_101_" x="37.9" y="3.8" transform="matrix(4.566487e-11 -1 1 4.566487e-11 12.3691 72.9482)" class="st6" width="9.6" height="53"/>
		<circle id="XMLID_100_" class="st11" cx="43" cy="30.6" r="13.4"/>
	</g>
</g>
<g id="kogakubuのコピー" class="st0">
	<g id="XMLID_91_" class="st1">
		<rect id="XMLID_79_" x="15.2" y="64.3" class="st5" width="55.2" height="17.5"/>
		<path class="st6" d="M24.2,78.7h6.9c0.2,0,0.5,0,0.5,0.4c0,0.4-0.3,0.5-0.5,0.5H16.3c-0.1,0-0.5,0-0.5-0.5c0-0.4,0.3-0.4,0.5-0.4
			h6.8V67.1h-6.2c-0.2,0-0.5,0-0.5-0.4c0-0.4,0.3-0.4,0.5-0.4h13.6c0.1,0,0.5,0,0.5,0.4c0,0.4-0.3,0.4-0.5,0.4h-6.3V78.7z"/>
		<path class="st6" d="M48,74.7c0.1,0,0.5,0,0.5,0.4c0,0.4-0.2,0.4-0.5,0.4h-6.7v3.1c0,1.4-0.6,1.7-1.8,1.7c-0.3,0-2.2,0-2.3,0
			C37.1,80.3,37,80,37,79.8c0-0.5,0.3-0.5,0.5-0.5c0.1,0,2,0,2,0c0.4,0,1,0,1-0.9v-2.9h-7.1c-0.1,0-0.5,0-0.5-0.4
			c0-0.4,0.4-0.4,0.5-0.4h7.1v-1c0-0.1,0-0.5,0.4-0.5c0.1,0,0.2,0,0.2,0c0.8-0.4,1.5-0.8,2-1.2c0.2-0.1,0.8-0.5,0.8-0.7
			c0-0.2-0.1-0.2-0.4-0.2H36c-0.1,0-0.5,0-0.5-0.4s0.3-0.4,0.5-0.4H44c0.5,0,0.6,0,0.7,0.1c0.2,0.1,0.5,0.3,0.5,0.7
			c0,0.5-0.4,0.9-1.7,1.7c-0.4,0.2-1,0.6-2.2,1.2v0.6H48z M46.4,67.7c1.2,0,1.7,0.4,1.7,1.7v1.5c0,0.2,0,0.5-0.5,0.5
			s-0.5-0.3-0.5-0.5v-1.5c0-0.6-0.3-0.9-0.9-0.9h-11c-0.6,0-0.9,0.3-0.9,0.9v1.5c0,0.2,0,0.5-0.5,0.5c-0.4,0-0.5-0.1-0.5-0.5v-1.5
			c0-1.3,0.4-1.7,1.7-1.7h9.1c0.4-0.6,0.6-1,1.1-2c0.4-0.8,0.4-0.8,0.7-0.8c0.2,0,0.5,0.2,0.5,0.5c0,0.4-1,2.1-1.2,2.3H46.4z
			 M36.9,67c0,0.3-0.3,0.4-0.5,0.4c-0.2,0-0.3-0.1-0.5-0.6c-0.2-0.5-0.4-0.7-0.7-1.2C35,65.5,35,65.4,35,65.3c0-0.3,0.4-0.5,0.6-0.4
			C35.9,65,36.9,66.7,36.9,67z M40.7,65.5c0.2,0.3,0.6,1.1,0.6,1.3c0,0.3-0.4,0.4-0.5,0.4c-0.2,0-0.3-0.1-0.6-0.6
			c-0.2-0.3-0.5-0.8-0.7-1.2c-0.1-0.2-0.2-0.3-0.2-0.4c0-0.2,0.2-0.4,0.4-0.4C40.2,64.7,40.3,64.9,40.7,65.5z"/>
		<path class="st6" d="M54,66.8v-1.5c0-0.2,0-0.5,0.5-0.5c0.5,0,0.5,0.3,0.5,0.5v1.5h3.2c0.1,0,0.5,0,0.5,0.4c0,0.4-0.4,0.4-0.5,0.4
			h-0.9c-0.3,1.7-0.4,1.9-1,3.9h2.2c0.2,0,0.5,0,0.5,0.4c0,0.4-0.3,0.4-0.5,0.4h-8.1c-0.1,0-0.5,0-0.5-0.4c0-0.4,0.4-0.4,0.5-0.4
			h2.1c-0.2-1.2-0.2-1.4-0.8-3.9h-0.9c-0.1,0-0.5,0-0.5-0.4c0-0.4,0.4-0.4,0.5-0.4H54z M56.2,74.2c1.3,0,1.7,0.4,1.7,1.7v2.6
			c0,1.3-0.4,1.7-1.7,1.7h-3.5c-1.3,0-1.7-0.4-1.7-1.7v-2.6c0-1.3,0.4-1.7,1.7-1.7H56.2z M57,75.9c0-0.6-0.3-0.9-0.9-0.9h-3.3
			c-0.6,0-0.9,0.3-0.9,0.9v2.6c0,0.6,0.3,0.9,0.9,0.9h3.3c0.6,0,0.9-0.3,0.9-0.9V75.9z M52.6,67.6c0.4,1.5,0.6,2.5,0.8,3.9h2
			c0.2-0.6,0.6-2,0.9-3.9H52.6z M60.4,80.2c0,0.2,0,0.5-0.5,0.5s-0.5-0.3-0.5-0.5V66.8c0-1,0.3-1.4,1.4-1.4h2.4c0.6,0,0.8,0,1.1,0.1
			c0.2,0.1,0.5,0.3,0.5,0.9c0,0.6-0.9,2.4-1.2,3.1c-0.1,0.2-0.7,1.3-0.7,1.3c0,0.1-0.1,0.1-0.1,0.2c0,0.2,0.1,0.3,0.2,0.3
			c0.9,0.8,1.4,1.4,1.9,2.5c0.4,0.9,0.5,1.6,0.5,2c0,1.6-1,2.8-2.3,2.9c-0.3,0-0.3,0-1.4,0c-0.3,0-0.6,0-0.6-0.5
			c0-0.3,0.1-0.5,0.5-0.5c0.1,0,0.9,0.1,1,0.1c1.7,0,1.9-1.6,1.9-2.1c0-1.5-1.1-2.7-1.5-3.2c-0.8-0.9-0.9-1-1-1.2
			c-0.1-0.1-0.1-0.3-0.1-0.4c0-0.2,0-0.4,0.2-0.6c0.3-0.6,1.8-3.2,1.8-3.8c0-0.3-0.4-0.3-0.6-0.3h-2.2c-0.5,0-0.6,0.2-0.6,0.6V80.2z
			"/>
	</g>
	<g id="XMLID_85_" class="st1">
	</g>
	<g id="XMLID_1_" class="st1">
		<circle id="XMLID_81_" class="st6" cx="42.8" cy="30.6" r="21"/>
		
			<rect id="XMLID_78_" x="37.9" y="3.8" transform="matrix(0.7071 -0.7071 0.7071 0.7071 -8.9235 39.0358)" class="st6" width="9.6" height="53"/>
		
			<rect id="XMLID_67_" x="37.9" y="3.8" transform="matrix(-1 8.885591e-11 -8.885591e-11 -1 85.3173 60.5791)" class="st6" width="9.6" height="53"/>
		
			<rect id="XMLID_10_" x="16.2" y="25.5" transform="matrix(0.7071 -0.7071 0.7071 0.7071 -8.9235 39.0358)" class="st6" width="53" height="9.6"/>
		
			<rect id="XMLID_8_" x="37.9" y="3.8" transform="matrix(4.566487e-11 -1 1 4.566487e-11 12.3691 72.9482)" class="st6" width="9.6" height="53"/>
		<circle id="XMLID_6_" class="st12" cx="43" cy="30.6" r="13.4"/>
	</g>
</g>
<g id="nogakubu" class="st0">
	<g id="XMLID_94_" class="st1">
		<rect id="XMLID_93_" x="15.2" y="64.3" class="st5" width="55.2" height="17.5"/>
		<path class="st6" d="M21.2,76.1v3.2c1.3-0.1,1.9-0.2,2.9-0.3c0.2,0,0.8-0.1,0.9-0.1c0.2,0,0.3,0.2,0.3,0.4c0,0.4-0.3,0.4-0.5,0.5
			c-1.9,0.3-6.4,0.6-6.6,0.6c-0.1,0-0.2,0-0.3-0.1c-0.1-0.1-0.1-0.2-0.1-0.4c0-0.3,0.2-0.4,0.4-0.4c0.1,0,1.8-0.1,2.1-0.1v-3.3h-2.4
			c-0.1,1.2-0.4,2.5-1,3.6c-0.3,0.7-0.5,0.8-0.7,0.8c-0.3,0-0.5-0.3-0.5-0.5c0-0.1,0-0.2,0.1-0.4c1.1-1.8,1.1-3.9,1.1-5v-1.3
			c0-1.3,0.4-1.7,1.7-1.7h12c0.1,0,0.5,0,0.5,0.4c0,0.4-0.4,0.4-0.5,0.4H18.8c-0.6,0-0.9,0.3-0.9,0.9v2.1H31c0.1,0,0.5,0,0.5,0.4
			s-0.4,0.4-0.5,0.4h-6.7c0.7,0.8,1.5,1.4,2.3,1.8c0.9-0.6,1.6-1.1,2.1-1.5c0.2-0.1,0.3-0.2,0.4-0.2c0.2,0,0.4,0.2,0.4,0.5
			c0,0.2-0.2,0.3-0.3,0.4c-0.7,0.6-1.3,0.9-1.8,1.2c1.3,0.6,2.1,0.8,3.6,1.2c0.2,0.1,0.4,0.1,0.4,0.4c0,0.1-0.1,0.5-0.5,0.5
			c-0.1,0-5.1-0.9-7.7-4.4H21.2z M29,65.9c1,0,1.4,0.4,1.4,1.4v1.9c0,1-0.3,1.4-1.4,1.4H18.5c-1,0-1.4-0.4-1.4-1.4v-1.9
			c0-1,0.3-1.4,1.4-1.4h2.9v-0.5c0-0.1,0-0.5,0.4-0.5c0.4,0,0.4,0.4,0.4,0.5v0.5h3.1v-0.5c0-0.2,0.1-0.5,0.4-0.5
			c0.4,0,0.4,0.4,0.4,0.5v0.5H29z M21.3,67.9v-1.2h-2.7c-0.4,0-0.6,0.2-0.6,0.6v0.6H21.3z M21.3,68.5H18v0.7c0,0.4,0.2,0.6,0.6,0.6
			h2.7V68.5z M19.5,74.2c-0.1,0-0.5,0-0.5-0.4s0.4-0.4,0.5-0.4h9.9c0.1,0,0.5,0,0.5,0.4c0,0.4-0.4,0.4-0.5,0.4H19.5z M25.2,66.6
			h-3.1v1.2h3.1V66.6z M25.2,68.5h-3.1v1.4h3.1V68.5z M26.1,67.9h3.4v-0.6c0-0.4-0.2-0.6-0.6-0.6h-2.7V67.9z M26.1,68.5v1.4h2.7
			c0.4,0,0.6-0.2,0.6-0.6v-0.7H26.1z"/>
		<path class="st6" d="M48,74.7c0.1,0,0.5,0,0.5,0.4c0,0.4-0.2,0.4-0.5,0.4h-6.7v3.1c0,1.4-0.6,1.7-1.8,1.7c-0.3,0-2.2,0-2.3,0
			C37.1,80.3,37,80,37,79.8c0-0.5,0.3-0.5,0.5-0.5c0.1,0,2,0,2,0c0.4,0,1,0,1-0.9v-2.9h-7.1c-0.1,0-0.5,0-0.5-0.4
			c0-0.4,0.4-0.4,0.5-0.4h7.1v-1c0-0.1,0-0.5,0.4-0.5c0.1,0,0.2,0,0.2,0c0.8-0.4,1.5-0.8,2-1.2c0.2-0.1,0.8-0.5,0.8-0.7
			c0-0.2-0.1-0.2-0.4-0.2H36c-0.1,0-0.5,0-0.5-0.4s0.3-0.4,0.5-0.4H44c0.5,0,0.6,0,0.7,0.1c0.2,0.1,0.5,0.3,0.5,0.7
			c0,0.5-0.4,0.9-1.7,1.7c-0.4,0.2-1,0.6-2.2,1.2v0.6H48z M46.4,67.7c1.2,0,1.7,0.4,1.7,1.7v1.5c0,0.2,0,0.5-0.5,0.5
			s-0.5-0.3-0.5-0.5v-1.5c0-0.6-0.3-0.9-0.9-0.9h-11c-0.6,0-0.9,0.3-0.9,0.9v1.5c0,0.2,0,0.5-0.5,0.5c-0.4,0-0.5-0.1-0.5-0.5v-1.5
			c0-1.3,0.4-1.7,1.7-1.7h9.1c0.4-0.6,0.6-1,1.1-2c0.4-0.8,0.4-0.8,0.7-0.8c0.2,0,0.5,0.2,0.5,0.5c0,0.4-1,2.1-1.2,2.3H46.4z
			 M36.9,67c0,0.3-0.3,0.4-0.5,0.4c-0.2,0-0.3-0.1-0.5-0.6c-0.2-0.5-0.4-0.7-0.7-1.2C35,65.5,35,65.4,35,65.3c0-0.3,0.4-0.5,0.6-0.4
			C35.9,65,36.9,66.7,36.9,67z M40.7,65.5c0.2,0.3,0.6,1.1,0.6,1.3c0,0.3-0.4,0.4-0.5,0.4c-0.2,0-0.3-0.1-0.6-0.6
			c-0.2-0.3-0.5-0.8-0.7-1.2c-0.1-0.2-0.2-0.3-0.2-0.4c0-0.2,0.2-0.4,0.4-0.4C40.2,64.7,40.3,64.9,40.7,65.5z"/>
		<path class="st6" d="M54,66.8v-1.5c0-0.2,0-0.5,0.5-0.5c0.5,0,0.5,0.3,0.5,0.5v1.5h3.2c0.1,0,0.5,0,0.5,0.4c0,0.4-0.4,0.4-0.5,0.4
			h-0.9c-0.3,1.7-0.4,1.9-1,3.9h2.2c0.2,0,0.5,0,0.5,0.4c0,0.4-0.3,0.4-0.5,0.4h-8.1c-0.1,0-0.5,0-0.5-0.4c0-0.4,0.4-0.4,0.5-0.4
			h2.1c-0.2-1.2-0.2-1.4-0.8-3.9h-0.9c-0.1,0-0.5,0-0.5-0.4c0-0.4,0.4-0.4,0.5-0.4H54z M56.2,74.2c1.3,0,1.7,0.4,1.7,1.7v2.6
			c0,1.3-0.4,1.7-1.7,1.7h-3.5c-1.3,0-1.7-0.4-1.7-1.7v-2.6c0-1.3,0.4-1.7,1.7-1.7H56.2z M57,75.9c0-0.6-0.3-0.9-0.9-0.9h-3.3
			c-0.6,0-0.9,0.3-0.9,0.9v2.6c0,0.6,0.3,0.9,0.9,0.9h3.3c0.6,0,0.9-0.3,0.9-0.9V75.9z M52.6,67.6c0.4,1.5,0.6,2.5,0.8,3.9h2
			c0.2-0.6,0.6-2,0.9-3.9H52.6z M60.4,80.2c0,0.2,0,0.5-0.5,0.5s-0.5-0.3-0.5-0.5V66.8c0-1,0.3-1.4,1.4-1.4h2.4c0.6,0,0.8,0,1.1,0.1
			c0.2,0.1,0.5,0.3,0.5,0.9c0,0.6-0.9,2.4-1.2,3.1c-0.1,0.2-0.7,1.3-0.7,1.3c0,0.1-0.1,0.1-0.1,0.2c0,0.2,0.1,0.3,0.2,0.3
			c0.9,0.8,1.4,1.4,1.9,2.5c0.4,0.9,0.5,1.6,0.5,2c0,1.6-1,2.8-2.3,2.9c-0.3,0-0.3,0-1.4,0c-0.3,0-0.6,0-0.6-0.5
			c0-0.3,0.1-0.5,0.5-0.5c0.1,0,0.9,0.1,1,0.1c1.7,0,1.9-1.6,1.9-2.1c0-1.5-1.1-2.7-1.5-3.2c-0.8-0.9-0.9-1-1-1.2
			c-0.1-0.1-0.1-0.3-0.1-0.4c0-0.2,0-0.4,0.2-0.6c0.3-0.6,1.8-3.2,1.8-3.8c0-0.3-0.4-0.3-0.6-0.3h-2.2c-0.5,0-0.6,0.2-0.6,0.6V80.2z
			"/>
	</g>
	<g id="XMLID_130_" class="st1">
		<polygon id="XMLID_132_" class="st8" points="17.9,54.8 28.8,32 39.7,54.8 		"/>
		<polygon id="XMLID_131_" class="st8" points="36.8,54.8 52.5,7.3 68.1,54.8 		"/>
	</g>
</g>
<g id="sonota">
	<g id="XMLID_133_">
		<rect id="XMLID_83_" x="15.2" y="64.5" class="st5" width="55.2" height="17.5"/>
		<path class="st6" d="M21.9,71.7c1.5-0.2,7.3-1.1,8.6-1.1c0.4,0,0.5,0.2,0.5,0.5c0,0.4-0.4,0.4-0.8,0.5c-5,0.4-7.8,3.2-7.8,4.9
			c0,2.1,3.1,2.5,4.5,2.5c0.8,0,1,0,1,0.5c0,0.5-0.4,0.5-0.7,0.5c-1.6,0-5.7-0.4-5.7-3.4c0-2.7,3.5-4.4,4.7-4.8
			c-1.3,0.2-4.1,0.6-7.3,1.3c-0.7,0.2-2,0.4-2.1,0.4c-0.4,0-0.4-0.3-0.4-0.5c0-0.4,0.3-0.5,0.6-0.5c0.5-0.1,3.1-0.5,3.3-0.5
			c1.9-1.4,3.8-2.7,6.7-4.8c-3.4,0.4-6.9,0.5-7.3,0.5c-0.2,0-0.6,0-0.6-0.5c0-0.1,0.1-0.3,0.2-0.3c0.1-0.1,0.2-0.1,1.1-0.1
			c1.3,0,2.6,0,4.5-0.1c0.3,0,3-0.3,3.1-0.3c0.6,0,0.7,0.4,0.7,0.5c0,0.2-0.1,0.4-0.4,0.5c-0.3,0.2-0.7,0.5-1,0.7L21.9,71.7z"/>
		<path class="st6" d="M39.4,76c-0.8,1.9-1.6,3.1-2.7,3.1c-1.6,0-3.2-2.5-3.2-5.6c0-4,3.1-7.3,7.5-7.3c4.2,0,6.9,2.9,6.9,6.7
			c0,5.3-5,7.1-5.5,7.1c-0.4,0-0.5-0.3-0.5-0.5c0-0.3,0.1-0.3,0.6-0.5c2.3-0.9,4.4-3.1,4.4-6.1c0-1.9-0.8-3.6-2.2-4.6
			c-1.3-1-2.3-1.1-3.2-1.1C41.1,70.2,40.5,73.2,39.4,76z M34.5,73.7c0,2.3,1.2,4.5,2.2,4.5c0.9,0,1.7-1.9,2.2-3.3
			c0.9-2.4,1.4-5.1,1.7-7.6C37.1,67.5,34.5,70.1,34.5,73.7z"/>
		<path class="st6" d="M53,80.5c0,0.2,0,0.5-0.5,0.5c-0.5,0-0.5-0.3-0.5-0.5V71c-0.4,0.6-0.8,1.2-1.3,1.8c-0.2,0.3-0.4,0.3-0.5,0.3
			c-0.3,0-0.5-0.3-0.5-0.5c0-0.2,0.1-0.3,0.2-0.4c1.7-1.9,2.9-4.2,3.7-6.6c0.1-0.2,0.2-0.5,0.5-0.5c0.1,0,0.5,0.1,0.5,0.4
			c0,0.2-0.6,1.9-1.6,3.9V80.5z M54.4,72.1c-0.1,0-0.1,0-0.2,0c-0.3,0-0.4-0.3-0.4-0.5c0-0.3,0.3-0.4,0.4-0.4l1.9-0.5v-3.6
			c0-0.1,0-0.5,0.5-0.5c0.5,0,0.5,0.4,0.5,0.5v3.3l2.9-0.7v-4.1c0-0.1,0-0.5,0.5-0.5c0.4,0,0.5,0.2,0.5,0.5v3.9l1.8-0.5
			c0.4-0.1,0.6-0.2,1-0.2c1.3,0,1.3,1.2,1.3,1.5c0,0.2,0,1.9-0.1,2.9c-0.1,2.3-0.3,2.9-2.1,2.9c-0.3,0-0.8,0-0.9,0
			c-0.2-0.1-0.3-0.3-0.3-0.5c0-0.5,0.3-0.5,0.5-0.5c0.2,0,0.9,0,1,0c0.6,0,0.7-0.3,0.7-0.9c0.1-1,0.2-2.8,0.2-3.6
			c0-0.5,0-1.1-0.6-1.1c-0.2,0-0.4,0.1-0.6,0.1l-2,0.5v6.5c0,0.2,0,0.5-0.5,0.5c-0.5,0-0.5-0.3-0.5-0.5v-6.3l-2.9,0.8v7.5
			c0,0.9,0.6,0.9,1.1,0.9h5.3c0.7,0,0.9-0.1,1-1.7c0.1-1,0.1-1.1,0.5-1.1c0.1,0,0.4,0,0.5,0.2c0.1,0.1,0.1,0.2,0.1,0.3
			c0,0.6-0.2,2.1-0.5,2.7c-0.3,0.5-1,0.5-1.5,0.5c-0.6,0-5.8,0-6,0C56.2,80.6,56,79.9,56,79v-7.3L54.4,72.1z"/>
	</g>
	<g id="XMLID_87_">
		<circle id="XMLID_140_" class="st7" cx="42.8" cy="30.3" r="27"/>
		<line id="XMLID_139_" class="st7" x1="15.8" y1="30.3" x2="69.8" y2="30.3"/>
		<path id="XMLID_138_" class="st7" d="M23.4,11.5c12.9,8.2,25.6,8.4,38.2,0"/>
		<path id="XMLID_137_" class="st7" d="M23.4,49.7c12.9-8.2,25.6-8.4,38.2,0"/>
		<line id="XMLID_136_" class="st7" x1="42.8" y1="3.3" x2="42.8" y2="57.3"/>
		<ellipse id="XMLID_135_" class="st7" cx="42.8" cy="30.3" rx="14.5" ry="27"/>
	</g>
	<g>
	</g>
	<g>
	</g>
	<g>
	</g>
	<g>
	</g>
	<g>
	</g>
	<g>
	</g>
	<g>
	</g>
	<g>
	</g>
	<g>
	</g>
	<g>
	</g>
	<g>
	</g>
	<g>
	</g>
	<g>
	</g>
	<g>
	</g>
	<g>
	</g>
</g>
</svg>
