<svg id="レイヤー_33" data-name="レイヤー 33" xmlns="http://www.w3.org/2000/svg" viewBox="0 0 999 796.2"><defs><style>.cls-1{fill:#b7b6b6;}.cls-2{fill:#40210f;}.cls-3{fill:#d88360;}.cls-4{fill:none;stroke:#40210f;stroke-miterlimit:10;stroke-width:6px;}</style></defs><title>tv_kukita-comp_size_changed</title><rect class="cls-1" x="30.77" y="17.24" width="938.29" height="563.02"/><path class="cls-2" d="M966.56,22.33v557H34.27v-557H966.56m6-6H28.27v569H972.56v-569Z" transform="translate(-0.5 -2.09)"/><path class="cls-3" d="M3.5,597.49V5.09h993v592.4ZM54,45.17a6.89,6.89,0,0,0-7,6.76V550.66a6.89,6.89,0,0,0,7,6.76H946a6.89,6.89,0,0,0,7-6.76V51.93a6.89,6.89,0,0,0-7-6.76Z" transform="translate(-0.5 -2.09)"/><path class="cls-2" d="M993.5,8.09v586.4H6.5V8.09h987M54,560.42H946a9.9,9.9,0,0,0,10-9.76V51.93a9.9,9.9,0,0,0-10-9.76H54a9.9,9.9,0,0,0-10,9.76V550.66a9.9,9.9,0,0,0,10,9.76M999.5,2.09H.5v598.4h999V2.09ZM54,554.42a3.9,3.9,0,0,1-4-3.76V51.93a3.9,3.9,0,0,1,4-3.76H946a3.9,3.9,0,0,1,4,3.76V550.66a3.9,3.9,0,0,1-4,3.76Z" transform="translate(-0.5 -2.09)"/><rect class="cls-3" x="3" y="590.49" width="993" height="202.71"/><path class="cls-2" d="M993.5,595.58V792.29H6.5V595.58h987m6-6H.5V798.29h999V589.58Z" transform="translate(-0.5 -2.09)"/><circle class="cls-3" cx="130.84" cy="691.85" r="77.84"/><path class="cls-2" d="M131.34,619.1A74.84,74.84,0,1,1,56.5,693.94a74.92,74.92,0,0,1,74.84-74.84m0-6a80.84,80.84,0,1,0,80.83,80.84,80.84,80.84,0,0,0-80.83-80.84Z" transform="translate(-0.5 -2.09)"/><circle class="cls-3" cx="868.66" cy="693.94" r="77.84" transform="translate(-105.38 1228.83) rotate(-67.5)"/><path class="cls-2" d="M868.66,619.1a74.84,74.84,0,1,1-74.83,74.84,74.92,74.92,0,0,1,74.83-74.84m0-6a80.84,80.84,0,1,0,80.84,80.84,80.83,80.83,0,0,0-80.84-80.84Z" transform="translate(-0.5 -2.09)"/><rect class="cls-3" x="238.94" y="614.01" width="521.13" height="159.99" rx="9"/><path class="cls-2" d="M751.56,619.1a6,6,0,0,1,6,6v142a6,6,0,0,1-6,6H248.44a6,6,0,0,1-6-6v-142a6,6,0,0,1,6-6H751.56m0-6H248.44a12,12,0,0,0-12,12v142a12,12,0,0,0,12,12H751.56a12,12,0,0,0,12-12v-142a12,12,0,0,0-12-12Z" transform="translate(-0.5 -2.09)"/><rect class="cls-2" x="67.93" y="686.71" width="125.78" height="14.07" transform="translate(-403.04 229.13) rotate(-38.39)"/><path class="cls-2" d="M175.25,653.39l5,6.33L86.38,734.1l-5-6.32,93.88-74.39m1-8.43L72.94,726.8,85.4,742.53,188.7,660.7,176.23,645Z" transform="translate(-0.5 -2.09)"/><rect class="cls-2" x="861.63" y="630.86" width="14.07" height="125.78" transform="translate(-148.31 241.5) rotate(-14.73)"/><path class="cls-2" d="M857.34,634.8l30.45,115.85L880,752.7,849.54,636.85l7.8-2.05m4.28-7.33-19.41,5.1L875.71,760l19.41-5.11-33.5-127.45Z" transform="translate(-0.5 -2.09)"/><line class="cls-4" x1="240.26" y1="692.92" x2="760.14" y2="692.92"/><line class="cls-4" x1="239.84" y1="636.05" x2="759.72" y2="636.05"/><line class="cls-4" x1="239.84" y1="655.13" x2="759.72" y2="655.13"/><line class="cls-4" x1="241.28" y1="674.2" x2="761.16" y2="674.2"/><line class="cls-4" x1="239.84" y1="713.49" x2="759.72" y2="713.49"/><line class="cls-4" x1="239.84" y1="732.56" x2="759.72" y2="732.56"/><line class="cls-4" x1="241.28" y1="751.64" x2="761.16" y2="751.64"/></svg>