<svg id="武田研究室用" xmlns="http://www.w3.org/2000/svg" viewBox="0 0 999 796.2"><defs><style>.cls-1{fill:#b7b7b7;}.cls-2{fill:#40220f;}.cls-3{fill:#8176a3;}.cls-4{fill:#3f220e;}.cls-5{fill:none;stroke:#40220f;stroke-miterlimit:10;stroke-width:6px;}</style></defs><title>tv_takeda</title><rect class="cls-1" x="30.77" y="17.24" width="938.29" height="563.02"/><path class="cls-2" d="M966.56,21v557H34.27V21H966.56m6-6H28.27v569H972.56V15Z" transform="translate(-0.5 -0.8)"/><path class="cls-3" d="M3.5,596.2V3.8h993V596.2Zm51-552.32a6.89,6.89,0,0,0-7,6.76V549.36a6.9,6.9,0,0,0,7,6.77h891a6.9,6.9,0,0,0,7-6.77V50.64a6.89,6.89,0,0,0-7-6.76Z" transform="translate(-0.5 -0.8)"/><path class="cls-2" d="M993.5,6.8V593.2H6.5V6.8h987M54.5,559.13h891a9.9,9.9,0,0,0,10-9.77V50.64a9.89,9.89,0,0,0-10-9.76H54.5a9.89,9.89,0,0,0-10,9.76V549.36a9.9,9.9,0,0,0,10,9.77M999.5.8H.5V599.2h999V.8ZM54.5,553.13a3.9,3.9,0,0,1-4-3.77V50.64a3.9,3.9,0,0,1,4-3.76h891a3.9,3.9,0,0,1,4,3.76V549.36a3.9,3.9,0,0,1-4,3.77Z" transform="translate(-0.5 -0.8)"/><rect class="cls-3" x="3" y="590.49" width="993" height="202.71"/><path class="cls-2" d="M993.5,594.29V791H6.5V594.29h987m6-6H.5V797h999V588.29Z" transform="translate(-0.5 -0.8)"/><circle class="cls-3" cx="130.84" cy="691.85" r="77.84"/><path class="cls-2" d="M131.34,617.81A74.84,74.84,0,1,1,56.5,692.65a74.92,74.92,0,0,1,74.84-74.84m0-6a80.84,80.84,0,1,0,80.83,80.84,80.84,80.84,0,0,0-80.83-80.84Z" transform="translate(-0.5 -0.8)"/><circle class="cls-3" cx="868.66" cy="692.65" r="77.84" transform="translate(45.32 1438.34) rotate(-80.78)"/><path class="cls-2" d="M868.66,617.81a74.84,74.84,0,1,1-74.83,74.84,74.92,74.92,0,0,1,74.83-74.84m0-6a80.84,80.84,0,1,0,80.84,80.84,80.83,80.83,0,0,0-80.84-80.84Z" transform="translate(-0.5 -0.8)"/><rect class="cls-3" x="238.94" y="614.01" width="521.13" height="159.99" rx="9"/><path class="cls-2" d="M751.56,617.81a6,6,0,0,1,6,6v142a6,6,0,0,1-6,6H248.44a6,6,0,0,1-6-6v-142a6,6,0,0,1,6-6H751.56m0-6H248.44a12,12,0,0,0-12,12v142a12,12,0,0,0,12,12H751.56a12,12,0,0,0,12-12v-142a12,12,0,0,0-12-12Z" transform="translate(-0.5 -0.8)"/><rect class="cls-4" x="67.93" y="685.42" width="125.78" height="14.07" transform="translate(-402.23 230.13) rotate(-38.39)"/><path class="cls-2" d="M175.25,652.1l5,6.33L86.38,732.81l-5-6.33,93.88-74.38m1-8.43L72.94,725.51,85.4,741.24,188.7,659.4l-12.47-15.73Z" transform="translate(-0.5 -0.8)"/><rect class="cls-4" x="861.63" y="629.56" width="14.07" height="125.78" transform="translate(-147.98 242.75) rotate(-14.73)"/><path class="cls-2" d="M857.34,633.5l30.45,115.85-7.81,2L849.54,635.56l7.8-2.06m4.28-7.32-19.41,5.1,33.5,127.45,19.41-5.1-33.5-127.45Z" transform="translate(-0.5 -0.8)"/><line class="cls-5" x1="238.09" y1="691.85" x2="757.97" y2="691.85"/><line class="cls-5" x1="237.66" y1="634.98" x2="757.54" y2="634.98"/><line class="cls-5" x1="237.66" y1="654.05" x2="757.54" y2="654.05"/><line class="cls-5" x1="239.11" y1="673.13" x2="758.99" y2="673.13"/><line class="cls-5" x1="237.66" y1="712.42" x2="757.54" y2="712.42"/><line class="cls-5" x1="237.66" y1="731.49" x2="757.54" y2="731.49"/><line class="cls-5" x1="239.11" y1="750.56" x2="758.99" y2="750.56"/></svg>