<?xml version="1.0"?>
<svg xmlns="http://www.w3.org/2000/svg" viewBox="0 0 62.36 62.36">
  <defs>
    <style>
      .cls-1 {
        fill: #231815;
      }

      .cls-2 {
        fill: #634195;
      }

      .cls-3 {
        fill: none;
        stroke: #fff;
        stroke-miterlimit: 10;
      }
    </style>
  </defs>
  <title>&#x30A2;&#x30BB;&#x30C3;&#x30C8; 1</title>
  <g id="&#x30EC;&#x30A4;&#x30E4;&#x30FC;_2">
    <g id="&#x30C7;&#x30B6;&#x30A4;&#x30F3;">
      <g>
        <polygon class="cls-1" points="28.79 28.43 28.68 28.43 28.68 28.43 28.79 28.43 28.79 28.43"/>
        <path class="cls-2" d="M62.36,31.18A31.18,31.18,0,1,1,31.18,0,31.18,31.18,0,0,1,62.36,31.18ZM38.12,53S54.66,47.35,54.63,37c0-5.62-3.2-8.26-6.91-9.77-3.32-.71-8.48-2.12-8.06-2.19,0,0,.21-4.46,5.29-4.56h1l-.1-.53c0-.84.35-1.05.35-1.05s0-.35,1-1.76,2.17-2.87,2.17-2.87l-36.62.07S14,15.87,15,17a4,4,0,0,1,1,1.83,1.2,1.2,0,0,1,.45.94c0,.62-.15.64-.15.64h1c3.95,0,5.19,4.76,5.19,4.76s-4.16,1.34-8,2.12c-3.38,1.58-6.64,4.41-6.71,9.9-.13,11,17,15.8,17,15.8"/>
        <path class="cls-3" d="M18,47.71"/>
        <ellipse class="cls-2" cx="31.13" cy="32.26" rx="3.43" ry="3.01"/>
      </g>
    </g>
  </g>
</svg>
