<?xml version="1.0"?>
<svg xmlns="http://www.w3.org/2000/svg" viewBox="0 0 68.4 68.4">
  <defs>
    <style>
      .cls-1 {
        fill: #fff;
      }

      .cls-2 {
        fill: #634195;
        opacity: 0.8;
      }

      .cls-3 {
        fill: #fcfcfc;
      }
    </style>
  </defs>
  <title>&#x30A2;&#x30BB;&#x30C3;&#x30C8; 2</title>
  <g id="&#x30EC;&#x30A4;&#x30E4;&#x30FC;_2">
    <g id="&#x30C7;&#x30B6;&#x30A4;&#x30F3;">
      <g>
        <circle class="cls-1" cx="34.2" cy="34.2" r="34.2"/>
        <path class="cls-2" d="M41.81,58.15s18.14-6.21,18.11-17.62c0-6.17-3.51-9.06-7.58-10.72C48.7,29,43,27.5,43.5,27.42c0,0,.23-4.9,5.8-5h1.07l-.11-.58c0-.92.39-1.15.39-1.15s0-.39,1.12-1.92,2.38-3.14,2.38-3.14L14,15.69s1.36,1.71,2.42,3a4.35,4.35,0,0,1,1.12,2,1.31,1.31,0,0,1,.49,1c0,.68-.17.7-.17.7h1c4.33,0,5.69,5.22,5.69,5.22S20,29.12,15.83,30c-3.71,1.74-7.28,4.83-7.36,10.86C8.33,52.88,27.07,58.16,27.07,58.16"/>
        <ellipse class="cls-3" cx="34.15" cy="35.39" rx="3.76" ry="3.3"/>
      </g>
    </g>
  </g>
</svg>
