<?xml version="1.0"?>
<svg xmlns="http://www.w3.org/2000/svg" xmlns:xlink="http://www.w3.org/1999/xlink" id="&#x753B;&#x50CF;&#x4F5C;&#x6210;&#x7528;&#x30EC;&#x30A4;&#x30E4;&#x30FC;" viewBox="0 0 620 575">
  <defs>
    <style>
      .cls-1 {
        fill: #fff;
        filter: url(#luminosity-invert-noclip);
      }

      .cls-2 {
        fill: none;
      }

      .cls-3 {
        clip-path: url(#clip-path);
      }

      .cls-4 {
        mask: url(#mask);
      }

      .cls-5 {
        fill: #8c10ee;
        opacity: 0.5;
        isolation: isolate;
      }
    </style>
    <clipPath id="clip-path">
      <rect class="cls-2" x="1" width="620" height="575"/>
    </clipPath>
    <filter id="luminosity-invert-noclip" x="-189" y="0" width="1000" height="575" filterUnits="userSpaceOnUse" color-interpolation-filters="sRGB">
      <feColorMatrix values="-1 0 0 0 1 0 -1 0 0 1 0 0 -1 0 1 0 0 0 1 0" result="invert"/>
      <feFlood flood-color="#fff" result="bg"/>
      <feBlend in="invert" in2="bg"/>
    </filter>
    <mask id="mask" x="-189" y="0" width="1000" height="575" maskUnits="userSpaceOnUse">
      <path class="cls-1" d="M598.5,287.5C598.5,446,469.94,575,311,575,152.52,575,23.5,446.44,23.5,287.5S152.06,0,311,0C469.47.47,598.5,129,598.5,287.5ZM292.3,249.17h0Zm72.93,184.65S493.78,389.88,493.32,309c0-43.48-24.78-64-53.76-75.73-25.71-5.61-65.91-16.36-62.64-16.83,0,0,1.87-34.59,41.14-35.53h7.48l-.94-4.21c0-6.54,2.8-7.95,2.8-7.95s0-2.8,7.95-13.56,16.83-22.44,16.83-22.44l-284.23.47s9.82,12.15,17.3,21,7.95,14,7.95,14a9.32,9.32,0,0,1,3.27,7.48c0,5.14-1.4,5.14-1.4,5.14h7.48c30.85,0,40.2,36.93,40.2,36.93S210.49,228.13,181,234.21c-26.18,12.15-51.42,34.13-51.89,76.67C128.21,396,260.51,433.35,260.51,433.35M337.65,273c0,13.09-11.69,23.37-26.65,23.37-14.49,0-26.65-10.28-26.65-23.37S296,249.63,311,249.63C325.49,249.63,337.65,259.92,337.65,273Z"/>
    </mask>
  </defs>
  <title>&#x540D;&#x79F0;&#x672A;&#x8A2D;&#x5B9A;-1</title>
  <g class="cls-3">
    <g class="cls-4">
      <rect class="cls-5" x="-189" width="1000" height="575"/>
    </g>
  </g>
</svg>
