<?xml version="1.0" encoding="utf-8"?>
<!-- Generator: Adobe Illustrator 19.0.0, SVG Export Plug-In . SVG Version: 6.00 Build 0)  -->
<svg version="1.1" xmlns="http://www.w3.org/2000/svg" xmlns:xlink="http://www.w3.org/1999/xlink" x="0px" y="0px"
	 viewBox="0 0 640 60.3" style="enable-background:new 0 0 640 60.3;" xml:space="preserve">
<style type="text/css">
	.st0{fill:#E99415;}
	.st1{fill:#E09120;}
	.st2{fill:#FFFFFF;}
	.st3{display:none;}
	.st4{display:inline;}
	.st5{fill:none;}
</style>
<g id="レイヤー_1">
	<rect id="XMLID_10_" x="-2.7" y="0" class="st0" width="643.4" height="60.3"/>
	<rect id="XMLID_2_" x="724" y="-60.7" class="st1" width="31.2" height="37.5"/>
</g>
<g id="やじるし">
	<polygon id="XMLID_13_" class="st2" points="615.5,15.1 596.6,47.8 577.7,15.1 	"/>
	<rect id="XMLID_7_" x="724" y="-60.7" class="st1" width="31.2" height="37.5"/>
</g>
<g id="学部名を選択" class="st3">
	<g id="XMLID_3_" class="st4">
		<rect id="XMLID_51_" x="25.5" y="12.7" class="st5" width="459.5" height="40.9"/>
		<path id="XMLID_5_" class="st2" d="M29.3,37c-0.5,0-1-0.2-1.4-0.6s-0.6-0.8-0.6-1.4c0-0.5,0.2-1,0.6-1.4c0.4-0.4,0.8-0.6,1.4-0.6
			H41c0.2,0,0.3-0.1,0.3-0.3v-0.2c0-0.5,0.2-1,0.6-1.4c0.4-0.4,0.8-0.6,1.4-0.6h0.8c0,0,0.1,0,0.1,0c0.1,0,0.1,0,0.1,0
			c0.2,0,0.3,0,0.5-0.2c0,0,0.1-0.1,0.1-0.1c0,0,0.1-0.1,0.1-0.1c1.1-0.7,2-1.4,2.7-2c0.1-0.1,0.1-0.1-0.1-0.1H34.4
			c-0.5,0-1-0.2-1.3-0.6c-0.4-0.4-0.5-0.8-0.5-1.3v-0.1c0,0,0-0.1-0.1-0.1s-0.1,0-0.1,0c-0.4,0.5-0.9,0.7-1.5,0.7h-0.5
			c-0.5,0-1-0.2-1.4-0.6c-0.4-0.4-0.6-0.8-0.6-1.4v-4.1c0-0.5,0.2-1,0.6-1.4c0.4-0.4,0.8-0.6,1.4-0.6h2.1c0.1,0,0.1,0,0.2-0.1
			c0-0.1,0-0.1,0-0.2c-0.1-0.1-0.2-0.3-0.3-0.5c-0.1-0.2-0.2-0.4-0.3-0.5c-0.3-0.4-0.3-0.9-0.1-1.4c0.2-0.5,0.5-0.8,1-0.9l0.3-0.1
			c0.5-0.2,1-0.2,1.6,0s0.9,0.5,1.2,1c0.4,0.7,0.8,1.5,1.3,2.5c0.1,0.2,0.2,0.3,0.4,0.3h2.9c0.1,0,0.1,0,0.2-0.1c0-0.1,0-0.1,0-0.2
			c-0.1-0.1-0.2-0.4-0.4-0.7c-0.2-0.3-0.3-0.5-0.4-0.7c-0.2-0.5-0.3-0.9-0.1-1.4s0.5-0.8,1-1l0.3-0.1c0.5-0.2,1-0.2,1.6,0
			c0.5,0.2,1,0.5,1.2,1c0.6,1.1,1.1,2,1.4,2.8c0.1,0.1,0.2,0.2,0.4,0.2h2.4c0.2,0,0.4-0.1,0.5-0.2c0.7-1.1,1.1-2,1.4-2.5
			c0.3-0.5,0.6-0.9,1.2-1.1c0.5-0.2,1-0.3,1.6-0.2l0.3,0.1c0.5,0.1,0.8,0.4,1.1,0.8c0.2,0.4,0.2,0.9,0,1.3c-0.1,0.2-0.2,0.4-0.4,0.8
			s-0.3,0.6-0.4,0.8c0,0-0.1,0.1,0,0.2c0,0.1,0.1,0.1,0.2,0.1h2.1c0.5,0,1,0.2,1.4,0.6c0.4,0.4,0.6,0.8,0.6,1.4v4.1
			c0,0.5-0.2,1-0.6,1.4c-0.4,0.4-0.8,0.6-1.4,0.6h-0.5c-0.6,0-1.1-0.2-1.5-0.7c0,0-0.1,0-0.1,0s-0.1,0-0.1,0.1v0.1
			c0,1.3-0.4,2.3-1.3,3.2c-1.3,1.2-2.8,2.4-4.4,3.5c0,0-0.1,0.1-0.1,0.1c0,0,0,0.1,0.1,0.1h8.9c0.5,0,1,0.2,1.4,0.6
			c0.4,0.4,0.6,0.8,0.6,1.4c0,0.5-0.2,1-0.6,1.4S57.3,37,56.8,37H46.3c-0.2,0-0.3,0.1-0.3,0.3v4.1c0,1.1,0,1.9-0.1,2.4
			c-0.1,0.5-0.3,0.9-0.7,1.2c-0.4,0.3-0.9,0.5-1.5,0.6c-0.6,0.1-1.6,0.1-2.9,0.1c-1.3,0-2.6,0-3.7-0.1c-0.5,0-1-0.2-1.4-0.6
			c-0.4-0.4-0.6-0.8-0.6-1.4c0-0.5,0.1-1,0.5-1.3c0.4-0.4,0.8-0.5,1.3-0.5c1.5,0.1,2.6,0.1,3.2,0.1c0.7,0,1-0.1,1.2-0.2
			c0.1-0.1,0.2-0.4,0.2-1v-3.4c0-0.2-0.1-0.3-0.3-0.3H29.3z M34.4,24.4h17.4c0.6,0,1,0.2,1.4,0.7c0,0,0.1,0,0.1,0c0,0,0-0.1,0-0.1
			c0,0,0-0.1,0-0.1v-2.2c0-0.2-0.1-0.3-0.3-0.3H33.1c-0.2,0-0.3,0.1-0.3,0.3v2.2c0,0,0,0.1,0,0.1c0,0,0,0.1,0,0.1c0,0,0,0,0.1,0.1
			c0,0,0.1,0,0.1,0C33.3,24.6,33.8,24.4,34.4,24.4z"/>
		<path id="XMLID_11_" class="st2" d="M78.3,26.4c0.5,0,1,0.2,1.4,0.5c0.4,0.4,0.5,0.8,0.5,1.4c0,0.5-0.2,1-0.5,1.4
			c-0.4,0.4-0.8,0.5-1.4,0.5H64.1c-0.5,0-1-0.2-1.3-0.5c-0.4-0.4-0.5-0.8-0.5-1.4c0-0.5,0.2-1,0.5-1.4c0.4-0.4,0.8-0.5,1.3-0.5h1.3
			c0.2,0,0.3-0.1,0.2-0.3c-0.3-1.1-0.7-2.8-1.4-5.2c0-0.1-0.1-0.2-0.3-0.2c-0.4,0-0.7-0.1-1-0.4c-0.3-0.3-0.4-0.6-0.4-1v-0.4
			c0-0.5,0.2-0.9,0.5-1.3s0.8-0.5,1.3-0.5h4c0.2,0,0.3-0.1,0.3-0.3V16c0-0.5,0.2-1,0.6-1.4c0.4-0.4,0.8-0.6,1.4-0.6h0.7
			c0.5,0,1,0.2,1.4,0.6c0.4,0.4,0.6,0.8,0.6,1.4v0.7c0,0.2,0.1,0.3,0.3,0.3H78c0.5,0,0.9,0.2,1.3,0.5s0.5,0.8,0.5,1.3v0.5
			c0,0.4-0.1,0.7-0.4,1c-0.3,0.3-0.6,0.4-1,0.4c-0.1,0-0.2,0.1-0.2,0.2c-0.3,1.6-0.8,3.3-1.4,5.3c0,0.2,0,0.2,0.2,0.2H78.3z
			 M67.1,45.7h-1.4c-0.5,0-1-0.2-1.4-0.6s-0.6-0.8-0.6-1.4v-9.5c0-0.5,0.2-1,0.6-1.4s0.8-0.6,1.4-0.6H77c0.5,0,1,0.2,1.4,0.6
			c0.4,0.4,0.6,0.8,0.6,1.4v9.5c0,0.5-0.2,1-0.6,1.4c-0.4,0.4-0.8,0.6-1.4,0.6h-1.3c-0.3,0-0.6-0.1-0.8-0.3
			c-0.2-0.2-0.3-0.5-0.3-0.8c0-0.1-0.1-0.2-0.2-0.2h-6.2c-0.1,0-0.1,0.1-0.1,0.2c0,0.3-0.1,0.6-0.3,0.8
			C67.6,45.6,67.4,45.7,67.1,45.7z M68.2,36.2v4.4c0,0.2,0.1,0.3,0.3,0.3h6c0.2,0,0.3-0.1,0.3-0.3v-4.4c0-0.2-0.1-0.3-0.3-0.3h-6
			C68.2,35.9,68.2,36,68.2,36.2z M72.8,26.1c0.6-2,1.1-3.7,1.3-5.1c0-0.2,0-0.3-0.2-0.3h-5.2c-0.2,0-0.3,0.1-0.2,0.3
			c0.4,1.5,0.8,3.2,1.3,5.2c0,0.2,0.1,0.2,0.4,0.2h2.3C72.6,26.4,72.8,26.3,72.8,26.1z M90.8,28.1c1.1,1.1,2,2.3,2.7,3.8
			c0.6,1.4,1,2.9,1,4.4c0,2.2-0.4,3.7-1.3,4.6c-0.9,0.9-2.2,1.4-4,1.4h-0.2c-0.6,0-1.1-0.2-1.5-0.5c-0.4-0.4-0.7-0.8-0.8-1.4
			c-0.1-0.5,0-0.9,0.3-1.3c0.3-0.4,0.7-0.6,1.2-0.6c0.8-0.1,1.3-0.3,1.6-0.6c0.3-0.3,0.4-0.9,0.4-1.7c0-2-0.9-4.1-2.8-6.4
			c-0.8-1-1-2.1-0.4-3.2c1.2-2.5,2.1-4.8,2.8-7c0-0.2,0-0.3-0.2-0.3h-3.5c-0.2,0-0.3,0.1-0.3,0.3v24.4c0,0.5-0.2,1-0.6,1.4
			c-0.4,0.4-0.8,0.6-1.4,0.6h-0.5c-0.5,0-1-0.2-1.4-0.6s-0.6-0.8-0.6-1.4V17.4c0-0.5,0.2-1,0.6-1.4c0.4-0.4,0.8-0.6,1.4-0.6h9.2
			c0.5,0,0.9,0.2,1.2,0.5c0.3,0.3,0.5,0.8,0.5,1.2c0,1.2-0.2,2.4-0.6,3.5c-0.9,2.6-1.9,4.9-2.9,6.9C90.6,27.8,90.6,28,90.8,28.1z"/>
		<path id="XMLID_37_" class="st2" d="M100.2,36.9c-0.5,0.1-1.1,0.1-1.5-0.2c-0.5-0.3-0.8-0.7-1-1.2c-0.2-0.5-0.1-1,0.1-1.4
			c0.2-0.5,0.6-0.7,1.1-0.9c3.5-0.9,6.9-2.2,10.2-3.8c0.2-0.1,0.2-0.2,0.1-0.4c-0.9-1.2-1.6-2.1-2.1-2.7c-0.3-0.4-0.5-0.9-0.4-1.4
			c0.1-0.5,0.3-0.9,0.7-1.3l0.2-0.2c0.4-0.3,0.9-0.5,1.5-0.4c0.5,0.1,1,0.3,1.4,0.7c1,1.1,1.8,2.1,2.5,3v0c0,0,0,0,0,0
			c0.1,0.1,0.2,0.1,0.4,0.1c3-2,5.2-4.1,6.6-6.3c0,0,0.1-0.1,0-0.2c0-0.1-0.1-0.1-0.2-0.1h-10.5c-0.2,0-0.3,0.1-0.5,0.2
			c-2.1,1.8-4.6,3.6-7.3,5.2c-0.5,0.3-1,0.3-1.5,0.2s-0.9-0.5-1.2-0.9c-0.3-0.5-0.3-1-0.2-1.5c0.1-0.5,0.4-0.9,0.9-1.2
			c3.4-2.1,6.3-4.5,8.7-7c0.9-1,1.9-1.2,3.1-0.8l0.5,0.1c0.4,0.1,0.6,0.4,0.8,0.7c0.2,0.4,0.2,0.7,0.1,1.1c0,0.2,0,0.3,0.1,0.3h10
			c0.5,0,1,0.2,1.3,0.5c0.4,0.4,0.6,0.8,0.6,1.4c0,1.4-0.3,2.6-0.9,3.6c-1.8,3-4.6,5.7-8.2,8.2c0,0-0.1,0.1-0.1,0.1s0,0.1,0.1,0.1
			h10.2c0.5,0,1,0.2,1.4,0.6c0.4,0.4,0.6,0.8,0.6,1.4v11.2c0,0.5-0.2,1-0.6,1.4c-0.4,0.4-0.8,0.6-1.4,0.6h-1.3c-0.4,0-0.7-0.1-1-0.4
			c-0.3-0.3-0.4-0.6-0.4-1c0-0.1-0.1-0.2-0.2-0.2h-12.2c-0.1,0-0.2,0.1-0.2,0.2c0,0.4-0.1,0.7-0.4,1c-0.3,0.3-0.6,0.4-1,0.4h-1.1
			c-0.5,0-1-0.2-1.4-0.6c-0.4-0.4-0.6-0.8-0.6-1.4v-8.3c0-0.2-0.1-0.2-0.3-0.2C104.3,35.7,102.3,36.3,100.2,36.9z M123.2,34.4
			c0-0.2-0.1-0.3-0.3-0.3h-12c-0.2,0-0.3,0.1-0.3,0.3V40c0,0.2,0.1,0.3,0.3,0.3h12c0.2,0,0.3-0.1,0.3-0.3V34.4z"/>
		<path id="XMLID_40_" class="st2" d="M135.9,22.9c-0.5,0-1-0.2-1.4-0.6c-0.4-0.4-0.6-0.8-0.6-1.4c0-0.5,0.2-1,0.6-1.4
			c0.4-0.4,0.8-0.6,1.3-0.6c1.2,0,3.1,0,5.4-0.1c0.2,0,0.3-0.1,0.4-0.3c0.1-0.3,0.3-0.7,0.5-1.3c0.2-0.6,0.3-0.9,0.4-1.1
			c0.2-0.5,0.5-0.9,1-1.2c0.5-0.3,1-0.4,1.5-0.3l0.7,0.1c0.5,0.1,0.9,0.4,1.2,0.8c0.3,0.5,0.3,1,0.1,1.5c0,0.2-0.1,0.4-0.2,0.7
			c-0.1,0.3-0.2,0.5-0.2,0.6c0,0.1,0,0.1,0,0.2c0,0.1,0.1,0.1,0.2,0.1c3.7-0.2,7.1-0.4,10.2-0.6c0.5,0,1,0.1,1.4,0.5
			c0.4,0.4,0.6,0.8,0.6,1.3c0,0.5-0.2,1-0.5,1.4c-0.4,0.4-0.8,0.6-1.4,0.7c-4.2,0.3-8.1,0.5-12,0.6c-0.2,0-0.4,0.1-0.4,0.3
			c-0.2,0.4-0.7,1.3-1.4,2.8v0h0.1c1.4-0.7,2.7-1.1,3.9-1.1c2.8,0,4.7,1.1,5.7,3.3c0.1,0.2,0.2,0.2,0.4,0.2c2.2-0.6,4.1-1.1,5.7-1.3
			c0.5-0.1,1,0,1.4,0.4c0.4,0.3,0.7,0.8,0.8,1.3c0.1,0.5-0.1,1-0.4,1.4c-0.3,0.4-0.8,0.7-1.3,0.8c-1.5,0.3-3.2,0.7-5.2,1.3
			c-0.2,0-0.3,0.2-0.3,0.4c0.1,0.9,0.2,1.9,0.2,3c0,0.5-0.2,1-0.5,1.4s-0.8,0.6-1.4,0.6h-0.6c-0.5,0-1-0.2-1.4-0.6s-0.6-0.9-0.6-1.4
			c0-0.6,0-1.1,0-1.3c0-0.2-0.1-0.3-0.3-0.2c-1.5,0.7-2.7,1.5-3.5,2.3c-0.8,0.8-1.2,1.4-1.2,2.1c0,0.8,0.5,1.4,1.4,1.8
			c0.9,0.4,2.5,0.6,4.8,0.6c1.8,0,3.9-0.2,6.6-0.5c0.5-0.1,1,0.1,1.5,0.4c0.4,0.3,0.7,0.8,0.7,1.3V42c0,0.6-0.1,1.1-0.4,1.5
			c-0.3,0.4-0.8,0.7-1.3,0.8c-2.3,0.3-4.6,0.4-6.9,0.4c-7.4,0-11.1-2-11.1-6c0-1.5,0.8-3,2.3-4.6c1.5-1.5,3.7-2.9,6.5-4.2
			c0.2-0.1,0.2-0.2,0.1-0.4c-0.5-0.9-1.4-1.3-2.5-1.3c-0.9,0-2.1,0.4-3.4,1.3c-1.3,0.9-2.7,2.1-4.1,3.8c-0.4,0.4-0.8,0.7-1.4,0.8
			c-0.5,0.1-1.1,0-1.6-0.3l-0.2-0.1c-0.4-0.3-0.7-0.7-0.8-1.2c-0.1-0.5,0-1,0.3-1.4c2-2.8,3.6-5.5,4.8-8c0.1-0.2,0-0.2-0.2-0.2
			C138.8,22.9,137.6,22.9,135.9,22.9z"/>
		<path id="XMLID_42_" class="st2" d="M169.4,31.2c-0.5,0-1-0.2-1.4-0.6c-0.4-0.4-0.5-0.8-0.5-1.3s0.2-1,0.5-1.3
			c0.4-0.4,0.8-0.6,1.4-0.6h3.9c0.5,0,1,0.2,1.4,0.6c0.4,0.4,0.6,0.8,0.6,1.4V38c0,0.2,0,0.4,0.1,0.5c0.4,0.6,0.7,1,1,1.3
			c0.1,0.1,0.3,0.1,0.4-0.1c0.2-0.4,0.5-0.7,0.9-0.9c1.5-0.6,2.9-1.2,4.2-1.9c0,0,0-0.1-0.1-0.1h-3.6c-0.5,0-0.9-0.2-1.2-0.5
			s-0.5-0.8-0.5-1.2c0-0.5,0.2-0.9,0.5-1.2c0.3-0.3,0.8-0.5,1.2-0.5h2.5c0.2,0,0.3-0.1,0.3-0.3v-1.2c0-0.2-0.1-0.3-0.3-0.3H179
			c-0.5,0-0.9-0.2-1.2-0.5c-0.3-0.3-0.5-0.7-0.5-1.1c0-0.5,0.2-0.9,0.5-1.2c0.3-0.3,0.7-0.5,1.2-0.5h1.7c0.2,0,0.3-0.1,0.3-0.3v-0.1
			c0-0.1,0-0.3,0.1-0.5c0-0.2,0-0.3-0.2-0.3c-0.4,0-1,0-1.8-0.1c-1.1,0-1.8-0.2-2.1-0.5c-0.3-0.3-0.5-0.9-0.5-1.8v-2.8
			c0-0.5,0.2-1,0.6-1.4s0.8-0.6,1.4-0.6h3.8c0.2,0,0.3-0.1,0.3-0.3v-0.8c0-0.2-0.1-0.3-0.3-0.3h-4.4c-0.4,0-0.8-0.2-1.2-0.5
			c-0.3-0.3-0.5-0.7-0.5-1.2c0-0.4,0.2-0.8,0.5-1.2c0.3-0.3,0.7-0.5,1.2-0.5h6.7c0.5,0,1,0.2,1.4,0.6c0.4,0.4,0.6,0.8,0.6,1.4v3.3
			c0,0.5-0.2,1-0.6,1.4c-0.4,0.4-0.8,0.6-1.4,0.6h-4.2c-0.2,0-0.3,0.1-0.3,0.3v0.8c0,0.3,0,0.5,0.1,0.6c0.1,0.1,0.2,0.1,0.5,0.1h0.9
			h0.9c0.4,0,0.6-0.1,0.7-0.2c0.6-0.9,1.2-1.3,1.7-1.2l0.4,0.1c0.6,0.1,1,0.4,1.3,0.8c0.3,0.4,0.4,0.9,0.3,1.5
			c-0.1,0.6-0.2,1-0.5,1.2c-0.2,0.2-0.5,0.4-0.9,0.5c-0.2,0-0.2,0.2-0.2,0.3c0.1,0.2,0.1,0.4,0.1,0.6V28c0,0.2,0.1,0.3,0.3,0.3h4
			c0.2,0,0.3-0.1,0.3-0.3v-0.1c0-0.1,0-0.3,0.1-0.5c0-0.2,0-0.3-0.2-0.3c-0.8-0.1-1.3-0.3-1.5-0.6c-0.2-0.3-0.4-0.9-0.4-1.7v-2.8
			c0-0.5,0.2-1,0.6-1.4c0.4-0.4,0.8-0.6,1.4-0.6h3.8c0.2,0,0.3-0.1,0.3-0.3v-0.8c0-0.2-0.1-0.3-0.3-0.3h-4.2c-0.5,0-0.9-0.2-1.2-0.5
			c-0.3-0.3-0.5-0.7-0.5-1.2c0-0.4,0.2-0.8,0.5-1.2c0.3-0.3,0.7-0.5,1.2-0.5h6.5c0.5,0,1,0.2,1.4,0.6s0.6,0.8,0.6,1.4v3.3
			c0,0.5-0.2,1-0.6,1.4s-0.8,0.6-1.4,0.6h-4.2c-0.2,0-0.3,0.1-0.3,0.3v0.8c0,0.3,0,0.5,0.1,0.6c0.1,0.1,0.2,0.1,0.5,0.1h0.8h0.9
			c0.4,0,0.6-0.1,0.7-0.2c0.6-0.9,1.2-1.3,1.7-1.2l0.4,0.1c0.5,0.1,1,0.4,1.3,0.8c0.3,0.4,0.4,0.9,0.3,1.5c-0.1,0.8-0.4,1.3-0.8,1.5
			c-0.4,0.2-1.1,0.3-2.3,0.4c-0.1,0-0.2,0-0.4,0s-0.3,0-0.4,0c-0.2,0-0.2,0.1-0.2,0.3c0,0.2,0.1,0.4,0.1,0.5V28
			c0,0.2,0.1,0.3,0.3,0.3h1.7c0.5,0,0.9,0.2,1.2,0.5c0.3,0.3,0.5,0.7,0.5,1.2c0,0.4-0.2,0.8-0.5,1.1c-0.3,0.3-0.7,0.5-1.2,0.5h-1.7
			c-0.2,0-0.3,0.1-0.3,0.3v1.2c0,0.2,0.1,0.3,0.3,0.3h2.4c0.5,0,0.9,0.2,1.2,0.5c0.3,0.3,0.5,0.8,0.5,1.2c0,0.5-0.2,0.9-0.5,1.2
			s-0.8,0.5-1.2,0.5h-3.4c0,0-0.1,0-0.1,0c0,0,0,0,0,0.1c1,0.4,2.1,1,3.4,1.7c0.4,0.2,0.7,0.6,0.8,1.1c0.1,0.5,0,1-0.2,1.4
			c0,0-0.1,0.1-0.2,0.2c0,0-0.1,0.1,0,0.1c0,0.1,0.1,0.1,0.1,0.1c0.4,0.1,0.8,0.3,1.1,0.6c0.3,0.4,0.4,0.7,0.4,1.2
			c0,0.5-0.2,1-0.6,1.3c-0.4,0.4-0.8,0.5-1.4,0.5h-7.9c-4.3,0-7.6-0.2-9.9-0.6c-2.3-0.4-4-1.2-5.2-2.2c-0.1-0.1-0.3-0.1-0.5,0
			c-1.1,0.9-2,1.7-2.8,2.3c-0.4,0.3-0.9,0.4-1.4,0.3c-0.5-0.1-0.9-0.4-1.2-0.9l-0.1-0.2c-0.3-0.5-0.3-1-0.2-1.5
			c0.1-0.5,0.4-1,0.8-1.3c0.5-0.4,1.2-0.9,2.1-1.6c0.2-0.1,0.2-0.3,0.2-0.5v-7.7c0-0.2-0.1-0.3-0.3-0.3H169.4z M169.3,16.7
			c0.4-0.4,0.9-0.5,1.4-0.5c0.5,0,1,0.2,1.4,0.6c0.7,0.7,1.8,1.9,3.2,3.4c0.4,0.4,0.5,0.9,0.5,1.4c0,0.5-0.3,1-0.6,1.4l-0.1,0
			c-0.4,0.4-0.9,0.5-1.4,0.5c-0.5,0-1-0.3-1.3-0.6c-1.1-1.2-2.2-2.3-3.3-3.5c-0.4-0.4-0.6-0.8-0.5-1.4c0-0.5,0.2-1,0.6-1.3
			L169.3,16.7z M184.7,39.5c-1.1,0.7-2.2,1.3-3.3,1.8c0,0,0,0.1,0,0.1s0,0.1,0.1,0.1c1.7,0.2,4.3,0.2,7.6,0.2h5.3c0,0,0.1,0,0.1-0.1
			s0-0.1,0-0.1c-1.3-0.7-2.7-1.5-4.3-2.1c-0.4-0.2-0.7-0.5-0.9-0.9c-0.2-0.4-0.1-0.9,0.1-1.3c0,0,0,0,0,0c0,0,0,0,0,0
			c0.1-0.1,0-0.2-0.1-0.2h-3.9c0,0-0.1,0-0.1,0.1c0,0,0,0.1,0,0.1c0.3,0.4,0.3,0.8,0.3,1.3C185.3,38.9,185.1,39.2,184.7,39.5z
			 M185.3,31.8v1.2c0,0.2,0.1,0.3,0.3,0.3h4c0.2,0,0.3-0.1,0.3-0.3v-1.2c0-0.2-0.1-0.3-0.3-0.3h-4C185.4,31.5,185.3,31.6,185.3,31.8
			z"/>
		<path id="XMLID_47_" class="st2" d="M204.5,24c-0.5,0-1-0.2-1.3-0.6c-0.4-0.4-0.6-0.8-0.6-1.3s0.2-1,0.6-1.3
			c0.4-0.4,0.8-0.6,1.3-0.6h1.3c0.2,0,0.3-0.1,0.3-0.3v-3.3c0-0.5,0.2-1,0.6-1.4c0.4-0.4,0.8-0.6,1.4-0.6h0.5c0.5,0,1,0.2,1.4,0.6
			s0.6,0.8,0.6,1.4V20c0,0.2,0.1,0.3,0.3,0.3h1.3c0.5,0,1,0.2,1.4,0.6c0.4,0.4,0.5,0.8,0.5,1.3s-0.2,1-0.5,1.3
			c-0.4,0.4-0.8,0.6-1.4,0.6h-1.3c-0.2,0-0.3,0.1-0.3,0.3v5.4c0,0.2,0.1,0.3,0.3,0.2c0.1,0,0.2-0.1,0.4-0.1c0.2-0.1,0.4-0.1,0.5-0.2
			c0.5-0.2,1-0.1,1.4,0.1c0.4,0.3,0.7,0.6,0.8,1.2c0.1,0.6,0,1.1-0.3,1.6c-0.3,0.5-0.7,0.8-1.3,1c-0.1,0-0.4,0.1-0.7,0.2
			c-0.3,0.1-0.6,0.2-0.8,0.2c-0.2,0-0.3,0.2-0.3,0.4V40c0,0.9,0,1.7,0,2.2c0,0.5-0.1,1-0.2,1.5c-0.1,0.5-0.3,0.8-0.4,1
			s-0.4,0.4-0.8,0.5c-0.4,0.2-0.7,0.2-1.1,0.3c-0.4,0-0.9,0.1-1.6,0.1c-0.1,0-0.6,0-1.5-0.1c-0.5,0-0.9-0.2-1.3-0.6
			c-0.4-0.4-0.5-0.8-0.6-1.4c0-0.5,0.1-0.9,0.5-1.3c0.4-0.4,0.8-0.5,1.3-0.5c0.3,0,0.6,0,0.9,0c0.3,0,0.4-0.1,0.5-0.2
			s0.1-0.6,0.1-1.4v-4.8c0-0.2-0.1-0.3-0.3-0.2c-0.1,0-0.3,0.1-0.6,0.1c-0.2,0.1-0.4,0.1-0.5,0.1c-0.5,0.1-1,0-1.4-0.3
			c-0.4-0.3-0.6-0.7-0.7-1.2v-0.1c0-0.5,0.1-1,0.5-1.5c0.4-0.5,0.8-0.7,1.3-0.8c0.1,0,0.4-0.1,0.7-0.1c0.3-0.1,0.5-0.1,0.7-0.1
			c0.2,0,0.3-0.2,0.3-0.4v-6.6c0-0.2-0.1-0.3-0.3-0.3H204.5z M227.3,30.8c1.1,4,3,7.4,5.6,10.4c0.4,0.4,0.6,0.9,0.6,1.4
			c0,0.5-0.1,1-0.5,1.5l-0.3,0.3c-0.3,0.4-0.8,0.7-1.3,0.7s-1-0.1-1.4-0.5c-3.5-3.5-5.9-8.1-7.3-13.8c0-0.2-0.2-0.3-0.4-0.3H220
			c-0.2,0-0.3,0.1-0.3,0.2c-0.3,5.3-1.4,9.8-3.3,13.5c-0.2,0.5-0.6,0.8-1.1,0.9c-0.5,0.1-1,0-1.4-0.2l-0.5-0.3
			c-0.4-0.3-0.7-0.7-0.9-1.2c-0.2-0.5-0.1-1,0.2-1.5c1-2.1,1.8-4.5,2.2-7c0.4-2.6,0.6-6,0.6-10.3v-6.7c0-0.5,0.2-1,0.6-1.4
			c0.4-0.4,0.8-0.6,1.4-0.6h13.2c0.5,0,1,0.2,1.4,0.6c0.4,0.4,0.6,0.8,0.6,1.4v10.8c0,0.5-0.2,1-0.6,1.4c-0.4,0.4-0.8,0.6-1.4,0.6
			h-3.1C227.3,30.5,227.2,30.6,227.3,30.8z M220.1,26.7h7.7c0.2,0,0.3-0.1,0.3-0.3V20c0-0.2-0.1-0.3-0.3-0.3h-7.7
			c-0.2,0-0.3,0.1-0.3,0.3v6.2v0.3C219.8,26.6,219.9,26.7,220.1,26.7z"/>
	</g>
</g>
<g id="農学" class="st3">
	<g id="XMLID_6_" class="st4">
		<rect id="XMLID_73_" x="25.5" y="12.7" class="st5" width="459.5" height="40.9"/>
		<path id="XMLID_4_" class="st2" d="M28.3,44.3l-0.4-0.5c-0.8-0.9-0.9-2-0.3-3.2c1-2.1,1.5-4.7,1.5-7.9v-2.9c0-0.5,0.2-1,0.6-1.4
			s0.8-0.6,1.4-0.6h25.2c0.4,0,0.7,0.1,1,0.4c0.3,0.3,0.4,0.6,0.4,1s-0.1,0.7-0.4,1c-0.3,0.3-0.6,0.4-1,0.4H33.7
			c-0.2,0-0.3,0.1-0.3,0.3v2.8c0,0.5,0,0.9,0,1.1c0,0.2,0.1,0.3,0.3,0.3h22.8c0.4,0,0.8,0.2,1.1,0.5c0.3,0.3,0.4,0.7,0.4,1.1
			s-0.1,0.8-0.4,1.1c-0.3,0.3-0.6,0.4-1.1,0.4h-1c0,0-0.1,0-0.1,0.1c0,0,0,0.1,0,0.1l0.6,0.4c0.4,0.3,0.6,0.6,0.6,1.1
			c0,0.5-0.2,0.8-0.6,1.1c-0.3,0.2-0.7,0.5-1.1,0.7c-0.1,0.1-0.1,0.2,0,0.2c0.5,0.1,1.1,0.3,1.9,0.5c0.5,0.1,0.8,0.3,1,0.8
			c0.2,0.4,0.2,0.8,0.1,1.2c-0.2,0.5-0.6,0.9-1.1,1.1c-0.5,0.3-1,0.3-1.5,0.2c-2.9-0.6-5.6-1.7-8-3.4c-0.2-0.1-0.2-0.1-0.2,0.1v0
			c0,0.5-0.1,1-0.5,1.5c-0.4,0.4-0.8,0.7-1.3,0.8c-4.1,0.5-8,0.8-11.7,1c-0.5,0-1-0.1-1.4-0.5c-0.4-0.4-0.6-0.8-0.7-1.3l0-0.6
			c0,0,0-0.1-0.1-0.1s-0.1,0-0.1,0c0,0-0.2,0.4-0.6,1c-0.3,0.4-0.6,0.6-1.2,0.6C29,44.8,28.6,44.7,28.3,44.3z M49.4,16.3h5.8
			c0.5,0,1,0.2,1.4,0.6c0.4,0.4,0.6,0.8,0.6,1.4v6.8c0,0.5-0.2,1-0.6,1.4c-0.4,0.4-0.8,0.6-1.4,0.6H33.7h-2.4c-0.5,0-1-0.2-1.4-0.6
			s-0.6-0.8-0.6-1.4v-6.8c0-0.5,0.2-1,0.6-1.4s0.8-0.6,1.4-0.6h5.8c0.2,0,0.3-0.1,0.3-0.3c0-0.5,0.2-0.9,0.5-1.3s0.8-0.5,1.3-0.5
			h0.5c0.5,0,0.9,0.2,1.3,0.5s0.5,0.8,0.5,1.3c0,0.2,0.1,0.3,0.3,0.3h3c0.2,0,0.3-0.1,0.3-0.3c0-0.5,0.2-0.9,0.5-1.3
			s0.8-0.5,1.3-0.5h0.5c0.5,0,0.9,0.2,1.3,0.5s0.5,0.8,0.5,1.3C49.1,16.3,49.2,16.3,49.4,16.3z M31.8,41.9c0,0.2,0,0.2,0.2,0.2
			c0.4,0,0.9-0.1,1.7-0.1S35,42,35.4,42c0.2,0,0.3-0.1,0.3-0.3v-3.2c0-0.2-0.1-0.3-0.3-0.3h-2.2c-0.2,0-0.3,0.1-0.4,0.2
			C32.5,39.8,32.2,40.9,31.8,41.9z M37.3,20.6v-0.8c0-0.2-0.1-0.3-0.3-0.3h-3c-0.2,0-0.3,0.1-0.3,0.3v0.8c0,0.2,0.1,0.3,0.3,0.3h3
			C37.2,20.9,37.3,20.8,37.3,20.6z M37.3,24.2v-0.8c0-0.2-0.1-0.3-0.3-0.3h-3c-0.2,0-0.3,0.1-0.3,0.3v0.8c0,0.2,0.1,0.3,0.3,0.3h3
			C37.2,24.6,37.3,24.4,37.3,24.2z M54.9,31.6c0.4,0,0.7,0.1,1,0.4c0.3,0.3,0.4,0.6,0.4,1c0,0.4-0.1,0.7-0.4,1
			c-0.3,0.3-0.6,0.4-1,0.4H35.8c-0.4,0-0.7-0.1-1-0.4c-0.3-0.3-0.4-0.6-0.4-1c0-0.4,0.1-0.7,0.4-1c0.3-0.3,0.6-0.4,1-0.4H54.9z
			 M40.3,38.5v2.8c0,0.2,0.1,0.3,0.3,0.3c1.1-0.1,2.7-0.3,4.8-0.5c0,0,0.1,0,0.1-0.1c0,0,0-0.1,0-0.1c-0.9-0.7-1.7-1.6-2.3-2.5
			c-0.1-0.1-0.3-0.2-0.5-0.2h-2.1C40.4,38.2,40.3,38.3,40.3,38.5z M45,20.6v-0.8c0-0.2-0.1-0.3-0.3-0.3h-2.9c-0.2,0-0.3,0.1-0.3,0.3
			v0.8c0,0.2,0.1,0.3,0.3,0.3h2.9C44.9,20.9,45,20.8,45,20.6z M45,24.2v-0.8c0-0.2-0.1-0.3-0.3-0.3h-2.9c-0.2,0-0.3,0.1-0.3,0.3v0.8
			c0,0.2,0.1,0.3,0.3,0.3h2.9C44.9,24.6,45,24.4,45,24.2z M48,38.2c0,0-0.1,0-0.1,0.1c0,0,0,0.1,0,0.1c0.7,0.6,1.5,1.2,2.6,1.7
			c0.2,0.1,0.4,0.1,0.5,0c0.8-0.5,1.7-1,2.7-1.7c0,0,0.1-0.1,0.1-0.1c0,0,0-0.1-0.1-0.1H48z M52.7,20.6v-0.8c0-0.2-0.1-0.3-0.3-0.3
			h-3.1c-0.2,0-0.3,0.1-0.3,0.3v0.8c0,0.2,0.1,0.3,0.3,0.3h3.1C52.6,20.9,52.7,20.8,52.7,20.6z M52.7,24.2v-0.8
			c0-0.2-0.1-0.3-0.3-0.3h-3.1c-0.2,0-0.3,0.1-0.3,0.3v0.8c0,0.2,0.1,0.3,0.3,0.3h3.1C52.6,24.6,52.7,24.4,52.7,24.2z"/>
		<path id="XMLID_64_" class="st2" d="M64.4,37c-0.5,0-1-0.2-1.4-0.6s-0.6-0.8-0.6-1.4c0-0.5,0.2-1,0.6-1.4c0.4-0.4,0.8-0.6,1.4-0.6
			h11.7c0.2,0,0.3-0.1,0.3-0.3v-0.2c0-0.5,0.2-1,0.6-1.4c0.4-0.4,0.8-0.6,1.4-0.6h0.8c0,0,0.1,0,0.1,0c0.1,0,0.1,0,0.1,0
			c0.2,0,0.3,0,0.5-0.2c0,0,0.1-0.1,0.1-0.1c0,0,0.1-0.1,0.1-0.1c1.1-0.7,2-1.4,2.7-2c0.1-0.1,0.1-0.1-0.1-0.1H69.4
			c-0.5,0-1-0.2-1.3-0.6c-0.4-0.4-0.5-0.8-0.5-1.3v-0.1c0,0,0-0.1-0.1-0.1s-0.1,0-0.1,0c-0.4,0.5-0.9,0.7-1.5,0.7h-0.5
			c-0.5,0-1-0.2-1.4-0.6c-0.4-0.4-0.6-0.8-0.6-1.4v-4.1c0-0.5,0.2-1,0.6-1.4c0.4-0.4,0.8-0.6,1.4-0.6h2.1c0.1,0,0.1,0,0.2-0.1
			c0-0.1,0-0.1,0-0.2c-0.1-0.1-0.2-0.3-0.3-0.5c-0.1-0.2-0.2-0.4-0.3-0.5c-0.3-0.4-0.3-0.9-0.1-1.4c0.2-0.5,0.5-0.8,1-0.9l0.3-0.1
			c0.5-0.2,1-0.2,1.6,0s0.9,0.5,1.2,1c0.4,0.7,0.8,1.5,1.3,2.5c0.1,0.2,0.2,0.3,0.4,0.3h2.9c0.1,0,0.1,0,0.2-0.1c0-0.1,0-0.1,0-0.2
			c-0.1-0.1-0.2-0.4-0.4-0.7c-0.2-0.3-0.3-0.5-0.4-0.7c-0.2-0.5-0.3-0.9-0.1-1.4s0.5-0.8,1-1l0.3-0.1c0.5-0.2,1-0.2,1.6,0
			c0.5,0.2,1,0.5,1.2,1c0.6,1.1,1.1,2,1.4,2.8c0.1,0.1,0.2,0.2,0.4,0.2h2.4c0.2,0,0.4-0.1,0.5-0.2c0.7-1.1,1.1-2,1.4-2.5
			c0.3-0.5,0.6-0.9,1.2-1.1c0.5-0.2,1-0.3,1.6-0.2l0.3,0.1c0.5,0.1,0.8,0.4,1.1,0.8c0.2,0.4,0.2,0.9,0,1.3c-0.1,0.2-0.2,0.4-0.4,0.8
			s-0.3,0.6-0.4,0.8c0,0-0.1,0.1,0,0.2c0,0.1,0.1,0.1,0.2,0.1h2.1c0.5,0,1,0.2,1.4,0.6c0.4,0.4,0.6,0.8,0.6,1.4v4.1
			c0,0.5-0.2,1-0.6,1.4c-0.4,0.4-0.8,0.6-1.4,0.6h-0.5c-0.6,0-1.1-0.2-1.5-0.7c0,0-0.1,0-0.1,0s-0.1,0-0.1,0.1v0.1
			c0,1.3-0.4,2.3-1.3,3.2C86,30.7,84.5,31.8,83,33c0,0-0.1,0.1-0.1,0.1c0,0,0,0.1,0.1,0.1h8.9c0.5,0,1,0.2,1.4,0.6
			c0.4,0.4,0.6,0.8,0.6,1.4c0,0.5-0.2,1-0.6,1.4S92.4,37,91.9,37H81.4c-0.2,0-0.3,0.1-0.3,0.3v4.1c0,1.1,0,1.9-0.1,2.4
			c-0.1,0.5-0.3,0.9-0.7,1.2c-0.4,0.3-0.9,0.5-1.5,0.6c-0.6,0.1-1.6,0.1-2.9,0.1c-1.3,0-2.6,0-3.7-0.1c-0.5,0-1-0.2-1.4-0.6
			c-0.4-0.4-0.6-0.8-0.6-1.4c0-0.5,0.1-1,0.5-1.3c0.4-0.4,0.8-0.5,1.3-0.5c1.5,0.1,2.6,0.1,3.2,0.1c0.7,0,1-0.1,1.2-0.2
			c0.1-0.1,0.2-0.4,0.2-1v-3.4c0-0.2-0.1-0.3-0.3-0.3H64.4z M69.4,24.4h17.4c0.6,0,1,0.2,1.4,0.7c0,0,0.1,0,0.1,0c0,0,0-0.1,0-0.1
			c0,0,0-0.1,0-0.1v-2.2c0-0.2-0.1-0.3-0.3-0.3H68.2c-0.2,0-0.3,0.1-0.3,0.3v2.2c0,0,0,0.1,0,0.1c0,0,0,0.1,0,0.1c0,0,0,0,0.1,0.1
			c0,0,0.1,0,0.1,0C68.4,24.6,68.9,24.4,69.4,24.4z"/>
		<path id="XMLID_67_" class="st2" d="M113.4,26.4c0.5,0,1,0.2,1.4,0.5c0.4,0.4,0.5,0.8,0.5,1.4c0,0.5-0.2,1-0.5,1.4
			c-0.4,0.4-0.8,0.5-1.4,0.5H99.2c-0.5,0-1-0.2-1.3-0.5c-0.4-0.4-0.5-0.8-0.5-1.4c0-0.5,0.2-1,0.5-1.4c0.4-0.4,0.8-0.5,1.3-0.5h1.3
			c0.2,0,0.3-0.1,0.2-0.3c-0.3-1.1-0.7-2.8-1.4-5.2c0-0.1-0.1-0.2-0.3-0.2c-0.4,0-0.7-0.1-1-0.4c-0.3-0.3-0.4-0.6-0.4-1v-0.4
			c0-0.5,0.2-0.9,0.5-1.3S99,17,99.5,17h4c0.2,0,0.3-0.1,0.3-0.3V16c0-0.5,0.2-1,0.6-1.4c0.4-0.4,0.8-0.6,1.4-0.6h0.7
			c0.5,0,1,0.2,1.4,0.6c0.4,0.4,0.6,0.8,0.6,1.4v0.7c0,0.2,0.1,0.3,0.3,0.3h4.3c0.5,0,0.9,0.2,1.3,0.5s0.5,0.8,0.5,1.3v0.5
			c0,0.4-0.1,0.7-0.4,1c-0.3,0.3-0.6,0.4-1,0.4c-0.1,0-0.2,0.1-0.2,0.2c-0.3,1.6-0.8,3.3-1.4,5.3c0,0.2,0,0.2,0.2,0.2H113.4z
			 M102.1,45.7h-1.4c-0.5,0-1-0.2-1.4-0.6s-0.6-0.8-0.6-1.4v-9.5c0-0.5,0.2-1,0.6-1.4s0.8-0.6,1.4-0.6h11.4c0.5,0,1,0.2,1.4,0.6
			c0.4,0.4,0.6,0.8,0.6,1.4v9.5c0,0.5-0.2,1-0.6,1.4c-0.4,0.4-0.8,0.6-1.4,0.6h-1.3c-0.3,0-0.6-0.1-0.8-0.3
			c-0.2-0.2-0.3-0.5-0.3-0.8c0-0.1-0.1-0.2-0.2-0.2h-6.2c-0.1,0-0.1,0.1-0.1,0.2c0,0.3-0.1,0.6-0.3,0.8
			C102.7,45.6,102.4,45.7,102.1,45.7z M103.2,36.2v4.4c0,0.2,0.1,0.3,0.3,0.3h6c0.2,0,0.3-0.1,0.3-0.3v-4.4c0-0.2-0.1-0.3-0.3-0.3
			h-6C103.3,35.9,103.2,36,103.2,36.2z M107.9,26.1c0.6-2,1.1-3.7,1.3-5.1c0-0.2,0-0.3-0.2-0.3h-5.2c-0.2,0-0.3,0.1-0.2,0.3
			c0.4,1.5,0.8,3.2,1.3,5.2c0,0.2,0.1,0.2,0.4,0.2h2.3C107.7,26.4,107.8,26.3,107.9,26.1z M125.9,28.1c1.1,1.1,2,2.3,2.7,3.8
			c0.6,1.4,1,2.9,1,4.4c0,2.2-0.4,3.7-1.3,4.6c-0.9,0.9-2.2,1.4-4,1.4h-0.2c-0.6,0-1.1-0.2-1.5-0.5c-0.4-0.4-0.7-0.8-0.8-1.4
			c-0.1-0.5,0-0.9,0.3-1.3c0.3-0.4,0.7-0.6,1.2-0.6c0.8-0.1,1.3-0.3,1.6-0.6c0.3-0.3,0.4-0.9,0.4-1.7c0-2-0.9-4.1-2.8-6.4
			c-0.8-1-1-2.1-0.4-3.2c1.2-2.5,2.1-4.8,2.8-7c0-0.2,0-0.3-0.2-0.3h-3.5c-0.2,0-0.3,0.1-0.3,0.3v24.4c0,0.5-0.2,1-0.6,1.4
			c-0.4,0.4-0.8,0.6-1.4,0.6h-0.5c-0.5,0-1-0.2-1.4-0.6s-0.6-0.8-0.6-1.4V17.4c0-0.5,0.2-1,0.6-1.4c0.4-0.4,0.8-0.6,1.4-0.6h9.2
			c0.5,0,0.9,0.2,1.2,0.5c0.3,0.3,0.5,0.8,0.5,1.2c0,1.2-0.2,2.4-0.6,3.5c-0.9,2.6-1.9,4.9-2.9,6.9C125.7,27.8,125.7,28,125.9,28.1z
			"/>
	</g>
</g>
<g id="工学_1_" class="st3">
	<g id="XMLID_14_" class="st4">
		<rect id="XMLID_84_" x="25.5" y="12.7" class="st5" width="459.5" height="40.9"/>
		<path id="XMLID_29_" class="st2" d="M30.1,43.7c-0.5,0-1-0.2-1.4-0.6s-0.6-0.8-0.6-1.4v-0.2c0-0.5,0.2-1,0.6-1.4
			c0.4-0.4,0.8-0.6,1.4-0.6h10.2c0.2,0,0.3-0.1,0.3-0.3V21.2c0-0.2-0.1-0.3-0.3-0.3h-9.2c-0.5,0-1-0.2-1.4-0.6s-0.6-0.8-0.6-1.4
			v-0.2c0-0.5,0.2-1,0.6-1.4s0.8-0.6,1.4-0.6H55c0.5,0,1,0.2,1.4,0.6s0.6,0.8,0.6,1.4V19c0,0.5-0.2,1-0.6,1.4s-0.8,0.6-1.4,0.6h-9.2
			c-0.2,0-0.3,0.1-0.3,0.3v18.1c0,0.2,0.1,0.3,0.3,0.3H56c0.5,0,1,0.2,1.4,0.6c0.4,0.4,0.6,0.8,0.6,1.4v0.2c0,0.5-0.2,1-0.6,1.4
			s-0.8,0.6-1.4,0.6H30.1z"/>
		<path id="XMLID_75_" class="st2" d="M64.4,37c-0.5,0-1-0.2-1.4-0.6s-0.6-0.8-0.6-1.4c0-0.5,0.2-1,0.6-1.4c0.4-0.4,0.8-0.6,1.4-0.6
			h11.7c0.2,0,0.3-0.1,0.3-0.3v-0.2c0-0.5,0.2-1,0.6-1.4c0.4-0.4,0.8-0.6,1.4-0.6h0.8c0,0,0.1,0,0.1,0c0.1,0,0.1,0,0.1,0
			c0.2,0,0.3,0,0.5-0.2c0,0,0.1-0.1,0.1-0.1c0,0,0.1-0.1,0.1-0.1c1.1-0.7,2-1.4,2.7-2c0.1-0.1,0.1-0.1-0.1-0.1H69.4
			c-0.5,0-1-0.2-1.3-0.6c-0.4-0.4-0.5-0.8-0.5-1.3v-0.1c0,0,0-0.1-0.1-0.1s-0.1,0-0.1,0c-0.4,0.5-0.9,0.7-1.5,0.7h-0.5
			c-0.5,0-1-0.2-1.4-0.6c-0.4-0.4-0.6-0.8-0.6-1.4v-4.1c0-0.5,0.2-1,0.6-1.4c0.4-0.4,0.8-0.6,1.4-0.6h2.1c0.1,0,0.1,0,0.2-0.1
			c0-0.1,0-0.1,0-0.2c-0.1-0.1-0.2-0.3-0.3-0.5c-0.1-0.2-0.2-0.4-0.3-0.5c-0.3-0.4-0.3-0.9-0.1-1.4c0.2-0.5,0.5-0.8,1-0.9l0.3-0.1
			c0.5-0.2,1-0.2,1.6,0s0.9,0.5,1.2,1c0.4,0.7,0.8,1.5,1.3,2.5c0.1,0.2,0.2,0.3,0.4,0.3h2.9c0.1,0,0.1,0,0.2-0.1c0-0.1,0-0.1,0-0.2
			c-0.1-0.1-0.2-0.4-0.4-0.7c-0.2-0.3-0.3-0.5-0.4-0.7c-0.2-0.5-0.3-0.9-0.1-1.4s0.5-0.8,1-1l0.3-0.1c0.5-0.2,1-0.2,1.6,0
			c0.5,0.2,1,0.5,1.2,1c0.6,1.1,1.1,2,1.4,2.8c0.1,0.1,0.2,0.2,0.4,0.2h2.4c0.2,0,0.4-0.1,0.5-0.2c0.7-1.1,1.1-2,1.4-2.5
			c0.3-0.5,0.6-0.9,1.2-1.1c0.5-0.2,1-0.3,1.6-0.2l0.3,0.1c0.5,0.1,0.8,0.4,1.1,0.8c0.2,0.4,0.2,0.9,0,1.3c-0.1,0.2-0.2,0.4-0.4,0.8
			s-0.3,0.6-0.4,0.8c0,0-0.1,0.1,0,0.2c0,0.1,0.1,0.1,0.2,0.1h2.1c0.5,0,1,0.2,1.4,0.6c0.4,0.4,0.6,0.8,0.6,1.4v4.1
			c0,0.5-0.2,1-0.6,1.4c-0.4,0.4-0.8,0.6-1.4,0.6h-0.5c-0.6,0-1.1-0.2-1.5-0.7c0,0-0.1,0-0.1,0s-0.1,0-0.1,0.1v0.1
			c0,1.3-0.4,2.3-1.3,3.2C86,30.7,84.5,31.8,83,33c0,0-0.1,0.1-0.1,0.1c0,0,0,0.1,0.1,0.1h8.9c0.5,0,1,0.2,1.4,0.6
			c0.4,0.4,0.6,0.8,0.6,1.4c0,0.5-0.2,1-0.6,1.4S92.4,37,91.9,37H81.4c-0.2,0-0.3,0.1-0.3,0.3v4.1c0,1.1,0,1.9-0.1,2.4
			c-0.1,0.5-0.3,0.9-0.7,1.2c-0.4,0.3-0.9,0.5-1.5,0.6c-0.6,0.1-1.6,0.1-2.9,0.1c-1.3,0-2.6,0-3.7-0.1c-0.5,0-1-0.2-1.4-0.6
			c-0.4-0.4-0.6-0.8-0.6-1.4c0-0.5,0.1-1,0.5-1.3c0.4-0.4,0.8-0.5,1.3-0.5c1.5,0.1,2.6,0.1,3.2,0.1c0.7,0,1-0.1,1.2-0.2
			c0.1-0.1,0.2-0.4,0.2-1v-3.4c0-0.2-0.1-0.3-0.3-0.3H64.4z M69.4,24.4h17.4c0.6,0,1,0.2,1.4,0.7c0,0,0.1,0,0.1,0c0,0,0-0.1,0-0.1
			c0,0,0-0.1,0-0.1v-2.2c0-0.2-0.1-0.3-0.3-0.3H68.2c-0.2,0-0.3,0.1-0.3,0.3v2.2c0,0,0,0.1,0,0.1c0,0,0,0.1,0,0.1c0,0,0,0,0.1,0.1
			c0,0,0.1,0,0.1,0C68.4,24.6,68.9,24.4,69.4,24.4z"/>
		<path id="XMLID_78_" class="st2" d="M113.4,26.4c0.5,0,1,0.2,1.4,0.5c0.4,0.4,0.5,0.8,0.5,1.4c0,0.5-0.2,1-0.5,1.4
			c-0.4,0.4-0.8,0.5-1.4,0.5H99.2c-0.5,0-1-0.2-1.3-0.5c-0.4-0.4-0.5-0.8-0.5-1.4c0-0.5,0.2-1,0.5-1.4c0.4-0.4,0.8-0.5,1.3-0.5h1.3
			c0.2,0,0.3-0.1,0.2-0.3c-0.3-1.1-0.7-2.8-1.4-5.2c0-0.1-0.1-0.2-0.3-0.2c-0.4,0-0.7-0.1-1-0.4c-0.3-0.3-0.4-0.6-0.4-1v-0.4
			c0-0.5,0.2-0.9,0.5-1.3S99,17,99.5,17h4c0.2,0,0.3-0.1,0.3-0.3V16c0-0.5,0.2-1,0.6-1.4c0.4-0.4,0.8-0.6,1.4-0.6h0.7
			c0.5,0,1,0.2,1.4,0.6c0.4,0.4,0.6,0.8,0.6,1.4v0.7c0,0.2,0.1,0.3,0.3,0.3h4.3c0.5,0,0.9,0.2,1.3,0.5s0.5,0.8,0.5,1.3v0.5
			c0,0.4-0.1,0.7-0.4,1c-0.3,0.3-0.6,0.4-1,0.4c-0.1,0-0.2,0.1-0.2,0.2c-0.3,1.6-0.8,3.3-1.4,5.3c0,0.2,0,0.2,0.2,0.2H113.4z
			 M102.1,45.7h-1.4c-0.5,0-1-0.2-1.4-0.6s-0.6-0.8-0.6-1.4v-9.5c0-0.5,0.2-1,0.6-1.4s0.8-0.6,1.4-0.6h11.4c0.5,0,1,0.2,1.4,0.6
			c0.4,0.4,0.6,0.8,0.6,1.4v9.5c0,0.5-0.2,1-0.6,1.4c-0.4,0.4-0.8,0.6-1.4,0.6h-1.3c-0.3,0-0.6-0.1-0.8-0.3
			c-0.2-0.2-0.3-0.5-0.3-0.8c0-0.1-0.1-0.2-0.2-0.2h-6.2c-0.1,0-0.1,0.1-0.1,0.2c0,0.3-0.1,0.6-0.3,0.8
			C102.7,45.6,102.4,45.7,102.1,45.7z M103.2,36.2v4.4c0,0.2,0.1,0.3,0.3,0.3h6c0.2,0,0.3-0.1,0.3-0.3v-4.4c0-0.2-0.1-0.3-0.3-0.3
			h-6C103.3,35.9,103.2,36,103.2,36.2z M107.9,26.1c0.6-2,1.1-3.7,1.3-5.1c0-0.2,0-0.3-0.2-0.3h-5.2c-0.2,0-0.3,0.1-0.2,0.3
			c0.4,1.5,0.8,3.2,1.3,5.2c0,0.2,0.1,0.2,0.4,0.2h2.3C107.7,26.4,107.8,26.3,107.9,26.1z M125.9,28.1c1.1,1.1,2,2.3,2.7,3.8
			c0.6,1.4,1,2.9,1,4.4c0,2.2-0.4,3.7-1.3,4.6c-0.9,0.9-2.2,1.4-4,1.4h-0.2c-0.6,0-1.1-0.2-1.5-0.5c-0.4-0.4-0.7-0.8-0.8-1.4
			c-0.1-0.5,0-0.9,0.3-1.3c0.3-0.4,0.7-0.6,1.2-0.6c0.8-0.1,1.3-0.3,1.6-0.6c0.3-0.3,0.4-0.9,0.4-1.7c0-2-0.9-4.1-2.8-6.4
			c-0.8-1-1-2.1-0.4-3.2c1.2-2.5,2.1-4.8,2.8-7c0-0.2,0-0.3-0.2-0.3h-3.5c-0.2,0-0.3,0.1-0.3,0.3v24.4c0,0.5-0.2,1-0.6,1.4
			c-0.4,0.4-0.8,0.6-1.4,0.6h-0.5c-0.5,0-1-0.2-1.4-0.6s-0.6-0.8-0.6-1.4V17.4c0-0.5,0.2-1,0.6-1.4c0.4-0.4,0.8-0.6,1.4-0.6h9.2
			c0.5,0,0.9,0.2,1.2,0.5c0.3,0.3,0.5,0.8,0.5,1.2c0,1.2-0.2,2.4-0.6,3.5c-0.9,2.6-1.9,4.9-2.9,6.9C125.7,27.8,125.7,28,125.9,28.1z
			"/>
	</g>
</g>
<g id="医学_1_" class="st3">
	<g id="XMLID_31_" class="st4">
		<rect id="XMLID_95_" x="25.5" y="12.7" class="st5" width="459.5" height="40.9"/>
		<path id="XMLID_15_" class="st2" d="M30.6,45.8c-0.5,0-1-0.2-1.4-0.6s-0.6-0.8-0.6-1.4V17.2c0-0.5,0.2-1,0.6-1.4s0.8-0.6,1.4-0.6
			h25.5c0.5,0,1,0.2,1.3,0.5c0.4,0.4,0.5,0.8,0.5,1.3s-0.2,1-0.5,1.3c-0.4,0.4-0.8,0.5-1.3,0.5H42.3c-0.2,0-0.2,0.1-0.2,0.2
			c0.2,0.4,0.2,0.8,0,1.3c0,0,0,0.1,0,0.2c0,0.1,0.1,0.1,0.2,0.1h12.4c0.4,0,0.8,0.2,1.2,0.5c0.3,0.3,0.5,0.7,0.5,1.2
			c0,0.4-0.2,0.8-0.5,1.2c-0.3,0.3-0.7,0.5-1.2,0.5h-6.2c-0.2,0-0.3,0.1-0.3,0.3v3.1c0,0.2,0.1,0.3,0.3,0.3h7.4
			c0.5,0,0.9,0.2,1.3,0.5c0.4,0.3,0.5,0.8,0.5,1.2c0,0.5-0.2,0.9-0.5,1.3s-0.8,0.5-1.3,0.5H49c-0.2,0-0.3,0.1-0.2,0.2
			c1.1,2.2,3.4,4.1,6.9,5.7c0.5,0.2,0.8,0.5,0.9,1c0.1,0.5,0.1,0.9-0.2,1.3c-0.3,0.5-0.8,0.8-1.3,1s-1.1,0.1-1.6-0.1
			c-3.1-1.4-5.6-3.5-7.3-6.2c0,0-0.1-0.1-0.2-0.1c-0.1,0-0.2,0-0.2,0.1c-2,2.7-4.6,4.8-8,6.3c-0.5,0.2-1.1,0.2-1.6,0.1
			c-0.5-0.2-1-0.5-1.3-1c-0.3-0.4-0.4-0.8-0.2-1.3c0.1-0.5,0.4-0.8,0.9-1c3.8-1.5,6.2-3.4,7.3-5.7c0,0,0-0.1,0-0.2
			c0-0.1-0.1-0.1-0.2-0.1h-7.1c-0.5,0-0.9-0.2-1.3-0.5S34,30,34,29.5c0-0.5,0.2-0.9,0.5-1.2c0.4-0.3,0.8-0.5,1.3-0.5h7.7
			c0.2,0,0.3-0.1,0.3-0.3v-3.1c0-0.2-0.1-0.3-0.3-0.3h-3.1c-0.2,0-0.4,0.1-0.5,0.2c-0.7,1-1.1,1.6-1.3,1.8c-0.4,0.4-0.8,0.7-1.4,0.8
			c-0.6,0.1-1.1,0-1.6-0.3c-0.4-0.2-0.7-0.6-0.8-1.1c-0.1-0.5,0-1,0.4-1.4c1.1-1.4,2-2.9,2.9-4.6c0.1-0.2,0.2-0.3,0.2-0.4
			c0,0,0.1-0.1,0-0.1c0-0.1-0.1-0.1-0.1-0.1h-5c-0.2,0-0.3,0.1-0.3,0.3v21.3c0,0.2,0.1,0.3,0.3,0.3h23.2c0.5,0,0.9,0.2,1.3,0.5
			s0.5,0.8,0.5,1.3c0,0.5-0.2,0.9-0.5,1.3c-0.4,0.4-0.8,0.5-1.3,0.5H33.2c-0.1,0-0.2,0.1-0.2,0.2c0,0.3-0.1,0.6-0.4,0.8
			c-0.2,0.2-0.5,0.4-0.9,0.4H30.6z"/>
		<path id="XMLID_86_" class="st2" d="M64.4,37c-0.5,0-1-0.2-1.4-0.6s-0.6-0.8-0.6-1.4c0-0.5,0.2-1,0.6-1.4c0.4-0.4,0.8-0.6,1.4-0.6
			h11.7c0.2,0,0.3-0.1,0.3-0.3v-0.2c0-0.5,0.2-1,0.6-1.4c0.4-0.4,0.8-0.6,1.4-0.6h0.8c0,0,0.1,0,0.1,0c0.1,0,0.1,0,0.1,0
			c0.2,0,0.3,0,0.5-0.2c0,0,0.1-0.1,0.1-0.1c0,0,0.1-0.1,0.1-0.1c1.1-0.7,2-1.4,2.7-2c0.1-0.1,0.1-0.1-0.1-0.1H69.4
			c-0.5,0-1-0.2-1.3-0.6c-0.4-0.4-0.5-0.8-0.5-1.3v-0.1c0,0,0-0.1-0.1-0.1s-0.1,0-0.1,0c-0.4,0.5-0.9,0.7-1.5,0.7h-0.5
			c-0.5,0-1-0.2-1.4-0.6c-0.4-0.4-0.6-0.8-0.6-1.4v-4.1c0-0.5,0.2-1,0.6-1.4c0.4-0.4,0.8-0.6,1.4-0.6h2.1c0.1,0,0.1,0,0.2-0.1
			c0-0.1,0-0.1,0-0.2c-0.1-0.1-0.2-0.3-0.3-0.5c-0.1-0.2-0.2-0.4-0.3-0.5c-0.3-0.4-0.3-0.9-0.1-1.4c0.2-0.5,0.5-0.8,1-0.9l0.3-0.1
			c0.5-0.2,1-0.2,1.6,0s0.9,0.5,1.2,1c0.4,0.7,0.8,1.5,1.3,2.5c0.1,0.2,0.2,0.3,0.4,0.3h2.9c0.1,0,0.1,0,0.2-0.1c0-0.1,0-0.1,0-0.2
			c-0.1-0.1-0.2-0.4-0.4-0.7c-0.2-0.3-0.3-0.5-0.4-0.7c-0.2-0.5-0.3-0.9-0.1-1.4s0.5-0.8,1-1l0.3-0.1c0.5-0.2,1-0.2,1.6,0
			c0.5,0.2,1,0.5,1.2,1c0.6,1.1,1.1,2,1.4,2.8c0.1,0.1,0.2,0.2,0.4,0.2h2.4c0.2,0,0.4-0.1,0.5-0.2c0.7-1.1,1.1-2,1.4-2.5
			c0.3-0.5,0.6-0.9,1.2-1.1c0.5-0.2,1-0.3,1.6-0.2l0.3,0.1c0.5,0.1,0.8,0.4,1.1,0.8c0.2,0.4,0.2,0.9,0,1.3c-0.1,0.2-0.2,0.4-0.4,0.8
			s-0.3,0.6-0.4,0.8c0,0-0.1,0.1,0,0.2c0,0.1,0.1,0.1,0.2,0.1h2.1c0.5,0,1,0.2,1.4,0.6c0.4,0.4,0.6,0.8,0.6,1.4v4.1
			c0,0.5-0.2,1-0.6,1.4c-0.4,0.4-0.8,0.6-1.4,0.6h-0.5c-0.6,0-1.1-0.2-1.5-0.7c0,0-0.1,0-0.1,0s-0.1,0-0.1,0.1v0.1
			c0,1.3-0.4,2.3-1.3,3.2C86,30.7,84.5,31.8,83,33c0,0-0.1,0.1-0.1,0.1c0,0,0,0.1,0.1,0.1h8.9c0.5,0,1,0.2,1.4,0.6
			c0.4,0.4,0.6,0.8,0.6,1.4c0,0.5-0.2,1-0.6,1.4S92.4,37,91.9,37H81.4c-0.2,0-0.3,0.1-0.3,0.3v4.1c0,1.1,0,1.9-0.1,2.4
			c-0.1,0.5-0.3,0.9-0.7,1.2c-0.4,0.3-0.9,0.5-1.5,0.6c-0.6,0.1-1.6,0.1-2.9,0.1c-1.3,0-2.6,0-3.7-0.1c-0.5,0-1-0.2-1.4-0.6
			c-0.4-0.4-0.6-0.8-0.6-1.4c0-0.5,0.1-1,0.5-1.3c0.4-0.4,0.8-0.5,1.3-0.5c1.5,0.1,2.6,0.1,3.2,0.1c0.7,0,1-0.1,1.2-0.2
			c0.1-0.1,0.2-0.4,0.2-1v-3.4c0-0.2-0.1-0.3-0.3-0.3H64.4z M69.4,24.4h17.4c0.6,0,1,0.2,1.4,0.7c0,0,0.1,0,0.1,0c0,0,0-0.1,0-0.1
			c0,0,0-0.1,0-0.1v-2.2c0-0.2-0.1-0.3-0.3-0.3H68.2c-0.2,0-0.3,0.1-0.3,0.3v2.2c0,0,0,0.1,0,0.1c0,0,0,0.1,0,0.1c0,0,0,0,0.1,0.1
			c0,0,0.1,0,0.1,0C68.4,24.6,68.9,24.4,69.4,24.4z"/>
		<path id="XMLID_89_" class="st2" d="M113.4,26.4c0.5,0,1,0.2,1.4,0.5c0.4,0.4,0.5,0.8,0.5,1.4c0,0.5-0.2,1-0.5,1.4
			c-0.4,0.4-0.8,0.5-1.4,0.5H99.2c-0.5,0-1-0.2-1.3-0.5c-0.4-0.4-0.5-0.8-0.5-1.4c0-0.5,0.2-1,0.5-1.4c0.4-0.4,0.8-0.5,1.3-0.5h1.3
			c0.2,0,0.3-0.1,0.2-0.3c-0.3-1.1-0.7-2.8-1.4-5.2c0-0.1-0.1-0.2-0.3-0.2c-0.4,0-0.7-0.1-1-0.4c-0.3-0.3-0.4-0.6-0.4-1v-0.4
			c0-0.5,0.2-0.9,0.5-1.3S99,17,99.5,17h4c0.2,0,0.3-0.1,0.3-0.3V16c0-0.5,0.2-1,0.6-1.4c0.4-0.4,0.8-0.6,1.4-0.6h0.7
			c0.5,0,1,0.2,1.4,0.6c0.4,0.4,0.6,0.8,0.6,1.4v0.7c0,0.2,0.1,0.3,0.3,0.3h4.3c0.5,0,0.9,0.2,1.3,0.5s0.5,0.8,0.5,1.3v0.5
			c0,0.4-0.1,0.7-0.4,1c-0.3,0.3-0.6,0.4-1,0.4c-0.1,0-0.2,0.1-0.2,0.2c-0.3,1.6-0.8,3.3-1.4,5.3c0,0.2,0,0.2,0.2,0.2H113.4z
			 M102.1,45.7h-1.4c-0.5,0-1-0.2-1.4-0.6s-0.6-0.8-0.6-1.4v-9.5c0-0.5,0.2-1,0.6-1.4s0.8-0.6,1.4-0.6h11.4c0.5,0,1,0.2,1.4,0.6
			c0.4,0.4,0.6,0.8,0.6,1.4v9.5c0,0.5-0.2,1-0.6,1.4c-0.4,0.4-0.8,0.6-1.4,0.6h-1.3c-0.3,0-0.6-0.1-0.8-0.3
			c-0.2-0.2-0.3-0.5-0.3-0.8c0-0.1-0.1-0.2-0.2-0.2h-6.2c-0.1,0-0.1,0.1-0.1,0.2c0,0.3-0.1,0.6-0.3,0.8
			C102.7,45.6,102.4,45.7,102.1,45.7z M103.2,36.2v4.4c0,0.2,0.1,0.3,0.3,0.3h6c0.2,0,0.3-0.1,0.3-0.3v-4.4c0-0.2-0.1-0.3-0.3-0.3
			h-6C103.3,35.9,103.2,36,103.2,36.2z M107.9,26.1c0.6-2,1.1-3.7,1.3-5.1c0-0.2,0-0.3-0.2-0.3h-5.2c-0.2,0-0.3,0.1-0.2,0.3
			c0.4,1.5,0.8,3.2,1.3,5.2c0,0.2,0.1,0.2,0.4,0.2h2.3C107.7,26.4,107.8,26.3,107.9,26.1z M125.9,28.1c1.1,1.1,2,2.3,2.7,3.8
			c0.6,1.4,1,2.9,1,4.4c0,2.2-0.4,3.7-1.3,4.6c-0.9,0.9-2.2,1.4-4,1.4h-0.2c-0.6,0-1.1-0.2-1.5-0.5c-0.4-0.4-0.7-0.8-0.8-1.4
			c-0.1-0.5,0-0.9,0.3-1.3c0.3-0.4,0.7-0.6,1.2-0.6c0.8-0.1,1.3-0.3,1.6-0.6c0.3-0.3,0.4-0.9,0.4-1.7c0-2-0.9-4.1-2.8-6.4
			c-0.8-1-1-2.1-0.4-3.2c1.2-2.5,2.1-4.8,2.8-7c0-0.2,0-0.3-0.2-0.3h-3.5c-0.2,0-0.3,0.1-0.3,0.3v24.4c0,0.5-0.2,1-0.6,1.4
			c-0.4,0.4-0.8,0.6-1.4,0.6h-0.5c-0.5,0-1-0.2-1.4-0.6s-0.6-0.8-0.6-1.4V17.4c0-0.5,0.2-1,0.6-1.4c0.4-0.4,0.8-0.6,1.4-0.6h9.2
			c0.5,0,0.9,0.2,1.2,0.5c0.3,0.3,0.5,0.8,0.5,1.2c0,1.2-0.2,2.4-0.6,3.5c-0.9,2.6-1.9,4.9-2.9,6.9C125.7,27.8,125.7,28,125.9,28.1z
			"/>
	</g>
</g>
<g id="理学_1_" class="st3">
	<g id="XMLID_28_" class="st4">
		<rect id="XMLID_112_" x="25.5" y="12.7" class="st5" width="459.5" height="40.9"/>
		<path id="XMLID_32_" class="st2" d="M29.1,20.5c-0.5,0-1-0.2-1.4-0.6s-0.6-0.8-0.6-1.4v-0.1c0-0.5,0.2-1,0.6-1.4s0.8-0.6,1.4-0.6
			h6.6c0.4,0,0.8,0.2,1.2,0.5c0.1,0.1,0.2,0.1,0.3-0.1c0.1-0.4,0.3-0.8,0.7-1.1c0.4-0.3,0.8-0.4,1.2-0.4h16.9c0.5,0,1,0.2,1.4,0.6
			c0.4,0.4,0.6,0.8,0.6,1.4v12.7c0,0.5-0.2,1-0.6,1.4c-0.4,0.4-0.8,0.6-1.4,0.6H50c-0.2,0-0.3,0.1-0.3,0.3v2.3
			c0,0.2,0.1,0.3,0.3,0.3h6.6c0.5,0,0.9,0.2,1.2,0.5c0.3,0.3,0.5,0.7,0.5,1.2c0,0.5-0.2,0.9-0.5,1.2c-0.3,0.3-0.7,0.5-1.2,0.5H50
			c-0.2,0-0.3,0.1-0.3,0.3V41c0,0.2,0.1,0.3,0.3,0.3h6.9c0.5,0,1,0.2,1.3,0.5s0.5,0.8,0.5,1.3c0,0.5-0.2,0.9-0.5,1.3
			s-0.8,0.5-1.3,0.5H37.1c-0.5,0-0.9-0.2-1.3-0.5s-0.5-0.8-0.5-1.3c0-0.5,0.2-0.9,0.5-1.3s0.8-0.5,1.3-0.5h7.9
			c0.2,0,0.3-0.1,0.3-0.3v-2.5c0-0.2-0.1-0.3-0.3-0.3h-6.3c-0.4,0-0.6-0.1-0.9-0.2c0,0-0.1-0.1-0.1,0c-0.1,0-0.1,0.1-0.1,0.1
			c0,0.6-0.1,1.1-0.4,1.6c-0.3,0.5-0.7,0.8-1.2,1c-1.8,0.6-4,1.3-6.7,1.9c-0.5,0.1-1,0-1.4-0.3c-0.4-0.3-0.7-0.7-0.7-1.2
			c0-0.6,0.1-1.1,0.4-1.5c0.3-0.5,0.7-0.7,1.3-0.9c0.1,0,0.3-0.1,0.5-0.1c0.2-0.1,0.4-0.1,0.5-0.1c0.2,0,0.3-0.2,0.3-0.4v-7.4
			c0-0.2-0.1-0.3-0.3-0.3h-0.5c-0.5,0-1-0.2-1.4-0.6c-0.4-0.4-0.6-0.8-0.6-1.4c0-0.5,0.2-1,0.6-1.4c0.4-0.4,0.8-0.6,1.4-0.6h0.5
			c0.2,0,0.3-0.1,0.3-0.3v-5.3c0-0.2-0.1-0.3-0.3-0.3H29.1z M34.5,20.8v5.3c0,0.2,0.1,0.3,0.3,0.3h0.7c0.5,0,1,0.2,1.4,0.6
			C37,27.1,37,27,37,26.8v-6.7c0,0,0-0.1-0.1-0.1c0,0-0.1,0-0.1,0c-0.4,0.3-0.8,0.5-1.2,0.5h-0.8C34.6,20.5,34.5,20.6,34.5,20.8z
			 M34.5,30.5v6.2c0,0.2,0.1,0.3,0.3,0.2c0.1,0,0.2-0.1,0.4-0.1c0.2-0.1,0.3-0.1,0.4-0.1c0.4-0.1,0.8-0.1,1.2,0.1
			c0.1,0,0.1,0,0.1-0.1c0-0.1,0-0.2,0-0.3c0-0.5,0.2-0.9,0.5-1.2s0.7-0.5,1.2-0.5h6.3c0.2,0,0.3-0.1,0.3-0.3v-2.3
			c0-0.2-0.1-0.3-0.3-0.3h-3.8H39c-0.5,0-1-0.2-1.4-0.6c-0.4-0.4-0.6-0.8-0.6-1.4v-0.1c0,0,0-0.1-0.1-0.1c0,0-0.1,0-0.1,0
			c-0.4,0.4-0.8,0.6-1.4,0.6h-0.7C34.6,30.3,34.5,30.4,34.5,30.5z M41.2,19.1v2.6c0,0.2,0.1,0.3,0.3,0.3h3.5c0.2,0,0.3-0.1,0.3-0.3
			v-2.6c0-0.2-0.1-0.3-0.3-0.3h-3.5C41.2,18.8,41.2,18.9,41.2,19.1z M41.2,25.4v2.8c0,0.2,0.1,0.3,0.3,0.3h3.5
			c0.2,0,0.3-0.1,0.3-0.3v-2.8c0-0.2-0.1-0.3-0.3-0.3h-3.5C41.2,25.1,41.2,25.2,41.2,25.4z M49.7,19.1v2.6c0,0.2,0.1,0.3,0.3,0.3
			h3.4c0.2,0,0.3-0.1,0.3-0.3v-2.6c0-0.2-0.1-0.3-0.3-0.3H50C49.8,18.8,49.7,18.9,49.7,19.1z M49.7,25.4v2.8c0,0.2,0.1,0.3,0.3,0.3
			h3.4c0.2,0,0.3-0.1,0.3-0.3v-2.8c0-0.2-0.1-0.3-0.3-0.3H50C49.8,25.1,49.7,25.2,49.7,25.4z"/>
		<path id="XMLID_103_" class="st2" d="M64.4,37c-0.5,0-1-0.2-1.4-0.6s-0.6-0.8-0.6-1.4c0-0.5,0.2-1,0.6-1.4
			c0.4-0.4,0.8-0.6,1.4-0.6h11.7c0.2,0,0.3-0.1,0.3-0.3v-0.2c0-0.5,0.2-1,0.6-1.4c0.4-0.4,0.8-0.6,1.4-0.6h0.8c0,0,0.1,0,0.1,0
			c0.1,0,0.1,0,0.1,0c0.2,0,0.3,0,0.5-0.2c0,0,0.1-0.1,0.1-0.1c0,0,0.1-0.1,0.1-0.1c1.1-0.7,2-1.4,2.7-2c0.1-0.1,0.1-0.1-0.1-0.1
			H69.4c-0.5,0-1-0.2-1.3-0.6c-0.4-0.4-0.5-0.8-0.5-1.3v-0.1c0,0,0-0.1-0.1-0.1s-0.1,0-0.1,0c-0.4,0.5-0.9,0.7-1.5,0.7h-0.5
			c-0.5,0-1-0.2-1.4-0.6c-0.4-0.4-0.6-0.8-0.6-1.4v-4.1c0-0.5,0.2-1,0.6-1.4c0.4-0.4,0.8-0.6,1.4-0.6h2.1c0.1,0,0.1,0,0.2-0.1
			c0-0.1,0-0.1,0-0.2c-0.1-0.1-0.2-0.3-0.3-0.5c-0.1-0.2-0.2-0.4-0.3-0.5c-0.3-0.4-0.3-0.9-0.1-1.4c0.2-0.5,0.5-0.8,1-0.9l0.3-0.1
			c0.5-0.2,1-0.2,1.6,0s0.9,0.5,1.2,1c0.4,0.7,0.8,1.5,1.3,2.5c0.1,0.2,0.2,0.3,0.4,0.3h2.9c0.1,0,0.1,0,0.2-0.1c0-0.1,0-0.1,0-0.2
			c-0.1-0.1-0.2-0.4-0.4-0.7c-0.2-0.3-0.3-0.5-0.4-0.7c-0.2-0.5-0.3-0.9-0.1-1.4s0.5-0.8,1-1l0.3-0.1c0.5-0.2,1-0.2,1.6,0
			c0.5,0.2,1,0.5,1.2,1c0.6,1.1,1.1,2,1.4,2.8c0.1,0.1,0.2,0.2,0.4,0.2h2.4c0.2,0,0.4-0.1,0.5-0.2c0.7-1.1,1.1-2,1.4-2.5
			c0.3-0.5,0.6-0.9,1.2-1.1c0.5-0.2,1-0.3,1.6-0.2l0.3,0.1c0.5,0.1,0.8,0.4,1.1,0.8c0.2,0.4,0.2,0.9,0,1.3c-0.1,0.2-0.2,0.4-0.4,0.8
			s-0.3,0.6-0.4,0.8c0,0-0.1,0.1,0,0.2c0,0.1,0.1,0.1,0.2,0.1h2.1c0.5,0,1,0.2,1.4,0.6c0.4,0.4,0.6,0.8,0.6,1.4v4.1
			c0,0.5-0.2,1-0.6,1.4c-0.4,0.4-0.8,0.6-1.4,0.6h-0.5c-0.6,0-1.1-0.2-1.5-0.7c0,0-0.1,0-0.1,0s-0.1,0-0.1,0.1v0.1
			c0,1.3-0.4,2.3-1.3,3.2C86,30.7,84.5,31.8,83,33c0,0-0.1,0.1-0.1,0.1c0,0,0,0.1,0.1,0.1h8.9c0.5,0,1,0.2,1.4,0.6
			c0.4,0.4,0.6,0.8,0.6,1.4c0,0.5-0.2,1-0.6,1.4S92.4,37,91.9,37H81.4c-0.2,0-0.3,0.1-0.3,0.3v4.1c0,1.1,0,1.9-0.1,2.4
			c-0.1,0.5-0.3,0.9-0.7,1.2c-0.4,0.3-0.9,0.5-1.5,0.6c-0.6,0.1-1.6,0.1-2.9,0.1c-1.3,0-2.6,0-3.7-0.1c-0.5,0-1-0.2-1.4-0.6
			c-0.4-0.4-0.6-0.8-0.6-1.4c0-0.5,0.1-1,0.5-1.3c0.4-0.4,0.8-0.5,1.3-0.5c1.5,0.1,2.6,0.1,3.2,0.1c0.7,0,1-0.1,1.2-0.2
			c0.1-0.1,0.2-0.4,0.2-1v-3.4c0-0.2-0.1-0.3-0.3-0.3H64.4z M69.4,24.4h17.4c0.6,0,1,0.2,1.4,0.7c0,0,0.1,0,0.1,0c0,0,0-0.1,0-0.1
			c0,0,0-0.1,0-0.1v-2.2c0-0.2-0.1-0.3-0.3-0.3H68.2c-0.2,0-0.3,0.1-0.3,0.3v2.2c0,0,0,0.1,0,0.1c0,0,0,0.1,0,0.1c0,0,0,0,0.1,0.1
			c0,0,0.1,0,0.1,0C68.4,24.6,68.9,24.4,69.4,24.4z"/>
		<path id="XMLID_106_" class="st2" d="M113.4,26.4c0.5,0,1,0.2,1.4,0.5c0.4,0.4,0.5,0.8,0.5,1.4c0,0.5-0.2,1-0.5,1.4
			c-0.4,0.4-0.8,0.5-1.4,0.5H99.2c-0.5,0-1-0.2-1.3-0.5c-0.4-0.4-0.5-0.8-0.5-1.4c0-0.5,0.2-1,0.5-1.4c0.4-0.4,0.8-0.5,1.3-0.5h1.3
			c0.2,0,0.3-0.1,0.2-0.3c-0.3-1.1-0.7-2.8-1.4-5.2c0-0.1-0.1-0.2-0.3-0.2c-0.4,0-0.7-0.1-1-0.4c-0.3-0.3-0.4-0.6-0.4-1v-0.4
			c0-0.5,0.2-0.9,0.5-1.3S99,17,99.5,17h4c0.2,0,0.3-0.1,0.3-0.3V16c0-0.5,0.2-1,0.6-1.4c0.4-0.4,0.8-0.6,1.4-0.6h0.7
			c0.5,0,1,0.2,1.4,0.6c0.4,0.4,0.6,0.8,0.6,1.4v0.7c0,0.2,0.1,0.3,0.3,0.3h4.3c0.5,0,0.9,0.2,1.3,0.5s0.5,0.8,0.5,1.3v0.5
			c0,0.4-0.1,0.7-0.4,1c-0.3,0.3-0.6,0.4-1,0.4c-0.1,0-0.2,0.1-0.2,0.2c-0.3,1.6-0.8,3.3-1.4,5.3c0,0.2,0,0.2,0.2,0.2H113.4z
			 M102.1,45.7h-1.4c-0.5,0-1-0.2-1.4-0.6s-0.6-0.8-0.6-1.4v-9.5c0-0.5,0.2-1,0.6-1.4s0.8-0.6,1.4-0.6h11.4c0.5,0,1,0.2,1.4,0.6
			c0.4,0.4,0.6,0.8,0.6,1.4v9.5c0,0.5-0.2,1-0.6,1.4c-0.4,0.4-0.8,0.6-1.4,0.6h-1.3c-0.3,0-0.6-0.1-0.8-0.3
			c-0.2-0.2-0.3-0.5-0.3-0.8c0-0.1-0.1-0.2-0.2-0.2h-6.2c-0.1,0-0.1,0.1-0.1,0.2c0,0.3-0.1,0.6-0.3,0.8
			C102.7,45.6,102.4,45.7,102.1,45.7z M103.2,36.2v4.4c0,0.2,0.1,0.3,0.3,0.3h6c0.2,0,0.3-0.1,0.3-0.3v-4.4c0-0.2-0.1-0.3-0.3-0.3
			h-6C103.3,35.9,103.2,36,103.2,36.2z M107.9,26.1c0.6-2,1.1-3.7,1.3-5.1c0-0.2,0-0.3-0.2-0.3h-5.2c-0.2,0-0.3,0.1-0.2,0.3
			c0.4,1.5,0.8,3.2,1.3,5.2c0,0.2,0.1,0.2,0.4,0.2h2.3C107.7,26.4,107.8,26.3,107.9,26.1z M125.9,28.1c1.1,1.1,2,2.3,2.7,3.8
			c0.6,1.4,1,2.9,1,4.4c0,2.2-0.4,3.7-1.3,4.6c-0.9,0.9-2.2,1.4-4,1.4h-0.2c-0.6,0-1.1-0.2-1.5-0.5c-0.4-0.4-0.7-0.8-0.8-1.4
			c-0.1-0.5,0-0.9,0.3-1.3c0.3-0.4,0.7-0.6,1.2-0.6c0.8-0.1,1.3-0.3,1.6-0.6c0.3-0.3,0.4-0.9,0.4-1.7c0-2-0.9-4.1-2.8-6.4
			c-0.8-1-1-2.1-0.4-3.2c1.2-2.5,2.1-4.8,2.8-7c0-0.2,0-0.3-0.2-0.3h-3.5c-0.2,0-0.3,0.1-0.3,0.3v24.4c0,0.5-0.2,1-0.6,1.4
			c-0.4,0.4-0.8,0.6-1.4,0.6h-0.5c-0.5,0-1-0.2-1.4-0.6s-0.6-0.8-0.6-1.4V17.4c0-0.5,0.2-1,0.6-1.4c0.4-0.4,0.8-0.6,1.4-0.6h9.2
			c0.5,0,0.9,0.2,1.2,0.5c0.3,0.3,0.5,0.8,0.5,1.2c0,1.2-0.2,2.4-0.6,3.5c-0.9,2.6-1.9,4.9-2.9,6.9C125.7,27.8,125.7,28,125.9,28.1z
			"/>
	</g>
</g>
<g id="情報_1_" class="st3">
	<g id="XMLID_26_" class="st4">
		<rect id="XMLID_130_" x="25.5" y="12.7" class="st5" width="459.5" height="40.9"/>
		<path id="XMLID_30_" class="st2" d="M28.8,33.4c-0.4,0.2-0.7,0.3-1.2,0.2c-0.4-0.1-0.8-0.3-1-0.7c-0.2-0.4-0.3-0.7-0.3-1.2
			c0.6-3.3,1-6.3,1.3-9.2c0-0.4,0.2-0.8,0.6-1c0.3-0.3,0.7-0.4,1.1-0.3c0.4,0,0.7,0.2,0.9,0.4c0,0,0.1,0.1,0.1,0
			c0,0,0.1-0.1,0.1-0.1v-5c0-0.5,0.2-1,0.6-1.4s0.8-0.6,1.4-0.6h0.4c0.5,0,1,0.2,1.4,0.6c0.4,0.4,0.6,0.8,0.6,1.4v4
			c0,0.1,0.1,0.2,0.2,0.1c0.1-0.1,0.3-0.2,0.5-0.2c0.4-0.1,0.8,0,1.1,0.2c0.3,0.2,0.6,0.5,0.7,0.9c0.3,1.3,0.6,2.4,0.8,3.3
			c0,0.2,0.1,0.2,0.4,0.2h6.8c0.2,0,0.3-0.1,0.3-0.3v-0.7c0-0.2-0.1-0.3-0.3-0.3h-5.5c-0.4,0-0.7-0.1-1-0.4c-0.3-0.3-0.4-0.6-0.4-1
			s0.1-0.7,0.4-1c0.3-0.3,0.6-0.4,1-0.4h5.5c0.2,0,0.3-0.1,0.3-0.3v-0.7c0-0.2-0.1-0.3-0.3-0.3h-6.4c-0.4,0-0.8-0.2-1.1-0.5
			s-0.5-0.7-0.5-1.1c0-0.4,0.2-0.8,0.5-1.1c0.3-0.3,0.7-0.5,1.1-0.5h6.4c0.2,0,0.3-0.1,0.3-0.3c0-0.5,0.2-1,0.6-1.4
			c0.4-0.4,0.8-0.5,1.3-0.5h0.9c0.5,0,1,0.2,1.3,0.5c0.4,0.4,0.6,0.8,0.6,1.4c0,0.2,0.1,0.3,0.3,0.3h6.1c0.4,0,0.8,0.2,1.1,0.5
			c0.3,0.3,0.5,0.7,0.5,1.1c0,0.4-0.2,0.8-0.5,1.1c-0.3,0.3-0.7,0.5-1.1,0.5h-6.1c-0.2,0-0.3,0.1-0.3,0.3v0.7c0,0.2,0.1,0.3,0.3,0.3
			h5.3c0.4,0,0.7,0.1,1,0.4c0.3,0.3,0.4,0.6,0.4,1s-0.1,0.7-0.4,1c-0.3,0.3-0.6,0.4-1,0.4h-5.3c-0.2,0-0.3,0.1-0.3,0.3v0.7
			c0,0.2,0.1,0.3,0.3,0.3h6.8c0.4,0,0.8,0.2,1.1,0.5c0.3,0.3,0.5,0.7,0.5,1.1c0,0.4-0.2,0.8-0.5,1.1c-0.3,0.3-0.7,0.5-1.1,0.5H38.5
			h-0.3c-0.2,0-0.3,0-0.5,0.1c-0.1,0-0.2,0.1-0.4,0.1c-0.4,0.1-0.8,0-1.1-0.2c-0.4-0.2-0.6-0.5-0.7-0.9c0-0.3-0.2-1.3-0.6-2.9
			c0,0,0,0-0.1,0v19.5c0,0.5-0.2,1-0.6,1.4c-0.4,0.4-0.8,0.6-1.4,0.6h-0.4c-0.5,0-1-0.2-1.4-0.6s-0.6-0.8-0.6-1.4V25.8l0,0
			c-0.3,2.5-0.6,4.8-1,6.7C29.4,32.9,29.2,33.2,28.8,33.4z M51.5,42.2c0.6,0,0.9,0,1-0.1c0.1-0.1,0.1-0.3,0.1-0.8V41
			c0-0.2-0.1-0.3-0.3-0.3h-9.9c-0.2,0-0.3,0.1-0.3,0.3v2.7c0,0.5-0.2,1-0.6,1.4c-0.4,0.4-0.8,0.6-1.4,0.6h-0.6c-0.5,0-1-0.2-1.4-0.6
			s-0.6-0.8-0.6-1.4V31.4c0-0.5,0.2-1,0.6-1.4s0.8-0.6,1.4-0.6h15.7c0.5,0,1,0.2,1.4,0.6s0.6,0.8,0.6,1.4v9.5c0,2.2-0.3,3.5-0.8,4
			c-0.5,0.5-2,0.7-4.3,0.7c-0.8,0-1.7,0-2.6-0.1c-0.5,0-0.9-0.2-1.3-0.6c-0.3-0.4-0.5-0.8-0.5-1.3c0-0.5,0.1-0.9,0.5-1.2
			c0.3-0.3,0.7-0.5,1.2-0.5C50.7,42.1,51.4,42.2,51.5,42.2z M42.2,32.8v0.8c0,0.2,0.1,0.3,0.3,0.3h9.9c0.2,0,0.3-0.1,0.3-0.3v-0.8
			c0-0.2-0.1-0.3-0.3-0.3h-9.9C42.3,32.5,42.2,32.6,42.2,32.8z M52.4,38c0.2,0,0.3-0.1,0.3-0.3v-0.8c0-0.2-0.1-0.3-0.3-0.3h-9.9
			c-0.2,0-0.3,0.1-0.3,0.3v0.8c0,0.2,0.1,0.3,0.3,0.3H52.4z"/>
		<path id="XMLID_117_" class="st2" d="M64.3,26.3c-0.5,0-0.9-0.2-1.3-0.5s-0.5-0.8-0.5-1.3s0.2-0.9,0.5-1.3
			c0.4-0.4,0.8-0.5,1.3-0.5h3.3c0.2,0,0.3-0.1,0.3-0.3v-2.1c0-0.2-0.1-0.3-0.3-0.3h-2.5c-0.5,0-0.9-0.2-1.2-0.5
			c-0.3-0.3-0.5-0.7-0.5-1.2s0.2-0.9,0.5-1.2c0.3-0.3,0.7-0.5,1.2-0.5h2.5c0.2,0,0.3-0.1,0.3-0.3v-0.1c0-0.5,0.2-1,0.6-1.4
			c0.4-0.4,0.8-0.6,1.4-0.6h0.6c0.5,0,1,0.2,1.4,0.6s0.6,0.8,0.6,1.4v0.1c0,0.2,0.1,0.3,0.3,0.3h2.3c0.5,0,0.9,0.2,1.2,0.5
			c0.3,0.3,0.5,0.7,0.5,1.2s-0.2,0.9-0.5,1.2c-0.3,0.3-0.7,0.5-1.2,0.5h-2.3c-0.2,0-0.3,0.1-0.3,0.3v2.1c0,0.2,0.1,0.3,0.3,0.3H76
			c0.4,0,0.9,0.2,1.2,0.5c0,0,0.1,0.1,0.1,0s0.1-0.1,0.1-0.1v-5.7c0-0.5,0.2-1,0.6-1.4c0.4-0.4,0.8-0.6,1.4-0.6h12.2
			c0.5,0,1,0.2,1.4,0.6c0.4,0.4,0.5,0.8,0.5,1.3c-0.1,2.2-0.3,3.7-0.5,4.6c-0.2,0.9-0.5,1.5-0.8,1.8c-0.3,0.3-0.9,0.4-1.6,0.4
			c-0.9,0-2.5,0-4.8-0.1c-0.4,0-0.8-0.2-1.2-0.5c-0.3-0.3-0.5-0.7-0.5-1.2c0-0.4,0.1-0.8,0.4-1.1c0.3-0.3,0.7-0.5,1.1-0.4
			c1.3,0.1,2.2,0.1,2.8,0.1c0.3,0,0.4-0.1,0.5-0.2c0.1-0.1,0.1-0.6,0.2-1.3c0-0.2-0.1-0.3-0.3-0.3H82c-0.2,0-0.3,0.1-0.3,0.3V25
			c0,0.2,0.1,0.3,0.3,0.3h9.7c0.5,0,0.9,0.2,1.3,0.5s0.5,0.8,0.5,1.3c0,0.7-0.3,1.2-0.9,1.5c-0.1,0.1-0.2,0.2,0,0.3
			c0.5,0.5,0.7,1.1,0.6,1.8c-0.6,2.7-1.5,5.2-2.9,7.5c-0.1,0.2-0.1,0.3,0,0.5c0.7,0.7,1.5,1.4,2.5,2.1c0.5,0.4,0.8,0.8,1,1.3
			c0.2,0.5,0.2,1,0,1.6l-0.1,0.3c-0.2,0.5-0.5,0.8-1,1c-0.5,0.2-0.9,0.1-1.4-0.1c-1.3-0.8-2.4-1.7-3.5-2.7c-0.1-0.1-0.3-0.1-0.4,0
			c-0.7,0.9-1.6,1.6-2.5,2.3c-0.4,0.3-0.8,0.4-1.3,0.3c-0.5-0.1-0.9-0.4-1.1-0.9l-0.2-0.4c-0.2-0.5-0.3-1-0.2-1.5
			c0.1-0.5,0.4-1,0.8-1.3c0.6-0.5,1.2-1.1,1.8-1.7c0.1-0.2,0.1-0.3,0-0.5c-1.2-1.7-2.1-3.5-2.8-5.3c-0.2-0.5-0.2-1,0.1-1.5
			c0.2-0.5,0.6-0.9,1.1-1.2l0.1-0.1c0.5-0.2,0.9-0.2,1.4,0c0.5,0.2,0.8,0.5,1,1c0.5,1.1,1,2.3,1.7,3.4c0.1,0.2,0.2,0.2,0.3,0
			c0.7-1.5,1.3-3.2,1.7-5c0.1-0.3,0.2-0.6,0.4-0.8c0.1-0.1,0.1-0.2-0.1-0.2H82c-0.2,0-0.3,0.1-0.3,0.3v14.6c0,0.5-0.2,1-0.6,1.4
			s-0.8,0.6-1.4,0.6h-0.3c-0.5,0-1-0.2-1.4-0.6s-0.6-0.8-0.6-1.4v-9c0,0,0-0.1-0.1-0.1c0,0-0.1,0-0.1,0c-0.4,0.3-0.8,0.5-1.2,0.5
			h-3.4c-0.2,0-0.3,0.1-0.3,0.3v2.3c0,0.2,0.1,0.3,0.3,0.3H75c0.5,0,0.9,0.2,1.2,0.5c0.3,0.3,0.5,0.7,0.5,1.2c0,0.5-0.2,0.9-0.5,1.2
			c-0.3,0.3-0.7,0.5-1.2,0.5h-2.4c-0.2,0-0.3,0.1-0.3,0.3v2.3c0,0.5-0.2,1-0.6,1.4S70.9,46,70.4,46h-0.6c-0.5,0-1-0.2-1.4-0.6
			c-0.4-0.4-0.6-0.8-0.6-1.4v-2.3c0-0.2-0.1-0.3-0.3-0.3h-2.7c-0.5,0-0.9-0.2-1.2-0.5c-0.3-0.3-0.5-0.7-0.5-1.2
			c0-0.5,0.2-0.9,0.5-1.2c0.3-0.3,0.7-0.5,1.2-0.5h2.7c0.2,0,0.3-0.1,0.3-0.3v-2.3c0-0.2-0.1-0.3-0.3-0.3h-3.1
			c-0.5,0-0.9-0.2-1.3-0.5c-0.4-0.4-0.5-0.8-0.5-1.3c0-0.5,0.2-0.9,0.5-1.3c0.4-0.4,0.8-0.5,1.3-0.5h0.8c0.2,0,0.3-0.1,0.2-0.3
			c-0.4-1.9-0.7-3.3-0.9-4.2c0-0.1,0-0.2,0-0.5C64.6,26.4,64.5,26.3,64.3,26.3z M72.3,26.3h-3.9c-0.2,0-0.3,0.1-0.2,0.2
			c0.3,1.3,0.6,2.7,0.8,4.1c0,0.1,0,0.3,0,0.5c0,0.2,0.1,0.3,0.2,0.3h1.5c0.1,0,0.3-0.1,0.4-0.3c0.5-1.5,1-3,1.3-4.6
			C72.5,26.4,72.4,26.3,72.3,26.3z M77.3,25.8c-0.2,0.2-0.5,0.4-0.8,0.4c-0.2,0-0.3,0.2-0.3,0.3c0,0.1,0,0.2,0,0.3
			c-0.4,1.5-0.8,2.9-1.3,4.3c0,0.2,0,0.3,0.2,0.3h1c0.5,0,0.9,0.2,1.2,0.5c0,0,0.1,0.1,0.1,0s0.1-0.1,0.1-0.1v-6c0,0,0-0.1-0.1-0.1
			S77.3,25.7,77.3,25.8z"/>
		<path id="XMLID_121_" class="st2" d="M99.4,37c-0.5,0-1-0.2-1.4-0.6s-0.6-0.8-0.6-1.4c0-0.5,0.2-1,0.6-1.4
			c0.4-0.4,0.8-0.6,1.4-0.6h11.7c0.2,0,0.3-0.1,0.3-0.3v-0.2c0-0.5,0.2-1,0.6-1.4c0.4-0.4,0.8-0.6,1.4-0.6h0.8c0,0,0.1,0,0.1,0
			c0.1,0,0.1,0,0.1,0c0.2,0,0.3,0,0.5-0.2c0,0,0.1-0.1,0.1-0.1c0,0,0.1-0.1,0.1-0.1c1.1-0.7,2-1.4,2.7-2c0.1-0.1,0.1-0.1-0.1-0.1
			h-13.4c-0.5,0-1-0.2-1.3-0.6c-0.4-0.4-0.5-0.8-0.5-1.3v-0.1c0,0,0-0.1-0.1-0.1s-0.1,0-0.1,0c-0.4,0.5-0.9,0.7-1.5,0.7h-0.5
			c-0.5,0-1-0.2-1.4-0.6c-0.4-0.4-0.6-0.8-0.6-1.4v-4.1c0-0.5,0.2-1,0.6-1.4c0.4-0.4,0.8-0.6,1.4-0.6h2.1c0.1,0,0.1,0,0.2-0.1
			c0-0.1,0-0.1,0-0.2c-0.1-0.1-0.2-0.3-0.3-0.5c-0.1-0.2-0.2-0.4-0.3-0.5c-0.3-0.4-0.3-0.9-0.1-1.4c0.2-0.5,0.5-0.8,1-0.9l0.3-0.1
			c0.5-0.2,1-0.2,1.6,0s0.9,0.5,1.2,1c0.4,0.7,0.8,1.5,1.3,2.5c0.1,0.2,0.2,0.3,0.4,0.3h2.9c0.1,0,0.1,0,0.2-0.1c0-0.1,0-0.1,0-0.2
			c-0.1-0.1-0.2-0.4-0.4-0.7c-0.2-0.3-0.3-0.5-0.4-0.7c-0.2-0.5-0.3-0.9-0.1-1.4s0.5-0.8,1-1l0.3-0.1c0.5-0.2,1-0.2,1.6,0
			c0.5,0.2,1,0.5,1.2,1c0.6,1.1,1.1,2,1.4,2.8c0.1,0.1,0.2,0.2,0.4,0.2h2.4c0.2,0,0.4-0.1,0.5-0.2c0.7-1.1,1.1-2,1.4-2.5
			c0.3-0.5,0.6-0.9,1.2-1.1c0.5-0.2,1-0.3,1.6-0.2l0.3,0.1c0.5,0.1,0.8,0.4,1.1,0.8c0.2,0.4,0.2,0.9,0,1.3c-0.1,0.2-0.2,0.4-0.4,0.8
			s-0.3,0.6-0.4,0.8c0,0-0.1,0.1,0,0.2c0,0.1,0.1,0.1,0.2,0.1h2.1c0.5,0,1,0.2,1.4,0.6c0.4,0.4,0.6,0.8,0.6,1.4v4.1
			c0,0.5-0.2,1-0.6,1.4c-0.4,0.4-0.8,0.6-1.4,0.6h-0.5c-0.6,0-1.1-0.2-1.5-0.7c0,0-0.1,0-0.1,0s-0.1,0-0.1,0.1v0.1
			c0,1.3-0.4,2.3-1.3,3.2c-1.3,1.2-2.8,2.4-4.4,3.5c0,0-0.1,0.1-0.1,0.1c0,0,0,0.1,0.1,0.1h8.9c0.5,0,1,0.2,1.4,0.6
			c0.4,0.4,0.6,0.8,0.6,1.4c0,0.5-0.2,1-0.6,1.4s-0.8,0.6-1.4,0.6h-10.5c-0.2,0-0.3,0.1-0.3,0.3v4.1c0,1.1,0,1.9-0.1,2.4
			c-0.1,0.5-0.3,0.9-0.7,1.2c-0.4,0.3-0.9,0.5-1.5,0.6c-0.6,0.1-1.6,0.1-2.9,0.1c-1.3,0-2.6,0-3.7-0.1c-0.5,0-1-0.2-1.4-0.6
			c-0.4-0.4-0.6-0.8-0.6-1.4c0-0.5,0.1-1,0.5-1.3c0.4-0.4,0.8-0.5,1.3-0.5c1.5,0.1,2.6,0.1,3.2,0.1c0.7,0,1-0.1,1.2-0.2
			c0.1-0.1,0.2-0.4,0.2-1v-3.4c0-0.2-0.1-0.3-0.3-0.3H99.4z M104.5,24.4h17.4c0.6,0,1,0.2,1.4,0.7c0,0,0.1,0,0.1,0c0,0,0-0.1,0-0.1
			c0,0,0-0.1,0-0.1v-2.2c0-0.2-0.1-0.3-0.3-0.3h-19.9c-0.2,0-0.3,0.1-0.3,0.3v2.2c0,0,0,0.1,0,0.1c0,0,0,0.1,0,0.1c0,0,0,0,0.1,0.1
			c0,0,0.1,0,0.1,0C103.4,24.6,103.9,24.4,104.5,24.4z"/>
		<path id="XMLID_124_" class="st2" d="M148.4,26.4c0.5,0,1,0.2,1.4,0.5c0.4,0.4,0.5,0.8,0.5,1.4c0,0.5-0.2,1-0.5,1.4
			c-0.4,0.4-0.8,0.5-1.4,0.5h-14.2c-0.5,0-1-0.2-1.3-0.5c-0.4-0.4-0.5-0.8-0.5-1.4c0-0.5,0.2-1,0.5-1.4c0.4-0.4,0.8-0.5,1.3-0.5h1.3
			c0.2,0,0.3-0.1,0.2-0.3c-0.3-1.1-0.7-2.8-1.4-5.2c0-0.1-0.1-0.2-0.3-0.2c-0.4,0-0.7-0.1-1-0.4c-0.3-0.3-0.4-0.6-0.4-1v-0.4
			c0-0.5,0.2-0.9,0.5-1.3s0.8-0.5,1.3-0.5h4c0.2,0,0.3-0.1,0.3-0.3V16c0-0.5,0.2-1,0.6-1.4c0.4-0.4,0.8-0.6,1.4-0.6h0.7
			c0.5,0,1,0.2,1.4,0.6c0.4,0.4,0.6,0.8,0.6,1.4v0.7c0,0.2,0.1,0.3,0.3,0.3h4.3c0.5,0,0.9,0.2,1.3,0.5s0.5,0.8,0.5,1.3v0.5
			c0,0.4-0.1,0.7-0.4,1c-0.3,0.3-0.6,0.4-1,0.4c-0.1,0-0.2,0.1-0.2,0.2c-0.3,1.6-0.8,3.3-1.4,5.3c0,0.2,0,0.2,0.2,0.2H148.4z
			 M137.2,45.7h-1.4c-0.5,0-1-0.2-1.4-0.6s-0.6-0.8-0.6-1.4v-9.5c0-0.5,0.2-1,0.6-1.4s0.8-0.6,1.4-0.6h11.4c0.5,0,1,0.2,1.4,0.6
			c0.4,0.4,0.6,0.8,0.6,1.4v9.5c0,0.5-0.2,1-0.6,1.4c-0.4,0.4-0.8,0.6-1.4,0.6h-1.3c-0.3,0-0.6-0.1-0.8-0.3
			c-0.2-0.2-0.3-0.5-0.3-0.8c0-0.1-0.1-0.2-0.2-0.2h-6.2c-0.1,0-0.1,0.1-0.1,0.2c0,0.3-0.1,0.6-0.3,0.8
			C137.8,45.6,137.5,45.7,137.2,45.7z M138.3,36.2v4.4c0,0.2,0.1,0.3,0.3,0.3h6c0.2,0,0.3-0.1,0.3-0.3v-4.4c0-0.2-0.1-0.3-0.3-0.3
			h-6C138.4,35.9,138.3,36,138.3,36.2z M142.9,26.1c0.6-2,1.1-3.7,1.3-5.1c0-0.2,0-0.3-0.2-0.3h-5.2c-0.2,0-0.3,0.1-0.2,0.3
			c0.4,1.5,0.8,3.2,1.3,5.2c0,0.2,0.1,0.2,0.4,0.2h2.3C142.8,26.4,142.9,26.3,142.9,26.1z M160.9,28.1c1.1,1.1,2,2.3,2.7,3.8
			c0.6,1.4,1,2.9,1,4.4c0,2.2-0.4,3.7-1.3,4.6c-0.9,0.9-2.2,1.4-4,1.4H159c-0.6,0-1.1-0.2-1.5-0.5c-0.4-0.4-0.7-0.8-0.8-1.4
			c-0.1-0.5,0-0.9,0.3-1.3c0.3-0.4,0.7-0.6,1.2-0.6c0.8-0.1,1.3-0.3,1.6-0.6c0.3-0.3,0.4-0.9,0.4-1.7c0-2-0.9-4.1-2.8-6.4
			c-0.8-1-1-2.1-0.4-3.2c1.2-2.5,2.1-4.8,2.8-7c0-0.2,0-0.3-0.2-0.3H156c-0.2,0-0.3,0.1-0.3,0.3v24.4c0,0.5-0.2,1-0.6,1.4
			c-0.4,0.4-0.8,0.6-1.4,0.6h-0.5c-0.5,0-1-0.2-1.4-0.6s-0.6-0.8-0.6-1.4V17.4c0-0.5,0.2-1,0.6-1.4c0.4-0.4,0.8-0.6,1.4-0.6h9.2
			c0.5,0,0.9,0.2,1.2,0.5c0.3,0.3,0.5,0.8,0.5,1.2c0,1.2-0.2,2.4-0.6,3.5c-0.9,2.6-1.9,4.9-2.9,6.9C160.7,27.8,160.8,28,160.9,28.1z
			"/>
	</g>
</g>
<g id="経済_1_" class="st3">
	<g id="XMLID_24_" class="st4">
		<rect id="XMLID_153_" x="25.5" y="12.7" class="st5" width="459.5" height="40.9"/>
		<path id="XMLID_27_" class="st2" d="M28.2,43.9c-0.4-0.1-0.8-0.3-1-0.6c-0.3-0.3-0.4-0.7-0.3-1.2c0.4-2.5,0.6-4.6,0.8-6.4
			c0-0.4,0.2-0.8,0.5-1.1c0.3-0.3,0.7-0.4,1.1-0.4c0.4,0,0.8,0.2,1.1,0.5c0.3,0.3,0.4,0.7,0.4,1.1c-0.2,2.4-0.4,4.6-0.8,6.7
			c-0.1,0.4-0.3,0.8-0.6,1.1C29,43.9,28.6,44,28.2,43.9z M29.1,32.9c-0.5,0-1-0.1-1.4-0.5c-0.4-0.4-0.6-0.8-0.6-1.3V31
			c0-0.5,0.2-1,0.5-1.4c0.4-0.4,0.8-0.6,1.4-0.7l1.4-0.1c0.2,0,0.3-0.1,0.5-0.2c0,0,0-0.1,0.1-0.1c0,0,0-0.1,0.1-0.1
			c0.1-0.2,0.1-0.4,0-0.5c-0.7-1-1.7-2.4-2.9-4.2c-0.8-1.1-0.9-2.2-0.4-3.4l0.3-0.6c0.2-0.4,0.5-0.6,0.9-0.6c0.4,0,0.7,0.1,1,0.5
			c0.1,0.1,0.2,0.1,0.3-0.1c0.6-1.2,1.1-2.3,1.5-3.4c0.2-0.5,0.5-0.8,1-1c0.5-0.2,1-0.3,1.5-0.1c0.5,0.2,0.8,0.5,1,1
			c0.2,0.5,0.2,0.9,0,1.4c-0.8,1.7-1.7,3.6-2.7,5.6c-0.1,0.2,0,0.3,0.1,0.5c0.1,0.1,0.2,0.3,0.4,0.5c0.2,0.2,0.3,0.4,0.4,0.5
			c0.1,0.1,0.2,0.1,0.3,0c0.6-1,1.5-2.6,2.7-4.8c0.3-0.5,0.6-0.8,1.1-1c0.5-0.2,1-0.2,1.4,0.1c0.4,0.2,0.8,0.5,0.9,1
			c0.2,0.5,0.1,0.9-0.1,1.4c-0.4,0.8-1.1,2-2,3.5c0,0.1,0,0.1,0.1,0.1c0,0,0,0,0.1,0l0.3-0.1c0.5-0.1,1-0.1,1.5,0.2
			c0.5,0.3,0.8,0.7,0.9,1.2c0.6,2.3,1,4,1.2,5.1c0.1,0.4,0,0.8-0.2,1.2c-0.2,0.4-0.6,0.6-1,0.7l-0.6,0.1c-0.3,0-0.5,0-0.7-0.1
			s-0.3-0.3-0.4-0.6c0-0.1,0-0.1-0.1-0.1l-2,0.1c-0.2,0-0.3,0.1-0.3,0.3v11.2c0,0.5-0.2,1-0.6,1.4c-0.4,0.4-0.8,0.6-1.4,0.6h-0.5
			c-0.5,0-1-0.2-1.4-0.6c-0.4-0.4-0.6-0.8-0.6-1.4V33c0-0.2-0.1-0.3-0.3-0.3L29.1,32.9z M35.2,28.3c-0.1,0.1,0,0.2,0.1,0.2l2.1-0.1
			c0.1,0,0.1,0,0.2-0.1c0.1-0.1,0.1-0.1,0.1-0.2c-0.3-1.1-0.5-1.9-0.6-2.3c0,0-0.1-0.1-0.1-0.1c0,0-0.1,0-0.1,0.1
			C36.3,26.5,35.8,27.4,35.2,28.3z M39.3,41.4c-0.4,0-0.8-0.1-1.1-0.4c-0.3-0.3-0.5-0.6-0.5-1c-0.1-1.4-0.2-2.9-0.4-4.4
			c0-0.4,0.1-0.8,0.3-1.1c0.2-0.3,0.6-0.5,1-0.6c0.4,0,0.8,0.1,1.1,0.3c0.3,0.2,0.5,0.6,0.6,1c0.2,1.5,0.4,3.1,0.5,4.5
			c0,0.4-0.1,0.8-0.4,1.1C40.1,41.2,39.7,41.4,39.3,41.4z M57.2,41.3c0.5,0,1,0.2,1.3,0.5c0.4,0.4,0.5,0.8,0.5,1.3
			c0,0.5-0.2,1-0.5,1.3c-0.4,0.4-0.8,0.5-1.3,0.5H41.8c-0.5,0-1-0.2-1.3-0.5c-0.4-0.4-0.5-0.8-0.5-1.3c0-0.5,0.2-1,0.5-1.3
			c0.4-0.4,0.8-0.5,1.3-0.5h5.6c0.2,0,0.3-0.1,0.3-0.3v-3.6c0-0.2-0.1-0.3-0.3-0.3h-4.1c-0.5,0-0.9-0.2-1.3-0.5
			c-0.4-0.4-0.5-0.8-0.5-1.3s0.2-0.9,0.5-1.3s0.8-0.5,1.3-0.5h4.1c0.2,0,0.3-0.1,0.3-0.3v-0.6c0-0.5,0.2-1,0.6-1.4s0.8-0.6,1.4-0.6
			h0.7c0.5,0,1,0.2,1.4,0.6s0.6,0.8,0.6,1.4v0.6c0,0.2,0.1,0.3,0.3,0.3h3.9c0.5,0,0.9,0.2,1.3,0.5s0.5,0.8,0.5,1.3s-0.2,0.9-0.5,1.3
			C57.4,36.9,57,37,56.5,37h-3.9c-0.2,0-0.3,0.1-0.3,0.3V41c0,0.2,0.1,0.3,0.3,0.3H57.2z M46.3,26.4c0.2-0.1,0.2-0.2,0-0.4
			c-1.1-0.9-2.1-1.9-3.1-3.1c-0.4-0.4-0.5-0.9-0.4-1.4c0.1-0.5,0.4-0.9,0.8-1.2l1.4-0.9c0,0,0-0.1,0-0.1c0,0,0-0.1-0.1-0.1h-2.2
			c-0.5,0-1-0.2-1.3-0.5c-0.4-0.4-0.6-0.8-0.6-1.3s0.2-1,0.6-1.3c0.4-0.4,0.8-0.5,1.3-0.5h13.6c0.5,0,1,0.2,1.3,0.5
			c0.4,0.4,0.5,0.8,0.5,1.3c0,1.4-0.3,2.5-0.8,3.5c-1,1.9-2.3,3.6-3.8,5c-0.1,0.1-0.1,0.2,0,0.3c1.2,0.7,2.5,1.3,3.8,1.8
			c0.5,0.2,0.9,0.5,1.1,1s0.3,1,0.1,1.5l0,0.1c-0.2,0.5-0.5,0.9-0.9,1.1c-0.5,0.2-1,0.3-1.5,0.1c-2.1-0.8-4.2-1.8-6.1-3
			c-0.2-0.1-0.3-0.1-0.5,0c-1.4,0.9-3.2,1.7-5.2,2.5c-0.5,0.2-1,0.2-1.5-0.1s-0.8-0.6-1-1.1l0,0c-0.2-0.5-0.2-1,0.1-1.5
			c0.2-0.5,0.6-0.8,1.1-1C44.3,27.3,45.3,26.9,46.3,26.4z M45.8,19.5c1.1,1.5,2.4,2.8,4,4.1c0.1,0.1,0.3,0.1,0.5,0
			c1.4-1.2,2.4-2.6,3.2-4.1c0,0,0-0.1,0-0.2c0-0.1-0.1-0.1-0.2-0.1h-7.4c0,0-0.1,0-0.1,0.1C45.8,19.4,45.8,19.5,45.8,19.5z"/>
		<path id="XMLID_138_" class="st2" d="M88.8,45.6c-0.5,0-1-0.2-1.4-0.6c-0.4-0.4-0.6-0.8-0.6-1.4v-3.1c0-0.2-0.1-0.3-0.3-0.3H76.5
			c-0.2,0-0.3,0.1-0.4,0.3c-0.5,1.4-1.2,2.8-2.1,4.1c-0.3,0.4-0.8,0.7-1.3,0.8c-0.6,0.1-1.1,0-1.6-0.4l-0.6-0.4
			c-0.4-0.3-0.7-0.7-0.7-1.2c-0.1-0.5,0.1-0.9,0.4-1.3c1.7-2.2,2.5-5,2.5-8.4V31c0-0.1,0-0.1-0.1-0.2c0-0.1-0.1-0.1-0.2-0.1
			l-0.8,0.2c-0.5,0.1-1,0-1.4-0.2c-0.4-0.3-0.7-0.7-0.8-1.2c0-0.1,0-0.2,0-0.4c0,0,0-0.1-0.1-0.1c0,0-0.1,0-0.1,0l0,0v0L69,29.3
			c-0.3,0.4-0.8,0.6-1.3,0.7c-0.5,0-1-0.1-1.4-0.5c-1.3-1.1-2.4-2-3.4-2.8c-0.4-0.3-0.7-0.8-0.7-1.3c-0.1-0.5,0.1-1,0.4-1.4l0.1,0
			c0.4-0.4,0.8-0.7,1.3-0.8c0.5-0.1,1,0,1.5,0.4c1.2,0.9,2.3,1.8,3.4,2.7c0.5,0.4,0.7,0.9,0.7,1.5c0,0,0,0.1,0.1,0.1
			c0,0,0.1,0,0.1,0c0.3-0.4,0.7-0.6,1.1-0.7c2.2-0.5,4.2-1,5.9-1.5c0.1,0,0.1-0.1,0-0.2c-1-0.6-2-1.3-3.1-2.1
			c-0.4-0.3-0.5-0.7-0.5-1.2c0-0.5,0.2-0.8,0.6-1.1l0.4-0.3c0,0,0,0,0.1,0c0,0,0,0,0.1-0.1c0,0,0,0,0-0.1c0,0,0,0-0.1,0h-2
			c-0.5,0-1-0.2-1.4-0.6c-0.1-0.1-0.1,0-0.2,0.1c-0.1,0.3-0.2,0.6-0.4,0.9l-0.1,0.1c-0.3,0.4-0.8,0.6-1.3,0.7c-0.5,0-1-0.1-1.4-0.5
			c-0.7-0.7-1.6-1.4-2.7-2.2c-0.4-0.3-0.7-0.8-0.7-1.3c-0.1-0.5,0.1-1,0.4-1.4l0.1-0.1c0.4-0.4,0.8-0.7,1.3-0.7
			c0.5-0.1,1,0.1,1.5,0.4c0.8,0.6,1.7,1.3,2.7,2.1c0,0,0.1,0.1,0.1,0.1c0,0.1,0.1,0.1,0.1,0.1c0.1,0.1,0.2,0.1,0.2,0
			c0.1-0.4,0.3-0.8,0.6-1.1c0.3-0.3,0.7-0.4,1.2-0.4h7c0.2,0,0.3-0.1,0.3-0.3v-0.8c0-0.5,0.2-1,0.6-1.4c0.4-0.4,0.8-0.6,1.4-0.6h0.7
			c0.5,0,1,0.2,1.4,0.6c0.4,0.4,0.6,0.8,0.6,1.4v0.8c0,0.2,0.1,0.3,0.3,0.3H92c0.5,0,0.9,0.2,1.3,0.5c0.4,0.4,0.5,0.8,0.5,1.3
			s-0.2,0.9-0.5,1.3s-0.8,0.5-1.3,0.5h-0.9c-0.2,0-0.2,0.1-0.2,0.2c0.1,0.4,0,0.8-0.3,1.1c-1.1,1.1-2.6,2.3-4.3,3.4
			c0,0-0.1,0.1-0.1,0.1c0,0,0,0.1,0.1,0.1c1.8,0.5,4,1.1,6.7,1.6c0.5,0.1,0.9,0.4,1.2,0.8c0.3,0.4,0.3,0.9,0.2,1.4
			c-0.1,0.5-0.4,0.9-0.8,1.2c-0.4,0.3-0.9,0.4-1.5,0.2c0,0-0.1,0-0.2,0c-0.1,0-0.2,0-0.2,0c-0.2,0-0.3,0-0.3,0.2v12.6
			c0,0.5-0.2,1-0.6,1.4c-0.4,0.4-0.8,0.6-1.4,0.6H88.8z M69,33.5c0.5,0.2,0.9,0.5,1.1,1.1c0.2,0.5,0.3,1,0.1,1.5
			c-1,2.9-2.1,5.5-3.5,7.9c-0.3,0.5-0.6,0.8-1.2,0.9c-0.5,0.1-1,0-1.5-0.3l-0.4-0.2c-0.4-0.3-0.7-0.7-0.8-1.2c-0.1-0.5,0-1,0.2-1.5
			c1.3-2.4,2.4-4.7,3.3-7c0.2-0.5,0.5-0.9,1-1.1c0.5-0.2,1-0.2,1.5-0.1L69,33.5z M76.7,20.7c0.1,0,0.2,0.1,0.4,0.3
			c1.3,1.1,2.7,2,4.1,2.7c0.2,0.1,0.4,0.1,0.6,0c1.7-0.8,3.1-1.8,4.2-2.9l0,0c0,0,0.1-0.1,0-0.1c0,0-0.1-0.1-0.1-0.1h-9.3
			C76.7,20.6,76.6,20.6,76.7,20.7C76.6,20.7,76.7,20.7,76.7,20.7z M86.6,36.8c0.2,0,0.3-0.1,0.3-0.3v-2.2c0-0.2-0.1-0.3-0.3-0.3
			h-9.2c-0.2,0-0.3,0.1-0.3,0.3c0,0.8,0,1.5-0.1,2.1c0,0.2,0.1,0.3,0.2,0.3H86.6z M86.6,29.5c-1.8-0.5-3.4-1.1-4.8-1.6
			c-0.2-0.1-0.3-0.1-0.5,0c-1,0.4-2.3,0.9-4,1.4c-0.2,0.1-0.3,0.2-0.3,0.4v0.6c0,0.2,0.1,0.3,0.3,0.3h9.2c0.2,0,0.3-0.1,0.3-0.3
			v-0.4C86.9,29.7,86.8,29.6,86.6,29.5z"/>
		<path id="XMLID_144_" class="st2" d="M99.4,37c-0.5,0-1-0.2-1.4-0.6s-0.6-0.8-0.6-1.4c0-0.5,0.2-1,0.6-1.4
			c0.4-0.4,0.8-0.6,1.4-0.6h11.7c0.2,0,0.3-0.1,0.3-0.3v-0.2c0-0.5,0.2-1,0.6-1.4c0.4-0.4,0.8-0.6,1.4-0.6h0.8c0,0,0.1,0,0.1,0
			c0.1,0,0.1,0,0.1,0c0.2,0,0.3,0,0.5-0.2c0,0,0.1-0.1,0.1-0.1c0,0,0.1-0.1,0.1-0.1c1.1-0.7,2-1.4,2.7-2c0.1-0.1,0.1-0.1-0.1-0.1
			h-13.4c-0.5,0-1-0.2-1.3-0.6c-0.4-0.4-0.5-0.8-0.5-1.3v-0.1c0,0,0-0.1-0.1-0.1s-0.1,0-0.1,0c-0.4,0.5-0.9,0.7-1.5,0.7h-0.5
			c-0.5,0-1-0.2-1.4-0.6c-0.4-0.4-0.6-0.8-0.6-1.4v-4.1c0-0.5,0.2-1,0.6-1.4c0.4-0.4,0.8-0.6,1.4-0.6h2.1c0.1,0,0.1,0,0.2-0.1
			c0-0.1,0-0.1,0-0.2c-0.1-0.1-0.2-0.3-0.3-0.5c-0.1-0.2-0.2-0.4-0.3-0.5c-0.3-0.4-0.3-0.9-0.1-1.4c0.2-0.5,0.5-0.8,1-0.9l0.3-0.1
			c0.5-0.2,1-0.2,1.6,0s0.9,0.5,1.2,1c0.4,0.7,0.8,1.5,1.3,2.5c0.1,0.2,0.2,0.3,0.4,0.3h2.9c0.1,0,0.1,0,0.2-0.1c0-0.1,0-0.1,0-0.2
			c-0.1-0.1-0.2-0.4-0.4-0.7c-0.2-0.3-0.3-0.5-0.4-0.7c-0.2-0.5-0.3-0.9-0.1-1.4s0.5-0.8,1-1l0.3-0.1c0.5-0.2,1-0.2,1.6,0
			c0.5,0.2,1,0.5,1.2,1c0.6,1.1,1.1,2,1.4,2.8c0.1,0.1,0.2,0.2,0.4,0.2h2.4c0.2,0,0.4-0.1,0.5-0.2c0.7-1.1,1.1-2,1.4-2.5
			c0.3-0.5,0.6-0.9,1.2-1.1c0.5-0.2,1-0.3,1.6-0.2l0.3,0.1c0.5,0.1,0.8,0.4,1.1,0.8c0.2,0.4,0.2,0.9,0,1.3c-0.1,0.2-0.2,0.4-0.4,0.8
			s-0.3,0.6-0.4,0.8c0,0-0.1,0.1,0,0.2c0,0.1,0.1,0.1,0.2,0.1h2.1c0.5,0,1,0.2,1.4,0.6c0.4,0.4,0.6,0.8,0.6,1.4v4.1
			c0,0.5-0.2,1-0.6,1.4c-0.4,0.4-0.8,0.6-1.4,0.6h-0.5c-0.6,0-1.1-0.2-1.5-0.7c0,0-0.1,0-0.1,0s-0.1,0-0.1,0.1v0.1
			c0,1.3-0.4,2.3-1.3,3.2c-1.3,1.2-2.8,2.4-4.4,3.5c0,0-0.1,0.1-0.1,0.1c0,0,0,0.1,0.1,0.1h8.9c0.5,0,1,0.2,1.4,0.6
			c0.4,0.4,0.6,0.8,0.6,1.4c0,0.5-0.2,1-0.6,1.4s-0.8,0.6-1.4,0.6h-10.5c-0.2,0-0.3,0.1-0.3,0.3v4.1c0,1.1,0,1.9-0.1,2.4
			c-0.1,0.5-0.3,0.9-0.7,1.2c-0.4,0.3-0.9,0.5-1.5,0.6c-0.6,0.1-1.6,0.1-2.9,0.1c-1.3,0-2.6,0-3.7-0.1c-0.5,0-1-0.2-1.4-0.6
			c-0.4-0.4-0.6-0.8-0.6-1.4c0-0.5,0.1-1,0.5-1.3c0.4-0.4,0.8-0.5,1.3-0.5c1.5,0.1,2.6,0.1,3.2,0.1c0.7,0,1-0.1,1.2-0.2
			c0.1-0.1,0.2-0.4,0.2-1v-3.4c0-0.2-0.1-0.3-0.3-0.3H99.4z M104.5,24.4h17.4c0.6,0,1,0.2,1.4,0.7c0,0,0.1,0,0.1,0c0,0,0-0.1,0-0.1
			c0,0,0-0.1,0-0.1v-2.2c0-0.2-0.1-0.3-0.3-0.3h-19.9c-0.2,0-0.3,0.1-0.3,0.3v2.2c0,0,0,0.1,0,0.1c0,0,0,0.1,0,0.1c0,0,0,0,0.1,0.1
			c0,0,0.1,0,0.1,0C103.4,24.6,103.9,24.4,104.5,24.4z"/>
		<path id="XMLID_147_" class="st2" d="M148.4,26.4c0.5,0,1,0.2,1.4,0.5c0.4,0.4,0.5,0.8,0.5,1.4c0,0.5-0.2,1-0.5,1.4
			c-0.4,0.4-0.8,0.5-1.4,0.5h-14.2c-0.5,0-1-0.2-1.3-0.5c-0.4-0.4-0.5-0.8-0.5-1.4c0-0.5,0.2-1,0.5-1.4c0.4-0.4,0.8-0.5,1.3-0.5h1.3
			c0.2,0,0.3-0.1,0.2-0.3c-0.3-1.1-0.7-2.8-1.4-5.2c0-0.1-0.1-0.2-0.3-0.2c-0.4,0-0.7-0.1-1-0.4c-0.3-0.3-0.4-0.6-0.4-1v-0.4
			c0-0.5,0.2-0.9,0.5-1.3s0.8-0.5,1.3-0.5h4c0.2,0,0.3-0.1,0.3-0.3V16c0-0.5,0.2-1,0.6-1.4c0.4-0.4,0.8-0.6,1.4-0.6h0.7
			c0.5,0,1,0.2,1.4,0.6c0.4,0.4,0.6,0.8,0.6,1.4v0.7c0,0.2,0.1,0.3,0.3,0.3h4.3c0.5,0,0.9,0.2,1.3,0.5s0.5,0.8,0.5,1.3v0.5
			c0,0.4-0.1,0.7-0.4,1c-0.3,0.3-0.6,0.4-1,0.4c-0.1,0-0.2,0.1-0.2,0.2c-0.3,1.6-0.8,3.3-1.4,5.3c0,0.2,0,0.2,0.2,0.2H148.4z
			 M137.2,45.7h-1.4c-0.5,0-1-0.2-1.4-0.6s-0.6-0.8-0.6-1.4v-9.5c0-0.5,0.2-1,0.6-1.4s0.8-0.6,1.4-0.6h11.4c0.5,0,1,0.2,1.4,0.6
			c0.4,0.4,0.6,0.8,0.6,1.4v9.5c0,0.5-0.2,1-0.6,1.4c-0.4,0.4-0.8,0.6-1.4,0.6h-1.3c-0.3,0-0.6-0.1-0.8-0.3
			c-0.2-0.2-0.3-0.5-0.3-0.8c0-0.1-0.1-0.2-0.2-0.2h-6.2c-0.1,0-0.1,0.1-0.1,0.2c0,0.3-0.1,0.6-0.3,0.8
			C137.8,45.6,137.5,45.7,137.2,45.7z M138.3,36.2v4.4c0,0.2,0.1,0.3,0.3,0.3h6c0.2,0,0.3-0.1,0.3-0.3v-4.4c0-0.2-0.1-0.3-0.3-0.3
			h-6C138.4,35.9,138.3,36,138.3,36.2z M142.9,26.1c0.6-2,1.1-3.7,1.3-5.1c0-0.2,0-0.3-0.2-0.3h-5.2c-0.2,0-0.3,0.1-0.2,0.3
			c0.4,1.5,0.8,3.2,1.3,5.2c0,0.2,0.1,0.2,0.4,0.2h2.3C142.8,26.4,142.9,26.3,142.9,26.1z M160.9,28.1c1.1,1.1,2,2.3,2.7,3.8
			c0.6,1.4,1,2.9,1,4.4c0,2.2-0.4,3.7-1.3,4.6c-0.9,0.9-2.2,1.4-4,1.4H159c-0.6,0-1.1-0.2-1.5-0.5c-0.4-0.4-0.7-0.8-0.8-1.4
			c-0.1-0.5,0-0.9,0.3-1.3c0.3-0.4,0.7-0.6,1.2-0.6c0.8-0.1,1.3-0.3,1.6-0.6c0.3-0.3,0.4-0.9,0.4-1.7c0-2-0.9-4.1-2.8-6.4
			c-0.8-1-1-2.1-0.4-3.2c1.2-2.5,2.1-4.8,2.8-7c0-0.2,0-0.3-0.2-0.3H156c-0.2,0-0.3,0.1-0.3,0.3v24.4c0,0.5-0.2,1-0.6,1.4
			c-0.4,0.4-0.8,0.6-1.4,0.6h-0.5c-0.5,0-1-0.2-1.4-0.6s-0.6-0.8-0.6-1.4V17.4c0-0.5,0.2-1,0.6-1.4c0.4-0.4,0.8-0.6,1.4-0.6h9.2
			c0.5,0,0.9,0.2,1.2,0.5c0.3,0.3,0.5,0.8,0.5,1.2c0,1.2-0.2,2.4-0.6,3.5c-0.9,2.6-1.9,4.9-2.9,6.9C160.7,27.8,160.8,28,160.9,28.1z
			"/>
	</g>
</g>
<g id="法学_1_" class="st3">
	<g id="XMLID_22_" class="st4">
		<rect id="XMLID_167_" x="25.5" y="12.7" class="st5" width="459.5" height="40.9"/>
		<path id="XMLID_25_" class="st2" d="M28,26.7c-0.4-0.3-0.7-0.8-0.7-1.3c-0.1-0.5,0.1-1,0.4-1.4l0,0c0.4-0.4,0.8-0.7,1.3-0.8
			c0.5-0.1,1,0,1.5,0.4c1.2,0.9,2.3,1.8,3.4,2.7c0.4,0.4,0.6,0.8,0.7,1.3c0,0.5-0.1,1-0.5,1.5L34,29.3c-0.3,0.4-0.8,0.6-1.3,0.7
			c-0.5,0-1-0.1-1.4-0.5C29.9,28.2,28.8,27.3,28,26.7z M34.2,33.2l0.1,0.1c0.5,0.2,0.9,0.5,1.1,1c0.2,0.5,0.3,1,0.1,1.5
			c-1,3-2.2,5.7-3.6,8.2c-0.3,0.5-0.7,0.8-1.2,0.9c-0.5,0.1-1,0-1.5-0.3L29,44.4c-0.4-0.3-0.7-0.7-0.9-1.2c-0.1-0.5-0.1-1,0.2-1.5
			c1.3-2.3,2.4-4.7,3.4-7.3c0.2-0.5,0.5-0.9,1-1.1C33.2,33,33.7,33,34.2,33.2z M29.5,19.1c-0.4-0.3-0.7-0.8-0.7-1.3
			c-0.1-0.5,0.1-1,0.4-1.4l0.1-0.1c0.4-0.4,0.8-0.7,1.3-0.7c0.5-0.1,1,0.1,1.5,0.4c0.8,0.6,1.7,1.3,2.7,2.1c0.4,0.4,0.7,0.8,0.7,1.4
			c0,0.5-0.1,1-0.5,1.5l-0.1,0.1c-0.3,0.4-0.8,0.6-1.3,0.7c-0.5,0-1-0.1-1.4-0.5C31.4,20.7,30.5,19.9,29.5,19.1z M57.1,26.9
			c0.5,0,1,0.2,1.4,0.6s0.6,0.8,0.6,1.4c0,0.5-0.2,1-0.6,1.4c-0.4,0.4-0.8,0.6-1.4,0.6h-9c-0.2,0-0.3,0.1-0.4,0.3
			c-1,3.2-2.1,6.1-3.2,8.7c0,0.2,0,0.2,0.2,0.2c2.3-0.2,4.7-0.4,7.2-0.6c0.2,0,0.3-0.1,0.2-0.2c-0.9-1.9-1.5-3.1-1.7-3.4
			c-0.2-0.5-0.3-0.9-0.1-1.4c0.2-0.5,0.5-0.8,1-1l0.5-0.2c0.5-0.2,1-0.2,1.6,0c0.5,0.2,0.9,0.6,1.2,1.1c1.3,2.6,2.6,5.3,3.9,8.2
			c0.2,0.5,0.2,1,0,1.5c-0.2,0.5-0.6,0.8-1.1,1l-0.5,0.2c-0.5,0.2-1,0.2-1.5,0c-0.5-0.2-0.9-0.6-1.1-1.1c0-0.1-0.1-0.2-0.1-0.3
			c-0.1-0.1-0.1-0.2-0.1-0.3c-0.1-0.2-0.2-0.3-0.4-0.2c-5.3,0.6-10.8,1.1-16.6,1.3c-0.5,0-1-0.1-1.4-0.5c-0.4-0.4-0.6-0.8-0.6-1.4
			c0-0.5,0.1-1,0.5-1.4c0.4-0.4,0.8-0.6,1.3-0.6l2.2-0.1c0.2,0,0.3-0.1,0.4-0.3c1.3-3,2.4-6.1,3.4-9.1c0-0.2,0-0.3-0.2-0.3h-4.9
			c-0.5,0-1-0.2-1.4-0.6c-0.4-0.4-0.6-0.8-0.6-1.4c0-0.5,0.2-1,0.6-1.4c0.4-0.4,0.8-0.6,1.4-0.6h6.7c0.2,0,0.3-0.1,0.3-0.3v-4.5
			c0-0.2-0.1-0.3-0.3-0.3H39c-0.5,0-1-0.2-1.3-0.6c-0.4-0.4-0.6-0.8-0.6-1.3c0-0.5,0.2-1,0.6-1.3c0.4-0.4,0.8-0.6,1.3-0.6h5.4
			c0.2,0,0.3-0.1,0.3-0.3v-1.3c0-0.5,0.2-1,0.6-1.4c0.4-0.4,0.8-0.6,1.4-0.6h0.7c0.5,0,1,0.2,1.4,0.6s0.6,0.8,0.6,1.4v1.3
			c0,0.2,0.1,0.3,0.3,0.3h6c0.5,0,1,0.2,1.3,0.6c0.4,0.4,0.6,0.8,0.6,1.3c0,0.5-0.2,1-0.6,1.3c-0.4,0.4-0.8,0.6-1.3,0.6h-6
			c-0.2,0-0.3,0.1-0.3,0.3v4.5c0,0.2,0.1,0.3,0.3,0.3H57.1z"/>
		<path id="XMLID_158_" class="st2" d="M64.4,37c-0.5,0-1-0.2-1.4-0.6s-0.6-0.8-0.6-1.4c0-0.5,0.2-1,0.6-1.4
			c0.4-0.4,0.8-0.6,1.4-0.6h11.7c0.2,0,0.3-0.1,0.3-0.3v-0.2c0-0.5,0.2-1,0.6-1.4c0.4-0.4,0.8-0.6,1.4-0.6h0.8c0,0,0.1,0,0.1,0
			c0.1,0,0.1,0,0.1,0c0.2,0,0.3,0,0.5-0.2c0,0,0.1-0.1,0.1-0.1c0,0,0.1-0.1,0.1-0.1c1.1-0.7,2-1.4,2.7-2c0.1-0.1,0.1-0.1-0.1-0.1
			H69.4c-0.5,0-1-0.2-1.3-0.6c-0.4-0.4-0.5-0.8-0.5-1.3v-0.1c0,0,0-0.1-0.1-0.1s-0.1,0-0.1,0c-0.4,0.5-0.9,0.7-1.5,0.7h-0.5
			c-0.5,0-1-0.2-1.4-0.6c-0.4-0.4-0.6-0.8-0.6-1.4v-4.1c0-0.5,0.2-1,0.6-1.4c0.4-0.4,0.8-0.6,1.4-0.6h2.1c0.1,0,0.1,0,0.2-0.1
			c0-0.1,0-0.1,0-0.2c-0.1-0.1-0.2-0.3-0.3-0.5c-0.1-0.2-0.2-0.4-0.3-0.5c-0.3-0.4-0.3-0.9-0.1-1.4c0.2-0.5,0.5-0.8,1-0.9l0.3-0.1
			c0.5-0.2,1-0.2,1.6,0s0.9,0.5,1.2,1c0.4,0.7,0.8,1.5,1.3,2.5c0.1,0.2,0.2,0.3,0.4,0.3h2.9c0.1,0,0.1,0,0.2-0.1c0-0.1,0-0.1,0-0.2
			c-0.1-0.1-0.2-0.4-0.4-0.7c-0.2-0.3-0.3-0.5-0.4-0.7c-0.2-0.5-0.3-0.9-0.1-1.4s0.5-0.8,1-1l0.3-0.1c0.5-0.2,1-0.2,1.6,0
			c0.5,0.2,1,0.5,1.2,1c0.6,1.1,1.1,2,1.4,2.8c0.1,0.1,0.2,0.2,0.4,0.2h2.4c0.2,0,0.4-0.1,0.5-0.2c0.7-1.1,1.1-2,1.4-2.5
			c0.3-0.5,0.6-0.9,1.2-1.1c0.5-0.2,1-0.3,1.6-0.2l0.3,0.1c0.5,0.1,0.8,0.4,1.1,0.8c0.2,0.4,0.2,0.9,0,1.3c-0.1,0.2-0.2,0.4-0.4,0.8
			s-0.3,0.6-0.4,0.8c0,0-0.1,0.1,0,0.2c0,0.1,0.1,0.1,0.2,0.1h2.1c0.5,0,1,0.2,1.4,0.6c0.4,0.4,0.6,0.8,0.6,1.4v4.1
			c0,0.5-0.2,1-0.6,1.4c-0.4,0.4-0.8,0.6-1.4,0.6h-0.5c-0.6,0-1.1-0.2-1.5-0.7c0,0-0.1,0-0.1,0s-0.1,0-0.1,0.1v0.1
			c0,1.3-0.4,2.3-1.3,3.2C86,30.7,84.5,31.8,83,33c0,0-0.1,0.1-0.1,0.1c0,0,0,0.1,0.1,0.1h8.9c0.5,0,1,0.2,1.4,0.6
			c0.4,0.4,0.6,0.8,0.6,1.4c0,0.5-0.2,1-0.6,1.4S92.4,37,91.9,37H81.4c-0.2,0-0.3,0.1-0.3,0.3v4.1c0,1.1,0,1.9-0.1,2.4
			c-0.1,0.5-0.3,0.9-0.7,1.2c-0.4,0.3-0.9,0.5-1.5,0.6c-0.6,0.1-1.6,0.1-2.9,0.1c-1.3,0-2.6,0-3.7-0.1c-0.5,0-1-0.2-1.4-0.6
			c-0.4-0.4-0.6-0.8-0.6-1.4c0-0.5,0.1-1,0.5-1.3c0.4-0.4,0.8-0.5,1.3-0.5c1.5,0.1,2.6,0.1,3.2,0.1c0.7,0,1-0.1,1.2-0.2
			c0.1-0.1,0.2-0.4,0.2-1v-3.4c0-0.2-0.1-0.3-0.3-0.3H64.4z M69.4,24.4h17.4c0.6,0,1,0.2,1.4,0.7c0,0,0.1,0,0.1,0c0,0,0-0.1,0-0.1
			c0,0,0-0.1,0-0.1v-2.2c0-0.2-0.1-0.3-0.3-0.3H68.2c-0.2,0-0.3,0.1-0.3,0.3v2.2c0,0,0,0.1,0,0.1c0,0,0,0.1,0,0.1c0,0,0,0,0.1,0.1
			c0,0,0.1,0,0.1,0C68.4,24.6,68.9,24.4,69.4,24.4z"/>
		<path id="XMLID_161_" class="st2" d="M113.4,26.4c0.5,0,1,0.2,1.4,0.5c0.4,0.4,0.5,0.8,0.5,1.4c0,0.5-0.2,1-0.5,1.4
			c-0.4,0.4-0.8,0.5-1.4,0.5H99.2c-0.5,0-1-0.2-1.3-0.5c-0.4-0.4-0.5-0.8-0.5-1.4c0-0.5,0.2-1,0.5-1.4c0.4-0.4,0.8-0.5,1.3-0.5h1.3
			c0.2,0,0.3-0.1,0.2-0.3c-0.3-1.1-0.7-2.8-1.4-5.2c0-0.1-0.1-0.2-0.3-0.2c-0.4,0-0.7-0.1-1-0.4c-0.3-0.3-0.4-0.6-0.4-1v-0.4
			c0-0.5,0.2-0.9,0.5-1.3S99,17,99.5,17h4c0.2,0,0.3-0.1,0.3-0.3V16c0-0.5,0.2-1,0.6-1.4c0.4-0.4,0.8-0.6,1.4-0.6h0.7
			c0.5,0,1,0.2,1.4,0.6c0.4,0.4,0.6,0.8,0.6,1.4v0.7c0,0.2,0.1,0.3,0.3,0.3h4.3c0.5,0,0.9,0.2,1.3,0.5s0.5,0.8,0.5,1.3v0.5
			c0,0.4-0.1,0.7-0.4,1c-0.3,0.3-0.6,0.4-1,0.4c-0.1,0-0.2,0.1-0.2,0.2c-0.3,1.6-0.8,3.3-1.4,5.3c0,0.2,0,0.2,0.2,0.2H113.4z
			 M102.1,45.7h-1.4c-0.5,0-1-0.2-1.4-0.6s-0.6-0.8-0.6-1.4v-9.5c0-0.5,0.2-1,0.6-1.4s0.8-0.6,1.4-0.6h11.4c0.5,0,1,0.2,1.4,0.6
			c0.4,0.4,0.6,0.8,0.6,1.4v9.5c0,0.5-0.2,1-0.6,1.4c-0.4,0.4-0.8,0.6-1.4,0.6h-1.3c-0.3,0-0.6-0.1-0.8-0.3
			c-0.2-0.2-0.3-0.5-0.3-0.8c0-0.1-0.1-0.2-0.2-0.2h-6.2c-0.1,0-0.1,0.1-0.1,0.2c0,0.3-0.1,0.6-0.3,0.8
			C102.7,45.6,102.4,45.7,102.1,45.7z M103.2,36.2v4.4c0,0.2,0.1,0.3,0.3,0.3h6c0.2,0,0.3-0.1,0.3-0.3v-4.4c0-0.2-0.1-0.3-0.3-0.3
			h-6C103.3,35.9,103.2,36,103.2,36.2z M107.9,26.1c0.6-2,1.1-3.7,1.3-5.1c0-0.2,0-0.3-0.2-0.3h-5.2c-0.2,0-0.3,0.1-0.2,0.3
			c0.4,1.5,0.8,3.2,1.3,5.2c0,0.2,0.1,0.2,0.4,0.2h2.3C107.7,26.4,107.8,26.3,107.9,26.1z M125.9,28.1c1.1,1.1,2,2.3,2.7,3.8
			c0.6,1.4,1,2.9,1,4.4c0,2.2-0.4,3.7-1.3,4.6c-0.9,0.9-2.2,1.4-4,1.4h-0.2c-0.6,0-1.1-0.2-1.5-0.5c-0.4-0.4-0.7-0.8-0.8-1.4
			c-0.1-0.5,0-0.9,0.3-1.3c0.3-0.4,0.7-0.6,1.2-0.6c0.8-0.1,1.3-0.3,1.6-0.6c0.3-0.3,0.4-0.9,0.4-1.7c0-2-0.9-4.1-2.8-6.4
			c-0.8-1-1-2.1-0.4-3.2c1.2-2.5,2.1-4.8,2.8-7c0-0.2,0-0.3-0.2-0.3h-3.5c-0.2,0-0.3,0.1-0.3,0.3v24.4c0,0.5-0.2,1-0.6,1.4
			c-0.4,0.4-0.8,0.6-1.4,0.6h-0.5c-0.5,0-1-0.2-1.4-0.6s-0.6-0.8-0.6-1.4V17.4c0-0.5,0.2-1,0.6-1.4c0.4-0.4,0.8-0.6,1.4-0.6h9.2
			c0.5,0,0.9,0.2,1.2,0.5c0.3,0.3,0.5,0.8,0.5,1.2c0,1.2-0.2,2.4-0.6,3.5c-0.9,2.6-1.9,4.9-2.9,6.9C125.7,27.8,125.7,28,125.9,28.1z
			"/>
	</g>
</g>
<g id="教育_1_" class="st3">
	<g id="XMLID_20_" class="st4">
		<rect id="XMLID_187_" x="25.5" y="12.7" class="st5" width="459.5" height="40.9"/>
		<path id="XMLID_23_" class="st2" d="M28.8,26.5c-0.5,0-0.9-0.2-1.3-0.5c-0.4-0.4-0.5-0.8-0.5-1.3s0.2-0.9,0.5-1.3s0.8-0.5,1.3-0.5
			h3.3c0.2,0,0.3-0.1,0.3-0.3v-2.3c0-0.2-0.1-0.3-0.3-0.3h-2.1c-0.5,0-0.9-0.2-1.2-0.5c-0.3-0.3-0.5-0.7-0.5-1.2
			c0-0.5,0.2-0.9,0.5-1.2c0.3-0.3,0.7-0.5,1.2-0.5h2.1c0.2,0,0.3-0.1,0.3-0.3v-0.1c0-0.5,0.2-1,0.6-1.4s0.8-0.6,1.4-0.6h0.5
			c0.5,0,1,0.2,1.4,0.6s0.6,0.8,0.6,1.4v0.1c0,0.2,0.1,0.3,0.3,0.3h1.5c0.5,0,1,0.2,1.4,0.6c0.4,0.4,0.6,0.8,0.6,1.4v0
			c0,0,0,0.1,0.1,0.1c0,0,0.1,0,0.1,0c0.3-0.5,0.7-1,1-1.6c0.3-0.5,0.6-0.8,1.1-1c0.5-0.2,1-0.2,1.5,0c0.5,0.2,0.8,0.5,1,1
			c0.2,0.5,0.2,0.9-0.1,1.4c-0.8,1.6-1.7,3.1-2.7,4.4c0,0.1,0,0.2,0.1,0.2c0.4,0,0.7,0.1,1,0.4c0.3,0.3,0.4,0.6,0.4,1v0.4
			c0,0.5-0.2,0.9-0.5,1.3c-0.4,0.4-0.8,0.5-1.3,0.5h-2.5c-0.2,0-0.4,0.1-0.5,0.2c-0.5,0.6-1.2,1.2-1.9,1.8c0,0-0.1,0.1,0,0.1
			c0,0,0.1,0.1,0.1,0.1h3.4c0.5,0,0.9,0.2,1.2,0.5c0.3,0.3,0.5,0.7,0.5,1.2c0,1.2-0.4,2.1-1.1,2.9c-0.5,0.5-0.9,1-1.4,1.4
			c0,0-0.1,0.1-0.1,0.1c0,0,0,0.1,0.1,0.1c0.3,0,0.9-0.1,1.8-0.1c0.9-0.1,1.5-0.1,1.9-0.2c0.5,0,0.9,0.1,1.2,0.4
			c0.3,0.3,0.5,0.7,0.5,1.2c0,0.5-0.1,0.9-0.4,1.3c-0.3,0.4-0.7,0.6-1.2,0.6c-1.7,0.2-3.2,0.3-4.7,0.4c-0.2,0-0.3,0.1-0.3,0.3v1.8
			c0,2.2-0.3,3.6-0.8,4.2c-0.5,0.5-1.8,0.8-4,0.8c-0.3,0-1.1,0-2.3-0.1c-0.5,0-1-0.2-1.3-0.6c-0.4-0.4-0.6-0.8-0.6-1.4
			c0-0.5,0.1-0.9,0.5-1.2s0.8-0.5,1.2-0.5c0.5,0,1.1,0,1.7,0c0.6,0,1-0.1,1.1-0.2c0.1-0.1,0.1-0.6,0.1-1.4V39c0-0.2-0.1-0.3-0.3-0.3
			c-0.5,0-1.3,0.1-2.4,0.1c-1.1,0.1-2,0.1-2.7,0.1c-0.5,0-0.9-0.1-1.3-0.5s-0.5-0.8-0.6-1.2c0-0.5,0.1-0.9,0.4-1.2
			c0.3-0.4,0.7-0.6,1.2-0.6c1.8-0.1,3.6-0.1,5.4-0.2c0.1,0,0.2-0.1,0.2-0.2c0-0.4,0.1-0.7,0.4-1c0.3-0.3,0.6-0.4,1-0.4H36
			c0.1,0,0.3,0,0.4-0.1c0.5-0.4,1-0.8,1.4-1.2c0,0,0.1-0.1,0-0.1c0-0.1-0.1-0.1-0.1-0.1h-4.5c-0.2,0-0.3,0.1-0.5,0.2
			c-0.8,0.5-1.6,1-2.5,1.4c-0.5,0.2-0.9,0.3-1.4,0.1c-0.5-0.1-0.9-0.4-1.1-0.9c-0.3-0.4-0.3-0.9-0.2-1.4c0.1-0.5,0.4-0.9,0.9-1.1
			c1.7-1,3.4-2.2,5.2-3.6c0,0,0.1-0.1,0-0.1c0,0-0.1-0.1-0.1-0.1H28.8z M36.6,20.3v2.3c0,0.2,0.1,0.3,0.3,0.3h0.1
			c0.2,0,0.4-0.1,0.5-0.2c0.7-0.8,1.3-1.6,1.9-2.5c0.1-0.1,0.1-0.2-0.1-0.2h-2.5C36.7,20,36.6,20.1,36.6,20.3z M57.9,23.1
			c-0.6,6-1.8,10.6-3.8,13.9c-0.1,0.2-0.1,0.3,0,0.5c1,1.3,2.3,2.4,3.8,3.4c0.5,0.3,0.8,0.7,0.9,1.3c0.2,0.5,0.1,1-0.2,1.5l0,0.1
			c-0.3,0.5-0.6,0.8-1.2,0.9c-0.5,0.2-1,0.1-1.4-0.2c-1.7-1.1-3.2-2.4-4.4-3.8c-0.2-0.1-0.3-0.2-0.4,0c-1.6,1.5-3.6,2.8-6.2,4.1
			c-0.5,0.2-1,0.3-1.5,0.1c-0.5-0.2-0.9-0.5-1.2-0.9l-0.1-0.1c-0.3-0.4-0.3-0.9-0.2-1.4c0.2-0.5,0.5-0.8,0.9-1.1
			c2.5-1.2,4.5-2.6,6-4.1c0.1-0.2,0.1-0.3,0.1-0.5c-0.9-1.8-1.7-4.1-2.3-6.9c0,0-0.1-0.1-0.1-0.1c0,0-0.1,0-0.1,0.1
			c-0.2,0.5-0.4,0.8-0.6,1.1c-0.2,0.4-0.6,0.7-1.1,0.7c-0.5,0-0.9-0.1-1.2-0.5l-0.4-0.4c-0.4-0.4-0.6-0.9-0.6-1.5
			c-0.1-0.6,0.1-1.1,0.3-1.6c1.7-3,3.2-6.9,4.5-11.7c0.1-0.5,0.4-1,0.9-1.3c0.5-0.3,1-0.4,1.5-0.4h0.1c0.5,0.1,1,0.3,1.3,0.7
			c0.3,0.4,0.4,0.9,0.3,1.4c-0.1,0.4-0.3,1.1-0.6,2.3c0,0.2,0,0.3,0.2,0.3h6.5c0.5,0,1,0.2,1.4,0.6c0.4,0.4,0.6,0.8,0.6,1.4v0.6
			c0,0.4-0.1,0.7-0.4,1c-0.3,0.3-0.6,0.4-1,0.4C58,22.9,57.9,23,57.9,23.1z M51.7,32.8c1-2.4,1.7-5.6,2.1-9.5c0-0.2-0.1-0.3-0.2-0.3
			h-3.9c-0.2,0-0.3,0.1-0.4,0.3c-0.3,0.7-0.5,1.4-0.8,2c0,0.1,0,0.1,0.1,0.1c0.3,0,0.6,0,0.9,0.2s0.4,0.4,0.5,0.7
			c0.4,2.6,0.9,4.7,1.5,6.5C51.6,32.8,51.6,32.8,51.7,32.8C51.7,32.8,51.7,32.8,51.7,32.8z"/>
		<path id="XMLID_172_" class="st2" d="M64.3,20.2c-0.5,0-0.9-0.2-1.2-0.5c-0.3-0.4-0.5-0.8-0.5-1.3c0-0.5,0.2-0.9,0.5-1.3
			c0.3-0.4,0.8-0.5,1.2-0.5h11.2c0.2,0,0.3-0.1,0.3-0.3V16c0-0.5,0.2-1,0.6-1.4s0.8-0.6,1.4-0.6h0.8c0.5,0,1,0.2,1.4,0.6
			s0.6,0.8,0.6,1.4v0.4c0,0.2,0.1,0.3,0.3,0.3h11.2c0.5,0,0.9,0.2,1.2,0.5c0.3,0.4,0.5,0.8,0.5,1.3c0,0.5-0.2,0.9-0.5,1.3
			c-0.3,0.4-0.8,0.5-1.2,0.5h-3.8c0,0-0.1,0-0.1,0.1c0,0.1,0,0.1,0,0.1c1.7,1.7,3.1,3.2,4.2,4.6c0.3,0.4,0.4,0.8,0.3,1.3
			c-0.1,0.5-0.4,0.8-0.8,1l-0.5,0.2c-0.5,0.2-1,0.3-1.6,0.2c-0.5-0.1-1-0.4-1.4-0.9c-0.1-0.1-0.2-0.3-0.4-0.5
			c-0.2-0.2-0.3-0.4-0.4-0.5c-0.1-0.1-0.2-0.2-0.5-0.2c-7.6,0.7-14.8,1.1-21.6,1.3c-0.5,0-0.9-0.1-1.3-0.5s-0.5-0.7-0.6-1.2
			c0-0.5,0.1-0.9,0.4-1.2c0.3-0.3,0.7-0.5,1.2-0.5c0.4,0,1.1,0,1.9-0.1c0.8,0,1.5-0.1,1.9-0.1c0.2,0,0.3-0.1,0.4-0.2
			c0.4-0.7,1-1.5,1.6-2.6c0,0,0.1-0.1,0-0.2c0-0.1-0.1-0.1-0.2-0.1H64.3z M85,42c0.6,0,0.9,0,1-0.1c0.1-0.1,0.2-0.3,0.2-0.8v-0.6
			c0-0.2-0.1-0.3-0.3-0.3H70.4c-0.2,0-0.3,0.1-0.3,0.3v3.1c0,0.5-0.2,1-0.6,1.4c-0.4,0.4-0.8,0.6-1.4,0.6h-0.8c-0.5,0-1-0.2-1.4-0.6
			c-0.4-0.4-0.6-0.8-0.6-1.4v-14c0-0.5,0.2-1,0.6-1.4s0.8-0.6,1.4-0.6h21.5c0.5,0,1,0.2,1.4,0.6c0.4,0.4,0.6,0.8,0.6,1.4v10.6
			c0,1,0,1.7-0.1,2.2c-0.1,0.5-0.2,1-0.4,1.5c-0.2,0.4-0.5,0.8-0.9,0.9c-0.4,0.2-0.9,0.3-1.5,0.4c-0.6,0.1-1.4,0.1-2.4,0.1
			c-0.5,0-1.6,0-3.4-0.1c-0.5,0-0.9-0.2-1.2-0.6c-0.3-0.4-0.5-0.8-0.5-1.3c0-0.5,0.1-0.9,0.5-1.2c0.3-0.4,0.7-0.5,1.2-0.5
			C83.4,42,84.4,42,85,42z M70.1,31.3v1c0,0.2,0.1,0.3,0.3,0.3h15.4c0.2,0,0.3-0.1,0.3-0.3v-1c0-0.2-0.1-0.3-0.3-0.3H70.4
			C70.2,31,70.1,31.1,70.1,31.3z M85.8,37.2c0.2,0,0.3-0.1,0.3-0.3v-1c0-0.2-0.1-0.3-0.3-0.3H70.4c-0.2,0-0.3,0.1-0.3,0.3v1
			c0,0.2,0.1,0.3,0.3,0.3H85.8z M82.9,20.2h-7.2c-0.2,0-0.2,0.1-0.2,0.2c0,0.3-0.1,0.5-0.2,0.8c-0.2,0.4-0.5,0.9-0.9,1.6
			c0,0-0.1,0.1,0,0.2c0,0.1,0.1,0.1,0.2,0.1c4.5-0.3,7.8-0.5,9.8-0.6c0,0,0.1,0,0.1-0.1c0,0,0-0.1,0-0.1c-0.1-0.1-0.2-0.2-0.4-0.4
			c-0.2-0.2-0.3-0.3-0.4-0.4c-0.3-0.3-0.4-0.6-0.4-0.9C83.2,20.3,83.1,20.2,82.9,20.2z"/>
		<path id="XMLID_178_" class="st2" d="M99.4,37c-0.5,0-1-0.2-1.4-0.6s-0.6-0.8-0.6-1.4c0-0.5,0.2-1,0.6-1.4
			c0.4-0.4,0.8-0.6,1.4-0.6h11.7c0.2,0,0.3-0.1,0.3-0.3v-0.2c0-0.5,0.2-1,0.6-1.4c0.4-0.4,0.8-0.6,1.4-0.6h0.8c0,0,0.1,0,0.1,0
			c0.1,0,0.1,0,0.1,0c0.2,0,0.3,0,0.5-0.2c0,0,0.1-0.1,0.1-0.1c0,0,0.1-0.1,0.1-0.1c1.1-0.7,2-1.4,2.7-2c0.1-0.1,0.1-0.1-0.1-0.1
			h-13.4c-0.5,0-1-0.2-1.3-0.6c-0.4-0.4-0.5-0.8-0.5-1.3v-0.1c0,0,0-0.1-0.1-0.1s-0.1,0-0.1,0c-0.4,0.5-0.9,0.7-1.5,0.7h-0.5
			c-0.5,0-1-0.2-1.4-0.6c-0.4-0.4-0.6-0.8-0.6-1.4v-4.1c0-0.5,0.2-1,0.6-1.4c0.4-0.4,0.8-0.6,1.4-0.6h2.1c0.1,0,0.1,0,0.2-0.1
			c0-0.1,0-0.1,0-0.2c-0.1-0.1-0.2-0.3-0.3-0.5c-0.1-0.2-0.2-0.4-0.3-0.5c-0.3-0.4-0.3-0.9-0.1-1.4c0.2-0.5,0.5-0.8,1-0.9l0.3-0.1
			c0.5-0.2,1-0.2,1.6,0s0.9,0.5,1.2,1c0.4,0.7,0.8,1.5,1.3,2.5c0.1,0.2,0.2,0.3,0.4,0.3h2.9c0.1,0,0.1,0,0.2-0.1c0-0.1,0-0.1,0-0.2
			c-0.1-0.1-0.2-0.4-0.4-0.7c-0.2-0.3-0.3-0.5-0.4-0.7c-0.2-0.5-0.3-0.9-0.1-1.4s0.5-0.8,1-1l0.3-0.1c0.5-0.2,1-0.2,1.6,0
			c0.5,0.2,1,0.5,1.2,1c0.6,1.1,1.1,2,1.4,2.8c0.1,0.1,0.2,0.2,0.4,0.2h2.4c0.2,0,0.4-0.1,0.5-0.2c0.7-1.1,1.1-2,1.4-2.5
			c0.3-0.5,0.6-0.9,1.2-1.1c0.5-0.2,1-0.3,1.6-0.2l0.3,0.1c0.5,0.1,0.8,0.4,1.1,0.8c0.2,0.4,0.2,0.9,0,1.3c-0.1,0.2-0.2,0.4-0.4,0.8
			s-0.3,0.6-0.4,0.8c0,0-0.1,0.1,0,0.2c0,0.1,0.1,0.1,0.2,0.1h2.1c0.5,0,1,0.2,1.4,0.6c0.4,0.4,0.6,0.8,0.6,1.4v4.1
			c0,0.5-0.2,1-0.6,1.4c-0.4,0.4-0.8,0.6-1.4,0.6h-0.5c-0.6,0-1.1-0.2-1.5-0.7c0,0-0.1,0-0.1,0s-0.1,0-0.1,0.1v0.1
			c0,1.3-0.4,2.3-1.3,3.2c-1.3,1.2-2.8,2.4-4.4,3.5c0,0-0.1,0.1-0.1,0.1c0,0,0,0.1,0.1,0.1h8.9c0.5,0,1,0.2,1.4,0.6
			c0.4,0.4,0.6,0.8,0.6,1.4c0,0.5-0.2,1-0.6,1.4s-0.8,0.6-1.4,0.6h-10.5c-0.2,0-0.3,0.1-0.3,0.3v4.1c0,1.1,0,1.9-0.1,2.4
			c-0.1,0.5-0.3,0.9-0.7,1.2c-0.4,0.3-0.9,0.5-1.5,0.6c-0.6,0.1-1.6,0.1-2.9,0.1c-1.3,0-2.6,0-3.7-0.1c-0.5,0-1-0.2-1.4-0.6
			c-0.4-0.4-0.6-0.8-0.6-1.4c0-0.5,0.1-1,0.5-1.3c0.4-0.4,0.8-0.5,1.3-0.5c1.5,0.1,2.6,0.1,3.2,0.1c0.7,0,1-0.1,1.2-0.2
			c0.1-0.1,0.2-0.4,0.2-1v-3.4c0-0.2-0.1-0.3-0.3-0.3H99.4z M104.5,24.4h17.4c0.6,0,1,0.2,1.4,0.7c0,0,0.1,0,0.1,0c0,0,0-0.1,0-0.1
			c0,0,0-0.1,0-0.1v-2.2c0-0.2-0.1-0.3-0.3-0.3h-19.9c-0.2,0-0.3,0.1-0.3,0.3v2.2c0,0,0,0.1,0,0.1c0,0,0,0.1,0,0.1c0,0,0,0,0.1,0.1
			c0,0,0.1,0,0.1,0C103.4,24.6,103.9,24.4,104.5,24.4z"/>
		<path id="XMLID_181_" class="st2" d="M148.4,26.4c0.5,0,1,0.2,1.4,0.5c0.4,0.4,0.5,0.8,0.5,1.4c0,0.5-0.2,1-0.5,1.4
			c-0.4,0.4-0.8,0.5-1.4,0.5h-14.2c-0.5,0-1-0.2-1.3-0.5c-0.4-0.4-0.5-0.8-0.5-1.4c0-0.5,0.2-1,0.5-1.4c0.4-0.4,0.8-0.5,1.3-0.5h1.3
			c0.2,0,0.3-0.1,0.2-0.3c-0.3-1.1-0.7-2.8-1.4-5.2c0-0.1-0.1-0.2-0.3-0.2c-0.4,0-0.7-0.1-1-0.4c-0.3-0.3-0.4-0.6-0.4-1v-0.4
			c0-0.5,0.2-0.9,0.5-1.3s0.8-0.5,1.3-0.5h4c0.2,0,0.3-0.1,0.3-0.3V16c0-0.5,0.2-1,0.6-1.4c0.4-0.4,0.8-0.6,1.4-0.6h0.7
			c0.5,0,1,0.2,1.4,0.6c0.4,0.4,0.6,0.8,0.6,1.4v0.7c0,0.2,0.1,0.3,0.3,0.3h4.3c0.5,0,0.9,0.2,1.3,0.5s0.5,0.8,0.5,1.3v0.5
			c0,0.4-0.1,0.7-0.4,1c-0.3,0.3-0.6,0.4-1,0.4c-0.1,0-0.2,0.1-0.2,0.2c-0.3,1.6-0.8,3.3-1.4,5.3c0,0.2,0,0.2,0.2,0.2H148.4z
			 M137.2,45.7h-1.4c-0.5,0-1-0.2-1.4-0.6s-0.6-0.8-0.6-1.4v-9.5c0-0.5,0.2-1,0.6-1.4s0.8-0.6,1.4-0.6h11.4c0.5,0,1,0.2,1.4,0.6
			c0.4,0.4,0.6,0.8,0.6,1.4v9.5c0,0.5-0.2,1-0.6,1.4c-0.4,0.4-0.8,0.6-1.4,0.6h-1.3c-0.3,0-0.6-0.1-0.8-0.3
			c-0.2-0.2-0.3-0.5-0.3-0.8c0-0.1-0.1-0.2-0.2-0.2h-6.2c-0.1,0-0.1,0.1-0.1,0.2c0,0.3-0.1,0.6-0.3,0.8
			C137.8,45.6,137.5,45.7,137.2,45.7z M138.3,36.2v4.4c0,0.2,0.1,0.3,0.3,0.3h6c0.2,0,0.3-0.1,0.3-0.3v-4.4c0-0.2-0.1-0.3-0.3-0.3
			h-6C138.4,35.9,138.3,36,138.3,36.2z M142.9,26.1c0.6-2,1.1-3.7,1.3-5.1c0-0.2,0-0.3-0.2-0.3h-5.2c-0.2,0-0.3,0.1-0.2,0.3
			c0.4,1.5,0.8,3.2,1.3,5.2c0,0.2,0.1,0.2,0.4,0.2h2.3C142.8,26.4,142.9,26.3,142.9,26.1z M160.9,28.1c1.1,1.1,2,2.3,2.7,3.8
			c0.6,1.4,1,2.9,1,4.4c0,2.2-0.4,3.7-1.3,4.6c-0.9,0.9-2.2,1.4-4,1.4H159c-0.6,0-1.1-0.2-1.5-0.5c-0.4-0.4-0.7-0.8-0.8-1.4
			c-0.1-0.5,0-0.9,0.3-1.3c0.3-0.4,0.7-0.6,1.2-0.6c0.8-0.1,1.3-0.3,1.6-0.6c0.3-0.3,0.4-0.9,0.4-1.7c0-2-0.9-4.1-2.8-6.4
			c-0.8-1-1-2.1-0.4-3.2c1.2-2.5,2.1-4.8,2.8-7c0-0.2,0-0.3-0.2-0.3H156c-0.2,0-0.3,0.1-0.3,0.3v24.4c0,0.5-0.2,1-0.6,1.4
			c-0.4,0.4-0.8,0.6-1.4,0.6h-0.5c-0.5,0-1-0.2-1.4-0.6s-0.6-0.8-0.6-1.4V17.4c0-0.5,0.2-1,0.6-1.4c0.4-0.4,0.8-0.6,1.4-0.6h9.2
			c0.5,0,0.9,0.2,1.2,0.5c0.3,0.3,0.5,0.8,0.5,1.2c0,1.2-0.2,2.4-0.6,3.5c-0.9,2.6-1.9,4.9-2.9,6.9C160.7,27.8,160.8,28,160.9,28.1z
			"/>
	</g>
</g>
<g id="文学_1_">
	<g id="XMLID_33_">
		<rect id="XMLID_198_" x="25.5" y="12.7" class="st5" width="459.5" height="40.9"/>
		<path id="XMLID_21_" class="st2" d="M29.8,22.8c-0.5,0-1-0.2-1.4-0.6c-0.4-0.4-0.6-0.8-0.6-1.4v0c0-0.5,0.2-1,0.6-1.4
			c0.4-0.4,0.8-0.6,1.4-0.6h10.7c0.2,0,0.3-0.1,0.3-0.3v-2.5c0-0.5,0.2-1,0.6-1.4s0.8-0.6,1.4-0.6h0.8c0.5,0,1,0.2,1.4,0.6
			s0.6,0.8,0.6,1.4v2.5c0,0.2,0.1,0.3,0.3,0.3h10.7c0.5,0,1,0.2,1.4,0.6c0.4,0.4,0.6,0.8,0.6,1.4v0c0,0.5-0.2,1-0.6,1.4
			c-0.4,0.4-0.8,0.6-1.4,0.6h-2.2c-0.2,0-0.3,0.1-0.4,0.3c-1.9,5.8-4.2,10.2-7.1,13.2c-0.1,0.1-0.1,0.3,0,0.4
			c2.5,1.5,5.8,2.9,9.9,4.2c0.5,0.2,0.9,0.5,1.1,0.9c0.2,0.5,0.3,1,0.1,1.5l-0.1,0.2c-0.2,0.5-0.5,0.9-1,1.2c-0.5,0.3-1,0.3-1.5,0.1
			c-5-1.5-9-3.2-11.9-5.2c-0.2-0.1-0.3-0.1-0.5,0c-3,2.1-7,3.8-12,5.3c-0.5,0.2-1,0.1-1.5-0.2c-0.5-0.3-0.8-0.7-1-1.2l-0.1-0.2
			c-0.2-0.5-0.1-1,0.1-1.5c0.2-0.5,0.6-0.8,1.1-0.9c4.1-1.3,7.4-2.7,9.9-4.2c0.1,0,0.1-0.1,0.1-0.2c0-0.1,0-0.2-0.1-0.2
			c-2.3-2.4-4.2-5.5-5.9-9.4c-0.2-0.5-0.2-1,0.1-1.4c0.2-0.5,0.6-0.8,1.1-0.9l0.5-0.1c0.5-0.1,1.1-0.1,1.5,0.2
			c0.5,0.3,0.8,0.6,1.1,1.2c1.3,3.3,3,5.9,4.9,7.9c0.1,0.1,0.2,0.1,0.4,0c2.3-2.4,4.2-5.9,5.8-10.5c0-0.2,0-0.3-0.2-0.3H29.8z"/>
		<path id="XMLID_189_" class="st2" d="M64.4,37c-0.5,0-1-0.2-1.4-0.6s-0.6-0.8-0.6-1.4c0-0.5,0.2-1,0.6-1.4
			c0.4-0.4,0.8-0.6,1.4-0.6h11.7c0.2,0,0.3-0.1,0.3-0.3v-0.2c0-0.5,0.2-1,0.6-1.4c0.4-0.4,0.8-0.6,1.4-0.6h0.8c0,0,0.1,0,0.1,0
			c0.1,0,0.1,0,0.1,0c0.2,0,0.3,0,0.5-0.2c0,0,0.1-0.1,0.1-0.1c0,0,0.1-0.1,0.1-0.1c1.1-0.7,2-1.4,2.7-2c0.1-0.1,0.1-0.1-0.1-0.1
			H69.4c-0.5,0-1-0.2-1.3-0.6c-0.4-0.4-0.5-0.8-0.5-1.3v-0.1c0,0,0-0.1-0.1-0.1s-0.1,0-0.1,0c-0.4,0.5-0.9,0.7-1.5,0.7h-0.5
			c-0.5,0-1-0.2-1.4-0.6c-0.4-0.4-0.6-0.8-0.6-1.4v-4.1c0-0.5,0.2-1,0.6-1.4c0.4-0.4,0.8-0.6,1.4-0.6h2.1c0.1,0,0.1,0,0.2-0.1
			c0-0.1,0-0.1,0-0.2c-0.1-0.1-0.2-0.3-0.3-0.5c-0.1-0.2-0.2-0.4-0.3-0.5c-0.3-0.4-0.3-0.9-0.1-1.4c0.2-0.5,0.5-0.8,1-0.9l0.3-0.1
			c0.5-0.2,1-0.2,1.6,0s0.9,0.5,1.2,1c0.4,0.7,0.8,1.5,1.3,2.5c0.1,0.2,0.2,0.3,0.4,0.3h2.9c0.1,0,0.1,0,0.2-0.1c0-0.1,0-0.1,0-0.2
			c-0.1-0.1-0.2-0.4-0.4-0.7c-0.2-0.3-0.3-0.5-0.4-0.7c-0.2-0.5-0.3-0.9-0.1-1.4s0.5-0.8,1-1l0.3-0.1c0.5-0.2,1-0.2,1.6,0
			c0.5,0.2,1,0.5,1.2,1c0.6,1.1,1.1,2,1.4,2.8c0.1,0.1,0.2,0.2,0.4,0.2h2.4c0.2,0,0.4-0.1,0.5-0.2c0.7-1.1,1.1-2,1.4-2.5
			c0.3-0.5,0.6-0.9,1.2-1.1c0.5-0.2,1-0.3,1.6-0.2l0.3,0.1c0.5,0.1,0.8,0.4,1.1,0.8c0.2,0.4,0.2,0.9,0,1.3c-0.1,0.2-0.2,0.4-0.4,0.8
			s-0.3,0.6-0.4,0.8c0,0-0.1,0.1,0,0.2c0,0.1,0.1,0.1,0.2,0.1h2.1c0.5,0,1,0.2,1.4,0.6c0.4,0.4,0.6,0.8,0.6,1.4v4.1
			c0,0.5-0.2,1-0.6,1.4c-0.4,0.4-0.8,0.6-1.4,0.6h-0.5c-0.6,0-1.1-0.2-1.5-0.7c0,0-0.1,0-0.1,0s-0.1,0-0.1,0.1v0.1
			c0,1.3-0.4,2.3-1.3,3.2C86,30.7,84.5,31.8,83,33c0,0-0.1,0.1-0.1,0.1c0,0,0,0.1,0.1,0.1h8.9c0.5,0,1,0.2,1.4,0.6
			c0.4,0.4,0.6,0.8,0.6,1.4c0,0.5-0.2,1-0.6,1.4S92.4,37,91.9,37H81.4c-0.2,0-0.3,0.1-0.3,0.3v4.1c0,1.1,0,1.9-0.1,2.4
			c-0.1,0.5-0.3,0.9-0.7,1.2c-0.4,0.3-0.9,0.5-1.5,0.6c-0.6,0.1-1.6,0.1-2.9,0.1c-1.3,0-2.6,0-3.7-0.1c-0.5,0-1-0.2-1.4-0.6
			c-0.4-0.4-0.6-0.8-0.6-1.4c0-0.5,0.1-1,0.5-1.3c0.4-0.4,0.8-0.5,1.3-0.5c1.5,0.1,2.6,0.1,3.2,0.1c0.7,0,1-0.1,1.2-0.2
			c0.1-0.1,0.2-0.4,0.2-1v-3.4c0-0.2-0.1-0.3-0.3-0.3H64.4z M69.4,24.4h17.4c0.6,0,1,0.2,1.4,0.7c0,0,0.1,0,0.1,0c0,0,0-0.1,0-0.1
			c0,0,0-0.1,0-0.1v-2.2c0-0.2-0.1-0.3-0.3-0.3H68.2c-0.2,0-0.3,0.1-0.3,0.3v2.2c0,0,0,0.1,0,0.1c0,0,0,0.1,0,0.1c0,0,0,0,0.1,0.1
			c0,0,0.1,0,0.1,0C68.4,24.6,68.9,24.4,69.4,24.4z"/>
		<path id="XMLID_192_" class="st2" d="M113.4,26.4c0.5,0,1,0.2,1.4,0.5c0.4,0.4,0.5,0.8,0.5,1.4c0,0.5-0.2,1-0.5,1.4
			c-0.4,0.4-0.8,0.5-1.4,0.5H99.2c-0.5,0-1-0.2-1.3-0.5c-0.4-0.4-0.5-0.8-0.5-1.4c0-0.5,0.2-1,0.5-1.4c0.4-0.4,0.8-0.5,1.3-0.5h1.3
			c0.2,0,0.3-0.1,0.2-0.3c-0.3-1.1-0.7-2.8-1.4-5.2c0-0.1-0.1-0.2-0.3-0.2c-0.4,0-0.7-0.1-1-0.4c-0.3-0.3-0.4-0.6-0.4-1v-0.4
			c0-0.5,0.2-0.9,0.5-1.3S99,17,99.5,17h4c0.2,0,0.3-0.1,0.3-0.3V16c0-0.5,0.2-1,0.6-1.4c0.4-0.4,0.8-0.6,1.4-0.6h0.7
			c0.5,0,1,0.2,1.4,0.6c0.4,0.4,0.6,0.8,0.6,1.4v0.7c0,0.2,0.1,0.3,0.3,0.3h4.3c0.5,0,0.9,0.2,1.3,0.5s0.5,0.8,0.5,1.3v0.5
			c0,0.4-0.1,0.7-0.4,1c-0.3,0.3-0.6,0.4-1,0.4c-0.1,0-0.2,0.1-0.2,0.2c-0.3,1.6-0.8,3.3-1.4,5.3c0,0.2,0,0.2,0.2,0.2H113.4z
			 M102.1,45.7h-1.4c-0.5,0-1-0.2-1.4-0.6s-0.6-0.8-0.6-1.4v-9.5c0-0.5,0.2-1,0.6-1.4s0.8-0.6,1.4-0.6h11.4c0.5,0,1,0.2,1.4,0.6
			c0.4,0.4,0.6,0.8,0.6,1.4v9.5c0,0.5-0.2,1-0.6,1.4c-0.4,0.4-0.8,0.6-1.4,0.6h-1.3c-0.3,0-0.6-0.1-0.8-0.3
			c-0.2-0.2-0.3-0.5-0.3-0.8c0-0.1-0.1-0.2-0.2-0.2h-6.2c-0.1,0-0.1,0.1-0.1,0.2c0,0.3-0.1,0.6-0.3,0.8
			C102.7,45.6,102.4,45.7,102.1,45.7z M103.2,36.2v4.4c0,0.2,0.1,0.3,0.3,0.3h6c0.2,0,0.3-0.1,0.3-0.3v-4.4c0-0.2-0.1-0.3-0.3-0.3
			h-6C103.3,35.9,103.2,36,103.2,36.2z M107.9,26.1c0.6-2,1.1-3.7,1.3-5.1c0-0.2,0-0.3-0.2-0.3h-5.2c-0.2,0-0.3,0.1-0.2,0.3
			c0.4,1.5,0.8,3.2,1.3,5.2c0,0.2,0.1,0.2,0.4,0.2h2.3C107.7,26.4,107.8,26.3,107.9,26.1z M125.9,28.1c1.1,1.1,2,2.3,2.7,3.8
			c0.6,1.4,1,2.9,1,4.4c0,2.2-0.4,3.7-1.3,4.6c-0.9,0.9-2.2,1.4-4,1.4h-0.2c-0.6,0-1.1-0.2-1.5-0.5c-0.4-0.4-0.7-0.8-0.8-1.4
			c-0.1-0.5,0-0.9,0.3-1.3c0.3-0.4,0.7-0.6,1.2-0.6c0.8-0.1,1.3-0.3,1.6-0.6c0.3-0.3,0.4-0.9,0.4-1.7c0-2-0.9-4.1-2.8-6.4
			c-0.8-1-1-2.1-0.4-3.2c1.2-2.5,2.1-4.8,2.8-7c0-0.2,0-0.3-0.2-0.3h-3.5c-0.2,0-0.3,0.1-0.3,0.3v24.4c0,0.5-0.2,1-0.6,1.4
			c-0.4,0.4-0.8,0.6-1.4,0.6h-0.5c-0.5,0-1-0.2-1.4-0.6s-0.6-0.8-0.6-1.4V17.4c0-0.5,0.2-1,0.6-1.4c0.4-0.4,0.8-0.6,1.4-0.6h9.2
			c0.5,0,0.9,0.2,1.2,0.5c0.3,0.3,0.5,0.8,0.5,1.2c0,1.2-0.2,2.4-0.6,3.5c-0.9,2.6-1.9,4.9-2.9,6.9C125.7,27.8,125.7,28,125.9,28.1z
			"/>
	</g>
	<g id="XMLID_1_">
	</g>
	<g id="XMLID_34_">
	</g>
	<g id="XMLID_199_">
	</g>
	<g id="XMLID_200_">
	</g>
	<g id="XMLID_201_">
	</g>
	<g id="XMLID_202_">
	</g>
</g>
</svg>
