<?xml version="1.0" encoding="utf-8"?>
<!-- Generator: Adobe Illustrator 19.0.0, SVG Export Plug-In . SVG Version: 6.00 Build 0)  -->
<svg version="1.1" id="レイヤー_1" xmlns="http://www.w3.org/2000/svg" xmlns:xlink="http://www.w3.org/1999/xlink" x="0px"
	 y="0px" viewBox="0 0 640 60.3" style="enable-background:new 0 0 640 60.3;" xml:space="preserve">
<style type="text/css">
	.st0{fill:#E99415;}
	.st1{fill:#FFFFFF;}
	.st2{fill:none;}
	.st3{fill:#E09120;}
</style>
<g id="XMLID_1_">
	<rect id="XMLID_10_" x="1.3" y="0" class="st0" width="639.4" height="60.3"/>
	<polygon id="XMLID_11_" class="st1" points="615.5,15.1 596.6,47.8 577.7,15.1 	"/>
	<g id="XMLID_30_">
		<rect id="XMLID_33_" x="25.5" y="12.7" class="st2" width="459.5" height="40.9"/>
		<path id="XMLID_4_" class="st1" d="M29.3,37c-0.5,0-1-0.2-1.4-0.6s-0.6-0.8-0.6-1.4c0-0.5,0.2-1,0.6-1.4c0.4-0.4,0.8-0.6,1.4-0.6
			H41c0.2,0,0.3-0.1,0.3-0.3v-0.2c0-0.5,0.2-1,0.6-1.4c0.4-0.4,0.8-0.6,1.4-0.6h0.8c0,0,0.1,0,0.1,0c0.1,0,0.1,0,0.1,0
			c0.2,0,0.3,0,0.5-0.2c0,0,0.1-0.1,0.1-0.1c0,0,0.1-0.1,0.1-0.1c1.1-0.7,2-1.4,2.7-2c0.1-0.1,0.1-0.1-0.1-0.1H34.4
			c-0.5,0-1-0.2-1.3-0.6c-0.4-0.4-0.5-0.8-0.5-1.3v-0.1c0,0,0-0.1-0.1-0.1s-0.1,0-0.1,0c-0.4,0.5-0.9,0.7-1.5,0.7h-0.5
			c-0.5,0-1-0.2-1.4-0.6c-0.4-0.4-0.6-0.8-0.6-1.4v-4.1c0-0.5,0.2-1,0.6-1.4c0.4-0.4,0.8-0.6,1.4-0.6h2.1c0.1,0,0.1,0,0.2-0.1
			c0-0.1,0-0.1,0-0.2c-0.1-0.1-0.2-0.3-0.3-0.5c-0.1-0.2-0.2-0.4-0.3-0.5c-0.3-0.4-0.3-0.9-0.1-1.4c0.2-0.5,0.5-0.8,1-0.9l0.3-0.1
			c0.5-0.2,1-0.2,1.6,0s0.9,0.5,1.2,1c0.4,0.7,0.8,1.5,1.3,2.5c0.1,0.2,0.2,0.3,0.4,0.3h2.9c0.1,0,0.1,0,0.2-0.1c0-0.1,0-0.1,0-0.2
			c-0.1-0.1-0.2-0.4-0.4-0.7c-0.2-0.3-0.3-0.5-0.4-0.7c-0.2-0.5-0.3-0.9-0.1-1.4s0.5-0.8,1-1l0.3-0.1c0.5-0.2,1-0.2,1.6,0
			c0.5,0.2,1,0.5,1.2,1c0.6,1.1,1.1,2,1.4,2.8c0.1,0.1,0.2,0.2,0.4,0.2h2.4c0.2,0,0.4-0.1,0.5-0.2c0.7-1.1,1.1-2,1.4-2.5
			c0.3-0.5,0.6-0.9,1.2-1.1c0.5-0.2,1-0.3,1.6-0.2l0.3,0.1c0.5,0.1,0.8,0.4,1.1,0.8c0.2,0.4,0.2,0.9,0,1.3c-0.1,0.2-0.2,0.4-0.4,0.8
			s-0.3,0.6-0.4,0.8c0,0-0.1,0.1,0,0.2c0,0.1,0.1,0.1,0.2,0.1h2.1c0.5,0,1,0.2,1.4,0.6c0.4,0.4,0.6,0.8,0.6,1.4v4.1
			c0,0.5-0.2,1-0.6,1.4c-0.4,0.4-0.8,0.6-1.4,0.6h-0.5c-0.6,0-1.1-0.2-1.5-0.7c0,0-0.1,0-0.1,0s-0.1,0-0.1,0.1v0.1
			c0,1.3-0.4,2.3-1.3,3.2c-1.3,1.2-2.8,2.4-4.4,3.5c0,0-0.1,0.1-0.1,0.1c0,0,0,0.1,0.1,0.1h8.9c0.5,0,1,0.2,1.4,0.6
			c0.4,0.4,0.6,0.8,0.6,1.4c0,0.5-0.2,1-0.6,1.4S57.3,37,56.8,37H46.3c-0.2,0-0.3,0.1-0.3,0.3v4.1c0,1.1,0,1.9-0.1,2.4
			c-0.1,0.5-0.3,0.9-0.7,1.2c-0.4,0.3-0.9,0.5-1.5,0.6c-0.6,0.1-1.6,0.1-2.9,0.1c-1.3,0-2.6,0-3.7-0.1c-0.5,0-1-0.2-1.4-0.6
			c-0.4-0.4-0.6-0.8-0.6-1.4c0-0.5,0.1-1,0.5-1.3c0.4-0.4,0.8-0.5,1.3-0.5c1.5,0.1,2.6,0.1,3.2,0.1c0.7,0,1-0.1,1.2-0.2
			c0.1-0.1,0.2-0.4,0.2-1v-3.4c0-0.2-0.1-0.3-0.3-0.3H29.3z M34.4,24.4h17.4c0.6,0,1,0.2,1.4,0.7c0,0,0.1,0,0.1,0c0,0,0-0.1,0-0.1
			c0,0,0-0.1,0-0.1v-2.2c0-0.2-0.1-0.3-0.3-0.3H33.1c-0.2,0-0.3,0.1-0.3,0.3v2.2c0,0,0,0.1,0,0.1c0,0,0,0.1,0,0.1c0,0,0,0,0.1,0.1
			c0,0,0.1,0,0.1,0C33.3,24.6,33.8,24.4,34.4,24.4z"/>
		<path id="XMLID_7_" class="st1" d="M78.3,26.4c0.5,0,1,0.2,1.4,0.5c0.4,0.4,0.5,0.8,0.5,1.4c0,0.5-0.2,1-0.5,1.4
			c-0.4,0.4-0.8,0.5-1.4,0.5H64.1c-0.5,0-1-0.2-1.3-0.5c-0.4-0.4-0.5-0.8-0.5-1.4c0-0.5,0.2-1,0.5-1.4c0.4-0.4,0.8-0.5,1.3-0.5h1.3
			c0.2,0,0.3-0.1,0.2-0.3c-0.3-1.1-0.7-2.8-1.4-5.2c0-0.1-0.1-0.2-0.3-0.2c-0.4,0-0.7-0.1-1-0.4c-0.3-0.3-0.4-0.6-0.4-1v-0.4
			c0-0.5,0.2-0.9,0.5-1.3s0.8-0.5,1.3-0.5h4c0.2,0,0.3-0.1,0.3-0.3V16c0-0.5,0.2-1,0.6-1.4c0.4-0.4,0.8-0.6,1.4-0.6h0.7
			c0.5,0,1,0.2,1.4,0.6c0.4,0.4,0.6,0.8,0.6,1.4v0.7c0,0.2,0.1,0.3,0.3,0.3H78c0.5,0,0.9,0.2,1.3,0.5s0.5,0.8,0.5,1.3v0.5
			c0,0.4-0.1,0.7-0.4,1c-0.3,0.3-0.6,0.4-1,0.4c-0.1,0-0.2,0.1-0.2,0.2c-0.3,1.6-0.8,3.3-1.4,5.3c0,0.2,0,0.2,0.2,0.2H78.3z
			 M67.1,45.7h-1.4c-0.5,0-1-0.2-1.4-0.6s-0.6-0.8-0.6-1.4v-9.5c0-0.5,0.2-1,0.6-1.4s0.8-0.6,1.4-0.6H77c0.5,0,1,0.2,1.4,0.6
			c0.4,0.4,0.6,0.8,0.6,1.4v9.5c0,0.5-0.2,1-0.6,1.4c-0.4,0.4-0.8,0.6-1.4,0.6h-1.3c-0.3,0-0.6-0.1-0.8-0.3
			c-0.2-0.2-0.3-0.5-0.3-0.8c0-0.1-0.1-0.2-0.2-0.2h-6.2c-0.1,0-0.1,0.1-0.1,0.2c0,0.3-0.1,0.6-0.3,0.8
			C67.6,45.6,67.4,45.7,67.1,45.7z M68.2,36.2v4.4c0,0.2,0.1,0.3,0.3,0.3h6c0.2,0,0.3-0.1,0.3-0.3v-4.4c0-0.2-0.1-0.3-0.3-0.3h-6
			C68.2,35.9,68.2,36,68.2,36.2z M72.8,26.1c0.6-2,1.1-3.7,1.3-5.1c0-0.2,0-0.3-0.2-0.3h-5.2c-0.2,0-0.3,0.1-0.2,0.3
			c0.4,1.5,0.8,3.2,1.3,5.2c0,0.2,0.1,0.2,0.4,0.2h2.3C72.6,26.4,72.8,26.3,72.8,26.1z M90.8,28.1c1.1,1.1,2,2.3,2.7,3.8
			c0.6,1.4,1,2.9,1,4.4c0,2.2-0.4,3.7-1.3,4.6c-0.9,0.9-2.2,1.4-4,1.4h-0.2c-0.6,0-1.1-0.2-1.5-0.5c-0.4-0.4-0.7-0.8-0.8-1.4
			c-0.1-0.5,0-0.9,0.3-1.3c0.3-0.4,0.7-0.6,1.2-0.6c0.8-0.1,1.3-0.3,1.6-0.6c0.3-0.3,0.4-0.9,0.4-1.7c0-2-0.9-4.1-2.8-6.4
			c-0.8-1-1-2.1-0.4-3.2c1.2-2.5,2.1-4.8,2.8-7c0-0.2,0-0.3-0.2-0.3h-3.5c-0.2,0-0.3,0.1-0.3,0.3v24.4c0,0.5-0.2,1-0.6,1.4
			c-0.4,0.4-0.8,0.6-1.4,0.6h-0.5c-0.5,0-1-0.2-1.4-0.6s-0.6-0.8-0.6-1.4V17.4c0-0.5,0.2-1,0.6-1.4c0.4-0.4,0.8-0.6,1.4-0.6h9.2
			c0.5,0,0.9,0.2,1.2,0.5c0.3,0.3,0.5,0.8,0.5,1.2c0,1.2-0.2,2.4-0.6,3.5c-0.9,2.6-1.9,4.9-2.9,6.9C90.6,27.8,90.6,28,90.8,28.1z"/>
		<path id="XMLID_17_" class="st1" d="M100.2,36.9c-0.5,0.1-1.1,0.1-1.5-0.2c-0.5-0.3-0.8-0.7-1-1.2c-0.2-0.5-0.1-1,0.1-1.4
			c0.2-0.5,0.6-0.7,1.1-0.9c3.5-0.9,6.9-2.2,10.2-3.8c0.2-0.1,0.2-0.2,0.1-0.4c-0.9-1.2-1.6-2.1-2.1-2.7c-0.3-0.4-0.5-0.9-0.4-1.4
			c0.1-0.5,0.3-0.9,0.7-1.3l0.2-0.2c0.4-0.3,0.9-0.5,1.5-0.4c0.5,0.1,1,0.3,1.4,0.7c1,1.1,1.8,2.1,2.5,3v0c0,0,0,0,0,0
			c0.1,0.1,0.2,0.1,0.4,0.1c3-2,5.2-4.1,6.6-6.3c0,0,0.1-0.1,0-0.2c0-0.1-0.1-0.1-0.2-0.1h-10.5c-0.2,0-0.3,0.1-0.5,0.2
			c-2.1,1.8-4.6,3.6-7.3,5.2c-0.5,0.3-1,0.3-1.5,0.2s-0.9-0.5-1.2-0.9c-0.3-0.5-0.3-1-0.2-1.5c0.1-0.5,0.4-0.9,0.9-1.2
			c3.4-2.1,6.3-4.5,8.7-7c0.9-1,1.9-1.2,3.1-0.8l0.5,0.1c0.4,0.1,0.6,0.4,0.8,0.7c0.2,0.4,0.2,0.7,0.1,1.1c0,0.2,0,0.3,0.1,0.3h10
			c0.5,0,1,0.2,1.3,0.5c0.4,0.4,0.6,0.8,0.6,1.4c0,1.4-0.3,2.6-0.9,3.6c-1.8,3-4.6,5.7-8.2,8.2c0,0-0.1,0.1-0.1,0.1s0,0.1,0.1,0.1
			h10.2c0.5,0,1,0.2,1.4,0.6c0.4,0.4,0.6,0.8,0.6,1.4v11.2c0,0.5-0.2,1-0.6,1.4c-0.4,0.4-0.8,0.6-1.4,0.6h-1.3c-0.4,0-0.7-0.1-1-0.4
			c-0.3-0.3-0.4-0.6-0.4-1c0-0.1-0.1-0.2-0.2-0.2h-12.2c-0.1,0-0.2,0.1-0.2,0.2c0,0.4-0.1,0.7-0.4,1c-0.3,0.3-0.6,0.4-1,0.4h-1.1
			c-0.5,0-1-0.2-1.4-0.6c-0.4-0.4-0.6-0.8-0.6-1.4v-8.3c0-0.2-0.1-0.2-0.3-0.2C104.3,35.7,102.3,36.3,100.2,36.9z M123.2,34.4
			c0-0.2-0.1-0.3-0.3-0.3h-12c-0.2,0-0.3,0.1-0.3,0.3V40c0,0.2,0.1,0.3,0.3,0.3h12c0.2,0,0.3-0.1,0.3-0.3V34.4z"/>
		<path id="XMLID_20_" class="st1" d="M135.9,22.9c-0.5,0-1-0.2-1.4-0.6c-0.4-0.4-0.6-0.8-0.6-1.4c0-0.5,0.2-1,0.6-1.4
			c0.4-0.4,0.8-0.6,1.3-0.6c1.2,0,3.1,0,5.4-0.1c0.2,0,0.3-0.1,0.4-0.3c0.1-0.3,0.3-0.7,0.5-1.3c0.2-0.6,0.3-0.9,0.4-1.1
			c0.2-0.5,0.5-0.9,1-1.2c0.5-0.3,1-0.4,1.5-0.3l0.7,0.1c0.5,0.1,0.9,0.4,1.2,0.8c0.3,0.5,0.3,1,0.1,1.5c0,0.2-0.1,0.4-0.2,0.7
			c-0.1,0.3-0.2,0.5-0.2,0.6c0,0.1,0,0.1,0,0.2c0,0.1,0.1,0.1,0.2,0.1c3.7-0.2,7.1-0.4,10.2-0.6c0.5,0,1,0.1,1.4,0.5
			c0.4,0.4,0.6,0.8,0.6,1.3c0,0.5-0.2,1-0.5,1.4c-0.4,0.4-0.8,0.6-1.4,0.7c-4.2,0.3-8.1,0.5-12,0.6c-0.2,0-0.4,0.1-0.4,0.3
			c-0.2,0.4-0.7,1.3-1.4,2.8v0h0.1c1.4-0.7,2.7-1.1,3.9-1.1c2.8,0,4.7,1.1,5.7,3.3c0.1,0.2,0.2,0.2,0.4,0.2c2.2-0.6,4.1-1.1,5.7-1.3
			c0.5-0.1,1,0,1.4,0.4c0.4,0.3,0.7,0.8,0.8,1.3c0.1,0.5-0.1,1-0.4,1.4c-0.3,0.4-0.8,0.7-1.3,0.8c-1.5,0.3-3.2,0.7-5.2,1.3
			c-0.2,0-0.3,0.2-0.3,0.4c0.1,0.9,0.2,1.9,0.2,3c0,0.5-0.2,1-0.5,1.4s-0.8,0.6-1.4,0.6h-0.6c-0.5,0-1-0.2-1.4-0.6s-0.6-0.9-0.6-1.4
			c0-0.6,0-1.1,0-1.3c0-0.2-0.1-0.3-0.3-0.2c-1.5,0.7-2.7,1.5-3.5,2.3c-0.8,0.8-1.2,1.4-1.2,2.1c0,0.8,0.5,1.4,1.4,1.8
			c0.9,0.4,2.5,0.6,4.8,0.6c1.8,0,3.9-0.2,6.6-0.5c0.5-0.1,1,0.1,1.5,0.4c0.4,0.3,0.7,0.8,0.7,1.3V42c0,0.6-0.1,1.1-0.4,1.5
			c-0.3,0.4-0.8,0.7-1.3,0.8c-2.3,0.3-4.6,0.4-6.9,0.4c-7.4,0-11.1-2-11.1-6c0-1.5,0.8-3,2.3-4.6c1.5-1.5,3.7-2.9,6.5-4.2
			c0.2-0.1,0.2-0.2,0.1-0.4c-0.5-0.9-1.4-1.3-2.5-1.3c-0.9,0-2.1,0.4-3.4,1.3c-1.3,0.9-2.7,2.1-4.1,3.8c-0.4,0.4-0.8,0.7-1.4,0.8
			c-0.5,0.1-1.1,0-1.6-0.3l-0.2-0.1c-0.4-0.3-0.7-0.7-0.8-1.2c-0.1-0.5,0-1,0.3-1.4c2-2.8,3.6-5.5,4.8-8c0.1-0.2,0-0.2-0.2-0.2
			C138.8,22.9,137.6,22.9,135.9,22.9z"/>
		<path id="XMLID_22_" class="st1" d="M169.4,31.2c-0.5,0-1-0.2-1.4-0.6c-0.4-0.4-0.5-0.8-0.5-1.3s0.2-1,0.5-1.3
			c0.4-0.4,0.8-0.6,1.4-0.6h3.9c0.5,0,1,0.2,1.4,0.6c0.4,0.4,0.6,0.8,0.6,1.4V38c0,0.2,0,0.4,0.1,0.5c0.4,0.6,0.7,1,1,1.3
			c0.1,0.1,0.3,0.1,0.4-0.1c0.2-0.4,0.5-0.7,0.9-0.9c1.5-0.6,2.9-1.2,4.2-1.9c0,0,0-0.1-0.1-0.1h-3.6c-0.5,0-0.9-0.2-1.2-0.5
			s-0.5-0.8-0.5-1.2c0-0.5,0.2-0.9,0.5-1.2c0.3-0.3,0.8-0.5,1.2-0.5h2.5c0.2,0,0.3-0.1,0.3-0.3v-1.2c0-0.2-0.1-0.3-0.3-0.3H179
			c-0.5,0-0.9-0.2-1.2-0.5c-0.3-0.3-0.5-0.7-0.5-1.1c0-0.5,0.2-0.9,0.5-1.2c0.3-0.3,0.7-0.5,1.2-0.5h1.7c0.2,0,0.3-0.1,0.3-0.3v-0.1
			c0-0.1,0-0.3,0.1-0.5c0-0.2,0-0.3-0.2-0.3c-0.4,0-1,0-1.8-0.1c-1.1,0-1.8-0.2-2.1-0.5c-0.3-0.3-0.5-0.9-0.5-1.8v-2.8
			c0-0.5,0.2-1,0.6-1.4s0.8-0.6,1.4-0.6h3.8c0.2,0,0.3-0.1,0.3-0.3v-0.8c0-0.2-0.1-0.3-0.3-0.3h-4.4c-0.4,0-0.8-0.2-1.2-0.5
			c-0.3-0.3-0.5-0.7-0.5-1.2c0-0.4,0.2-0.8,0.5-1.2c0.3-0.3,0.7-0.5,1.2-0.5h6.7c0.5,0,1,0.2,1.4,0.6c0.4,0.4,0.6,0.8,0.6,1.4v3.3
			c0,0.5-0.2,1-0.6,1.4c-0.4,0.4-0.8,0.6-1.4,0.6h-4.2c-0.2,0-0.3,0.1-0.3,0.3v0.8c0,0.3,0,0.5,0.1,0.6c0.1,0.1,0.2,0.1,0.5,0.1h0.9
			h0.9c0.4,0,0.6-0.1,0.7-0.2c0.6-0.9,1.2-1.3,1.7-1.2l0.4,0.1c0.6,0.1,1,0.4,1.3,0.8c0.3,0.4,0.4,0.9,0.3,1.5
			c-0.1,0.6-0.2,1-0.5,1.2c-0.2,0.2-0.5,0.4-0.9,0.5c-0.2,0-0.2,0.2-0.2,0.3c0.1,0.2,0.1,0.4,0.1,0.6V28c0,0.2,0.1,0.3,0.3,0.3h4
			c0.2,0,0.3-0.1,0.3-0.3v-0.1c0-0.1,0-0.3,0.1-0.5c0-0.2,0-0.3-0.2-0.3c-0.8-0.1-1.3-0.3-1.5-0.6c-0.2-0.3-0.4-0.9-0.4-1.7v-2.8
			c0-0.5,0.2-1,0.6-1.4c0.4-0.4,0.8-0.6,1.4-0.6h3.8c0.2,0,0.3-0.1,0.3-0.3v-0.8c0-0.2-0.1-0.3-0.3-0.3h-4.2c-0.5,0-0.9-0.2-1.2-0.5
			c-0.3-0.3-0.5-0.7-0.5-1.2c0-0.4,0.2-0.8,0.5-1.2c0.3-0.3,0.7-0.5,1.2-0.5h6.5c0.5,0,1,0.2,1.4,0.6s0.6,0.8,0.6,1.4v3.3
			c0,0.5-0.2,1-0.6,1.4s-0.8,0.6-1.4,0.6h-4.2c-0.2,0-0.3,0.1-0.3,0.3v0.8c0,0.3,0,0.5,0.1,0.6c0.1,0.1,0.2,0.1,0.5,0.1h0.8h0.9
			c0.4,0,0.6-0.1,0.7-0.2c0.6-0.9,1.2-1.3,1.7-1.2l0.4,0.1c0.5,0.1,1,0.4,1.3,0.8c0.3,0.4,0.4,0.9,0.3,1.5c-0.1,0.8-0.4,1.3-0.8,1.5
			c-0.4,0.2-1.1,0.3-2.3,0.4c-0.1,0-0.2,0-0.4,0s-0.3,0-0.4,0c-0.2,0-0.2,0.1-0.2,0.3c0,0.2,0.1,0.4,0.1,0.5V28
			c0,0.2,0.1,0.3,0.3,0.3h1.7c0.5,0,0.9,0.2,1.2,0.5c0.3,0.3,0.5,0.7,0.5,1.2c0,0.4-0.2,0.8-0.5,1.1c-0.3,0.3-0.7,0.5-1.2,0.5h-1.7
			c-0.2,0-0.3,0.1-0.3,0.3v1.2c0,0.2,0.1,0.3,0.3,0.3h2.4c0.5,0,0.9,0.2,1.2,0.5c0.3,0.3,0.5,0.8,0.5,1.2c0,0.5-0.2,0.9-0.5,1.2
			s-0.8,0.5-1.2,0.5h-3.4c0,0-0.1,0-0.1,0c0,0,0,0,0,0.1c1,0.4,2.1,1,3.4,1.7c0.4,0.2,0.7,0.6,0.8,1.1c0.1,0.5,0,1-0.2,1.4
			c0,0-0.1,0.1-0.2,0.2c0,0-0.1,0.1,0,0.1c0,0.1,0.1,0.1,0.1,0.1c0.4,0.1,0.8,0.3,1.1,0.6c0.3,0.4,0.4,0.7,0.4,1.2
			c0,0.5-0.2,1-0.6,1.3c-0.4,0.4-0.8,0.5-1.4,0.5h-7.9c-4.3,0-7.6-0.2-9.9-0.6c-2.3-0.4-4-1.2-5.2-2.2c-0.1-0.1-0.3-0.1-0.5,0
			c-1.1,0.9-2,1.7-2.8,2.3c-0.4,0.3-0.9,0.4-1.4,0.3c-0.5-0.1-0.9-0.4-1.2-0.9l-0.1-0.2c-0.3-0.5-0.3-1-0.2-1.5
			c0.1-0.5,0.4-1,0.8-1.3c0.5-0.4,1.2-0.9,2.1-1.6c0.2-0.1,0.2-0.3,0.2-0.5v-7.7c0-0.2-0.1-0.3-0.3-0.3H169.4z M169.3,16.7
			c0.4-0.4,0.9-0.5,1.4-0.5c0.5,0,1,0.2,1.4,0.6c0.7,0.7,1.8,1.9,3.2,3.4c0.4,0.4,0.5,0.9,0.5,1.4c0,0.5-0.3,1-0.6,1.4l-0.1,0
			c-0.4,0.4-0.9,0.5-1.4,0.5c-0.5,0-1-0.3-1.3-0.6c-1.1-1.2-2.2-2.3-3.3-3.5c-0.4-0.4-0.6-0.8-0.5-1.4c0-0.5,0.2-1,0.6-1.3
			L169.3,16.7z M184.7,39.5c-1.1,0.7-2.2,1.3-3.3,1.8c0,0,0,0.1,0,0.1s0,0.1,0.1,0.1c1.7,0.2,4.3,0.2,7.6,0.2h5.3c0,0,0.1,0,0.1-0.1
			s0-0.1,0-0.1c-1.3-0.7-2.7-1.5-4.3-2.1c-0.4-0.2-0.7-0.5-0.9-0.9c-0.2-0.4-0.1-0.9,0.1-1.3c0,0,0,0,0,0c0,0,0,0,0,0
			c0.1-0.1,0-0.2-0.1-0.2h-3.9c0,0-0.1,0-0.1,0.1c0,0,0,0.1,0,0.1c0.3,0.4,0.3,0.8,0.3,1.3C185.3,38.9,185.1,39.2,184.7,39.5z
			 M185.3,31.8v1.2c0,0.2,0.1,0.3,0.3,0.3h4c0.2,0,0.3-0.1,0.3-0.3v-1.2c0-0.2-0.1-0.3-0.3-0.3h-4C185.4,31.5,185.3,31.6,185.3,31.8
			z"/>
		<path id="XMLID_28_" class="st1" d="M204.5,24c-0.5,0-1-0.2-1.3-0.6c-0.4-0.4-0.6-0.8-0.6-1.3s0.2-1,0.6-1.3
			c0.4-0.4,0.8-0.6,1.3-0.6h1.3c0.2,0,0.3-0.1,0.3-0.3v-3.3c0-0.5,0.2-1,0.6-1.4c0.4-0.4,0.8-0.6,1.4-0.6h0.5c0.5,0,1,0.2,1.4,0.6
			s0.6,0.8,0.6,1.4V20c0,0.2,0.1,0.3,0.3,0.3h1.3c0.5,0,1,0.2,1.4,0.6c0.4,0.4,0.5,0.8,0.5,1.3s-0.2,1-0.5,1.3
			c-0.4,0.4-0.8,0.6-1.4,0.6h-1.3c-0.2,0-0.3,0.1-0.3,0.3v5.4c0,0.2,0.1,0.3,0.3,0.2c0.1,0,0.2-0.1,0.4-0.1c0.2-0.1,0.4-0.1,0.5-0.2
			c0.5-0.2,1-0.1,1.4,0.1c0.4,0.3,0.7,0.6,0.8,1.2c0.1,0.6,0,1.1-0.3,1.6c-0.3,0.5-0.7,0.8-1.3,1c-0.1,0-0.4,0.1-0.7,0.2
			c-0.3,0.1-0.6,0.2-0.8,0.2c-0.2,0-0.3,0.2-0.3,0.4V40c0,0.9,0,1.7,0,2.2c0,0.5-0.1,1-0.2,1.5c-0.1,0.5-0.3,0.8-0.4,1
			s-0.4,0.4-0.8,0.5c-0.4,0.2-0.7,0.2-1.1,0.3c-0.4,0-0.9,0.1-1.6,0.1c-0.1,0-0.6,0-1.5-0.1c-0.5,0-0.9-0.2-1.3-0.6
			c-0.4-0.4-0.5-0.8-0.6-1.4c0-0.5,0.1-0.9,0.5-1.3c0.4-0.4,0.8-0.5,1.3-0.5c0.3,0,0.6,0,0.9,0c0.3,0,0.4-0.1,0.5-0.2
			s0.1-0.6,0.1-1.4v-4.8c0-0.2-0.1-0.3-0.3-0.2c-0.1,0-0.3,0.1-0.6,0.1c-0.2,0.1-0.4,0.1-0.5,0.1c-0.5,0.1-1,0-1.4-0.3
			c-0.4-0.3-0.6-0.7-0.7-1.2v-0.1c0-0.5,0.1-1,0.5-1.5c0.4-0.5,0.8-0.7,1.3-0.8c0.1,0,0.4-0.1,0.7-0.1c0.3-0.1,0.5-0.1,0.7-0.1
			c0.2,0,0.3-0.2,0.3-0.4v-6.6c0-0.2-0.1-0.3-0.3-0.3H204.5z M227.3,30.8c1.1,4,3,7.4,5.6,10.4c0.4,0.4,0.6,0.9,0.6,1.4
			c0,0.5-0.1,1-0.5,1.5l-0.3,0.3c-0.3,0.4-0.8,0.7-1.3,0.7s-1-0.1-1.4-0.5c-3.5-3.5-5.9-8.1-7.3-13.8c0-0.2-0.2-0.3-0.4-0.3H220
			c-0.2,0-0.3,0.1-0.3,0.2c-0.3,5.3-1.4,9.8-3.3,13.5c-0.2,0.5-0.6,0.8-1.1,0.9c-0.5,0.1-1,0-1.4-0.2l-0.5-0.3
			c-0.4-0.3-0.7-0.7-0.9-1.2c-0.2-0.5-0.1-1,0.2-1.5c1-2.1,1.8-4.5,2.2-7c0.4-2.6,0.6-6,0.6-10.3v-6.7c0-0.5,0.2-1,0.6-1.4
			c0.4-0.4,0.8-0.6,1.4-0.6h13.2c0.5,0,1,0.2,1.4,0.6c0.4,0.4,0.6,0.8,0.6,1.4v10.8c0,0.5-0.2,1-0.6,1.4c-0.4,0.4-0.8,0.6-1.4,0.6
			h-3.1C227.3,30.5,227.2,30.6,227.3,30.8z M220.1,26.7h7.7c0.2,0,0.3-0.1,0.3-0.3V20c0-0.2-0.1-0.3-0.3-0.3h-7.7
			c-0.2,0-0.3,0.1-0.3,0.3v6.2v0.3C219.8,26.6,219.9,26.7,220.1,26.7z"/>
	</g>
</g>
<rect id="XMLID_2_" x="724" y="-60.7" class="st3" width="31.2" height="37.5"/>
<g id="XMLID_3_">
</g>
<g id="XMLID_27_">
</g>
<g id="XMLID_34_">
</g>
<g id="XMLID_35_">
</g>
<g id="XMLID_36_">
</g>
<g id="XMLID_37_">
</g>
</svg>
