<?xml version="1.0" encoding="utf-8"?>
<!-- Generator: Adobe Illustrator 19.0.0, SVG Export Plug-In . SVG Version: 6.00 Build 0)  -->
<svg version="1.1" id="レイヤー_1" xmlns="http://www.w3.org/2000/svg" xmlns:xlink="http://www.w3.org/1999/xlink" x="0px"
	 y="0px" viewBox="0 404.8 640 49.1" style="enable-background:new 0 404.8 640 49.1;" xml:space="preserve">
<style type="text/css">
	.st0{enable-background:new    ;}
	.st1{fill:#E99415;}
	.st2{fill:none;stroke:#E99415;stroke-width:3;stroke-miterlimit:10;}
</style>
<g class="st0">
	<path class="st1" d="M8.4,440.1c-0.5,0-0.9-0.1-1.3-0.5c-0.4-0.3-0.6-0.7-0.6-1.2c0-0.5,0.1-0.9,0.5-1.3c0.3-0.3,0.7-0.5,1.2-0.6
		c0.9,0,2.6-0.1,4.9-0.3c0.2,0,0.3-0.1,0.3-0.3v-0.9c0-0.2-0.1-0.3-0.3-0.3H8.6c-0.4,0-0.8-0.2-1.1-0.5C7.1,434,7,433.6,7,433.2
		s0.2-0.8,0.5-1.1c0.3-0.3,0.7-0.5,1.1-0.5h4.5c0.2,0,0.3-0.1,0.3-0.3v-0.7c0-0.2-0.1-0.3-0.3-0.3h-1.8H9.4c-0.5,0-1-0.2-1.4-0.6
		c-0.4-0.4-0.6-0.8-0.6-1.4v-6.6c0-0.5,0.2-1,0.6-1.4c0.4-0.4,0.8-0.6,1.4-0.6h3.6c0.2,0,0.3-0.1,0.3-0.3v-0.7
		c0-0.2-0.1-0.3-0.3-0.3H8.3c-0.4,0-0.8-0.2-1.1-0.5s-0.5-0.7-0.5-1.1c0-0.4,0.2-0.8,0.5-1.1c0.3-0.3,0.7-0.5,1.1-0.5h4.7
		c0.2,0,0.3-0.1,0.3-0.3v-0.8c0-0.2-0.1-0.3-0.3-0.3c-0.4,0-0.8,0-1.3,0.1s-0.9,0-1.5,0.1c-0.5,0-0.9,0-1.2,0.1
		c-0.5,0-0.9-0.1-1.2-0.4c-0.3-0.3-0.5-0.7-0.6-1.2c0-0.5,0.1-0.9,0.4-1.2s0.7-0.5,1.1-0.5c4.6-0.2,8.8-0.6,12.6-1.2
		c0.5-0.1,0.9,0,1.3,0.3c0.4,0.3,0.6,0.7,0.7,1.1c0.1,0.5,0,0.9-0.4,1.3c-0.3,0.4-0.7,0.6-1.2,0.7c-1.1,0.1-2.4,0.3-3.9,0.4
		c-0.2,0-0.3,0.1-0.3,0.3v1.2c0,0.2,0.1,0.3,0.3,0.3h4c0.7,0,1.2,0.3,1.5,1c0,0.2,0.1,0.2,0.3,0.1c0.4-0.2,0.7-0.3,1.1-0.3h1.2
		c0.2,0,0.3-0.1,0.3-0.3c0-1.9,0.1-3.5,0.1-4.6c0-0.5,0.2-1,0.6-1.4c0.4-0.4,0.8-0.6,1.4-0.6h0.1c0.5,0,1,0.2,1.4,0.6
		c0.4,0.4,0.6,0.8,0.6,1.4c0,0.2,0,1.8-0.1,4.6c0,0.2,0.1,0.3,0.3,0.3h5.1c0.5,0,1,0.2,1.4,0.6c0.4,0.4,0.6,0.8,0.6,1.4v0.8
		c0,3.5,0,6.3-0.1,8.5c0,2.2-0.1,4.1-0.3,5.8c-0.2,1.7-0.3,2.9-0.5,3.7c-0.2,0.8-0.4,1.5-0.8,1.9c-0.4,0.5-0.8,0.8-1.2,0.9
		c-0.4,0.1-1,0.1-1.7,0.1c-0.6,0-1.5-0.1-2.7-0.2c-0.6,0-1-0.3-1.4-0.7c-0.4-0.4-0.6-0.9-0.6-1.5v-0.2c0-0.5,0.2-0.9,0.5-1.3
		c0.4-0.3,0.8-0.5,1.3-0.4c0.7,0.1,1.2,0.1,1.5,0.1c0.4,0,0.7-0.3,0.8-0.8c0.2-0.5,0.3-1.8,0.5-3.9c0.1-2.1,0.2-5.1,0.2-9.2v-1.7
		c0-0.2-0.1-0.3-0.3-0.3h-2.5c-0.2,0-0.3,0.1-0.3,0.3c-0.3,4.5-0.7,8.2-1.4,11.1s-1.6,5.4-2.9,7.5c-0.3,0.4-0.6,0.7-1.2,0.8
		c-0.5,0.1-1,0-1.5-0.3l-0.1-0.1c-0.2-0.2-0.4-0.3-0.4-0.3c-0.1-0.2-0.3-0.2-0.5-0.1c-0.2,0.1-0.4,0.2-0.5,0.2
		C17.6,439.5,13.1,439.8,8.4,440.1z M11.3,422.8v0.9c0,0.2,0.1,0.3,0.3,0.3h1.6c0.2,0,0.3-0.1,0.3-0.3v-0.9c0-0.2-0.1-0.3-0.3-0.3
		h-1.6C11.4,422.5,11.3,422.6,11.3,422.8z M13.2,427.6c0.2,0,0.3-0.1,0.3-0.3v-0.9c0-0.2-0.1-0.3-0.3-0.3h-1.6
		c-0.2,0-0.3,0.1-0.3,0.3v0.9c0,0.2,0.1,0.3,0.3,0.3H13.2z M17.7,422.8v0.9c0,0.2,0.1,0.3,0.3,0.3h1.5c0.2,0,0.3-0.1,0.3-0.3v-0.9
		c0-0.2-0.1-0.3-0.3-0.3H18C17.8,422.5,17.7,422.6,17.7,422.8z M17.7,426.4v0.9c0,0.2,0.1,0.3,0.3,0.3h1.5c0.2,0,0.3-0.1,0.3-0.3
		v-0.9c0-0.2-0.1-0.3-0.3-0.3H18C17.8,426.1,17.7,426.2,17.7,426.4z M17.8,418.8v0.7c0,0.2,0.1,0.3,0.3,0.3h3.3c0.5,0,1,0.2,1.4,0.6
		c0.4,0.4,0.6,0.8,0.6,1.4v6.6c0,0.5-0.2,1-0.6,1.4c-0.4,0.4-0.8,0.6-1.4,0.6h-3.3c-0.2,0-0.3,0.1-0.3,0.3v0.7
		c0,0.2,0.1,0.3,0.3,0.3h3.5c0.4,0,0.8,0.2,1.1,0.5c0.3,0.3,0.5,0.7,0.5,1.1s-0.2,0.8-0.5,1.1c-0.3,0.3-0.7,0.5-1.1,0.5h-3.5
		c-0.2,0-0.3,0.1-0.3,0.3v0.6c0,0.2,0.1,0.3,0.3,0.3c1.6-0.1,2.8-0.2,3.6-0.3c0.3,0,0.6,0.1,0.9,0.2c0.2,0.1,0.3,0.1,0.4-0.1
		c1.8-3.4,2.8-8.6,3.3-15.6c0-0.2-0.1-0.3-0.3-0.3h-1.1c-0.4,0-0.8-0.1-1.2-0.4c-0.4-0.3-0.6-0.6-0.7-1c0-0.2-0.1-0.2-0.3-0.1
		c-0.2,0.1-0.5,0.2-0.7,0.2h-4C17.9,418.5,17.8,418.6,17.8,418.8z"/>
	<path class="st1" d="M43.8,414.1c-0.5,0-1-0.2-1.3-0.6c-0.4-0.4-0.6-0.8-0.6-1.3c0-0.5,0.2-1,0.6-1.3c0.4-0.4,0.8-0.6,1.3-0.6h26.9
		c0.5,0,1,0.2,1.3,0.6c0.4,0.4,0.6,0.8,0.6,1.3c0,0.5-0.2,1-0.6,1.3c-0.4,0.4-0.8,0.6-1.3,0.6h-11c-0.2,0-0.3,0.1-0.3,0.3v2
		c0,0.2,0.1,0.3,0.3,0.3H64c0.5,0,1,0.2,1.4,0.6c0.4,0.4,0.6,0.8,0.6,1.4v12.7c0,0.5-0.2,1-0.6,1.4c-0.4,0.4-0.8,0.6-1.4,0.6H52.4
		h-1.9c-0.5,0-1-0.2-1.4-0.6c-0.4-0.4-0.6-0.8-0.6-1.4v-12.7c0-0.5,0.2-1,0.6-1.4c0.4-0.4,0.8-0.6,1.4-0.6h4.3
		c0.2,0,0.3-0.1,0.3-0.3v-2c0-0.2-0.1-0.3-0.3-0.3H43.8z M44.9,417.7c0.5,0,1,0.2,1.4,0.6c0.4,0.4,0.6,0.8,0.6,1.4v15
		c0,0.2,0.1,0.3,0.3,0.3h20.1c0.2,0,0.3-0.1,0.3-0.3v-15c0-0.5,0.2-1,0.6-1.4c0.4-0.4,0.8-0.6,1.4-0.6h0.3c0.5,0,1,0.2,1.4,0.6
		c0.4,0.4,0.6,0.8,0.6,1.4v18.5c0,0.5-0.2,1-0.6,1.4c-0.4,0.4-0.8,0.6-1.4,0.6H69c-0.4,0-0.7-0.1-1-0.4c-0.3-0.3-0.4-0.6-0.4-1
		c0-0.1-0.1-0.2-0.2-0.2H47.1c-0.1,0-0.2,0.1-0.2,0.2c0,0.4-0.1,0.7-0.4,1s-0.6,0.4-1,0.4h-0.9c-0.5,0-1-0.2-1.4-0.6
		c-0.4-0.4-0.6-0.8-0.6-1.4v-18.5c0-0.5,0.2-1,0.6-1.4c0.4-0.4,0.8-0.6,1.4-0.6H44.9z M55.1,423.1v-2.8c0-0.2-0.1-0.3-0.3-0.3h-2.1
		c-0.2,0-0.3,0.1-0.3,0.3v2.8c0,0.2,0.1,0.3,0.3,0.3h2.1C55,423.4,55.1,423.3,55.1,423.1z M55.1,429.7v-3c0-0.2-0.1-0.3-0.3-0.3
		h-2.1c-0.2,0-0.3,0.1-0.3,0.3v3c0,0.2,0.1,0.3,0.3,0.3h2.1C55,430,55.1,429.9,55.1,429.7z M59.3,420.3v2.8c0,0.2,0.1,0.3,0.3,0.3
		h2.1c0.2,0,0.3-0.1,0.3-0.3v-2.8c0-0.2-0.1-0.3-0.3-0.3h-2.1C59.4,420,59.3,420.1,59.3,420.3z M59.3,426.6v3c0,0.2,0.1,0.3,0.3,0.3
		h2.1c0.2,0,0.3-0.1,0.3-0.3v-3c0-0.2-0.1-0.3-0.3-0.3h-2.1C59.4,426.3,59.3,426.4,59.3,426.6z"/>
	<path class="st1" d="M78.6,426.4c-0.5,0-1-0.2-1.4-0.6c-0.4-0.4-0.6-0.8-0.6-1.4v-0.7c0-0.5,0.2-1,0.6-1.4c0.4-0.4,0.8-0.6,1.4-0.6
		h27.2c0.5,0,1,0.2,1.4,0.6c0.4,0.4,0.6,0.8,0.6,1.4v0.7c0,0.5-0.2,1-0.6,1.4c-0.4,0.4-0.8,0.6-1.4,0.6H78.6z"/>
	<path class="st1" d="M112.4,439L112.4,439c-0.2-0.5-0.1-0.9,0.1-1.3c0.3-0.4,0.6-0.6,1.1-0.7c3.5-0.3,5.8-1.1,6.8-2.2
		c0.1-0.2,0.1-0.2-0.1-0.2h-0.9h-2.6c-0.5,0-1-0.2-1.4-0.6c-0.4-0.4-0.6-0.8-0.6-1.4v-7.9c0-0.6,0.2-1.1,0.6-1.4c0,0,0.1-0.1,0-0.1
		c0,0-0.1-0.1-0.1-0.1h-0.8c-0.5,0-1-0.2-1.4-0.6c-0.4-0.4-0.6-0.8-0.6-1.4v-9.5c0-0.5,0.2-1,0.6-1.4c0.4-0.4,0.8-0.6,1.4-0.6h11.6
		c0.4,0,0.7,0.1,1,0.4c0.3,0.3,0.4,0.6,0.4,1c0,0.4-0.1,0.7-0.4,1c-0.3,0.3-0.6,0.4-1,0.4H124c-0.2,0-0.3,0.1-0.3,0.3v0.4
		c0,0.2,0.1,0.3,0.3,0.3h0.5c0.5,0,1,0.2,1.4,0.6s0.6,0.8,0.6,1.4v1c0,0.5-0.2,1-0.6,1.4s-0.8,0.6-1.4,0.6H124
		c-0.2,0-0.3,0.1-0.3,0.3v0.4c0,0.2,0.1,0.3,0.3,0.3h2.7c0.4,0,0.7,0.1,0.9,0.4c0.3,0.3,0.4,0.6,0.4,0.9c0,0.3-0.1,0.7-0.4,0.9
		c-0.3,0.3-0.6,0.4-0.9,0.4H117c-0.1,0-0.2,0-0.2,0.1c0,0.1,0,0.2-0.1,0.4c0,0.1,0,0.2,0.1,0.2h20.7c0.5,0,1,0.2,1.4,0.6
		c0.4,0.4,0.6,0.8,0.6,1.4v8.3c0,0.2,0.1,0.3,0.3,0.3l0.6,0c0.5,0,1,0.3,1.3,0.7s0.5,0.9,0.5,1.5c0,0.5-0.1,1-0.1,1.3
		c0,0.4-0.1,0.7-0.2,1.1c-0.1,0.3-0.2,0.6-0.2,0.8c-0.1,0.2-0.2,0.4-0.4,0.6c-0.2,0.2-0.4,0.4-0.5,0.5c-0.1,0.1-0.4,0.2-0.7,0.3
		c-0.3,0.1-0.6,0.2-0.9,0.2s-0.6,0.1-1.2,0.1c-0.5,0-1,0.1-1.4,0.1c-0.4,0-1,0-1.7,0c-2.1,0-3.6-0.1-4.5-0.2
		c-0.9-0.1-1.4-0.4-1.7-0.7s-0.4-0.9-0.4-1.8v-3c0-0.2-0.1-0.3-0.3-0.3h-2.3c-0.2,0-0.3,0.1-0.4,0.3c-1.2,3.1-4.7,5.1-10.4,5.8
		c-0.6,0.1-1.1-0.1-1.6-0.4C113,440,112.6,439.6,112.4,439z M116.9,412.9v0.4c0,0.2,0.1,0.3,0.3,0.3h2.2c0.2,0,0.3-0.1,0.3-0.3v-0.4
		c0-0.2-0.1-0.3-0.3-0.3h-2.2C117,412.6,116.9,412.7,116.9,412.9z M116.9,415.8v0.4c0,0.2,0.1,0.3,0.3,0.3h4.8
		c0.2,0,0.3-0.1,0.3-0.3v-0.4c0-0.2-0.1-0.3-0.3-0.3h-4.8C117,415.5,116.9,415.6,116.9,415.8z M116.9,418.7v0.4
		c0,0.2,0.1,0.3,0.3,0.3h2.2c0.2,0,0.3-0.1,0.3-0.3v-0.4c0-0.2-0.1-0.3-0.3-0.3h-2.2C117,418.4,116.9,418.5,116.9,418.7z
		 M119.5,425.6v0.4c0,0.2,0.1,0.3,0.3,0.3h15c0.2,0,0.3-0.1,0.3-0.3v-0.4c0-0.2-0.1-0.3-0.3-0.3h-15
		C119.6,425.3,119.5,425.4,119.5,425.6z M119.5,428.4v0.3c0,0.2,0.1,0.3,0.3,0.3h15c0.2,0,0.3-0.1,0.3-0.3v-0.3
		c0-0.2-0.1-0.3-0.3-0.3h-15C119.6,428.1,119.5,428.2,119.5,428.4z M119.7,431.9h15c0.2,0,0.3-0.1,0.3-0.3v-0.3
		c0-0.2-0.1-0.3-0.3-0.3h-15c-0.2,0-0.3,0.1-0.3,0.3v0.3C119.5,431.8,119.6,431.9,119.7,431.9z M132.3,414.7c-0.2,0.3-0.7,1-1.4,2.1
		c-0.1,0.2-0.1,0.2,0.1,0.2h9.1c0.5,0,0.9,0.2,1.2,0.5c0.3,0.3,0.5,0.7,0.5,1.2c0,0.5-0.2,0.9-0.5,1.2c-0.3,0.3-0.7,0.5-1.2,0.5
		h-9.5c-0.4,0-0.7-0.1-1-0.4c-0.3-0.3-0.4-0.6-0.4-1c0-0.2-0.1-0.3-0.2-0.3l-1.5-1.1c-0.4-0.3-0.7-0.7-0.7-1.2
		c-0.1-0.5,0.1-1,0.4-1.4c1.1-1.4,2.1-3,2.8-4.7c0.2-0.5,0.6-1,1.1-1.2c0.5-0.3,1-0.4,1.6-0.4l0.4,0.1c0.5,0,0.8,0.3,1.1,0.6
		c0.3,0.4,0.3,0.8,0.1,1.2c0,0.2,0,0.2,0.2,0.2h6.4c0.5,0,0.9,0.2,1.3,0.5c0.4,0.3,0.5,0.8,0.5,1.3s-0.2,0.9-0.5,1.3
		c-0.4,0.4-0.8,0.5-1.3,0.5h-8C132.5,414.4,132.4,414.5,132.3,414.7z M137.7,434.6h-4.4c-0.2,0-0.3,0.1-0.3,0.3v1.3
		c0,0.5,0.1,0.7,0.3,0.8c0.2,0.1,0.9,0.1,2.2,0.1c1.1,0,1.7-0.1,2-0.3c0.3-0.2,0.4-0.9,0.5-1.9C138,434.7,137.9,434.6,137.7,434.6z"
		/>
</g>
<g class="st0">
	<path class="st1" d="M154.3,438.1c-0.2,0.2-0.4,0.3-0.6,0.3c-0.3,0-0.5-0.1-0.6-0.3c-0.2-0.2-0.3-0.4-0.3-0.6v-11.8
		c0-0.3,0.1-0.5,0.3-0.7c0.2-0.2,0.4-0.3,0.7-0.3h5.4c0.2,0,0.4,0.1,0.5,0.2c0.2,0.2,0.2,0.3,0.2,0.5c0,0.2-0.1,0.4-0.2,0.5
		c-0.2,0.2-0.3,0.2-0.5,0.2h-4.5c-0.1,0-0.2,0.1-0.2,0.2v11.1C154.5,437.7,154.4,437.9,154.3,438.1z"/>
	<path class="st1" d="M162.9,436.2c-0.2,0-0.4-0.1-0.6-0.2c-0.2-0.2-0.2-0.3-0.2-0.6s0.1-0.4,0.2-0.6c0.2-0.2,0.3-0.2,0.6-0.2h6.4
		c0.1,0,0.2-0.1,0.2-0.2v-0.3c0-0.3,0.1-0.5,0.3-0.7c0.2-0.2,0.4-0.3,0.7-0.3c0,0,0,0,0,0s0,0,0,0c0.1,0,0.2,0,0.3-0.1l0.1-0.1
		c0.6-0.5,1.1-0.9,1.5-1.3c0.1-0.1,0-0.1-0.1-0.1h-6.2c-0.2,0-0.4-0.1-0.6-0.2c-0.2-0.2-0.2-0.3-0.2-0.6c0-0.2,0.1-0.4,0.2-0.6
		c0.2-0.2,0.3-0.2,0.6-0.2h8c0.2,0,0.4,0.1,0.6,0.2c0.2,0.2,0.2,0.3,0.2,0.6c0,0.6-0.2,1-0.5,1.4c-0.7,0.7-1.5,1.4-2.4,2.1
		c-0.1,0.1-0.3,0.2-0.4,0.2c0,0-0.1,0-0.1,0.1c0,0,0,0,0,0l0,0c0,0,0,0,0,0h5.8c0.2,0,0.4,0.1,0.6,0.2c0.2,0.2,0.2,0.3,0.2,0.6
		s-0.1,0.4-0.2,0.6c-0.2,0.2-0.3,0.2-0.6,0.2h-5.8c-0.1,0-0.1,0.1-0.1,0.2v2.4c0,0.9-0.1,1.5-0.4,1.7c-0.3,0.2-0.9,0.3-2.1,0.3
		c-0.4,0-1.1,0-2-0.1c-0.2,0-0.4-0.1-0.6-0.3c-0.2-0.2-0.3-0.4-0.3-0.6c0-0.2,0.1-0.4,0.2-0.6c0.1-0.2,0.3-0.2,0.5-0.2
		c0.9,0,1.5,0.1,1.9,0.1c0.3,0,0.6,0,0.6-0.1s0.1-0.2,0.1-0.6v-2.2c0-0.1-0.1-0.2-0.2-0.2H162.9z M177.2,431.3
		c-0.2,0.2-0.4,0.3-0.6,0.3s-0.5-0.1-0.6-0.3s-0.3-0.4-0.3-0.6v-1.8c0-0.1,0-0.2-0.1-0.2h-10.9c-0.1,0-0.1,0.1-0.1,0.2v1.8
		c0,0.3-0.1,0.5-0.3,0.6c-0.2,0.2-0.4,0.3-0.6,0.3s-0.5-0.1-0.6-0.3s-0.3-0.4-0.3-0.6v-2.5c0-0.3,0.1-0.5,0.3-0.7
		c0.2-0.2,0.4-0.3,0.7-0.3h1.2c0,0,0.1,0,0.1-0.1c0,0,0-0.1,0-0.1c-0.2-0.3-0.3-0.5-0.4-0.7c-0.1-0.2-0.1-0.4-0.1-0.6
		c0.1-0.2,0.2-0.4,0.4-0.5c0.2-0.1,0.5-0.1,0.7,0s0.4,0.2,0.6,0.5c0.2,0.4,0.4,0.8,0.7,1.3c0,0.1,0.1,0.2,0.2,0.2h1.9
		c0,0,0.1,0,0.1,0c0,0,0-0.1,0-0.1c-0.2-0.4-0.3-0.7-0.5-0.9c-0.1-0.2-0.1-0.4-0.1-0.6c0.1-0.2,0.2-0.4,0.4-0.5
		c0.2-0.1,0.5-0.1,0.7,0c0.2,0.1,0.4,0.2,0.5,0.4c0.4,0.8,0.7,1.3,0.8,1.6c0,0.1,0.1,0.1,0.2,0.1h1.6c0.1,0,0.2,0,0.2-0.1
		c0.2-0.4,0.5-0.9,0.8-1.4c0.1-0.2,0.3-0.4,0.5-0.5s0.5-0.1,0.7-0.1c0.2,0.1,0.4,0.2,0.5,0.4c0.1,0.2,0.1,0.4,0,0.6
		c-0.1,0.1-0.2,0.3-0.3,0.5c-0.1,0.2-0.2,0.4-0.3,0.4c0,0,0,0.1,0,0.1c0,0,0,0,0.1,0h1.2c0.3,0,0.5,0.1,0.7,0.3
		c0.2,0.2,0.3,0.4,0.3,0.7v2.5C177.5,431,177.4,431.2,177.2,431.3z"/>
	<path class="st1" d="M180.8,432.8c-0.2,0-0.4-0.1-0.6-0.2c-0.2-0.2-0.2-0.3-0.2-0.6c0-0.2,0.1-0.4,0.2-0.6c0.2-0.2,0.3-0.2,0.6-0.2
		h1.1c0.1,0,0.1-0.1,0.1-0.2c-0.2-1-0.5-2-0.8-3c0-0.1-0.1-0.1-0.2-0.1H181c-0.2,0-0.4-0.1-0.5-0.2c-0.2-0.2-0.2-0.3-0.2-0.5
		c0-0.2,0.1-0.4,0.2-0.5c0.1-0.2,0.3-0.2,0.5-0.2h2.5c0.1,0,0.2,0,0.2-0.1v-0.5c0-0.3,0.1-0.5,0.3-0.7c0.2-0.2,0.4-0.3,0.7-0.3
		c0.3,0,0.5,0.1,0.7,0.3s0.3,0.4,0.3,0.7v0.5c0,0.1,0,0.1,0.1,0.1h2.7c0.2,0,0.4,0.1,0.5,0.2s0.2,0.3,0.2,0.5c0,0.2-0.1,0.4-0.2,0.5
		s-0.3,0.2-0.5,0.2h-0.1c-0.1,0-0.1,0-0.1,0.1c-0.3,1.2-0.5,2.1-0.8,3c0,0.1,0,0.1,0.1,0.1h1.1c0.2,0,0.4,0.1,0.6,0.2
		s0.2,0.3,0.2,0.6c0,0.2-0.1,0.4-0.2,0.6s-0.4,0.2-0.6,0.2H180.8z M181.9,434h5.6c0.3,0,0.5,0.1,0.7,0.3c0.2,0.2,0.3,0.4,0.3,0.7v5
		c0,0.3-0.1,0.5-0.3,0.6s-0.4,0.3-0.6,0.3h-0.3c-0.2,0-0.3-0.1-0.4-0.2c-0.1-0.1-0.2-0.3-0.2-0.4c0-0.1,0-0.1-0.1-0.1h-3.8
		c-0.1,0-0.1,0-0.1,0.1c0,0.2-0.1,0.3-0.2,0.4c-0.1,0.1-0.3,0.2-0.4,0.2h-0.3c-0.3,0-0.5-0.1-0.6-0.3c-0.2-0.2-0.3-0.4-0.3-0.6v-5
		c0-0.3,0.1-0.5,0.3-0.7C181.4,434.1,181.6,434,181.9,434z M186.7,438.5v-2.8c0-0.1,0-0.1-0.1-0.1h-3.7c-0.1,0-0.1,0-0.1,0.1v2.8
		c0,0.1,0,0.2,0.1,0.2h3.7C186.7,438.7,186.7,438.7,186.7,438.5z M183.1,427.9c-0.1,0-0.1,0-0.1,0.1c0.3,0.9,0.5,1.9,0.8,2.9
		c0,0.1,0.1,0.2,0.2,0.2h1.5c0.1,0,0.2,0,0.2-0.1c0.3-0.8,0.6-1.8,0.8-2.9c0-0.1,0-0.1-0.1-0.1H183.1z M191.5,440.6
		c-0.2,0.2-0.4,0.3-0.6,0.3c-0.3,0-0.5-0.1-0.6-0.3c-0.2-0.2-0.3-0.4-0.3-0.6v-13.4c0-0.3,0.1-0.5,0.3-0.7c0.2-0.2,0.4-0.3,0.7-0.3
		h4.6c0.2,0,0.4,0.1,0.5,0.2s0.2,0.3,0.2,0.5c0,0.5-0.1,1-0.2,1.5c-0.5,1.4-1,2.6-1.7,3.8c0,0.1,0,0.2,0.1,0.2
		c0.6,0.6,1.1,1.2,1.5,2c0.4,0.8,0.5,1.5,0.5,2.3c0,1-0.2,1.8-0.7,2.2c-0.5,0.4-1.2,0.7-2.1,0.7h-0.3c-0.2,0-0.5-0.1-0.6-0.2
		c-0.2-0.2-0.3-0.3-0.4-0.6c0-0.2,0-0.4,0.1-0.6c0.1-0.2,0.3-0.3,0.5-0.3c0.6,0,1-0.1,1.2-0.3c0.2-0.2,0.3-0.5,0.3-1
		c0-1.2-0.5-2.4-1.6-3.6c-0.4-0.5-0.5-1-0.2-1.6c0.6-1.1,1.1-2.4,1.6-3.7c0-0.1,0-0.1-0.1-0.1h-2.4c-0.1,0-0.1,0-0.1,0.1V440
		C191.7,440.3,191.6,440.5,191.5,440.6z"/>
	<path class="st1" d="M199.2,436.4c-0.2,0.1-0.4,0-0.6-0.1c-0.2-0.1-0.3-0.3-0.4-0.5c-0.1-0.2-0.1-0.4,0-0.6s0.3-0.3,0.5-0.4
		c2.1-0.5,4.1-1.3,6-2.3c0.1,0,0.1-0.1,0-0.2c-0.6-0.7-1.1-1.3-1.4-1.6c-0.2-0.2-0.2-0.4-0.2-0.6c0-0.2,0.1-0.4,0.3-0.6
		c0.2-0.2,0.4-0.2,0.6-0.2c0.2,0,0.4,0.1,0.6,0.3c0.5,0.5,1,1.1,1.6,1.8c0.1,0.1,0.1,0.1,0.2,0.1c1.7-1.2,2.9-2.4,3.5-3.5
		c0,0,0-0.1,0-0.1s0,0-0.1,0h-5.7c-0.1,0-0.2,0-0.3,0.1c-1,1-2.3,2-3.9,3c-0.2,0.1-0.4,0.2-0.6,0.1c-0.2-0.1-0.4-0.2-0.5-0.4
		c-0.1-0.2-0.1-0.4-0.1-0.6c0.1-0.2,0.2-0.4,0.4-0.5c2-1.3,3.5-2.6,4.7-4.1c0.2-0.2,0.4-0.3,0.6-0.4c0.2-0.1,0.5,0,0.7,0.1
		c0.2,0.1,0.3,0.2,0.4,0.4c0.1,0.2,0,0.4-0.1,0.6c-0.1,0.1,0,0.1,0.1,0.1h5.5c0.2,0,0.4,0.1,0.6,0.2c0.2,0.2,0.2,0.3,0.2,0.6
		c0,0.6-0.1,1.1-0.4,1.5c-1,1.8-2.6,3.3-4.7,4.7c0,0,0,0,0,0s0,0,0,0h5.7c0.3,0,0.5,0.1,0.7,0.3c0.2,0.2,0.3,0.4,0.3,0.7v5.6
		c0,0.3-0.1,0.5-0.3,0.7c-0.2,0.2-0.4,0.3-0.7,0.3h-0.2c-0.2,0-0.4-0.1-0.5-0.2s-0.2-0.3-0.2-0.5c0-0.1,0-0.1-0.1-0.1h-6.8
		c-0.1,0-0.1,0-0.1,0.1c0,0.2-0.1,0.4-0.2,0.5s-0.3,0.2-0.5,0.2h-0.2c-0.3,0-0.5-0.1-0.6-0.3c-0.2-0.2-0.3-0.4-0.3-0.6v-4.5
		c0,0,0-0.1-0.1-0.1c0,0-0.1,0-0.1,0C201.5,435.7,200.4,436.1,199.2,436.4z M211.6,435c0-0.1,0-0.1-0.1-0.1h-6.7
		c-0.1,0-0.1,0-0.1,0.1v3.3c0,0.1,0,0.1,0.1,0.1h6.7c0.1,0,0.1,0,0.1-0.1V435z"/>
	<path class="st1" d="M217.6,429.1c-0.2,0-0.4-0.1-0.6-0.2s-0.2-0.3-0.2-0.6c0-0.2,0.1-0.4,0.2-0.6c0.1-0.2,0.3-0.2,0.5-0.2
		c1.4,0,2.5,0,3.2,0c0.1,0,0.2,0,0.2-0.1c0.2-0.6,0.4-1.1,0.5-1.4c0.1-0.3,0.2-0.5,0.5-0.6c0.2-0.1,0.5-0.2,0.7-0.1
		c0.3,0,0.4,0.2,0.6,0.4s0.2,0.5,0.1,0.7c-0.1,0.2-0.2,0.5-0.3,0.9c0,0.1,0,0.1,0.1,0.1c1.9-0.1,3.7-0.2,5.5-0.3
		c0.2,0,0.4,0.1,0.6,0.2c0.2,0.1,0.2,0.3,0.3,0.5c0,0.2-0.1,0.4-0.2,0.6s-0.3,0.3-0.5,0.3c-1.9,0.2-4,0.3-6.2,0.4
		c-0.1,0-0.2,0-0.2,0.1c-0.3,0.5-0.5,1.1-0.9,1.7v0h0c0.8-0.4,1.5-0.6,2.2-0.6c0.7,0,1.2,0.1,1.7,0.4c0.4,0.3,0.8,0.8,1.1,1.4
		c0,0.1,0.1,0.1,0.2,0.1c0.9-0.3,2-0.6,3.3-0.8c0.2,0,0.4,0,0.6,0.1c0.2,0.1,0.3,0.3,0.3,0.5c0,0.2,0,0.4-0.2,0.6
		c-0.1,0.2-0.3,0.3-0.5,0.3c-1.2,0.2-2.3,0.5-3.1,0.8c-0.1,0-0.1,0.1-0.1,0.2c0.1,0.5,0.1,1.1,0.1,1.9c0,0.3-0.1,0.5-0.3,0.7
		c-0.2,0.2-0.4,0.3-0.7,0.3c-0.3,0-0.5-0.1-0.7-0.3c-0.2-0.2-0.3-0.4-0.3-0.7c0-0.5,0-0.8-0.1-1.2c0-0.1,0-0.1-0.1-0.1
		c-0.9,0.4-1.7,0.9-2.2,1.4c-0.5,0.5-0.8,0.9-0.8,1.3c0,0.5,0.3,0.8,0.8,1.1c0.6,0.2,1.5,0.4,2.8,0.4c1,0,2.1-0.1,3.4-0.3
		c0.2,0,0.4,0,0.6,0.2c0.2,0.1,0.3,0.3,0.3,0.5c0,0.2,0,0.5-0.2,0.6s-0.3,0.3-0.6,0.3c-1.1,0.2-2.3,0.2-3.6,0.2
		c-3.8,0-5.6-1-5.6-2.9c0-0.8,0.4-1.5,1.2-2.3c0.8-0.8,2-1.5,3.5-2.1c0.1,0,0.1-0.1,0.1-0.2c-0.2-0.6-0.7-1-1.4-1
		c-0.5,0-1.2,0.3-1.9,0.7c-0.8,0.5-1.5,1.2-2.3,2.2c-0.2,0.2-0.4,0.3-0.6,0.3c-0.2,0-0.5,0-0.7-0.1c-0.2-0.1-0.3-0.3-0.4-0.5
		c0-0.2,0-0.4,0.1-0.6c1.2-1.6,2.1-3.2,2.7-4.6c0-0.1,0-0.1-0.1-0.1C219,429.1,218.2,429.1,217.6,429.1z"/>
	<path class="st1" d="M234.8,433.3c-0.2,0-0.4-0.1-0.6-0.2c-0.2-0.2-0.2-0.3-0.2-0.6c0-0.2,0.1-0.4,0.2-0.6c0.2-0.2,0.3-0.2,0.6-0.2
		h2c0.3,0,0.5,0.1,0.7,0.3c0.2,0.2,0.3,0.4,0.3,0.7v4.3c0,0.1,0,0.2,0.1,0.3c0.2,0.4,0.5,0.7,0.8,0.9c0.1,0,0.1,0,0.2-0.1
		c0.1-0.1,0.2-0.3,0.4-0.3c1-0.4,1.9-0.8,2.7-1.4c0,0,0,0,0-0.1c0,0,0,0,0,0h-2.7c-0.2,0-0.4-0.1-0.5-0.2s-0.2-0.3-0.2-0.5
		c0-0.2,0.1-0.4,0.2-0.5c0.1-0.1,0.3-0.2,0.5-0.2h1.7c0.1,0,0.1,0,0.1-0.1v-1c0-0.1,0-0.2-0.1-0.2h-1.2c-0.2,0-0.4-0.1-0.5-0.2
		c-0.1-0.1-0.2-0.3-0.2-0.5c0-0.2,0.1-0.4,0.2-0.5c0.1-0.1,0.3-0.2,0.5-0.2h1.2c0.1,0,0.1,0,0.1-0.1v-0.3c0,0,0,0,0-0.1
		c0,0,0-0.1,0-0.1c0-0.1,0-0.1-0.1-0.1c-0.2,0-0.6,0-1.1,0c-0.5,0-0.9-0.1-1-0.2c-0.2-0.1-0.2-0.4-0.2-0.9v-1.5
		c0-0.3,0.1-0.5,0.3-0.7c0.2-0.2,0.4-0.3,0.7-0.3h2.1c0.1,0,0.2,0,0.2-0.1v-0.5c0-0.1-0.1-0.2-0.2-0.2h-2.6c-0.2,0-0.4-0.1-0.5-0.2
		c-0.1-0.1-0.2-0.3-0.2-0.5c0-0.2,0.1-0.4,0.2-0.5c0.1-0.1,0.3-0.2,0.5-0.2h3.4c0.3,0,0.5,0.1,0.7,0.3c0.2,0.2,0.3,0.4,0.3,0.7v1.5
		c0,0.3-0.1,0.5-0.3,0.7c-0.2,0.2-0.4,0.3-0.7,0.3h-2.2c-0.1,0-0.1,0-0.1,0.1v0.6c0,0.2,0,0.3,0.1,0.3c0,0,0.1,0.1,0.3,0.1
		c0.1,0,0.3,0,0.5,0c0.2,0,0.4,0,0.6,0c0.2,0,0.3-0.1,0.4-0.1c0.3-0.5,0.6-0.8,1-0.7c0.2,0,0.4,0.2,0.6,0.4c0.1,0.2,0.2,0.4,0.2,0.7
		c-0.1,0.4-0.1,0.7-0.3,0.8c-0.1,0.1-0.3,0.2-0.6,0.3c-0.1,0-0.1,0.1-0.1,0.1c0,0.1,0,0.2,0,0.2v0.3c0,0.1,0,0.1,0.1,0.1h2.5
		c0.1,0,0.1,0,0.1-0.1v-0.3c0-0.1,0-0.1,0-0.2c0-0.1,0-0.2-0.1-0.2c-0.5,0-0.8-0.1-0.9-0.3c-0.1-0.1-0.2-0.4-0.2-0.9v-1.5
		c0-0.3,0.1-0.5,0.3-0.7s0.4-0.3,0.7-0.3h2.2c0.1,0,0.2,0,0.2-0.1v-0.5c0-0.1-0.1-0.2-0.2-0.2h-2.5c-0.2,0-0.4-0.1-0.5-0.2
		c-0.1-0.1-0.2-0.3-0.2-0.5c0-0.2,0.1-0.4,0.2-0.5s0.3-0.2,0.5-0.2h3.3c0.3,0,0.5,0.1,0.7,0.3c0.2,0.2,0.3,0.4,0.3,0.7v1.5
		c0,0.3-0.1,0.5-0.3,0.7c-0.2,0.2-0.4,0.3-0.7,0.3h-2.2c-0.1,0-0.1,0-0.1,0.1v0.6c0,0.2,0,0.3,0.1,0.3c0,0,0.1,0.1,0.3,0.1
		c0.1,0,0.3,0,0.5,0s0.4,0,0.5,0c0.2,0,0.4-0.1,0.4-0.1c0.3-0.5,0.6-0.8,1-0.7c0.2,0,0.4,0.2,0.6,0.4c0.1,0.2,0.2,0.4,0.2,0.7
		c-0.1,0.5-0.2,0.8-0.4,0.9c-0.2,0.1-0.6,0.2-1.1,0.2c-0.3,0-0.5,0-0.6,0c-0.1,0-0.1,0-0.1,0.1v0.1v0.3c0,0.1,0.1,0.1,0.2,0.1h1.2
		c0.2,0,0.4,0.1,0.5,0.2c0.1,0.1,0.2,0.3,0.2,0.5c0,0.2-0.1,0.4-0.2,0.5c-0.1,0.1-0.3,0.2-0.5,0.2h-1.2c-0.1,0-0.2,0.1-0.2,0.2v1
		c0,0.1,0.1,0.1,0.2,0.1h1.6c0.2,0,0.4,0.1,0.5,0.2c0.1,0.2,0.2,0.3,0.2,0.5c0,0.2-0.1,0.4-0.2,0.5s-0.3,0.2-0.5,0.2h-2.6
		c0,0,0,0,0,0.1c0.9,0.4,1.8,0.9,2.6,1.4c0.2,0.1,0.3,0.3,0.3,0.5c0,0.2,0,0.4-0.1,0.6c0,0,0,0,0,0.1c0,0,0,0,0,0.1c0,0,0,0,0,0.1
		c0,0,0,0,0,0c0.2,0,0.4,0.1,0.5,0.2s0.2,0.3,0.2,0.6c0,0.2-0.1,0.4-0.3,0.6c-0.2,0.2-0.4,0.2-0.6,0.2h-4.6c-2.1,0-3.7-0.1-4.8-0.4
		c-1.1-0.2-2-0.7-2.5-1.2c-0.1-0.1-0.2-0.1-0.2,0c-0.5,0.5-1.1,1-1.7,1.4c-0.2,0.1-0.4,0.2-0.6,0.1s-0.4-0.2-0.5-0.4
		c-0.1-0.2-0.1-0.4-0.1-0.7c0.1-0.2,0.2-0.4,0.4-0.6c0.6-0.4,1-0.8,1.4-1.1c0.1-0.1,0.1-0.2,0.1-0.3v-4.1c0-0.1,0-0.2-0.1-0.2H234.8
		z M234.7,426.1c0.2-0.2,0.4-0.2,0.6-0.2c0.2,0,0.4,0.1,0.6,0.3c0.6,0.6,1.2,1.2,1.8,2c0.2,0.2,0.2,0.4,0.2,0.6
		c0,0.2-0.1,0.4-0.3,0.6s-0.4,0.2-0.6,0.2c-0.2,0-0.4-0.1-0.6-0.3c-0.8-0.9-1.4-1.5-1.8-1.9c-0.2-0.2-0.2-0.4-0.2-0.6
		C234.4,426.4,234.5,426.2,234.7,426.1z M243,437.6c-0.6,0.5-1.4,0.9-2.2,1.2c0,0,0,0,0,0s0,0,0,0c0.9,0.1,2.2,0.2,3.9,0.2h3.3
		c0,0,0,0,0-0.1c-0.8-0.5-1.7-1-2.6-1.4c-0.2-0.1-0.3-0.2-0.4-0.4s0-0.4,0.1-0.5c0.1-0.1,0.1-0.2,0.2-0.2c0,0,0,0,0-0.1c0,0,0,0,0,0
		h-2.3c-0.1,0-0.1,0,0,0.1l0.1,0.1c0.1,0.2,0.2,0.3,0.2,0.6C243.3,437.3,243.2,437.5,243,437.6z M242.9,433.7v1c0,0.1,0,0.1,0.1,0.1
		h2.5c0.1,0,0.1,0,0.1-0.1v-1c0-0.1,0-0.2-0.1-0.2H243C242.9,433.6,242.9,433.6,242.9,433.7z"/>
	<path class="st1" d="M252.9,429.7c-0.2,0-0.4-0.1-0.6-0.2c-0.2-0.2-0.2-0.3-0.2-0.6c0-0.2,0.1-0.4,0.2-0.6c0.2-0.2,0.3-0.2,0.6-0.2
		h1c0.1,0,0.1,0,0.1-0.1V426c0-0.3,0.1-0.5,0.3-0.6c0.2-0.2,0.4-0.3,0.6-0.3s0.5,0.1,0.7,0.3c0.2,0.2,0.3,0.4,0.3,0.6v1.9
		c0,0.1,0,0.1,0.1,0.1h1c0.2,0,0.4,0.1,0.6,0.2c0.2,0.2,0.2,0.3,0.2,0.6c0,0.2-0.1,0.4-0.2,0.6c-0.2,0.2-0.3,0.2-0.6,0.2h-1
		c-0.1,0-0.1,0.1-0.1,0.2v3.2c0,0.1,0,0.1,0.1,0.1c0.4-0.1,0.7-0.2,0.9-0.3c0.2-0.1,0.4-0.1,0.5,0c0.2,0.1,0.3,0.3,0.3,0.5
		c0,0.2,0,0.5-0.1,0.7c-0.1,0.2-0.3,0.3-0.5,0.4c-0.4,0.1-0.7,0.2-1.1,0.4c-0.1,0-0.1,0.1-0.1,0.2v3.3c0,1.2-0.1,1.9-0.3,2.1
		c-0.2,0.3-0.7,0.4-1.6,0.4c-0.1,0-0.4,0-1,0c-0.2,0-0.4-0.1-0.6-0.3s-0.2-0.3-0.2-0.6c0-0.2,0.1-0.4,0.2-0.5
		c0.1-0.1,0.3-0.2,0.5-0.2c0.2,0,0.5,0,0.8,0c0.2,0,0.2,0,0.3-0.1s0-0.3,0-0.8v-2.8c0-0.1-0.1-0.1-0.2-0.1c-0.1,0-0.2,0.1-0.4,0.1
		c-0.2,0-0.3,0.1-0.4,0.1c-0.2,0-0.4,0-0.6-0.1c-0.2-0.1-0.3-0.3-0.3-0.5c0-0.2,0-0.5,0.2-0.6c0.1-0.2,0.3-0.3,0.6-0.4
		c0.6-0.1,0.9-0.2,1-0.2c0.1,0,0.1-0.1,0.1-0.2v-3.7c0-0.1,0-0.2-0.1-0.2H252.9z M264.3,433c0.6,2.3,1.6,4.2,3.2,5.9
		c0.2,0.2,0.3,0.4,0.3,0.7c0,0.3-0.1,0.5-0.2,0.7c-0.2,0.2-0.4,0.3-0.6,0.3c-0.2,0-0.5-0.1-0.6-0.2c-1.8-1.9-3.1-4.3-3.9-7.3
		c0-0.1-0.1-0.2-0.2-0.2h-1.7c-0.1,0-0.2,0-0.2,0.1c-0.2,2.9-0.7,5.2-1.7,7.1c-0.1,0.2-0.3,0.4-0.5,0.4c-0.2,0.1-0.5,0-0.7-0.1
		c-0.2-0.1-0.4-0.3-0.4-0.6s0-0.5,0.1-0.7c0.6-1.1,1-2.3,1.2-3.6c0.2-1.3,0.4-3,0.4-5.1v-3.7c0-0.3,0.1-0.5,0.3-0.7
		c0.2-0.2,0.4-0.3,0.7-0.3h6.6c0.3,0,0.5,0.1,0.7,0.3c0.2,0.2,0.3,0.4,0.3,0.7v5.1c0,0.3-0.1,0.5-0.3,0.7c-0.2,0.2-0.4,0.3-0.7,0.3
		h-1.8C264.3,432.9,264.3,432.9,264.3,433z M260.6,431.3h4.6c0.1,0,0.1,0,0.1-0.1v-3.6c0-0.1,0-0.1-0.1-0.1h-4.6
		c-0.1,0-0.1,0-0.1,0.1v3.6v0C260.5,431.2,260.5,431.3,260.6,431.3z"/>
	<path class="st1" d="M271,441.4c-0.2,0-0.4-0.1-0.5-0.2s-0.2-0.3-0.2-0.5c0-0.2,0.1-0.4,0.2-0.5s0.3-0.2,0.5-0.2h4.5
		c0.1,0,0.2-0.1,0.2-0.2v-11.1c0-0.3,0.1-0.5,0.3-0.6c0.2-0.2,0.4-0.3,0.6-0.3c0.3,0,0.5,0.1,0.6,0.3c0.2,0.2,0.3,0.4,0.3,0.6v11.8
		c0,0.3-0.1,0.5-0.3,0.7c-0.2,0.2-0.4,0.3-0.7,0.3H271z"/>
	<path class="st1" d="M289.8,430.8c-0.2,0-0.4,0-0.6-0.2c-0.2-0.1-0.3-0.3-0.3-0.6c0-0.2,0.1-0.4,0.2-0.6s0.3-0.3,0.6-0.3
		c1.4-0.1,2.2-0.2,2.5-0.2c0.1,0,0.1,0,0.2-0.1c0.2-1,0.4-2,0.5-2.8c0-0.3,0.1-0.5,0.3-0.6s0.4-0.2,0.7-0.2c0.2,0,0.4,0.1,0.6,0.3
		c0.2,0.2,0.2,0.4,0.2,0.6c-0.1,0.9-0.3,1.8-0.4,2.5c0,0.1,0,0.2,0.1,0.2c0.6,0,0.9,0,1.1,0c0.6,0,1,0,1.4,0c0.3,0,0.6,0.1,0.9,0.2
		c0.3,0.1,0.5,0.2,0.6,0.4c0.1,0.2,0.3,0.4,0.4,0.7s0.2,0.7,0.2,1.1c0,0.4,0,0.9,0,1.6c0,2.4-0.4,4.2-1.1,5.5
		c-0.7,1.3-1.6,1.9-2.6,1.9c-0.6,0-1.4-0.3-2.3-0.8c-0.2-0.1-0.4-0.3-0.4-0.6s0-0.5,0.1-0.7c0.1-0.2,0.3-0.3,0.5-0.4s0.5,0,0.6,0.1
		c0.7,0.4,1.2,0.6,1.4,0.6c0.2,0,0.4-0.1,0.7-0.4c0.2-0.2,0.4-0.6,0.6-1.1c0.2-0.5,0.3-1.1,0.5-1.9c0.1-0.8,0.2-1.7,0.2-2.6
		c0-0.9-0.1-1.5-0.3-1.7s-0.7-0.3-1.4-0.3c-0.3,0-0.8,0-1.4,0.1c-0.1,0-0.2,0-0.2,0.1c-0.7,2.9-1.7,5.9-3.2,8.9
		c-0.1,0.2-0.3,0.4-0.5,0.5c-0.2,0.1-0.5,0.1-0.7,0c-0.2-0.1-0.4-0.2-0.5-0.5c-0.1-0.2-0.1-0.4,0-0.7c1.3-2.7,2.3-5.4,2.9-8.1
		c0-0.1,0-0.1-0.1-0.1C291.6,430.6,291,430.7,289.8,430.8z M302.4,436c-0.8-2.4-1.7-4.7-2.7-6.9c-0.1-0.2-0.1-0.5,0-0.7
		s0.2-0.4,0.5-0.5c0.2-0.1,0.5-0.1,0.7,0c0.2,0.1,0.4,0.3,0.5,0.5c1,2.2,1.9,4.5,2.7,7.1c0.1,0.2,0.1,0.5-0.1,0.7
		c-0.1,0.2-0.3,0.4-0.5,0.5c-0.2,0.1-0.5,0.1-0.7-0.1C302.6,436.4,302.5,436.2,302.4,436z"/>
	<path class="st1" d="M308.9,435.2c-0.3-0.1-0.4-0.2-0.6-0.4c-0.1-0.2-0.2-0.4-0.1-0.7c0.3-1.7,0.6-3,0.8-4.1c0-0.3,0.2-0.5,0.4-0.6
		c0.2-0.2,0.4-0.2,0.7-0.2c0.2,0,0.4,0.1,0.6,0.3s0.2,0.4,0.2,0.7c-0.2,1.3-0.4,2.4-0.6,3.3v0.1h0c1.8-1.3,3.6-1.9,5.6-1.9
		c1.5,0,2.6,0.3,3.4,1c0.8,0.7,1.2,1.6,1.2,2.9c0,1.4-0.6,2.6-1.8,3.4s-2.8,1.3-5,1.3c-1.1,0-2.2-0.1-3.1-0.2
		c-0.2,0-0.4-0.2-0.6-0.3c-0.1-0.2-0.2-0.4-0.2-0.6c0-0.2,0.1-0.4,0.3-0.6c0.2-0.1,0.4-0.2,0.6-0.2c0.9,0.1,1.9,0.2,3,0.2
		c1.5,0,2.7-0.3,3.5-0.8c0.8-0.5,1.2-1.3,1.2-2.2c0-1.5-0.9-2.2-2.8-2.2c-1.5,0-3.2,0.5-5,1.6C310,435.2,309.5,435.3,308.9,435.2z
		 M311.3,426.1c2.1,0.6,4.2,1,6.4,1.1c0.2,0,0.4,0.1,0.6,0.3c0.2,0.2,0.2,0.3,0.2,0.6c0,0.2-0.1,0.4-0.2,0.6s-0.4,0.2-0.6,0.2
		c-2.4-0.2-4.7-0.5-6.8-1.2c-0.2-0.1-0.4-0.2-0.5-0.4s-0.1-0.4-0.1-0.6c0.1-0.2,0.2-0.4,0.4-0.5S311.1,426.1,311.3,426.1z"/>
	<path class="st1" d="M324.9,436.2c-0.2,0-0.4-0.1-0.6-0.2c-0.2-0.2-0.2-0.3-0.2-0.6s0.1-0.4,0.2-0.6c0.2-0.2,0.3-0.2,0.6-0.2h6.4
		c0.1,0,0.2-0.1,0.2-0.2v-0.3c0-0.3,0.1-0.5,0.3-0.7c0.2-0.2,0.4-0.3,0.7-0.3c0,0,0,0,0,0c0,0,0,0,0,0c0.1,0,0.2,0,0.3-0.1l0.1-0.1
		c0.6-0.5,1.1-0.9,1.5-1.3c0.1-0.1,0-0.1-0.1-0.1h-6.2c-0.2,0-0.4-0.1-0.6-0.2s-0.2-0.3-0.2-0.6c0-0.2,0.1-0.4,0.2-0.6
		s0.3-0.2,0.6-0.2h8c0.2,0,0.4,0.1,0.6,0.2c0.2,0.2,0.2,0.3,0.2,0.6c0,0.6-0.2,1-0.5,1.4c-0.7,0.7-1.5,1.4-2.4,2.1
		c-0.1,0.1-0.3,0.2-0.4,0.2c0,0-0.1,0-0.1,0.1c0,0,0,0,0,0l0,0c0,0,0,0,0,0h5.8c0.2,0,0.4,0.1,0.6,0.2c0.2,0.2,0.2,0.3,0.2,0.6
		s-0.1,0.4-0.2,0.6c-0.2,0.2-0.3,0.2-0.6,0.2h-5.8c-0.1,0-0.1,0.1-0.1,0.2v2.4c0,0.9-0.1,1.5-0.4,1.7c-0.3,0.2-0.9,0.3-2.1,0.3
		c-0.4,0-1.1,0-2-0.1c-0.2,0-0.4-0.1-0.6-0.3s-0.3-0.4-0.3-0.6c0-0.2,0.1-0.4,0.2-0.6c0.1-0.2,0.3-0.2,0.5-0.2
		c0.9,0,1.5,0.1,1.9,0.1c0.3,0,0.6,0,0.6-0.1c0.1-0.1,0.1-0.2,0.1-0.6v-2.2c0-0.1-0.1-0.2-0.2-0.2H324.9z M339.2,431.3
		c-0.2,0.2-0.4,0.3-0.6,0.3s-0.5-0.1-0.6-0.3s-0.3-0.4-0.3-0.6v-1.8c0-0.1,0-0.2-0.1-0.2h-10.9c-0.1,0-0.1,0.1-0.1,0.2v1.8
		c0,0.3-0.1,0.5-0.3,0.6s-0.4,0.3-0.6,0.3s-0.5-0.1-0.6-0.3c-0.2-0.2-0.3-0.4-0.3-0.6v-2.5c0-0.3,0.1-0.5,0.3-0.7
		c0.2-0.2,0.4-0.3,0.7-0.3h1.2c0,0,0.1,0,0.1-0.1c0,0,0-0.1,0-0.1c-0.2-0.3-0.3-0.5-0.4-0.7c-0.1-0.2-0.1-0.4-0.1-0.6
		c0.1-0.2,0.2-0.4,0.4-0.5c0.2-0.1,0.5-0.1,0.7,0s0.4,0.2,0.6,0.5c0.2,0.4,0.4,0.8,0.7,1.3c0,0.1,0.1,0.2,0.2,0.2h1.9
		c0,0,0.1,0,0.1,0c0,0,0-0.1,0-0.1c-0.2-0.4-0.3-0.7-0.5-0.9c-0.1-0.2-0.1-0.4-0.1-0.6c0.1-0.2,0.2-0.4,0.4-0.5
		c0.2-0.1,0.5-0.1,0.7,0c0.2,0.1,0.4,0.2,0.5,0.4c0.4,0.8,0.7,1.3,0.8,1.6c0,0.1,0.1,0.1,0.2,0.1h1.6c0.1,0,0.2,0,0.2-0.1
		c0.2-0.4,0.5-0.9,0.8-1.4c0.1-0.2,0.3-0.4,0.5-0.5s0.5-0.1,0.7-0.1c0.2,0.1,0.4,0.2,0.5,0.4c0.1,0.2,0.1,0.4,0,0.6
		c-0.1,0.1-0.2,0.3-0.3,0.5s-0.2,0.4-0.3,0.4c0,0,0,0.1,0,0.1c0,0,0,0,0.1,0h1.2c0.3,0,0.5,0.1,0.7,0.3c0.2,0.2,0.3,0.4,0.3,0.7v2.5
		C339.5,431,339.4,431.2,339.2,431.3z"/>
	<path class="st1" d="M342.8,432.8c-0.2,0-0.4-0.1-0.6-0.2c-0.2-0.2-0.2-0.3-0.2-0.6c0-0.2,0.1-0.4,0.2-0.6c0.2-0.2,0.3-0.2,0.6-0.2
		h1.1c0.1,0,0.1-0.1,0.1-0.2c-0.2-1-0.5-2-0.8-3c0-0.1-0.1-0.1-0.2-0.1H343c-0.2,0-0.4-0.1-0.5-0.2c-0.2-0.2-0.2-0.3-0.2-0.5
		c0-0.2,0.1-0.4,0.2-0.5c0.1-0.2,0.3-0.2,0.5-0.2h2.5c0.1,0,0.2,0,0.2-0.1v-0.5c0-0.3,0.1-0.5,0.3-0.7c0.2-0.2,0.4-0.3,0.7-0.3
		c0.3,0,0.5,0.1,0.7,0.3c0.2,0.2,0.3,0.4,0.3,0.7v0.5c0,0.1,0,0.1,0.1,0.1h2.7c0.2,0,0.4,0.1,0.5,0.2c0.1,0.2,0.2,0.3,0.2,0.5
		c0,0.2-0.1,0.4-0.2,0.5c-0.2,0.2-0.3,0.2-0.5,0.2h-0.1c-0.1,0-0.1,0-0.1,0.1c-0.3,1.2-0.5,2.1-0.8,3c0,0.1,0,0.1,0.1,0.1h1.1
		c0.2,0,0.4,0.1,0.6,0.2s0.2,0.3,0.2,0.6c0,0.2-0.1,0.4-0.2,0.6s-0.4,0.2-0.6,0.2H342.8z M343.9,434h5.6c0.3,0,0.5,0.1,0.7,0.3
		c0.2,0.2,0.3,0.4,0.3,0.7v5c0,0.3-0.1,0.5-0.3,0.6s-0.4,0.3-0.6,0.3h-0.3c-0.2,0-0.3-0.1-0.4-0.2c-0.1-0.1-0.2-0.3-0.2-0.4
		c0-0.1,0-0.1-0.1-0.1h-3.8c-0.1,0-0.1,0-0.1,0.1c0,0.2-0.1,0.3-0.2,0.4c-0.1,0.1-0.3,0.2-0.4,0.2h-0.3c-0.3,0-0.5-0.1-0.6-0.3
		c-0.2-0.2-0.3-0.4-0.3-0.6v-5c0-0.3,0.1-0.5,0.3-0.7C343.4,434.1,343.6,434,343.9,434z M348.7,438.5v-2.8c0-0.1,0-0.1-0.1-0.1h-3.7
		c-0.1,0-0.1,0-0.1,0.1v2.8c0,0.1,0,0.2,0.1,0.2h3.7C348.7,438.7,348.7,438.7,348.7,438.5z M345.1,427.9c-0.1,0-0.1,0-0.1,0.1
		c0.3,0.9,0.5,1.9,0.8,2.9c0,0.1,0.1,0.2,0.2,0.2h1.5c0.1,0,0.2,0,0.2-0.1c0.3-0.8,0.6-1.8,0.8-2.9c0-0.1,0-0.1-0.1-0.1H345.1z
		 M353.5,440.6c-0.2,0.2-0.4,0.3-0.6,0.3s-0.5-0.1-0.6-0.3c-0.2-0.2-0.3-0.4-0.3-0.6v-13.4c0-0.3,0.1-0.5,0.3-0.7s0.4-0.3,0.7-0.3
		h4.6c0.2,0,0.4,0.1,0.5,0.2c0.1,0.1,0.2,0.3,0.2,0.5c0,0.5-0.1,1-0.2,1.5c-0.5,1.4-1,2.6-1.7,3.8c0,0.1,0,0.2,0.1,0.2
		c0.6,0.6,1.1,1.2,1.5,2s0.5,1.5,0.5,2.3c0,1-0.2,1.8-0.7,2.2c-0.5,0.4-1.2,0.7-2.1,0.7h-0.3c-0.2,0-0.5-0.1-0.6-0.2
		c-0.2-0.2-0.3-0.3-0.4-0.6c0-0.2,0-0.4,0.1-0.6s0.3-0.3,0.5-0.3c0.6,0,1-0.1,1.2-0.3s0.3-0.5,0.3-1c0-1.2-0.5-2.4-1.6-3.6
		c-0.4-0.5-0.5-1-0.2-1.6c0.6-1.1,1.1-2.4,1.6-3.7c0-0.1,0-0.1-0.1-0.1h-2.4c-0.1,0-0.1,0-0.1,0.1V440
		C353.7,440.3,353.6,440.5,353.5,440.6z"/>
	<path class="st1" d="M368.1,440.3c-2.4,0-4.1-0.3-5.3-1c-1.2-0.7-1.8-1.6-1.8-2.7c0-1.1,0.8-2.4,2.5-4c0.2-0.2,0.4-0.3,0.7-0.2
		c0.3,0,0.5,0.1,0.6,0.3c0.2,0.2,0.2,0.4,0.2,0.6c0,0.2-0.1,0.4-0.3,0.6c-1.2,1.1-1.8,2-1.8,2.7c0,0.6,0.4,1.1,1.3,1.5
		c0.9,0.4,2.1,0.5,3.8,0.5c1.2,0,2.7-0.2,4.5-0.6c0.2-0.1,0.5,0,0.7,0.1s0.3,0.3,0.4,0.6s0,0.5-0.1,0.7c-0.1,0.2-0.3,0.3-0.6,0.4
		C371.1,440.1,369.5,440.3,368.1,440.3z M368.5,427.1c0.4,0,0.9,0,1.6,0c0.2,0,0.4,0.1,0.6,0.2c0.2,0.2,0.3,0.4,0.3,0.6
		c0,0.2-0.1,0.4-0.2,0.6s-0.4,0.3-0.6,0.3c-0.4,0-0.9,0-1.7,0c-1.8,0-3.5-0.1-5.1-0.3c-0.2,0-0.4-0.1-0.6-0.3s-0.2-0.4-0.2-0.6
		c0-0.2,0.1-0.4,0.3-0.6c0.2-0.1,0.4-0.2,0.6-0.2C365.2,427,366.9,427.1,368.5,427.1z M372.6,425.8c0.5,0.9,0.8,1.4,0.8,1.5
		c0.1,0.2,0.1,0.4,0.1,0.6c-0.1,0.2-0.2,0.4-0.4,0.5c-0.2,0.1-0.4,0.1-0.6,0c-0.2-0.1-0.4-0.2-0.5-0.4c-0.1-0.2-0.2-0.4-0.4-0.7
		c-0.2-0.3-0.3-0.6-0.4-0.7c-0.1-0.2-0.1-0.4-0.1-0.6c0.1-0.2,0.2-0.4,0.4-0.5c0.2-0.1,0.4-0.1,0.6-0.1
		C372.3,425.5,372.5,425.6,372.6,425.8z M374.7,427.5c-0.1-0.2-0.2-0.4-0.4-0.7c-0.2-0.3-0.3-0.6-0.4-0.7c-0.1-0.2-0.1-0.4-0.1-0.6
		c0.1-0.2,0.2-0.4,0.4-0.5c0.2-0.1,0.4-0.1,0.6-0.1c0.2,0.1,0.4,0.2,0.5,0.4c0.2,0.3,0.5,0.8,0.8,1.5c0.1,0.2,0.1,0.4,0.1,0.6
		c-0.1,0.2-0.2,0.4-0.4,0.5c-0.2,0.1-0.4,0.1-0.6,0C374.9,427.8,374.8,427.7,374.7,427.5z"/>
	<path class="st1" d="M386.1,439.9c-1.9,0-3.3-0.3-4.4-1s-1.6-1.7-1.6-2.9c0-1.5,1-2.8,3.1-4.1c0.1,0,0.1-0.1,0.1-0.2v0
		c-0.4-1.8-0.8-3.5-1-4.9c0-0.3,0-0.5,0.2-0.7c0.2-0.2,0.4-0.3,0.6-0.4s0.5,0,0.7,0.2c0.2,0.2,0.3,0.4,0.4,0.6
		c0.3,1.4,0.5,2.8,0.9,4.3c0,0.1,0.1,0.1,0.2,0.1c1.5-0.6,3.3-1.3,5.4-1.9c0.2-0.1,0.4,0,0.7,0.1c0.2,0.1,0.3,0.3,0.4,0.5
		c0.1,0.2,0,0.5-0.1,0.7c-0.1,0.2-0.3,0.3-0.5,0.4c-6,1.7-8.9,3.4-8.9,5.2c0,1.5,1.4,2.2,4.1,2.2c1.5,0,3.1-0.1,4.6-0.4
		c0.2,0,0.5,0,0.7,0.2c0.2,0.1,0.3,0.3,0.4,0.6c0,0.2,0,0.5-0.2,0.7c-0.1,0.2-0.3,0.3-0.6,0.4C389.4,439.8,387.7,439.9,386.1,439.9z
		"/>
	<path class="st1" d="M399.2,440.1c-0.3,0-0.5,0-0.7-0.2c-0.2-0.2-0.4-0.4-0.4-0.6c-0.5-2-0.7-4.1-0.7-6.2c0-2.2,0.2-4.2,0.7-6.2
		c0.1-0.3,0.2-0.5,0.4-0.6c0.2-0.2,0.5-0.2,0.7-0.2c0.2,0,0.4,0.1,0.6,0.3c0.1,0.2,0.2,0.4,0.1,0.7c-0.4,1.8-0.7,3.9-0.7,6
		c0,2.2,0.2,4.2,0.7,6c0.1,0.2,0,0.5-0.1,0.7C399.6,439.9,399.4,440.1,399.2,440.1z M406.8,439.4c-1.5,0-2.7-0.3-3.6-0.9
		c-0.9-0.6-1.3-1.4-1.3-2.3c0-0.5,0.2-1,0.5-1.6s0.8-1.1,1.4-1.7c0.2-0.2,0.4-0.2,0.6-0.2s0.5,0.1,0.6,0.3c0.2,0.2,0.3,0.4,0.3,0.6
		c0,0.2-0.1,0.4-0.3,0.6c-0.8,0.8-1.2,1.4-1.2,2c0,0.5,0.3,0.8,0.8,1.1s1.2,0.4,2.2,0.4c1,0,2-0.1,3.1-0.3c0.2,0,0.4,0,0.6,0.1
		c0.2,0.1,0.3,0.3,0.3,0.5c0,0.3,0,0.5-0.1,0.7c-0.1,0.2-0.3,0.3-0.6,0.4C409,439.2,407.9,439.4,406.8,439.4z M409.7,427.6
		c0.2,0,0.4,0,0.6,0.2c0.2,0.1,0.3,0.3,0.3,0.6c0,0.2,0,0.5-0.2,0.6c-0.2,0.2-0.3,0.3-0.6,0.3c-2.1,0.3-4.1,0.4-6.1,0.4
		c-0.2,0-0.4-0.1-0.6-0.2s-0.2-0.4-0.2-0.6c0-0.2,0.1-0.4,0.3-0.6s0.4-0.3,0.6-0.3C405.5,428,407.5,427.8,409.7,427.6z"/>
	<path class="st1" d="M414.8,440.7c-0.2,0-0.4-0.1-0.6-0.2c-0.2-0.1-0.2-0.3-0.3-0.5c0-0.2,0.1-0.4,0.2-0.6c0.1-0.2,0.3-0.2,0.5-0.3
		c1.4-0.1,2.3-0.1,2.8-0.2c0.1,0,0.2-0.1,0.2-0.2v-0.6c0-0.1-0.1-0.2-0.2-0.2H415c-0.2,0-0.4-0.1-0.5-0.2c-0.1-0.1-0.2-0.3-0.2-0.5
		c0-0.2,0.1-0.4,0.2-0.5s0.3-0.2,0.5-0.2h2.5c0.1,0,0.2,0,0.2-0.1V436c0-0.1-0.1-0.1-0.2-0.1h-1.2h-0.8c-0.3,0-0.5-0.1-0.7-0.3
		c-0.2-0.2-0.3-0.4-0.3-0.7v-3.5c0-0.3,0.1-0.5,0.3-0.7c0.2-0.2,0.4-0.3,0.7-0.3h1.9c0.1,0,0.2,0,0.2-0.1v-0.5
		c0-0.1-0.1-0.1-0.2-0.1h-2.6c-0.2,0-0.4-0.1-0.5-0.2c-0.1-0.1-0.2-0.3-0.2-0.5s0.1-0.4,0.2-0.5c0.1-0.1,0.3-0.2,0.5-0.2h2.6
		c0.1,0,0.2-0.1,0.2-0.2v-0.6c0-0.1-0.1-0.1-0.2-0.1c-0.4,0-1.2,0.1-2.2,0.1c-0.2,0-0.4-0.1-0.6-0.2c-0.2-0.2-0.2-0.3-0.3-0.6
		c0-0.2,0.1-0.4,0.2-0.5c0.1-0.1,0.3-0.2,0.5-0.2c2.1-0.1,4.3-0.3,6.5-0.6c0.2,0,0.4,0,0.6,0.2c0.2,0.1,0.3,0.3,0.3,0.5
		c0,0.2,0,0.4-0.2,0.6s-0.3,0.3-0.5,0.3c-0.6,0.1-1.3,0.2-2.2,0.3c-0.1,0-0.2,0.1-0.2,0.2v0.7c0,0.1,0,0.2,0.1,0.2h2.4
		c0.3,0,0.6,0.2,0.7,0.5c0,0.1,0.1,0.1,0.1,0c0.1-0.1,0.3-0.1,0.5-0.1h0.9c0.1,0,0.1-0.1,0.1-0.2c0-1.5,0.1-2.4,0.1-2.5
		c0-0.2,0.1-0.4,0.3-0.6c0.2-0.2,0.4-0.3,0.6-0.3s0.4,0.1,0.6,0.3c0.2,0.2,0.3,0.4,0.3,0.6c0,0.1,0,0.9-0.1,2.5
		c0,0.1,0.1,0.2,0.2,0.2h2.7c0.3,0,0.5,0.1,0.7,0.3c0.2,0.2,0.3,0.4,0.3,0.7v0.1c0,1.8,0,3.2,0,4.4c0,1.1-0.1,2.1-0.1,3
		c-0.1,0.9-0.2,1.5-0.2,1.9s-0.2,0.8-0.4,1c-0.2,0.3-0.4,0.4-0.6,0.5c-0.2,0.1-0.5,0.1-0.8,0.1c-0.3,0-0.9,0-1.5-0.1
		c-0.2,0-0.4-0.1-0.6-0.3c-0.2-0.2-0.3-0.4-0.3-0.6c0-0.2,0.1-0.4,0.3-0.6c0.2-0.1,0.4-0.2,0.6-0.2c0.3,0,0.6,0.1,1,0.1
		c0.1,0,0.2,0,0.3-0.1s0.2-0.3,0.2-0.6c0.1-0.3,0.1-0.7,0.2-1.3c0-0.6,0.1-1.3,0.1-2.3s0-2.2,0-3.6v-0.6c0-0.1-0.1-0.1-0.2-0.1h-1.7
		c-0.1,0-0.2,0-0.2,0.1c-0.1,2.4-0.4,4.4-0.7,5.9c-0.3,1.5-0.8,2.8-1.5,3.9c-0.1,0.2-0.3,0.3-0.5,0.4c-0.2,0-0.5,0-0.7-0.1
		c-0.2-0.1-0.3-0.3-0.4-0.5c0-0.1-0.1-0.1-0.1-0.1c-0.1,0.1-0.3,0.2-0.4,0.2C419.5,440.4,417.2,440.6,414.8,440.7z M416.3,431.9v0.5
		c0,0.1,0,0.2,0.1,0.2h1c0.1,0,0.2-0.1,0.2-0.2v-0.5c0-0.1-0.1-0.1-0.2-0.1h-1C416.4,431.8,416.3,431.8,416.3,431.9z M417.5,434.5
		c0.1,0,0.2,0,0.2-0.1v-0.5c0-0.1-0.1-0.2-0.2-0.2h-1c-0.1,0-0.1,0.1-0.1,0.2v0.5c0,0.1,0,0.1,0.1,0.1H417.5z M419.6,438.2v0.4
		c0,0.1,0,0.1,0.1,0.1c0.2,0,0.5-0.1,1-0.1c0.4,0,0.8-0.1,1-0.1c0.3,0,0.6,0.1,0.7,0.4c0,0,0,0,0.1,0s0,0,0.1,0
		c1-1.9,1.6-4.8,1.8-8.7c0-0.1,0-0.1-0.1-0.1h-0.8c-0.2,0-0.4-0.1-0.5-0.2c-0.1-0.1-0.2-0.3-0.3-0.4c0-0.1-0.1-0.1-0.2-0.1
		c-0.1,0.1-0.3,0.1-0.3,0.1h-2.4c-0.1,0-0.1,0-0.1,0.1v0.5c0,0.1,0,0.1,0.1,0.1h1.8c0.3,0,0.5,0.1,0.7,0.3c0.2,0.2,0.3,0.4,0.3,0.7
		v3.5c0,0.3-0.1,0.5-0.3,0.7c-0.2,0.2-0.4,0.3-0.7,0.3h-1.8c-0.1,0-0.1,0-0.1,0.1v0.5c0,0.1,0,0.1,0.1,0.1h2.1
		c0.2,0,0.4,0.1,0.5,0.2c0.1,0.1,0.2,0.3,0.2,0.5c0,0.2-0.1,0.4-0.2,0.5c-0.1,0.1-0.3,0.2-0.5,0.2h-2.1
		C419.6,438.1,419.6,438.1,419.6,438.2z M419.6,431.9v0.5c0,0.1,0,0.2,0.1,0.2h1c0.1,0,0.1-0.1,0.1-0.2v-0.5c0-0.1,0-0.1-0.1-0.1h-1
		C419.6,431.8,419.6,431.8,419.6,431.9z M419.6,433.8v0.5c0,0.1,0,0.1,0.1,0.1h1c0.1,0,0.1,0,0.1-0.1v-0.5c0-0.1,0-0.2-0.1-0.2h-1
		C419.6,433.7,419.6,433.7,419.6,433.8z"/>
	<path class="st1" d="M433.1,427.2c-0.2,0-0.4-0.1-0.6-0.2s-0.2-0.3-0.2-0.6s0.1-0.4,0.2-0.6c0.2-0.2,0.3-0.2,0.6-0.2h13.9
		c0.2,0,0.4,0.1,0.6,0.2c0.2,0.2,0.2,0.3,0.2,0.6s-0.1,0.4-0.2,0.6s-0.3,0.2-0.6,0.2h-5.9c-0.1,0-0.2,0-0.2,0.1v1.3
		c0,0.1,0.1,0.2,0.2,0.2h2.3c0.3,0,0.5,0.1,0.7,0.3c0.2,0.2,0.3,0.4,0.3,0.7v6.5c0,0.3-0.1,0.5-0.3,0.7c-0.2,0.2-0.4,0.3-0.7,0.3h-6
		h-0.7c-0.3,0-0.5-0.1-0.7-0.3s-0.3-0.4-0.3-0.7v-6.5c0-0.3,0.1-0.5,0.3-0.7c0.2-0.2,0.4-0.3,0.7-0.3h2.3c0.1,0,0.2-0.1,0.2-0.2
		v-1.3c0-0.1-0.1-0.1-0.2-0.1H433.1z M433,429.6c0.2-0.2,0.4-0.3,0.6-0.3s0.5,0.1,0.6,0.3s0.3,0.4,0.3,0.6v8c0,0.1,0,0.1,0.1,0.1
		h10.7c0.1,0,0.1,0,0.1-0.1v-8c0-0.3,0.1-0.5,0.3-0.6s0.4-0.3,0.6-0.3c0.3,0,0.5,0.1,0.6,0.3s0.3,0.4,0.3,0.6v9.7
		c0,0.3-0.1,0.5-0.3,0.6s-0.4,0.3-0.6,0.3h-0.1c-0.2,0-0.4-0.1-0.5-0.2c-0.1-0.1-0.2-0.3-0.2-0.5c0-0.1,0-0.1-0.1-0.1h-10.8
		c-0.1,0-0.1,0-0.1,0.1c0,0.2-0.1,0.4-0.2,0.5s-0.3,0.2-0.5,0.2h-0.1c-0.3,0-0.5-0.1-0.6-0.3c-0.2-0.2-0.3-0.4-0.3-0.6v-9.7
		C432.8,430,432.9,429.8,433,429.6z M439.2,432.2v-1.8c0-0.1-0.1-0.2-0.2-0.2h-1.5c-0.1,0-0.1,0.1-0.1,0.2v1.8c0,0.1,0,0.1,0.1,0.1
		h1.5C439.1,432.3,439.2,432.3,439.2,432.2z M439.2,435.7v-1.9c0-0.1-0.1-0.1-0.2-0.1h-1.5c-0.1,0-0.1,0-0.1,0.1v1.9
		c0,0.1,0,0.2,0.1,0.2h1.5C439.1,435.9,439.2,435.8,439.2,435.7z M441,430.4v1.8c0,0.1,0.1,0.1,0.2,0.1h1.5c0.1,0,0.1,0,0.1-0.1
		v-1.8c0-0.1,0-0.2-0.1-0.2h-1.5C441.1,430.2,441,430.3,441,430.4z M441,433.8v1.9c0,0.1,0.1,0.2,0.2,0.2h1.5c0.1,0,0.1-0.1,0.1-0.2
		v-1.9c0-0.1,0-0.1-0.1-0.1h-1.5C441.1,433.6,441,433.7,441,433.8z"/>
	<path class="st1" d="M454,438.9c-0.9,0-1.6-0.5-2.3-1.4c-0.7-0.9-1.1-2.1-1.1-3.4c0-2.1,0.7-3.9,2.2-5.2s3.5-2,5.9-2
		c2,0,3.7,0.6,5,1.7s1.9,2.6,1.9,4.5c0,1.6-0.4,3-1.3,4.2s-2.1,2-3.6,2.4c-0.2,0.1-0.5,0-0.7-0.1c-0.2-0.1-0.4-0.3-0.4-0.5
		c-0.1-0.2-0.1-0.4,0.1-0.6s0.3-0.3,0.5-0.4c1.1-0.4,2-1,2.6-1.9c0.6-0.9,0.9-1.9,0.9-3.1c0-1.2-0.4-2.3-1.2-3.1
		c-0.8-0.8-1.8-1.3-3.1-1.4c-0.1,0-0.2,0-0.2,0.2c-0.5,3.4-1.2,6-2.1,7.7C456.3,438.1,455.2,438.9,454,438.9z M457.2,428.6
		c-1.5,0.3-2.7,0.9-3.5,1.8c-0.9,1-1.3,2.1-1.3,3.5c0,0.9,0.2,1.6,0.5,2.2s0.7,0.9,1.1,0.9c0.3,0,0.5-0.2,0.8-0.5
		c0.3-0.3,0.6-0.8,0.9-1.4c0.3-0.6,0.6-1.5,0.9-2.6s0.6-2.4,0.8-3.8C457.4,428.7,457.4,428.7,457.2,428.6
		C457.3,428.6,457.3,428.6,457.2,428.6z"/>
	<path class="st1" d="M469.1,439.9c-0.2,0.1-0.4,0.2-0.6,0.1c-0.2,0-0.4-0.1-0.5-0.3s-0.2-0.4-0.1-0.6c0.2-1,0.3-2.2,0.5-3.4
		c0-0.2,0.1-0.4,0.3-0.5c0.2-0.1,0.3-0.2,0.5-0.2c0.2,0,0.4,0.1,0.5,0.3s0.2,0.3,0.2,0.5c-0.1,1.2-0.2,2.4-0.5,3.6
		C469.4,439.6,469.3,439.8,469.1,439.9z M468.8,434.2c-0.2,0-0.4-0.1-0.5-0.2c-0.2-0.1-0.2-0.3-0.3-0.5c0-0.2,0.1-0.4,0.2-0.6
		c0.1-0.2,0.3-0.2,0.5-0.3l0.9-0.1c0.1,0,0.2,0,0.2-0.1l0.2-0.3c0.1-0.1,0.1-0.2,0-0.3c-0.5-0.8-1.1-1.7-1.7-2.7
		c-0.3-0.5-0.3-1,0-1.5c0.1-0.2,0.3-0.3,0.5-0.3s0.4,0.1,0.5,0.3c0,0,0,0,0,0.1c0,0,0,0.1,0,0.1c0,0.1,0.1,0.1,0.1,0
		c0.3-0.7,0.7-1.4,1-2.1c0.1-0.2,0.2-0.3,0.4-0.4c0.2-0.1,0.4-0.1,0.6,0s0.3,0.2,0.4,0.4c0.1,0.2,0.1,0.4,0,0.6
		c-0.4,0.9-0.9,1.9-1.5,3c0,0.1,0,0.2,0,0.2c0,0.1,0.1,0.2,0.2,0.4s0.2,0.3,0.2,0.4c0,0.1,0.1,0.1,0.1,0c0.5-0.8,1-1.8,1.6-2.8
		c0.1-0.2,0.2-0.3,0.5-0.4c0.2-0.1,0.4-0.1,0.6,0c0.2,0.1,0.3,0.3,0.4,0.5c0.1,0.2,0,0.4-0.1,0.6c-0.5,0.9-0.8,1.5-0.9,1.7
		c0,0,0,0,0,0.1c0,0,0,0,0.1,0l0.1,0c0.3-0.1,0.5,0,0.8,0.1c0.2,0.1,0.4,0.3,0.5,0.6l0.2,0.6c0,0,0,0,0.1,0.1c0,0,0.1,0,0.1,0
		c0.6-0.7,1.2-1.4,1.6-2.2c0.1-0.2,0.3-0.3,0.5-0.4c0.2-0.1,0.4,0,0.6,0.1c0.2,0.1,0.3,0.3,0.4,0.5c0.1,0.2,0,0.5-0.1,0.7
		c-0.5,0.9-1.1,1.7-1.8,2.5c0,0,0,0,0,0.1c0,0,0,0,0.1,0l0.4-0.1c0.3-0.1,0.5,0,0.8,0.1c0.3,0.1,0.4,0.3,0.5,0.6
		c0.4,0.9,0.8,1.7,1.2,2.4c0,0.1,0.1,0.1,0.2,0c0.5-0.7,1-1.5,1.4-2.5c0.1-0.3,0.3-0.4,0.5-0.6c0.2-0.1,0.5-0.1,0.8-0.1l0.5,0.1
		c0,0,0,0,0.1,0c0,0,0,0,0-0.1c-0.7-0.9-1.3-1.7-2-2.4c-0.2-0.2-0.2-0.4-0.2-0.6s0.1-0.4,0.3-0.5c0.2-0.2,0.4-0.2,0.6-0.2
		s0.4,0.1,0.6,0.3c0.7,0.8,1.4,1.6,2.1,2.5c0.2,0.2,0.2,0.4,0.2,0.7c0,0.3-0.1,0.5-0.3,0.7l0,0c-0.1,0.2-0.3,0.2-0.5,0.2
		c-0.2,0-0.4-0.1-0.5-0.3c0,0-0.1,0-0.1,0c-0.6,1.6-1.3,3-2.1,4c-0.1,0.1,0,0.2,0,0.2c0.8,0.7,1.8,1.3,3.1,1.9
		c0.2,0.1,0.4,0.3,0.5,0.5c0.1,0.2,0.1,0.4,0,0.6c-0.1,0.2-0.2,0.4-0.5,0.5s-0.4,0.1-0.7,0c-1.5-0.6-2.7-1.3-3.7-2.2
		c-0.1-0.1-0.1-0.1-0.2,0c-1.1,0.9-2.4,1.6-4,2.3c-0.2,0.1-0.4,0.1-0.7,0c-0.2-0.1-0.4-0.3-0.5-0.5c-0.1-0.2-0.1-0.4,0-0.6
		c0.1-0.2,0.2-0.4,0.4-0.4c1.4-0.6,2.6-1.2,3.6-2c0.1,0,0.1-0.1,0-0.2c-0.8-1-1.5-2.3-2-3.8c0,0,0-0.1-0.1-0.1s-0.1,0-0.1,0
		l-0.2,0.2c-0.1,0.1-0.2,0.1-0.3,0.2c0,0.2,0,0.4-0.1,0.6c-0.1,0.2-0.3,0.3-0.5,0.3l-0.3,0c-0.1,0-0.3,0-0.4-0.1
		c-0.1-0.1-0.2-0.2-0.2-0.3c0,0-0.1-0.1-0.1-0.1l-1.2,0.1c-0.1,0-0.1,0.1-0.1,0.2v6c0,0.3-0.1,0.5-0.3,0.6s-0.4,0.3-0.6,0.3
		s-0.5-0.1-0.6-0.3c-0.2-0.2-0.3-0.4-0.3-0.6v-5.9c0-0.1-0.1-0.1-0.2-0.1L468.8,434.2z M471.8,432.3c0,0.1,0,0.1,0.1,0.1l1.5-0.1
		c0.1,0,0.1-0.1,0.1-0.2c-0.2-0.6-0.3-1.2-0.4-1.7c0,0,0,0-0.1,0c0,0,0,0-0.1,0C472.5,431.2,472.1,431.8,471.8,432.3z M474.8,437.7
		c0,0.2,0,0.4-0.2,0.6c-0.1,0.2-0.3,0.3-0.5,0.3c-0.2,0-0.4,0-0.5-0.2s-0.2-0.3-0.3-0.5c-0.1-0.9-0.2-1.7-0.3-2.2
		c0-0.2,0-0.4,0.1-0.5c0.1-0.2,0.3-0.3,0.5-0.3c0.2,0,0.4,0,0.6,0.1c0.2,0.1,0.3,0.3,0.3,0.5C474.7,436.5,474.8,437.2,474.8,437.7z
		 M478.8,425c0.2-0.2,0.4-0.3,0.7-0.3s0.5,0.1,0.7,0.3c0.2,0.2,0.3,0.4,0.3,0.7v0.9c0,0.1,0,0.2,0.1,0.2h3c0.2,0,0.4,0.1,0.6,0.2
		c0.2,0.2,0.2,0.3,0.2,0.6c0,0.2-0.1,0.4-0.2,0.6c-0.2,0.2-0.3,0.2-0.6,0.2h-8.1c-0.2,0-0.4-0.1-0.6-0.2c-0.2-0.2-0.2-0.3-0.2-0.6
		c0-0.2,0.1-0.4,0.2-0.6c0.2-0.2,0.3-0.2,0.6-0.2h2.9c0.1,0,0.2-0.1,0.2-0.2v-0.9C478.5,425.5,478.6,425.2,478.8,425z"/>
	<path class="st1" d="M489.7,435.1c-0.2,0-0.4-0.1-0.6-0.2c-0.2-0.2-0.3-0.4-0.3-0.6c0-2.8,0.1-5.4,0.3-7.9c0-0.3,0.1-0.5,0.3-0.7
		c0.2-0.2,0.4-0.3,0.7-0.3c0.3,0,0.5,0.1,0.6,0.3s0.2,0.4,0.2,0.6c-0.1,1.2-0.1,2.3-0.2,3.4c0,0,0,0,0,0c0,0,0,0,0,0
		c1.2-2.2,2.7-3.3,4.7-3.3c1.4,0,2.5,0.5,3.3,1.5s1.2,2.4,1.2,4.4c0,2.4-0.7,4.3-2,5.6c-1.4,1.3-3.4,2.1-6.2,2.3
		c-0.2,0-0.4-0.1-0.6-0.2s-0.3-0.3-0.3-0.6c0-0.2,0.1-0.4,0.2-0.6c0.1-0.2,0.3-0.3,0.6-0.3c2.2-0.2,3.9-0.8,4.9-1.8s1.5-2.5,1.5-4.4
		c0-2.7-0.9-4.1-2.7-4.1c-1,0-2,0.5-2.9,1.6c-0.9,1.1-1.4,2.5-1.7,4.3c0,0.3-0.2,0.5-0.3,0.6C490.2,435,490,435.1,489.7,435.1z"/>
	<path class="st1" d="M505,433.3c-0.2,0-0.4-0.1-0.6-0.2s-0.2-0.3-0.2-0.6c0-0.2,0.1-0.4,0.2-0.6s0.3-0.2,0.6-0.2h2.2
		c0.3,0,0.5,0.1,0.7,0.3c0.2,0.2,0.3,0.4,0.3,0.7v4.3c0,0.1,0,0.2,0.1,0.3c0.4,0.7,1.1,1.2,2,1.4s2.5,0.4,4.8,0.4h4.2
		c0.2,0,0.4,0.1,0.5,0.2c0.2,0.2,0.2,0.3,0.2,0.6c0,0.2-0.1,0.4-0.3,0.6s-0.4,0.2-0.6,0.2h-4.2c-2.2,0-3.8-0.1-4.9-0.4
		s-2-0.7-2.5-1.3c-0.1-0.1-0.2-0.1-0.2,0c-0.6,0.6-1.2,1.1-1.8,1.5c-0.2,0.1-0.4,0.2-0.6,0.1c-0.2-0.1-0.4-0.2-0.5-0.4
		c-0.1-0.2-0.2-0.4-0.1-0.7c0.1-0.2,0.2-0.4,0.4-0.6c0.6-0.4,1.1-0.8,1.6-1.3c0.1,0,0.1-0.1,0.1-0.2v-4c0-0.1,0-0.2-0.1-0.2H505z
		 M505.1,426.1c0.2-0.2,0.4-0.2,0.6-0.2s0.4,0.1,0.6,0.3c0.6,0.6,1.2,1.2,1.8,2c0.2,0.2,0.2,0.4,0.2,0.6c0,0.2-0.1,0.4-0.3,0.6
		s-0.4,0.2-0.6,0.2c-0.2,0-0.4-0.1-0.6-0.3c-0.8-0.9-1.4-1.5-1.8-1.9c-0.2-0.2-0.2-0.4-0.2-0.6C504.8,426.4,504.9,426.2,505.1,426.1
		z M509.5,436c1.4-1,2.5-2.3,3.3-3.7c0.8-1.5,1.2-3,1.2-4.5v-0.2c0-0.1,0-0.2-0.1-0.2h-2.6c-0.2,0-0.4-0.1-0.6-0.2
		c-0.2-0.2-0.2-0.4-0.2-0.6s0.1-0.4,0.2-0.6s0.4-0.2,0.6-0.2h3.6c0.3,0,0.5,0.1,0.7,0.3c0.2,0.2,0.3,0.4,0.3,0.7v0.5
		c0,2,0.3,3.7,0.9,5.2c0.6,1.5,1.4,2.7,2.5,3.6c0.2,0.2,0.3,0.4,0.3,0.6s0,0.5-0.2,0.7c-0.1,0.2-0.3,0.3-0.6,0.4
		c-0.2,0-0.5,0-0.7-0.2c-1.5-1.2-2.6-3-3.3-5.4c0-0.1-0.1-0.1-0.1,0c-0.5,1.1-1.1,2.1-1.8,3.1c-0.7,0.9-1.5,1.7-2.4,2.4
		c-0.2,0.2-0.4,0.2-0.7,0.2s-0.5-0.2-0.6-0.4c-0.1-0.2-0.2-0.4-0.2-0.7S509.3,436.2,509.5,436z"/>
	<path class="st1" d="M525.6,439.7c-0.8,0-1.5-0.4-2.2-1.2c-0.7-0.8-1-1.7-1-2.7c0-1,0.5-1.9,1.5-2.6s2.4-1.2,4.1-1.4
		c0.1,0,0.2-0.1,0.2-0.2c0.2-0.8,0.3-2,0.6-3.7c0-0.1,0-0.1-0.1-0.1c-1.5,0.1-2.8,0.2-4,0.3c-0.2,0-0.4-0.1-0.6-0.2
		c-0.2-0.2-0.3-0.3-0.3-0.6c0-0.2,0.1-0.4,0.2-0.6c0.2-0.2,0.4-0.2,0.6-0.3c2.5-0.1,4.2-0.2,5.2-0.3c0.2,0,0.4,0.1,0.6,0.2
		c0.2,0.1,0.3,0.3,0.3,0.5c0,0.5,0,1,0,1.6c-0.1,0.9-0.3,1.9-0.5,3.2c0,0.1,0,0.1,0.1,0.1c1.1,0.1,2.2,0.2,3.2,0.4
		c0.1,0,0.2,0,0.2-0.1c0.1-1.1,0.1-2.3,0.1-3.6c0-0.3,0.1-0.5,0.3-0.6c0.2-0.2,0.4-0.3,0.6-0.3s0.5,0.1,0.6,0.3s0.3,0.4,0.3,0.6
		c0,1.5-0.1,2.8-0.2,4.1c0,0.1,0,0.2,0.1,0.2c0.5,0.2,1.2,0.5,2,0.8c0.2,0.1,0.3,0.3,0.4,0.5c0.1,0.2,0.1,0.4-0.1,0.6
		c-0.1,0.2-0.3,0.3-0.5,0.4c-0.2,0.1-0.4,0.1-0.6,0c-0.5-0.3-1-0.5-1.4-0.6c-0.1,0-0.1,0-0.2,0.1c-0.3,1.4-0.7,2.5-1.2,3.3
		s-1.3,1.5-2.2,2.1c-0.2,0.1-0.4,0.2-0.7,0.1c-0.2,0-0.4-0.2-0.5-0.4c-0.1-0.2-0.2-0.4-0.1-0.6c0-0.2,0.2-0.4,0.4-0.5
		c0.8-0.5,1.3-1.1,1.8-1.8s0.7-1.6,0.9-2.8c0-0.1,0-0.2-0.1-0.2c-1.2-0.3-2.3-0.5-3.4-0.5c-0.1,0-0.2,0-0.2,0.1
		c-0.3,1.2-0.6,2.3-0.9,3.1c-0.3,0.8-0.6,1.5-1,1.9c-0.3,0.4-0.7,0.7-1.1,0.9C526.4,439.6,526,439.7,525.6,439.7z M527.6,433.5
		c-1.1,0.2-2,0.5-2.6,0.9c-0.6,0.4-0.9,0.9-0.9,1.4s0.2,1,0.5,1.4s0.7,0.7,1,0.7c0.8,0,1.5-1.4,2.1-4.3
		C527.8,433.6,527.7,433.6,527.6,433.5C527.7,433.5,527.6,433.5,527.6,433.5z"/>
	<path class="st1" d="M541.8,430.8c-0.2,0-0.4,0-0.6-0.2c-0.2-0.1-0.3-0.3-0.3-0.6c0-0.2,0.1-0.4,0.2-0.6c0.1-0.2,0.3-0.3,0.6-0.3
		c1.4-0.1,2.2-0.2,2.5-0.2c0.1,0,0.1,0,0.2-0.1c0.2-1,0.4-2,0.5-2.8c0-0.3,0.1-0.5,0.3-0.6c0.2-0.2,0.4-0.2,0.7-0.2
		c0.2,0,0.4,0.1,0.6,0.3c0.2,0.2,0.2,0.4,0.2,0.6c-0.1,0.9-0.3,1.8-0.4,2.5c0,0.1,0,0.2,0.1,0.2c0.6,0,0.9,0,1.1,0c0.6,0,1,0,1.3,0
		s0.6,0.1,0.9,0.2c0.3,0.1,0.5,0.2,0.6,0.4s0.3,0.4,0.4,0.7c0.1,0.3,0.2,0.7,0.2,1.1s0,0.9,0,1.6c0,2.4-0.4,4.2-1.1,5.5
		c-0.7,1.3-1.6,1.9-2.6,1.9c-0.6,0-1.4-0.3-2.3-0.8c-0.2-0.1-0.4-0.3-0.4-0.6c-0.1-0.2,0-0.5,0.1-0.7c0.1-0.2,0.3-0.3,0.5-0.4
		s0.5,0,0.6,0.1c0.7,0.4,1.2,0.6,1.4,0.6c0.2,0,0.5-0.1,0.7-0.4s0.4-0.6,0.6-1.1c0.2-0.5,0.3-1.1,0.5-1.9c0.1-0.8,0.2-1.7,0.2-2.6
		c0-0.9-0.1-1.5-0.3-1.7c-0.2-0.2-0.7-0.3-1.4-0.3c-0.3,0-0.8,0-1.4,0.1c-0.1,0-0.2,0-0.2,0.1c-0.7,2.9-1.7,5.9-3.2,8.9
		c-0.1,0.2-0.3,0.4-0.5,0.5c-0.2,0.1-0.5,0.1-0.7,0c-0.2-0.1-0.4-0.2-0.5-0.5c-0.1-0.2-0.1-0.4,0-0.7c1.3-2.7,2.3-5.4,2.9-8.1
		c0-0.1,0-0.1-0.1-0.1C543.6,430.6,543,430.7,541.8,430.8z M552.7,428.9c-0.2,0.1-0.4,0.1-0.6,0c-0.2-0.1-0.4-0.2-0.5-0.4
		c-0.1-0.2-0.2-0.4-0.4-0.7c-0.2-0.3-0.3-0.6-0.4-0.7c-0.1-0.2-0.1-0.4-0.1-0.6c0.1-0.2,0.2-0.4,0.4-0.5c0.2-0.1,0.4-0.1,0.6-0.1
		c0.2,0.1,0.4,0.2,0.5,0.4c0.2,0.3,0.5,0.8,0.8,1.5c0.1,0.2,0.1,0.4,0.1,0.6C553.1,428.7,552.9,428.8,552.7,428.9z M554.3,430.9
		c0.8,1.9,1.5,3.5,2,4.9c0.1,0.2,0.1,0.5,0,0.7c-0.1,0.2-0.3,0.4-0.5,0.5c-0.2,0.1-0.5,0.1-0.7,0c-0.2-0.1-0.4-0.3-0.5-0.5
		c-0.6-1.7-1.3-3.3-1.9-4.8c-0.1-0.2-0.1-0.5,0-0.7s0.2-0.4,0.5-0.5c0.2-0.1,0.5-0.1,0.7,0S554.2,430.6,554.3,430.9z M555.9,427.8
		c-0.1,0.2-0.2,0.4-0.4,0.5c-0.2,0.1-0.4,0.1-0.6,0c-0.2-0.1-0.4-0.2-0.5-0.4c-0.1-0.2-0.2-0.4-0.4-0.7s-0.3-0.6-0.4-0.7
		c-0.1-0.2-0.1-0.4-0.1-0.6c0.1-0.2,0.2-0.4,0.4-0.5s0.4-0.1,0.6-0.1c0.2,0.1,0.4,0.2,0.5,0.4c0.2,0.3,0.5,0.8,0.8,1.5
		C555.9,427.4,555.9,427.6,555.9,427.8z"/>
	<path class="st1" d="M559.4,429.4c-0.3,0-0.5-0.1-0.6-0.2s-0.3-0.4-0.3-0.6s0.1-0.5,0.3-0.6c0.2-0.2,0.4-0.3,0.6-0.3
		c4-0.1,8.2-0.4,12.4-0.9c0.2,0,0.4,0,0.6,0.2c0.2,0.1,0.3,0.3,0.3,0.6s0,0.5-0.2,0.6c-0.2,0.2-0.3,0.3-0.6,0.3
		c-2.3,0.4-4,1.1-5.3,2.1c-1.2,1-1.8,2.1-1.8,3.5c0,1.2,0.4,2.2,1.3,2.9s2,1.2,3.6,1.5c0.3,0,0.5,0.1,0.6,0.3
		c0.2,0.2,0.2,0.4,0.2,0.6c0,0.2-0.1,0.4-0.3,0.6c-0.2,0.2-0.4,0.2-0.6,0.2c-2.1-0.2-3.8-0.9-4.9-1.9c-1.2-1-1.8-2.4-1.8-3.9
		c0-1.1,0.3-2.1,1-3.1s1.5-1.7,2.7-2.3c0,0,0,0,0,0c0,0,0,0,0,0C564.1,429.1,561.7,429.3,559.4,429.4z M569.3,430.9
		c0.2-0.1,0.4-0.1,0.6-0.1c0.2,0.1,0.4,0.2,0.5,0.4c0.2,0.3,0.4,0.8,0.8,1.5c0.1,0.2,0.1,0.4,0.1,0.6c-0.1,0.2-0.2,0.4-0.4,0.4
		c-0.2,0.1-0.4,0.1-0.6,0c-0.2-0.1-0.4-0.2-0.5-0.4c-0.1-0.2-0.2-0.4-0.4-0.7s-0.3-0.6-0.4-0.7c-0.1-0.2-0.1-0.4-0.1-0.6
		C569,431.1,569.1,431,569.3,430.9z M573.2,430.6c0.2,0.3,0.5,0.8,0.8,1.5c0.1,0.2,0.1,0.4,0.1,0.6c-0.1,0.2-0.2,0.4-0.4,0.5
		c-0.2,0.1-0.4,0.1-0.6,0s-0.4-0.2-0.5-0.4c-0.1-0.2-0.2-0.4-0.4-0.7c-0.2-0.3-0.3-0.6-0.4-0.7c-0.1-0.2-0.1-0.4-0.1-0.6
		c0.1-0.2,0.2-0.4,0.4-0.5c0.2-0.1,0.4-0.1,0.6-0.1S573,430.4,573.2,430.6z"/>
	<path class="st1" d="M577.8,432.7c-0.2,0-0.4-0.1-0.5-0.2c-0.2-0.1-0.2-0.3-0.2-0.5c0-0.2,0.1-0.4,0.2-0.5c0.1-0.2,0.3-0.2,0.5-0.2
		c2.3,0,4.6-0.2,6.9-0.4c0,0,0.1,0,0.1-0.1c0,0,0-0.1,0-0.1c-0.2-0.6-0.4-1.1-0.5-1.5c0-0.1-0.1-0.1-0.2-0.1c-1.7,0.2-3.4,0.2-5,0.3
		c-0.2,0-0.4-0.1-0.5-0.2c-0.2-0.1-0.2-0.3-0.2-0.5c0-0.2,0.1-0.4,0.2-0.5c0.2-0.1,0.3-0.2,0.5-0.2c1.4,0,3-0.1,4.6-0.3
		c0.1,0,0.1,0,0.1-0.1c-0.1-0.3-0.2-0.7-0.3-1.3c0-0.2,0-0.5,0.2-0.6c0.2-0.2,0.4-0.3,0.6-0.3c0.3,0,0.5,0.1,0.7,0.2
		c0.2,0.2,0.3,0.4,0.4,0.6c0.1,0.5,0.2,0.9,0.2,1.1c0,0.1,0.1,0.2,0.2,0.1c1.1-0.1,2.1-0.3,3.2-0.5c0.2,0,0.4,0,0.5,0.1
		c0.2,0.1,0.3,0.3,0.3,0.5c0,0.2,0,0.4-0.2,0.6s-0.3,0.3-0.5,0.3c-0.9,0.2-1.9,0.3-3,0.4c-0.1,0-0.1,0.1-0.1,0.2
		c0.2,0.6,0.4,1.1,0.5,1.5c0,0.1,0.1,0.1,0.2,0.1c1-0.1,2.2-0.3,3.5-0.5c0.2,0,0.4,0,0.6,0.1s0.3,0.3,0.3,0.5c0,0.2,0,0.4-0.2,0.6
		s-0.3,0.3-0.5,0.3c-0.9,0.2-2,0.3-3,0.4c0,0-0.1,0-0.1,0.1c0,0,0,0.1,0,0.1c0.4,0.8,0.9,1.6,1.5,2.5c0.1,0.2,0.2,0.5,0.1,0.7
		c-0.1,0.3-0.2,0.4-0.5,0.6l-0.1,0c-0.6,0.3-1.2,0.3-1.8,0c-1.2-0.5-2.2-0.8-3.3-0.8c-1.7,0-2.6,0.5-2.6,1.6c0,1.4,1.4,2.1,4.1,2.1
		c0.8,0,1.9-0.1,3.1-0.3c0.2,0,0.4,0,0.6,0.2c0.2,0.1,0.3,0.3,0.3,0.5c0,0.2,0,0.4-0.2,0.6s-0.3,0.3-0.5,0.3
		c-1.1,0.2-2.2,0.2-3.3,0.2c-2,0-3.5-0.3-4.5-0.9s-1.5-1.5-1.5-2.7c0-0.9,0.4-1.7,1.1-2.3c0.7-0.6,1.9-0.9,3.4-0.9
		c1.2,0,2.3,0.3,3.3,0.8h0v-0.1c-0.5-0.8-0.9-1.5-1.2-2.1c0-0.1-0.1-0.1-0.2-0.1C582.6,432.5,580.1,432.7,577.8,432.7z"/>
	<path class="st1" d="M596.1,429.3c-0.2,0-0.4-0.1-0.5-0.2c-0.1-0.2-0.2-0.3-0.2-0.5c0-0.2,0.1-0.4,0.2-0.5c0.2-0.1,0.3-0.2,0.5-0.2
		c2.1,0,4-0.1,5.9-0.2c0.1,0,0.1-0.1,0.1-0.2c0-0.6,0-1,0.1-1.3c0-0.3,0.1-0.5,0.3-0.7c0.2-0.2,0.4-0.3,0.7-0.3
		c0.3,0,0.5,0.1,0.6,0.3c0.2,0.2,0.2,0.4,0.2,0.7l-0.1,1.1c0,0.1,0.1,0.1,0.2,0.1c1-0.1,2.3-0.2,3.9-0.3c0.2,0,0.4,0,0.5,0.2
		c0.2,0.1,0.2,0.3,0.3,0.5c0,0.2-0.1,0.4-0.2,0.6c-0.1,0.2-0.3,0.3-0.5,0.3c-1.7,0.2-3,0.3-4.1,0.3c-0.1,0-0.1,0.1-0.1,0.2
		c0,0.7,0,1.2,0,1.6c0,0.1,0.1,0.1,0.2,0.1c1.1-0.1,2.2-0.2,3.2-0.3c0.2,0,0.4,0,0.5,0.2c0.2,0.1,0.3,0.3,0.3,0.5
		c0,0.2,0,0.4-0.2,0.6c-0.1,0.2-0.3,0.3-0.5,0.3c-1.1,0.1-2.2,0.2-3.3,0.3c-0.1,0-0.2,0-0.2,0.1c0,0,0,0.1,0,0.2s0,0.2,0,0.2
		c0,0.3,0,0.7,0,1.2c0,0.5,0,0.9,0,1.2c0,0.1,0,0.2,0.1,0.2c1,0.5,2.2,1.3,3.7,2.4c0.2,0.1,0.3,0.3,0.3,0.5c0,0.2,0,0.4-0.2,0.6
		c-0.1,0.2-0.3,0.3-0.6,0.3c-0.2,0-0.4,0-0.6-0.2c-1-0.7-1.9-1.3-2.7-1.8c-0.1-0.1-0.1,0-0.2,0.1c-0.1,1-0.5,1.7-1.1,2.2
		s-1.6,0.7-2.8,0.7c-1.2,0-2.2-0.3-2.9-0.8c-0.7-0.5-1-1.3-1-2.3c0-0.9,0.3-1.6,1-2.1c0.7-0.5,1.6-0.8,2.8-0.8c0.6,0,1.3,0.1,2,0.3
		c0,0,0.1,0,0.1,0c0,0,0-0.1,0-0.1c0-0.2,0-0.4,0-0.8c0-0.3,0-0.6,0-0.8c0,0,0-0.1,0-0.1s0-0.1,0-0.1c0-0.1-0.1-0.2-0.2-0.2
		c-1.4,0.1-3.1,0.1-5.2,0.2c-0.2,0-0.4-0.1-0.5-0.2c-0.2-0.1-0.2-0.3-0.2-0.5c0-0.2,0.1-0.4,0.2-0.6c0.1-0.1,0.3-0.2,0.5-0.2
		c2.1,0,3.8-0.1,5.1-0.2c0.1,0,0.2-0.1,0.2-0.2c0-0.4,0-0.9,0-1.6c0-0.1,0-0.1-0.1-0.1C600.1,429.2,598.2,429.3,596.1,429.3z
		 M600.2,438.7c0.8,0,1.3-0.2,1.6-0.5c0.3-0.3,0.4-0.9,0.4-1.7c0-0.1,0-0.2-0.1-0.2c-0.7-0.3-1.3-0.4-1.9-0.4
		c-1.4,0-2.1,0.4-2.1,1.3C598.1,438.3,598.8,438.7,600.2,438.7z"/>
	<path class="st1" d="M613.2,429.1c-0.2,0-0.4-0.1-0.6-0.2s-0.2-0.3-0.2-0.6c0-0.2,0.1-0.4,0.2-0.6c0.1-0.2,0.3-0.2,0.5-0.2
		c2.8,0,5.3-0.1,7.7-0.2c0.1,0,0.1-0.1,0.1-0.2c0-0.6,0-1,0-1.3c0-0.3,0.1-0.5,0.3-0.6s0.4-0.3,0.6-0.3c0.2,0,0.5,0.1,0.6,0.3
		c0.2,0.2,0.3,0.4,0.3,0.6c0,0.3,0,0.7,0,1.2c0,0.1,0,0.1,0.1,0.1c1.2-0.1,2.5-0.1,4-0.3c0.2,0,0.4,0.1,0.6,0.2s0.3,0.3,0.3,0.5
		c0,0.2-0.1,0.4-0.2,0.6s-0.3,0.3-0.5,0.3c-1.5,0.1-2.8,0.2-4,0.3c-0.1,0-0.1,0.1-0.1,0.2c0.1,1.7,0.1,2.8,0.1,3
		c0,0.1,0,0.2,0.1,0.3c0.3,0.7,0.5,1.6,0.5,2.6c0,3.2-1.9,5.1-5.7,5.7c-0.3,0-0.5,0-0.7-0.2s-0.3-0.4-0.4-0.6c0-0.2,0-0.5,0.1-0.6
		c0.1-0.2,0.3-0.3,0.6-0.3c2.2-0.3,3.6-1.1,4-2.3c0,0,0.1-0.2,0.2-0.6c0,0,0,0,0,0h0c-0.6,0.6-1.3,0.9-2.4,0.9c-1,0-1.9-0.3-2.5-1
		s-1-1.5-1-2.5c0-1,0.3-1.8,1-2.4c0.7-0.6,1.5-1,2.5-1c0.7,0,1.3,0.2,1.9,0.4h0l0,0c0,0,0,0,0,0c0-0.3,0-0.7-0.1-1.3
		c0-0.1-0.1-0.2-0.2-0.2C618.3,429,615.7,429.1,613.2,429.1z M618.1,434.7c0.4,0.4,0.8,0.6,1.3,0.6c0.5,0,1-0.2,1.3-0.6
		c0.4-0.4,0.6-0.8,0.6-1.3s-0.2-1-0.6-1.3c-0.4-0.4-0.8-0.6-1.3-0.6c-0.5,0-1,0.2-1.3,0.6c-0.4,0.4-0.6,0.8-0.6,1.3
		S617.8,434.3,618.1,434.7z"/>
	<path class="st1" d="M634.9,440.3c-0.6,0.6-1.2,0.8-2,0.8s-1.5-0.3-2-0.8c-0.6-0.6-0.8-1.2-0.8-2c0-0.8,0.3-1.5,0.8-2
		c0.6-0.6,1.2-0.8,2-0.8s1.5,0.3,2,0.8c0.6,0.6,0.8,1.2,0.8,2C635.8,439,635.5,439.7,634.9,440.3z M633.9,437.2
		c-0.3-0.3-0.6-0.4-1-0.4c-0.4,0-0.7,0.1-1,0.4s-0.4,0.6-0.4,1c0,0.4,0.1,0.7,0.4,1c0.3,0.3,0.6,0.4,1,0.4c0.4,0,0.7-0.1,1-0.4
		c0.3-0.3,0.4-0.6,0.4-1C634.4,437.8,634.2,437.5,633.9,437.2z"/>
</g>
<line class="st2" x1="0.4" y1="448.3" x2="639.6" y2="448.3"/>
</svg>
