<?xml version="1.0" encoding="utf-8"?>
<!-- Generator: Adobe Illustrator 19.0.0, SVG Export Plug-In . SVG Version: 6.00 Build 0)  -->
<svg version="1.1" id="レイヤー_1" xmlns="http://www.w3.org/2000/svg" xmlns:xlink="http://www.w3.org/1999/xlink" x="0px"
	 y="0px" viewBox="0 388.9 640 65" style="enable-background:new 0 388.9 640 65;" xml:space="preserve">
<style type="text/css">
	.st0{enable-background:new    ;}
	.st1{fill:#E99415;}
	.st2{clip-path:url(#SVGID_2_);fill:none;stroke:#E99415;stroke-width:3;stroke-miterlimit:10;}
</style>
<g class="st0">
	<path class="st1" d="M34.9,436.1c-0.5,0-0.9-0.1-1.3-0.5c-0.4-0.3-0.6-0.7-0.6-1.2c0-0.5,0.1-0.9,0.5-1.3c0.3-0.3,0.7-0.5,1.2-0.6
		c0.9,0,2.6-0.1,4.9-0.3c0.2,0,0.3-0.1,0.3-0.3v-0.9c0-0.2-0.1-0.3-0.3-0.3h-4.5c-0.4,0-0.8-0.2-1.1-0.5c-0.3-0.3-0.5-0.7-0.5-1.1
		s0.2-0.8,0.5-1.1c0.3-0.3,0.7-0.5,1.1-0.5h4.5c0.2,0,0.3-0.1,0.3-0.3v-0.7c0-0.2-0.1-0.3-0.3-0.3h-1.8h-1.9c-0.5,0-1-0.2-1.4-0.6
		c-0.4-0.4-0.6-0.8-0.6-1.4v-6.6c0-0.5,0.2-1,0.6-1.4c0.4-0.4,0.8-0.6,1.4-0.6h3.6c0.2,0,0.3-0.1,0.3-0.3v-0.7
		c0-0.2-0.1-0.3-0.3-0.3h-4.7c-0.4,0-0.8-0.2-1.1-0.5s-0.5-0.7-0.5-1.1c0-0.4,0.2-0.8,0.5-1.1c0.3-0.3,0.7-0.5,1.1-0.5h4.7
		c0.2,0,0.3-0.1,0.3-0.3v-0.8c0-0.2-0.1-0.3-0.3-0.3c-0.4,0-0.8,0-1.3,0.1s-0.9,0-1.5,0.1c-0.5,0-0.9,0-1.2,0.1
		c-0.5,0-0.9-0.1-1.2-0.4c-0.3-0.3-0.5-0.7-0.6-1.2c0-0.5,0.1-0.9,0.4-1.2s0.7-0.5,1.1-0.5c4.6-0.2,8.8-0.6,12.6-1.2
		c0.5-0.1,0.9,0,1.3,0.3c0.4,0.3,0.6,0.7,0.7,1.1c0.1,0.5,0,0.9-0.4,1.3c-0.3,0.4-0.7,0.6-1.2,0.7c-1.1,0.1-2.4,0.3-3.9,0.4
		c-0.2,0-0.3,0.1-0.3,0.3v1.2c0,0.2,0.1,0.3,0.3,0.3h4c0.7,0,1.2,0.3,1.5,1c0,0.2,0.1,0.2,0.3,0.1c0.4-0.2,0.7-0.3,1.1-0.3h1.2
		c0.2,0,0.3-0.1,0.3-0.3c0-1.9,0.1-3.5,0.1-4.6c0-0.5,0.2-1,0.6-1.4c0.4-0.4,0.8-0.6,1.4-0.6h0.1c0.5,0,1,0.2,1.4,0.6
		c0.4,0.4,0.6,0.8,0.6,1.4c0,0.2,0,1.8-0.1,4.6c0,0.2,0.1,0.3,0.3,0.3h5.1c0.5,0,1,0.2,1.4,0.6c0.4,0.4,0.6,0.8,0.6,1.4v0.8
		c0,3.5,0,6.3-0.1,8.5c0,2.2-0.1,4.1-0.3,5.8c-0.2,1.7-0.3,2.9-0.5,3.7c-0.2,0.8-0.4,1.5-0.8,1.9c-0.4,0.5-0.8,0.8-1.2,0.9
		c-0.4,0.1-1,0.1-1.7,0.1c-0.6,0-1.5-0.1-2.7-0.2c-0.6,0-1-0.3-1.4-0.7c-0.4-0.4-0.6-0.9-0.6-1.5v-0.2c0-0.5,0.2-0.9,0.5-1.3
		c0.4-0.3,0.8-0.5,1.3-0.4c0.7,0.1,1.2,0.1,1.5,0.1c0.4,0,0.7-0.3,0.8-0.8c0.2-0.5,0.3-1.8,0.5-3.9c0.1-2.1,0.2-5.1,0.2-9.2v-1.7
		c0-0.2-0.1-0.3-0.3-0.3h-2.5c-0.2,0-0.3,0.1-0.3,0.3c-0.3,4.5-0.7,8.2-1.4,11.1s-1.6,5.4-2.9,7.5c-0.3,0.4-0.6,0.7-1.2,0.8
		c-0.5,0.1-1,0-1.5-0.3l-0.1-0.1c-0.2-0.2-0.4-0.3-0.4-0.3c-0.1-0.2-0.3-0.2-0.5-0.1c-0.2,0.1-0.4,0.2-0.5,0.2
		C44.1,435.5,39.6,435.8,34.9,436.1z M37.8,418.8v0.9c0,0.2,0.1,0.3,0.3,0.3h1.6c0.2,0,0.3-0.1,0.3-0.3v-0.9c0-0.2-0.1-0.3-0.3-0.3
		h-1.6C37.9,418.5,37.8,418.6,37.8,418.8z M39.7,423.6c0.2,0,0.3-0.1,0.3-0.3v-0.9c0-0.2-0.1-0.3-0.3-0.3h-1.6
		c-0.2,0-0.3,0.1-0.3,0.3v0.9c0,0.2,0.1,0.3,0.3,0.3H39.7z M44.2,418.8v0.9c0,0.2,0.1,0.3,0.3,0.3H46c0.2,0,0.3-0.1,0.3-0.3v-0.9
		c0-0.2-0.1-0.3-0.3-0.3h-1.5C44.3,418.5,44.2,418.6,44.2,418.8z M44.2,422.4v0.9c0,0.2,0.1,0.3,0.3,0.3H46c0.2,0,0.3-0.1,0.3-0.3
		v-0.9c0-0.2-0.1-0.3-0.3-0.3h-1.5C44.3,422.1,44.2,422.2,44.2,422.4z M44.3,414.8v0.7c0,0.2,0.1,0.3,0.3,0.3h3.3
		c0.5,0,1,0.2,1.4,0.6c0.4,0.4,0.6,0.8,0.6,1.4v6.6c0,0.5-0.2,1-0.6,1.4c-0.4,0.4-0.8,0.6-1.4,0.6h-3.3c-0.2,0-0.3,0.1-0.3,0.3v0.7
		c0,0.2,0.1,0.3,0.3,0.3h3.5c0.4,0,0.8,0.2,1.1,0.5c0.3,0.3,0.5,0.7,0.5,1.1s-0.2,0.8-0.5,1.1c-0.3,0.3-0.7,0.5-1.1,0.5h-3.5
		c-0.2,0-0.3,0.1-0.3,0.3v0.6c0,0.2,0.1,0.3,0.3,0.3c1.6-0.1,2.8-0.2,3.6-0.3c0.3,0,0.6,0.1,0.9,0.2c0.2,0.1,0.3,0.1,0.4-0.1
		c1.8-3.4,2.8-8.6,3.3-15.6c0-0.2-0.1-0.3-0.3-0.3h-1.1c-0.4,0-0.8-0.1-1.2-0.4c-0.4-0.3-0.6-0.6-0.7-1c0-0.2-0.1-0.2-0.3-0.1
		c-0.2,0.1-0.5,0.2-0.7,0.2h-4C44.4,414.5,44.3,414.6,44.3,414.8z"/>
	<path class="st1" d="M70.3,410.1c-0.5,0-1-0.2-1.3-0.6c-0.4-0.4-0.6-0.8-0.6-1.3c0-0.5,0.2-1,0.6-1.3c0.4-0.4,0.8-0.6,1.3-0.6h26.9
		c0.5,0,1,0.2,1.3,0.6c0.4,0.4,0.6,0.8,0.6,1.3c0,0.5-0.2,1-0.6,1.3c-0.4,0.4-0.8,0.6-1.3,0.6h-11c-0.2,0-0.3,0.1-0.3,0.3v2
		c0,0.2,0.1,0.3,0.3,0.3h4.3c0.5,0,1,0.2,1.4,0.6c0.4,0.4,0.6,0.8,0.6,1.4v12.7c0,0.5-0.2,1-0.6,1.4c-0.4,0.4-0.8,0.6-1.4,0.6H78.9
		H77c-0.5,0-1-0.2-1.4-0.6c-0.4-0.4-0.6-0.8-0.6-1.4v-12.7c0-0.5,0.2-1,0.6-1.4c0.4-0.4,0.8-0.6,1.4-0.6h4.3c0.2,0,0.3-0.1,0.3-0.3
		v-2c0-0.2-0.1-0.3-0.3-0.3H70.3z M71.4,413.7c0.5,0,1,0.2,1.4,0.6c0.4,0.4,0.6,0.8,0.6,1.4v15c0,0.2,0.1,0.3,0.3,0.3h20.1
		c0.2,0,0.3-0.1,0.3-0.3v-15c0-0.5,0.2-1,0.6-1.4c0.4-0.4,0.8-0.6,1.4-0.6h0.3c0.5,0,1,0.2,1.4,0.6c0.4,0.4,0.6,0.8,0.6,1.4v18.5
		c0,0.5-0.2,1-0.6,1.4c-0.4,0.4-0.8,0.6-1.4,0.6h-0.9c-0.4,0-0.7-0.1-1-0.4c-0.3-0.3-0.4-0.6-0.4-1c0-0.1-0.1-0.2-0.2-0.2H73.6
		c-0.1,0-0.2,0.1-0.2,0.2c0,0.4-0.1,0.7-0.4,1s-0.6,0.4-1,0.4h-0.9c-0.5,0-1-0.2-1.4-0.6c-0.4-0.4-0.6-0.8-0.6-1.4v-18.5
		c0-0.5,0.2-1,0.6-1.4c0.4-0.4,0.8-0.6,1.4-0.6H71.4z M81.6,419.1v-2.8c0-0.2-0.1-0.3-0.3-0.3h-2.1c-0.2,0-0.3,0.1-0.3,0.3v2.8
		c0,0.2,0.1,0.3,0.3,0.3h2.1C81.5,419.4,81.6,419.3,81.6,419.1z M81.6,425.7v-3c0-0.2-0.1-0.3-0.3-0.3h-2.1c-0.2,0-0.3,0.1-0.3,0.3
		v3c0,0.2,0.1,0.3,0.3,0.3h2.1C81.5,426,81.6,425.9,81.6,425.7z M85.8,416.3v2.8c0,0.2,0.1,0.3,0.3,0.3h2.1c0.2,0,0.3-0.1,0.3-0.3
		v-2.8c0-0.2-0.1-0.3-0.3-0.3h-2.1C85.9,416,85.8,416.1,85.8,416.3z M85.8,422.6v3c0,0.2,0.1,0.3,0.3,0.3h2.1c0.2,0,0.3-0.1,0.3-0.3
		v-3c0-0.2-0.1-0.3-0.3-0.3h-2.1C85.9,422.3,85.8,422.4,85.8,422.6z"/>
	<path class="st1" d="M105.1,422.4c-0.5,0-1-0.2-1.4-0.6c-0.4-0.4-0.6-0.8-0.6-1.4v-0.7c0-0.5,0.2-1,0.6-1.4
		c0.4-0.4,0.8-0.6,1.4-0.6h27.2c0.5,0,1,0.2,1.4,0.6c0.4,0.4,0.6,0.8,0.6,1.4v0.7c0,0.5-0.2,1-0.6,1.4c-0.4,0.4-0.8,0.6-1.4,0.6
		H105.1z"/>
	<path class="st1" d="M138.9,435L138.9,435c-0.2-0.5-0.1-0.9,0.1-1.3c0.3-0.4,0.6-0.6,1.1-0.7c3.5-0.3,5.8-1.1,6.8-2.2
		c0.1-0.2,0.1-0.2-0.1-0.2H146h-2.6c-0.5,0-1-0.2-1.4-0.6c-0.4-0.4-0.6-0.8-0.6-1.4v-7.9c0-0.6,0.2-1.1,0.6-1.4c0,0,0.1-0.1,0-0.1
		c0,0-0.1-0.1-0.1-0.1h-0.8c-0.5,0-1-0.2-1.4-0.6c-0.4-0.4-0.6-0.8-0.6-1.4v-9.5c0-0.5,0.2-1,0.6-1.4c0.4-0.4,0.8-0.6,1.4-0.6h11.6
		c0.4,0,0.7,0.1,1,0.4c0.3,0.3,0.4,0.6,0.4,1c0,0.4-0.1,0.7-0.4,1c-0.3,0.3-0.6,0.4-1,0.4h-2.2c-0.2,0-0.3,0.1-0.3,0.3v0.4
		c0,0.2,0.1,0.3,0.3,0.3h0.5c0.5,0,1,0.2,1.4,0.6s0.6,0.8,0.6,1.4v1c0,0.5-0.2,1-0.6,1.4s-0.8,0.6-1.4,0.6h-0.5
		c-0.2,0-0.3,0.1-0.3,0.3v0.4c0,0.2,0.1,0.3,0.3,0.3h2.7c0.4,0,0.7,0.1,0.9,0.4c0.3,0.3,0.4,0.6,0.4,0.9c0,0.3-0.1,0.7-0.4,0.9
		c-0.3,0.3-0.6,0.4-0.9,0.4h-9.6c-0.1,0-0.2,0-0.2,0.1c0,0.1,0,0.2-0.1,0.4c0,0.1,0,0.2,0.1,0.2h20.7c0.5,0,1,0.2,1.4,0.6
		c0.4,0.4,0.6,0.8,0.6,1.4v8.3c0,0.2,0.1,0.3,0.3,0.3l0.6,0c0.5,0,1,0.3,1.3,0.7s0.5,0.9,0.5,1.5c0,0.5-0.1,1-0.1,1.3
		c0,0.4-0.1,0.7-0.2,1.1c-0.1,0.3-0.2,0.6-0.2,0.8c-0.1,0.2-0.2,0.4-0.4,0.6c-0.2,0.2-0.4,0.4-0.5,0.5c-0.1,0.1-0.4,0.2-0.7,0.3
		c-0.3,0.1-0.6,0.2-0.9,0.2s-0.6,0.1-1.2,0.1c-0.5,0-1,0.1-1.4,0.1c-0.4,0-1,0-1.7,0c-2.1,0-3.6-0.1-4.5-0.2
		c-0.9-0.1-1.4-0.4-1.7-0.7s-0.4-0.9-0.4-1.8v-3c0-0.2-0.1-0.3-0.3-0.3h-2.3c-0.2,0-0.3,0.1-0.4,0.3c-1.2,3.1-4.7,5.1-10.4,5.8
		c-0.6,0.1-1.1-0.1-1.6-0.4C139.5,436,139.1,435.6,138.9,435z M143.4,408.9v0.4c0,0.2,0.1,0.3,0.3,0.3h2.2c0.2,0,0.3-0.1,0.3-0.3
		v-0.4c0-0.2-0.1-0.3-0.3-0.3h-2.2C143.5,408.6,143.4,408.7,143.4,408.9z M143.4,411.8v0.4c0,0.2,0.1,0.3,0.3,0.3h4.8
		c0.2,0,0.3-0.1,0.3-0.3v-0.4c0-0.2-0.1-0.3-0.3-0.3h-4.8C143.5,411.5,143.4,411.6,143.4,411.8z M143.4,414.7v0.4
		c0,0.2,0.1,0.3,0.3,0.3h2.2c0.2,0,0.3-0.1,0.3-0.3v-0.4c0-0.2-0.1-0.3-0.3-0.3h-2.2C143.5,414.4,143.4,414.5,143.4,414.7z
		 M146,421.6v0.4c0,0.2,0.1,0.3,0.3,0.3h15c0.2,0,0.3-0.1,0.3-0.3v-0.4c0-0.2-0.1-0.3-0.3-0.3h-15C146.1,421.3,146,421.4,146,421.6z
		 M146,424.4v0.3c0,0.2,0.1,0.3,0.3,0.3h15c0.2,0,0.3-0.1,0.3-0.3v-0.3c0-0.2-0.1-0.3-0.3-0.3h-15C146.1,424.1,146,424.2,146,424.4z
		 M146.2,427.9h15c0.2,0,0.3-0.1,0.3-0.3v-0.3c0-0.2-0.1-0.3-0.3-0.3h-15c-0.2,0-0.3,0.1-0.3,0.3v0.3
		C146,427.8,146.1,427.9,146.2,427.9z M158.8,410.7c-0.2,0.3-0.7,1-1.4,2.1c-0.1,0.2-0.1,0.2,0.1,0.2h9.1c0.5,0,0.9,0.2,1.2,0.5
		c0.3,0.3,0.5,0.7,0.5,1.2c0,0.5-0.2,0.9-0.5,1.2c-0.3,0.3-0.7,0.5-1.2,0.5h-9.5c-0.4,0-0.7-0.1-1-0.4c-0.3-0.3-0.4-0.6-0.4-1
		c0-0.2-0.1-0.3-0.2-0.3l-1.5-1.1c-0.4-0.3-0.7-0.7-0.7-1.2c-0.1-0.5,0.1-1,0.4-1.4c1.1-1.4,2.1-3,2.8-4.7c0.2-0.5,0.6-1,1.1-1.2
		c0.5-0.3,1-0.4,1.6-0.4l0.4,0.1c0.5,0,0.8,0.3,1.1,0.6c0.3,0.4,0.3,0.8,0.1,1.2c0,0.2,0,0.2,0.2,0.2h6.4c0.5,0,0.9,0.2,1.3,0.5
		c0.4,0.3,0.5,0.8,0.5,1.3s-0.2,0.9-0.5,1.3c-0.4,0.4-0.8,0.5-1.3,0.5h-8C159,410.4,158.9,410.5,158.8,410.7z M164.2,430.6h-4.4
		c-0.2,0-0.3,0.1-0.3,0.3v1.3c0,0.5,0.1,0.7,0.3,0.8c0.2,0.1,0.9,0.1,2.2,0.1c1.1,0,1.7-0.1,2-0.3c0.3-0.2,0.4-0.9,0.5-1.9
		C164.5,430.7,164.4,430.6,164.2,430.6z"/>
</g>
<g class="st0">
	<path class="st1" d="M189,433.1c-0.2,0-0.3-0.1-0.4-0.2c-0.1-0.1-0.2-0.3-0.2-0.4c0-0.2,0.1-0.3,0.2-0.4c0.1-0.1,0.3-0.2,0.4-0.2
		h4.9c0.1,0,0.1,0,0.1-0.1v-0.2c0-0.2,0.1-0.4,0.2-0.5s0.3-0.2,0.5-0.2c0,0,0,0,0,0c0,0,0,0,0,0c0.1,0,0.1,0,0.2-0.1l0.1-0.1
		c0.5-0.4,0.9-0.7,1.2-1c0,0,0-0.1,0-0.1h-4.8c-0.2,0-0.3-0.1-0.4-0.2c-0.1-0.1-0.2-0.3-0.2-0.4s0.1-0.3,0.2-0.4
		c0.1-0.1,0.3-0.2,0.4-0.2h6.2c0.2,0,0.3,0.1,0.4,0.2c0.1,0.1,0.2,0.3,0.2,0.4c0,0.4-0.1,0.8-0.4,1.1c-0.5,0.6-1.2,1.1-1.9,1.7
		c-0.1,0.1-0.2,0.1-0.3,0.1c0,0-0.1,0-0.1,0c0,0,0,0,0,0l0,0c0,0,0,0,0,0h4.5c0.2,0,0.3,0.1,0.4,0.2c0.1,0.1,0.2,0.3,0.2,0.4
		c0,0.2-0.1,0.3-0.2,0.4c-0.1,0.1-0.3,0.2-0.4,0.2h-4.5c-0.1,0-0.1,0-0.1,0.1v1.9c0,0.7-0.1,1.2-0.3,1.3c-0.2,0.2-0.7,0.3-1.6,0.3
		c-0.3,0-0.8,0-1.6,0c-0.2,0-0.3-0.1-0.5-0.2c-0.1-0.1-0.2-0.3-0.2-0.5c0-0.2,0-0.3,0.2-0.4c0.1-0.1,0.3-0.2,0.4-0.2
		c0.7,0,1.2,0,1.5,0c0.3,0,0.4,0,0.5-0.1c0,0,0.1-0.2,0.1-0.5v-1.7c0-0.1,0-0.1-0.1-0.1H189z M200.2,429.3c-0.1,0.1-0.3,0.2-0.5,0.2
		c-0.2,0-0.4-0.1-0.5-0.2c-0.1-0.1-0.2-0.3-0.2-0.5v-1.4c0-0.1,0-0.1-0.1-0.1h-8.5c-0.1,0-0.1,0-0.1,0.1v1.4c0,0.2-0.1,0.4-0.2,0.5
		c-0.1,0.1-0.3,0.2-0.5,0.2c-0.2,0-0.4-0.1-0.5-0.2c-0.1-0.1-0.2-0.3-0.2-0.5v-1.9c0-0.2,0.1-0.4,0.2-0.5c0.2-0.1,0.3-0.2,0.6-0.2h1
		c0,0,0,0,0.1,0c0,0,0-0.1,0-0.1c-0.1-0.2-0.2-0.4-0.3-0.5c-0.1-0.2-0.1-0.3,0-0.5c0.1-0.2,0.2-0.3,0.3-0.4c0.2-0.1,0.4-0.1,0.6,0
		s0.3,0.2,0.4,0.3c0.2,0.3,0.3,0.6,0.6,1c0,0.1,0.1,0.1,0.2,0.1h1.5c0,0,0,0,0.1,0c0,0,0,0,0-0.1c-0.1-0.3-0.3-0.5-0.4-0.7
		c-0.1-0.2-0.1-0.3,0-0.5c0.1-0.2,0.2-0.3,0.3-0.4c0.2-0.1,0.4-0.1,0.6,0c0.2,0.1,0.3,0.2,0.4,0.3c0.3,0.6,0.5,1,0.6,1.2
		c0,0.1,0.1,0.1,0.2,0.1h1.3c0.1,0,0.1,0,0.2-0.1c0.2-0.3,0.4-0.7,0.6-1.1c0.1-0.2,0.2-0.3,0.4-0.4c0.2-0.1,0.4-0.1,0.6,0
		c0.2,0,0.3,0.2,0.4,0.3s0.1,0.3,0,0.5c0,0.1-0.1,0.2-0.2,0.4c-0.1,0.2-0.2,0.3-0.2,0.3c0,0,0,0,0,0.1c0,0,0,0,0.1,0h1
		c0.2,0,0.4,0.1,0.6,0.2c0.2,0.1,0.2,0.3,0.2,0.5v1.9C200.4,429,200.3,429.2,200.2,429.3z"/>
	<path class="st1" d="M202.9,430.4c-0.2,0-0.3-0.1-0.4-0.2c-0.1-0.1-0.2-0.3-0.2-0.4s0.1-0.3,0.2-0.4c0.1-0.1,0.3-0.2,0.4-0.2h0.8
		c0.1,0,0.1,0,0.1-0.1c-0.2-0.8-0.4-1.6-0.6-2.3c0-0.1-0.1-0.1-0.1-0.1h-0.1c-0.2,0-0.3-0.1-0.4-0.2c-0.1-0.1-0.2-0.3-0.2-0.4
		s0.1-0.3,0.2-0.4c0.1-0.1,0.3-0.2,0.4-0.2h2c0.1,0,0.1,0,0.1-0.1V425c0-0.2,0.1-0.4,0.2-0.5c0.1-0.1,0.3-0.2,0.5-0.2
		c0.2,0,0.4,0.1,0.5,0.2c0.1,0.1,0.2,0.3,0.2,0.5v0.4c0,0.1,0,0.1,0.1,0.1h2.1c0.2,0,0.3,0.1,0.4,0.2c0.1,0.1,0.2,0.3,0.2,0.4
		s-0.1,0.3-0.2,0.4c-0.1,0.1-0.3,0.2-0.4,0.2h-0.1c-0.1,0-0.1,0-0.1,0.1c-0.2,0.9-0.4,1.7-0.6,2.3c0,0.1,0,0.1,0.1,0.1h0.8
		c0.2,0,0.3,0.1,0.4,0.2s0.2,0.3,0.2,0.4s-0.1,0.3-0.2,0.4s-0.3,0.2-0.4,0.2H202.9z M203.8,431.4h4.4c0.2,0,0.4,0.1,0.5,0.2
		s0.2,0.3,0.2,0.5v3.9c0,0.2-0.1,0.4-0.2,0.5c-0.1,0.1-0.3,0.2-0.5,0.2H208c-0.1,0-0.2,0-0.3-0.1c-0.1-0.1-0.1-0.2-0.1-0.3
		c0,0,0-0.1-0.1-0.1h-2.9c0,0-0.1,0-0.1,0.1c0,0.1,0,0.2-0.1,0.3c-0.1,0.1-0.2,0.1-0.3,0.1h-0.2c-0.2,0-0.4-0.1-0.5-0.2
		c-0.1-0.1-0.2-0.3-0.2-0.5v-3.9c0-0.2,0.1-0.4,0.2-0.5C203.4,431.5,203.6,431.4,203.8,431.4z M207.5,434.9v-2.2
		c0-0.1,0-0.1-0.1-0.1h-2.9c-0.1,0-0.1,0-0.1,0.1v2.2c0,0.1,0,0.1,0.1,0.1h2.9C207.5,435.1,207.5,435,207.5,434.9z M204.7,426.7
		c-0.1,0-0.1,0-0.1,0.1c0.2,0.7,0.4,1.5,0.6,2.3c0,0.1,0.1,0.1,0.2,0.1h1.2c0.1,0,0.1,0,0.2-0.1c0.2-0.6,0.4-1.4,0.6-2.3
		c0-0.1,0-0.1-0.1-0.1H204.7z M211.2,436.6c-0.1,0.1-0.3,0.2-0.5,0.2c-0.2,0-0.4-0.1-0.5-0.2c-0.1-0.1-0.2-0.3-0.2-0.5v-10.5
		c0-0.2,0.1-0.4,0.2-0.5c0.2-0.1,0.3-0.2,0.6-0.2h3.6c0.2,0,0.3,0.1,0.4,0.2c0.1,0.1,0.2,0.2,0.2,0.4c0,0.4-0.1,0.8-0.2,1.1
		c-0.4,1.1-0.8,2-1.3,3c0,0.1,0,0.1,0,0.2c0.5,0.4,0.9,1,1.2,1.5s0.4,1.2,0.4,1.8c0,0.8-0.2,1.4-0.5,1.7c-0.4,0.4-0.9,0.5-1.6,0.5
		h-0.2c-0.2,0-0.4-0.1-0.5-0.2c-0.1-0.1-0.2-0.3-0.3-0.5c0-0.2,0-0.3,0.1-0.4c0.1-0.1,0.2-0.2,0.4-0.2c0.5,0,0.8-0.1,1-0.2
		s0.2-0.4,0.2-0.8c0-0.9-0.4-1.9-1.3-2.8c-0.3-0.4-0.4-0.8-0.2-1.2c0.5-0.9,0.9-1.8,1.3-2.9c0-0.1,0-0.1-0.1-0.1h-1.8
		c-0.1,0-0.1,0-0.1,0.1v10C211.4,436.3,211.3,436.4,211.2,436.6z"/>
	<path class="st1" d="M218.6,431c-0.1,0.1-0.3,0.2-0.5,0.2c-0.2,0-0.3-0.1-0.5-0.2c-0.1-0.1-0.2-0.3-0.2-0.4s0.1-0.3,0.2-0.5
		c1.3-1.4,2.1-3,2.4-4.7c0-0.2,0.1-0.3,0.3-0.5c0.1-0.1,0.3-0.2,0.5-0.2c0.2,0,0.3,0.1,0.4,0.2c0.1,0.1,0.2,0.3,0.1,0.5
		c0,0-0.1,0.3-0.1,0.6c0,0.1,0,0.1,0.1,0.1h5c0.2,0,0.4,0.1,0.6,0.2c0.2,0.2,0.2,0.3,0.2,0.6v0.4c-0.3,2.6-1,4.6-2.4,6
		c-1.3,1.4-3.3,2.3-5.9,2.7c-0.2,0-0.4,0-0.5-0.1c-0.2-0.1-0.2-0.3-0.3-0.4c0-0.2,0-0.3,0.1-0.5s0.2-0.2,0.4-0.3
		c2.4-0.4,4.1-1.2,5.2-2.5c0-0.1,0-0.1,0-0.2c-0.9-0.6-1.9-1.2-3-1.8c-0.1-0.1-0.2-0.2-0.3-0.4c0-0.2,0-0.3,0.1-0.5s0.2-0.2,0.4-0.3
		s0.3,0,0.5,0.1c1.1,0.6,2.1,1.3,3,1.9c0.1,0,0.1,0,0.1,0c0.5-1,0.8-2.1,1-3.5c0-0.1,0-0.1-0.1-0.1h-4.6h0c0,0,0,0,0,0
		c-0.1,0-0.2,0-0.2,0.1C220.4,428.7,219.7,429.9,218.6,431z"/>
	<path class="st1" d="M232.9,434.5c2.1-0.5,3.7-1.3,4.8-2.5s1.8-2.7,2-4.7c0-0.1,0-0.1-0.1-0.1h-7.8c-0.2,0-0.3-0.1-0.5-0.2
		c-0.1-0.1-0.2-0.3-0.2-0.5c0-0.2,0.1-0.3,0.2-0.5s0.3-0.2,0.5-0.2h7.8c0,0,0.1,0,0.1,0c0,0,0-0.1,0-0.1c0-0.1-0.1-0.2-0.2-0.4
		c-0.1-0.2-0.2-0.3-0.2-0.4c-0.1-0.1-0.1-0.3,0-0.4c0-0.1,0.1-0.3,0.3-0.3c0.1-0.1,0.3-0.1,0.5,0s0.3,0.1,0.4,0.3l0.5,1
		c0.2,0.5,0.4,1,0.4,1.5v0.2c-0.2,2.4-1,4.3-2.3,5.7c-1.3,1.4-3.2,2.4-5.7,2.9c-0.2,0-0.3,0-0.5-0.1c-0.2-0.1-0.3-0.2-0.3-0.4
		c0-0.2,0-0.3,0.1-0.5C232.6,434.6,232.8,434.5,232.9,434.5z M241.8,425.9c-0.1-0.1-0.2-0.3-0.3-0.5c-0.1-0.2-0.2-0.4-0.3-0.5
		c-0.1-0.1-0.1-0.3,0-0.4c0-0.1,0.1-0.3,0.3-0.3c0.1-0.1,0.3-0.1,0.5,0s0.3,0.1,0.4,0.3c0.1,0.1,0.2,0.3,0.3,0.6
		c0.1,0.3,0.2,0.4,0.3,0.5c0.1,0.1,0.1,0.3,0,0.5c0,0.2-0.1,0.3-0.3,0.3c-0.1,0.1-0.3,0.1-0.5,0S241.9,426.1,241.8,425.9z"/>
	<path class="st1" d="M245.5,427.6c-0.2,0-0.3-0.1-0.4-0.2c-0.1-0.1-0.2-0.3-0.2-0.4s0.1-0.3,0.2-0.4s0.3-0.2,0.4-0.2
		c1.1,0,2,0,2.5,0c0.1,0,0.1,0,0.2-0.1c0.2-0.5,0.3-0.8,0.4-1.1c0.1-0.2,0.2-0.4,0.4-0.5s0.4-0.1,0.6-0.1c0.2,0,0.3,0.1,0.4,0.3
		c0.1,0.2,0.1,0.4,0.1,0.6c-0.1,0.2-0.1,0.4-0.3,0.7c0,0.1,0,0.1,0.1,0.1c1.5-0.1,2.9-0.1,4.3-0.3c0.2,0,0.3,0,0.4,0.1
		c0.1,0.1,0.2,0.2,0.2,0.4s0,0.3-0.2,0.5c-0.1,0.1-0.3,0.2-0.4,0.2c-1.5,0.1-3.1,0.2-4.9,0.3c-0.1,0-0.1,0-0.2,0.1
		c-0.2,0.4-0.4,0.9-0.7,1.3v0h0c0.6-0.3,1.2-0.5,1.7-0.5c0.5,0,1,0.1,1.3,0.3s0.6,0.6,0.8,1.1c0,0.1,0.1,0.1,0.2,0.1
		c0.7-0.2,1.6-0.4,2.5-0.6c0.2,0,0.3,0,0.5,0.1c0.1,0.1,0.2,0.2,0.2,0.4c0,0.2,0,0.3-0.1,0.5c-0.1,0.1-0.2,0.2-0.4,0.3
		c-0.9,0.2-1.8,0.4-2.4,0.6c-0.1,0-0.1,0.1-0.1,0.2c0,0.4,0.1,0.9,0.1,1.4c0,0.2-0.1,0.4-0.2,0.5c-0.1,0.1-0.3,0.2-0.5,0.2
		c-0.2,0-0.4-0.1-0.5-0.2c-0.1-0.1-0.2-0.3-0.2-0.5c0-0.4,0-0.7,0-0.9c0-0.1,0-0.1-0.1-0.1c-0.7,0.3-1.3,0.7-1.7,1.1
		c-0.4,0.4-0.6,0.7-0.6,1c0,0.4,0.2,0.7,0.6,0.8c0.4,0.2,1.1,0.3,2.2,0.3c0.8,0,1.7-0.1,2.7-0.2c0.2,0,0.3,0,0.5,0.1
		s0.2,0.2,0.2,0.4c0,0.2,0,0.4-0.1,0.5c-0.1,0.1-0.3,0.2-0.4,0.2c-0.9,0.1-1.8,0.2-2.8,0.2c-2.9,0-4.4-0.8-4.4-2.3
		c0-0.6,0.3-1.2,1-1.8c0.6-0.6,1.5-1.2,2.7-1.7c0.1,0,0.1-0.1,0.1-0.2c-0.2-0.5-0.5-0.7-1.1-0.7c-0.4,0-0.9,0.2-1.5,0.6
		c-0.6,0.4-1.2,0.9-1.8,1.7c-0.1,0.1-0.3,0.2-0.5,0.3c-0.2,0-0.4,0-0.5-0.1c-0.1-0.1-0.2-0.2-0.3-0.4c0-0.2,0-0.3,0.1-0.5
		c0.9-1.3,1.6-2.5,2.1-3.5c0-0.1,0-0.1-0.1-0.1C246.7,427.6,246,427.6,245.5,427.6z"/>
	<path class="st1" d="M260.7,431.1c-0.1,0.1-0.3,0.2-0.5,0.2s-0.3-0.1-0.5-0.2c-0.1-0.1-0.2-0.3-0.2-0.4c0-0.2,0.1-0.3,0.2-0.5
		c1.3-1.4,2.1-3,2.4-4.7c0-0.2,0.1-0.4,0.3-0.5c0.1-0.1,0.3-0.2,0.5-0.2c0.2,0,0.4,0.1,0.5,0.2c0.1,0.1,0.2,0.3,0.1,0.5
		c0,0.2-0.1,0.4-0.2,0.7c0,0.1,0,0.1,0.1,0.1h4.9c0.2,0,0.4,0.1,0.6,0.2c0.2,0.2,0.2,0.3,0.2,0.6v0.5c-0.3,2.4-1,4.3-2.4,5.7
		c-1.3,1.3-3.3,2.2-5.9,2.6c-0.2,0-0.3,0-0.5-0.1c-0.2-0.1-0.3-0.3-0.3-0.4c0-0.2,0-0.3,0.1-0.5c0.1-0.1,0.2-0.2,0.4-0.3
		c2.2-0.3,3.8-1,5-2.1c1.1-1.1,1.8-2.7,2-4.7c0-0.1,0-0.1-0.1-0.1h-4.5c-0.1,0-0.1,0-0.2,0.1C262.5,429,261.7,430.1,260.7,431.1z"/>
	<path class="st1" d="M275.9,430.9c-0.1,0.1-0.3,0.2-0.5,0.2c-0.2,0-0.4-0.1-0.5-0.2s-0.2-0.3-0.2-0.5v-4.3c0-0.2,0.1-0.4,0.2-0.5
		c0.1-0.1,0.3-0.2,0.5-0.2c0.2,0,0.4,0.1,0.5,0.2c0.1,0.1,0.2,0.3,0.2,0.5v4.3C276.1,430.6,276.1,430.8,275.9,430.9z M281.8,425.4
		c0.2,0,0.4,0.1,0.5,0.2s0.2,0.3,0.2,0.5v3.6c0,2-0.4,3.5-1.3,4.5s-2.4,1.7-4.5,2c-0.2,0-0.3,0-0.5-0.1c-0.1-0.1-0.2-0.3-0.3-0.4
		c0-0.2,0-0.3,0.1-0.5c0.1-0.1,0.2-0.2,0.4-0.3c1.8-0.3,3-0.8,3.6-1.6c0.7-0.8,1-1.9,1-3.6v-3.6c0-0.2,0.1-0.4,0.2-0.5
		C281.5,425.4,281.6,425.4,281.8,425.4z"/>
	<path class="st1" d="M289,431.3c-0.2-0.8-0.4-1.6-0.6-2.2c0-0.2,0-0.3,0.1-0.5s0.2-0.2,0.4-0.3c0.2,0,0.3,0,0.5,0.1
		s0.3,0.2,0.3,0.4c0.2,0.7,0.4,1.4,0.6,2.2c0,0.2,0,0.3-0.1,0.5c-0.1,0.1-0.2,0.2-0.4,0.3c-0.2,0-0.3,0-0.5-0.1
		C289.1,431.6,289,431.4,289,431.3z M296.5,427.9c0.2,0,0.3,0.1,0.4,0.2s0.2,0.3,0.1,0.5c-0.3,2.2-0.9,3.9-1.9,5s-2.5,1.9-4.5,2.4
		c-0.2,0-0.3,0-0.4-0.1c-0.1-0.1-0.2-0.2-0.3-0.4c0-0.2,0-0.3,0.1-0.4c0.1-0.1,0.2-0.2,0.4-0.3c1.7-0.4,2.9-1.1,3.7-2
		s1.3-2.4,1.6-4.2c0-0.2,0.1-0.3,0.3-0.5C296.1,427.9,296.3,427.9,296.5,427.9z M293,431c-0.1,0.1-0.2,0.2-0.4,0.3s-0.3,0-0.5-0.1
		c-0.2-0.1-0.3-0.2-0.3-0.4c-0.2-0.7-0.4-1.5-0.6-2.3c0-0.2,0-0.3,0.1-0.5s0.2-0.3,0.4-0.3c0.2,0,0.3,0,0.5,0.1
		c0.2,0.1,0.3,0.2,0.3,0.4c0.2,0.7,0.4,1.4,0.6,2.3C293.1,430.6,293.1,430.8,293,431z"/>
	<path class="st1" d="M302.7,431.1c-0.1,0.1-0.3,0.2-0.5,0.2s-0.3-0.1-0.5-0.2c-0.1-0.1-0.2-0.3-0.2-0.4c0-0.2,0.1-0.3,0.2-0.5
		c1.3-1.4,2.1-3,2.4-4.7c0-0.2,0.1-0.4,0.3-0.5c0.1-0.1,0.3-0.2,0.5-0.2c0.2,0,0.4,0.1,0.5,0.2c0.1,0.1,0.2,0.3,0.1,0.5
		c0,0.2-0.1,0.4-0.2,0.7c0,0.1,0,0.1,0.1,0.1h4.9c0.2,0,0.4,0.1,0.6,0.2c0.2,0.2,0.2,0.3,0.2,0.6v0.5c-0.3,2.4-1,4.3-2.4,5.7
		c-1.3,1.3-3.3,2.2-5.9,2.6c-0.2,0-0.3,0-0.5-0.1c-0.2-0.1-0.3-0.3-0.3-0.4c0-0.2,0-0.3,0.1-0.5c0.1-0.1,0.2-0.2,0.4-0.3
		c2.2-0.3,3.8-1,5-2.1c1.1-1.1,1.8-2.7,2-4.7c0-0.1,0-0.1-0.1-0.1h-4.5c-0.1,0-0.1,0-0.2,0.1C304.5,429,303.7,430.1,302.7,431.1z"/>
	<path class="st1" d="M315.3,427.6c-0.2,0-0.3-0.1-0.4-0.2c-0.1-0.1-0.2-0.3-0.2-0.4s0.1-0.3,0.2-0.4s0.3-0.2,0.4-0.2
		c2.1,0,4.1-0.1,6-0.2c0.1,0,0.1,0,0.1-0.1c0-0.4,0-0.8,0-1c0-0.2,0.1-0.4,0.2-0.5c0.1-0.1,0.3-0.2,0.5-0.2c0.2,0,0.4,0.1,0.5,0.2
		c0.1,0.1,0.2,0.3,0.2,0.5c0,0.2,0,0.5,0,1c0,0.1,0,0.1,0.1,0.1c0.9,0,1.9-0.1,3.1-0.2c0.2,0,0.3,0,0.4,0.1s0.2,0.2,0.2,0.4
		c0,0.2,0,0.3-0.1,0.4c-0.1,0.1-0.2,0.2-0.4,0.2c-1.1,0.1-2.2,0.1-3.1,0.2c-0.1,0-0.1,0-0.1,0.1c0,1.4,0.1,2.1,0.1,2.4
		c0,0.1,0,0.2,0,0.2c0.2,0.6,0.3,1.2,0.3,2c0,2.5-1.5,4-4.4,4.4c-0.2,0-0.4,0-0.5-0.1c-0.2-0.1-0.3-0.3-0.3-0.5c0-0.2,0-0.4,0.1-0.5
		s0.3-0.2,0.4-0.3c1.7-0.2,2.8-0.8,3.1-1.8c0,0,0.1-0.2,0.1-0.5c0,0,0,0,0,0h0c-0.4,0.5-1,0.7-1.8,0.7c-0.8,0-1.4-0.3-2-0.8
		s-0.8-1.1-0.8-1.9c0-0.8,0.3-1.4,0.8-1.9c0.5-0.5,1.2-0.7,2-0.7c0.5,0,1,0.1,1.5,0.4h0l0,0c0,0,0,0,0,0c0-0.2,0-0.6,0-1
		c0-0.1,0-0.1-0.1-0.1C319.2,427.5,317.2,427.6,315.3,427.6z M319.1,431.9c0.3,0.3,0.6,0.4,1,0.4c0.4,0,0.7-0.1,1-0.4s0.4-0.6,0.4-1
		s-0.1-0.7-0.4-1c-0.3-0.3-0.6-0.4-1-0.4c-0.4,0-0.7,0.1-1,0.4c-0.3,0.3-0.4,0.6-0.4,1S318.8,431.6,319.1,431.9z"/>
	<path class="st1" d="M330.2,432.1c-0.2,0.1-0.3,0.1-0.5,0c-0.2-0.1-0.3-0.2-0.4-0.3c-0.1-0.2-0.1-0.3,0-0.5
		c0.1-0.2,0.2-0.3,0.3-0.4c2.9-1.7,5.2-3.1,7-4.4v0h0c-1.8,0.2-3.5,0.3-5.2,0.3c-0.2,0-0.3-0.1-0.5-0.2s-0.2-0.3-0.2-0.5
		c0-0.2,0.1-0.3,0.2-0.5s0.3-0.2,0.5-0.2c1.9,0,3.9-0.1,6-0.3c0.2,0,0.4,0,0.6,0.2c0.2,0.1,0.3,0.3,0.3,0.5v0c0.1,0.5-0.1,1-0.5,1.3
		c-0.4,0.3-1.1,0.7-2,1.3c-0.9,0.6-1.5,0.9-1.8,1.1c0,0,0,0,0,0h0c0.7-0.2,1.3-0.3,1.9-0.3c1.1,0,2,0.3,2.7,0.9c0.6,0.6,1,1.3,1,2.3
		c0,1.1-0.5,2-1.4,2.7c-0.9,0.7-2.2,1-3.9,1c-1.1,0-1.9-0.2-2.5-0.6s-0.9-0.9-0.9-1.6c0-0.5,0.3-1,0.8-1.4s1.2-0.6,2-0.6
		c0.8,0,1.5,0.2,2,0.5c0.5,0.3,0.7,0.8,0.7,1.4c0,0.2,0,0.4-0.1,0.6c0,0,0,0,0,0.1c0,0,0,0,0.1,0c0.6-0.2,1-0.5,1.3-0.9
		c0.3-0.4,0.5-0.8,0.5-1.3c0-1.4-1-2.1-3-2.1c-0.7,0-1.4,0.1-2.1,0.3C332.2,431.2,331.3,431.6,330.2,432.1z M334.8,435
		c0.1-0.3,0.1-0.5,0.1-0.7c0-0.7-0.4-1-1.3-1c-0.4,0-0.8,0.1-1,0.2c-0.2,0.2-0.4,0.3-0.4,0.6c0,0.7,0.7,1,2.1,1h0.3
		C334.7,435.2,334.8,435.1,334.8,435z"/>
	<path class="st1" d="M348.6,436c-1.5,0-2.6-0.3-3.4-0.8c-0.8-0.5-1.2-1.3-1.2-2.3c0-1.1,0.8-2.2,2.4-3.2c0.1,0,0.1-0.1,0.1-0.2v0
		c-0.3-1.4-0.6-2.7-0.8-3.8c0-0.2,0-0.4,0.1-0.6s0.3-0.3,0.5-0.3s0.4,0,0.6,0.1s0.3,0.3,0.3,0.5c0.2,1.1,0.4,2.2,0.7,3.4
		c0,0.1,0.1,0.1,0.1,0.1c1.2-0.5,2.5-1,4.2-1.5c0.2,0,0.3,0,0.5,0.1c0.2,0.1,0.3,0.2,0.3,0.4c0,0.2,0,0.4-0.1,0.5
		c-0.1,0.2-0.2,0.3-0.4,0.3c-4.6,1.3-7,2.7-7,4.1c0,1.2,1.1,1.7,3.2,1.7c1.2,0,2.4-0.1,3.6-0.3c0.2,0,0.4,0,0.5,0.1s0.2,0.3,0.3,0.4
		c0,0.2,0,0.4-0.1,0.5c-0.1,0.2-0.3,0.3-0.5,0.3C351.2,435.9,349.9,436,348.6,436z"/>
	<path class="st1" d="M357,433.1c-0.2,0-0.3-0.1-0.4-0.2s-0.2-0.3-0.2-0.4c0-0.2,0.1-0.3,0.2-0.4c0.1-0.1,0.3-0.2,0.4-0.2h4.9
		c0.1,0,0.1,0,0.1-0.1v-0.2c0-0.2,0.1-0.4,0.2-0.5s0.3-0.2,0.5-0.2c0,0,0,0,0,0c0,0,0,0,0,0c0.1,0,0.1,0,0.2-0.1l0.1-0.1
		c0.5-0.4,0.9-0.7,1.2-1c0,0,0-0.1,0-0.1h-4.8c-0.2,0-0.3-0.1-0.4-0.2c-0.1-0.1-0.2-0.3-0.2-0.4s0.1-0.3,0.2-0.4
		c0.1-0.1,0.3-0.2,0.4-0.2h6.2c0.2,0,0.3,0.1,0.4,0.2s0.2,0.3,0.2,0.4c0,0.4-0.1,0.8-0.4,1.1c-0.5,0.6-1.2,1.1-1.9,1.7
		c-0.1,0.1-0.2,0.1-0.3,0.1c0,0-0.1,0-0.1,0c0,0,0,0,0,0l0,0c0,0,0,0,0,0h4.5c0.2,0,0.3,0.1,0.4,0.2c0.1,0.1,0.2,0.3,0.2,0.4
		c0,0.2-0.1,0.3-0.2,0.4s-0.3,0.2-0.4,0.2h-4.5c-0.1,0-0.1,0-0.1,0.1v1.9c0,0.7-0.1,1.2-0.3,1.3s-0.7,0.3-1.6,0.3
		c-0.3,0-0.8,0-1.6,0c-0.2,0-0.3-0.1-0.5-0.2s-0.2-0.3-0.2-0.5c0-0.2,0-0.3,0.2-0.4c0.1-0.1,0.3-0.2,0.4-0.2c0.7,0,1.2,0,1.5,0
		c0.3,0,0.4,0,0.5-0.1s0.1-0.2,0.1-0.5v-1.7c0-0.1,0-0.1-0.1-0.1H357z M368.2,429.3c-0.1,0.1-0.3,0.2-0.5,0.2s-0.4-0.1-0.5-0.2
		c-0.1-0.1-0.2-0.3-0.2-0.5v-1.4c0-0.1,0-0.1-0.1-0.1h-8.5c-0.1,0-0.1,0-0.1,0.1v1.4c0,0.2-0.1,0.4-0.2,0.5
		c-0.1,0.1-0.3,0.2-0.5,0.2c-0.2,0-0.4-0.1-0.5-0.2c-0.1-0.1-0.2-0.3-0.2-0.5v-1.9c0-0.2,0.1-0.4,0.2-0.5s0.3-0.2,0.6-0.2h1
		c0,0,0,0,0.1,0c0,0,0-0.1,0-0.1c-0.1-0.2-0.2-0.4-0.3-0.5c-0.1-0.2-0.1-0.3,0-0.5s0.2-0.3,0.3-0.4c0.2-0.1,0.4-0.1,0.6,0
		c0.2,0.1,0.3,0.2,0.4,0.3c0.2,0.3,0.3,0.6,0.6,1c0,0.1,0.1,0.1,0.2,0.1h1.5c0,0,0,0,0.1,0c0,0,0,0,0-0.1c-0.1-0.3-0.3-0.5-0.3-0.7
		c-0.1-0.2-0.1-0.3,0-0.5c0.1-0.2,0.2-0.3,0.3-0.4c0.2-0.1,0.4-0.1,0.6,0c0.2,0.1,0.3,0.2,0.4,0.3c0.3,0.6,0.5,1,0.6,1.2
		c0,0.1,0.1,0.1,0.2,0.1h1.3c0.1,0,0.1,0,0.2-0.1c0.2-0.3,0.4-0.7,0.6-1.1c0.1-0.2,0.2-0.3,0.4-0.4s0.4-0.1,0.6,0
		c0.2,0,0.3,0.2,0.4,0.3c0.1,0.2,0.1,0.3,0,0.5c0,0.1-0.1,0.2-0.2,0.4c-0.1,0.2-0.2,0.3-0.2,0.3c0,0,0,0,0,0.1s0,0,0.1,0h1
		c0.2,0,0.4,0.1,0.6,0.2c0.2,0.1,0.2,0.3,0.2,0.5v1.9C368.4,429,368.3,429.2,368.2,429.3z"/>
	<path class="st1" d="M370.9,430.4c-0.2,0-0.3-0.1-0.4-0.2c-0.1-0.1-0.2-0.3-0.2-0.4s0.1-0.3,0.2-0.4c0.1-0.1,0.3-0.2,0.4-0.2h0.8
		c0.1,0,0.1,0,0.1-0.1c-0.2-0.8-0.4-1.6-0.6-2.3c0-0.1-0.1-0.1-0.1-0.1h-0.1c-0.2,0-0.3-0.1-0.4-0.2c-0.1-0.1-0.2-0.3-0.2-0.4
		s0.1-0.3,0.2-0.4c0.1-0.1,0.3-0.2,0.4-0.2h2c0.1,0,0.1,0,0.1-0.1V425c0-0.2,0.1-0.4,0.2-0.5c0.1-0.1,0.3-0.2,0.5-0.2
		s0.4,0.1,0.5,0.2c0.1,0.1,0.2,0.3,0.2,0.5v0.4c0,0.1,0,0.1,0.1,0.1h2.1c0.2,0,0.3,0.1,0.4,0.2c0.1,0.1,0.2,0.3,0.2,0.4
		s-0.1,0.3-0.2,0.4c-0.1,0.1-0.3,0.2-0.4,0.2h-0.1c-0.1,0-0.1,0-0.1,0.1c-0.2,0.9-0.4,1.7-0.6,2.3c0,0.1,0,0.1,0.1,0.1h0.8
		c0.2,0,0.3,0.1,0.4,0.2s0.2,0.3,0.2,0.4s-0.1,0.3-0.2,0.4s-0.3,0.2-0.4,0.2H370.9z M371.8,431.4h4.4c0.2,0,0.4,0.1,0.5,0.2
		s0.2,0.3,0.2,0.5v3.9c0,0.2-0.1,0.4-0.2,0.5c-0.1,0.1-0.3,0.2-0.5,0.2H376c-0.1,0-0.2,0-0.3-0.1c-0.1-0.1-0.1-0.2-0.1-0.3
		c0,0,0-0.1-0.1-0.1h-2.9c0,0-0.1,0-0.1,0.1c0,0.1,0,0.2-0.1,0.3c-0.1,0.1-0.2,0.1-0.3,0.1h-0.2c-0.2,0-0.4-0.1-0.5-0.2
		c-0.1-0.1-0.2-0.3-0.2-0.5v-3.9c0-0.2,0.1-0.4,0.2-0.5S371.6,431.4,371.8,431.4z M375.5,434.9v-2.2c0-0.1,0-0.1-0.1-0.1h-2.9
		c-0.1,0-0.1,0-0.1,0.1v2.2c0,0.1,0,0.1,0.1,0.1h2.9C375.5,435.1,375.5,435,375.5,434.9z M372.7,426.7c-0.1,0-0.1,0-0.1,0.1
		c0.2,0.7,0.4,1.5,0.6,2.3c0,0.1,0.1,0.1,0.2,0.1h1.2c0.1,0,0.1,0,0.2-0.1c0.2-0.6,0.4-1.4,0.6-2.3c0-0.1,0-0.1-0.1-0.1H372.7z
		 M379.2,436.6c-0.1,0.1-0.3,0.2-0.5,0.2c-0.2,0-0.4-0.1-0.5-0.2c-0.1-0.1-0.2-0.3-0.2-0.5v-10.5c0-0.2,0.1-0.4,0.2-0.5
		s0.3-0.2,0.6-0.2h3.6c0.2,0,0.3,0.1,0.4,0.2c0.1,0.1,0.2,0.2,0.2,0.4c0,0.4-0.1,0.8-0.2,1.1c-0.4,1.1-0.8,2-1.3,3
		c0,0.1,0,0.1,0,0.2c0.5,0.4,0.9,1,1.2,1.5s0.4,1.2,0.4,1.8c0,0.8-0.2,1.4-0.5,1.7c-0.3,0.4-0.9,0.5-1.6,0.5h-0.2
		c-0.2,0-0.4-0.1-0.5-0.2c-0.1-0.1-0.2-0.3-0.3-0.5c0-0.2,0-0.3,0.1-0.4c0.1-0.1,0.2-0.2,0.4-0.2c0.5,0,0.8-0.1,1-0.2
		c0.2-0.1,0.2-0.4,0.2-0.8c0-0.9-0.4-1.9-1.3-2.8c-0.3-0.4-0.4-0.8-0.2-1.2c0.5-0.9,0.9-1.8,1.3-2.9c0-0.1,0-0.1-0.1-0.1h-1.8
		c-0.1,0-0.1,0-0.1,0.1v10C379.4,436.3,379.3,436.4,379.2,436.6z"/>
	<path class="st1" d="M390.6,436.3c-1.8,0-3.2-0.3-4.1-0.8c-0.9-0.5-1.4-1.2-1.4-2.1c0-0.9,0.7-1.9,2-3.1c0.1-0.1,0.3-0.2,0.5-0.2
		c0.2,0,0.4,0.1,0.5,0.2c0.1,0.1,0.2,0.3,0.2,0.5c0,0.2-0.1,0.3-0.2,0.5c-1,0.9-1.4,1.6-1.4,2.1c0,0.5,0.3,0.9,1,1.1
		c0.7,0.3,1.7,0.4,3,0.4c1,0,2.1-0.2,3.5-0.5c0.2,0,0.4,0,0.5,0.1c0.2,0.1,0.3,0.2,0.3,0.4s0,0.4-0.1,0.5c-0.1,0.2-0.3,0.3-0.4,0.3
		C392.9,436.1,391.7,436.3,390.6,436.3z M390.9,426c0.3,0,0.7,0,1.3,0c0.2,0,0.3,0,0.5,0.2s0.2,0.3,0.2,0.5c0,0.2,0,0.3-0.2,0.5
		c-0.1,0.1-0.3,0.2-0.5,0.2c-0.3,0-0.7,0-1.3,0c-1.4,0-2.7-0.1-4-0.2c-0.2,0-0.3-0.1-0.5-0.3s-0.2-0.3-0.2-0.5
		c0-0.2,0.1-0.3,0.2-0.4c0.1-0.1,0.3-0.2,0.5-0.1C388.3,425.9,389.6,426,390.9,426z M394.1,425c0.4,0.7,0.6,1.1,0.6,1.2
		c0.1,0.2,0.1,0.3,0,0.5s-0.2,0.3-0.3,0.4c-0.2,0.1-0.3,0.1-0.5,0c-0.2-0.1-0.3-0.2-0.4-0.3c-0.1-0.1-0.2-0.3-0.3-0.6
		s-0.2-0.4-0.3-0.6c-0.1-0.1-0.1-0.3,0-0.5c0.1-0.2,0.2-0.3,0.3-0.4c0.2-0.1,0.3-0.1,0.5,0C393.9,424.8,394,424.9,394.1,425z
		 M395.7,426.3c-0.1-0.1-0.2-0.3-0.3-0.6c-0.1-0.3-0.3-0.4-0.3-0.6c-0.1-0.2-0.1-0.3-0.1-0.5c0.1-0.2,0.2-0.3,0.3-0.4
		c0.2-0.1,0.3-0.1,0.5,0c0.2,0.1,0.3,0.2,0.4,0.3c0.1,0.3,0.4,0.7,0.6,1.2c0.1,0.1,0.1,0.3,0,0.5c-0.1,0.2-0.2,0.3-0.3,0.4
		c-0.2,0.1-0.3,0.1-0.5,0C395.9,426.6,395.8,426.5,395.7,426.3z"/>
	<path class="st1" d="M404.6,436c-1.5,0-2.6-0.3-3.4-0.8c-0.8-0.5-1.2-1.3-1.2-2.3c0-1.1,0.8-2.2,2.4-3.2c0.1,0,0.1-0.1,0.1-0.2v0
		c-0.3-1.4-0.6-2.7-0.8-3.8c0-0.2,0-0.4,0.1-0.6s0.3-0.3,0.5-0.3s0.4,0,0.6,0.1s0.3,0.3,0.3,0.5c0.2,1.1,0.4,2.2,0.7,3.4
		c0,0.1,0.1,0.1,0.1,0.1c1.2-0.5,2.5-1,4.2-1.5c0.2,0,0.3,0,0.5,0.1c0.2,0.1,0.3,0.2,0.3,0.4c0,0.2,0,0.4-0.1,0.5
		c-0.1,0.2-0.2,0.3-0.4,0.3c-4.6,1.3-7,2.7-7,4.1c0,1.2,1.1,1.7,3.2,1.7c1.2,0,2.4-0.1,3.6-0.3c0.2,0,0.4,0,0.5,0.1s0.2,0.3,0.3,0.4
		c0,0.2,0,0.4-0.1,0.5c-0.1,0.2-0.3,0.3-0.5,0.3C407.2,435.9,405.9,436,404.6,436z"/>
	<path class="st1" d="M414.8,436.1c-0.2,0-0.4,0-0.6-0.1c-0.2-0.1-0.3-0.3-0.3-0.5c-0.4-1.5-0.5-3.2-0.5-4.8s0.2-3.3,0.5-4.8
		c0-0.2,0.2-0.4,0.3-0.5c0.2-0.1,0.4-0.2,0.6-0.1c0.2,0,0.3,0.1,0.4,0.3c0.1,0.2,0.1,0.3,0.1,0.5c-0.3,1.4-0.5,3-0.5,4.7
		s0.2,3.2,0.5,4.7c0,0.2,0,0.4-0.1,0.5C415.1,436,415,436.1,414.8,436.1z M420.7,435.6c-1.2,0-2.1-0.2-2.8-0.7c-0.7-0.4-1-1.1-1-1.8
		c0-0.4,0.1-0.8,0.4-1.2c0.3-0.4,0.6-0.9,1.1-1.3c0.1-0.1,0.3-0.2,0.5-0.2c0.2,0,0.4,0.1,0.5,0.2c0.1,0.1,0.2,0.3,0.2,0.5
		c0,0.2-0.1,0.3-0.2,0.4c-0.6,0.6-0.9,1.1-0.9,1.6c0,0.4,0.2,0.6,0.6,0.8c0.4,0.2,1,0.3,1.7,0.3c0.8,0,1.6-0.1,2.4-0.2
		c0.2,0,0.3,0,0.5,0.1c0.1,0.1,0.2,0.2,0.3,0.4c0,0.2,0,0.4-0.1,0.5s-0.2,0.3-0.4,0.3C422.4,435.5,421.5,435.6,420.7,435.6z
		 M422.9,426.4c0.2,0,0.3,0,0.5,0.1c0.1,0.1,0.2,0.3,0.2,0.4c0,0.2,0,0.4-0.2,0.5s-0.3,0.2-0.4,0.2c-1.6,0.2-3.2,0.3-4.7,0.3
		c-0.2,0-0.3-0.1-0.5-0.2s-0.2-0.3-0.2-0.5s0.1-0.3,0.2-0.5s0.3-0.2,0.5-0.2C419.7,426.7,421.3,426.6,422.9,426.4z"/>
	<path class="st1" d="M427,436.6c-0.2,0-0.3,0-0.4-0.2s-0.2-0.3-0.2-0.4c0-0.2,0-0.3,0.1-0.4s0.2-0.2,0.4-0.2
		c1.1-0.1,1.8-0.1,2.1-0.1c0.1,0,0.1,0,0.1-0.1v-0.5c0-0.1,0-0.1-0.1-0.1h-1.9c-0.2,0-0.3-0.1-0.4-0.2s-0.2-0.2-0.2-0.4
		s0.1-0.3,0.2-0.4c0.1-0.1,0.2-0.2,0.4-0.2h1.9c0.1,0,0.1,0,0.1-0.1V433c0-0.1,0-0.1-0.1-0.1h-0.9h-0.6c-0.2,0-0.4-0.1-0.6-0.2
		c-0.2-0.2-0.2-0.3-0.2-0.6v-2.7c0-0.2,0.1-0.4,0.2-0.6c0.2-0.2,0.3-0.2,0.6-0.2h1.5c0.1,0,0.1,0,0.1-0.1v-0.4c0-0.1,0-0.1-0.1-0.1
		H427c-0.1,0-0.3-0.1-0.4-0.2s-0.2-0.2-0.2-0.4s0.1-0.3,0.2-0.4s0.2-0.2,0.4-0.2h2.1c0.1,0,0.1,0,0.1-0.1v-0.4c0-0.1,0-0.1-0.1-0.1
		c-0.3,0-0.9,0.1-1.7,0.1c-0.2,0-0.3,0-0.4-0.2c-0.1-0.1-0.2-0.3-0.2-0.4c0-0.2,0-0.3,0.1-0.4c0.1-0.1,0.2-0.2,0.4-0.2
		c1.7-0.1,3.4-0.3,5.1-0.5c0.2,0,0.3,0,0.5,0.1c0.1,0.1,0.2,0.2,0.2,0.4c0,0.2,0,0.3-0.1,0.5s-0.2,0.2-0.4,0.2
		c-0.4,0.1-1,0.1-1.7,0.2c-0.1,0-0.1,0.1-0.1,0.1v0.6c0,0.1,0,0.1,0.1,0.1h1.8c0.3,0,0.4,0.1,0.5,0.4c0,0.1,0.1,0.1,0.1,0
		c0.1-0.1,0.2-0.1,0.4-0.1h0.7c0.1,0,0.1,0,0.1-0.1c0-1.2,0-1.8,0-1.9c0-0.2,0.1-0.3,0.2-0.5c0.1-0.1,0.3-0.2,0.5-0.2
		s0.3,0.1,0.5,0.2c0.1,0.1,0.2,0.3,0.2,0.5c0,0.1,0,0.7,0,1.9c0,0.1,0,0.1,0.1,0.1h2.1c0.2,0,0.4,0.1,0.6,0.2
		c0.2,0.1,0.2,0.3,0.2,0.5v0.1c0,1.4,0,2.5,0,3.4c0,0.9,0,1.7-0.1,2.3c-0.1,0.7-0.1,1.2-0.2,1.5c-0.1,0.3-0.2,0.6-0.3,0.8
		c-0.1,0.2-0.3,0.3-0.4,0.4c-0.1,0-0.4,0.1-0.6,0.1c-0.3,0-0.7,0-1.2-0.1c-0.2,0-0.3-0.1-0.5-0.2c-0.1-0.1-0.2-0.3-0.2-0.5
		c0-0.2,0.1-0.3,0.2-0.4c0.1-0.1,0.3-0.2,0.5-0.1c0.2,0,0.5,0,0.8,0c0.1,0,0.2,0,0.2-0.1s0.1-0.2,0.2-0.5c0.1-0.2,0.1-0.6,0.1-1
		c0-0.4,0.1-1,0.1-1.8c0-0.8,0-1.7,0-2.8v-0.4c0-0.1,0-0.1-0.1-0.1h-1.4c-0.1,0-0.1,0-0.1,0.1c-0.1,1.9-0.3,3.4-0.5,4.6
		s-0.7,2.2-1.2,3.1c-0.1,0.2-0.2,0.3-0.4,0.3s-0.4,0-0.5-0.1c-0.2-0.1-0.3-0.2-0.3-0.4c0-0.1-0.1-0.1-0.1,0
		c-0.1,0.1-0.2,0.1-0.3,0.1C430.6,436.4,428.8,436.5,427,436.6z M428.1,429.8v0.4c0,0.1,0,0.1,0.1,0.1h0.8c0.1,0,0.1,0,0.1-0.1v-0.4
		c0-0.1,0-0.1-0.1-0.1h-0.8C428.1,429.7,428.1,429.7,428.1,429.8z M429,431.8c0.1,0,0.1,0,0.1-0.1v-0.4c0-0.1,0-0.1-0.1-0.1h-0.8
		c-0.1,0-0.1,0-0.1,0.1v0.4c0,0.1,0,0.1,0.1,0.1H429z M430.6,434.7v0.3c0,0.1,0,0.1,0.1,0.1c0.2,0,0.4,0,0.7-0.1
		c0.3,0,0.6-0.1,0.8-0.1c0.3,0,0.4,0.1,0.5,0.3c0,0,0,0,0,0c0,0,0,0,0.1,0c0.8-1.5,1.3-3.7,1.4-6.7c0-0.1,0-0.1-0.1-0.1h-0.6
		c-0.1,0-0.3,0-0.4-0.1c-0.1-0.1-0.2-0.2-0.2-0.3c0-0.1-0.1-0.1-0.1-0.1c-0.1,0.1-0.2,0.1-0.3,0.1h-1.8c-0.1,0-0.1,0-0.1,0.1v0.4
		c0,0.1,0,0.1,0.1,0.1h1.4c0.2,0,0.4,0.1,0.6,0.2c0.2,0.2,0.2,0.3,0.2,0.6v2.7c0,0.2-0.1,0.4-0.2,0.6c-0.2,0.2-0.3,0.2-0.6,0.2h-1.4
		c-0.1,0-0.1,0-0.1,0.1v0.4c0,0.1,0,0.1,0.1,0.1h1.7c0.2,0,0.3,0.1,0.4,0.2c0.1,0.1,0.2,0.2,0.2,0.4s-0.1,0.3-0.2,0.4
		s-0.2,0.2-0.4,0.2h-1.7C430.7,434.6,430.6,434.6,430.6,434.7z M430.6,429.8v0.4c0,0.1,0,0.1,0.1,0.1h0.8c0.1,0,0.1,0,0.1-0.1v-0.4
		c0-0.1,0-0.1-0.1-0.1h-0.8C430.7,429.7,430.6,429.7,430.6,429.8z M430.6,431.3v0.4c0,0.1,0,0.1,0.1,0.1h0.8c0.1,0,0.1,0,0.1-0.1
		v-0.4c0-0.1,0-0.1-0.1-0.1h-0.8C430.7,431.1,430.6,431.2,430.6,431.3z"/>
	<path class="st1" d="M441.2,426.1c-0.2,0-0.3-0.1-0.4-0.2s-0.2-0.3-0.2-0.4s0.1-0.3,0.2-0.4s0.3-0.2,0.4-0.2H452
		c0.2,0,0.3,0.1,0.4,0.2s0.2,0.3,0.2,0.4s-0.1,0.3-0.2,0.4s-0.3,0.2-0.4,0.2h-4.6c-0.1,0-0.1,0-0.1,0.1v1c0,0.1,0,0.1,0.1,0.1h1.8
		c0.2,0,0.4,0.1,0.6,0.2c0.2,0.1,0.2,0.3,0.2,0.5v5c0,0.2-0.1,0.4-0.2,0.5s-0.3,0.2-0.6,0.2h-4.7H444c-0.2,0-0.4-0.1-0.6-0.2
		c-0.2-0.1-0.2-0.3-0.2-0.5v-5c0-0.2,0.1-0.4,0.2-0.5c0.2-0.1,0.3-0.2,0.6-0.2h1.8c0.1,0,0.1,0,0.1-0.1v-1c0-0.1,0-0.1-0.1-0.1
		H441.2z M441.1,428c0.1-0.1,0.3-0.2,0.5-0.2s0.4,0.1,0.5,0.2c0.1,0.1,0.2,0.3,0.2,0.5v6.2c0,0.1,0,0.1,0.1,0.1h8.3
		c0.1,0,0.1,0,0.1-0.1v-6.2c0-0.2,0.1-0.4,0.2-0.5c0.1-0.1,0.3-0.2,0.5-0.2c0.2,0,0.4,0.1,0.5,0.2c0.1,0.1,0.2,0.3,0.2,0.5v7.5
		c0,0.2-0.1,0.4-0.2,0.5c-0.1,0.1-0.3,0.2-0.5,0.2h-0.1c-0.2,0-0.3-0.1-0.4-0.2c-0.1-0.1-0.2-0.3-0.2-0.4c0-0.1,0-0.1-0.1-0.1h-8.4
		c-0.1,0-0.1,0-0.1,0.1c0,0.2-0.1,0.3-0.2,0.4c-0.1,0.1-0.3,0.2-0.4,0.2h-0.1c-0.2,0-0.4-0.1-0.5-0.2c-0.1-0.1-0.2-0.3-0.2-0.5v-7.5
		C440.9,428.3,441,428.1,441.1,428z M445.9,430v-1.4c0-0.1,0-0.1-0.1-0.1h-1.1c-0.1,0-0.1,0-0.1,0.1v1.4c0,0.1,0,0.1,0.1,0.1h1.1
		C445.8,430.1,445.9,430,445.9,430z M445.9,432.7v-1.5c0-0.1,0-0.1-0.1-0.1h-1.1c-0.1,0-0.1,0-0.1,0.1v1.5c0,0.1,0,0.1,0.1,0.1h1.1
		C445.8,432.9,445.9,432.8,445.9,432.7z M447.3,428.6v1.4c0,0.1,0,0.1,0.1,0.1h1.1c0.1,0,0.1,0,0.1-0.1v-1.4c0-0.1,0-0.1-0.1-0.1
		h-1.1C447.4,428.5,447.3,428.5,447.3,428.6z M447.3,431.2v1.5c0,0.1,0,0.1,0.1,0.1h1.1c0.1,0,0.1,0,0.1-0.1v-1.5
		c0-0.1,0-0.1-0.1-0.1h-1.1C447.4,431.1,447.3,431.2,447.3,431.2z"/>
	<path class="st1" d="M457.4,435.2c-0.7,0-1.3-0.4-1.8-1.1s-0.8-1.6-0.8-2.7c0-1.7,0.6-3,1.7-4c1.2-1,2.7-1.6,4.6-1.6
		c1.6,0,2.9,0.4,3.9,1.3c1,0.9,1.5,2.1,1.5,3.5c0,1.3-0.3,2.4-1,3.3c-0.7,0.9-1.6,1.5-2.8,1.9c-0.2,0.1-0.3,0-0.5-0.1
		c-0.2-0.1-0.3-0.2-0.3-0.4c-0.1-0.2,0-0.3,0-0.5s0.2-0.3,0.4-0.3c0.9-0.3,1.5-0.8,2-1.5c0.5-0.7,0.7-1.5,0.7-2.4
		c0-1-0.3-1.8-0.9-2.4c-0.6-0.6-1.4-1-2.4-1.1c-0.1,0-0.1,0-0.1,0.1c-0.4,2.7-0.9,4.7-1.6,6C459.2,434.6,458.3,435.2,457.4,435.2z
		 M459.9,427.2c-1.2,0.2-2.1,0.7-2.7,1.4s-1,1.7-1,2.7c0,0.7,0.1,1.3,0.4,1.7c0.3,0.5,0.5,0.7,0.8,0.7c0.2,0,0.4-0.1,0.6-0.4
		s0.4-0.6,0.7-1.1c0.2-0.5,0.5-1.2,0.7-2S459.8,428.4,459.9,427.2C460,427.3,460,427.3,459.9,427.2C460,427.2,460,427.2,459.9,427.2
		z"/>
	<path class="st1" d="M469.1,436c-0.1,0.1-0.3,0.1-0.4,0.1c-0.2,0-0.3-0.1-0.4-0.3c-0.1-0.1-0.1-0.3-0.1-0.4
		c0.1-0.8,0.3-1.7,0.3-2.6c0-0.2,0.1-0.3,0.2-0.4s0.3-0.1,0.4-0.1c0.2,0,0.3,0.1,0.4,0.2s0.2,0.3,0.1,0.4c-0.1,0.9-0.2,1.8-0.4,2.8
		C469.4,435.8,469.3,435.9,469.1,436z M468.9,431.5c-0.2,0-0.3,0-0.4-0.1c-0.1-0.1-0.2-0.2-0.2-0.4c0-0.2,0-0.3,0.2-0.4
		c0.1-0.1,0.3-0.2,0.4-0.2l0.7,0c0.1,0,0.1,0,0.2-0.1l0.2-0.3c0.1-0.1,0.1-0.1,0-0.2c-0.4-0.6-0.8-1.3-1.3-2.1
		c-0.3-0.4-0.3-0.8,0-1.2c0.1-0.1,0.2-0.2,0.4-0.2c0.2,0,0.3,0.1,0.4,0.2c0,0,0,0,0,0.1c0,0,0,0,0,0.1c0,0.1,0.1,0.1,0.1,0
		c0.3-0.5,0.5-1.1,0.8-1.6c0.1-0.2,0.2-0.3,0.3-0.3c0.2-0.1,0.3-0.1,0.5,0c0.2,0.1,0.3,0.2,0.3,0.3s0.1,0.3,0,0.5
		c-0.3,0.7-0.7,1.5-1.1,2.4c0,0.1,0,0.1,0,0.2c0,0.1,0.1,0.2,0.2,0.3c0.1,0.1,0.2,0.2,0.2,0.3c0,0,0.1,0,0.1,0
		c0.4-0.7,0.8-1.4,1.2-2.2c0.1-0.1,0.2-0.2,0.4-0.3c0.2-0.1,0.3,0,0.5,0c0.1,0.1,0.2,0.2,0.3,0.4c0,0.2,0,0.3,0,0.5
		c-0.4,0.7-0.6,1.2-0.7,1.3c0,0,0,0,0,0.1c0,0,0,0,0,0l0.1,0c0.2,0,0.4,0,0.6,0.1s0.3,0.3,0.4,0.5l0.1,0.5c0,0,0,0,0,0c0,0,0,0,0,0
		c0.5-0.5,0.9-1.1,1.3-1.7c0.1-0.2,0.2-0.3,0.4-0.3c0.2-0.1,0.3,0,0.5,0.1c0.2,0.1,0.3,0.2,0.3,0.4s0,0.4-0.1,0.5
		c-0.4,0.7-0.9,1.3-1.4,1.9c0,0,0,0,0,0c0,0,0,0,0,0l0.3-0.1c0.2-0.1,0.4,0,0.6,0.1c0.2,0.1,0.3,0.3,0.4,0.5c0.3,0.7,0.6,1.3,1,1.9
		c0,0.1,0.1,0.1,0.1,0c0.4-0.5,0.8-1.2,1.1-1.9c0.1-0.2,0.2-0.3,0.4-0.4s0.4-0.1,0.6,0l0.4,0.1c0,0,0,0,0,0c0,0,0,0,0,0
		c-0.5-0.7-1-1.3-1.5-1.9c-0.1-0.1-0.2-0.3-0.2-0.5s0.1-0.3,0.2-0.4c0.1-0.1,0.3-0.2,0.5-0.2c0.2,0,0.3,0.1,0.5,0.2
		c0.6,0.6,1.1,1.2,1.6,1.9c0.1,0.2,0.2,0.3,0.2,0.5c0,0.2-0.1,0.4-0.2,0.5l0,0c-0.1,0.1-0.3,0.2-0.4,0.2c-0.2,0-0.3-0.1-0.4-0.2
		c0,0-0.1,0-0.1,0c-0.5,1.3-1,2.3-1.7,3.1c0,0.1,0,0.1,0,0.2c0.6,0.5,1.4,1,2.5,1.4c0.2,0.1,0.3,0.2,0.4,0.4c0.1,0.2,0.1,0.3,0,0.5
		c-0.1,0.2-0.2,0.3-0.4,0.4c-0.2,0.1-0.3,0.1-0.5,0c-1.2-0.5-2.1-1-2.9-1.7c-0.1-0.1-0.1-0.1-0.2,0c-0.8,0.7-1.9,1.3-3.1,1.8
		c-0.2,0.1-0.3,0.1-0.5,0c-0.2-0.1-0.3-0.2-0.4-0.4c-0.1-0.2-0.1-0.3,0-0.5c0.1-0.2,0.2-0.3,0.3-0.3c1.1-0.4,2-0.9,2.8-1.5
		c0.1,0,0.1-0.1,0-0.2c-0.6-0.8-1.1-1.8-1.6-3c0,0,0,0-0.1-0.1c0,0-0.1,0-0.1,0l-0.2,0.2c-0.1,0.1-0.1,0.1-0.3,0.1
		c0,0.2,0,0.3-0.1,0.4c-0.1,0.1-0.2,0.2-0.4,0.3l-0.2,0c-0.1,0-0.2,0-0.3-0.1c-0.1-0.1-0.1-0.1-0.2-0.3c0,0,0-0.1-0.1-0.1l-1,0.1
		c-0.1,0-0.1,0-0.1,0.1v4.7c0,0.2-0.1,0.4-0.2,0.5c-0.1,0.1-0.3,0.2-0.5,0.2c-0.2,0-0.4-0.1-0.5-0.2c-0.1-0.1-0.2-0.3-0.2-0.5v-4.6
		c0-0.1,0-0.1-0.1-0.1L468.9,431.5z M471.2,430.1C471.2,430.2,471.2,430.2,471.2,430.1l1.2,0c0.1,0,0.1,0,0.1-0.1
		c-0.1-0.5-0.2-0.9-0.3-1.3c0,0,0,0,0,0c0,0,0,0-0.1,0C471.8,429.2,471.5,429.7,471.2,430.1z M473.6,434.3c0,0.2,0,0.3-0.1,0.4
		s-0.2,0.2-0.4,0.2c-0.2,0-0.3,0-0.4-0.1s-0.2-0.2-0.2-0.4c-0.1-0.7-0.1-1.3-0.2-1.7c0-0.2,0-0.3,0.1-0.4c0.1-0.1,0.2-0.2,0.4-0.2
		c0.2,0,0.3,0,0.4,0.1c0.1,0.1,0.2,0.2,0.2,0.4C473.5,433.3,473.6,433.9,473.6,434.3z M476.7,424.4c0.1-0.1,0.3-0.2,0.5-0.2
		s0.4,0.1,0.5,0.2c0.1,0.1,0.2,0.3,0.2,0.5v0.7c0,0.1,0,0.1,0.1,0.1h2.3c0.2,0,0.3,0.1,0.4,0.2c0.1,0.1,0.2,0.3,0.2,0.4
		s-0.1,0.3-0.2,0.4c-0.1,0.1-0.3,0.2-0.4,0.2h-6.3c-0.2,0-0.3-0.1-0.4-0.2s-0.2-0.3-0.2-0.4s0.1-0.3,0.2-0.4s0.3-0.2,0.4-0.2h2.3
		c0.1,0,0.1,0,0.1-0.1V425C476.5,424.8,476.5,424.6,476.7,424.4z"/>
	<path class="st1" d="M485.2,432.3c-0.2,0-0.3-0.1-0.5-0.2c-0.1-0.1-0.2-0.3-0.2-0.5c0-2.2,0.1-4.2,0.2-6.2c0-0.2,0.1-0.4,0.2-0.5
		c0.1-0.1,0.3-0.2,0.5-0.2c0.2,0,0.4,0.1,0.5,0.2c0.1,0.1,0.2,0.3,0.2,0.5c-0.1,0.9-0.1,1.8-0.1,2.7c0,0,0,0,0,0c0,0,0,0,0,0
		c0.9-1.7,2.1-2.5,3.6-2.5c1.1,0,2,0.4,2.6,1.2c0.6,0.8,0.9,1.9,0.9,3.4c0,1.9-0.5,3.3-1.6,4.4c-1.1,1-2.7,1.6-4.8,1.8
		c-0.2,0-0.3,0-0.5-0.2c-0.1-0.1-0.2-0.3-0.2-0.5c0-0.2,0-0.3,0.2-0.5c0.1-0.1,0.3-0.2,0.5-0.2c1.7-0.2,3-0.7,3.8-1.4
		c0.8-0.8,1.2-1.9,1.2-3.4c0-2.1-0.7-3.2-2.1-3.2c-0.8,0-1.6,0.4-2.2,1.2s-1.1,1.9-1.3,3.3c0,0.2-0.1,0.4-0.3,0.5
		S485.4,432.3,485.2,432.3z"/>
	<path class="st1" d="M497,430.8c-0.2,0-0.3-0.1-0.4-0.2s-0.2-0.3-0.2-0.4s0.1-0.3,0.2-0.4s0.3-0.2,0.4-0.2h1.7
		c0.2,0,0.4,0.1,0.6,0.2c0.2,0.2,0.2,0.3,0.2,0.6v3.4c0,0.1,0,0.2,0.1,0.2c0.3,0.6,0.8,0.9,1.5,1.1c0.7,0.2,1.9,0.3,3.8,0.3h3.2
		c0.2,0,0.3,0.1,0.4,0.2c0.1,0.1,0.2,0.3,0.2,0.4c0,0.2-0.1,0.3-0.2,0.4c-0.1,0.1-0.3,0.2-0.5,0.2h-3.2c-1.7,0-3-0.1-3.8-0.3
		c-0.9-0.2-1.5-0.5-2-1c-0.1-0.1-0.1-0.1-0.2,0c-0.4,0.4-0.9,0.8-1.4,1.2c-0.1,0.1-0.3,0.1-0.5,0.1c-0.2,0-0.3-0.1-0.4-0.3
		c-0.1-0.2-0.1-0.3-0.1-0.5c0-0.2,0.1-0.3,0.3-0.5c0.4-0.3,0.8-0.6,1.2-1c0,0,0.1-0.1,0.1-0.2V431c0-0.1,0-0.1-0.1-0.1H497z
		 M497.1,425.3c0.1-0.1,0.3-0.2,0.5-0.2c0.2,0,0.3,0.1,0.5,0.2c0.4,0.4,0.9,1,1.4,1.5c0.1,0.1,0.2,0.3,0.2,0.5
		c0,0.2-0.1,0.3-0.2,0.4c-0.1,0.1-0.3,0.2-0.5,0.2c-0.2,0-0.3-0.1-0.5-0.2c-0.6-0.7-1.1-1.2-1.4-1.5c-0.1-0.1-0.2-0.3-0.2-0.5
		C496.9,425.5,497,425.4,497.1,425.3z M500.6,433c1.1-0.8,2-1.8,2.6-2.9s0.9-2.3,0.9-3.5v-0.2c0-0.1,0-0.1-0.1-0.1h-2
		c-0.2,0-0.3-0.1-0.5-0.2c-0.1-0.1-0.2-0.3-0.2-0.5s0.1-0.3,0.2-0.5s0.3-0.2,0.5-0.2h2.8c0.2,0,0.4,0.1,0.6,0.2
		c0.2,0.2,0.2,0.3,0.2,0.6v0.4c0,1.5,0.2,2.9,0.7,4c0.5,1.1,1.1,2.1,1.9,2.8c0.1,0.1,0.2,0.3,0.3,0.5s0,0.4-0.1,0.5
		c-0.1,0.2-0.3,0.3-0.5,0.3c-0.2,0-0.4,0-0.5-0.1c-1.2-1-2-2.4-2.6-4.2c0-0.1,0-0.1-0.1,0c-0.4,0.8-0.8,1.6-1.4,2.4
		c-0.6,0.7-1.2,1.4-1.9,1.8c-0.2,0.1-0.3,0.2-0.5,0.1c-0.2,0-0.4-0.1-0.5-0.3c-0.1-0.2-0.2-0.3-0.1-0.5
		C500.4,433.2,500.5,433.1,500.6,433z"/>
	<path class="st1" d="M513.1,435.9c-0.6,0-1.2-0.3-1.7-0.9c-0.5-0.6-0.8-1.3-0.8-2.1c0-0.8,0.4-1.4,1.2-2c0.8-0.6,1.8-0.9,3.2-1.1
		c0.1,0,0.1,0,0.1-0.1c0.1-0.6,0.3-1.6,0.4-2.9c0-0.1,0-0.1-0.1-0.1c-1.1,0.1-2.2,0.2-3.1,0.2c-0.2,0-0.3,0-0.5-0.2
		s-0.2-0.3-0.2-0.4c0-0.2,0.1-0.3,0.2-0.5s0.3-0.2,0.5-0.2c2-0.1,3.3-0.2,4-0.2c0.2,0,0.3,0,0.4,0.1s0.2,0.2,0.2,0.4
		c0,0.4,0,0.8,0,1.2c-0.1,0.7-0.2,1.5-0.4,2.5c0,0.1,0,0.1,0.1,0.1c0.9,0,1.7,0.2,2.5,0.3c0.1,0,0.1,0,0.1-0.1
		c0.1-0.9,0.1-1.8,0.1-2.8c0-0.2,0.1-0.4,0.2-0.5c0.1-0.1,0.3-0.2,0.5-0.2s0.4,0.1,0.5,0.2c0.1,0.1,0.2,0.3,0.2,0.5
		c0,1.2-0.1,2.2-0.2,3.2c0,0.1,0,0.1,0.1,0.2c0.4,0.1,0.9,0.4,1.5,0.6c0.2,0.1,0.3,0.2,0.3,0.4s0,0.3,0,0.5
		c-0.1,0.2-0.2,0.3-0.4,0.3c-0.2,0.1-0.3,0-0.5,0c-0.4-0.2-0.8-0.4-1.1-0.5c-0.1,0-0.1,0-0.1,0.1c-0.2,1.1-0.5,2-0.9,2.6
		c-0.4,0.6-1,1.2-1.7,1.6c-0.2,0.1-0.3,0.1-0.5,0.1c-0.2,0-0.3-0.1-0.4-0.3c-0.1-0.1-0.1-0.3-0.1-0.5s0.1-0.3,0.3-0.4
		c0.6-0.4,1-0.9,1.4-1.4s0.6-1.2,0.7-2.2c0-0.1,0-0.1-0.1-0.1c-0.9-0.2-1.8-0.4-2.6-0.4c-0.1,0-0.1,0-0.1,0.1
		c-0.2,1-0.4,1.8-0.7,2.4c-0.2,0.6-0.5,1.1-0.7,1.5s-0.5,0.6-0.8,0.7S513.4,435.9,513.1,435.9z M514.7,431c-0.9,0.1-1.5,0.3-2,0.7
		c-0.5,0.3-0.7,0.7-0.7,1.1c0,0.4,0.1,0.8,0.4,1.1c0.3,0.3,0.5,0.5,0.8,0.5c0.6,0,1.2-1.1,1.7-3.3
		C514.8,431.1,514.8,431.1,514.7,431C514.7,431,514.7,431,514.7,431z"/>
	<path class="st1" d="M525.7,428.9c-0.2,0-0.3,0-0.5-0.1c-0.1-0.1-0.2-0.2-0.2-0.4c0-0.2,0-0.3,0.2-0.5c0.1-0.1,0.3-0.2,0.4-0.2
		c1.1-0.1,1.7-0.2,2-0.2c0.1,0,0.1,0,0.1-0.1c0.2-0.8,0.3-1.5,0.4-2.2c0-0.2,0.1-0.4,0.3-0.5c0.1-0.1,0.3-0.2,0.5-0.2
		c0.2,0,0.3,0.1,0.5,0.2s0.2,0.3,0.2,0.5c-0.1,0.7-0.2,1.4-0.3,2c0,0.1,0,0.1,0.1,0.1c0.4,0,0.7,0,0.9,0c0.4,0,0.8,0,1,0
		c0.3,0,0.5,0.1,0.7,0.2s0.4,0.2,0.5,0.3s0.2,0.3,0.3,0.6c0.1,0.3,0.1,0.5,0.1,0.8c0,0.3,0,0.7,0,1.2c0,1.8-0.3,3.2-0.8,4.2
		c-0.6,1-1.2,1.5-2,1.5c-0.5,0-1.1-0.2-1.8-0.7c-0.2-0.1-0.3-0.2-0.3-0.4c-0.1-0.2,0-0.4,0.1-0.5c0.1-0.2,0.2-0.3,0.4-0.3
		s0.4,0,0.5,0.1c0.5,0.3,0.9,0.5,1.1,0.5c0.2,0,0.3-0.1,0.5-0.3c0.2-0.2,0.3-0.5,0.5-0.8c0.1-0.4,0.3-0.8,0.3-1.5s0.1-1.3,0.1-2.1
		c0-0.7-0.1-1.2-0.2-1.4s-0.5-0.3-1.1-0.3c-0.3,0-0.6,0-1.1,0c-0.1,0-0.1,0-0.2,0.1c-0.5,2.3-1.3,4.6-2.5,6.9
		c-0.1,0.2-0.2,0.3-0.4,0.4s-0.4,0.1-0.5,0c-0.2-0.1-0.3-0.2-0.4-0.4c-0.1-0.2-0.1-0.3,0-0.5c1-2.1,1.8-4.2,2.3-6.3
		c0-0.1,0-0.1-0.1-0.1C527.1,428.8,526.6,428.8,525.7,428.9z M534.2,427.5c-0.1,0.1-0.3,0.1-0.5,0c-0.2-0.1-0.3-0.2-0.4-0.3
		c-0.1-0.1-0.2-0.3-0.3-0.6s-0.2-0.4-0.3-0.6c-0.1-0.1-0.1-0.3-0.1-0.5s0.1-0.3,0.3-0.4c0.2-0.1,0.3-0.1,0.5,0
		c0.2,0.1,0.3,0.2,0.4,0.3c0.1,0.3,0.3,0.6,0.6,1.2c0.1,0.2,0.1,0.3,0,0.5C534.5,427.3,534.4,427.4,534.2,427.5z M535.5,429
		c0.6,1.4,1.2,2.7,1.6,3.8c0.1,0.2,0.1,0.4,0,0.5s-0.2,0.3-0.4,0.4c-0.2,0.1-0.4,0.1-0.5,0s-0.3-0.2-0.4-0.4c-0.5-1.3-1-2.6-1.5-3.7
		c-0.1-0.2-0.1-0.4,0-0.5c0.1-0.2,0.2-0.3,0.4-0.4c0.2-0.1,0.4-0.1,0.5,0C535.3,428.7,535.4,428.8,535.5,429z M536.6,426.6
		c-0.1,0.2-0.2,0.3-0.3,0.4c-0.2,0.1-0.3,0.1-0.5,0s-0.3-0.2-0.4-0.3c-0.1-0.1-0.2-0.3-0.3-0.6s-0.3-0.4-0.3-0.6
		c-0.1-0.2-0.1-0.3,0-0.5c0.1-0.2,0.2-0.3,0.3-0.4c0.2-0.1,0.3-0.1,0.5,0c0.2,0.1,0.3,0.2,0.4,0.3c0.1,0.3,0.4,0.7,0.6,1.2
		C536.7,426.3,536.7,426.4,536.6,426.6z"/>
	<path class="st1" d="M539.4,427.8c-0.2,0-0.4-0.1-0.5-0.2c-0.1-0.1-0.2-0.3-0.2-0.5c0-0.2,0.1-0.4,0.2-0.5c0.1-0.1,0.3-0.2,0.5-0.2
		c3.1,0,6.4-0.3,9.7-0.7c0.2,0,0.3,0,0.5,0.1c0.1,0.1,0.2,0.3,0.2,0.4c0,0.2,0,0.4-0.1,0.5c-0.1,0.1-0.3,0.2-0.4,0.3
		c-1.8,0.3-3.1,0.8-4.1,1.6c-0.9,0.8-1.4,1.7-1.4,2.7c0,0.9,0.3,1.7,1,2.3c0.6,0.6,1.6,1,2.8,1.1c0.2,0,0.4,0.1,0.5,0.3
		c0.1,0.1,0.2,0.3,0.1,0.5c0,0.2-0.1,0.3-0.3,0.5s-0.3,0.2-0.5,0.2c-1.6-0.2-2.9-0.7-3.8-1.5c-0.9-0.8-1.4-1.8-1.4-3.1
		c0-0.9,0.2-1.7,0.7-2.4c0.5-0.7,1.2-1.3,2.1-1.8c0,0,0,0,0,0c0,0,0,0,0,0C543,427.6,541.2,427.8,539.4,427.8z M547.1,429
		c0.2-0.1,0.3-0.1,0.5,0s0.3,0.2,0.4,0.3c0.1,0.3,0.4,0.6,0.6,1.2c0.1,0.2,0.1,0.3,0,0.5c-0.1,0.2-0.2,0.3-0.3,0.3
		c-0.1,0.1-0.3,0.1-0.5,0c-0.2-0.1-0.3-0.2-0.4-0.3c-0.1-0.1-0.2-0.3-0.3-0.6c-0.1-0.3-0.2-0.4-0.3-0.6c-0.1-0.1-0.1-0.3,0-0.5
		C546.9,429.2,547,429,547.1,429z M550.1,428.7c0.1,0.3,0.4,0.7,0.6,1.2c0.1,0.1,0.1,0.3,0,0.5c-0.1,0.2-0.2,0.3-0.3,0.4
		c-0.2,0.1-0.3,0.1-0.5,0c-0.2-0.1-0.3-0.2-0.4-0.3c-0.1-0.1-0.2-0.3-0.3-0.6c-0.1-0.3-0.3-0.4-0.3-0.6c-0.1-0.2-0.1-0.3,0-0.5
		c0.1-0.2,0.2-0.3,0.3-0.4c0.2-0.1,0.3-0.1,0.5,0C549.9,428.5,550,428.6,550.1,428.7z"/>
	<path class="st1" d="M553.7,430.4c-0.2,0-0.3-0.1-0.4-0.2c-0.1-0.1-0.2-0.3-0.2-0.4s0.1-0.3,0.2-0.4c0.1-0.1,0.3-0.2,0.4-0.2
		c1.8,0,3.6-0.1,5.3-0.3c0,0,0.1,0,0.1,0c0,0,0-0.1,0-0.1c-0.2-0.5-0.3-0.9-0.4-1.1c0-0.1-0.1-0.1-0.2-0.1c-1.3,0.1-2.6,0.2-3.9,0.2
		c-0.2,0-0.3-0.1-0.4-0.2c-0.1-0.1-0.2-0.3-0.2-0.4c0-0.2,0.1-0.3,0.2-0.4c0.1-0.1,0.3-0.2,0.4-0.2c1.1,0,2.3-0.1,3.6-0.2
		c0.1,0,0.1,0,0.1-0.1c-0.1-0.2-0.1-0.6-0.2-1c0-0.2,0-0.4,0.1-0.5c0.1-0.1,0.3-0.2,0.5-0.2c0.2,0,0.4,0.1,0.5,0.2s0.2,0.3,0.3,0.5
		c0.1,0.4,0.1,0.7,0.2,0.9c0,0.1,0.1,0.1,0.2,0.1c0.8-0.1,1.7-0.2,2.5-0.4c0.2,0,0.3,0,0.4,0.1c0.1,0.1,0.2,0.2,0.2,0.4
		c0,0.2,0,0.3-0.1,0.5c-0.1,0.1-0.2,0.2-0.4,0.2c-0.7,0.1-1.5,0.2-2.3,0.3c-0.1,0-0.1,0.1-0.1,0.1c0.2,0.5,0.3,0.9,0.4,1.1
		c0,0.1,0.1,0.1,0.2,0.1c0.8-0.1,1.7-0.2,2.7-0.4c0.2,0,0.3,0,0.4,0.1c0.1,0.1,0.2,0.2,0.2,0.4c0,0.2,0,0.3-0.1,0.4
		c-0.1,0.1-0.2,0.2-0.4,0.2c-0.7,0.1-1.5,0.2-2.4,0.3c0,0,0,0-0.1,0c0,0,0,0.1,0,0.1c0.3,0.6,0.7,1.3,1.1,2c0.1,0.2,0.1,0.4,0.1,0.6
		c-0.1,0.2-0.2,0.3-0.4,0.4l-0.1,0c-0.5,0.2-0.9,0.2-1.4,0c-0.9-0.4-1.7-0.6-2.5-0.6c-1.4,0-2,0.4-2,1.3c0,1.1,1.1,1.6,3.2,1.6
		c0.7,0,1.5-0.1,2.4-0.2c0.2,0,0.3,0,0.5,0.1c0.1,0.1,0.2,0.2,0.2,0.4s0,0.3-0.1,0.5c-0.1,0.1-0.2,0.2-0.4,0.2
		c-0.9,0.1-1.7,0.2-2.6,0.2c-1.5,0-2.7-0.2-3.5-0.7c-0.8-0.5-1.2-1.2-1.2-2.1c0-0.7,0.3-1.3,0.8-1.8s1.4-0.7,2.7-0.7
		c0.9,0,1.8,0.2,2.6,0.6h0v0c-0.4-0.6-0.7-1.2-0.9-1.6c0-0.1-0.1-0.1-0.2-0.1C557.4,430.2,555.5,430.4,553.7,430.4z"/>
	<path class="st1" d="M567.9,427.7c-0.2,0-0.3-0.1-0.4-0.2c-0.1-0.1-0.2-0.3-0.2-0.4s0.1-0.3,0.2-0.4c0.1-0.1,0.3-0.2,0.4-0.2
		c1.6,0,3.1-0.1,4.6-0.1c0.1,0,0.1,0,0.1-0.1c0-0.4,0-0.8,0.1-1c0-0.2,0.1-0.4,0.2-0.5c0.1-0.1,0.3-0.2,0.5-0.2
		c0.2,0,0.4,0.1,0.5,0.2s0.2,0.3,0.2,0.5l0,0.9c0,0.1,0,0.1,0.1,0.1c0.8,0,1.8-0.1,3.1-0.3c0.2,0,0.3,0,0.4,0.1s0.2,0.2,0.2,0.4
		c0,0.2,0,0.3-0.1,0.4s-0.2,0.2-0.4,0.2c-1.3,0.1-2.4,0.2-3.2,0.3c-0.1,0-0.1,0-0.1,0.1c0,0.6,0,1,0,1.2c0,0.1,0,0.1,0.1,0.1
		c0.8-0.1,1.7-0.2,2.5-0.3c0.2,0,0.3,0,0.4,0.1s0.2,0.2,0.2,0.4c0,0.2,0,0.3-0.1,0.4s-0.2,0.2-0.4,0.2c-0.9,0.1-1.7,0.2-2.6,0.3
		c-0.1,0-0.1,0-0.1,0.1c0,0,0,0.1,0,0.2c0,0.1,0,0.1,0,0.2c0,0.2,0,0.5,0,0.9s0,0.7,0,0.9c0,0.1,0,0.2,0.1,0.2
		c0.8,0.4,1.7,1,2.9,1.9c0.1,0.1,0.2,0.2,0.2,0.4c0,0.2,0,0.3-0.1,0.5c-0.1,0.1-0.3,0.2-0.4,0.2c-0.2,0-0.3,0-0.5-0.1
		c-0.7-0.6-1.4-1-2.1-1.4c-0.1,0-0.1,0-0.1,0.1c-0.1,0.8-0.4,1.3-0.9,1.7c-0.5,0.3-1.2,0.5-2.2,0.5c-1,0-1.7-0.2-2.2-0.6
		s-0.8-1-0.8-1.8c0-0.7,0.3-1.2,0.8-1.6s1.3-0.6,2.2-0.6c0.5,0,1,0.1,1.6,0.2c0,0,0.1,0,0.1,0s0,0,0-0.1c0-0.1,0-0.3,0-0.6
		c0-0.3,0-0.5,0-0.6c0,0,0-0.1,0-0.1c0,0,0-0.1,0-0.1c0-0.1,0-0.1-0.1-0.1c-1.1,0.1-2.4,0.1-4,0.1c-0.2,0-0.3-0.1-0.4-0.2
		c-0.1-0.1-0.2-0.3-0.2-0.4s0.1-0.3,0.2-0.4c0.1-0.1,0.3-0.2,0.4-0.2c1.6,0,2.9-0.1,4-0.1c0.1,0,0.1,0,0.1-0.1c0-0.3,0-0.7,0-1.3
		c0-0.1,0-0.1-0.1-0.1C571.1,427.7,569.6,427.7,567.9,427.7z M571.1,435.1c0.6,0,1-0.1,1.3-0.4c0.2-0.2,0.3-0.7,0.3-1.3
		c0-0.1,0-0.2-0.1-0.2c-0.5-0.2-1-0.3-1.5-0.3c-1.1,0-1.6,0.3-1.6,1C569.5,434.7,570.1,435.1,571.1,435.1z"/>
	<path class="st1" d="M581.3,427.6c-0.2,0-0.3-0.1-0.4-0.2c-0.1-0.1-0.2-0.3-0.2-0.4s0.1-0.3,0.2-0.4c0.1-0.1,0.3-0.2,0.4-0.2
		c2.1,0,4.1-0.1,6-0.2c0.1,0,0.1,0,0.1-0.1c0-0.4,0-0.8,0-1c0-0.2,0.1-0.4,0.2-0.5c0.1-0.1,0.3-0.2,0.5-0.2c0.2,0,0.3,0.1,0.5,0.2
		c0.1,0.1,0.2,0.3,0.2,0.5c0,0.2,0,0.5,0,1c0,0.1,0,0.1,0.1,0.1c0.9,0,1.9-0.1,3.1-0.2c0.2,0,0.3,0,0.4,0.1s0.2,0.2,0.2,0.4
		c0,0.2,0,0.3-0.1,0.4s-0.2,0.2-0.4,0.2c-1.1,0.1-2.2,0.1-3.1,0.2c-0.1,0-0.1,0-0.1,0.1c0,1.4,0.1,2.1,0.1,2.4c0,0.1,0,0.2,0,0.2
		c0.2,0.6,0.3,1.2,0.3,2c0,2.5-1.5,4-4.4,4.4c-0.2,0-0.4,0-0.5-0.1c-0.2-0.1-0.3-0.3-0.3-0.5c0-0.2,0-0.4,0.1-0.5
		c0.1-0.1,0.3-0.2,0.4-0.3c1.7-0.2,2.8-0.8,3.1-1.8c0,0,0.1-0.2,0.1-0.5c0,0,0,0,0,0h0c-0.4,0.5-1,0.7-1.8,0.7c-0.8,0-1.4-0.3-2-0.8
		s-0.8-1.1-0.8-1.9c0-0.8,0.3-1.4,0.8-1.9c0.5-0.5,1.2-0.7,2-0.7c0.5,0,1,0.1,1.5,0.4h0l0,0c0,0,0,0,0,0c0-0.2,0-0.6,0-1
		c0-0.1,0-0.1-0.1-0.1C585.2,427.5,583.2,427.6,581.3,427.6z M585.1,431.9c0.3,0.3,0.6,0.4,1,0.4s0.7-0.1,1-0.4s0.4-0.6,0.4-1
		s-0.1-0.7-0.4-1c-0.3-0.3-0.6-0.4-1-0.4s-0.7,0.1-1,0.4c-0.3,0.3-0.4,0.6-0.4,1S584.8,431.6,585.1,431.9z"/>
	<path class="st1" d="M598.1,436.3c-0.4,0.4-1,0.7-1.6,0.7s-1.1-0.2-1.6-0.7c-0.4-0.4-0.7-1-0.7-1.6s0.2-1.1,0.7-1.6s1-0.7,1.6-0.7
		s1.1,0.2,1.6,0.7s0.7,1,0.7,1.6S598.6,435.8,598.1,436.3z M597.4,433.9c-0.2-0.2-0.5-0.3-0.8-0.3c-0.3,0-0.6,0.1-0.8,0.3
		c-0.2,0.2-0.3,0.5-0.3,0.8c0,0.3,0.1,0.6,0.3,0.8c0.2,0.2,0.5,0.3,0.8,0.3c0.3,0,0.6-0.1,0.8-0.3c0.2-0.2,0.3-0.5,0.3-0.8
		C597.7,434.4,597.6,434.1,597.4,433.9z"/>
</g>
<g>
	<g>
		<defs>
			<rect id="SVGID_1_" y="-164.6" width="640" height="1404"/>
		</defs>
		<clipPath id="SVGID_2_">
			<use xlink:href="#SVGID_1_"  style="overflow:visible;"/>
		</clipPath>
		<line class="st2" x1="0.1" y1="444" x2="639.4" y2="444"/>
	</g>
</g>
</svg>
