<?xml version="1.0" encoding="utf-8"?>
<!-- Generator: Adobe Illustrator 19.0.0, SVG Export Plug-In . SVG Version: 6.00 Build 0)  -->
<svg version="1.1" id="レイヤー_1" xmlns="http://www.w3.org/2000/svg" xmlns:xlink="http://www.w3.org/1999/xlink" x="0px"
	 y="0px" viewBox="0 0 875 55" style="enable-background:new 0 0 875 55;" xml:space="preserve">
<style type="text/css">
	.st0{fill:none;}
	.st1{fill:#E99413;}
	.st2{fill:none;stroke:#E99413;stroke-width:3;stroke-miterlimit:10;}
</style>
<g id="XMLID_30_">
	<rect id="XMLID_2_" x="19.7" y="-0.1" class="st0" width="628.9" height="55.9"/>
	<path class="st1" d="M24.8,44.6c-0.7,0-1.3-0.2-1.8-0.6c-0.5-0.4-0.8-1-0.8-1.7c0-0.7,0.2-1.2,0.6-1.7c0.4-0.5,1-0.7,1.7-0.8
		c1.3-0.1,3.5-0.2,6.7-0.4c0.3,0,0.4-0.1,0.4-0.4v-1.2c0-0.3-0.1-0.4-0.4-0.4H25c-0.6,0-1.1-0.2-1.6-0.6c-0.4-0.4-0.6-1-0.6-1.6
		c0-0.6,0.2-1.1,0.6-1.5c0.4-0.4,1-0.6,1.6-0.6h6.1c0.3,0,0.4-0.1,0.4-0.4v-1c0-0.3-0.1-0.4-0.4-0.4h-2.4h-2.5
		c-0.7,0-1.4-0.3-1.9-0.8c-0.5-0.5-0.8-1.1-0.8-1.9v-9.1c0-0.7,0.3-1.4,0.8-1.9c0.5-0.5,1.1-0.8,1.9-0.8h5c0.3,0,0.4-0.1,0.4-0.4v-1
		c0-0.3-0.1-0.4-0.4-0.4h-6.5c-0.6,0-1.1-0.2-1.5-0.6c-0.4-0.4-0.6-1-0.6-1.6c0-0.6,0.2-1.1,0.6-1.5c0.4-0.4,0.9-0.6,1.5-0.6h6.5
		c0.3,0,0.4-0.1,0.4-0.4V9.2c0-0.3-0.1-0.4-0.4-0.4c-0.5,0-1.1,0.1-1.7,0.1c-0.6,0-1.3,0.1-2,0.1c-0.7,0-1.3,0.1-1.7,0.1
		c-0.6,0-1.2-0.2-1.7-0.6c-0.5-0.4-0.7-1-0.8-1.6c-0.1-0.6,0.1-1.2,0.6-1.7s1-0.7,1.6-0.7c6.2-0.3,12-0.8,17.3-1.6
		C43.4,2.8,44,3,44.5,3.4c0.5,0.4,0.8,0.9,0.9,1.6c0.1,0.6-0.1,1.2-0.5,1.8c-0.4,0.6-0.9,0.9-1.6,0.9c-1.5,0.2-3.3,0.4-5.3,0.6
		c-0.3,0-0.4,0.1-0.4,0.4v1.7c0,0.3,0.1,0.4,0.4,0.4h5.5c1,0,1.7,0.5,2,1.4c0.1,0.2,0.2,0.3,0.4,0.1c0.5-0.3,1-0.5,1.5-0.5h1.7
		c0.3,0,0.4-0.1,0.4-0.4c0.1-2.6,0.1-4.7,0.1-6.3c0-0.7,0.3-1.4,0.8-1.9c0.5-0.5,1.2-0.8,1.9-0.8h0.1c0.7,0,1.4,0.3,1.9,0.8
		c0.5,0.5,0.8,1.2,0.8,1.9c0,0.3,0,2.4-0.1,6.3c0,0.3,0.1,0.4,0.4,0.4h7c0.7,0,1.4,0.3,1.9,0.8c0.5,0.5,0.8,1.2,0.8,1.9v1.1
		c0,4.8,0,8.6-0.1,11.6c0,3-0.2,5.6-0.4,7.9c-0.2,2.3-0.4,4-0.6,5.1c-0.2,1.1-0.6,2-1.2,2.7c-0.5,0.7-1.1,1.1-1.6,1.2
		c-0.5,0.1-1.3,0.2-2.3,0.2c-0.8,0-2-0.1-3.7-0.2c-0.8-0.1-1.4-0.4-1.9-0.9c-0.5-0.6-0.8-1.2-0.8-2v-0.2c0-0.7,0.2-1.3,0.7-1.7
		c0.5-0.4,1.1-0.6,1.8-0.6c0.9,0.1,1.6,0.1,2.1,0.1c0.5,0,0.9-0.4,1.2-1.1c0.3-0.7,0.5-2.5,0.6-5.3c0.2-2.8,0.3-7,0.3-12.6v-2.3
		c0-0.3-0.1-0.4-0.4-0.4h-3.5c-0.3,0-0.4,0.1-0.4,0.4c-0.4,6.2-1,11.3-1.9,15.2c-0.9,3.9-2.2,7.4-3.9,10.3c-0.4,0.6-0.9,1-1.6,1.2
		c-0.7,0.2-1.4,0-2-0.4l-0.2-0.2c-0.3-0.2-0.5-0.4-0.5-0.4c-0.2-0.2-0.4-0.3-0.6-0.1c-0.3,0.1-0.6,0.2-0.7,0.2
		C37.4,43.8,31.2,44.3,24.8,44.6z M28.7,21v1.2c0,0.3,0.1,0.4,0.4,0.4h2.2c0.3,0,0.4-0.1,0.4-0.4V21c0-0.3-0.1-0.4-0.4-0.4h-2.2
		C28.8,20.6,28.7,20.7,28.7,21z M31.3,27.5c0.3,0,0.4-0.1,0.4-0.4v-1.2c0-0.3-0.1-0.4-0.4-0.4h-2.2c-0.3,0-0.4,0.1-0.4,0.4v1.2
		c0,0.3,0.1,0.4,0.4,0.4H31.3z M37.5,21v1.2c0,0.3,0.1,0.4,0.4,0.4H40c0.3,0,0.4-0.1,0.4-0.4V21c0-0.3-0.1-0.4-0.4-0.4h-2.1
		C37.6,20.6,37.5,20.7,37.5,21z M37.5,25.8v1.2c0,0.3,0.1,0.4,0.4,0.4H40c0.3,0,0.4-0.1,0.4-0.4v-1.2c0-0.3-0.1-0.4-0.4-0.4h-2.1
		C37.6,25.5,37.5,25.6,37.5,25.8z M37.7,15.5v1c0,0.3,0.1,0.4,0.4,0.4h4.6c0.7,0,1.4,0.3,1.9,0.8s0.8,1.2,0.8,1.9v9.1
		c0,0.7-0.3,1.4-0.8,1.9c-0.5,0.5-1.2,0.8-1.9,0.8h-4.6c-0.3,0-0.4,0.1-0.4,0.4v1c0,0.3,0.1,0.4,0.4,0.4h4.8c0.6,0,1.1,0.2,1.5,0.6
		c0.4,0.4,0.6,0.9,0.6,1.5c0,0.6-0.2,1.1-0.6,1.6c-0.4,0.4-0.9,0.6-1.5,0.6h-4.8c-0.3,0-0.4,0.1-0.4,0.4v0.8c0,0.3,0.1,0.4,0.4,0.4
		c2.2-0.2,3.9-0.3,4.9-0.4c0.4,0,0.9,0.1,1.3,0.3c0.3,0.1,0.4,0.1,0.5-0.1c2.4-4.7,3.9-11.8,4.5-21.4c0-0.3-0.1-0.4-0.4-0.4h-1.4
		c-0.6,0-1.2-0.2-1.6-0.6C45.3,16,45,15.6,44.9,15c-0.1-0.2-0.2-0.3-0.4-0.1c-0.3,0.2-0.6,0.2-1,0.2h-5.5
		C37.8,15.1,37.7,15.2,37.7,15.5z"/>
	<path class="st1" d="M73.3,9c-0.7,0-1.3-0.3-1.8-0.8c-0.5-0.5-0.8-1.1-0.8-1.8c0-0.7,0.3-1.3,0.8-1.8c0.5-0.5,1.1-0.8,1.8-0.8h36.9
		c0.7,0,1.3,0.3,1.8,0.8c0.5,0.5,0.8,1.1,0.8,1.8c0,0.7-0.3,1.3-0.8,1.8c-0.5,0.5-1.1,0.8-1.8,0.8H95c-0.3,0-0.4,0.1-0.4,0.4v2.8
		c0,0.3,0.1,0.4,0.4,0.4h6c0.7,0,1.4,0.3,1.9,0.8c0.5,0.5,0.8,1.1,0.8,1.9v17.4c0,0.7-0.3,1.4-0.8,1.9c-0.5,0.5-1.1,0.8-1.9,0.8
		H85.1h-2.6c-0.7,0-1.4-0.3-1.9-0.8c-0.5-0.5-0.8-1.2-0.8-1.9V15.2c0-0.7,0.3-1.4,0.8-1.9c0.5-0.5,1.1-0.8,1.9-0.8h6
		c0.3,0,0.4-0.1,0.4-0.4V9.4c0-0.3-0.1-0.4-0.4-0.4H73.3z M74.9,14c0.7,0,1.4,0.3,1.9,0.8c0.5,0.5,0.8,1.2,0.8,1.9v20.6
		c0,0.3,0.1,0.4,0.4,0.4h27.6c0.3,0,0.4-0.1,0.4-0.4V16.7c0-0.7,0.3-1.4,0.8-1.9c0.5-0.5,1.1-0.8,1.9-0.8h0.5c0.7,0,1.4,0.3,1.9,0.8
		c0.5,0.5,0.8,1.2,0.8,1.9v25.4c0,0.7-0.3,1.4-0.8,1.9c-0.5,0.5-1.1,0.8-1.9,0.8h-1.2c-0.5,0-1-0.2-1.3-0.5
		c-0.4-0.4-0.5-0.8-0.5-1.3c0-0.2-0.1-0.3-0.3-0.3H77.8c-0.2,0-0.3,0.1-0.3,0.3c0,0.5-0.2,1-0.5,1.3c-0.4,0.4-0.8,0.5-1.3,0.5h-1.2
		c-0.7,0-1.4-0.3-1.9-0.8c-0.5-0.5-0.8-1.1-0.8-1.9V16.7c0-0.7,0.3-1.4,0.8-1.9c0.5-0.5,1.1-0.8,1.9-0.8H74.9z M88.9,21.4v-3.9
		c0-0.3-0.1-0.4-0.4-0.4h-2.9c-0.3,0-0.4,0.1-0.4,0.4v3.9c0,0.3,0.1,0.4,0.4,0.4h2.9C88.7,21.8,88.9,21.6,88.9,21.4z M88.9,30.4
		v-4.2c0-0.3-0.1-0.4-0.4-0.4h-2.9c-0.3,0-0.4,0.1-0.4,0.4v4.2c0,0.3,0.1,0.4,0.4,0.4h2.9C88.7,30.8,88.9,30.6,88.9,30.4z
		 M94.6,17.5v3.9c0,0.3,0.1,0.4,0.4,0.4H98c0.3,0,0.4-0.1,0.4-0.4v-3.9c0-0.3-0.1-0.4-0.4-0.4H95C94.8,17.1,94.6,17.2,94.6,17.5z
		 M94.6,26.2v4.2c0,0.3,0.1,0.4,0.4,0.4H98c0.3,0,0.4-0.1,0.4-0.4v-4.2c0-0.3-0.1-0.4-0.4-0.4H95C94.8,25.8,94.6,25.9,94.6,26.2z"/>
	<path class="st1" d="M121.1,25.9c-0.7,0-1.4-0.3-1.9-0.8c-0.5-0.5-0.8-1.1-0.8-1.9v-1c0-0.7,0.3-1.4,0.8-1.9
		c0.5-0.5,1.1-0.8,1.9-0.8h37.3c0.7,0,1.4,0.3,1.9,0.8c0.5,0.5,0.8,1.1,0.8,1.9v1c0,0.7-0.3,1.4-0.8,1.9c-0.5,0.5-1.1,0.8-1.9,0.8
		H121.1z"/>
	<path class="st1" d="M167.4,43.2L167.4,43.2c-0.2-0.7-0.2-1.3,0.2-1.8c0.4-0.5,0.9-0.8,1.5-0.9c4.9-0.4,8-1.5,9.3-3
		c0.2-0.2,0.1-0.3-0.1-0.3h-1.2h-3.6c-0.7,0-1.4-0.3-1.9-0.8c-0.5-0.5-0.8-1.2-0.8-1.9V23.6c0-0.8,0.3-1.4,0.8-1.9
		c0.1-0.1,0.1-0.1,0-0.2c0,0-0.1-0.1-0.1-0.1h-1.1c-0.7,0-1.4-0.3-1.9-0.8c-0.5-0.5-0.8-1.2-0.8-1.9v-13c0-0.7,0.3-1.4,0.8-1.9
		c0.5-0.5,1.1-0.8,1.9-0.8h15.9c0.5,0,1,0.2,1.3,0.6c0.4,0.4,0.6,0.8,0.6,1.4s-0.2,1-0.6,1.4c-0.4,0.4-0.8,0.6-1.3,0.6h-3
		c-0.3,0-0.4,0.1-0.4,0.4v0.6c0,0.3,0.1,0.4,0.4,0.4h0.7c0.7,0,1.4,0.3,1.9,0.8c0.5,0.5,0.8,1.2,0.8,1.9v1.3c0,0.7-0.3,1.4-0.8,1.9
		c-0.5,0.5-1.1,0.8-1.9,0.8h-0.7c-0.3,0-0.4,0.1-0.4,0.4v0.5c0,0.3,0.1,0.4,0.4,0.4h3.6c0.5,0,0.9,0.2,1.2,0.5
		c0.4,0.4,0.5,0.8,0.5,1.2c0,0.5-0.2,0.9-0.5,1.2c-0.4,0.4-0.8,0.5-1.2,0.5h-13.2c-0.2,0-0.2,0.1-0.2,0.2c0,0.2,0,0.3-0.1,0.5
		c-0.1,0.2,0,0.3,0.2,0.3H202c0.7,0,1.4,0.3,1.9,0.8c0.5,0.5,0.8,1.2,0.8,1.9V35c0,0.3,0.1,0.4,0.4,0.5l0.9,0c0.7,0.1,1.4,0.4,1.8,1
		c0.5,0.6,0.7,1.3,0.6,2c-0.1,0.7-0.1,1.3-0.2,1.8c0,0.5-0.1,1-0.3,1.5c-0.1,0.5-0.2,0.8-0.3,1.2c-0.1,0.3-0.3,0.6-0.6,0.9
		c-0.3,0.3-0.5,0.5-0.7,0.6c-0.2,0.1-0.5,0.3-1,0.4c-0.5,0.1-0.9,0.2-1.2,0.3c-0.3,0-0.9,0.1-1.6,0.1c-0.7,0-1.4,0.1-1.9,0.1
		c-0.5,0-1.3,0-2.4,0c-2.9,0-5-0.1-6.1-0.3c-1.2-0.2-2-0.5-2.3-0.9c-0.4-0.4-0.6-1.2-0.6-2.4v-4.2c0-0.3-0.1-0.4-0.4-0.4h-3.1
		c-0.3,0-0.4,0.1-0.6,0.4c-1.6,4.3-6.4,6.9-14.3,7.9c-0.8,0.1-1.5-0.1-2.2-0.5C168.2,44.5,167.7,44,167.4,43.2z M173.6,7.3v0.6
		c0,0.3,0.1,0.4,0.4,0.4h3.1c0.3,0,0.4-0.1,0.4-0.4V7.3c0-0.3-0.1-0.4-0.4-0.4H174C173.8,6.9,173.6,7.1,173.6,7.3z M173.6,11.3v0.6
		c0,0.3,0.1,0.4,0.4,0.4h6.6c0.3,0,0.4-0.1,0.4-0.4v-0.6c0-0.3-0.1-0.4-0.4-0.4H174C173.8,10.9,173.6,11.1,173.6,11.3z M173.6,15.4
		v0.5c0,0.3,0.1,0.4,0.4,0.4h3.1c0.3,0,0.4-0.1,0.4-0.4v-0.5c0-0.3-0.1-0.4-0.4-0.4H174C173.8,14.9,173.6,15.1,173.6,15.4z
		 M177.1,24.8v0.5c0,0.3,0.1,0.4,0.4,0.4H198c0.3,0,0.4-0.1,0.4-0.4v-0.5c0-0.3-0.1-0.4-0.4-0.4h-20.5
		C177.2,24.4,177.1,24.5,177.1,24.8z M177.1,28.7v0.5c0,0.3,0.1,0.4,0.4,0.4H198c0.3,0,0.4-0.1,0.4-0.4v-0.5c0-0.3-0.1-0.4-0.4-0.4
		h-20.5C177.2,28.2,177.1,28.4,177.1,28.7z M177.5,33.4H198c0.3,0,0.4-0.1,0.4-0.4v-0.5c0-0.3-0.1-0.4-0.4-0.4h-20.5
		c-0.3,0-0.4,0.1-0.4,0.4V33C177.1,33.2,177.2,33.4,177.5,33.4z M194.6,9.8c-0.3,0.5-0.9,1.4-2,2.8c-0.2,0.2-0.1,0.3,0.2,0.3h12.4
		c0.6,0,1.2,0.2,1.7,0.7c0.5,0.5,0.7,1,0.7,1.7c0,0.6-0.2,1.2-0.7,1.7c-0.5,0.5-1,0.7-1.7,0.7h-13c-0.5,0-1-0.2-1.4-0.6
		c-0.4-0.4-0.6-0.8-0.6-1.4c0-0.2-0.1-0.4-0.2-0.5l-2.1-1.5c-0.6-0.4-0.9-1-1-1.7c-0.1-0.7,0.1-1.3,0.6-1.9c1.5-2,2.8-4.1,3.8-6.4
		c0.3-0.7,0.8-1.3,1.5-1.7c0.7-0.4,1.4-0.6,2.2-0.5l0.6,0.1c0.6,0.1,1.1,0.4,1.5,0.9c0.4,0.5,0.4,1.1,0.2,1.7
		c-0.1,0.2,0,0.3,0.2,0.3h8.7c0.7,0,1.3,0.2,1.8,0.7c0.5,0.5,0.7,1.1,0.7,1.7s-0.2,1.2-0.7,1.7c-0.5,0.5-1.1,0.7-1.8,0.7h-11
		C195,9.4,194.8,9.5,194.6,9.8z M202.1,37.1H196c-0.3,0-0.4,0.1-0.4,0.4v1.8c0,0.6,0.1,1,0.4,1.1c0.3,0.1,1.3,0.1,3,0.1
		c1.5,0,2.4-0.1,2.8-0.4c0.4-0.3,0.6-1.2,0.7-2.6C202.5,37.2,202.4,37.1,202.1,37.1z"/>
</g>
<g id="XMLID_63_">
	<rect id="XMLID_1_" x="234.6" y="27.8" class="st0" width="645.1" height="25.7"/>
	<path class="st1" d="M236.4,40c-0.2,0-0.4-0.1-0.6-0.2c-0.2-0.2-0.2-0.3-0.2-0.6c0-0.2,0.1-0.4,0.2-0.6c0.2-0.2,0.3-0.2,0.6-0.2
		h6.4c0.1,0,0.2-0.1,0.2-0.2v-0.3c0-0.3,0.1-0.5,0.3-0.7c0.2-0.2,0.4-0.3,0.7-0.3c0,0,0,0,0,0s0,0,0,0c0.1,0,0.2,0,0.3-0.1l0.1-0.1
		c0.6-0.5,1.1-0.9,1.5-1.3c0.1-0.1,0-0.1-0.1-0.1h-6.2c-0.2,0-0.4-0.1-0.6-0.2c-0.2-0.2-0.2-0.3-0.2-0.6c0-0.2,0.1-0.4,0.2-0.6
		c0.2-0.2,0.3-0.2,0.6-0.2h8c0.2,0,0.4,0.1,0.6,0.2c0.2,0.2,0.2,0.3,0.2,0.6c0,0.6-0.2,1-0.5,1.4c-0.7,0.7-1.5,1.4-2.4,2.1
		c-0.1,0.1-0.3,0.2-0.4,0.2c0,0-0.1,0-0.1,0.1c0,0,0,0,0,0l0,0c0,0,0,0,0,0h5.8c0.2,0,0.4,0.1,0.6,0.2c0.2,0.2,0.2,0.3,0.2,0.6
		c0,0.2-0.1,0.4-0.2,0.6c-0.2,0.2-0.3,0.2-0.6,0.2H245c-0.1,0-0.1,0.1-0.1,0.2v2.4c0,0.9-0.1,1.5-0.4,1.7c-0.3,0.2-0.9,0.3-2.1,0.3
		c-0.4,0-1.1,0-2-0.1c-0.2,0-0.4-0.1-0.6-0.3c-0.2-0.2-0.3-0.4-0.3-0.6c0-0.2,0.1-0.4,0.2-0.6c0.1-0.2,0.3-0.2,0.5-0.2
		c0.9,0,1.5,0.1,1.9,0.1c0.3,0,0.6,0,0.6-0.1c0.1-0.1,0.1-0.2,0.1-0.6v-2.2c0-0.1-0.1-0.2-0.2-0.2H236.4z M250.7,35.1
		c-0.2,0.2-0.4,0.3-0.6,0.3s-0.5-0.1-0.6-0.3s-0.3-0.4-0.3-0.6v-1.8c0-0.1,0-0.2-0.1-0.2h-10.9c-0.1,0-0.1,0.1-0.1,0.2v1.8
		c0,0.3-0.1,0.5-0.3,0.6c-0.2,0.2-0.4,0.3-0.6,0.3s-0.5-0.1-0.6-0.3s-0.3-0.4-0.3-0.6V32c0-0.3,0.1-0.5,0.3-0.7
		c0.2-0.2,0.4-0.3,0.7-0.3h1.2c0,0,0.1,0,0.1-0.1s0-0.1,0-0.1c-0.2-0.3-0.3-0.5-0.4-0.7c-0.1-0.2-0.1-0.4-0.1-0.6s0.2-0.4,0.4-0.5
		c0.2-0.1,0.5-0.1,0.7,0s0.4,0.2,0.6,0.5c0.2,0.4,0.4,0.8,0.7,1.3c0,0.1,0.1,0.2,0.2,0.2h1.9c0,0,0.1,0,0.1,0c0,0,0-0.1,0-0.1
		c-0.2-0.4-0.3-0.7-0.5-0.9c-0.1-0.2-0.1-0.4-0.1-0.6s0.2-0.4,0.4-0.5c0.2-0.1,0.5-0.1,0.7,0c0.2,0.1,0.4,0.2,0.5,0.4
		c0.4,0.8,0.7,1.3,0.8,1.6c0,0.1,0.1,0.1,0.2,0.1h1.6c0.1,0,0.2,0,0.2-0.1c0.2-0.4,0.5-0.9,0.8-1.4c0.1-0.2,0.3-0.4,0.5-0.5
		c0.2-0.1,0.5-0.1,0.7-0.1c0.2,0.1,0.4,0.2,0.5,0.4s0.1,0.4,0,0.6c-0.1,0.1-0.2,0.3-0.3,0.5c-0.1,0.2-0.2,0.4-0.3,0.4
		c0,0,0,0.1,0,0.1s0,0,0.1,0h1.2c0.3,0,0.5,0.1,0.7,0.3c0.2,0.2,0.3,0.4,0.3,0.7v2.5C251,34.7,250.9,34.9,250.7,35.1z"/>
	<path class="st1" d="M254.3,36.5c-0.2,0-0.4-0.1-0.6-0.2c-0.2-0.2-0.2-0.3-0.2-0.6s0.1-0.4,0.2-0.6c0.2-0.2,0.3-0.2,0.6-0.2h1.1
		c0.1,0,0.1-0.1,0.1-0.2c-0.2-1-0.5-2-0.8-3c0-0.1-0.1-0.1-0.2-0.1h-0.1c-0.2,0-0.4-0.1-0.5-0.2c-0.2-0.1-0.2-0.3-0.2-0.5
		s0.1-0.4,0.2-0.5c0.1-0.1,0.3-0.2,0.5-0.2h2.5c0.1,0,0.2,0,0.2-0.1v-0.5c0-0.3,0.1-0.5,0.3-0.7c0.2-0.2,0.4-0.3,0.7-0.3
		c0.3,0,0.5,0.1,0.7,0.3c0.2,0.2,0.3,0.4,0.3,0.7V30c0,0.1,0,0.1,0.1,0.1h2.7c0.2,0,0.4,0.1,0.5,0.2c0.1,0.2,0.2,0.3,0.2,0.5
		s-0.1,0.4-0.2,0.5c-0.1,0.2-0.3,0.2-0.5,0.2h-0.1c-0.1,0-0.1,0-0.1,0.1c-0.3,1.2-0.5,2.1-0.8,3c0,0.1,0,0.1,0.1,0.1h1.1
		c0.2,0,0.4,0.1,0.6,0.2s0.2,0.3,0.2,0.6s-0.1,0.4-0.2,0.6c-0.2,0.2-0.4,0.2-0.6,0.2H254.3z M255.4,37.8h5.6c0.3,0,0.5,0.1,0.7,0.3
		c0.2,0.2,0.3,0.4,0.3,0.7v5c0,0.3-0.1,0.5-0.3,0.6c-0.2,0.2-0.4,0.3-0.6,0.3h-0.3c-0.2,0-0.3-0.1-0.4-0.2c-0.1-0.1-0.2-0.3-0.2-0.4
		c0-0.1,0-0.1-0.1-0.1h-3.8c-0.1,0-0.1,0-0.1,0.1c0,0.2-0.1,0.3-0.2,0.4c-0.1,0.1-0.3,0.2-0.4,0.2h-0.3c-0.3,0-0.5-0.1-0.6-0.3
		c-0.2-0.2-0.3-0.4-0.3-0.6v-5c0-0.3,0.1-0.5,0.3-0.7C254.9,37.9,255.1,37.8,255.4,37.8z M260.2,42.3v-2.8c0-0.1,0-0.1-0.1-0.1h-3.7
		c-0.1,0-0.1,0-0.1,0.1v2.8c0,0.1,0,0.2,0.1,0.2h3.7C260.2,42.5,260.2,42.4,260.2,42.3z M256.6,31.7c-0.1,0-0.1,0-0.1,0.1
		c0.3,0.9,0.5,1.9,0.8,2.9c0,0.1,0.1,0.2,0.2,0.2h1.5c0.1,0,0.2,0,0.2-0.1c0.3-0.8,0.6-1.8,0.8-2.9c0-0.1,0-0.1-0.1-0.1H256.6z
		 M265,44.4c-0.2,0.2-0.4,0.3-0.6,0.3c-0.3,0-0.5-0.1-0.6-0.3c-0.2-0.2-0.3-0.4-0.3-0.6V30.3c0-0.3,0.1-0.5,0.3-0.7
		c0.2-0.2,0.4-0.3,0.7-0.3h4.6c0.2,0,0.4,0.1,0.5,0.2c0.1,0.1,0.2,0.3,0.2,0.5c0,0.5-0.1,1-0.2,1.5c-0.5,1.4-1,2.6-1.7,3.8
		c0,0.1,0,0.2,0.1,0.2c0.6,0.6,1.1,1.2,1.5,2c0.4,0.8,0.5,1.5,0.5,2.3c0,1-0.2,1.8-0.7,2.2s-1.2,0.7-2.1,0.7h-0.3
		c-0.2,0-0.5-0.1-0.6-0.2c-0.2-0.2-0.3-0.3-0.4-0.6c0-0.2,0-0.4,0.1-0.6c0.1-0.2,0.3-0.3,0.5-0.3c0.6,0,1-0.1,1.2-0.3
		c0.2-0.2,0.3-0.5,0.3-1c0-1.2-0.5-2.4-1.6-3.6c-0.4-0.5-0.5-1-0.2-1.6c0.6-1.1,1.1-2.4,1.6-3.7c0-0.1,0-0.1-0.1-0.1h-2.4
		c-0.1,0-0.1,0-0.1,0.1v12.8C265.2,44,265.1,44.3,265,44.4z"/>
	<path class="st1" d="M274.5,37.2c-0.2,0.2-0.4,0.3-0.6,0.3c-0.2,0-0.4-0.1-0.6-0.3c-0.2-0.2-0.2-0.3-0.2-0.6c0-0.2,0.1-0.4,0.2-0.6
		c1.6-1.8,2.7-3.8,3.1-6.1c0-0.2,0.2-0.4,0.4-0.6c0.2-0.2,0.4-0.2,0.6-0.2c0.2,0,0.4,0.1,0.6,0.3s0.2,0.4,0.2,0.6
		c0,0.1-0.1,0.3-0.2,0.8c0,0.1,0,0.1,0.1,0.1h6.5c0.3,0,0.5,0.1,0.7,0.3c0.2,0.2,0.3,0.4,0.3,0.7v0.6c-0.3,3.3-1.3,5.9-3,7.7
		c-1.7,1.8-4.2,3-7.6,3.5c-0.2,0-0.5,0-0.7-0.2c-0.2-0.1-0.3-0.3-0.4-0.5c0-0.2,0-0.4,0.1-0.6c0.1-0.2,0.3-0.3,0.5-0.3
		c3-0.5,5.3-1.5,6.7-3.2c0.1-0.1,0-0.2,0-0.2c-1.2-0.8-2.5-1.6-3.8-2.4c-0.2-0.1-0.3-0.3-0.4-0.5c-0.1-0.2,0-0.4,0.1-0.6
		c0.1-0.2,0.3-0.3,0.5-0.4c0.2-0.1,0.4,0,0.6,0.1c1.4,0.8,2.7,1.6,3.9,2.4c0.1,0,0.1,0,0.2,0c0.6-1.3,1.1-2.8,1.2-4.5
		c0-0.1,0-0.1-0.1-0.1h-5.9h0c0,0,0,0,0,0c-0.1,0-0.2,0-0.2,0.1C276.8,34.3,275.8,35.8,274.5,37.2z"/>
	<path class="st1" d="M292.9,41.8c2.7-0.6,4.7-1.7,6.2-3.2c1.4-1.5,2.3-3.5,2.5-6c0-0.1,0-0.2-0.1-0.2h-10c-0.2,0-0.4-0.1-0.6-0.2
		s-0.2-0.4-0.2-0.6c0-0.2,0.1-0.4,0.2-0.6c0.2-0.2,0.4-0.2,0.6-0.2h10c0,0,0.1,0,0.1-0.1s0-0.1,0-0.1c-0.1-0.1-0.2-0.3-0.3-0.5
		c-0.1-0.2-0.2-0.4-0.3-0.5c-0.1-0.2-0.1-0.4-0.1-0.6c0.1-0.2,0.2-0.3,0.4-0.4c0.2-0.1,0.4-0.1,0.6-0.1c0.2,0.1,0.4,0.2,0.5,0.4
		l0.7,1.3c0.3,0.6,0.5,1.2,0.5,1.9v0.2c-0.3,3.1-1.3,5.5-3,7.3c-1.7,1.8-4.1,3-7.3,3.7c-0.2,0-0.4,0-0.6-0.1s-0.3-0.3-0.4-0.5
		c-0.1-0.2,0-0.4,0.1-0.6C292.5,41.9,292.7,41.8,292.9,41.8z M304.3,30.7c-0.1-0.2-0.2-0.4-0.4-0.7c-0.2-0.3-0.3-0.5-0.4-0.7
		c-0.1-0.2-0.1-0.4-0.1-0.6c0.1-0.2,0.2-0.3,0.4-0.4c0.2-0.1,0.4-0.1,0.6-0.1c0.2,0.1,0.4,0.2,0.5,0.4c0.1,0.2,0.2,0.4,0.4,0.7
		s0.3,0.5,0.3,0.6c0.1,0.2,0.1,0.4,0.1,0.6c-0.1,0.2-0.2,0.3-0.4,0.4c-0.2,0.1-0.4,0.1-0.6,0.1C304.6,31.1,304.4,30.9,304.3,30.7z"
		/>
	<path class="st1" d="M309.1,32.9c-0.2,0-0.4-0.1-0.6-0.2s-0.2-0.3-0.2-0.6c0-0.2,0.1-0.4,0.2-0.6c0.1-0.2,0.3-0.2,0.5-0.2
		c1.4,0,2.5,0,3.2,0c0.1,0,0.2,0,0.2-0.1c0.2-0.6,0.4-1.1,0.5-1.4c0.1-0.3,0.2-0.5,0.5-0.6c0.2-0.1,0.5-0.2,0.7-0.1
		c0.3,0,0.4,0.2,0.6,0.4c0.1,0.2,0.2,0.5,0.1,0.7c-0.1,0.2-0.2,0.5-0.3,0.9c0,0.1,0,0.1,0.1,0.1c1.9-0.1,3.7-0.2,5.5-0.3
		c0.2,0,0.4,0.1,0.6,0.2c0.2,0.1,0.2,0.3,0.3,0.5c0,0.2-0.1,0.4-0.2,0.6s-0.3,0.3-0.5,0.3c-1.9,0.2-4,0.3-6.2,0.4
		c-0.1,0-0.2,0-0.2,0.1c-0.3,0.5-0.5,1.1-0.9,1.7v0h0c0.8-0.4,1.5-0.6,2.2-0.6c0.7,0,1.2,0.1,1.7,0.4s0.8,0.8,1.1,1.4
		c0,0.1,0.1,0.1,0.2,0.1c0.9-0.3,2-0.6,3.3-0.8c0.2,0,0.4,0,0.6,0.1c0.2,0.1,0.3,0.3,0.3,0.5c0,0.2,0,0.4-0.2,0.6
		c-0.1,0.2-0.3,0.3-0.5,0.3c-1.2,0.2-2.3,0.5-3.1,0.8c-0.1,0-0.1,0.1-0.1,0.2c0.1,0.5,0.1,1.1,0.1,1.9c0,0.3-0.1,0.5-0.3,0.7
		c-0.2,0.2-0.4,0.3-0.7,0.3c-0.3,0-0.5-0.1-0.7-0.3c-0.2-0.2-0.3-0.4-0.3-0.7c0-0.5,0-0.8-0.1-1.2c0-0.1,0-0.1-0.1-0.1
		c-0.9,0.4-1.7,0.9-2.2,1.4c-0.5,0.5-0.8,0.9-0.8,1.3c0,0.5,0.3,0.8,0.8,1.1c0.6,0.2,1.5,0.4,2.8,0.4c1,0,2.1-0.1,3.4-0.3
		c0.2,0,0.4,0,0.6,0.2c0.2,0.1,0.3,0.3,0.3,0.5c0,0.2,0,0.5-0.2,0.6c-0.1,0.2-0.3,0.3-0.6,0.3c-1.1,0.2-2.3,0.2-3.6,0.2
		c-3.8,0-5.6-1-5.6-2.9c0-0.8,0.4-1.5,1.2-2.3s2-1.5,3.5-2.1c0.1,0,0.1-0.1,0.1-0.2c-0.2-0.6-0.7-1-1.4-1c-0.5,0-1.2,0.3-1.9,0.7
		c-0.8,0.5-1.5,1.2-2.3,2.2c-0.2,0.2-0.4,0.3-0.6,0.3c-0.2,0-0.5,0-0.7-0.1c-0.2-0.1-0.3-0.3-0.4-0.5s0-0.4,0.1-0.6
		c1.2-1.6,2.1-3.1,2.7-4.6c0-0.1,0-0.1-0.1-0.1C310.5,32.9,309.7,32.9,309.1,32.9z"/>
	<path class="st1" d="M328.6,37.4c-0.2,0.2-0.4,0.3-0.6,0.3c-0.2,0-0.4-0.1-0.6-0.2c-0.2-0.2-0.3-0.3-0.3-0.6c0-0.2,0.1-0.4,0.2-0.6
		c1.6-1.8,2.7-3.8,3.1-6c0.1-0.3,0.2-0.5,0.4-0.6c0.2-0.2,0.4-0.2,0.7-0.2c0.3,0,0.5,0.1,0.6,0.3c0.2,0.2,0.2,0.4,0.2,0.6
		c0,0.3-0.1,0.6-0.2,1c0,0.1,0,0.1,0.1,0.1h6.3c0.3,0,0.5,0.1,0.7,0.3s0.3,0.4,0.3,0.7v0.6c-0.3,3.1-1.3,5.6-3,7.3
		c-1.7,1.7-4.2,2.8-7.6,3.3c-0.2,0-0.4,0-0.6-0.2c-0.2-0.1-0.3-0.3-0.4-0.6c0-0.2,0-0.4,0.1-0.6c0.1-0.2,0.3-0.3,0.5-0.3
		c2.8-0.4,4.9-1.3,6.4-2.8c1.4-1.4,2.3-3.4,2.6-6c0-0.1,0-0.2-0.1-0.2h-5.8c-0.1,0-0.2,0-0.2,0.1C330.8,34.7,329.9,36.1,328.6,37.4z
		"/>
	<path class="st1" d="M348.2,37.2c-0.2,0.2-0.4,0.3-0.7,0.3c-0.3,0-0.5-0.1-0.7-0.3c-0.2-0.2-0.3-0.4-0.3-0.7v-5.6
		c0-0.3,0.1-0.5,0.3-0.7c0.2-0.2,0.4-0.3,0.7-0.3c0.3,0,0.5,0.1,0.7,0.3c0.2,0.2,0.3,0.4,0.3,0.7v5.6
		C348.4,36.8,348.4,37,348.2,37.2z M355.8,30c0.3,0,0.5,0.1,0.7,0.3c0.2,0.2,0.3,0.4,0.3,0.7v4.7c0,2.5-0.6,4.5-1.7,5.8
		c-1.2,1.3-3.1,2.1-5.8,2.5c-0.2,0-0.4,0-0.6-0.2c-0.2-0.1-0.3-0.3-0.4-0.6c0-0.2,0-0.4,0.1-0.6c0.1-0.2,0.3-0.3,0.5-0.3
		c2.3-0.4,3.8-1.1,4.7-2c0.8-1,1.3-2.5,1.3-4.6V31c0-0.3,0.1-0.5,0.3-0.7C355.3,30.1,355.5,30,355.8,30z"/>
	<path class="st1" d="M364.9,37.6c-0.3-1.1-0.5-2-0.8-2.8c-0.1-0.2,0-0.4,0.1-0.6c0.1-0.2,0.3-0.3,0.5-0.4c0.2-0.1,0.4,0,0.6,0.1
		c0.2,0.1,0.3,0.3,0.4,0.5c0.3,0.9,0.5,1.8,0.8,2.8c0.1,0.2,0,0.4-0.1,0.6c-0.1,0.2-0.3,0.3-0.5,0.4c-0.2,0.1-0.4,0-0.6-0.1
		C365.1,38,365,37.8,364.9,37.6z M374.6,33.3c0.2,0,0.4,0.1,0.6,0.3c0.1,0.2,0.2,0.4,0.2,0.6c-0.4,2.9-1.2,5-2.4,6.5
		c-1.2,1.4-3.2,2.4-5.8,3c-0.2,0-0.4,0-0.6-0.1c-0.2-0.1-0.3-0.3-0.4-0.5c0-0.2,0-0.4,0.1-0.6c0.1-0.2,0.3-0.3,0.5-0.4
		c2.2-0.5,3.8-1.4,4.8-2.6c1-1.2,1.7-3,2-5.4c0-0.2,0.1-0.4,0.3-0.6C374.1,33.3,374.3,33.2,374.6,33.3z M370.1,37.2
		c-0.1,0.2-0.3,0.3-0.5,0.4c-0.2,0.1-0.4,0-0.6-0.1c-0.2-0.1-0.3-0.3-0.4-0.5c-0.2-0.9-0.5-1.9-0.8-3c-0.1-0.2,0-0.4,0.1-0.6
		s0.3-0.3,0.5-0.4c0.2-0.1,0.4,0,0.6,0.1c0.2,0.1,0.3,0.3,0.4,0.5c0.2,0.8,0.5,1.8,0.8,3C370.3,36.8,370.2,37,370.1,37.2z"/>
	<path class="st1" d="M382.6,37.4c-0.2,0.2-0.4,0.3-0.6,0.3c-0.2,0-0.4-0.1-0.6-0.2c-0.2-0.2-0.3-0.3-0.3-0.6c0-0.2,0.1-0.4,0.2-0.6
		c1.6-1.8,2.7-3.8,3.1-6c0.1-0.3,0.2-0.5,0.4-0.6c0.2-0.2,0.4-0.2,0.7-0.2c0.3,0,0.5,0.1,0.6,0.3c0.2,0.2,0.2,0.4,0.2,0.6
		c0,0.3-0.1,0.6-0.2,1c0,0.1,0,0.1,0.1,0.1h6.3c0.3,0,0.5,0.1,0.7,0.3s0.3,0.4,0.3,0.7v0.6c-0.3,3.1-1.3,5.6-3,7.3
		c-1.7,1.7-4.2,2.8-7.6,3.3c-0.2,0-0.4,0-0.6-0.2c-0.2-0.1-0.3-0.3-0.4-0.6c0-0.2,0-0.4,0.1-0.6c0.1-0.2,0.3-0.3,0.5-0.3
		c2.8-0.4,4.9-1.3,6.4-2.8c1.4-1.4,2.3-3.4,2.6-6c0-0.1,0-0.2-0.1-0.2h-5.8c-0.1,0-0.2,0-0.2,0.1C384.8,34.7,383.9,36.1,382.6,37.4z
		"/>
	<path class="st1" d="M398.7,32.9c-0.2,0-0.4-0.1-0.6-0.2c-0.2-0.2-0.2-0.3-0.2-0.6c0-0.2,0.1-0.4,0.2-0.6c0.1-0.2,0.3-0.2,0.5-0.2
		c2.8,0,5.3-0.1,7.7-0.2c0.1,0,0.1-0.1,0.1-0.2c0-0.6,0-1,0-1.3c0-0.3,0.1-0.5,0.3-0.6c0.2-0.2,0.4-0.3,0.6-0.3
		c0.2,0,0.5,0.1,0.6,0.3c0.2,0.2,0.3,0.4,0.3,0.6c0,0.3,0,0.7,0,1.2c0,0.1,0,0.1,0.1,0.1c1.2-0.1,2.5-0.1,4-0.3
		c0.2,0,0.4,0.1,0.6,0.2c0.2,0.1,0.3,0.3,0.3,0.5c0,0.2-0.1,0.4-0.2,0.6c-0.1,0.2-0.3,0.3-0.5,0.3c-1.5,0.1-2.8,0.2-4,0.3
		c-0.1,0-0.1,0.1-0.1,0.2c0.1,1.7,0.1,2.8,0.1,3c0,0.1,0,0.2,0.1,0.3c0.3,0.7,0.4,1.6,0.4,2.6c0,3.2-1.9,5.1-5.7,5.7
		c-0.3,0-0.5,0-0.7-0.2c-0.2-0.2-0.3-0.4-0.4-0.6c0-0.2,0-0.5,0.1-0.6c0.1-0.2,0.3-0.3,0.6-0.3c2.2-0.3,3.6-1.1,4-2.3
		c0,0,0.1-0.2,0.2-0.6c0,0,0,0,0,0h0c-0.6,0.6-1.4,0.9-2.4,0.9c-1,0-1.9-0.3-2.5-1c-0.7-0.6-1-1.5-1-2.5c0-1,0.3-1.8,1-2.4
		c0.7-0.6,1.5-1,2.5-1c0.7,0,1.3,0.2,1.9,0.5h0l0,0c0,0,0,0,0,0c0-0.3,0-0.7-0.1-1.3c0-0.1-0.1-0.2-0.2-0.2
		C403.8,32.8,401.2,32.9,398.7,32.9z M403.6,38.4c0.4,0.4,0.8,0.6,1.3,0.6c0.5,0,1-0.2,1.3-0.6c0.4-0.4,0.6-0.8,0.6-1.3
		s-0.2-1-0.6-1.3c-0.4-0.4-0.8-0.6-1.3-0.6c-0.5,0-1,0.2-1.3,0.6c-0.4,0.4-0.6,0.8-0.6,1.3S403.3,38.1,403.6,38.4z"/>
	<path class="st1" d="M418,38.7c-0.2,0.1-0.4,0.1-0.6,0.1c-0.2-0.1-0.4-0.2-0.5-0.4c-0.1-0.2-0.1-0.4,0-0.7c0.1-0.2,0.2-0.4,0.4-0.5
		c3.7-2.2,6.7-4,8.9-5.6v0h0c-2.3,0.3-4.5,0.4-6.7,0.4c-0.2,0-0.4-0.1-0.6-0.3c-0.2-0.2-0.3-0.4-0.3-0.6c0-0.2,0.1-0.4,0.3-0.6
		c0.2-0.2,0.4-0.3,0.6-0.3c2.5,0,5.1-0.1,7.8-0.3c0.3,0,0.5,0.1,0.8,0.2c0.2,0.2,0.4,0.4,0.4,0.7v0c0.1,0.7-0.1,1.2-0.7,1.6
		c-0.6,0.4-1.4,1-2.6,1.7c-1.2,0.7-1.9,1.2-2.3,1.4c0,0,0,0,0,0h0c0.9-0.2,1.7-0.3,2.4-0.3c1.5,0,2.6,0.4,3.4,1.1
		c0.8,0.7,1.2,1.7,1.2,2.9c0,1.4-0.6,2.6-1.8,3.5s-2.9,1.3-5,1.3c-1.4,0-2.5-0.3-3.2-0.8c-0.8-0.5-1.1-1.2-1.1-2.1
		c0-0.7,0.3-1.3,1-1.8c0.7-0.5,1.5-0.7,2.5-0.7c1.1,0,1.9,0.2,2.5,0.7c0.6,0.4,0.9,1.1,0.9,1.9c0,0.2,0,0.5-0.1,0.8c0,0,0,0.1,0,0.1
		c0,0,0.1,0,0.1,0c0.7-0.3,1.3-0.6,1.7-1.1s0.6-1,0.6-1.7c0-1.8-1.3-2.6-3.9-2.6c-0.9,0-1.8,0.1-2.8,0.4
		C420.5,37.5,419.4,38,418,38.7z M423.9,42.4c0.1-0.3,0.1-0.6,0.1-0.9c0-0.8-0.6-1.3-1.7-1.3c-0.6,0-1,0.1-1.3,0.3
		c-0.3,0.2-0.5,0.4-0.5,0.7c0,0.9,0.9,1.3,2.7,1.3h0.4C423.8,42.6,423.8,42.5,423.9,42.4z"/>
	<path class="st1" d="M441.6,43.7c-1.9,0-3.3-0.3-4.4-1c-1-0.7-1.6-1.7-1.6-2.9c0-1.5,1-2.8,3.1-4.1c0.1,0,0.1-0.1,0.1-0.2v0
		c-0.4-1.8-0.8-3.5-1-4.9c0-0.3,0-0.5,0.2-0.7c0.2-0.2,0.4-0.3,0.6-0.4c0.3,0,0.5,0,0.7,0.2s0.3,0.4,0.4,0.6
		c0.3,1.4,0.5,2.8,0.9,4.3c0,0.1,0.1,0.1,0.2,0.1c1.5-0.6,3.3-1.3,5.4-1.9c0.2-0.1,0.4,0,0.7,0.1s0.3,0.3,0.4,0.5
		c0.1,0.2,0,0.5-0.1,0.7s-0.3,0.3-0.5,0.4c-6,1.7-8.9,3.4-8.9,5.2c0,1.5,1.4,2.2,4.1,2.2c1.5,0,3.1-0.1,4.6-0.4c0.2,0,0.5,0,0.7,0.2
		c0.2,0.1,0.3,0.3,0.4,0.6c0,0.2,0,0.5-0.2,0.7c-0.2,0.2-0.3,0.3-0.6,0.4C444.9,43.5,443.2,43.7,441.6,43.7z"/>
	<path class="st1" d="M452.4,40c-0.2,0-0.4-0.1-0.6-0.2s-0.2-0.3-0.2-0.6c0-0.2,0.1-0.4,0.2-0.6c0.2-0.2,0.3-0.2,0.6-0.2h6.4
		c0.1,0,0.2-0.1,0.2-0.2v-0.3c0-0.3,0.1-0.5,0.3-0.7c0.2-0.2,0.4-0.3,0.7-0.3c0,0,0,0,0,0c0,0,0,0,0,0c0.1,0,0.2,0,0.3-0.1l0.1-0.1
		c0.6-0.5,1.1-0.9,1.5-1.3c0.1-0.1,0-0.1-0.1-0.1h-6.2c-0.2,0-0.4-0.1-0.6-0.2c-0.2-0.2-0.2-0.3-0.2-0.6c0-0.2,0.1-0.4,0.2-0.6
		c0.2-0.2,0.3-0.2,0.6-0.2h8c0.2,0,0.4,0.1,0.6,0.2c0.2,0.2,0.2,0.3,0.2,0.6c0,0.6-0.2,1-0.5,1.4c-0.7,0.7-1.5,1.4-2.4,2.1
		c-0.1,0.1-0.3,0.2-0.4,0.2c0,0-0.1,0-0.1,0.1c0,0,0,0,0,0l0,0c0,0,0,0,0,0h5.8c0.2,0,0.4,0.1,0.6,0.2c0.2,0.2,0.2,0.3,0.2,0.6
		c0,0.2-0.1,0.4-0.2,0.6S467,40,466.8,40H461c-0.1,0-0.1,0.1-0.1,0.2v2.4c0,0.9-0.1,1.5-0.4,1.7s-0.9,0.3-2.1,0.3
		c-0.4,0-1.1,0-2-0.1c-0.2,0-0.4-0.1-0.6-0.3c-0.2-0.2-0.3-0.4-0.3-0.6c0-0.2,0.1-0.4,0.2-0.6c0.2-0.2,0.3-0.2,0.5-0.2
		c0.9,0,1.5,0.1,1.9,0.1c0.3,0,0.6,0,0.6-0.1c0.1-0.1,0.1-0.2,0.1-0.6v-2.2c0-0.1-0.1-0.2-0.2-0.2H452.4z M466.7,35.1
		c-0.2,0.2-0.4,0.3-0.6,0.3s-0.5-0.1-0.6-0.3s-0.3-0.4-0.3-0.6v-1.8c0-0.1,0-0.2-0.1-0.2h-10.9c-0.1,0-0.1,0.1-0.1,0.2v1.8
		c0,0.3-0.1,0.5-0.3,0.6c-0.2,0.2-0.4,0.3-0.6,0.3s-0.5-0.1-0.6-0.3c-0.2-0.2-0.3-0.4-0.3-0.6V32c0-0.3,0.1-0.5,0.3-0.7
		c0.2-0.2,0.4-0.3,0.7-0.3h1.2c0,0,0.1,0,0.1-0.1c0,0,0-0.1,0-0.1c-0.2-0.3-0.3-0.5-0.4-0.7c-0.1-0.2-0.1-0.4-0.1-0.6
		s0.2-0.4,0.4-0.5c0.2-0.1,0.5-0.1,0.7,0s0.4,0.2,0.6,0.5c0.2,0.4,0.4,0.8,0.7,1.3c0,0.1,0.1,0.2,0.2,0.2h1.9c0,0,0.1,0,0.1,0
		s0-0.1,0-0.1c-0.2-0.4-0.3-0.7-0.5-0.9c-0.1-0.2-0.1-0.4-0.1-0.6s0.2-0.4,0.4-0.5c0.2-0.1,0.5-0.1,0.7,0c0.2,0.1,0.4,0.2,0.5,0.4
		c0.4,0.8,0.7,1.3,0.8,1.6c0,0.1,0.1,0.1,0.2,0.1h1.6c0.1,0,0.2,0,0.2-0.1c0.2-0.4,0.5-0.9,0.8-1.4c0.1-0.2,0.3-0.4,0.5-0.5
		c0.2-0.1,0.5-0.1,0.7-0.1c0.2,0.1,0.4,0.2,0.5,0.4c0.1,0.2,0.1,0.4,0,0.6c-0.1,0.1-0.2,0.3-0.3,0.5c-0.1,0.2-0.2,0.4-0.3,0.4
		c0,0,0,0.1,0,0.1c0,0,0,0,0.1,0h1.2c0.3,0,0.5,0.1,0.7,0.3s0.3,0.4,0.3,0.7v2.5C467,34.7,466.9,34.9,466.7,35.1z"/>
	<path class="st1" d="M470.3,36.5c-0.2,0-0.4-0.1-0.6-0.2c-0.2-0.2-0.2-0.3-0.2-0.6s0.1-0.4,0.2-0.6s0.3-0.2,0.6-0.2h1.1
		c0.1,0,0.1-0.1,0.1-0.2c-0.2-1-0.5-2-0.8-3c0-0.1-0.1-0.1-0.2-0.1h-0.1c-0.2,0-0.4-0.1-0.5-0.2c-0.2-0.1-0.2-0.3-0.2-0.5
		s0.1-0.4,0.2-0.5c0.2-0.1,0.3-0.2,0.5-0.2h2.5c0.1,0,0.2,0,0.2-0.1v-0.5c0-0.3,0.1-0.5,0.3-0.7c0.2-0.2,0.4-0.3,0.7-0.3
		s0.5,0.1,0.7,0.3c0.2,0.2,0.3,0.4,0.3,0.7V30c0,0.1,0,0.1,0.1,0.1h2.7c0.2,0,0.4,0.1,0.5,0.2c0.2,0.2,0.2,0.3,0.2,0.5
		s-0.1,0.4-0.2,0.5c-0.1,0.2-0.3,0.2-0.5,0.2h-0.1c-0.1,0-0.1,0-0.1,0.1c-0.3,1.2-0.5,2.1-0.8,3c0,0.1,0,0.1,0.1,0.1h1.1
		c0.2,0,0.4,0.1,0.6,0.2s0.2,0.3,0.2,0.6s-0.1,0.4-0.2,0.6c-0.2,0.2-0.4,0.2-0.6,0.2H470.3z M471.4,37.8h5.6c0.3,0,0.5,0.1,0.7,0.3
		c0.2,0.2,0.3,0.4,0.3,0.7v5c0,0.3-0.1,0.5-0.3,0.6c-0.2,0.2-0.4,0.3-0.6,0.3h-0.3c-0.2,0-0.3-0.1-0.4-0.2c-0.1-0.1-0.2-0.3-0.2-0.4
		c0-0.1,0-0.1-0.1-0.1h-3.8c-0.1,0-0.1,0-0.1,0.1c0,0.2-0.1,0.3-0.2,0.4c-0.1,0.1-0.3,0.2-0.4,0.2h-0.3c-0.3,0-0.5-0.1-0.6-0.3
		c-0.2-0.2-0.3-0.4-0.3-0.6v-5c0-0.3,0.1-0.5,0.3-0.7C470.9,37.9,471.1,37.8,471.4,37.8z M476.2,42.3v-2.8c0-0.1,0-0.1-0.1-0.1h-3.7
		c-0.1,0-0.1,0-0.1,0.1v2.8c0,0.1,0,0.2,0.1,0.2h3.7C476.2,42.5,476.2,42.4,476.2,42.3z M472.6,31.7c-0.1,0-0.1,0-0.1,0.1
		c0.3,0.9,0.5,1.9,0.8,2.9c0,0.1,0.1,0.2,0.2,0.2h1.5c0.1,0,0.2,0,0.2-0.1c0.3-0.8,0.6-1.8,0.8-2.9c0-0.1,0-0.1-0.1-0.1H472.6z
		 M481,44.4c-0.2,0.2-0.4,0.3-0.6,0.3c-0.3,0-0.5-0.1-0.6-0.3c-0.2-0.2-0.3-0.4-0.3-0.6V30.3c0-0.3,0.1-0.5,0.3-0.7
		c0.2-0.2,0.4-0.3,0.7-0.3h4.6c0.2,0,0.4,0.1,0.5,0.2c0.1,0.1,0.2,0.3,0.2,0.5c0,0.5-0.1,1-0.2,1.5c-0.5,1.4-1,2.6-1.7,3.8
		c0,0.1,0,0.2,0.1,0.2c0.6,0.6,1.1,1.2,1.5,2c0.4,0.8,0.5,1.5,0.5,2.3c0,1-0.2,1.8-0.7,2.2s-1.2,0.7-2.1,0.7h-0.3
		c-0.2,0-0.5-0.1-0.6-0.2c-0.2-0.2-0.3-0.3-0.4-0.6c0-0.2,0-0.4,0.1-0.6c0.1-0.2,0.3-0.3,0.5-0.3c0.6,0,1-0.1,1.2-0.3
		c0.2-0.2,0.3-0.5,0.3-1c0-1.2-0.5-2.4-1.6-3.6c-0.4-0.5-0.5-1-0.2-1.6c0.6-1.1,1.1-2.4,1.6-3.7c0-0.1,0-0.1-0.1-0.1h-2.4
		c-0.1,0-0.1,0-0.1,0.1v12.8C481.2,44,481.1,44.3,481,44.4z"/>
	<path class="st1" d="M495.6,44c-2.4,0-4.1-0.3-5.3-1c-1.2-0.7-1.8-1.6-1.8-2.7c0-1.1,0.8-2.4,2.5-4c0.2-0.2,0.4-0.2,0.7-0.2
		c0.3,0,0.5,0.1,0.6,0.3c0.2,0.2,0.2,0.4,0.2,0.6c0,0.2-0.1,0.4-0.3,0.6c-1.2,1.1-1.8,2-1.8,2.7c0,0.6,0.4,1.1,1.3,1.5
		s2.1,0.5,3.8,0.5c1.2,0,2.7-0.2,4.5-0.6c0.2-0.1,0.5,0,0.7,0.1c0.2,0.1,0.3,0.3,0.4,0.6s0,0.5-0.1,0.7c-0.1,0.2-0.3,0.3-0.6,0.4
		C498.6,43.8,497,44,495.6,44z M496,30.9c0.4,0,0.9,0,1.6,0c0.2,0,0.4,0.1,0.6,0.2c0.2,0.2,0.3,0.4,0.3,0.6c0,0.2-0.1,0.4-0.2,0.6
		c-0.2,0.2-0.4,0.3-0.6,0.3c-0.4,0-0.9,0-1.7,0c-1.8,0-3.5-0.1-5.1-0.3c-0.2,0-0.4-0.1-0.6-0.3c-0.2-0.2-0.2-0.4-0.2-0.6
		c0-0.2,0.1-0.4,0.3-0.6s0.4-0.2,0.6-0.2C492.7,30.8,494.4,30.9,496,30.9z M500.1,29.6c0.5,0.9,0.8,1.4,0.8,1.5
		c0.1,0.2,0.1,0.4,0.1,0.6s-0.2,0.4-0.4,0.5c-0.2,0.1-0.4,0.1-0.6,0c-0.2-0.1-0.4-0.2-0.5-0.4c-0.1-0.2-0.2-0.4-0.4-0.7
		c-0.2-0.3-0.3-0.6-0.4-0.7c-0.1-0.2-0.1-0.4-0.1-0.6c0.1-0.2,0.2-0.4,0.4-0.5c0.2-0.1,0.4-0.1,0.6-0.1
		C499.8,29.2,500,29.4,500.1,29.6z M502.2,31.2c-0.1-0.2-0.2-0.4-0.4-0.7c-0.2-0.3-0.3-0.6-0.4-0.7c-0.1-0.2-0.1-0.4-0.1-0.6
		s0.2-0.4,0.4-0.5c0.2-0.1,0.4-0.1,0.6-0.1c0.2,0.1,0.4,0.2,0.5,0.4c0.2,0.3,0.5,0.8,0.8,1.5c0.1,0.2,0.1,0.4,0.1,0.6
		c-0.1,0.2-0.2,0.4-0.4,0.5c-0.2,0.1-0.4,0.1-0.6,0C502.4,31.6,502.3,31.4,502.2,31.2z"/>
	<path class="st1" d="M513.6,43.7c-1.9,0-3.3-0.3-4.4-1c-1-0.7-1.6-1.7-1.6-2.9c0-1.5,1-2.8,3.1-4.1c0.1,0,0.1-0.1,0.1-0.2v0
		c-0.4-1.8-0.8-3.5-1-4.9c0-0.3,0-0.5,0.2-0.7s0.4-0.3,0.6-0.4c0.3,0,0.5,0,0.7,0.2s0.3,0.4,0.4,0.6c0.3,1.4,0.5,2.8,0.9,4.3
		c0,0.1,0.1,0.1,0.2,0.1c1.5-0.6,3.3-1.3,5.4-1.9c0.2-0.1,0.4,0,0.7,0.1s0.3,0.3,0.4,0.5c0.1,0.2,0,0.5-0.1,0.7s-0.3,0.3-0.5,0.4
		c-6,1.7-8.9,3.4-8.9,5.2c0,1.5,1.4,2.2,4.1,2.2c1.5,0,3.1-0.1,4.6-0.4c0.2,0,0.5,0,0.7,0.2c0.2,0.1,0.3,0.3,0.4,0.6
		c0,0.2,0,0.5-0.2,0.7c-0.2,0.2-0.3,0.3-0.6,0.4C516.9,43.5,515.2,43.7,513.6,43.7z"/>
	<path class="st1" d="M526.7,43.9c-0.3,0-0.5,0-0.7-0.2c-0.2-0.2-0.4-0.4-0.4-0.6c-0.5-2-0.7-4.1-0.7-6.2c0-2.2,0.2-4.2,0.7-6.2
		c0.1-0.3,0.2-0.5,0.4-0.6c0.2-0.2,0.5-0.2,0.7-0.2c0.2,0,0.4,0.1,0.6,0.3c0.1,0.2,0.2,0.4,0.1,0.7c-0.4,1.8-0.7,3.9-0.7,6
		c0,2.2,0.2,4.2,0.7,6c0.1,0.2,0,0.5-0.1,0.7C527.1,43.7,526.9,43.8,526.7,43.9z M534.3,43.1c-1.5,0-2.7-0.3-3.6-0.9
		c-0.9-0.6-1.3-1.4-1.3-2.3c0-0.5,0.2-1,0.5-1.6s0.8-1.1,1.4-1.7c0.2-0.2,0.4-0.2,0.6-0.2c0.2,0,0.5,0.1,0.6,0.3
		c0.2,0.2,0.3,0.4,0.3,0.6c0,0.2-0.1,0.4-0.3,0.6c-0.8,0.8-1.2,1.4-1.2,2c0,0.5,0.3,0.8,0.8,1.1s1.2,0.4,2.2,0.4c1,0,2-0.1,3.1-0.3
		c0.2,0,0.4,0,0.6,0.1c0.2,0.1,0.3,0.3,0.3,0.5c0,0.3,0,0.5-0.1,0.7s-0.3,0.3-0.6,0.4C536.5,43,535.4,43.1,534.3,43.1z M537.2,31.4
		c0.2,0,0.4,0,0.6,0.2c0.2,0.1,0.3,0.3,0.3,0.6c0,0.2,0,0.5-0.2,0.6c-0.2,0.2-0.3,0.3-0.6,0.3c-2.1,0.3-4.1,0.4-6.1,0.4
		c-0.2,0-0.4-0.1-0.6-0.2s-0.2-0.4-0.2-0.6c0-0.2,0.1-0.4,0.3-0.6s0.4-0.3,0.6-0.3C533.1,31.8,535,31.6,537.2,31.4z"/>
	<path class="st1" d="M542.3,44.5c-0.2,0-0.4-0.1-0.6-0.2c-0.2-0.1-0.2-0.3-0.3-0.5c0-0.2,0.1-0.4,0.2-0.6c0.1-0.2,0.3-0.2,0.5-0.3
		c1.4-0.1,2.3-0.1,2.8-0.2c0.1,0,0.2-0.1,0.2-0.2V42c0-0.1-0.1-0.2-0.2-0.2h-2.5c-0.2,0-0.4-0.1-0.5-0.2c-0.1-0.1-0.2-0.3-0.2-0.5
		c0-0.2,0.1-0.4,0.2-0.5c0.1-0.1,0.3-0.2,0.5-0.2h2.5c0.1,0,0.2,0,0.2-0.1v-0.5c0-0.1-0.1-0.1-0.2-0.1h-1.2h-0.8
		c-0.3,0-0.5-0.1-0.7-0.3c-0.2-0.2-0.3-0.4-0.3-0.7v-3.5c0-0.3,0.1-0.5,0.3-0.7c0.2-0.2,0.4-0.3,0.7-0.3h1.9c0.1,0,0.2,0,0.2-0.1
		v-0.5c0-0.1-0.1-0.1-0.2-0.1h-2.6c-0.2,0-0.4-0.1-0.5-0.2c-0.1-0.1-0.2-0.3-0.2-0.5c0-0.2,0.1-0.4,0.2-0.5c0.1-0.1,0.3-0.2,0.5-0.2
		h2.6c0.1,0,0.2-0.1,0.2-0.2v-0.6c0-0.1-0.1-0.1-0.2-0.1c-0.4,0-1.2,0.1-2.2,0.1c-0.2,0-0.4-0.1-0.6-0.2c-0.2-0.2-0.2-0.3-0.3-0.5
		c0-0.2,0.1-0.4,0.2-0.5c0.1-0.1,0.3-0.2,0.5-0.2c2.1-0.1,4.3-0.3,6.5-0.6c0.2,0,0.4,0,0.6,0.2c0.2,0.1,0.3,0.3,0.3,0.5
		c0,0.2,0,0.4-0.2,0.6c-0.1,0.2-0.3,0.3-0.5,0.3c-0.6,0.1-1.3,0.2-2.2,0.3c-0.1,0-0.2,0.1-0.2,0.2v0.7c0,0.1,0,0.2,0.1,0.2h2.4
		c0.3,0,0.6,0.2,0.7,0.5c0,0.1,0.1,0.1,0.1,0c0.1-0.1,0.3-0.1,0.5-0.1h0.9c0.1,0,0.1-0.1,0.1-0.2c0-1.5,0.1-2.4,0.1-2.5
		c0-0.2,0.1-0.4,0.3-0.6c0.2-0.2,0.4-0.3,0.6-0.3c0.2,0,0.4,0.1,0.6,0.3c0.2,0.2,0.3,0.4,0.3,0.6c0,0.1,0,0.9-0.1,2.5
		c0,0.1,0.1,0.2,0.2,0.2h2.7c0.3,0,0.5,0.1,0.7,0.3c0.2,0.2,0.3,0.4,0.3,0.7v0.1c0,1.8,0,3.2,0,4.4c0,1.1-0.1,2.1-0.1,3
		c-0.1,0.9-0.2,1.5-0.2,1.9s-0.2,0.8-0.4,1c-0.2,0.3-0.4,0.4-0.6,0.5c-0.2,0.1-0.5,0.1-0.8,0.1s-0.9,0-1.5-0.1
		c-0.2,0-0.4-0.1-0.6-0.3c-0.2-0.2-0.3-0.4-0.3-0.6c0-0.2,0.1-0.4,0.3-0.6s0.4-0.2,0.6-0.2c0.3,0,0.6,0.1,1,0.1c0.1,0,0.2,0,0.3-0.1
		s0.2-0.3,0.2-0.6s0.1-0.7,0.2-1.3c0-0.6,0.1-1.3,0.1-2.3c0-1,0-2.2,0-3.6v-0.6c0-0.1-0.1-0.1-0.2-0.1h-1.7c-0.1,0-0.2,0-0.2,0.1
		c-0.1,2.4-0.4,4.4-0.7,5.9c-0.3,1.5-0.8,2.8-1.5,3.9c-0.1,0.2-0.3,0.3-0.5,0.4c-0.2,0-0.5,0-0.7-0.1c-0.2-0.1-0.3-0.3-0.4-0.5
		c0-0.1-0.1-0.1-0.1-0.1c-0.1,0.1-0.3,0.2-0.4,0.2C547,44.2,544.7,44.4,542.3,44.5z M543.8,35.7v0.5c0,0.1,0,0.2,0.1,0.2h1
		c0.1,0,0.2-0.1,0.2-0.2v-0.5c0-0.1-0.1-0.1-0.2-0.1h-1C543.9,35.6,543.8,35.6,543.8,35.7z M545,38.3c0.1,0,0.2,0,0.2-0.1v-0.5
		c0-0.1-0.1-0.2-0.2-0.2h-1c-0.1,0-0.1,0.1-0.1,0.2v0.5c0,0.1,0,0.1,0.1,0.1H545z M547.1,42v0.5c0,0.1,0,0.1,0.1,0.1
		c0.2,0,0.5-0.1,1-0.1c0.4,0,0.8-0.1,1-0.1c0.3,0,0.6,0.1,0.7,0.4c0,0,0,0,0.1,0c0,0,0,0,0.1,0c1-1.9,1.6-4.8,1.8-8.7
		c0-0.1,0-0.1-0.1-0.1h-0.8c-0.2,0-0.4-0.1-0.5-0.2s-0.2-0.3-0.3-0.4c0-0.1-0.1-0.1-0.2-0.1c-0.1,0.1-0.3,0.1-0.3,0.1h-2.4
		c-0.1,0-0.1,0-0.1,0.1v0.5c0,0.1,0,0.1,0.1,0.1h1.8c0.3,0,0.5,0.1,0.7,0.3s0.3,0.4,0.3,0.7v3.5c0,0.3-0.1,0.5-0.3,0.7
		s-0.4,0.3-0.7,0.3h-1.8c-0.1,0-0.1,0-0.1,0.1v0.5c0,0.1,0,0.1,0.1,0.1h2.1c0.2,0,0.4,0.1,0.5,0.2c0.1,0.1,0.2,0.3,0.2,0.5
		c0,0.2-0.1,0.4-0.2,0.5s-0.3,0.2-0.5,0.2h-2.1C547.1,41.9,547.1,41.9,547.1,42z M547.1,35.7v0.5c0,0.1,0,0.2,0.1,0.2h1
		c0.1,0,0.1-0.1,0.1-0.2v-0.5c0-0.1,0-0.1-0.1-0.1h-1C547.1,35.6,547.1,35.6,547.1,35.7z M547.1,37.6v0.5c0,0.1,0,0.1,0.1,0.1h1
		c0.1,0,0.1,0,0.1-0.1v-0.5c0-0.1,0-0.2-0.1-0.2h-1C547.1,37.5,547.1,37.5,547.1,37.6z"/>
	<path class="st1" d="M560.6,31c-0.2,0-0.4-0.1-0.6-0.2c-0.2-0.2-0.2-0.4-0.2-0.6c0-0.2,0.1-0.4,0.2-0.6c0.2-0.2,0.3-0.2,0.6-0.2
		h13.9c0.2,0,0.4,0.1,0.6,0.2c0.2,0.2,0.2,0.3,0.2,0.6c0,0.2-0.1,0.4-0.2,0.6c-0.2,0.2-0.3,0.2-0.6,0.2h-5.9c-0.1,0-0.2,0-0.2,0.1
		v1.3c0,0.1,0.1,0.2,0.2,0.2h2.3c0.3,0,0.5,0.1,0.7,0.3s0.3,0.4,0.3,0.7v6.5c0,0.3-0.1,0.5-0.3,0.7c-0.2,0.2-0.4,0.3-0.7,0.3h-6
		h-0.7c-0.3,0-0.5-0.1-0.7-0.3c-0.2-0.2-0.3-0.4-0.3-0.7v-6.5c0-0.3,0.1-0.5,0.3-0.7c0.2-0.2,0.4-0.3,0.7-0.3h2.3
		c0.1,0,0.2-0.1,0.2-0.2v-1.3c0-0.1-0.1-0.1-0.2-0.1H560.6z M560.5,33.4c0.2-0.2,0.4-0.3,0.6-0.3c0.3,0,0.5,0.1,0.6,0.3
		s0.3,0.4,0.3,0.6v8c0,0.1,0,0.1,0.1,0.1H573c0.1,0,0.1,0,0.1-0.1v-8c0-0.3,0.1-0.5,0.3-0.6c0.2-0.2,0.4-0.3,0.6-0.3
		s0.5,0.1,0.6,0.3c0.2,0.2,0.3,0.4,0.3,0.6v9.7c0,0.3-0.1,0.5-0.3,0.6c-0.2,0.2-0.4,0.3-0.6,0.3h-0.1c-0.2,0-0.4-0.1-0.5-0.2
		c-0.2-0.1-0.2-0.3-0.2-0.5c0-0.1,0-0.1-0.1-0.1h-10.8c-0.1,0-0.1,0-0.1,0.1c0,0.2-0.1,0.4-0.2,0.5c-0.2,0.1-0.3,0.2-0.5,0.2h-0.1
		c-0.3,0-0.5-0.1-0.6-0.3s-0.3-0.4-0.3-0.6V34C560.3,33.8,560.4,33.6,560.5,33.4z M566.7,35.9v-1.8c0-0.1-0.1-0.2-0.2-0.2h-1.5
		c-0.1,0-0.1,0.1-0.1,0.2v1.8c0,0.1,0,0.1,0.1,0.1h1.5C566.6,36.1,566.7,36,566.7,35.9z M566.7,39.5v-1.9c0-0.1-0.1-0.1-0.2-0.1
		h-1.5c-0.1,0-0.1,0-0.1,0.1v1.9c0,0.1,0,0.2,0.1,0.2h1.5C566.6,39.7,566.7,39.6,566.7,39.5z M568.5,34.2v1.8c0,0.1,0.1,0.1,0.2,0.1
		h1.5c0.1,0,0.1,0,0.1-0.1v-1.8c0-0.1,0-0.2-0.1-0.2h-1.5C568.6,34,568.5,34.1,568.5,34.2z M568.5,37.6v1.9c0,0.1,0.1,0.2,0.2,0.2
		h1.5c0.1,0,0.1-0.1,0.1-0.2v-1.9c0-0.1,0-0.1-0.1-0.1h-1.5C568.6,37.4,568.5,37.5,568.5,37.6z"/>
	<path class="st1" d="M581.5,42.7c-0.9,0-1.6-0.5-2.3-1.4s-1.1-2.1-1.1-3.4c0-2.1,0.7-3.9,2.2-5.2c1.5-1.3,3.5-2,5.9-2
		c2,0,3.7,0.6,5,1.7s1.9,2.6,1.9,4.5c0,1.6-0.4,3-1.3,4.2c-0.9,1.2-2.1,2-3.6,2.4c-0.2,0.1-0.5,0-0.7-0.1s-0.4-0.3-0.4-0.5
		c-0.1-0.2-0.1-0.4,0.1-0.6c0.1-0.2,0.3-0.3,0.5-0.4c1.1-0.4,2-1,2.6-1.9c0.6-0.9,0.9-1.9,0.9-3.1c0-1.2-0.4-2.3-1.2-3.1
		c-0.8-0.8-1.8-1.3-3.1-1.4c-0.1,0-0.2,0-0.2,0.2c-0.5,3.4-1.2,6-2.1,7.7C583.8,41.9,582.7,42.7,581.5,42.7z M584.7,32.4
		c-1.5,0.3-2.7,0.9-3.5,1.8c-0.9,1-1.3,2.1-1.3,3.5c0,0.9,0.2,1.6,0.5,2.2c0.3,0.6,0.7,0.9,1.1,0.9c0.3,0,0.5-0.2,0.8-0.5
		c0.3-0.3,0.6-0.8,0.9-1.4s0.6-1.5,0.9-2.6c0.3-1.1,0.6-2.4,0.8-3.8C584.9,32.5,584.9,32.5,584.7,32.4
		C584.8,32.4,584.8,32.4,584.7,32.4z"/>
	<path class="st1" d="M596.6,43.7c-0.2,0.1-0.4,0.2-0.6,0.1s-0.4-0.1-0.5-0.3c-0.1-0.2-0.2-0.4-0.1-0.6c0.2-1,0.3-2.2,0.5-3.4
		c0-0.2,0.1-0.4,0.3-0.5c0.2-0.1,0.3-0.2,0.5-0.2c0.2,0,0.4,0.1,0.5,0.3s0.2,0.3,0.2,0.5c-0.1,1.2-0.2,2.4-0.5,3.6
		C596.9,43.4,596.8,43.5,596.6,43.7z M596.3,37.9c-0.2,0-0.4-0.1-0.5-0.2c-0.2-0.1-0.2-0.3-0.3-0.5c0-0.2,0.1-0.4,0.2-0.6
		c0.1-0.2,0.3-0.2,0.5-0.3l0.9-0.1c0.1,0,0.2,0,0.2-0.1l0.2-0.3c0.1-0.1,0.1-0.2,0-0.3c-0.5-0.8-1.1-1.7-1.7-2.7
		c-0.3-0.5-0.3-1,0-1.5c0.1-0.2,0.3-0.3,0.5-0.3s0.4,0.1,0.5,0.3c0,0,0,0,0,0.1c0,0,0,0.1,0,0.1c0,0.1,0.1,0.1,0.1,0
		c0.3-0.7,0.7-1.4,1-2.1c0.1-0.2,0.2-0.3,0.4-0.4c0.2-0.1,0.4-0.1,0.6,0s0.3,0.2,0.4,0.4c0.1,0.2,0.1,0.4,0,0.6
		c-0.4,0.9-0.9,1.9-1.5,3c0,0.1,0,0.2,0,0.2c0,0.1,0.1,0.2,0.2,0.4s0.2,0.3,0.2,0.4c0,0.1,0.1,0.1,0.1,0c0.5-0.8,1-1.8,1.6-2.8
		c0.1-0.2,0.2-0.3,0.5-0.4c0.2-0.1,0.4-0.1,0.6,0c0.2,0.1,0.3,0.2,0.4,0.5c0.1,0.2,0,0.4-0.1,0.6c-0.5,0.9-0.8,1.5-0.9,1.7
		c0,0,0,0,0,0.1c0,0,0,0,0.1,0l0.1,0c0.3-0.1,0.5,0,0.8,0.1c0.2,0.1,0.4,0.3,0.5,0.6l0.2,0.6c0,0,0,0,0.1,0.1c0,0,0.1,0,0.1,0
		c0.6-0.7,1.2-1.4,1.6-2.2c0.1-0.2,0.3-0.3,0.5-0.4c0.2-0.1,0.4,0,0.6,0.1c0.2,0.1,0.3,0.3,0.4,0.5c0.1,0.2,0,0.5-0.1,0.7
		c-0.5,0.9-1.1,1.7-1.8,2.5c0,0,0,0,0,0.1c0,0,0,0,0.1,0l0.4-0.1c0.3-0.1,0.5,0,0.8,0.1s0.4,0.3,0.5,0.6c0.4,0.9,0.8,1.7,1.2,2.4
		c0,0.1,0.1,0.1,0.2,0c0.5-0.7,1-1.5,1.4-2.5c0.1-0.3,0.3-0.4,0.5-0.6s0.5-0.1,0.8-0.1l0.5,0.1c0,0,0,0,0.1,0c0,0,0,0,0-0.1
		c-0.7-0.9-1.3-1.7-2-2.4c-0.2-0.2-0.2-0.4-0.2-0.6c0-0.2,0.1-0.4,0.3-0.5c0.2-0.2,0.4-0.2,0.6-0.2c0.2,0,0.4,0.1,0.6,0.3
		c0.7,0.8,1.4,1.6,2.1,2.5c0.2,0.2,0.2,0.4,0.2,0.7c0,0.3-0.1,0.5-0.3,0.7l0,0c-0.1,0.2-0.3,0.2-0.5,0.2c-0.2,0-0.4-0.1-0.5-0.3
		c0,0-0.1,0-0.1,0c-0.6,1.6-1.3,3-2.1,4c-0.1,0.1,0,0.2,0,0.2c0.8,0.7,1.8,1.3,3.1,1.9c0.2,0.1,0.4,0.3,0.5,0.5
		c0.1,0.2,0.1,0.4,0,0.6c-0.1,0.2-0.2,0.4-0.5,0.5s-0.4,0.1-0.7,0c-1.5-0.6-2.7-1.3-3.7-2.2c-0.1-0.1-0.1-0.1-0.2,0
		c-1.1,0.9-2.4,1.6-4,2.3c-0.2,0.1-0.4,0.1-0.7,0c-0.2-0.1-0.4-0.3-0.5-0.5c-0.1-0.2-0.1-0.4,0-0.6c0.1-0.2,0.2-0.4,0.4-0.4
		c1.4-0.6,2.6-1.2,3.6-2c0.1,0,0.1-0.1,0-0.2c-0.8-1-1.5-2.3-2-3.8c0,0,0-0.1-0.1-0.1s-0.1,0-0.1,0l-0.2,0.2
		c-0.1,0.1-0.2,0.1-0.3,0.2c0,0.2,0,0.4-0.1,0.6c-0.1,0.2-0.3,0.3-0.5,0.3l-0.3,0c-0.1,0-0.3,0-0.4-0.1c-0.1-0.1-0.2-0.2-0.2-0.3
		c0,0-0.1-0.1-0.1-0.1l-1.2,0.1c-0.1,0-0.1,0.1-0.1,0.2v6c0,0.3-0.1,0.5-0.3,0.6c-0.2,0.2-0.4,0.3-0.6,0.3s-0.5-0.1-0.6-0.3
		c-0.2-0.2-0.3-0.4-0.3-0.6V38c0-0.1-0.1-0.1-0.2-0.1L596.3,37.9z M599.3,36.1c0,0.1,0,0.1,0.1,0.1l1.5-0.1c0.1,0,0.1-0.1,0.1-0.2
		c-0.2-0.6-0.3-1.2-0.4-1.7c0,0,0,0-0.1,0c0,0,0,0-0.1,0C600,35,599.6,35.6,599.3,36.1z M602.3,41.5c0,0.2,0,0.4-0.2,0.6
		c-0.1,0.2-0.3,0.3-0.5,0.3c-0.2,0-0.4,0-0.5-0.2c-0.2-0.1-0.2-0.3-0.3-0.5c-0.1-0.9-0.2-1.7-0.3-2.2c0-0.2,0-0.4,0.1-0.5
		c0.1-0.2,0.3-0.3,0.5-0.3c0.2,0,0.4,0,0.6,0.1c0.2,0.1,0.3,0.3,0.3,0.5C602.2,40.3,602.3,41,602.3,41.5z M606.3,28.8
		c0.2-0.2,0.4-0.3,0.7-0.3s0.5,0.1,0.7,0.3c0.2,0.2,0.3,0.4,0.3,0.7v0.9c0,0.1,0,0.2,0.1,0.2h3c0.2,0,0.4,0.1,0.6,0.2
		c0.2,0.2,0.2,0.3,0.2,0.6s-0.1,0.4-0.2,0.6c-0.2,0.2-0.3,0.2-0.6,0.2h-8.1c-0.2,0-0.4-0.1-0.6-0.2c-0.2-0.2-0.2-0.3-0.2-0.6
		s0.1-0.4,0.2-0.6c0.2-0.2,0.3-0.2,0.6-0.2h2.9c0.1,0,0.2-0.1,0.2-0.2v-0.9C606,29.2,606.1,29,606.3,28.8z"/>
	<path class="st1" d="M617.2,38.9c-0.2,0-0.4-0.1-0.6-0.2c-0.2-0.2-0.3-0.4-0.3-0.6c0-2.8,0.1-5.4,0.3-7.9c0-0.3,0.1-0.5,0.3-0.7
		c0.2-0.2,0.4-0.3,0.7-0.3c0.3,0,0.5,0.1,0.6,0.3c0.2,0.2,0.2,0.4,0.2,0.6c-0.1,1.2-0.1,2.3-0.2,3.4c0,0,0,0,0,0c0,0,0,0,0,0
		c1.2-2.2,2.7-3.3,4.7-3.3c1.4,0,2.5,0.5,3.3,1.5c0.8,1,1.2,2.4,1.2,4.4c0,2.4-0.7,4.3-2,5.6c-1.4,1.3-3.4,2.1-6.2,2.3
		c-0.2,0-0.4-0.1-0.6-0.2s-0.3-0.3-0.3-0.6c0-0.2,0.1-0.4,0.2-0.6c0.1-0.2,0.3-0.3,0.6-0.3c2.2-0.2,3.9-0.8,4.9-1.8
		c1-1,1.5-2.5,1.5-4.4c0-2.7-0.9-4-2.7-4c-1,0-2,0.5-2.9,1.6c-0.9,1.1-1.4,2.5-1.7,4.3c0,0.3-0.2,0.5-0.3,0.6
		C617.7,38.8,617.5,38.9,617.2,38.9z"/>
	<path class="st1" d="M632.5,37.1c-0.2,0-0.4-0.1-0.6-0.2s-0.2-0.3-0.2-0.6c0-0.2,0.1-0.4,0.2-0.6c0.2-0.2,0.3-0.2,0.6-0.2h2.2
		c0.3,0,0.5,0.1,0.7,0.3s0.3,0.4,0.3,0.7v4.3c0,0.1,0,0.2,0.1,0.3c0.4,0.7,1.1,1.2,2,1.4s2.5,0.4,4.8,0.4h4.2c0.2,0,0.4,0.1,0.5,0.2
		c0.2,0.2,0.2,0.3,0.2,0.6c0,0.2-0.1,0.4-0.3,0.6s-0.4,0.2-0.6,0.2h-4.2c-2.2,0-3.8-0.1-4.9-0.4s-2-0.7-2.5-1.3
		c-0.1-0.1-0.2-0.1-0.2,0c-0.6,0.6-1.2,1.1-1.8,1.5c-0.2,0.1-0.4,0.2-0.6,0.1c-0.2-0.1-0.4-0.2-0.5-0.4c-0.1-0.2-0.2-0.4-0.1-0.7
		c0.1-0.2,0.2-0.4,0.4-0.6c0.6-0.4,1.1-0.8,1.6-1.3c0.1,0,0.1-0.1,0.1-0.2v-4c0-0.1,0-0.2-0.1-0.2H632.5z M632.6,29.9
		c0.2-0.2,0.4-0.2,0.6-0.2s0.4,0.1,0.6,0.3c0.6,0.6,1.2,1.2,1.8,2c0.2,0.2,0.2,0.4,0.2,0.6c0,0.2-0.1,0.4-0.3,0.6
		c-0.2,0.2-0.4,0.2-0.6,0.2c-0.2,0-0.4-0.1-0.6-0.3c-0.8-0.9-1.4-1.5-1.8-1.9c-0.2-0.2-0.2-0.4-0.2-0.6
		C632.3,30.2,632.4,30,632.6,29.9z M637,39.8c1.4-1,2.5-2.3,3.3-3.7c0.8-1.5,1.2-3,1.2-4.5v-0.2c0-0.1,0-0.2-0.1-0.2h-2.6
		c-0.2,0-0.4-0.1-0.6-0.2c-0.2-0.2-0.2-0.4-0.2-0.6s0.1-0.4,0.2-0.6c0.2-0.2,0.4-0.2,0.6-0.2h3.6c0.3,0,0.5,0.1,0.7,0.3
		s0.3,0.4,0.3,0.7V31c0,2,0.3,3.7,0.9,5.2s1.4,2.7,2.5,3.6c0.2,0.2,0.3,0.4,0.3,0.6s0,0.5-0.2,0.7c-0.1,0.2-0.3,0.3-0.6,0.4
		c-0.2,0-0.5,0-0.7-0.2c-1.5-1.2-2.6-3-3.3-5.4c0-0.1-0.1-0.1-0.1,0c-0.5,1.1-1.1,2.1-1.8,3.1s-1.5,1.7-2.4,2.4
		c-0.2,0.2-0.4,0.2-0.7,0.2c-0.3-0.1-0.5-0.2-0.6-0.4c-0.1-0.2-0.2-0.4-0.2-0.7S636.8,39.9,637,39.8z"/>
	<path class="st1" d="M653.1,43.5c-0.8,0-1.5-0.4-2.2-1.2c-0.7-0.8-1-1.7-1-2.7c0-1,0.5-1.9,1.5-2.6s2.4-1.2,4.1-1.4
		c0.1,0,0.2-0.1,0.2-0.2c0.2-0.8,0.3-2,0.6-3.7c0-0.1,0-0.1-0.1-0.1c-1.5,0.1-2.8,0.2-4,0.3c-0.2,0-0.4-0.1-0.6-0.2
		c-0.2-0.2-0.3-0.3-0.3-0.6c0-0.2,0.1-0.4,0.2-0.6c0.2-0.2,0.4-0.2,0.6-0.3c2.5-0.1,4.2-0.2,5.2-0.3c0.2,0,0.4,0.1,0.6,0.2
		c0.2,0.1,0.3,0.3,0.3,0.5c0,0.5,0,1,0,1.6c-0.1,0.9-0.3,1.9-0.5,3.2c0,0.1,0,0.1,0.1,0.1c1.1,0.1,2.2,0.2,3.2,0.4
		c0.1,0,0.2,0,0.2-0.1c0.1-1.1,0.1-2.3,0.1-3.6c0-0.3,0.1-0.5,0.3-0.6c0.2-0.2,0.4-0.3,0.6-0.3s0.5,0.1,0.6,0.3
		c0.2,0.2,0.3,0.4,0.3,0.6c0,1.5-0.1,2.8-0.2,4.1c0,0.1,0,0.2,0.1,0.2c0.5,0.2,1.2,0.5,2,0.8c0.2,0.1,0.3,0.3,0.4,0.5
		c0.1,0.2,0.1,0.4-0.1,0.6s-0.3,0.3-0.5,0.4c-0.2,0.1-0.4,0.1-0.6,0c-0.5-0.3-1-0.5-1.4-0.6c-0.1,0-0.1,0-0.2,0.1
		c-0.3,1.4-0.7,2.5-1.2,3.3c-0.5,0.8-1.3,1.5-2.2,2.1c-0.2,0.1-0.4,0.2-0.7,0.1s-0.4-0.2-0.5-0.4c-0.1-0.2-0.2-0.4-0.1-0.6
		s0.2-0.4,0.4-0.5c0.8-0.5,1.3-1.1,1.8-1.8s0.7-1.6,0.9-2.8c0-0.1,0-0.2-0.1-0.2c-1.2-0.3-2.3-0.5-3.4-0.5c-0.1,0-0.2,0-0.2,0.1
		c-0.3,1.2-0.6,2.3-0.9,3.1c-0.3,0.8-0.6,1.5-1,1.9c-0.3,0.4-0.7,0.7-1.1,0.9C653.9,43.4,653.5,43.5,653.1,43.5z M655.1,37.3
		c-1.1,0.2-2,0.5-2.6,0.9c-0.6,0.4-0.9,0.9-0.9,1.4c0,0.5,0.2,1,0.5,1.4c0.3,0.4,0.7,0.7,1,0.7c0.8,0,1.5-1.4,2.1-4.3
		C655.3,37.4,655.2,37.4,655.1,37.3C655.2,37.3,655.2,37.3,655.1,37.3z"/>
	<path class="st1" d="M669.3,34.6c-0.2,0-0.4,0-0.6-0.2c-0.2-0.1-0.3-0.3-0.3-0.5c0-0.2,0.1-0.4,0.2-0.6c0.1-0.2,0.3-0.3,0.6-0.3
		c1.4-0.1,2.2-0.2,2.5-0.2c0.1,0,0.1,0,0.2-0.1c0.2-1,0.4-2,0.5-2.8c0-0.3,0.1-0.5,0.3-0.6c0.2-0.2,0.4-0.2,0.7-0.2
		c0.2,0,0.4,0.1,0.6,0.3c0.2,0.2,0.2,0.4,0.2,0.6c-0.1,0.9-0.3,1.8-0.4,2.5c0,0.1,0,0.2,0.1,0.2c0.6,0,0.9,0,1.1,0c0.6,0,1,0,1.3,0
		c0.3,0,0.6,0.1,0.9,0.2c0.3,0.1,0.5,0.2,0.6,0.4s0.3,0.4,0.4,0.7c0.1,0.3,0.2,0.7,0.2,1.1c0,0.4,0,0.9,0,1.6c0,2.4-0.4,4.2-1.1,5.5
		c-0.7,1.3-1.6,1.9-2.6,1.9c-0.6,0-1.4-0.3-2.3-0.8c-0.2-0.1-0.4-0.3-0.4-0.6c-0.1-0.2,0-0.5,0.1-0.7c0.1-0.2,0.3-0.3,0.5-0.4
		s0.5,0,0.6,0.1c0.7,0.4,1.2,0.6,1.4,0.6c0.2,0,0.5-0.1,0.7-0.4c0.2-0.2,0.4-0.6,0.6-1.1c0.2-0.5,0.3-1.1,0.5-1.9
		c0.1-0.8,0.2-1.7,0.2-2.6c0-0.9-0.1-1.5-0.3-1.7c-0.2-0.2-0.7-0.3-1.4-0.3c-0.3,0-0.8,0-1.4,0.1c-0.1,0-0.2,0-0.2,0.1
		c-0.7,2.9-1.7,5.9-3.2,8.9c-0.1,0.2-0.3,0.4-0.5,0.5c-0.2,0.1-0.5,0.1-0.7,0c-0.2-0.1-0.4-0.2-0.5-0.5c-0.1-0.2-0.1-0.4,0-0.7
		c1.3-2.7,2.3-5.4,2.9-8.1c0-0.1,0-0.1-0.1-0.1C671.1,34.4,670.5,34.4,669.3,34.6z M680.2,32.7c-0.2,0.1-0.4,0.1-0.6,0
		c-0.2-0.1-0.4-0.2-0.5-0.4c-0.1-0.2-0.2-0.4-0.4-0.7c-0.2-0.3-0.3-0.6-0.4-0.7c-0.1-0.2-0.1-0.4-0.1-0.6c0.1-0.2,0.2-0.4,0.4-0.5
		c0.2-0.1,0.4-0.1,0.6-0.1c0.2,0.1,0.4,0.2,0.5,0.4c0.2,0.3,0.5,0.8,0.8,1.5c0.1,0.2,0.1,0.4,0.1,0.6S680.4,32.6,680.2,32.7z
		 M681.8,34.6c0.8,1.9,1.5,3.5,2,4.9c0.1,0.2,0.1,0.5,0,0.7c-0.1,0.2-0.3,0.4-0.5,0.5c-0.2,0.1-0.5,0.1-0.7,0
		c-0.2-0.1-0.4-0.3-0.5-0.5c-0.6-1.7-1.3-3.3-1.9-4.8c-0.1-0.2-0.1-0.5,0-0.7c0.1-0.2,0.2-0.4,0.5-0.5c0.2-0.1,0.5-0.1,0.7,0
		S681.7,34.4,681.8,34.6z M683.4,31.6c-0.1,0.2-0.2,0.4-0.4,0.5c-0.2,0.1-0.4,0.1-0.6,0c-0.2-0.1-0.4-0.2-0.5-0.4
		c-0.1-0.2-0.2-0.4-0.4-0.7s-0.3-0.6-0.4-0.7c-0.1-0.2-0.1-0.4-0.1-0.6c0.1-0.2,0.2-0.4,0.4-0.5c0.2-0.1,0.4-0.1,0.6-0.1
		c0.2,0.1,0.4,0.2,0.5,0.4c0.2,0.3,0.5,0.8,0.8,1.5C683.4,31.2,683.4,31.4,683.4,31.6z"/>
	<path class="st1" d="M686.9,33.1c-0.3,0-0.5-0.1-0.6-0.2s-0.3-0.4-0.3-0.6s0.1-0.5,0.3-0.6c0.2-0.2,0.4-0.3,0.6-0.3
		c4-0.1,8.2-0.4,12.4-0.9c0.2,0,0.4,0,0.6,0.2c0.2,0.1,0.3,0.3,0.3,0.6s0,0.5-0.2,0.6c-0.2,0.2-0.3,0.3-0.6,0.3
		c-2.3,0.4-4,1.1-5.3,2.1c-1.2,1-1.8,2.1-1.8,3.5c0,1.2,0.4,2.2,1.3,2.9s2,1.2,3.6,1.5c0.3,0,0.5,0.1,0.6,0.3
		c0.2,0.2,0.2,0.4,0.2,0.6c0,0.2-0.1,0.4-0.3,0.6c-0.2,0.2-0.4,0.2-0.6,0.2c-2.1-0.2-3.8-0.9-4.9-1.9c-1.2-1-1.8-2.4-1.8-4
		c0-1.1,0.3-2.1,1-3.1s1.5-1.7,2.7-2.3c0,0,0,0,0,0c0,0,0,0,0,0C691.6,32.9,689.2,33.1,686.9,33.1z M696.8,34.6
		c0.2-0.1,0.4-0.1,0.6-0.1c0.2,0.1,0.4,0.2,0.5,0.4c0.2,0.3,0.4,0.8,0.8,1.5c0.1,0.2,0.1,0.4,0.1,0.6c-0.1,0.2-0.2,0.4-0.4,0.4
		c-0.2,0.1-0.4,0.1-0.6,0c-0.2-0.1-0.4-0.2-0.5-0.4c-0.1-0.2-0.2-0.4-0.4-0.7c-0.2-0.3-0.3-0.6-0.4-0.7c-0.1-0.2-0.1-0.4-0.1-0.6
		C696.5,34.9,696.6,34.7,696.8,34.6z M700.7,34.3c0.2,0.3,0.5,0.8,0.8,1.5c0.1,0.2,0.1,0.4,0.1,0.6c-0.1,0.2-0.2,0.4-0.4,0.5
		c-0.2,0.1-0.4,0.1-0.6,0s-0.4-0.2-0.5-0.4c-0.1-0.2-0.2-0.4-0.4-0.7c-0.2-0.3-0.3-0.6-0.4-0.7c-0.1-0.2-0.1-0.4-0.1-0.6
		c0.1-0.2,0.2-0.4,0.4-0.5c0.2-0.1,0.4-0.1,0.6-0.1C700.4,34,700.5,34.1,700.7,34.3z"/>
	<path class="st1" d="M705.3,36.5c-0.2,0-0.4-0.1-0.5-0.2c-0.2-0.1-0.2-0.3-0.2-0.5s0.1-0.4,0.2-0.5c0.1-0.2,0.3-0.2,0.5-0.2
		c2.3,0,4.6-0.2,6.9-0.4c0,0,0.1,0,0.1-0.1s0-0.1,0-0.1c-0.2-0.6-0.4-1.1-0.5-1.5c0-0.1-0.1-0.1-0.2-0.1c-1.7,0.2-3.4,0.2-5,0.3
		c-0.2,0-0.4-0.1-0.5-0.2c-0.2-0.1-0.2-0.3-0.2-0.5c0-0.2,0.1-0.4,0.2-0.5c0.2-0.1,0.3-0.2,0.5-0.2c1.4,0,3-0.1,4.6-0.3
		c0.1,0,0.1,0,0.1-0.1c-0.1-0.3-0.2-0.7-0.3-1.3c0-0.2,0-0.5,0.2-0.6c0.2-0.2,0.4-0.3,0.6-0.3c0.3,0,0.5,0.1,0.7,0.2
		c0.2,0.2,0.3,0.4,0.4,0.6c0.1,0.5,0.2,0.9,0.2,1.1c0,0.1,0.1,0.2,0.2,0.1c1.1-0.1,2.1-0.3,3.2-0.5c0.2,0,0.4,0,0.5,0.1
		s0.3,0.3,0.3,0.5c0,0.2,0,0.4-0.2,0.6s-0.3,0.3-0.5,0.3c-0.9,0.2-1.9,0.3-3,0.4c-0.1,0-0.1,0.1-0.1,0.2c0.2,0.6,0.4,1.1,0.5,1.5
		c0,0.1,0.1,0.1,0.2,0.1c1-0.1,2.2-0.3,3.5-0.5c0.2,0,0.4,0,0.6,0.1c0.2,0.1,0.3,0.3,0.3,0.5c0,0.2,0,0.4-0.2,0.6
		c-0.1,0.2-0.3,0.3-0.5,0.3c-0.9,0.2-2,0.3-3,0.4c0,0-0.1,0-0.1,0.1s0,0.1,0,0.1c0.4,0.8,0.9,1.6,1.5,2.5c0.1,0.2,0.2,0.5,0.1,0.7
		c-0.1,0.3-0.2,0.4-0.5,0.6l-0.1,0c-0.6,0.3-1.2,0.3-1.8,0c-1.2-0.5-2.2-0.8-3.3-0.8c-1.7,0-2.6,0.5-2.6,1.6c0,1.4,1.4,2.1,4.1,2.1
		c0.8,0,1.9-0.1,3.1-0.3c0.2,0,0.4,0,0.6,0.2s0.3,0.3,0.3,0.5c0,0.2,0,0.4-0.2,0.6c-0.1,0.2-0.3,0.3-0.5,0.3
		c-1.1,0.2-2.2,0.2-3.3,0.2c-2,0-3.5-0.3-4.5-0.9c-1-0.6-1.5-1.5-1.5-2.7c0-0.9,0.4-1.7,1.1-2.3s1.9-0.9,3.4-0.9
		c1.2,0,2.3,0.3,3.3,0.8h0v-0.1c-0.5-0.8-0.9-1.5-1.2-2.1c0-0.1-0.1-0.1-0.2-0.1C710.1,36.3,707.6,36.4,705.3,36.5z"/>
	<path class="st1" d="M723.6,33.1c-0.2,0-0.4-0.1-0.5-0.2c-0.1-0.1-0.2-0.3-0.2-0.5s0.1-0.4,0.2-0.5c0.2-0.1,0.3-0.2,0.5-0.2
		c2.1,0,4-0.1,5.9-0.2c0.1,0,0.1-0.1,0.1-0.2c0-0.6,0-1,0.1-1.3c0-0.3,0.1-0.5,0.3-0.7c0.2-0.2,0.4-0.3,0.7-0.3
		c0.3,0,0.5,0.1,0.6,0.3c0.2,0.2,0.2,0.4,0.2,0.7l-0.1,1.1c0,0.1,0.1,0.1,0.2,0.1c1-0.1,2.3-0.2,3.9-0.3c0.2,0,0.4,0,0.5,0.2
		c0.2,0.1,0.2,0.3,0.3,0.5c0,0.2-0.1,0.4-0.2,0.6c-0.1,0.2-0.3,0.3-0.5,0.3c-1.7,0.2-3,0.3-4.1,0.3c-0.1,0-0.1,0.1-0.1,0.2
		c0,0.7,0,1.2,0,1.6c0,0.1,0.1,0.1,0.2,0.1c1.1-0.1,2.2-0.2,3.2-0.3c0.2,0,0.4,0,0.5,0.2s0.3,0.3,0.3,0.5c0,0.2,0,0.4-0.2,0.6
		c-0.1,0.2-0.3,0.3-0.5,0.3c-1.1,0.1-2.2,0.2-3.3,0.3c-0.1,0-0.2,0-0.2,0.1c0,0,0,0.1,0,0.2s0,0.2,0,0.2c0,0.3,0,0.7,0,1.2
		c0,0.5,0,0.9,0,1.2c0,0.1,0,0.2,0.1,0.2c1,0.5,2.2,1.3,3.7,2.4c0.2,0.1,0.3,0.3,0.3,0.5c0,0.2,0,0.4-0.2,0.6
		c-0.1,0.2-0.3,0.3-0.6,0.3c-0.2,0-0.4,0-0.6-0.2c-1-0.7-1.9-1.3-2.7-1.8c-0.1-0.1-0.1,0-0.2,0.1c-0.1,1-0.5,1.7-1.1,2.2
		c-0.6,0.4-1.6,0.7-2.8,0.7c-1.2,0-2.2-0.3-2.9-0.8s-1-1.3-1-2.3c0-0.9,0.3-1.6,1-2.1c0.7-0.5,1.6-0.8,2.8-0.8c0.6,0,1.3,0.1,2,0.3
		c0,0,0.1,0,0.1,0c0,0,0-0.1,0-0.1c0-0.2,0-0.4,0-0.8c0-0.3,0-0.6,0-0.8c0,0,0-0.1,0-0.1c0-0.1,0-0.1,0-0.1c0-0.1-0.1-0.2-0.2-0.2
		c-1.4,0.1-3.1,0.1-5.2,0.2c-0.2,0-0.4-0.1-0.5-0.2c-0.2-0.1-0.2-0.3-0.2-0.5c0-0.2,0.1-0.4,0.2-0.5c0.1-0.1,0.3-0.2,0.5-0.2
		c2.1,0,3.8-0.1,5.1-0.2c0.1,0,0.2-0.1,0.2-0.2c0-0.4,0-0.9,0-1.6c0-0.1,0-0.1-0.1-0.1C727.6,33,725.7,33,723.6,33.1z M727.7,42.5
		c0.8,0,1.3-0.2,1.6-0.5c0.3-0.3,0.4-0.9,0.4-1.7c0-0.1,0-0.2-0.1-0.2c-0.7-0.3-1.3-0.4-1.9-0.4c-1.4,0-2.1,0.4-2.1,1.3
		C725.6,42,726.3,42.5,727.7,42.5z"/>
	<path class="st1" d="M740.7,32.9c-0.2,0-0.4-0.1-0.6-0.2s-0.2-0.3-0.2-0.6c0-0.2,0.1-0.4,0.2-0.6c0.1-0.2,0.3-0.2,0.5-0.2
		c2.8,0,5.3-0.1,7.7-0.2c0.1,0,0.1-0.1,0.1-0.2c0-0.6,0-1,0-1.3c0-0.3,0.1-0.5,0.3-0.6c0.2-0.2,0.4-0.3,0.6-0.3
		c0.2,0,0.5,0.1,0.6,0.3c0.2,0.2,0.3,0.4,0.3,0.6c0,0.3,0,0.7,0,1.2c0,0.1,0,0.1,0.1,0.1c1.2-0.1,2.5-0.1,4-0.3
		c0.2,0,0.4,0.1,0.6,0.2c0.2,0.1,0.3,0.3,0.3,0.5c0,0.2-0.1,0.4-0.2,0.6s-0.3,0.3-0.5,0.3c-1.5,0.1-2.8,0.2-4,0.3
		c-0.1,0-0.1,0.1-0.1,0.2c0.1,1.7,0.1,2.8,0.1,3c0,0.1,0,0.2,0.1,0.3c0.3,0.7,0.5,1.6,0.5,2.6c0,3.2-1.9,5.1-5.7,5.7
		c-0.3,0-0.5,0-0.7-0.2s-0.3-0.4-0.4-0.6c0-0.2,0-0.5,0.1-0.6c0.1-0.2,0.3-0.3,0.6-0.3c2.2-0.3,3.6-1.1,4-2.3c0,0,0.1-0.2,0.2-0.6
		c0,0,0,0,0,0h0c-0.6,0.6-1.3,0.9-2.4,0.9c-1,0-1.9-0.3-2.5-1c-0.7-0.6-1-1.5-1-2.5c0-1,0.3-1.8,1-2.4s1.5-1,2.5-1
		c0.7,0,1.3,0.2,1.9,0.5h0l0,0c0,0,0,0,0,0c0-0.3,0-0.7-0.1-1.3c0-0.1-0.1-0.2-0.2-0.2C745.8,32.8,743.2,32.9,740.7,32.9z
		 M745.6,38.4c0.4,0.4,0.8,0.6,1.3,0.6c0.5,0,1-0.2,1.3-0.6s0.6-0.8,0.6-1.3s-0.2-1-0.6-1.3s-0.8-0.6-1.3-0.6c-0.5,0-1,0.2-1.3,0.6
		s-0.6,0.8-0.6,1.3S745.3,38.1,745.6,38.4z"/>
	<path class="st1" d="M762.4,44.1c-0.6,0.6-1.2,0.8-2,0.8s-1.5-0.3-2-0.8c-0.6-0.6-0.8-1.2-0.8-2s0.3-1.5,0.8-2
		c0.6-0.6,1.2-0.8,2-0.8s1.5,0.3,2,0.8c0.6,0.6,0.8,1.2,0.8,2S763,43.5,762.4,44.1z M761.4,41c-0.3-0.3-0.6-0.4-1-0.4
		c-0.4,0-0.7,0.1-1,0.4c-0.3,0.3-0.4,0.6-0.4,1c0,0.4,0.1,0.7,0.4,1c0.3,0.3,0.6,0.4,1,0.4c0.4,0,0.7-0.1,1-0.4
		c0.3-0.3,0.4-0.6,0.4-1C761.9,41.6,761.7,41.3,761.4,41z"/>
</g>
<line id="XMLID_71_" class="st2" x1="-4" y1="51.5" x2="889" y2="51.5"/>
<g>
</g>
<g>
</g>
<g>
</g>
<g>
</g>
<g>
</g>
<g>
</g>
</svg>
