<?xml version="1.0" encoding="utf-8"?>
<!-- Generator: Adobe Illustrator 20.0.0, SVG Export Plug-In . SVG Version: 6.00 Build 0)  -->
<svg version="1.1" id="レイヤー_1" xmlns="http://www.w3.org/2000/svg" xmlns:xlink="http://www.w3.org/1999/xlink" x="0px"
	 y="0px" viewBox="0 0 875 175" style="enable-background:new 0 0 875 175;" xml:space="preserve">
<style type="text/css">
	.st0{fill:#FF9F23;}
	.st1{fill:#FFEA8B;}
	.st2{clip-path:url(#SVGID_2_);fill:#FF9F23;}
	.st3{fill:#FFDB63;}
	.st4{fill:#FFEA8B;stroke:#FF9F23;stroke-miterlimit:10;}
	.st5{fill:#FFDB63;stroke:#FF9F23;stroke-miterlimit:10;}
	.st6{fill:#FFFFFF;}
	.st7{clip-path:url(#SVGID_4_);fill:#FFDB63;}
	.st8{clip-path:url(#SVGID_6_);fill:#FFDB63;}
	.st9{clip-path:url(#SVGID_8_);fill:#FFDB63;}
	.st10{clip-path:url(#SVGID_10_);fill:#FFEA8B;}
</style>
<rect x="0" y="0.6" class="st0" width="875" height="175.2"/>
<g>
	<g>
		
			<ellipse transform="matrix(0.9881 -0.1535 0.1535 0.9881 -2.825 107.8798)" class="st1" cx="697.1" cy="72.2" rx="29.2" ry="29.2"/>
		
			<rect x="659.6" y="11.4" transform="matrix(0.8102 -0.5862 0.5862 0.8102 106.42 398.823)" class="st1" width="18.8" height="47.3"/>
	</g>
	<g>
		<defs>
			<path id="SVGID_1_" d="M643.9,101.2l77.3,52.2l39.3-104.6c0,0,12.3-11.7-21.8,6.7s-32.2,9.9-52,12.4
				C666.8,70.4,643.9,101.2,643.9,101.2z"/>
		</defs>
		<clipPath id="SVGID_2_">
			<use xlink:href="#SVGID_1_"  style="overflow:visible;"/>
		</clipPath>
		
			<ellipse transform="matrix(0.9881 -0.1535 0.1535 0.9881 -2.9651 107.9128)" class="st2" cx="697.2" cy="73.2" rx="25.4" ry="25.4"/>
	</g>
</g>
<g>
	<rect x="57" y="60.8" transform="matrix(0.9554 0.2954 -0.2954 0.9554 26.4218 -20.3938)" class="st3" width="47.5" height="33"/>
	
		<rect x="60.9" y="63.7" transform="matrix(0.9554 0.2954 -0.2954 0.9554 26.3878 -20.3235)" class="st0" width="39.1" height="26.9"/>
	<polygon class="st3" points="53.2,86 39,99.4 99.5,118.1 98.5,100 	"/>
	<polygon class="st4" points="54.3,88.5 47.1,95.4 95.3,110.3 95.3,101.2 	"/>
</g>
<g>
	
		<rect x="799.7" y="59.8" transform="matrix(0.861 0.5087 -0.5087 0.861 158.4606 -404.6869)" class="st5" width="39.6" height="55.4"/>
	<polygon class="st4" points="814.3,56.6 805.9,57.4 776.4,103.4 808.4,121.2 822.5,119.1 848.9,76.1 	"/>
	
		<rect x="786.7" y="61.9" transform="matrix(0.861 0.5087 -0.5087 0.861 157.5623 -397.106)" class="st5" width="36.9" height="55.4"/>
	<polygon class="st5" points="835.1,75.2 850.6,73.7 822.4,121.4 806.9,122.9 	"/>
</g>
<circle class="st3" cx="625.3" cy="147.5" r="26.1"/>
<circle class="st1" cx="102.1" cy="151.2" r="17.7"/>
<circle class="st1" cx="741.2" cy="141.4" r="14.1"/>
<circle class="st3" cx="275.2" cy="21.2" r="19.1"/>
<circle class="st3" cx="304.9" cy="153.4" r="18"/>
<circle class="st1" cx="474.6" cy="147.5" r="14.1"/>
<g>
	<path class="st6" d="M281.4,64.9c-0.7,4.8-1.8,9.5-3.3,14.1c-0.1,0.4,0,0.6,0.4,0.6h10c1.1,0,2,0.4,2.9,1.2
		c0.8,0.8,1.2,1.8,1.2,2.9v24.7c0,1.1-0.4,2-1.2,2.8c-0.8,0.8-1.8,1.2-2.9,1.2h-9.5c-0.4,0-0.6,0.2-0.6,0.6v1.6c0,0.9-0.3,1.8-1,2.5
		c-0.7,0.7-1.5,1-2.5,1c-1,0-1.8-0.3-2.4-1c-0.7-0.7-1-1.5-1-2.5V92.8c0-0.1,0-0.2-0.1-0.2c-0.1,0-0.1,0-0.2,0
		c-0.8,1.4-1.5,2.5-2.1,3.3c-0.5,0.7-1.1,0.9-1.9,0.7c-0.8-0.2-1.3-0.7-1.5-1.5l-0.2-0.9c-0.6-2.5-0.2-4.9,1.3-7.3
		c3.8-6.2,6.5-13.6,7.8-22.3c0.1-0.4-0.1-0.6-0.5-0.6h-4c-0.9,0-1.7-0.3-2.3-0.9c-0.6-0.6-0.9-1.4-0.9-2.3c0-0.9,0.3-1.7,0.9-2.3
		c0.6-0.6,1.4-0.9,2.3-0.9h19.2c0.9,0,1.7,0.3,2.3,0.9c0.6,0.6,0.9,1.4,0.9,2.3c0,0.9-0.3,1.7-0.9,2.3c-0.6,0.6-1.4,0.9-2.3,0.9
		h-7.2C281.7,64.2,281.5,64.5,281.4,64.9z M278.3,86.6v18.9c0,0.4,0.2,0.6,0.6,0.6h6.4c0.4,0,0.6-0.2,0.6-0.6V86.6
		c0-0.4-0.2-0.6-0.6-0.6h-6.4C278.5,86,278.3,86.2,278.3,86.6z M329.2,81.7c0.9,0,1.7,0.3,2.3,0.9c0.6,0.6,0.9,1.4,0.9,2.3
		c0,0.9-0.3,1.7-0.9,2.3c-0.6,0.6-1.4,0.9-2.3,0.9h-3.6c-0.4,0-0.6,0.2-0.6,0.6V115c0,1-0.4,1.9-1.1,2.7c-0.7,0.7-1.6,1.1-2.7,1.1
		c-1,0-1.9-0.4-2.6-1.1c-0.7-0.7-1.1-1.6-1.1-2.7V88.8c0-0.4-0.2-0.6-0.6-0.6h-7.6c-0.4,0-0.6,0.2-0.6,0.6c-0.5,7-1.3,12.6-2.5,16.8
		c-1.2,4.2-2.9,7.8-5.2,10.8c-0.6,0.9-1.5,1.3-2.5,1.3c-1.1,0-2-0.4-2.7-1.1c-0.8-0.8-1.2-1.7-1.2-2.8c0-1.1,0.3-2.1,1-3
		c1.7-2.4,3-5.2,3.9-8.5c0.9-3.3,1.6-7.8,2-13.5c0-0.4-0.2-0.6-0.6-0.6h-3.2c-0.9,0-1.7-0.3-2.3-0.9c-0.6-0.6-0.9-1.4-0.9-2.3
		c0-0.9,0.3-1.7,0.9-2.3c0.6-0.6,1.4-0.9,2.3-0.9h3.5c0.4,0,0.6-0.2,0.6-0.6c0.1-4.2,0.1-7.7,0.1-10.5v-5.6c0-0.4-0.2-0.6-0.6-0.6
		h-2.8c-0.9,0-1.7-0.3-2.2-0.9c-0.6-0.6-0.9-1.4-0.9-2.3c0-0.9,0.3-1.7,0.9-2.3c0.6-0.6,1.3-0.9,2.2-0.9h30.1c0.9,0,1.7,0.3,2.3,0.9
		c0.6,0.6,0.9,1.4,0.9,2.3c0,0.9-0.3,1.7-0.9,2.3c-0.6,0.6-1.4,0.9-2.3,0.9h-2.9c-0.4,0-0.6,0.2-0.6,0.6v16.2c0,0.4,0.2,0.6,0.6,0.6
		H329.2z M317.5,81.1V64.9c0-0.4-0.2-0.6-0.6-0.6h-7.1c-0.4,0-0.6,0.2-0.6,0.6v5.6c0,2.8,0,6.3-0.1,10.5c0,0.4,0.2,0.6,0.6,0.6h7.3
		C317.3,81.7,317.5,81.5,317.5,81.1z"/>
	<path class="st6" d="M343.8,118.7c-1,0.3-1.9,0.3-2.9,0c-1-0.4-1.7-1-2.2-1.8c-0.5-0.8-0.6-1.6-0.3-2.4s0.9-1.4,1.7-1.7
		c5.4-1.9,9.5-3.9,12.4-6.3c2.9-2.3,4.9-5.3,6.1-8.8c0.1-0.4,0-0.6-0.4-0.6h-13.2c-0.9,0-1.7-0.3-2.3-0.9c-0.6-0.6-1-1.4-1-2.3
		c0-0.9,0.3-1.7,1-2.3c0.6-0.6,1.4-0.9,2.3-0.9h14.4c0.4,0,0.6-0.2,0.6-0.6c0.1-0.8,0.1-1.3,0.1-1.7c0.1-1.1,0.5-2,1.2-2.7
		c0.7-0.7,1.6-1.1,2.7-1.1c1.1,0,2,0.4,2.7,1.1c0.7,0.8,1,1.7,1,2.7c0,0.7,0,1.3-0.1,1.6c0,0.4,0.2,0.6,0.6,0.6h14.5
		c1.1,0,2,0.4,2.9,1.2c0.8,0.8,1.2,1.8,1.2,2.9V110c0,1,0.2,1.5,0.6,1.7c0.4,0.2,1.7,0.3,4,0.3c1.3,0,2.2,0,2.7-0.1s1-0.4,1.5-1
		c0.5-0.6,0.8-1.4,1-2.5c0.2-1,0.3-2.7,0.5-5c0.1-0.9,0.5-1.7,1.2-2.4c0.7-0.6,1.5-0.9,2.5-0.8c0.9,0.1,1.7,0.5,2.4,1.3
		c0.6,0.8,0.9,1.7,0.9,2.6c-0.2,2.4-0.4,4.3-0.6,5.8c-0.2,1.5-0.6,2.8-1.1,3.9c-0.5,1.1-1,2-1.5,2.5s-1.3,1-2.5,1.3
		c-1.2,0.3-2.3,0.5-3.5,0.6c-1.1,0.1-2.8,0.1-4.9,0.1c-4.8,0-7.7-0.4-9-1.2c-1.2-0.8-1.9-2.8-1.9-5.9V97.7c0-0.4-0.2-0.6-0.6-0.6
		h-11.4c-0.4,0-0.7,0.2-0.8,0.6c-1.4,5-3.9,9.1-7.6,12.5C355.3,113.5,350.3,116.3,343.8,118.7z M381.9,86.4c-3.7-0.1-6-0.5-7-1.1
		c-1-0.6-1.4-2-1.4-4.1v-13c0-0.4-0.2-0.6-0.6-0.6H368c-0.4,0-0.6,0.2-0.6,0.6c-0.7,9.2-8.3,15.5-22.8,18.9
		c-0.9,0.2-1.7,0.1-2.5-0.4c-0.8-0.5-1.3-1.1-1.5-2c-0.2-0.8-0.1-1.6,0.4-2.3c0.5-0.7,1.1-1.2,1.9-1.4c11.1-2.4,16.8-6.7,17.1-12.9
		c0-0.3-0.2-0.5-0.6-0.5H348c-0.4,0-0.6,0.2-0.6,0.6v4.1c0,1-0.4,1.9-1.1,2.6c-0.7,0.7-1.6,1.1-2.6,1.1c-1,0-1.9-0.4-2.6-1.1
		c-0.7-0.7-1.1-1.6-1.1-2.6v-6.9c0-1.1,0.4-2,1.2-2.9c0.8-0.8,1.8-1.2,2.9-1.2h21.7c0.4,0,0.6-0.2,0.6-0.6v-3c0-1,0.4-2,1.1-2.7
		c0.8-0.8,1.7-1.2,2.8-1.2c1.1,0,2,0.4,2.8,1.2c0.8,0.8,1.1,1.7,1.1,2.7v3c0,0.4,0.2,0.6,0.6,0.6h21.7c1.1,0,2,0.4,2.8,1.2
		c0.8,0.8,1.2,1.8,1.2,2.9v4.8c0,1-0.4,1.9-1.1,2.6c-0.7,0.7-1.6,1.1-2.6,1.1c-1,0-1.9-0.4-2.6-1.1c-0.7-0.7-1.1-1.6-1.1-2.6v-2
		c0-0.4-0.2-0.6-0.6-0.6h-11.3c-0.4,0-0.6,0.2-0.6,0.6v9.9c0,1.1,0.1,1.8,0.3,2c0.2,0.2,1,0.3,2.3,0.4c0.6,0,1.5,0.1,2.9,0.1
		c1.3,0,2.3,0,2.9-0.1c2-0.1,3.2-0.4,3.6-0.7c0.1-0.1,0.3-0.2,0.4-0.4c1.1-2.3,2.5-3.4,4.2-3.2c1,0.1,1.9,0.5,2.5,1.3
		c0.6,0.8,0.9,1.7,0.7,2.7c-0.4,2.7-1.2,4.4-2.5,5.1c-1.3,0.7-4.2,1-8.7,1.1c-0.4,0-1,0-1.9,0.1c-0.9,0-1.5,0.1-2,0.1
		C384.8,86.5,383.5,86.5,381.9,86.4z"/>
	<path class="st6" d="M436.9,111.4c0.4,0,0.6-0.2,0.6-0.6v-6.3c0-0.4-0.2-0.6-0.6-0.6h-19.1c-0.8,0-1.5-0.3-2.1-0.9
		c-0.6-0.6-0.9-1.3-0.9-2.1c0-0.8,0.3-1.5,0.9-2.1c0.6-0.6,1.3-0.9,2.1-0.9h19.1c0.4,0,0.6-0.2,0.6-0.6v-4.2c0-0.8,0.2-1.4,0.5-1.9
		c0.1-0.1,0.1-0.2,0.1-0.3c0-0.1-0.1-0.2-0.2-0.2c-7.4,0.5-14.5,0.8-21.4,1.1c-0.9,0-1.6-0.2-2.3-0.8c-0.7-0.6-1-1.3-1.1-2.1
		c0-0.8,0.2-1.5,0.8-2.1c0.6-0.6,1.3-1,2.1-1c0.8,0,1.9,0,3.4-0.1c1.5-0.1,2.7-0.1,3.5-0.2c0.4,0,0.7-0.2,0.9-0.5
		c1.3-2.1,2.7-4.7,4.2-7.8c0-0.1,0-0.3,0-0.4c-0.1-0.1-0.2-0.2-0.3-0.2h-10.3c-0.7,0-1.2-0.2-1.7-0.7c-0.5-0.5-0.7-1-0.7-1.6
		c0-0.2-0.1-0.4-0.4-0.4h-0.6c-1.1,0-2-0.4-2.9-1.2c-0.8-0.8-1.2-1.8-1.2-2.9V64c0-1.1,0.4-2,1.2-2.9c0.8-0.8,1.8-1.2,2.9-1.2h22.7
		c0.4,0,0.6-0.2,0.6-0.6v-1.6c0-1,0.4-2,1.2-2.7c0.8-0.8,1.7-1.2,2.7-1.2c1,0,2,0.4,2.7,1.2c0.8,0.8,1.2,1.7,1.2,2.7v1.6
		c0,0.4,0.2,0.6,0.6,0.6h22.7c1.1,0,2,0.4,2.9,1.2c0.8,0.8,1.2,1.8,1.2,2.9v5.8c0,1.1-0.4,2-1.2,2.9c-0.8,0.8-1.8,1.2-2.9,1.2h-0.6
		c-0.2,0-0.4,0.1-0.4,0.4c0,0.6-0.2,1.2-0.7,1.6c-0.5,0.5-1,0.7-1.7,0.7h-5.3c-0.1,0-0.2,0.1-0.2,0.2c-0.1,0.1-0.1,0.2,0,0.3
		c3.5,3.9,6.5,7.5,9,10.8c0.6,0.8,0.8,1.6,0.6,2.5c-0.2,0.9-0.7,1.6-1.5,2c-0.9,0.5-1.9,0.6-2.9,0.4c-1-0.2-1.9-0.8-2.5-1.6
		c-0.2-0.2-0.5-0.5-0.8-1c-0.3-0.5-0.6-0.8-0.7-1c-0.3-0.3-0.6-0.5-0.9-0.4c-1.4,0.1-6.6,0.6-15.6,1.4c-0.1,0-0.2,0.1-0.2,0.2
		c0,0.1,0,0.2,0.1,0.3c0.6,0.7,0.9,1.5,0.9,2.5v4.2c0,0.4,0.2,0.6,0.6,0.6h18.4c0.8,0,1.5,0.3,2.1,0.9c0.6,0.6,0.9,1.3,0.9,2.1
		c0,0.8-0.3,1.5-0.9,2.1c-0.6,0.6-1.3,0.9-2.1,0.9H446c-0.4,0-0.6,0.2-0.6,0.6v6.3c0,0.4,0.2,0.6,0.6,0.6h24c0.9,0,1.6,0.3,2.2,0.9
		c0.6,0.6,0.9,1.4,0.9,2.2s-0.3,1.6-0.9,2.2c-0.6,0.6-1.4,0.9-2.2,0.9h-57.1c-0.9,0-1.6-0.3-2.2-0.9c-0.6-0.6-0.9-1.4-0.9-2.2
		s0.3-1.6,0.9-2.2c0.6-0.6,1.4-0.9,2.2-0.9H436.9z M418.2,70.7h46.5c0.4,0,0.6-0.2,0.6-0.6v-3.3c0-0.4-0.2-0.6-0.6-0.6h-46.5
		c-0.4,0-0.6,0.2-0.6,0.6V70C417.6,70.4,417.8,70.7,418.2,70.7z M432.2,84.5c-0.2,0.3-0.2,0.5,0.2,0.5c6.5-0.4,14.2-1,23.3-1.8
		c0.1,0,0.2-0.1,0.2-0.2c0.1-0.1,0.1-0.2,0-0.3c-0.6-0.7-1.5-1.7-2.7-3.1c-1.2-1.3-1.9-2.2-2.2-2.6c-0.3-0.3-0.7-0.5-1-0.5h-13.2
		c-0.4,0-0.7,0.2-0.9,0.6C435,79.3,433.7,81.8,432.2,84.5z"/>
	<path class="st6" d="M484.6,115.3c-0.7,0.5-1.4,0.6-2.2,0.5c-0.8-0.1-1.4-0.6-1.9-1.2c-0.5-0.7-0.6-1.4-0.5-2.2
		c0.9-4.6,1.5-9.3,1.9-14c0.1-0.8,0.4-1.5,1-2c0.6-0.5,1.3-0.7,2.1-0.7c0.8,0,1.5,0.4,2.1,1.1c0.6,0.7,0.8,1.4,0.7,2.2
		c-0.4,4.9-1.1,9.7-1.9,14.4C485.7,114.2,485.3,114.9,484.6,115.3z M486.1,85.3c0.2-0.2,0.4-0.6,0.7-1.1c0.3-0.5,0.5-0.9,0.7-1.1
		c0.2-0.3,0.2-0.7,0-1c-2.4-3.8-4.5-7.1-6.3-9.9c-1.3-2-1.3-4,0-6.1c0.5-0.7,1.1-1.1,1.9-1.1c0.8,0,1.4,0.3,1.9,1
		c0,0,0.1,0.1,0.2,0.3c0.1,0.1,0.1,0.2,0.2,0.3c0,0.1,0.1,0.1,0.3,0.1c0.1,0,0.3,0,0.4-0.1c1.3-2.6,2.6-5.4,3.8-8.5
		c0.4-0.8,1-1.4,1.8-1.7c0.8-0.4,1.7-0.4,2.5,0c0.8,0.4,1.4,1,1.7,1.8c0.3,0.8,0.3,1.7,0,2.5c-1.9,4.1-3.8,8.2-6,12.2
		c-0.2,0.4-0.2,0.7,0,1c0.1,0.2,0.4,0.6,0.7,1.1c0.3,0.5,0.5,0.9,0.7,1.1c0.2,0.3,0.5,0.4,0.6,0.1c1.7-2.9,3.7-6.4,5.8-10.5
		c0.4-0.8,1-1.3,1.8-1.6c0.8-0.3,1.7-0.2,2.5,0.2c0.8,0.4,1.3,1.1,1.6,1.9c0.3,0.8,0.2,1.7-0.2,2.5c-1.2,2.2-2.5,4.6-4,7.2
		c0,0,0,0.1,0.1,0.2c0.1,0.1,0.2,0.1,0.3,0.1c1.1-0.3,2.1-0.2,3.1,0.4c1,0.5,1.6,1.4,1.9,2.5c1,4,1.9,7.6,2.6,10.8
		c0.2,0.8,0.1,1.5-0.4,2.2c-0.4,0.7-1,1.1-1.9,1.3l-0.5,0.1c-0.7,0.1-1.3,0-1.8-0.3c-0.5-0.4-0.9-0.9-1-1.5
		c-0.1-0.2-0.3-0.4-0.5-0.4l-3.8,0.3c-0.4,0-0.6,0.2-0.6,0.6v24.3c0,1-0.4,1.9-1.1,2.6s-1.6,1.1-2.6,1.1c-1,0-1.9-0.4-2.6-1.1
		s-1.1-1.6-1.1-2.6V92.4c0-0.4-0.2-0.6-0.6-0.6l-5.4,0.4c-0.9,0-1.6-0.2-2.2-0.8c-0.6-0.6-1-1.3-1-2.1c0-0.9,0.2-1.6,0.8-2.2
		c0.6-0.6,1.3-1,2.2-1l1.9-0.1C485.5,85.8,485.8,85.7,486.1,85.3z M493.7,84.9c0,0.1,0,0.2,0,0.3c0.1,0.1,0.2,0.1,0.3,0.1l5.5-0.4
		c0.4,0,0.6-0.2,0.5-0.6c-0.5-1.9-1-3.9-1.6-6.1c-0.1-0.4-0.3-0.5-0.5-0.2C497,79.6,495.6,81.9,493.7,84.9z M502.8,113.3
		c-0.8,0-1.4-0.2-2.1-0.7c-0.6-0.5-1-1.2-1.1-2c-0.3-4.7-0.7-8.8-1.2-12.2c-0.1-0.8,0.1-1.5,0.6-2.1c0.5-0.7,1.1-1,1.9-1.1
		c0.8-0.1,1.5,0.1,2.2,0.6c0.6,0.5,1,1.1,1.1,1.9c0.3,2.4,0.8,6.6,1.3,12.4c0.1,0.8-0.1,1.5-0.7,2.2
		C504.3,112.9,503.6,113.3,502.8,113.3z M540.6,57.8c1.1,0,2,0.4,2.8,1.2c0.8,0.8,1.2,1.8,1.2,2.9c0,7.1-0.4,12.3-1,15.7
		c-0.6,3.4-1.5,5.6-2.6,6.7c-1.1,1-2.8,1.5-5.1,1.5c-0.9,0-3.5-0.1-7.8-0.3c-0.9,0-1.7-0.4-2.3-1c-0.6-0.6-1-1.4-1-2.3
		c0-0.9,0.2-1.6,0.9-2.2c0.6-0.6,1.4-0.9,2.2-0.9c2.3,0.1,4.1,0.2,5.3,0.2c0.9,0,1.7-0.3,2.2-0.9c0.5-0.6,0.9-1.9,1.2-4.1
		c0.3-2.1,0.5-5.3,0.5-9.6c0-0.4-0.2-0.6-0.6-0.6h-7.9c-0.4,0-0.6,0.2-0.7,0.6c-0.8,4.9-2.5,9.3-5,13.1c-2.5,3.8-5.7,6.9-9.4,9.2
		c-0.9,0.5-1.8,0.6-2.7,0.3c-1-0.3-1.7-0.8-2.2-1.6c-0.5-0.8-0.6-1.6-0.4-2.5c0.2-0.9,0.7-1.6,1.5-2.1c5.7-3.8,9.3-9.2,10.8-16.5
		c0.1-0.4,0-0.6-0.4-0.6h-9.6c-0.9,0-1.7-0.3-2.3-0.9c-0.6-0.6-1-1.4-1-2.3c0-0.9,0.3-1.7,1-2.3c0.6-0.6,1.4-0.9,2.3-0.9H540.6z
		 M513,119.5h-0.7c-1,0-1.9-0.4-2.6-1.1c-0.7-0.7-1.1-1.6-1.1-2.6V94.1c0-1.1,0.4-2,1.2-2.8c0.8-0.8,1.8-1.2,2.9-1.2h26.3
		c1.1,0,2,0.4,2.9,1.2c0.8,0.8,1.2,1.8,1.2,2.8v21.6c0,1-0.4,1.9-1.1,2.7c-0.7,0.7-1.6,1.1-2.7,1.1h-0.8c-0.8,0-1.5-0.3-2.1-0.9
		c-0.6-0.6-0.9-1.3-0.9-2.1c0-0.3-0.1-0.4-0.4-0.4h-18.7c-0.3,0-0.4,0.1-0.4,0.4c0,0.8-0.3,1.5-0.9,2.1
		C514.5,119.2,513.8,119.5,513,119.5z M515.9,96.9v12.5c0,0.4,0.2,0.6,0.6,0.6h18.4c0.4,0,0.6-0.2,0.6-0.6V96.9
		c0-0.4-0.2-0.6-0.6-0.6h-18.4C516.1,96.3,515.9,96.5,515.9,96.9z"/>
	<path class="st6" d="M556.7,80.5c-0.9,0.5-1.7,0.6-2.7,0.3c-0.9-0.3-1.6-0.8-2.1-1.7c-0.5-0.9-0.6-1.8-0.2-2.7
		c0.3-0.9,0.9-1.6,1.7-2.2c8.3-4.7,15.9-10,22.8-16c2-1.8,4.4-2.6,7.1-2.6h1.4c2.7,0,5,0.9,7.1,2.6c6.9,5.9,14.5,11.3,22.8,16
		c0.9,0.5,1.4,1.2,1.7,2.2c0.3,0.9,0.2,1.8-0.2,2.7c-0.5,0.9-1.2,1.4-2.1,1.7c-0.9,0.3-1.8,0.2-2.7-0.3c-9.7-5.5-18.7-12-26.9-19.6
		c-0.3-0.2-0.6-0.2-0.9,0.1C575.4,68.4,566.5,74.9,556.7,80.5z M567.2,79.8c0-1.1,0.4-2,1.1-2.7c0.7-0.7,1.7-1.1,2.7-1.1
		c1,0,1.9,0.4,2.7,1.1c0.7,0.7,1.1,1.7,1.1,2.7v2.8c0,9.9-1,17.4-3,22.4c-2,5-5.7,9.2-11,12.5c-0.9,0.6-1.9,0.7-2.9,0.5
		c-1-0.2-1.9-0.8-2.5-1.6c-0.6-0.8-0.7-1.7-0.5-2.7c0.2-1,0.7-1.8,1.6-2.3c4.1-2.6,6.9-5.9,8.4-10c1.5-4.1,2.3-10.3,2.3-18.8V79.8z
		 M594.1,79.9c0-1,0.4-2,1.2-2.7c0.8-0.8,1.7-1.2,2.8-1.2c1,0,1.9,0.4,2.7,1.1c0.8,0.8,1.1,1.7,1.1,2.8v34.9c0,1.1-0.4,2-1.1,2.8
		c-0.8,0.8-1.7,1.1-2.7,1.1c-1.1,0-2-0.4-2.8-1.2c-0.8-0.8-1.2-1.7-1.2-2.7V79.9z"/>
</g>
<g>
	<g>
		<path class="st1" d="M244.6,67.3c0,16.5-25.2,29.9-56.3,29.9s-56.3-13.4-56.3-29.9c0-9.2,7.8-17.4,20.1-22.9
			c9.8-4.4,22.4-7,36.2-7C219.4,37.3,244.6,50.7,244.6,67.3z"/>
		<path class="st1" d="M237.7,79c0,4.7,11.8,9,10.4,10.4c-1.4,1.4-13.6,2.4-20.5-4.5"/>
	</g>
	<g>
		<path class="st0" d="M155.4,71.9c-0.3,0.1-0.6,0-0.9-0.1c-0.3-0.2-0.5-0.4-0.6-0.7c-0.1-0.3-0.1-0.6,0.1-0.8
			c0.2-0.3,0.4-0.4,0.7-0.5c3.1-0.8,5.9-1.9,8.5-3.3c0.1-0.1,0.2-0.2,0.1-0.3c-0.4-0.5-1.1-1.3-2-2.3c-0.2-0.3-0.3-0.5-0.3-0.9
			c0-0.3,0.2-0.6,0.4-0.8c0.3-0.2,0.6-0.3,0.9-0.3c0.4,0,0.6,0.2,0.9,0.4c0.7,0.8,1.5,1.6,2.3,2.6c0.1,0.1,0.2,0.2,0.3,0.1
			c2.4-1.7,4.1-3.4,5-5.1c0,0,0-0.1,0-0.1c0-0.1-0.1-0.1-0.1-0.1h-8.1c-0.2,0-0.3,0.1-0.4,0.2c-1.6,1.6-3.5,3-5.6,4.3
			c-0.3,0.2-0.6,0.2-0.9,0.1c-0.3-0.1-0.5-0.3-0.7-0.5c-0.2-0.3-0.2-0.6-0.1-0.9c0.1-0.3,0.3-0.5,0.5-0.7c2.8-1.9,5.1-3.8,6.7-5.9
			c0.2-0.3,0.5-0.4,0.8-0.5c0.3-0.1,0.7-0.1,1,0.1c0.3,0.1,0.5,0.3,0.6,0.6c0.1,0.3,0,0.6-0.1,0.8c-0.1,0.1-0.1,0.2,0.1,0.2h7.9
			c0.3,0,0.6,0.1,0.8,0.3c0.2,0.2,0.3,0.5,0.3,0.8c0,0.9-0.2,1.6-0.5,2.2c-1.4,2.5-3.7,4.8-6.8,6.7c0,0,0,0,0,0.1c0,0,0,0,0.1,0h8.2
			c0.4,0,0.7,0.1,1,0.4c0.3,0.3,0.4,0.6,0.4,1v8c0,0.4-0.1,0.7-0.4,1c-0.3,0.3-0.6,0.4-1,0.4h-0.3c-0.3,0-0.6-0.1-0.8-0.3
			c-0.2-0.2-0.3-0.5-0.3-0.8c0-0.1-0.1-0.2-0.2-0.2h-9.7c-0.1,0-0.2,0.1-0.2,0.2c0,0.3-0.1,0.6-0.3,0.8c-0.2,0.2-0.5,0.3-0.8,0.3
			h-0.3c-0.4,0-0.7-0.1-0.9-0.4c-0.3-0.3-0.4-0.6-0.4-0.9v-6.5c0-0.1,0-0.1-0.1-0.1c-0.1,0-0.1,0-0.2,0
			C158.7,70.9,157.1,71.4,155.4,71.9z M173.2,69.9c0-0.2-0.1-0.2-0.2-0.2h-9.6c-0.2,0-0.2,0.1-0.2,0.2v4.7c0,0.2,0.1,0.2,0.2,0.2
			h9.6c0.1,0,0.2-0.1,0.2-0.2V69.9z"/>
		<path class="st0" d="M201.4,62c0,0.3-0.1,0.6-0.4,0.8c-0.2,0.2-0.5,0.4-0.9,0.4h-7.9c-0.2,0-0.2,0.1-0.2,0.2
			c0.3,2.6,1.2,4.9,2.7,6.9c1.5,2,3.5,3.7,6,5.1c0.3,0.2,0.5,0.4,0.6,0.7c0.1,0.3,0,0.6-0.2,0.9c-0.2,0.3-0.5,0.5-0.8,0.6
			c-0.4,0.1-0.7,0.1-1-0.1c-1.9-1-3.6-2.4-5.1-4.1c-1.5-1.7-2.6-3.5-3.5-5.6c0,0,0-0.1-0.1-0.1s-0.1,0-0.1,0.1
			c-0.8,2.1-2,3.9-3.5,5.6c-1.5,1.7-3.3,3-5.2,4.1c-0.3,0.2-0.7,0.2-1,0.1c-0.4-0.1-0.6-0.3-0.8-0.6c-0.2-0.3-0.2-0.6-0.2-0.9
			c0.1-0.3,0.3-0.6,0.5-0.7c2.5-1.4,4.5-3.1,6-5.1c1.5-2,2.4-4.3,2.7-6.9c0-0.2,0-0.2-0.2-0.2h-7.9c-0.3,0-0.6-0.1-0.9-0.4
			c-0.2-0.2-0.4-0.5-0.4-0.8c0-0.3,0.1-0.6,0.4-0.9c0.2-0.2,0.5-0.4,0.9-0.4h8c0.2,0,0.2-0.1,0.2-0.2v-3.4c0-0.4,0.1-0.7,0.4-1
			c0.3-0.3,0.6-0.4,1-0.4c0.4,0,0.7,0.1,1,0.4c0.3,0.3,0.4,0.6,0.4,1v3.4c0,0.2,0.1,0.2,0.2,0.2h8c0.3,0,0.6,0.1,0.9,0.4
			C201.3,61.4,201.4,61.7,201.4,62z"/>
		<path class="st0" d="M210.1,76.4c-1.3,0-2.5-0.8-3.6-2.3c-1.1-1.5-1.6-3.4-1.6-5.6c0-3.2,1.1-5.8,3.3-7.8c2.2-2,5.1-3,8.6-3
			c2.8,0,5.2,0.9,7.1,2.7c1.9,1.8,2.8,4.1,2.8,6.8c0,2.6-0.6,4.8-1.8,6.5c-1.2,1.7-2.9,2.8-5,3.2c-0.3,0.1-0.6,0-0.9-0.2
			c-0.3-0.2-0.5-0.5-0.6-0.8c-0.1-0.3,0-0.6,0.2-0.9c0.2-0.3,0.4-0.4,0.8-0.5c1.6-0.4,2.8-1.2,3.6-2.5c0.8-1.2,1.3-2.8,1.3-4.8
			c0-1.9-0.6-3.5-1.8-4.8c-1.2-1.3-2.8-2-4.6-2.2c-0.1,0-0.2,0-0.3,0.2c-0.4,3.2-0.8,5.9-1.4,8c-0.5,2.2-1.1,3.8-1.8,5
			c-0.7,1.1-1.3,1.9-2,2.4C211.7,76.1,211,76.4,210.1,76.4z M214.7,60.2c-2.2,0.4-4,1.3-5.2,2.8c-1.3,1.5-1.9,3.3-1.9,5.5
			c0,1.4,0.3,2.7,0.9,3.7c0.6,1.1,1.2,1.6,1.8,1.6c0.3,0,0.5-0.1,0.8-0.3c0.3-0.2,0.6-0.7,1-1.3c0.4-0.6,0.7-1.4,1-2.4
			c0.3-1,0.7-2.3,1-3.9c0.3-1.6,0.6-3.5,0.9-5.5c0-0.1,0-0.1-0.1-0.1C214.8,60.2,214.7,60.2,214.7,60.2z"/>
	</g>
</g>
<circle class="st3" cx="564.7" cy="21.2" r="15.6"/>
<circle class="st1" cx="427.2" cy="25.1" r="15.2"/>
<circle class="st1" cx="201.2" cy="140.3" r="14.1"/>
<g>
	<defs>
		<rect id="SVGID_3_" x="1.6" y="24.4" width="37.3" height="37.3"/>
	</defs>
	<clipPath id="SVGID_4_">
		<use xlink:href="#SVGID_3_"  style="overflow:visible;"/>
	</clipPath>
	<ellipse transform="matrix(0.7071 -0.7071 0.7071 0.7071 -28.1342 22.176)" class="st7" cx="12.7" cy="45" rx="14.1" ry="14.1"/>
</g>
<g>
	<defs>
		<rect id="SVGID_5_" x="828.2" y="-0.6" width="47.4" height="66.4"/>
	</defs>
	<clipPath id="SVGID_6_">
		<use xlink:href="#SVGID_5_"  style="overflow:visible;"/>
	</clipPath>
	<circle class="st8" cx="860" cy="40.3" r="21"/>
</g>
<g>
	<defs>
		<rect id="SVGID_7_" x="0.1" y="107.7" width="35.4" height="43.1"/>
	</defs>
	<clipPath id="SVGID_8_">
		<use xlink:href="#SVGID_7_"  style="overflow:visible;"/>
	</clipPath>
	<circle class="st9" cx="10.7" cy="129" r="17.6"/>
</g>
<g>
	<defs>
		<rect id="SVGID_9_" x="845.8" y="124.7" width="28.2" height="53"/>
	</defs>
	<clipPath id="SVGID_10_">
		<use xlink:href="#SVGID_9_"  style="overflow:visible;"/>
	</clipPath>
	<circle class="st10" cx="869.5" cy="152.9" r="17.7"/>
</g>
<g>
	<g>
		<rect x="0.4" y="158.5" class="st1" width="437.3" height="17.3"/>
		<rect x="3.3" y="163.5" class="st0" width="11.8" height="8.7"/>
		<rect x="17.8" y="163.5" class="st0" width="11.8" height="8.7"/>
		<rect x="32.3" y="163.5" class="st0" width="11.8" height="8.7"/>
		<rect x="46.8" y="163.5" class="st0" width="11.8" height="8.7"/>
		<rect x="61.3" y="163.5" class="st0" width="11.8" height="8.7"/>
		<rect x="75.8" y="163.5" class="st0" width="11.8" height="8.7"/>
		<rect x="90.3" y="163.5" class="st0" width="11.8" height="8.7"/>
		<rect x="104.8" y="163.5" class="st0" width="11.8" height="8.7"/>
		<rect x="119.3" y="163.5" class="st0" width="11.8" height="8.7"/>
		<rect x="133.8" y="163.5" class="st0" width="11.8" height="8.7"/>
		<rect x="148.2" y="163.5" class="st0" width="11.8" height="8.7"/>
		<rect x="162.7" y="163.5" class="st0" width="11.8" height="8.7"/>
		<rect x="177.2" y="163.5" class="st0" width="11.8" height="8.7"/>
		<rect x="191.7" y="163.5" class="st0" width="11.8" height="8.7"/>
		<rect x="206.2" y="163.5" class="st0" width="11.8" height="8.7"/>
		<rect x="220.7" y="163.5" class="st0" width="11.8" height="8.7"/>
		<rect x="235.2" y="163.5" class="st0" width="11.8" height="8.7"/>
		<rect x="249.7" y="163.5" class="st0" width="11.8" height="8.7"/>
		<rect x="264.2" y="163.5" class="st0" width="11.8" height="8.7"/>
		<rect x="278.7" y="163.5" class="st0" width="11.8" height="8.7"/>
		<rect x="293.2" y="163.5" class="st0" width="11.8" height="8.7"/>
		<rect x="307.7" y="163.5" class="st0" width="11.8" height="8.7"/>
		<rect x="322.2" y="163.5" class="st0" width="11.8" height="8.7"/>
		<rect x="336.7" y="163.5" class="st0" width="11.8" height="8.7"/>
		<rect x="351.2" y="163.5" class="st0" width="11.8" height="8.7"/>
		<rect x="365.7" y="163.5" class="st0" width="11.8" height="8.7"/>
		<rect x="380.2" y="163.5" class="st0" width="11.8" height="8.7"/>
		<rect x="394.7" y="163.5" class="st0" width="11.8" height="8.7"/>
		<rect x="409.2" y="163.5" class="st0" width="11.8" height="8.7"/>
		<rect x="423.7" y="163.5" class="st0" width="11.8" height="8.7"/>
	</g>
	<g>
		<rect x="436" y="158.5" class="st1" width="437.3" height="17.3"/>
		<rect x="438.8" y="163.5" class="st0" width="11.8" height="8.7"/>
		<rect x="453.3" y="163.5" class="st0" width="11.8" height="8.7"/>
		<rect x="467.8" y="163.5" class="st0" width="11.8" height="8.7"/>
		<rect x="482.3" y="163.5" class="st0" width="11.8" height="8.7"/>
		<rect x="496.8" y="163.5" class="st0" width="11.8" height="8.7"/>
		<rect x="511.3" y="163.5" class="st0" width="11.8" height="8.7"/>
		<rect x="525.8" y="163.5" class="st0" width="11.8" height="8.7"/>
		<rect x="540.3" y="163.5" class="st0" width="11.8" height="8.7"/>
		<rect x="554.8" y="163.5" class="st0" width="11.8" height="8.7"/>
		<rect x="569.3" y="163.5" class="st0" width="11.8" height="8.7"/>
		<rect x="583.8" y="163.5" class="st0" width="11.8" height="8.7"/>
		<rect x="598.3" y="163.5" class="st0" width="11.8" height="8.7"/>
		<rect x="612.8" y="163.5" class="st0" width="11.8" height="8.7"/>
		<rect x="627.3" y="163.5" class="st0" width="11.8" height="8.7"/>
		<rect x="641.8" y="163.5" class="st0" width="11.8" height="8.7"/>
		<rect x="656.3" y="163.5" class="st0" width="11.8" height="8.7"/>
		<rect x="670.8" y="163.5" class="st0" width="11.8" height="8.7"/>
		<rect x="685.3" y="163.5" class="st0" width="11.8" height="8.7"/>
		<rect x="699.8" y="163.5" class="st0" width="11.8" height="8.7"/>
		<rect x="714.3" y="163.5" class="st0" width="11.8" height="8.7"/>
		<rect x="728.8" y="163.5" class="st0" width="11.8" height="8.7"/>
		<rect x="743.3" y="163.5" class="st0" width="11.8" height="8.7"/>
		<rect x="757.8" y="163.5" class="st0" width="11.8" height="8.7"/>
		<rect x="772.3" y="163.5" class="st0" width="11.8" height="8.7"/>
		<rect x="786.8" y="163.5" class="st0" width="11.8" height="8.7"/>
		<rect x="801.3" y="163.5" class="st0" width="11.8" height="8.7"/>
		<rect x="815.8" y="163.5" class="st0" width="11.8" height="8.7"/>
		<rect x="830.3" y="163.5" class="st0" width="11.8" height="8.7"/>
		<rect x="844.8" y="163.5" class="st0" width="11.8" height="8.7"/>
		<rect x="859.3" y="163.5" class="st0" width="11.8" height="8.7"/>
	</g>
</g>
<g>
	<g>
		<rect x="1.1" y="0.6" class="st1" width="437.3" height="17.3"/>
		<rect x="3.9" y="5.6" class="st0" width="11.8" height="8.7"/>
		<rect x="18.4" y="5.6" class="st0" width="11.8" height="8.7"/>
		<rect x="32.9" y="5.6" class="st0" width="11.8" height="8.7"/>
		<rect x="47.4" y="5.6" class="st0" width="11.8" height="8.7"/>
		<rect x="61.9" y="5.6" class="st0" width="11.8" height="8.7"/>
		<rect x="76.4" y="5.6" class="st0" width="11.8" height="8.7"/>
		<rect x="90.9" y="5.6" class="st0" width="11.8" height="8.7"/>
		<rect x="105.4" y="5.6" class="st0" width="11.8" height="8.7"/>
		<rect x="119.9" y="5.6" class="st0" width="11.8" height="8.7"/>
		<rect x="134.4" y="5.6" class="st0" width="11.8" height="8.7"/>
		<rect x="148.9" y="5.6" class="st0" width="11.8" height="8.7"/>
		<rect x="163.4" y="5.6" class="st0" width="11.8" height="8.7"/>
		<rect x="177.9" y="5.6" class="st0" width="11.8" height="8.7"/>
		<rect x="192.4" y="5.6" class="st0" width="11.8" height="8.7"/>
		<rect x="206.9" y="5.6" class="st0" width="11.8" height="8.7"/>
		<rect x="221.4" y="5.6" class="st0" width="11.8" height="8.7"/>
		<rect x="235.9" y="5.6" class="st0" width="11.8" height="8.7"/>
		<rect x="250.4" y="5.6" class="st0" width="11.8" height="8.7"/>
		<rect x="264.9" y="5.6" class="st0" width="11.8" height="8.7"/>
		<rect x="279.4" y="5.6" class="st0" width="11.8" height="8.7"/>
		<rect x="293.9" y="5.6" class="st0" width="11.8" height="8.7"/>
		<rect x="308.4" y="5.6" class="st0" width="11.8" height="8.7"/>
		<rect x="322.9" y="5.6" class="st0" width="11.8" height="8.7"/>
		<rect x="337.4" y="5.6" class="st0" width="11.8" height="8.7"/>
		<rect x="351.9" y="5.6" class="st0" width="11.8" height="8.7"/>
		<rect x="366.4" y="5.6" class="st0" width="11.8" height="8.7"/>
		<rect x="380.9" y="5.6" class="st0" width="11.8" height="8.7"/>
		<rect x="395.4" y="5.6" class="st0" width="11.8" height="8.7"/>
		<rect x="409.9" y="5.6" class="st0" width="11.8" height="8.7"/>
		<rect x="424.4" y="5.6" class="st0" width="11.8" height="8.7"/>
	</g>
	<g>
		<rect x="436.6" y="0.6" class="st1" width="437.3" height="17.3"/>
		<rect x="439.4" y="5.6" class="st0" width="11.8" height="8.7"/>
		<rect x="453.9" y="5.6" class="st0" width="11.8" height="8.7"/>
		<rect x="468.4" y="5.6" class="st0" width="11.8" height="8.7"/>
		<rect x="482.9" y="5.6" class="st0" width="11.8" height="8.7"/>
		<rect x="497.4" y="5.6" class="st0" width="11.8" height="8.7"/>
		<rect x="511.9" y="5.6" class="st0" width="11.8" height="8.7"/>
		<rect x="526.4" y="5.6" class="st0" width="11.8" height="8.7"/>
		<rect x="540.9" y="5.6" class="st0" width="11.8" height="8.7"/>
		<rect x="555.4" y="5.6" class="st0" width="11.8" height="8.7"/>
		<rect x="569.9" y="5.6" class="st0" width="11.8" height="8.7"/>
		<rect x="584.4" y="5.6" class="st0" width="11.8" height="8.7"/>
		<rect x="598.9" y="5.6" class="st0" width="11.8" height="8.7"/>
		<rect x="613.4" y="5.6" class="st0" width="11.8" height="8.7"/>
		<rect x="627.9" y="5.6" class="st0" width="11.8" height="8.7"/>
		<rect x="642.4" y="5.6" class="st0" width="11.8" height="8.7"/>
		<rect x="656.9" y="5.6" class="st0" width="11.8" height="8.7"/>
		<rect x="671.4" y="5.6" class="st0" width="11.8" height="8.7"/>
		<rect x="685.9" y="5.6" class="st0" width="11.8" height="8.7"/>
		<rect x="700.4" y="5.6" class="st0" width="11.8" height="8.7"/>
		<rect x="714.9" y="5.6" class="st0" width="11.8" height="8.7"/>
		<rect x="729.4" y="5.6" class="st0" width="11.8" height="8.7"/>
		<rect x="743.9" y="5.6" class="st0" width="11.8" height="8.7"/>
		<rect x="758.4" y="5.6" class="st0" width="11.8" height="8.7"/>
		<rect x="772.9" y="5.6" class="st0" width="11.8" height="8.7"/>
		<rect x="787.4" y="5.6" class="st0" width="11.8" height="8.7"/>
		<rect x="801.9" y="5.6" class="st0" width="11.8" height="8.7"/>
		<rect x="816.4" y="5.6" class="st0" width="11.8" height="8.7"/>
		<rect x="830.9" y="5.6" class="st0" width="11.8" height="8.7"/>
		<rect x="845.4" y="5.6" class="st0" width="11.8" height="8.7"/>
		<rect x="859.9" y="5.6" class="st0" width="11.8" height="8.7"/>
	</g>
</g>
<g>
</g>
<g>
</g>
<g>
</g>
<g>
</g>
<g>
</g>
<g>
</g>
<g>
</g>
<g>
</g>
<g>
</g>
<g>
</g>
<g>
</g>
<g>
</g>
<g>
</g>
<g>
</g>
<g>
</g>
</svg>
