<?xml version="1.0" encoding="utf-8"?>
<!-- Generator: Adobe Illustrator 20.0.0, SVG Export Plug-In . SVG Version: 6.00 Build 0)  -->
<svg version="1.1" id="レイヤー_1" xmlns="http://www.w3.org/2000/svg" xmlns:xlink="http://www.w3.org/1999/xlink" x="0px"
	 y="0px" viewBox="0 0 875 275" style="enable-background:new 0 0 875 275;" xml:space="preserve">
<style type="text/css">
	.st0{fill:#FF9F23;}
	.st1{fill:#FFEA8B;}
	.st2{clip-path:url(#SVGID_2_);fill:#FF9F23;}
	.st3{fill:#FFDB63;}
	.st4{fill:#FFEA8B;stroke:#FF9F23;stroke-miterlimit:10;}
	.st5{fill:#FFDB63;stroke:#FF9F23;stroke-miterlimit:10;}
	.st6{clip-path:url(#SVGID_4_);fill:#FFDB63;}
	.st7{clip-path:url(#SVGID_6_);fill:#FFDB63;}
	.st8{clip-path:url(#SVGID_8_);fill:#FFDB63;}
	.st9{clip-path:url(#SVGID_10_);fill:#FFEA8B;}
</style>
<rect x="0" y="0.6" class="st0" width="875" height="275"/>
<g>
	<g>
		
			<ellipse transform="matrix(0.9881 -0.1535 0.1535 0.9881 -8.0202 112.6055)" class="st1" cx="725.1" cy="108.2" rx="29.2" ry="29.2"/>
		
			<rect x="687.6" y="47.4" transform="matrix(0.8102 -0.5862 0.5862 0.8102 90.6326 422.0691)" class="st1" width="18.8" height="47.3"/>
	</g>
	<g>
		<defs>
			<path id="SVGID_1_" d="M671.9,137.2l77.3,52.2l39.3-104.6c0,0,12.3-11.7-21.8,6.7s-32.2,9.9-52,12.4
				C694.8,106.4,671.9,137.2,671.9,137.2z"/>
		</defs>
		<clipPath id="SVGID_2_">
			<use xlink:href="#SVGID_1_"  style="overflow:visible;"/>
		</clipPath>
		
			<ellipse transform="matrix(0.9881 -0.1535 0.1535 0.9881 -8.1604 112.6385)" class="st2" cx="725.2" cy="109.2" rx="25.4" ry="25.4"/>
	</g>
</g>
<g>
	
		<rect x="100.4" y="151.4" transform="matrix(0.9554 0.2954 -0.2954 0.9554 57.4336 -31.6216)" class="st3" width="66" height="45.9"/>
	
		<rect x="105.8" y="155.5" transform="matrix(0.9554 0.2954 -0.2954 0.9554 57.3864 -31.5239)" class="st0" width="54.4" height="37.4"/>
	<polygon class="st3" points="95.1,186.5 75.4,205.1 159.5,231.1 158.1,206 	"/>
	<polygon class="st4" points="96.6,190 86.7,199.5 153.7,220.2 153.7,207.6 	"/>
</g>
<g>
	
		<rect x="784" y="133.3" transform="matrix(0.861 0.5087 -0.5087 0.861 197.5383 -387.9067)" class="st5" width="48.7" height="68.2"/>
	<polygon class="st4" points="802,129.4 791.7,130.3 755.3,186.9 794.7,208.7 812,206.3 844.5,153.4 	"/>
	
		<rect x="768" y="135.9" transform="matrix(0.861 0.5087 -0.5087 0.861 196.4336 -378.5844)" class="st5" width="45.4" height="68.2"/>
	<polygon class="st5" points="827.6,152.2 846.6,150.4 811.9,209.1 792.9,210.9 	"/>
</g>
<circle class="st3" cx="612.5" cy="245" r="26.1"/>
<circle class="st1" cx="29.5" cy="135.7" r="17.7"/>
<circle class="st1" cx="687.8" cy="197.5" r="14.1"/>
<circle class="st3" cx="281.7" cy="37.8" r="29.2"/>
<circle class="st3" cx="366.7" cy="239.2" r="26.3"/>
<circle class="st1" cx="502.8" cy="239.2" r="14.1"/>
<g>
	<path class="st1" d="M248.8,115.3c-0.8,5.7-2.2,11.3-3.9,16.6c-0.1,0.4,0.1,0.7,0.5,0.7h11.8c1.3,0,2.4,0.5,3.4,1.4
		c1,1,1.4,2.1,1.4,3.4v29.1c0,1.3-0.5,2.4-1.4,3.4c-1,1-2.1,1.4-3.4,1.4h-11.3c-0.5,0-0.8,0.3-0.8,0.8v1.8c0,1.1-0.4,2.1-1.2,2.9
		c-0.8,0.8-1.8,1.2-2.9,1.2c-1.1,0-2.1-0.4-2.9-1.2c-0.8-0.8-1.2-1.8-1.2-2.9v-25.6c0-0.1,0-0.2-0.1-0.2c-0.1,0-0.2,0-0.2,0
		c-1,1.7-1.8,3-2.4,3.9c-0.6,0.8-1.3,1.1-2.2,0.9c-0.9-0.2-1.5-0.8-1.8-1.7l-0.3-1c-0.7-2.9-0.2-5.8,1.5-8.6
		c4.5-7.3,7.6-16,9.2-26.3c0.1-0.5-0.1-0.8-0.6-0.8h-4.7c-1.1,0-2-0.4-2.7-1.1c-0.7-0.7-1.1-1.6-1.1-2.7c0-1.1,0.4-2,1.1-2.7
		c0.7-0.7,1.6-1.1,2.7-1.1h22.7c1.1,0,2,0.4,2.7,1.1c0.7,0.7,1.1,1.6,1.1,2.7c0,1.1-0.4,2-1.1,2.7c-0.7,0.7-1.6,1.1-2.7,1.1h-8.5
		C249.2,114.5,248.9,114.8,248.8,115.3z M245.1,140.9v22.3c0,0.5,0.3,0.8,0.8,0.8h7.6c0.5,0,0.8-0.3,0.8-0.8v-22.3
		c0-0.5-0.3-0.8-0.8-0.8h-7.6C245.4,140.1,245.1,140.4,245.1,140.9z M305.2,135.1c1.1,0,2,0.4,2.7,1.1c0.7,0.7,1.1,1.6,1.1,2.7
		c0,1.1-0.4,2-1.1,2.7c-0.7,0.7-1.6,1.1-2.7,1.1h-4.3c-0.5,0-0.8,0.3-0.8,0.8v30.9c0,1.2-0.4,2.3-1.3,3.2c-0.9,0.9-1.9,1.3-3.1,1.3
		c-1.2,0-2.3-0.4-3.1-1.3c-0.8-0.9-1.3-1.9-1.3-3.2v-30.9c0-0.5-0.3-0.8-0.8-0.8h-9c-0.5,0-0.8,0.3-0.8,0.8
		c-0.6,8.3-1.6,14.9-3,19.8c-1.4,4.9-3.5,9.2-6.1,12.8c-0.7,1-1.7,1.5-3,1.5c-1.3,0-2.3-0.4-3.1-1.3c-0.9-0.9-1.4-2-1.4-3.3
		c0-1.3,0.3-2.5,1.1-3.6c2-2.8,3.5-6.1,4.6-10c1.1-3.9,1.9-9.2,2.3-15.9c0-0.5-0.2-0.8-0.7-0.8h-3.8c-1.1,0-2-0.4-2.7-1.1
		c-0.7-0.7-1.1-1.6-1.1-2.7c0-1.1,0.4-2,1.1-2.7c0.7-0.7,1.6-1.1,2.7-1.1h4.1c0.5,0,0.8-0.3,0.8-0.8c0.1-4.9,0.2-9.1,0.2-12.4v-6.6
		c0-0.5-0.3-0.8-0.8-0.8h-3.3c-1.1,0-1.9-0.4-2.6-1.1c-0.7-0.7-1.1-1.6-1.1-2.7c0-1.1,0.3-2,1.1-2.7c0.7-0.7,1.6-1.1,2.6-1.1h35.5
		c1.1,0,2,0.4,2.7,1.1c0.7,0.7,1.1,1.6,1.1,2.7c0,1.1-0.4,2-1.1,2.7c-0.7,0.7-1.6,1.1-2.7,1.1h-3.4c-0.5,0-0.8,0.3-0.8,0.8v19.1
		c0,0.5,0.3,0.8,0.8,0.8H305.2z M291.3,134.3v-19.1c0-0.5-0.3-0.8-0.8-0.8h-8.4c-0.5,0-0.8,0.3-0.8,0.8v6.6c0,3.2-0.1,7.4-0.2,12.4
		c0,0.5,0.3,0.8,0.8,0.8h8.6C291.1,135.1,291.3,134.8,291.3,134.3z"/>
	<path class="st1" d="M322.4,178.7c-1.1,0.4-2.2,0.4-3.4,0c-1.1-0.4-2-1.1-2.6-2.1c-0.6-0.9-0.7-1.8-0.3-2.9s1-1.7,2-2
		c6.3-2.2,11.2-4.6,14.6-7.4c3.4-2.7,5.8-6.2,7.2-10.4c0.1-0.4-0.1-0.7-0.5-0.7h-15.5c-1.1,0-2-0.4-2.7-1.1
		c-0.8-0.7-1.1-1.6-1.1-2.7c0-1.1,0.4-2,1.1-2.7c0.8-0.7,1.7-1.1,2.7-1.1h17c0.5,0,0.8-0.2,0.8-0.7c0.1-0.9,0.2-1.6,0.2-2
		c0.1-1.3,0.6-2.4,1.5-3.2c0.9-0.8,1.9-1.3,3.1-1.3c1.3,0,2.4,0.4,3.2,1.3c0.8,0.9,1.2,2,1.2,3.2c0,0.8,0,1.5-0.1,1.9
		c0,0.4,0.2,0.7,0.7,0.7h17.1c1.3,0,2.4,0.5,3.4,1.4c1,1,1.4,2.1,1.4,3.4v18.1c0,1.1,0.2,1.8,0.7,2c0.5,0.2,2.1,0.3,4.7,0.3
		c1.5,0,2.6,0,3.1-0.1s1.2-0.5,1.7-1.2c0.6-0.7,0.9-1.7,1.1-2.9c0.2-1.2,0.4-3.2,0.6-5.9c0.1-1.1,0.6-2,1.4-2.8
		c0.8-0.7,1.8-1,2.9-0.9c1.1,0.1,2.1,0.6,2.8,1.6s1.1,1.9,1,3.1c-0.2,2.8-0.5,5.1-0.7,6.8c-0.3,1.7-0.7,3.3-1.3,4.6
		c-0.6,1.3-1.2,2.3-1.8,3s-1.6,1.2-2.9,1.6c-1.4,0.4-2.7,0.6-4.1,0.7c-1.3,0.1-3.3,0.1-5.8,0.1c-5.6,0-9.1-0.5-10.6-1.5
		c-1.5-1-2.2-3.3-2.2-6.9v-16c0-0.5-0.3-0.8-0.8-0.8h-13.4c-0.5,0-0.8,0.3-0.9,0.8c-1.7,5.9-4.6,10.8-8.9,14.7
		C336,172.5,330,175.9,322.4,178.7z M367.3,140.6c-4.4-0.2-7.1-0.6-8.2-1.3c-1.1-0.7-1.7-2.3-1.7-4.8v-15.3c0-0.4-0.3-0.7-0.8-0.7
		h-5.7c-0.5,0-0.8,0.2-0.8,0.7c-0.8,10.9-9.7,18.3-26.9,22.3c-1,0.2-2,0.1-2.9-0.5c-0.9-0.5-1.5-1.3-1.8-2.3c-0.3-1-0.1-1.9,0.4-2.7
		c0.6-0.9,1.3-1.4,2.3-1.6c13.1-2.9,19.8-7.9,20.2-15.2c0-0.4-0.3-0.6-0.8-0.6h-13.3c-0.4,0-0.7,0.2-0.7,0.7v4.9
		c0,1.2-0.4,2.2-1.3,3c-0.9,0.8-1.9,1.3-3.1,1.3c-1.2,0-2.2-0.4-3-1.3c-0.8-0.8-1.3-1.8-1.3-3v-8.1c0-1.3,0.5-2.4,1.4-3.4
		c1-1,2.1-1.4,3.4-1.4h25.6c0.4,0,0.7-0.2,0.7-0.7V107c0-1.2,0.4-2.3,1.3-3.2c0.9-0.9,2-1.4,3.3-1.4c1.3,0,2.4,0.5,3.3,1.4
		c0.9,0.9,1.3,2,1.3,3.2v3.5c0,0.4,0.3,0.7,0.8,0.7h25.6c1.3,0,2.4,0.5,3.3,1.4c0.9,1,1.4,2.1,1.4,3.4v5.6c0,1.2-0.4,2.2-1.3,3
		c-0.8,0.8-1.8,1.3-3,1.3c-1.2,0-2.2-0.4-3-1.3c-0.8-0.8-1.3-1.8-1.3-3v-2.4c0-0.4-0.3-0.7-0.8-0.7h-13.3c-0.4,0-0.7,0.2-0.7,0.7
		v11.7c0,1.3,0.1,2.1,0.4,2.4s1.2,0.4,2.7,0.5c0.7,0.1,1.8,0.1,3.4,0.1c1.6,0,2.7,0,3.4-0.1c2.4-0.2,3.8-0.4,4.2-0.8
		c0.2-0.1,0.3-0.3,0.4-0.5c1.3-2.7,3-4,5-3.8c1.2,0.1,2.2,0.6,3,1.6c0.8,0.9,1.1,2,0.9,3.1c-0.4,3.2-1.4,5.2-3,6
		c-1.5,0.8-4.9,1.2-10.2,1.3c-0.4,0-1.2,0-2.2,0.1c-1,0.1-1.8,0.1-2.4,0.1C370.7,140.8,369.2,140.8,367.3,140.6z"/>
	<path class="st1" d="M432.1,170.1c0.5,0,0.8-0.2,0.8-0.7v-7.4c0-0.5-0.3-0.8-0.8-0.8h-22.5c-1,0-1.8-0.3-2.5-1.1
		c-0.7-0.7-1.1-1.5-1.1-2.5c0-1,0.4-1.8,1.1-2.5c0.7-0.7,1.6-1.1,2.5-1.1h22.5c0.5,0,0.8-0.2,0.8-0.7v-5c0-0.9,0.2-1.7,0.6-2.3
		c0.1-0.1,0.1-0.2,0.1-0.4c-0.1-0.1-0.1-0.2-0.3-0.2c-8.7,0.6-17.1,1-25.3,1.3c-1,0.1-1.9-0.3-2.7-0.9c-0.8-0.7-1.2-1.5-1.3-2.5
		c-0.1-1,0.3-1.8,1-2.5c0.7-0.7,1.5-1.1,2.5-1.2c0.9,0,2.2,0,4-0.1c1.8-0.1,3.2-0.2,4.1-0.2c0.4,0,0.8-0.2,1.1-0.6
		c1.5-2.5,3.2-5.6,5-9.2c0.1-0.2,0-0.3,0-0.5c-0.1-0.2-0.2-0.3-0.4-0.3h-12.1c-0.8,0-1.4-0.3-2-0.8c-0.5-0.5-0.8-1.2-0.8-1.9
		c0-0.3-0.1-0.4-0.4-0.4h-0.7c-1.3,0-2.4-0.5-3.4-1.4c-1-1-1.4-2.1-1.4-3.4v-6.8c0-1.3,0.5-2.4,1.4-3.4c1-1,2.1-1.4,3.4-1.4h26.8
		c0.5,0,0.8-0.2,0.8-0.7V107c0-1.2,0.5-2.3,1.4-3.2c0.9-0.9,2-1.4,3.2-1.4c1.2,0,2.3,0.5,3.2,1.4c0.9,0.9,1.4,2,1.4,3.2v1.8
		c0,0.4,0.3,0.7,0.8,0.7h26.8c1.3,0,2.4,0.5,3.4,1.4c1,1,1.4,2.1,1.4,3.4v6.8c0,1.3-0.5,2.4-1.4,3.4c-1,1-2.1,1.4-3.4,1.4H469
		c-0.3,0-0.4,0.1-0.4,0.4c0,0.7-0.3,1.4-0.8,1.9c-0.5,0.5-1.2,0.8-2,0.8h-6.2c-0.1,0-0.2,0.1-0.3,0.3c-0.1,0.2-0.1,0.3,0,0.3
		c4.1,4.6,7.6,8.8,10.7,12.8c0.7,0.9,0.9,1.9,0.7,3c-0.2,1.1-0.8,1.9-1.8,2.4c-1.1,0.6-2.2,0.7-3.4,0.4c-1.2-0.3-2.2-0.9-2.9-1.8
		c-0.2-0.2-0.5-0.6-0.9-1.2c-0.4-0.6-0.7-1-0.8-1.2c-0.3-0.4-0.7-0.6-1.1-0.5c-1.6,0.2-7.8,0.7-18.4,1.6c-0.1,0-0.2,0.1-0.3,0.2
		c-0.1,0.1,0,0.3,0.1,0.4c0.7,0.8,1,1.8,1,2.9v5c0,0.4,0.3,0.7,0.8,0.7h21.7c1,0,1.8,0.4,2.5,1.1c0.7,0.7,1.1,1.6,1.1,2.5
		c0,1-0.4,1.8-1.1,2.5c-0.7,0.7-1.6,1.1-2.5,1.1h-21.7c-0.5,0-0.8,0.3-0.8,0.8v7.4c0,0.4,0.3,0.7,0.8,0.7h28.3c1,0,1.9,0.4,2.6,1.1
		c0.7,0.7,1.1,1.6,1.1,2.6s-0.4,1.9-1.1,2.6c-0.7,0.7-1.6,1.1-2.6,1.1h-67.4c-1,0-1.9-0.4-2.6-1.1c-0.7-0.7-1.1-1.6-1.1-2.6
		s0.4-1.9,1.1-2.6c0.7-0.7,1.6-1.1,2.6-1.1H432.1z M410.1,122.1h54.8c0.5,0,0.8-0.3,0.8-0.8v-3.9c0-0.5-0.3-0.8-0.8-0.8h-54.8
		c-0.5,0-0.8,0.3-0.8,0.8v3.9C409.4,121.8,409.6,122.1,410.1,122.1z M426.6,138.4c-0.3,0.4-0.2,0.6,0.3,0.6
		c7.6-0.4,16.8-1.1,27.5-2.1c0.1,0,0.2-0.1,0.3-0.2c0.1-0.1,0.1-0.3,0-0.4c-0.7-0.8-1.8-2-3.1-3.6c-1.4-1.6-2.3-2.6-2.6-3.1
		c-0.4-0.4-0.8-0.6-1.2-0.6h-15.5c-0.5,0-0.8,0.2-1,0.7C429.9,132.3,428.4,135.2,426.6,138.4z"/>
	<path class="st1" d="M488.4,174.7c-0.8,0.6-1.7,0.8-2.6,0.6c-1-0.2-1.7-0.7-2.3-1.5c-0.6-0.8-0.8-1.7-0.6-2.6
		c1-5.4,1.8-10.9,2.3-16.5c0.1-1,0.5-1.7,1.2-2.3s1.5-0.9,2.5-0.8c1,0.1,1.8,0.5,2.4,1.3c0.7,0.8,1,1.7,0.8,2.6
		c-0.5,5.8-1.3,11.5-2.3,17C489.7,173.4,489.2,174.2,488.4,174.7z M490.1,139.4c0.2-0.3,0.5-0.7,0.8-1.3s0.6-1,0.8-1.3
		c0.3-0.4,0.3-0.8,0-1.2c-2.8-4.5-5.3-8.4-7.4-11.7c-1.5-2.4-1.5-4.8,0-7.2c0.6-0.8,1.3-1.3,2.3-1.3c1,0,1.7,0.4,2.3,1.2
		c0.1,0.1,0.1,0.2,0.2,0.3s0.2,0.3,0.2,0.3c0.1,0.1,0.2,0.2,0.3,0.2s0.3-0.1,0.4-0.2c1.5-3.1,3-6.4,4.5-10c0.4-1,1.2-1.6,2.1-2.1
		c1-0.4,1.9-0.4,2.9,0c1,0.4,1.6,1.2,2,2.1c0.4,1,0.4,1.9,0,2.9c-2.2,4.9-4.5,9.7-7.1,14.4c-0.2,0.4-0.2,0.8,0,1.2
		c0.2,0.3,0.4,0.7,0.8,1.3c0.4,0.6,0.6,1,0.8,1.3c0.3,0.4,0.5,0.4,0.8,0.1c2-3.4,4.3-7.5,6.9-12.4c0.4-1,1.2-1.6,2.1-1.9
		c1-0.3,1.9-0.2,2.9,0.3c1,0.5,1.6,1.2,1.9,2.2c0.3,1,0.2,1.9-0.3,2.9c-1.4,2.6-3,5.4-4.7,8.5c-0.1,0.1,0,0.1,0.1,0.3
		c0.1,0.1,0.2,0.1,0.3,0.1c1.3-0.3,2.5-0.2,3.7,0.5c1.1,0.6,1.9,1.6,2.2,2.9c1.2,4.8,2.2,9,3,12.7c0.2,0.9,0.1,1.8-0.4,2.6
		c-0.5,0.8-1.2,1.3-2.2,1.6l-0.6,0.1c-0.8,0.2-1.5,0-2.1-0.4c-0.6-0.4-1-1-1.2-1.8c-0.1-0.3-0.3-0.4-0.6-0.4l-4.5,0.3
		c-0.5,0-0.8,0.3-0.8,0.8v28.6c0,1.2-0.4,2.2-1.3,3s-1.8,1.3-3,1.3c-1.2,0-2.2-0.4-3-1.3s-1.3-1.8-1.3-3v-28.1
		c0-0.4-0.3-0.7-0.8-0.7l-6.4,0.4c-1,0.1-1.9-0.3-2.6-0.9c-0.7-0.7-1.1-1.5-1.2-2.5c-0.1-1,0.3-1.9,1-2.6c0.7-0.8,1.6-1.2,2.6-1.2
		l2.3-0.2C489.4,140,489.8,139.8,490.1,139.4z M499.2,138.9c-0.1,0.1,0,0.2,0,0.3c0.1,0.1,0.2,0.2,0.4,0.2l6.5-0.4
		c0.5,0,0.7-0.3,0.6-0.8c-0.6-2.2-1.2-4.6-1.9-7.1c-0.2-0.5-0.4-0.6-0.6-0.3C503,132.6,501.4,135.3,499.2,138.9z M509.8,172.4
		c-0.9,0.1-1.7-0.2-2.4-0.8c-0.7-0.6-1.1-1.4-1.3-2.3c-0.4-5.5-0.9-10.3-1.4-14.4c-0.1-0.9,0.1-1.7,0.7-2.5c0.6-0.8,1.3-1.2,2.3-1.3
		s1.8,0.1,2.6,0.7c0.8,0.6,1.2,1.3,1.3,2.2c0.4,2.9,0.9,7.7,1.5,14.6c0.1,1-0.2,1.8-0.8,2.6C511.6,171.9,510.8,172.3,509.8,172.4z
		 M554.3,107c1.3,0,2.4,0.5,3.3,1.4c0.9,1,1.4,2.1,1.4,3.4c-0.1,8.3-0.4,14.5-1.2,18.6c-0.7,4-1.7,6.7-3,7.9c-1.3,1.2-3.3,1.8-6,1.8
		c-1,0-4.1-0.1-9.2-0.3c-1.1-0.1-2-0.4-2.7-1.2c-0.7-0.7-1.1-1.6-1.2-2.7c-0.1-1,0.3-1.9,1-2.6c0.8-0.7,1.6-1.1,2.6-1
		c2.7,0.2,4.8,0.3,6.3,0.3c1.1,0,2-0.3,2.6-1.1c0.6-0.7,1.1-2.3,1.4-4.8c0.4-2.5,0.5-6.3,0.5-11.3c0-0.5-0.2-0.8-0.7-0.8h-9.3
		c-0.4,0-0.7,0.2-0.8,0.7c-1,5.8-2.9,10.9-5.9,15.5c-3,4.5-6.7,8.1-11.1,10.8c-1,0.6-2.1,0.7-3.2,0.4c-1.1-0.3-2-0.9-2.6-1.9
		c-0.6-0.9-0.7-1.9-0.5-2.9c0.3-1,0.8-1.9,1.7-2.5c6.7-4.4,11-10.9,12.8-19.4c0.1-0.4-0.1-0.7-0.5-0.7h-11.3c-1.1,0-2-0.4-2.7-1.1
		c-0.8-0.7-1.1-1.6-1.1-2.7c0-1.1,0.4-2,1.1-2.7c0.8-0.7,1.7-1.1,2.7-1.1H554.3z M521.8,179.6H521c-1.2,0-2.2-0.4-3.1-1.3
		s-1.3-1.8-1.3-3v-25.6c0-1.3,0.5-2.4,1.4-3.4c1-1,2.1-1.4,3.4-1.4h31c1.3,0,2.4,0.5,3.4,1.4c1,1,1.4,2.1,1.4,3.4v25.5
		c0,1.2-0.4,2.3-1.3,3.2c-0.9,0.9-1.9,1.3-3.2,1.3h-0.9c-1,0-1.8-0.3-2.4-1s-1-1.5-1-2.4c0-0.3-0.2-0.5-0.5-0.5h-22.1
		c-0.3,0-0.5,0.2-0.5,0.5c0,1-0.3,1.8-1,2.4C523.6,179.3,522.8,179.6,521.8,179.6z M525.3,153.1v14.7c0,0.5,0.3,0.8,0.8,0.8h21.7
		c0.4,0,0.7-0.3,0.7-0.8v-14.7c0-0.5-0.2-0.8-0.7-0.8H526C525.5,152.3,525.3,152.6,525.3,153.1z"/>
	<path class="st1" d="M573.3,133.7c-1,0.6-2.1,0.7-3.2,0.4c-1.1-0.3-1.9-1-2.5-2.1c-0.6-1.1-0.7-2.1-0.3-3.2c0.4-1.1,1-1.9,2.1-2.6
		c9.7-5.5,18.7-11.8,26.9-18.8c2.4-2.1,5.2-3.1,8.3-3.1h1.7c3.1,0,5.9,1,8.3,3.1c8.2,7,17.1,13.3,26.9,18.8c1,0.6,1.7,1.5,2.1,2.6
		c0.4,1.1,0.3,2.2-0.3,3.2c-0.6,1-1.4,1.7-2.5,2s-2.1,0.2-3.2-0.3c-11.5-6.4-22-14.1-31.7-23.1c-0.3-0.2-0.7-0.2-1.1,0.1
		C595.4,119.4,584.9,127.1,573.3,133.7z M585.8,132.9c0-1.3,0.4-2.4,1.3-3.2c0.9-0.9,1.9-1.3,3.2-1.3c1.2,0,2.3,0.4,3.2,1.3
		c0.9,0.9,1.3,1.9,1.3,3.2v3.3c0,11.7-1.2,20.5-3.6,26.4c-2.4,5.9-6.7,10.8-13,14.7c-1.1,0.7-2.2,0.9-3.4,0.6
		c-1.2-0.3-2.2-0.9-2.9-1.9c-0.7-1-0.9-2-0.6-3.2c0.3-1.2,0.9-2.1,1.9-2.7c4.8-3.1,8.1-7,10-11.8c1.8-4.8,2.7-12.2,2.7-22.1V132.9z
		 M617.4,133c0-1.2,0.5-2.3,1.4-3.2c0.9-0.9,2-1.4,3.3-1.4c1.2,0,2.3,0.4,3.2,1.3c0.9,0.9,1.3,2,1.3,3.3v41.2c0,1.3-0.4,2.4-1.3,3.3
		c-0.9,0.9-2,1.3-3.2,1.3c-1.3,0-2.4-0.5-3.3-1.4c-0.9-0.9-1.4-2-1.4-3.2V133z"/>
</g>
<g>
	<g>
		<path class="st1" d="M229.3,90.8c0,22.3-34,40.4-75.9,40.4s-75.9-18.1-75.9-40.4c0-12.4,10.5-23.5,27.1-30.9
			c13.2-5.9,30.2-9.5,48.8-9.5C195.4,50.5,229.3,68.5,229.3,90.8z"/>
		<path class="st1" d="M204.1,118.7c0,6.4,15.9,12.1,14,14s-18.4,3.2-27.7-6.1"/>
	</g>
	<g>
		<path class="st0" d="M106,97c-0.4,0.1-0.8,0-1.2-0.2c-0.4-0.2-0.6-0.5-0.8-0.9c-0.1-0.4-0.1-0.8,0.1-1.1c0.2-0.4,0.5-0.6,0.9-0.7
			c4.2-1.1,8-2.6,11.5-4.5c0.2-0.1,0.2-0.2,0.1-0.3c-0.6-0.7-1.5-1.7-2.8-3.1c-0.3-0.3-0.5-0.7-0.4-1.2c0-0.5,0.2-0.8,0.6-1.1
			c0.4-0.3,0.8-0.4,1.3-0.4c0.5,0,0.9,0.2,1.2,0.5c1,1,2,2.2,3.1,3.4c0.1,0.2,0.3,0.2,0.4,0.1c3.3-2.3,5.5-4.5,6.7-6.8
			c0,0,0-0.1,0-0.2c0-0.1-0.1-0.1-0.2-0.1h-10.9c-0.2,0-0.4,0.1-0.5,0.2c-2.2,2.1-4.7,4-7.5,5.8c-0.4,0.2-0.7,0.3-1.2,0.2
			c-0.4-0.1-0.7-0.4-0.9-0.7c-0.2-0.4-0.3-0.8-0.2-1.2c0.1-0.4,0.4-0.7,0.7-1c3.8-2.5,6.9-5.1,9.1-7.9c0.3-0.4,0.7-0.6,1.1-0.7
			c0.5-0.1,0.9-0.1,1.3,0.1c0.4,0.2,0.6,0.5,0.7,0.9c0.1,0.4,0.1,0.7-0.2,1.1c-0.1,0.2-0.1,0.2,0.1,0.2h10.7c0.4,0,0.8,0.1,1.1,0.4
			c0.3,0.3,0.4,0.7,0.4,1.1c0,1.2-0.2,2.1-0.7,2.9c-1.9,3.4-4.9,6.4-9.2,9.1c0,0,0,0.1,0,0.1c0,0,0,0.1,0.1,0.1h11.1
			c0.5,0,1,0.2,1.4,0.6c0.4,0.4,0.6,0.8,0.6,1.4v10.8c0,0.5-0.2,0.9-0.5,1.3c-0.4,0.4-0.8,0.5-1.3,0.5h-0.3c-0.4,0-0.8-0.1-1.1-0.4
			c-0.3-0.3-0.4-0.6-0.4-1c0-0.2-0.1-0.2-0.2-0.2h-13.1c-0.2,0-0.2,0.1-0.2,0.2c0,0.4-0.1,0.8-0.4,1c-0.3,0.3-0.6,0.4-1,0.4h-0.3
			c-0.5,0-0.9-0.2-1.3-0.5s-0.5-0.8-0.5-1.3v-8.8c0-0.1,0-0.1-0.1-0.2c-0.1,0-0.1-0.1-0.2,0C110.5,95.7,108.3,96.4,106,97z
			 M130,94.4c0-0.2-0.1-0.3-0.3-0.3h-13c-0.2,0-0.3,0.1-0.3,0.3v6.4c0,0.2,0.1,0.3,0.3,0.3h13c0.2,0,0.3-0.1,0.3-0.3V94.4z"/>
		<path class="st0" d="M168.1,83.8c0,0.4-0.2,0.8-0.5,1.1c-0.3,0.3-0.7,0.5-1.2,0.5h-10.7c-0.2,0-0.3,0.1-0.2,0.3
			c0.4,3.5,1.6,6.6,3.6,9.4c2,2.7,4.7,5,8,6.9c0.4,0.2,0.6,0.6,0.8,1c0.1,0.4,0,0.8-0.2,1.2c-0.3,0.4-0.6,0.7-1.1,0.8
			s-0.9,0.1-1.4-0.2c-2.6-1.4-4.9-3.2-6.9-5.5c-2-2.3-3.6-4.8-4.7-7.5c0,0-0.1-0.1-0.1-0.1s-0.1,0-0.1,0.1c-1.1,2.8-2.7,5.3-4.8,7.5
			c-2,2.3-4.4,4.1-7,5.5c-0.4,0.2-0.9,0.3-1.4,0.2c-0.5-0.1-0.9-0.4-1.1-0.8c-0.3-0.4-0.3-0.8-0.2-1.2c0.1-0.4,0.3-0.7,0.7-1
			c3.4-1.8,6-4.1,8-6.9c2-2.7,3.2-5.9,3.6-9.4c0-0.2,0-0.3-0.2-0.3h-10.7c-0.5,0-0.8-0.2-1.2-0.5c-0.3-0.3-0.5-0.7-0.5-1.1
			c0-0.5,0.2-0.8,0.5-1.2c0.3-0.3,0.7-0.5,1.2-0.5h10.8c0.2,0,0.3-0.1,0.3-0.3v-4.6c0-0.5,0.2-1,0.6-1.3c0.4-0.4,0.8-0.5,1.3-0.5
			c0.5,0,0.9,0.2,1.3,0.5c0.4,0.4,0.6,0.8,0.6,1.3v4.6c0,0.2,0.1,0.3,0.3,0.3h10.8c0.5,0,0.8,0.2,1.2,0.5
			C167.9,82.9,168.1,83.3,168.1,83.8z"/>
		<path class="st0" d="M179.9,103.1c-1.7,0-3.4-1-4.8-3.1c-1.5-2-2.2-4.5-2.2-7.5c0-4.3,1.5-7.9,4.4-10.6c3-2.7,6.8-4.1,11.6-4.1
			c3.8,0,7,1.2,9.5,3.6c2.5,2.4,3.8,5.5,3.8,9.2c0,3.5-0.8,6.5-2.5,8.7c-1.6,2.3-3.9,3.7-6.8,4.3c-0.5,0.1-0.9,0-1.3-0.3
			c-0.4-0.3-0.6-0.6-0.8-1.1c-0.1-0.4,0-0.8,0.2-1.2c0.2-0.4,0.6-0.6,1-0.7c2.1-0.6,3.7-1.7,4.9-3.3c1.1-1.7,1.7-3.8,1.7-6.4
			c0-2.6-0.8-4.7-2.4-6.5c-1.6-1.7-3.7-2.7-6.3-3c-0.2,0-0.3,0-0.3,0.3c-0.5,4.3-1.1,7.9-1.9,10.9c-0.7,2.9-1.5,5.2-2.4,6.7
			c-0.9,1.5-1.8,2.6-2.7,3.2C181.9,102.8,181,103.1,179.9,103.1z M186,81.3c-3,0.5-5.3,1.8-7.1,3.8c-1.7,2-2.6,4.5-2.6,7.4
			c0,1.9,0.4,3.6,1.2,5c0.8,1.4,1.6,2.1,2.4,2.1c0.4,0,0.7-0.2,1.1-0.5c0.4-0.3,0.8-0.9,1.3-1.7c0.5-0.8,0.9-1.9,1.4-3.2
			c0.4-1.3,0.9-3,1.3-5.2c0.5-2.2,0.9-4.7,1.2-7.5c0-0.1,0-0.1-0.1-0.2C186.1,81.3,186,81.3,186,81.3z"/>
	</g>
</g>
<circle class="st3" cx="551.6" cy="37.8" r="27.5"/>
<circle class="st1" cx="410.7" cy="47.3" r="18.1"/>
<circle class="st1" cx="260.7" cy="239.2" r="14.1"/>
<g>
	<defs>
		<rect id="SVGID_3_" x="0.7" y="22.3" width="37.3" height="37.3"/>
	</defs>
	<clipPath id="SVGID_4_">
		<use xlink:href="#SVGID_3_"  style="overflow:visible;"/>
	</clipPath>
	<ellipse transform="matrix(0.7071 -0.7071 0.7071 0.7071 -26.9597 20.9224)" class="st6" cx="11.8" cy="43" rx="14.1" ry="14.1"/>
</g>
<g>
	<defs>
		<rect id="SVGID_5_" x="809.6" y="-8.2" width="65.7" height="92.1"/>
	</defs>
	<clipPath id="SVGID_6_">
		<use xlink:href="#SVGID_5_"  style="overflow:visible;"/>
	</clipPath>
	<circle class="st7" cx="853.7" cy="48.5" r="29.2"/>
</g>
<g>
	<defs>
		<rect id="SVGID_7_" y="203.4" width="58.7" height="71.5"/>
	</defs>
	<clipPath id="SVGID_8_">
		<use xlink:href="#SVGID_7_"  style="overflow:visible;"/>
	</clipPath>
	<circle class="st8" cx="17.7" cy="238.7" r="29.2"/>
</g>
<g>
	<defs>
		<rect id="SVGID_9_" x="846.8" y="184" width="28.2" height="53"/>
	</defs>
	<clipPath id="SVGID_10_">
		<use xlink:href="#SVGID_9_"  style="overflow:visible;"/>
	</clipPath>
	<circle class="st9" cx="870.4" cy="212.3" r="17.7"/>
</g>
<g>
	<rect x="846.8" y="11.4" class="st0" width="23.7" height="17.3"/>
	<rect x="0.2" y="0.7" class="st1" width="874.6" height="34.6"/>
	<rect x="5.8" y="10.6" class="st0" width="23.7" height="17.3"/>
	<rect x="34.8" y="10.6" class="st0" width="23.7" height="17.3"/>
	<rect x="63.8" y="10.6" class="st0" width="23.7" height="17.3"/>
	<rect x="92.8" y="10.6" class="st0" width="23.7" height="17.3"/>
	<rect x="121.8" y="10.6" class="st0" width="23.7" height="17.3"/>
	<rect x="150.8" y="10.6" class="st0" width="23.7" height="17.3"/>
	<rect x="179.8" y="10.6" class="st0" width="23.7" height="17.3"/>
	<rect x="208.8" y="10.6" class="st0" width="23.7" height="17.3"/>
	<rect x="237.8" y="10.6" class="st0" width="23.7" height="17.3"/>
	<rect x="266.8" y="10.6" class="st0" width="23.7" height="17.3"/>
	<rect x="295.8" y="10.6" class="st0" width="23.7" height="17.3"/>
	<rect x="324.8" y="10.6" class="st0" width="23.7" height="17.3"/>
	<rect x="353.8" y="10.6" class="st0" width="23.7" height="17.3"/>
	<rect x="382.8" y="10.6" class="st0" width="23.7" height="17.3"/>
	<rect x="411.8" y="10.6" class="st0" width="23.7" height="17.3"/>
	<rect x="440.8" y="10.6" class="st0" width="23.7" height="17.3"/>
	<rect x="469.8" y="10.6" class="st0" width="23.7" height="17.3"/>
	<rect x="498.8" y="10.6" class="st0" width="23.7" height="17.3"/>
	<rect x="527.8" y="10.6" class="st0" width="23.7" height="17.3"/>
	<rect x="556.8" y="10.6" class="st0" width="23.7" height="17.3"/>
	<rect x="585.8" y="10.6" class="st0" width="23.7" height="17.3"/>
	<rect x="614.8" y="10.6" class="st0" width="23.7" height="17.3"/>
	<rect x="643.8" y="10.6" class="st0" width="23.7" height="17.3"/>
	<rect x="672.8" y="10.6" class="st0" width="23.7" height="17.3"/>
	<rect x="701.8" y="10.6" class="st0" width="23.7" height="17.3"/>
	<rect x="730.8" y="10.6" class="st0" width="23.7" height="17.3"/>
	<rect x="759.8" y="10.6" class="st0" width="23.7" height="17.3"/>
	<rect x="788.8" y="10.6" class="st0" width="23.7" height="17.3"/>
	<rect x="817.8" y="10.6" class="st0" width="23.7" height="17.3"/>
	<rect x="846.8" y="10.6" class="st0" width="23.7" height="17.3"/>
</g>
<g>
	<rect x="0.2" y="241.2" class="st1" width="874.6" height="34.6"/>
	<rect x="5.8" y="251.1" class="st0" width="23.7" height="17.3"/>
	<rect x="34.8" y="251.1" class="st0" width="23.7" height="17.3"/>
	<rect x="63.8" y="251.1" class="st0" width="23.7" height="17.3"/>
	<rect x="92.8" y="251.1" class="st0" width="23.7" height="17.3"/>
	<rect x="121.8" y="251.1" class="st0" width="23.7" height="17.3"/>
	<rect x="150.8" y="251.1" class="st0" width="23.7" height="17.3"/>
	<rect x="179.8" y="251.1" class="st0" width="23.7" height="17.3"/>
	<rect x="208.8" y="251.1" class="st0" width="23.7" height="17.3"/>
	<rect x="237.8" y="251.1" class="st0" width="23.7" height="17.3"/>
	<rect x="266.8" y="251.1" class="st0" width="23.7" height="17.3"/>
	<rect x="295.8" y="251.1" class="st0" width="23.7" height="17.3"/>
	<rect x="324.8" y="251.1" class="st0" width="23.7" height="17.3"/>
	<rect x="353.8" y="251.1" class="st0" width="23.7" height="17.3"/>
	<rect x="382.8" y="251.1" class="st0" width="23.7" height="17.3"/>
	<rect x="411.8" y="251.1" class="st0" width="23.7" height="17.3"/>
	<rect x="440.8" y="251.1" class="st0" width="23.7" height="17.3"/>
	<rect x="469.8" y="251.1" class="st0" width="23.7" height="17.3"/>
	<rect x="498.8" y="251.1" class="st0" width="23.7" height="17.3"/>
	<rect x="527.8" y="251.1" class="st0" width="23.7" height="17.3"/>
	<rect x="556.8" y="251.1" class="st0" width="23.7" height="17.3"/>
	<rect x="585.8" y="251.1" class="st0" width="23.7" height="17.3"/>
	<rect x="614.8" y="251.1" class="st0" width="23.7" height="17.3"/>
	<rect x="643.8" y="251.1" class="st0" width="23.7" height="17.3"/>
	<rect x="672.8" y="251.1" class="st0" width="23.7" height="17.3"/>
	<rect x="701.8" y="251.1" class="st0" width="23.7" height="17.3"/>
	<rect x="730.8" y="251.1" class="st0" width="23.7" height="17.3"/>
	<rect x="759.8" y="251.1" class="st0" width="23.7" height="17.3"/>
	<rect x="788.8" y="251.1" class="st0" width="23.7" height="17.3"/>
	<rect x="817.8" y="251.1" class="st0" width="23.7" height="17.3"/>
	<rect x="846.8" y="251.1" class="st0" width="23.7" height="17.3"/>
</g>
<g>
</g>
<g>
</g>
<g>
</g>
<g>
</g>
<g>
</g>
<g>
</g>
<g>
</g>
<g>
</g>
<g>
</g>
<g>
</g>
<g>
</g>
<g>
</g>
<g>
</g>
<g>
</g>
<g>
</g>
</svg>
