<?xml version="1.0" encoding="utf-8"?>
<!-- Generator: Adobe Illustrator 19.0.0, SVG Export Plug-In . SVG Version: 6.00 Build 0)  -->
<svg version="1.1" id="レイヤー_1" xmlns="http://www.w3.org/2000/svg" xmlns:xlink="http://www.w3.org/1999/xlink" x="0px"
	 y="0px" viewBox="0 0 875 375" style="enable-background:new 0 0 875 375;" xml:space="preserve">
<style type="text/css">
	.st0{fill:#FF9F23;}
	.st1{fill:#FFEA8B;}
	.st2{clip-path:url(#SVGID_2_);fill:#FF9F23;}
	.st3{fill:#FFDB63;}
	.st4{fill:#FFEA8B;stroke:#FF9F23;stroke-miterlimit:10;}
	.st5{fill:#FFDB63;stroke:#FF9F23;stroke-miterlimit:10;}
	.st6{fill:#FFF5CC;}
	.st7{fill:#FF9F23;stroke:#FF9F23;stroke-miterlimit:10;}
	.st8{clip-path:url(#SVGID_4_);fill:#FFDB63;}
	.st9{clip-path:url(#SVGID_6_);fill:#FFDB63;}
	.st10{clip-path:url(#SVGID_8_);fill:#FFDB63;}
	.st11{clip-path:url(#SVGID_10_);fill:#FFEA8B;}
</style>
<rect class="st0" width="875" height="375"/>
<g>
	<g>
		<circle class="st1" cx="723.4" cy="144.1" r="38.5"/>
		
			<rect x="681.9" y="58.8" transform="matrix(0.8906 -0.4548 0.4548 0.8906 35.0435 325.6605)" class="st1" width="24.8" height="62.4"/>
	</g>
	<g>
		<defs>
			<path id="SVGID_1_" d="M648.2,171l90.1,83.7l72.3-128.3c0,0,18.4-12.8-29.8,4.3c-48.2,17-44,6.4-70.2,5.7
				C684.4,135.5,648.2,171,648.2,171z"/>
		</defs>
		<clipPath id="SVGID_2_">
			<use xlink:href="#SVGID_1_"  style="overflow:visible;"/>
		</clipPath>
		<circle class="st2" cx="723.4" cy="145.3" r="33.5"/>
	</g>
</g>
<g>
	
		<rect x="80.7" y="195" transform="matrix(0.9554 0.2954 -0.2954 0.9554 73.3009 -27.9463)" class="st3" width="96.9" height="67.4"/>
	<rect x="88.7" y="201" transform="matrix(0.9554 0.2954 -0.2954 0.9554 73.2316 -27.8028)" class="st0" width="79.9" height="55"/>
	<polygon class="st3" points="72.9,246.5 44,274 167.5,312.1 165.5,275.1 	"/>
	<polygon class="st4" points="75.1,251.7 60.6,265.7 159,296.1 159,277.6 	"/>
</g>
<g>
	
		<rect x="764.9" y="217.6" transform="matrix(0.861 0.5087 -0.5087 0.861 242.7561 -368.312)" class="st5" width="60.4" height="84.6"/>
	<polygon class="st4" points="787.2,212.8 774.4,213.9 729.3,284.1 778.2,311.2 799.6,308.2 840,242.5 	"/>
	
		<rect x="745.1" y="220.9" transform="matrix(0.861 0.5087 -0.5087 0.861 241.3851 -356.7424)" class="st5" width="56.3" height="84.6"/>
	<polygon class="st5" points="819,241.1 842.6,238.8 799.6,311.7 776,313.9 	"/>
</g>
<rect x="846.8" y="10.4" class="st0" width="23.7" height="17.3"/>
<circle class="st3" cx="609" cy="320" r="26.1"/>
<circle class="st1" cx="29.5" cy="184.7" r="17.7"/>
<circle class="st1" cx="687.8" cy="246.5" r="14.1"/>
<circle class="st3" cx="291" cy="47.2" r="29.2"/>
<circle class="st3" cx="362.3" cy="300.7" r="26.3"/>
<circle class="st1" cx="502.8" cy="288.2" r="14.1"/>
<g>
	<path class="st6" d="M248.8,164.3c-0.8,5.7-2.2,11.3-3.9,16.6c-0.1,0.4,0.1,0.7,0.5,0.7h11.8c1.3,0,2.4,0.5,3.4,1.4
		c1,1,1.4,2.1,1.4,3.4v29.1c0,1.3-0.5,2.4-1.4,3.4c-1,1-2.1,1.4-3.4,1.4h-11.3c-0.5,0-0.8,0.3-0.8,0.8v1.8c0,1.1-0.4,2.1-1.2,2.9
		c-0.8,0.8-1.8,1.2-2.9,1.2c-1.1,0-2.1-0.4-2.9-1.2c-0.8-0.8-1.2-1.8-1.2-2.9v-25.6c0-0.1,0-0.2-0.1-0.2c-0.1,0-0.2,0-0.2,0
		c-1,1.7-1.8,3-2.4,3.9c-0.6,0.8-1.3,1.1-2.2,0.9c-0.9-0.2-1.5-0.8-1.8-1.7l-0.3-1c-0.7-2.9-0.2-5.8,1.5-8.6
		c4.5-7.3,7.6-16,9.2-26.3c0.1-0.5-0.1-0.8-0.6-0.8h-4.7c-1.1,0-2-0.4-2.7-1.1c-0.7-0.7-1.1-1.6-1.1-2.7c0-1.1,0.4-2,1.1-2.7
		c0.7-0.7,1.6-1.1,2.7-1.1h22.7c1.1,0,2,0.4,2.7,1.1c0.7,0.7,1.1,1.6,1.1,2.7c0,1.1-0.4,2-1.1,2.7c-0.7,0.7-1.6,1.1-2.7,1.1h-8.5
		C249.2,163.5,248.9,163.8,248.8,164.3z M245.1,189.9v22.3c0,0.5,0.3,0.8,0.8,0.8h7.6c0.5,0,0.8-0.3,0.8-0.8v-22.3
		c0-0.5-0.3-0.8-0.8-0.8h-7.6C245.4,189.1,245.1,189.4,245.1,189.9z M305.2,184.1c1.1,0,2,0.4,2.7,1.1c0.7,0.7,1.1,1.6,1.1,2.7
		c0,1.1-0.4,2-1.1,2.7c-0.7,0.7-1.6,1.1-2.7,1.1h-4.3c-0.5,0-0.8,0.3-0.8,0.8v30.9c0,1.2-0.4,2.3-1.3,3.2c-0.9,0.9-1.9,1.3-3.1,1.3
		c-1.2,0-2.3-0.4-3.1-1.3c-0.8-0.9-1.3-1.9-1.3-3.2v-30.9c0-0.5-0.3-0.8-0.8-0.8h-9c-0.5,0-0.8,0.3-0.8,0.8
		c-0.6,8.3-1.6,14.9-3,19.8c-1.4,4.9-3.5,9.2-6.1,12.8c-0.7,1-1.7,1.5-3,1.5c-1.3,0-2.3-0.4-3.1-1.3c-0.9-0.9-1.4-2-1.4-3.3
		c0-1.3,0.3-2.5,1.1-3.6c2-2.8,3.5-6.1,4.6-10c1.1-3.9,1.9-9.2,2.3-15.9c0-0.5-0.2-0.8-0.7-0.8h-3.8c-1.1,0-2-0.4-2.7-1.1
		c-0.7-0.7-1.1-1.6-1.1-2.7c0-1.1,0.4-2,1.1-2.7c0.7-0.7,1.6-1.1,2.7-1.1h4.1c0.5,0,0.8-0.3,0.8-0.8c0.1-4.9,0.2-9.1,0.2-12.4v-6.6
		c0-0.5-0.3-0.8-0.8-0.8h-3.3c-1.1,0-1.9-0.4-2.6-1.1c-0.7-0.7-1.1-1.6-1.1-2.7c0-1.1,0.3-2,1.1-2.7c0.7-0.7,1.6-1.1,2.6-1.1h35.5
		c1.1,0,2,0.4,2.7,1.1c0.7,0.7,1.1,1.6,1.1,2.7c0,1.1-0.4,2-1.1,2.7c-0.7,0.7-1.6,1.1-2.7,1.1h-3.4c-0.5,0-0.8,0.3-0.8,0.8v19.1
		c0,0.5,0.3,0.8,0.8,0.8H305.2z M291.3,183.3v-19.1c0-0.5-0.3-0.8-0.8-0.8h-8.4c-0.5,0-0.8,0.3-0.8,0.8v6.6c0,3.2-0.1,7.4-0.2,12.4
		c0,0.5,0.3,0.8,0.8,0.8h8.6C291.1,184.1,291.3,183.8,291.3,183.3z"/>
	<path class="st6" d="M322.4,227.7c-1.1,0.4-2.2,0.4-3.4,0c-1.1-0.4-2-1.1-2.6-2.1c-0.6-0.9-0.7-1.8-0.3-2.9s1-1.7,2-2
		c6.3-2.2,11.2-4.6,14.6-7.4c3.4-2.7,5.8-6.2,7.2-10.4c0.1-0.4-0.1-0.7-0.5-0.7h-15.5c-1.1,0-2-0.4-2.7-1.1
		c-0.8-0.7-1.1-1.6-1.1-2.7c0-1.1,0.4-2,1.1-2.7c0.8-0.7,1.7-1.1,2.7-1.1h17c0.5,0,0.8-0.2,0.8-0.7c0.1-0.9,0.2-1.6,0.2-2
		c0.1-1.3,0.6-2.4,1.5-3.2c0.9-0.8,1.9-1.3,3.1-1.3c1.3,0,2.4,0.4,3.2,1.3c0.8,0.9,1.2,2,1.2,3.2c0,0.8,0,1.5-0.1,1.9
		c0,0.4,0.2,0.7,0.7,0.7h17.1c1.3,0,2.4,0.5,3.4,1.4c1,1,1.4,2.1,1.4,3.4v18.1c0,1.1,0.2,1.8,0.7,2c0.5,0.2,2.1,0.3,4.7,0.3
		c1.5,0,2.6,0,3.1-0.1s1.2-0.5,1.7-1.2c0.6-0.7,0.9-1.7,1.1-2.9c0.2-1.2,0.4-3.2,0.6-5.9c0.1-1.1,0.6-2,1.4-2.8
		c0.8-0.7,1.8-1,2.9-0.9c1.1,0.1,2.1,0.6,2.8,1.6s1.1,1.9,1,3.1c-0.2,2.8-0.5,5.1-0.7,6.8c-0.3,1.7-0.7,3.3-1.3,4.6
		c-0.6,1.3-1.2,2.3-1.8,3s-1.6,1.2-2.9,1.6c-1.4,0.4-2.7,0.6-4.1,0.7c-1.3,0.1-3.3,0.1-5.8,0.1c-5.6,0-9.1-0.5-10.6-1.5
		c-1.5-1-2.2-3.3-2.2-6.9v-16c0-0.5-0.3-0.8-0.8-0.8h-13.4c-0.5,0-0.8,0.3-0.9,0.8c-1.7,5.9-4.6,10.8-8.9,14.7
		C336,221.5,330,224.9,322.4,227.7z M367.3,189.6c-4.4-0.2-7.1-0.6-8.2-1.3c-1.1-0.7-1.7-2.3-1.7-4.8v-15.3c0-0.4-0.3-0.7-0.8-0.7
		h-5.7c-0.5,0-0.8,0.2-0.8,0.7c-0.8,10.9-9.7,18.3-26.9,22.3c-1,0.2-2,0.1-2.9-0.5c-0.9-0.5-1.5-1.3-1.8-2.3c-0.3-1-0.1-1.9,0.4-2.7
		c0.6-0.9,1.3-1.4,2.3-1.6c13.1-2.9,19.8-7.9,20.2-15.2c0-0.4-0.3-0.6-0.8-0.6h-13.3c-0.4,0-0.7,0.2-0.7,0.7v4.9
		c0,1.2-0.4,2.2-1.3,3c-0.9,0.8-1.9,1.3-3.1,1.3c-1.2,0-2.2-0.4-3-1.3c-0.8-0.8-1.3-1.8-1.3-3v-8.1c0-1.3,0.5-2.4,1.4-3.4
		c1-1,2.1-1.4,3.4-1.4h25.6c0.4,0,0.7-0.2,0.7-0.7V156c0-1.2,0.4-2.3,1.3-3.2c0.9-0.9,2-1.4,3.3-1.4c1.3,0,2.4,0.5,3.3,1.4
		c0.9,0.9,1.3,2,1.3,3.2v3.5c0,0.4,0.3,0.7,0.8,0.7h25.6c1.3,0,2.4,0.5,3.3,1.4c0.9,1,1.4,2.1,1.4,3.4v5.6c0,1.2-0.4,2.2-1.3,3
		c-0.8,0.8-1.8,1.3-3,1.3c-1.2,0-2.2-0.4-3-1.3c-0.8-0.8-1.3-1.8-1.3-3v-2.4c0-0.4-0.3-0.7-0.8-0.7h-13.3c-0.4,0-0.7,0.2-0.7,0.7
		v11.7c0,1.3,0.1,2.1,0.4,2.4s1.2,0.4,2.7,0.5c0.7,0.1,1.8,0.1,3.4,0.1c1.6,0,2.7,0,3.4-0.1c2.4-0.2,3.8-0.4,4.2-0.8
		c0.2-0.1,0.3-0.3,0.4-0.5c1.3-2.7,3-4,5-3.8c1.2,0.1,2.2,0.6,3,1.6c0.8,0.9,1.1,2,0.9,3.1c-0.4,3.2-1.4,5.2-3,6
		c-1.5,0.8-4.9,1.2-10.2,1.3c-0.4,0-1.2,0-2.2,0.1c-1,0.1-1.8,0.1-2.4,0.1C370.7,189.8,369.2,189.8,367.3,189.6z"/>
	<path class="st6" d="M432.1,219.1c0.5,0,0.8-0.2,0.8-0.7v-7.4c0-0.5-0.3-0.8-0.8-0.8h-22.5c-1,0-1.8-0.3-2.5-1.1
		c-0.7-0.7-1.1-1.5-1.1-2.5c0-1,0.4-1.8,1.1-2.5c0.7-0.7,1.6-1.1,2.5-1.1h22.5c0.5,0,0.8-0.2,0.8-0.7v-5c0-0.9,0.2-1.7,0.6-2.3
		c0.1-0.1,0.1-0.2,0.1-0.4c-0.1-0.1-0.1-0.2-0.3-0.2c-8.7,0.6-17.1,1-25.3,1.3c-1,0.1-1.9-0.3-2.7-0.9c-0.8-0.7-1.2-1.5-1.3-2.5
		c-0.1-1,0.3-1.8,1-2.5c0.7-0.7,1.5-1.1,2.5-1.2c0.9,0,2.2,0,4-0.1c1.8-0.1,3.2-0.2,4.1-0.2c0.4,0,0.8-0.2,1.1-0.6
		c1.5-2.5,3.2-5.6,5-9.2c0.1-0.2,0-0.3,0-0.5c-0.1-0.2-0.2-0.3-0.4-0.3h-12.1c-0.8,0-1.4-0.3-2-0.8c-0.5-0.5-0.8-1.2-0.8-1.9
		c0-0.3-0.1-0.4-0.4-0.4h-0.7c-1.3,0-2.4-0.5-3.4-1.4c-1-1-1.4-2.1-1.4-3.4v-6.8c0-1.3,0.5-2.4,1.4-3.4c1-1,2.1-1.4,3.4-1.4h26.8
		c0.5,0,0.8-0.2,0.8-0.7V156c0-1.2,0.5-2.3,1.4-3.2c0.9-0.9,2-1.4,3.2-1.4c1.2,0,2.3,0.5,3.2,1.4c0.9,0.9,1.4,2,1.4,3.2v1.8
		c0,0.4,0.3,0.7,0.8,0.7h26.8c1.3,0,2.4,0.5,3.4,1.4c1,1,1.4,2.1,1.4,3.4v6.8c0,1.3-0.5,2.4-1.4,3.4c-1,1-2.1,1.4-3.4,1.4H469
		c-0.3,0-0.4,0.1-0.4,0.4c0,0.7-0.3,1.4-0.8,1.9c-0.5,0.5-1.2,0.8-2,0.8h-6.2c-0.1,0-0.2,0.1-0.3,0.3c-0.1,0.2-0.1,0.3,0,0.3
		c4.1,4.6,7.6,8.8,10.7,12.8c0.7,0.9,0.9,1.9,0.7,3c-0.2,1.1-0.8,1.9-1.8,2.4c-1.1,0.6-2.2,0.7-3.4,0.4c-1.2-0.3-2.2-0.9-2.9-1.8
		c-0.2-0.2-0.5-0.6-0.9-1.2c-0.4-0.6-0.7-1-0.8-1.2c-0.3-0.4-0.7-0.6-1.1-0.5c-1.6,0.2-7.8,0.7-18.4,1.6c-0.1,0-0.2,0.1-0.3,0.2
		c-0.1,0.1,0,0.3,0.1,0.4c0.7,0.8,1,1.8,1,2.9v5c0,0.4,0.3,0.7,0.8,0.7h21.7c1,0,1.8,0.4,2.5,1.1c0.7,0.7,1.1,1.6,1.1,2.5
		c0,1-0.4,1.8-1.1,2.5c-0.7,0.7-1.6,1.1-2.5,1.1h-21.7c-0.5,0-0.8,0.3-0.8,0.8v7.4c0,0.4,0.3,0.7,0.8,0.7h28.3c1,0,1.9,0.4,2.6,1.1
		c0.7,0.7,1.1,1.6,1.1,2.6s-0.4,1.9-1.1,2.6c-0.7,0.7-1.6,1.1-2.6,1.1h-67.4c-1,0-1.9-0.4-2.6-1.1c-0.7-0.7-1.1-1.6-1.1-2.6
		s0.4-1.9,1.1-2.6c0.7-0.7,1.6-1.1,2.6-1.1H432.1z M410.1,171.1h54.8c0.5,0,0.8-0.3,0.8-0.8v-3.9c0-0.5-0.3-0.8-0.8-0.8h-54.8
		c-0.5,0-0.8,0.3-0.8,0.8v3.9C409.4,170.8,409.6,171.1,410.1,171.1z M426.6,187.4c-0.3,0.4-0.2,0.6,0.3,0.6
		c7.6-0.4,16.8-1.1,27.5-2.1c0.1,0,0.2-0.1,0.3-0.2c0.1-0.1,0.1-0.3,0-0.4c-0.7-0.8-1.8-2-3.1-3.6c-1.4-1.6-2.3-2.6-2.6-3.1
		c-0.4-0.4-0.8-0.6-1.2-0.6h-15.5c-0.5,0-0.8,0.2-1,0.7C429.9,181.3,428.4,184.2,426.6,187.4z"/>
	<path class="st6" d="M488.4,223.7c-0.8,0.6-1.7,0.8-2.6,0.6c-1-0.2-1.7-0.7-2.3-1.5c-0.6-0.8-0.8-1.7-0.6-2.6
		c1-5.4,1.8-10.9,2.3-16.5c0.1-1,0.5-1.7,1.2-2.3s1.5-0.9,2.5-0.8c1,0.1,1.8,0.5,2.4,1.3c0.7,0.8,1,1.7,0.8,2.6
		c-0.5,5.8-1.3,11.5-2.3,17C489.7,222.4,489.2,223.2,488.4,223.7z M490.1,188.4c0.2-0.3,0.5-0.7,0.8-1.3s0.6-1,0.8-1.3
		c0.3-0.4,0.3-0.8,0-1.2c-2.8-4.5-5.3-8.4-7.4-11.7c-1.5-2.4-1.5-4.8,0-7.2c0.6-0.8,1.3-1.3,2.3-1.3c1,0,1.7,0.4,2.3,1.2
		c0.1,0.1,0.1,0.2,0.2,0.3s0.2,0.3,0.2,0.3c0.1,0.1,0.2,0.2,0.3,0.2s0.3-0.1,0.4-0.2c1.5-3.1,3-6.4,4.5-10c0.4-1,1.2-1.6,2.1-2.1
		c1-0.4,1.9-0.4,2.9,0c1,0.4,1.6,1.2,2,2.1c0.4,1,0.4,1.9,0,2.9c-2.2,4.9-4.5,9.7-7.1,14.4c-0.2,0.4-0.2,0.8,0,1.2
		c0.2,0.3,0.4,0.7,0.8,1.3c0.4,0.6,0.6,1,0.8,1.3c0.3,0.4,0.5,0.4,0.8,0.1c2-3.4,4.3-7.5,6.9-12.4c0.4-1,1.2-1.6,2.1-1.9
		c1-0.3,1.9-0.2,2.9,0.3c1,0.5,1.6,1.2,1.9,2.2c0.3,1,0.2,1.9-0.3,2.9c-1.4,2.6-3,5.4-4.7,8.5c-0.1,0.1,0,0.1,0.1,0.3
		c0.1,0.1,0.2,0.1,0.3,0.1c1.3-0.3,2.5-0.2,3.7,0.5c1.1,0.6,1.9,1.6,2.2,2.9c1.2,4.8,2.2,9,3,12.7c0.2,0.9,0.1,1.8-0.4,2.6
		c-0.5,0.8-1.2,1.3-2.2,1.6l-0.6,0.1c-0.8,0.2-1.5,0-2.1-0.4c-0.6-0.4-1-1-1.2-1.8c-0.1-0.3-0.3-0.4-0.6-0.4l-4.5,0.3
		c-0.5,0-0.8,0.3-0.8,0.8v28.6c0,1.2-0.4,2.2-1.3,3s-1.8,1.3-3,1.3c-1.2,0-2.2-0.4-3-1.3s-1.3-1.8-1.3-3v-28.1
		c0-0.4-0.3-0.7-0.8-0.7l-6.4,0.4c-1,0.1-1.9-0.3-2.6-0.9c-0.7-0.7-1.1-1.5-1.2-2.5c-0.1-1,0.3-1.9,1-2.6c0.7-0.8,1.6-1.2,2.6-1.2
		l2.3-0.2C489.4,189,489.8,188.8,490.1,188.4z M499.2,187.9c-0.1,0.1,0,0.2,0,0.3c0.1,0.1,0.2,0.2,0.4,0.2l6.5-0.4
		c0.5,0,0.7-0.3,0.6-0.8c-0.6-2.2-1.2-4.6-1.9-7.1c-0.2-0.5-0.4-0.6-0.6-0.3C503,181.6,501.4,184.3,499.2,187.9z M509.8,221.4
		c-0.9,0.1-1.7-0.2-2.4-0.8c-0.7-0.6-1.1-1.4-1.3-2.3c-0.4-5.5-0.9-10.3-1.4-14.4c-0.1-0.9,0.1-1.7,0.7-2.5c0.6-0.8,1.3-1.2,2.3-1.3
		s1.8,0.1,2.6,0.7c0.8,0.6,1.2,1.3,1.3,2.2c0.4,2.9,0.9,7.7,1.5,14.6c0.1,1-0.2,1.8-0.8,2.6C511.6,220.9,510.8,221.3,509.8,221.4z
		 M554.3,156c1.3,0,2.4,0.5,3.3,1.4c0.9,1,1.4,2.1,1.4,3.4c-0.1,8.3-0.4,14.5-1.2,18.6c-0.7,4-1.7,6.7-3,7.9c-1.3,1.2-3.3,1.8-6,1.8
		c-1,0-4.1-0.1-9.2-0.3c-1.1-0.1-2-0.4-2.7-1.2c-0.7-0.7-1.1-1.6-1.2-2.7c-0.1-1,0.3-1.9,1-2.6c0.8-0.7,1.6-1.1,2.6-1
		c2.7,0.2,4.8,0.3,6.3,0.3c1.1,0,2-0.3,2.6-1.1c0.6-0.7,1.1-2.3,1.4-4.8c0.4-2.5,0.5-6.3,0.5-11.3c0-0.5-0.2-0.8-0.7-0.8h-9.3
		c-0.4,0-0.7,0.2-0.8,0.7c-1,5.8-2.9,10.9-5.9,15.5c-3,4.5-6.7,8.1-11.1,10.8c-1,0.6-2.1,0.7-3.2,0.4c-1.1-0.3-2-0.9-2.6-1.9
		c-0.6-0.9-0.7-1.9-0.5-2.9c0.3-1,0.8-1.9,1.7-2.5c6.7-4.4,11-10.9,12.8-19.4c0.1-0.4-0.1-0.7-0.5-0.7h-11.3c-1.1,0-2-0.4-2.7-1.1
		c-0.8-0.7-1.1-1.6-1.1-2.7c0-1.1,0.4-2,1.1-2.7c0.8-0.7,1.7-1.1,2.7-1.1H554.3z M521.8,228.6H521c-1.2,0-2.2-0.4-3.1-1.3
		s-1.3-1.8-1.3-3v-25.6c0-1.3,0.5-2.4,1.4-3.4c1-1,2.1-1.4,3.4-1.4h31c1.3,0,2.4,0.5,3.4,1.4c1,1,1.4,2.1,1.4,3.4v25.5
		c0,1.2-0.4,2.3-1.3,3.2c-0.9,0.9-1.9,1.3-3.2,1.3h-0.9c-1,0-1.8-0.3-2.4-1s-1-1.5-1-2.4c0-0.3-0.2-0.5-0.5-0.5h-22.1
		c-0.3,0-0.5,0.2-0.5,0.5c0,1-0.3,1.8-1,2.4C523.6,228.3,522.8,228.6,521.8,228.6z M525.3,202.1v14.7c0,0.5,0.3,0.8,0.8,0.8h21.7
		c0.4,0,0.7-0.3,0.7-0.8v-14.7c0-0.5-0.2-0.8-0.7-0.8H526C525.5,201.3,525.3,201.6,525.3,202.1z"/>
	<path class="st6" d="M573.3,182.7c-1,0.6-2.1,0.7-3.2,0.4c-1.1-0.3-1.9-1-2.5-2.1c-0.6-1.1-0.7-2.1-0.3-3.2c0.4-1.1,1-1.9,2.1-2.6
		c9.7-5.5,18.7-11.8,26.9-18.8c2.4-2.1,5.2-3.1,8.3-3.1h1.7c3.1,0,5.9,1,8.3,3.1c8.2,7,17.1,13.3,26.9,18.8c1,0.6,1.7,1.5,2.1,2.6
		c0.4,1.1,0.3,2.2-0.3,3.2c-0.6,1-1.4,1.7-2.5,2s-2.1,0.2-3.2-0.3c-11.5-6.4-22-14.1-31.7-23.1c-0.3-0.2-0.7-0.2-1.1,0.1
		C595.4,168.4,584.9,176.1,573.3,182.7z M585.8,181.9c0-1.3,0.4-2.4,1.3-3.2c0.9-0.9,1.9-1.3,3.2-1.3c1.2,0,2.3,0.4,3.2,1.3
		c0.9,0.9,1.3,1.9,1.3,3.2v3.3c0,11.7-1.2,20.5-3.6,26.4c-2.4,5.9-6.7,10.8-13,14.7c-1.1,0.7-2.2,0.9-3.4,0.6
		c-1.2-0.3-2.2-0.9-2.9-1.9c-0.7-1-0.9-2-0.6-3.2c0.3-1.2,0.9-2.1,1.9-2.7c4.8-3.1,8.1-7,10-11.8c1.8-4.8,2.7-12.2,2.7-22.1V181.9z
		 M617.4,182c0-1.2,0.5-2.3,1.4-3.2c0.9-0.9,2-1.4,3.3-1.4c1.2,0,2.3,0.4,3.2,1.3c0.9,0.9,1.3,2,1.3,3.3v41.2c0,1.3-0.4,2.4-1.3,3.3
		c-0.9,0.9-2,1.3-3.2,1.3c-1.3,0-2.4-0.5-3.3-1.4c-0.9-0.9-1.4-2-1.4-3.2V182z"/>
</g>
<g>
	<g>
		<path class="st6" d="M229.3,116c0,24.8-37.8,45-84.5,45s-84.5-20.1-84.5-45c0-13.8,11.7-26.2,30.1-34.4
			C105.2,75,124.2,71,144.9,71C191.5,71,229.3,91.1,229.3,116z"/>
		<path class="st6" d="M201.2,146.9c0,7.1,17.7,13.4,15.6,15.6c-2.1,2.1-20.4,3.6-30.8-6.8"/>
	</g>
	<g>
		<path class="st7" d="M92,122.8c-0.5,0.1-0.9,0-1.3-0.2s-0.7-0.6-0.9-1c-0.2-0.4-0.1-0.8,0.1-1.2c0.2-0.4,0.6-0.7,1-0.8
			c4.7-1.2,8.9-2.9,12.8-5c0.2-0.1,0.2-0.2,0.1-0.4c-0.6-0.7-1.7-1.9-3.1-3.5c-0.4-0.4-0.5-0.8-0.5-1.3c0-0.5,0.2-0.9,0.6-1.3
			c0.4-0.3,0.9-0.5,1.4-0.5c0.5,0,1,0.2,1.3,0.6c1.1,1.2,2.2,2.4,3.4,3.8c0.2,0.2,0.3,0.2,0.5,0.1c3.6-2.5,6.1-5.1,7.4-7.6
			c0.1-0.1,0.1-0.1,0-0.2c-0.1-0.1-0.1-0.1-0.2-0.1h-12.1c-0.2,0-0.4,0.1-0.6,0.2c-2.4,2.3-5.2,4.5-8.4,6.5
			c-0.4,0.3-0.8,0.3-1.3,0.2c-0.5-0.1-0.8-0.4-1-0.8c-0.3-0.4-0.3-0.9-0.2-1.3c0.1-0.5,0.4-0.8,0.8-1.1c4.3-2.8,7.6-5.7,10.1-8.8
			c0.3-0.4,0.7-0.7,1.3-0.8c0.5-0.1,1-0.1,1.5,0.2c0.4,0.2,0.7,0.5,0.8,0.9c0.1,0.4,0.1,0.8-0.2,1.2c-0.1,0.2-0.1,0.3,0.2,0.3h11.9
			c0.5,0,0.9,0.2,1.2,0.5c0.3,0.3,0.5,0.7,0.5,1.2c0,1.3-0.3,2.4-0.8,3.3c-2.1,3.8-5.5,7.1-10.2,10.1c0,0,0,0.1,0,0.1
			c0,0,0,0.1,0.1,0.1h12.3c0.6,0,1.1,0.2,1.5,0.6c0.4,0.4,0.6,0.9,0.6,1.5v12c0,0.6-0.2,1-0.6,1.4c-0.4,0.4-0.9,0.6-1.4,0.6h-0.4
			c-0.5,0-0.8-0.2-1.2-0.5c-0.3-0.3-0.5-0.7-0.5-1.2c0-0.2-0.1-0.3-0.2-0.3h-14.6c-0.2,0-0.3,0.1-0.3,0.3c0,0.5-0.2,0.8-0.5,1.2
			c-0.3,0.3-0.7,0.5-1.2,0.5h-0.4c-0.6,0-1-0.2-1.4-0.6s-0.6-0.8-0.6-1.4v-9.8c0-0.1,0-0.1-0.1-0.2c-0.1-0.1-0.2-0.1-0.2,0
			C97,121.4,94.6,122.1,92,122.8z M118.7,119.9c0-0.2-0.1-0.3-0.3-0.3H104c-0.2,0-0.3,0.1-0.3,0.3v7.1c0,0.2,0.1,0.3,0.3,0.3h14.4
			c0.2,0,0.3-0.1,0.3-0.3V119.9z"/>
		<path class="st7" d="M161.2,108.1c0,0.5-0.2,0.9-0.5,1.3c-0.4,0.4-0.8,0.5-1.3,0.5h-11.9c-0.2,0-0.3,0.1-0.3,0.3
			c0.5,3.9,1.8,7.4,4,10.4c2.2,3,5.2,5.6,8.9,7.6c0.4,0.3,0.7,0.6,0.8,1.1c0.1,0.5,0.1,0.9-0.2,1.3c-0.3,0.5-0.7,0.8-1.3,0.9
			s-1,0.1-1.5-0.2c-2.9-1.6-5.4-3.6-7.7-6.1c-2.2-2.5-4-5.3-5.2-8.4c0-0.1-0.1-0.1-0.1-0.1s-0.1,0-0.1,0.1c-1.3,3.1-3,5.9-5.3,8.4
			c-2.3,2.5-4.9,4.6-7.8,6.1c-0.5,0.3-1,0.3-1.5,0.2s-0.9-0.4-1.3-0.9c-0.3-0.4-0.4-0.9-0.2-1.3s0.4-0.8,0.8-1.1
			c3.7-2,6.7-4.6,8.9-7.6c2.2-3,3.6-6.5,4-10.4c0.1-0.2,0-0.3-0.3-0.3h-11.9c-0.5,0-0.9-0.2-1.3-0.5c-0.4-0.4-0.5-0.8-0.5-1.3
			c0-0.5,0.2-0.9,0.5-1.3c0.4-0.4,0.8-0.5,1.3-0.5h12.1c0.2,0,0.3-0.1,0.3-0.3v-5.2c0-0.6,0.2-1.1,0.6-1.5c0.4-0.4,0.9-0.6,1.5-0.6
			c0.6,0,1,0.2,1.5,0.6c0.4,0.4,0.6,0.9,0.6,1.5v5.2c0,0.2,0.1,0.3,0.3,0.3h12.1c0.5,0,0.9,0.2,1.3,0.5
			C161,107.1,161.2,107.6,161.2,108.1z"/>
		<path class="st7" d="M174.3,129.6c-1.9,0-3.7-1.1-5.4-3.4c-1.6-2.3-2.4-5.1-2.4-8.3c0-4.8,1.6-8.8,4.9-11.8
			c3.3-3,7.6-4.5,12.9-4.5c4.3,0,7.8,1.3,10.6,4c2.8,2.7,4.2,6.1,4.2,10.2c0,3.9-0.9,7.2-2.8,9.7c-1.8,2.5-4.3,4.1-7.5,4.8
			c-0.5,0.1-1,0-1.4-0.3c-0.4-0.3-0.7-0.7-0.8-1.3c-0.1-0.5,0-0.9,0.3-1.3c0.3-0.4,0.7-0.7,1.1-0.8c2.4-0.6,4.2-1.9,5.4-3.7
			c1.3-1.8,1.9-4.2,1.9-7.1c0-2.9-0.9-5.3-2.7-7.2c-1.8-1.9-4.1-3.1-7-3.3c-0.2-0.1-0.3,0.1-0.4,0.3c-0.6,4.8-1.3,8.8-2.1,12.1
			c-0.8,3.3-1.7,5.8-2.7,7.4c-1,1.7-2,2.9-3,3.5C176.6,129.2,175.5,129.6,174.3,129.6z M181.1,105.4c-3.3,0.6-5.9,2-7.9,4.2
			c-1.9,2.2-2.9,5-2.9,8.2c0,2.2,0.4,4,1.3,5.6c0.9,1.6,1.8,2.4,2.6,2.4c0.4,0,0.8-0.2,1.3-0.5c0.4-0.3,0.9-1,1.4-1.9
			c0.5-0.9,1-2.1,1.5-3.6s1-3.4,1.5-5.8c0.5-2.4,0.9-5.2,1.3-8.3c0-0.1,0-0.1-0.1-0.2C181.2,105.4,181.1,105.3,181.1,105.4z"/>
	</g>
</g>
<circle class="st3" cx="551.6" cy="86.8" r="27.5"/>
<circle class="st1" cx="410.7" cy="96.3" r="18.1"/>
<rect x="0.2" y="-0.2" class="st1" width="874.6" height="34.6"/>
<rect x="5.8" y="9.7" class="st0" width="23.7" height="17.3"/>
<rect x="34.8" y="9.7" class="st0" width="23.7" height="17.3"/>
<rect x="63.8" y="9.7" class="st0" width="23.7" height="17.3"/>
<rect x="92.8" y="9.7" class="st0" width="23.7" height="17.3"/>
<rect x="121.8" y="9.7" class="st0" width="23.7" height="17.3"/>
<rect x="150.8" y="9.7" class="st0" width="23.7" height="17.3"/>
<rect x="179.8" y="9.7" class="st0" width="23.7" height="17.3"/>
<rect x="208.8" y="9.7" class="st0" width="23.7" height="17.3"/>
<rect x="237.8" y="9.7" class="st0" width="23.7" height="17.3"/>
<rect x="266.8" y="9.7" class="st0" width="23.7" height="17.3"/>
<rect x="295.8" y="9.7" class="st0" width="23.7" height="17.3"/>
<rect x="324.8" y="9.7" class="st0" width="23.7" height="17.3"/>
<rect x="353.8" y="9.7" class="st0" width="23.7" height="17.3"/>
<rect x="382.8" y="9.7" class="st0" width="23.7" height="17.3"/>
<rect x="411.8" y="9.7" class="st0" width="23.7" height="17.3"/>
<rect x="440.8" y="9.7" class="st0" width="23.7" height="17.3"/>
<rect x="469.8" y="9.7" class="st0" width="23.7" height="17.3"/>
<rect x="498.8" y="9.7" class="st0" width="23.7" height="17.3"/>
<rect x="527.8" y="9.7" class="st0" width="23.7" height="17.3"/>
<rect x="556.8" y="9.7" class="st0" width="23.7" height="17.3"/>
<rect x="585.8" y="9.7" class="st0" width="23.7" height="17.3"/>
<rect x="614.8" y="9.7" class="st0" width="23.7" height="17.3"/>
<rect x="643.8" y="9.7" class="st0" width="23.7" height="17.3"/>
<rect x="672.8" y="9.7" class="st0" width="23.7" height="17.3"/>
<rect x="701.8" y="9.7" class="st0" width="23.7" height="17.3"/>
<rect x="730.8" y="9.7" class="st0" width="23.7" height="17.3"/>
<rect x="759.8" y="9.7" class="st0" width="23.7" height="17.3"/>
<rect x="788.8" y="9.7" class="st0" width="23.7" height="17.3"/>
<rect x="817.8" y="9.7" class="st0" width="23.7" height="17.3"/>
<rect x="846.8" y="9.7" class="st0" width="23.7" height="17.3"/>
<circle class="st1" cx="260.7" cy="288.2" r="14.1"/>
<g>
	<defs>
		<rect id="SVGID_3_" x="0.7" y="46" width="37.3" height="37.3"/>
	</defs>
	<clipPath id="SVGID_4_">
		<use xlink:href="#SVGID_3_"  style="overflow:visible;"/>
	</clipPath>
	<circle class="st8" cx="11.8" cy="66.6" r="14.1"/>
</g>
<g>
	<defs>
		<rect id="SVGID_5_" y="296.1" width="58.7" height="71.5"/>
	</defs>
	<clipPath id="SVGID_6_">
		<use xlink:href="#SVGID_5_"  style="overflow:visible;"/>
	</clipPath>
	<circle class="st9" cx="17.7" cy="331.4" r="29.2"/>
</g>
<g>
	<defs>
		<rect id="SVGID_7_" x="809.3" y="59.3" width="65.7" height="92.1"/>
	</defs>
	<clipPath id="SVGID_8_">
		<use xlink:href="#SVGID_7_"  style="overflow:visible;"/>
	</clipPath>
	<circle class="st10" cx="853.3" cy="116" r="29.2"/>
</g>
<g>
	<defs>
		<rect id="SVGID_9_" x="846.8" y="274" width="28.2" height="53"/>
	</defs>
	<clipPath id="SVGID_10_">
		<use xlink:href="#SVGID_9_"  style="overflow:visible;"/>
	</clipPath>
	<circle class="st11" cx="870.4" cy="302.3" r="17.7"/>
</g>
<rect x="0.2" y="340.4" class="st1" width="874.6" height="34.6"/>
<rect x="5.8" y="350.3" class="st0" width="23.7" height="17.3"/>
<rect x="34.8" y="350.3" class="st0" width="23.7" height="17.3"/>
<rect x="63.8" y="350.3" class="st0" width="23.7" height="17.3"/>
<rect x="92.8" y="350.3" class="st0" width="23.7" height="17.3"/>
<rect x="121.8" y="350.3" class="st0" width="23.7" height="17.3"/>
<rect x="150.8" y="350.3" class="st0" width="23.7" height="17.3"/>
<rect x="179.8" y="350.3" class="st0" width="23.7" height="17.3"/>
<rect x="208.8" y="350.3" class="st0" width="23.7" height="17.3"/>
<rect x="237.8" y="350.3" class="st0" width="23.7" height="17.3"/>
<rect x="266.8" y="350.3" class="st0" width="23.7" height="17.3"/>
<rect x="295.8" y="350.3" class="st0" width="23.7" height="17.3"/>
<rect x="324.8" y="350.3" class="st0" width="23.7" height="17.3"/>
<rect x="353.8" y="350.3" class="st0" width="23.7" height="17.3"/>
<rect x="382.8" y="350.3" class="st0" width="23.7" height="17.3"/>
<rect x="411.8" y="350.3" class="st0" width="23.7" height="17.3"/>
<rect x="440.8" y="350.3" class="st0" width="23.7" height="17.3"/>
<rect x="469.8" y="350.3" class="st0" width="23.7" height="17.3"/>
<rect x="498.8" y="350.3" class="st0" width="23.7" height="17.3"/>
<rect x="527.8" y="350.3" class="st0" width="23.7" height="17.3"/>
<rect x="556.8" y="350.3" class="st0" width="23.7" height="17.3"/>
<rect x="585.8" y="350.3" class="st0" width="23.7" height="17.3"/>
<rect x="614.8" y="350.3" class="st0" width="23.7" height="17.3"/>
<rect x="643.8" y="350.3" class="st0" width="23.7" height="17.3"/>
<rect x="672.8" y="350.3" class="st0" width="23.7" height="17.3"/>
<rect x="701.8" y="350.3" class="st0" width="23.7" height="17.3"/>
<rect x="730.8" y="350.3" class="st0" width="23.7" height="17.3"/>
<rect x="759.8" y="350.3" class="st0" width="23.7" height="17.3"/>
<rect x="788.8" y="350.3" class="st0" width="23.7" height="17.3"/>
<rect x="817.8" y="350.3" class="st0" width="23.7" height="17.3"/>
<rect x="846.8" y="350.3" class="st0" width="23.7" height="17.3"/>
<g>
</g>
<g>
</g>
<g>
</g>
<g>
</g>
<g>
</g>
<g>
</g>
<g>
</g>
<g>
</g>
<g>
</g>
<g>
</g>
<g>
</g>
<g>
</g>
<g>
</g>
<g>
</g>
<g>
</g>
</svg>
