<?xml version="1.0" encoding="utf-8"?>
<!-- Generator: Adobe Illustrator 20.0.0, SVG Export Plug-In . SVG Version: 6.00 Build 0)  -->
<svg version="1.1" id="レイヤー_1" xmlns="http://www.w3.org/2000/svg" xmlns:xlink="http://www.w3.org/1999/xlink" x="0px"
	 y="0px" viewBox="0 0 640 130.3" style="enable-background:new 0 0 640 130.3;" xml:space="preserve">
<style type="text/css">
	.st0{fill:#FF9F23;}
	.st1{fill:#FFEA8B;}
	.st2{clip-path:url(#SVGID_2_);fill:#FF9F23;}
	.st3{fill:#FFDB63;}
	.st4{fill:#FFEA8B;stroke:#FF9F23;stroke-miterlimit:10;}
	.st5{fill:#FFDB63;stroke:#FF9F23;stroke-miterlimit:10;}
	.st6{fill:#FFFFFF;}
	.st7{clip-path:url(#SVGID_4_);fill:#FFDB63;}
	.st8{clip-path:url(#SVGID_6_);fill:#FFDB63;}
	.st9{clip-path:url(#SVGID_8_);fill:#FFDB63;}
	.st10{clip-path:url(#SVGID_10_);fill:#FFEA8B;}
</style>
<rect x="0.3" y="0.4" class="st0" width="639.6" height="128.1"/>
<g>
	<g>
		
			<ellipse transform="matrix(0.9881 -0.1535 0.1535 0.9881 -0.9209 86.9048)" class="st1" cx="562.2" cy="49.4" rx="16.2" ry="16.2"/>
		
			<rect x="541.4" y="15.6" transform="matrix(0.8102 -0.5862 0.5862 0.8102 86.8988 325.869)" class="st1" width="10.5" height="26.3"/>
	</g>
	<g>
		<defs>
			<path id="SVGID_1_" d="M532.6,65.5l43,29.1l21.8-58.2c0,0,6.9-6.5-12.1,3.7s-17.9,5.5-28.9,6.9C545.4,48.4,532.6,65.5,532.6,65.5
				z"/>
		</defs>
		<clipPath id="SVGID_2_">
			<use xlink:href="#SVGID_1_"  style="overflow:visible;"/>
		</clipPath>
		
			<ellipse transform="matrix(0.9881 -0.1535 0.1535 0.9881 -0.9989 86.9231)" class="st2" cx="562.3" cy="49.9" rx="14.1" ry="14.1"/>
	</g>
</g>
<g>
	
		<rect x="34.9" y="82.9" transform="matrix(0.9554 0.2954 -0.2954 0.9554 29.1378 -9.8632)" class="st3" width="24.7" height="17.2"/>
	<rect x="36.9" y="84.5" transform="matrix(0.9554 0.2954 -0.2954 0.9554 29.1202 -9.8266)" class="st0" width="20.3" height="14"/>
	<polygon class="st3" points="32.9,96.1 25.5,103.1 57,112.8 56.5,103.4 	"/>
	<polygon class="st4" points="33.5,97.4 29.7,100.9 54.8,108.7 54.8,104 	"/>
</g>
<g>
	
		<rect x="592.8" y="62.1" transform="matrix(0.861 0.5087 -0.5087 0.861 126.3516 -297.4398)" class="st5" width="29" height="40.5"/>
	<polygon class="st4" points="603.5,59.8 597.4,60.4 575.7,94 599.2,107 609.4,105.5 628.7,74.1 	"/>
	
		<rect x="583.3" y="63.7" transform="matrix(0.861 0.5087 -0.5087 0.861 125.695 -291.8987)" class="st5" width="27" height="40.5"/>
	<polygon class="st5" points="618.7,73.4 630,72.3 609.4,107.2 598.1,108.3 	"/>
</g>
<circle class="st3" cx="490.8" cy="112.8" r="15.3"/>
<circle class="st1" cx="75.9" cy="110.9" r="13"/>
<circle class="st1" cx="543.1" cy="103.8" r="10.3"/>
<circle class="st3" cx="202.4" cy="15.9" r="13.9"/>
<circle class="st3" cx="224.1" cy="116.3" r="13.1"/>
<circle class="st1" cx="351.9" cy="110.9" r="10.3"/>
<g>
	<path class="st6" d="M135.4,38.2c-0.9,5.8-2.2,11.4-4,16.9c-0.1,0.5,0.1,0.7,0.5,0.7h11.9c1.3,0,2.4,0.5,3.4,1.4
		c1,1,1.4,2.1,1.4,3.4V90c0,1.3-0.5,2.4-1.4,3.4c-1,1-2.1,1.4-3.4,1.4h-11.4c-0.5,0-0.8,0.3-0.8,0.8v1.9c0,1.1-0.4,2.1-1.2,2.9
		c-0.8,0.8-1.8,1.2-2.9,1.2c-1.1,0-2.1-0.4-2.9-1.2c-0.8-0.8-1.2-1.8-1.2-2.9v-26c0-0.1,0-0.2-0.1-0.2c-0.1,0-0.2,0-0.2,0
		c-1,1.7-1.8,3-2.5,4c-0.6,0.8-1.3,1.1-2.2,0.9c-0.9-0.2-1.5-0.8-1.8-1.7l-0.3-1c-0.7-2.9-0.2-5.8,1.5-8.7
		c4.6-7.4,7.7-16.3,9.4-26.6c0.1-0.5-0.1-0.8-0.6-0.8h-4.8c-1.1,0-2-0.4-2.7-1.1c-0.7-0.7-1.1-1.6-1.1-2.7c0-1.1,0.4-2,1.1-2.7
		c0.7-0.7,1.6-1.1,2.7-1.1h23c1.1,0,2,0.4,2.7,1.1c0.7,0.7,1.1,1.6,1.1,2.7c0,1.1-0.4,2-1.1,2.7c-0.7,0.7-1.6,1.1-2.7,1.1h-8.6
		C135.8,37.4,135.5,37.7,135.4,38.2z M131.6,64.2v22.6c0,0.5,0.3,0.8,0.8,0.8h7.7c0.5,0,0.8-0.3,0.8-0.8V64.2c0-0.5-0.3-0.8-0.8-0.8
		h-7.7C131.9,63.4,131.6,63.6,131.6,64.2z M192.5,58.3c1.1,0,2,0.4,2.7,1.1c0.7,0.7,1.1,1.6,1.1,2.7c0,1.1-0.4,2-1.1,2.7
		c-0.7,0.7-1.6,1.1-2.7,1.1h-4.3c-0.5,0-0.8,0.3-0.8,0.8V98c0,1.2-0.4,2.3-1.3,3.2c-0.9,0.9-1.9,1.3-3.2,1.3c-1.2,0-2.3-0.4-3.1-1.3
		c-0.9-0.9-1.3-1.9-1.3-3.2V66.7c0-0.5-0.3-0.8-0.8-0.8h-9.1c-0.5,0-0.8,0.3-0.8,0.8c-0.6,8.4-1.6,15.1-3,20.1
		c-1.4,5-3.5,9.3-6.2,12.9c-0.7,1-1.7,1.5-3,1.5c-1.3,0-2.3-0.5-3.2-1.4c-0.9-0.9-1.4-2-1.4-3.4c0-1.3,0.4-2.5,1.1-3.6
		c2-2.8,3.5-6.2,4.6-10.1c1.1-3.9,1.9-9.3,2.3-16.1c0-0.5-0.2-0.8-0.7-0.8h-3.8c-1.1,0-2-0.4-2.7-1.1c-0.7-0.7-1.1-1.6-1.1-2.7
		c0-1.1,0.4-2,1.1-2.7c0.7-0.7,1.6-1.1,2.7-1.1h4.2c0.5,0,0.8-0.3,0.8-0.8c0.1-5,0.2-9.2,0.2-12.6v-6.7c0-0.5-0.3-0.8-0.8-0.8h-3.3
		c-1.1,0-2-0.4-2.7-1.1c-0.7-0.7-1.1-1.6-1.1-2.7c0-1.1,0.4-2,1.1-2.7c0.7-0.7,1.6-1.1,2.7-1.1h36c1.1,0,2,0.4,2.7,1.1
		c0.7,0.7,1.1,1.6,1.1,2.7c0,1.1-0.4,2-1.1,2.7c-0.7,0.7-1.6,1.1-2.7,1.1h-3.5c-0.5,0-0.8,0.3-0.8,0.8v19.3c0,0.5,0.3,0.8,0.8,0.8
		H192.5z M178.4,57.5V38.2c0-0.5-0.3-0.8-0.8-0.8h-8.5c-0.5,0-0.8,0.3-0.8,0.8v6.7c0,3.3-0.1,7.5-0.2,12.6c0,0.5,0.3,0.8,0.8,0.8
		h8.7C178.2,58.3,178.4,58,178.4,57.5z"/>
	<path class="st6" d="M209.9,102.5c-1.1,0.4-2.3,0.4-3.4,0c-1.1-0.4-2-1.1-2.6-2.2c-0.6-0.9-0.7-1.9-0.3-2.9s1-1.7,2-2
		c6.4-2.2,11.3-4.7,14.8-7.5c3.5-2.8,5.9-6.3,7.3-10.6c0.1-0.5-0.1-0.7-0.5-0.7h-15.7c-1.1,0-2-0.4-2.8-1.1
		c-0.8-0.7-1.1-1.6-1.1-2.7c0-1.1,0.4-2,1.1-2.7c0.8-0.7,1.7-1.1,2.8-1.1h17.2c0.5,0,0.8-0.2,0.8-0.7c0.1-0.9,0.2-1.6,0.2-2
		c0.1-1.3,0.6-2.4,1.5-3.2c0.9-0.9,1.9-1.3,3.2-1.3c1.3,0,2.4,0.5,3.2,1.4c0.9,0.9,1.2,2,1.2,3.2c0,0.9,0,1.5-0.1,2
		c0,0.5,0.2,0.7,0.7,0.7h17.3c1.3,0,2.4,0.5,3.4,1.4c1,1,1.4,2.1,1.4,3.4v18.3c0,1.1,0.2,1.8,0.7,2c0.5,0.2,2.1,0.3,4.8,0.3
		c1.5,0,2.6,0,3.2-0.1c0.6-0.1,1.2-0.5,1.7-1.2c0.6-0.7,1-1.7,1.1-3c0.2-1.2,0.4-3.2,0.6-6c0.1-1.1,0.6-2.1,1.4-2.8
		c0.9-0.7,1.8-1,3-0.9c1.1,0.1,2.1,0.6,2.9,1.6s1.1,2,1.1,3.1c-0.2,2.8-0.5,5.1-0.7,6.9c-0.3,1.8-0.7,3.3-1.3,4.7
		c-0.6,1.4-1.2,2.4-1.8,3s-1.6,1.2-3,1.6c-1.4,0.4-2.8,0.6-4.1,0.7c-1.4,0.1-3.3,0.1-5.9,0.1c-5.7,0-9.3-0.5-10.7-1.5
		c-1.5-1-2.2-3.3-2.2-7V77.3c0-0.5-0.3-0.8-0.8-0.8h-13.6c-0.5,0-0.8,0.3-0.9,0.8c-1.7,6-4.7,10.9-9,14.9
		C223.7,96.2,217.6,99.6,209.9,102.5z M255.4,63.9c-4.4-0.2-7.2-0.6-8.3-1.3c-1.1-0.7-1.7-2.3-1.7-4.9V42.2c0-0.5-0.3-0.7-0.8-0.7
		h-5.8c-0.5,0-0.8,0.2-0.8,0.7c-0.8,11-9.9,18.5-27.2,22.6c-1,0.2-2,0.1-2.9-0.5c-0.9-0.5-1.5-1.3-1.8-2.3c-0.3-1-0.1-1.9,0.4-2.8
		c0.6-0.9,1.3-1.4,2.3-1.7c13.3-2.9,20.1-8,20.4-15.4c0-0.4-0.3-0.6-0.8-0.6H215c-0.5,0-0.7,0.2-0.7,0.7v4.9c0,1.2-0.4,2.2-1.3,3.1
		c-0.9,0.9-1.9,1.3-3.1,1.3c-1.2,0-2.2-0.4-3.1-1.3c-0.9-0.9-1.3-1.9-1.3-3.1v-8.3c0-1.3,0.5-2.4,1.4-3.4c1-1,2.1-1.4,3.4-1.4h26
		c0.5,0,0.7-0.2,0.7-0.7v-3.6c0-1.2,0.5-2.3,1.4-3.3c0.9-0.9,2-1.4,3.3-1.4c1.3,0,2.4,0.5,3.3,1.4c0.9,0.9,1.4,2,1.4,3.3v3.6
		c0,0.5,0.3,0.7,0.8,0.7h26c1.3,0,2.4,0.5,3.4,1.4c0.9,1,1.4,2.1,1.4,3.4v5.7c0,1.2-0.4,2.2-1.3,3.1c-0.9,0.9-1.9,1.3-3.1,1.3
		c-1.2,0-2.2-0.4-3.1-1.3c-0.9-0.9-1.3-1.9-1.3-3.1v-2.4c0-0.5-0.3-0.7-0.8-0.7H255c-0.5,0-0.7,0.2-0.7,0.7V54
		c0,1.4,0.1,2.2,0.4,2.4c0.3,0.3,1.2,0.4,2.8,0.5c0.7,0.1,1.8,0.1,3.4,0.1c1.6,0,2.7,0,3.4-0.1c2.4-0.2,3.9-0.5,4.3-0.9
		c0.2-0.1,0.3-0.3,0.4-0.5c1.4-2.8,3-4.1,5-3.8c1.2,0.1,2.3,0.6,3,1.6c0.8,0.9,1.1,2,0.9,3.2c-0.5,3.2-1.5,5.2-3,6
		c-1.6,0.8-5,1.2-10.3,1.4c-0.5,0-1.2,0-2.2,0.1c-1,0.1-1.8,0.1-2.4,0.1C258.8,64.1,257.3,64,255.4,63.9z"/>
	<path class="st6" d="M321.1,93.8c0.5,0,0.8-0.2,0.8-0.7v-7.5c0-0.5-0.3-0.8-0.8-0.8h-22.8c-1,0-1.8-0.4-2.6-1.1
		c-0.7-0.7-1.1-1.5-1.1-2.5c0-1,0.4-1.8,1.1-2.6c0.7-0.7,1.6-1.1,2.6-1.1h22.8c0.5,0,0.8-0.2,0.8-0.7v-5c0-0.9,0.2-1.7,0.6-2.3
		c0.1-0.1,0.1-0.2,0.1-0.4c-0.1-0.1-0.1-0.2-0.3-0.2c-8.8,0.6-17.3,1-25.6,1.3c-1,0.1-1.9-0.3-2.7-0.9c-0.8-0.7-1.2-1.5-1.3-2.6
		c-0.1-1,0.3-1.8,1-2.6c0.7-0.7,1.5-1.1,2.5-1.2c0.9,0,2.3,0,4.1-0.1c1.8-0.1,3.2-0.2,4.2-0.2c0.5,0,0.8-0.2,1.1-0.6
		c1.5-2.6,3.2-5.6,5-9.3c0.1-0.2,0-0.3,0-0.5c-0.1-0.2-0.2-0.3-0.4-0.3h-12.3c-0.8,0-1.5-0.3-2-0.8c-0.5-0.5-0.8-1.2-0.8-1.9
		c0-0.3-0.1-0.4-0.4-0.4h-0.7c-1.3,0-2.4-0.5-3.4-1.4c-1-1-1.4-2.1-1.4-3.4v-6.9c0-1.3,0.5-2.4,1.4-3.4c1-1,2.1-1.4,3.4-1.4h27.2
		c0.5,0,0.8-0.2,0.8-0.7v-1.9c0-1.2,0.5-2.3,1.4-3.3c0.9-0.9,2-1.4,3.3-1.4c1.2,0,2.3,0.5,3.3,1.4c0.9,0.9,1.4,2,1.4,3.3v1.9
		c0,0.5,0.3,0.7,0.8,0.7h27.2c1.3,0,2.4,0.5,3.4,1.4c1,1,1.4,2.1,1.4,3.4v6.9c0,1.3-0.5,2.4-1.4,3.4c-1,1-2.1,1.4-3.4,1.4h-0.7
		c-0.3,0-0.4,0.1-0.4,0.4c0,0.7-0.3,1.4-0.8,1.9c-0.5,0.5-1.2,0.8-2,0.8h-6.3c-0.1,0-0.2,0.1-0.3,0.3c-0.1,0.2-0.1,0.3,0,0.3
		c4.1,4.7,7.7,9,10.8,12.9c0.7,0.9,0.9,1.9,0.7,3c-0.2,1.1-0.8,1.9-1.8,2.4c-1.1,0.6-2.2,0.7-3.5,0.4c-1.2-0.3-2.2-0.9-3-1.9
		c-0.2-0.2-0.5-0.6-0.9-1.2c-0.4-0.6-0.7-1-0.9-1.2c-0.3-0.4-0.7-0.6-1.1-0.5c-1.6,0.2-7.9,0.7-18.6,1.6c-0.1,0-0.2,0.1-0.3,0.2
		c-0.1,0.1,0,0.3,0.1,0.4c0.7,0.8,1,1.8,1,3v5c0,0.5,0.3,0.7,0.8,0.7h22c1,0,1.8,0.4,2.6,1.1c0.7,0.7,1.1,1.6,1.1,2.6
		c0,1-0.4,1.8-1.1,2.5c-0.7,0.7-1.6,1.1-2.6,1.1h-22c-0.5,0-0.8,0.3-0.8,0.8v7.5c0,0.5,0.3,0.7,0.8,0.7h28.7c1,0,1.9,0.4,2.6,1.1
		c0.7,0.7,1.1,1.6,1.1,2.6s-0.4,1.9-1.1,2.6c-0.7,0.7-1.6,1.1-2.6,1.1h-68.3c-1,0-1.9-0.4-2.6-1.1c-0.7-0.7-1.1-1.6-1.1-2.6
		s0.4-1.9,1.1-2.6c0.7-0.7,1.6-1.1,2.6-1.1H321.1z M298.8,45.1h55.5c0.5,0,0.8-0.3,0.8-0.8v-4c0-0.5-0.3-0.8-0.8-0.8h-55.5
		c-0.5,0-0.8,0.3-0.8,0.8v4C298,44.8,298.3,45.1,298.8,45.1z M315.5,61.6c-0.3,0.4-0.2,0.6,0.3,0.6c7.7-0.5,17-1.2,27.8-2.1
		c0.1,0,0.2-0.1,0.3-0.2c0.1-0.1,0.1-0.3,0-0.4c-0.7-0.9-1.8-2.1-3.2-3.7c-1.4-1.6-2.3-2.6-2.7-3.1c-0.4-0.4-0.8-0.6-1.2-0.6h-15.7
		c-0.5,0-0.9,0.2-1,0.7C318.8,55.5,317.3,58.4,315.5,61.6z"/>
	<path class="st6" d="M378.1,98.5c-0.8,0.6-1.7,0.8-2.7,0.6c-1-0.2-1.7-0.7-2.3-1.5c-0.6-0.8-0.8-1.7-0.6-2.7
		c1-5.5,1.8-11.1,2.3-16.8c0.1-1,0.5-1.7,1.2-2.3c0.7-0.6,1.5-0.9,2.5-0.8c1,0.1,1.8,0.5,2.5,1.3c0.7,0.8,1,1.7,0.9,2.7
		c-0.5,5.9-1.3,11.6-2.3,17.2C379.4,97.1,378.9,97.9,378.1,98.5z M379.8,62.6c0.2-0.3,0.5-0.7,0.9-1.3c0.3-0.6,0.6-1,0.9-1.3
		c0.3-0.4,0.3-0.8,0-1.2c-2.8-4.5-5.3-8.5-7.5-11.8c-1.5-2.4-1.5-4.8,0-7.3c0.6-0.9,1.3-1.3,2.3-1.3c1,0,1.7,0.4,2.3,1.2
		c0.1,0.1,0.1,0.2,0.2,0.3s0.2,0.3,0.2,0.3c0.1,0.1,0.2,0.2,0.3,0.2c0.2,0,0.3-0.1,0.4-0.2c1.5-3.1,3.1-6.5,4.6-10.1
		c0.5-1,1.2-1.7,2.2-2.1c1-0.4,2-0.4,2.9,0c1,0.5,1.6,1.2,2,2.2c0.4,1,0.4,2,0,2.9c-2.2,4.9-4.6,9.8-7.1,14.6
		c-0.2,0.5-0.2,0.9,0,1.2c0.2,0.3,0.4,0.7,0.8,1.3c0.4,0.6,0.6,1,0.8,1.3c0.3,0.4,0.5,0.4,0.8,0.1c2-3.4,4.4-7.6,7-12.6
		c0.5-1,1.2-1.6,2.2-1.9c1-0.3,2-0.2,2.9,0.3c1,0.5,1.6,1.3,1.9,2.3c0.3,1,0.2,2-0.3,2.9c-1.4,2.6-3,5.5-4.8,8.6
		c-0.1,0.1,0,0.1,0.1,0.3c0.1,0.1,0.2,0.1,0.3,0.1c1.3-0.3,2.5-0.2,3.7,0.5c1.2,0.7,1.9,1.6,2.3,2.9c1.2,4.8,2.3,9.1,3.1,12.9
		c0.2,0.9,0.1,1.8-0.4,2.6c-0.5,0.8-1.2,1.3-2.2,1.6L402,72c-0.8,0.2-1.5,0-2.2-0.4c-0.7-0.4-1.1-1-1.2-1.8
		c-0.1-0.3-0.3-0.4-0.6-0.4l-4.6,0.3c-0.5,0-0.8,0.3-0.8,0.8v29c0,1.2-0.4,2.2-1.3,3.1c-0.9,0.9-1.9,1.3-3.1,1.3
		c-1.2,0-2.2-0.4-3.1-1.3c-0.9-0.9-1.3-1.9-1.3-3.1V71c0-0.5-0.3-0.7-0.8-0.7l-6.5,0.4c-1,0.1-1.9-0.3-2.6-0.9
		c-0.7-0.7-1.1-1.5-1.2-2.6c-0.1-1,0.3-1.9,1-2.7c0.7-0.8,1.6-1.2,2.6-1.2l2.3-0.2C379.2,63.2,379.5,63,379.8,62.6z M389,62.1
		c-0.1,0.1,0,0.2,0,0.3c0.1,0.1,0.2,0.2,0.4,0.2l6.6-0.4c0.5,0,0.7-0.3,0.6-0.8c-0.6-2.3-1.2-4.7-2-7.2c-0.2-0.5-0.4-0.6-0.6-0.3
		C393,55.8,391.3,58.5,389,62.1z M399.8,96.1c-0.9,0.1-1.7-0.2-2.5-0.8c-0.7-0.6-1.2-1.4-1.3-2.3c-0.4-5.6-0.9-10.5-1.4-14.6
		c-0.1-0.9,0.1-1.8,0.7-2.6c0.6-0.8,1.3-1.2,2.3-1.4s1.8,0.1,2.6,0.7c0.8,0.6,1.2,1.3,1.3,2.2c0.4,2.9,0.9,7.8,1.5,14.8
		c0.1,1-0.2,1.8-0.8,2.6C401.6,95.6,400.8,96,399.8,96.1z M445,29.8c1.3,0,2.4,0.5,3.4,1.4c0.9,1,1.4,2.1,1.4,3.4
		c-0.1,8.5-0.5,14.7-1.2,18.8c-0.7,4.1-1.8,6.7-3.1,8c-1.3,1.2-3.3,1.8-6.1,1.8c-1,0-4.1-0.1-9.4-0.3c-1.1-0.1-2-0.5-2.7-1.2
		c-0.7-0.7-1.1-1.6-1.2-2.7c-0.1-1,0.3-1.9,1.1-2.6c0.8-0.7,1.7-1.1,2.7-1c2.7,0.2,4.9,0.3,6.4,0.3c1.1,0,2-0.4,2.6-1.1
		c0.6-0.7,1.1-2.3,1.4-4.9c0.4-2.5,0.6-6.3,0.6-11.4c0-0.5-0.2-0.8-0.7-0.8h-9.4c-0.5,0-0.7,0.2-0.9,0.7c-1,5.8-3,11.1-6,15.7
		c-3,4.6-6.8,8.3-11.2,11c-1,0.6-2.1,0.7-3.2,0.4c-1.1-0.3-2-1-2.6-1.9c-0.6-0.9-0.7-1.9-0.5-2.9c0.3-1,0.8-1.9,1.7-2.5
		c6.8-4.5,11.1-11,12.9-19.7c0.1-0.5-0.1-0.7-0.5-0.7h-11.5c-1.1,0-2-0.4-2.8-1.1c-0.8-0.7-1.1-1.6-1.1-2.7c0-1.1,0.4-2,1.1-2.7
		c0.8-0.7,1.7-1.1,2.8-1.1H445z M412,103.4h-0.9c-1.2,0-2.2-0.4-3.1-1.3c-0.9-0.9-1.3-1.9-1.3-3.1v-26c0-1.3,0.5-2.4,1.4-3.4
		c1-1,2.1-1.4,3.4-1.4H443c1.3,0,2.4,0.5,3.4,1.4c1,1,1.4,2.1,1.4,3.4v25.8c0,1.2-0.4,2.3-1.3,3.2c-0.9,0.9-1.9,1.3-3.2,1.3h-0.9
		c-1,0-1.8-0.3-2.5-1c-0.7-0.7-1-1.5-1-2.5c0-0.3-0.2-0.5-0.5-0.5H416c-0.3,0-0.5,0.2-0.5,0.5c0,1-0.3,1.8-1,2.5
		C413.8,103.1,413,103.4,412,103.4z M415.5,76.5v14.9c0,0.5,0.3,0.8,0.8,0.8h22c0.5,0,0.7-0.3,0.7-0.8V76.5c0-0.5-0.2-0.8-0.7-0.8
		h-22C415.8,75.7,415.5,76,415.5,76.5z"/>
	<path class="st6" d="M464.2,56.8c-1,0.6-2.1,0.7-3.2,0.4c-1.1-0.3-1.9-1-2.5-2.1c-0.6-1.1-0.7-2.2-0.3-3.3c0.4-1.1,1.1-2,2.1-2.6
		c9.9-5.6,19-12,27.2-19.1c2.4-2.1,5.2-3.1,8.4-3.1h1.7c3.2,0,6,1.1,8.4,3.1c8.3,7.1,17.4,13.4,27.2,19.1c1,0.6,1.7,1.5,2.1,2.6
		c0.4,1.1,0.3,2.2-0.3,3.3c-0.6,1-1.4,1.7-2.5,2s-2.2,0.2-3.2-0.3c-11.6-6.5-22.3-14.3-32.1-23.4c-0.3-0.2-0.7-0.2-1.1,0.1
		C486.6,42.4,475.9,50.2,464.2,56.8z M476.8,56.1c0-1.3,0.4-2.4,1.3-3.3c0.9-0.9,2-1.3,3.3-1.3c1.2,0,2.3,0.4,3.2,1.3
		c0.9,0.9,1.3,2,1.3,3.3v3.3c0,11.9-1.2,20.8-3.6,26.8c-2.4,6-6.8,11-13.2,14.9c-1.1,0.7-2.2,0.9-3.5,0.6c-1.2-0.3-2.2-0.9-3-2
		c-0.7-1-0.9-2-0.6-3.2c0.3-1.2,0.9-2.1,1.9-2.7c4.9-3.1,8.2-7.1,10.1-12c1.8-4.9,2.8-12.3,2.8-22.4V56.1z M508.9,56.2
		c0-1.2,0.5-2.3,1.4-3.3c0.9-0.9,2.1-1.4,3.4-1.4c1.2,0,2.3,0.5,3.2,1.4c0.9,0.9,1.4,2,1.4,3.3v41.7c0,1.3-0.5,2.4-1.4,3.3
		c-0.9,0.9-2,1.4-3.2,1.4c-1.3,0-2.4-0.5-3.4-1.4c-0.9-0.9-1.4-2-1.4-3.3V56.2z"/>
</g>
<g>
	<g>
		<path class="st1" d="M106.8,46.9c0,13.3-20.3,24.1-45.4,24.1S16.1,60.2,16.1,46.9c0-7.4,6.3-14.1,16.2-18.5
			c7.9-3.5,18.1-5.7,29.2-5.7C86.5,22.7,106.8,33.5,106.8,46.9z"/>
		<path class="st1" d="M101.3,56.3c0,3.8,9.5,7.2,8.4,8.4c-1.2,1.2-11,1.9-16.5-3.6"/>
	</g>
	<g>
		<path class="st0" d="M34.9,50.6c-0.3,0.1-0.5,0-0.7-0.1c-0.2-0.1-0.4-0.3-0.5-0.5c-0.1-0.2-0.1-0.5,0.1-0.7
			c0.1-0.2,0.3-0.3,0.5-0.4c2.5-0.6,4.8-1.5,6.9-2.7c0.1-0.1,0.1-0.1,0-0.2c-0.3-0.4-0.9-1-1.7-1.9c-0.2-0.2-0.3-0.4-0.3-0.7
			c0-0.3,0.1-0.5,0.3-0.7c0.2-0.2,0.5-0.3,0.8-0.2c0.3,0,0.5,0.1,0.7,0.3c0.6,0.6,1.2,1.3,1.8,2.1c0.1,0.1,0.2,0.1,0.3,0.1
			c2-1.4,3.3-2.7,4-4.1c0,0,0-0.1,0-0.1c0,0-0.1-0.1-0.1-0.1h-6.5c-0.1,0-0.2,0-0.3,0.1c-1.3,1.2-2.8,2.4-4.5,3.5
			c-0.2,0.1-0.4,0.2-0.7,0.1c-0.2-0.1-0.4-0.2-0.5-0.4c-0.1-0.2-0.2-0.5-0.1-0.7c0.1-0.2,0.2-0.4,0.4-0.6c2.3-1.5,4.1-3.1,5.4-4.7
			c0.2-0.2,0.4-0.4,0.7-0.4c0.3-0.1,0.5,0,0.8,0.1c0.2,0.1,0.4,0.3,0.4,0.5c0.1,0.2,0,0.4-0.1,0.7c-0.1,0.1,0,0.1,0.1,0.1h6.4
			c0.3,0,0.5,0.1,0.7,0.3c0.2,0.2,0.3,0.4,0.3,0.7c0,0.7-0.1,1.3-0.4,1.8c-1.1,2-3,3.8-5.5,5.4c0,0,0,0,0,0.1c0,0,0,0,0.1,0h6.6
			c0.3,0,0.6,0.1,0.8,0.3c0.2,0.2,0.3,0.5,0.3,0.8v6.5c0,0.3-0.1,0.6-0.3,0.8c-0.2,0.2-0.5,0.3-0.8,0.3h-0.2c-0.2,0-0.5-0.1-0.6-0.3
			c-0.2-0.2-0.3-0.4-0.3-0.6c0-0.1,0-0.1-0.1-0.1h-7.8c-0.1,0-0.1,0-0.1,0.1c0,0.2-0.1,0.5-0.3,0.6c-0.2,0.2-0.4,0.3-0.6,0.3h-0.2
			c-0.3,0-0.5-0.1-0.8-0.3C39.1,55.2,39,55,39,54.7v-5.2c0,0,0-0.1-0.1-0.1c0,0-0.1,0-0.1,0C37.6,49.8,36.3,50.2,34.9,50.6z
			 M49.2,49c0-0.1-0.1-0.2-0.2-0.2h-7.7c-0.1,0-0.2,0.1-0.2,0.2v3.8c0,0.1,0.1,0.2,0.2,0.2h7.7c0.1,0,0.2-0.1,0.2-0.2V49z"/>
		<path class="st0" d="M72,42.6c0,0.3-0.1,0.5-0.3,0.7c-0.2,0.2-0.4,0.3-0.7,0.3h-6.4c-0.1,0-0.2,0.1-0.1,0.2c0.3,2.1,1,4,2.2,5.6
			c1.2,1.6,2.8,3,4.8,4.1c0.2,0.1,0.4,0.3,0.4,0.6c0.1,0.3,0,0.5-0.1,0.7c-0.2,0.2-0.4,0.4-0.7,0.5c-0.3,0.1-0.6,0-0.8-0.1
			c-1.5-0.8-2.9-1.9-4.1-3.3c-1.2-1.4-2.1-2.9-2.8-4.5c0,0,0,0-0.1,0s0,0-0.1,0c-0.7,1.7-1.6,3.2-2.9,4.5c-1.2,1.4-2.6,2.4-4.2,3.3
			c-0.3,0.1-0.5,0.2-0.8,0.1c-0.3-0.1-0.5-0.2-0.7-0.5c-0.1-0.2-0.2-0.5-0.1-0.7c0.1-0.3,0.2-0.4,0.4-0.6c2-1.1,3.6-2.5,4.8-4.1
			c1.2-1.6,1.9-3.5,2.2-5.6c0-0.1,0-0.2-0.1-0.2h-6.4c-0.3,0-0.5-0.1-0.7-0.3c-0.2-0.2-0.3-0.4-0.3-0.7c0-0.3,0.1-0.5,0.3-0.7
			c0.2-0.2,0.4-0.3,0.7-0.3H62c0.1,0,0.2-0.1,0.2-0.2v-2.8c0-0.3,0.1-0.6,0.3-0.8c0.2-0.2,0.5-0.3,0.8-0.3c0.3,0,0.6,0.1,0.8,0.3
			c0.2,0.2,0.3,0.5,0.3,0.8v2.8c0,0.1,0.1,0.2,0.2,0.2H71c0.3,0,0.5,0.1,0.7,0.3C71.9,42.1,72,42.4,72,42.6z"/>
		<path class="st0" d="M79,54.2c-1,0-2-0.6-2.9-1.8c-0.9-1.2-1.3-2.7-1.3-4.5c0-2.6,0.9-4.7,2.6-6.3c1.8-1.6,4.1-2.4,6.9-2.4
			c2.3,0,4.2,0.7,5.7,2.2c1.5,1.4,2.3,3.3,2.3,5.5c0,2.1-0.5,3.9-1.5,5.2c-1,1.4-2.3,2.2-4,2.6c-0.3,0.1-0.5,0-0.8-0.2
			c-0.2-0.2-0.4-0.4-0.4-0.7c-0.1-0.3,0-0.5,0.1-0.7c0.1-0.2,0.4-0.4,0.6-0.4c1.3-0.3,2.2-1,2.9-2c0.7-1,1-2.3,1-3.8
			c0-1.5-0.5-2.8-1.5-3.9c-1-1-2.2-1.6-3.7-1.8c-0.1,0-0.2,0-0.2,0.2c-0.3,2.6-0.7,4.7-1.1,6.5c-0.4,1.8-0.9,3.1-1.4,4
			c-0.5,0.9-1.1,1.5-1.6,1.9C80.3,54,79.7,54.2,79,54.2z M82.7,41.2c-1.8,0.3-3.2,1.1-4.2,2.3c-1,1.2-1.6,2.7-1.6,4.4
			c0,1.2,0.2,2.2,0.7,3c0.5,0.8,1,1.3,1.4,1.3c0.2,0,0.4-0.1,0.7-0.3c0.2-0.2,0.5-0.5,0.8-1c0.3-0.5,0.6-1.1,0.8-1.9
			c0.3-0.8,0.5-1.8,0.8-3.1c0.3-1.3,0.5-2.8,0.7-4.5c0,0,0-0.1,0-0.1C82.8,41.2,82.7,41.2,82.7,41.2z"/>
	</g>
</g>
<circle class="st3" cx="414" cy="13.5" r="11.4"/>
<circle class="st1" cx="305.2" cy="13.5" r="11.1"/>
<circle class="st1" cx="141.9" cy="119.4" r="10.3"/>
<g>
	<defs>
		<rect id="SVGID_3_" x="0.6" y="10.6" width="27.3" height="27.3"/>
	</defs>
	<clipPath id="SVGID_4_">
		<use xlink:href="#SVGID_3_"  style="overflow:visible;"/>
	</clipPath>
	<ellipse transform="matrix(0.7071 -0.7071 0.7071 0.7071 -15.6258 13.7104)" class="st7" cx="8.7" cy="25.7" rx="10.3" ry="10.3"/>
</g>
<g>
	<defs>
		<rect id="SVGID_5_" x="605.2" width="34.6" height="48.5"/>
	</defs>
	<clipPath id="SVGID_6_">
		<use xlink:href="#SVGID_5_"  style="overflow:visible;"/>
	</clipPath>
	<circle class="st8" cx="628.3" cy="29.9" r="15.4"/>
</g>
<g>
	<defs>
		<rect id="SVGID_7_" x="1.3" y="79.1" width="25.9" height="31.5"/>
	</defs>
	<clipPath id="SVGID_8_">
		<use xlink:href="#SVGID_7_"  style="overflow:visible;"/>
	</clipPath>
	<circle class="st9" cx="9.1" cy="94.7" r="12.9"/>
</g>
<g>
	<defs>
		<rect id="SVGID_9_" x="619.5" y="91.6" width="20.6" height="38.7"/>
	</defs>
	<clipPath id="SVGID_10_">
		<use xlink:href="#SVGID_9_"  style="overflow:visible;"/>
	</clipPath>
	<circle class="st10" cx="636.8" cy="112.2" r="13"/>
</g>
<g>
	<g>
		<rect x="1.6" y="116.3" class="st1" width="319.7" height="12.7"/>
		<rect x="3.7" y="119.9" class="st0" width="8.7" height="6.3"/>
		<rect x="14.2" y="119.9" class="st0" width="8.7" height="6.3"/>
		<rect x="24.8" y="119.9" class="st0" width="8.7" height="6.3"/>
		<rect x="35.4" y="119.9" class="st0" width="8.7" height="6.3"/>
		<rect x="46" y="119.9" class="st0" width="8.7" height="6.3"/>
		<rect x="56.6" y="119.9" class="st0" width="8.7" height="6.3"/>
		<rect x="67.2" y="119.9" class="st0" width="8.7" height="6.3"/>
		<rect x="77.8" y="119.9" class="st0" width="8.7" height="6.3"/>
		<rect x="88.4" y="119.9" class="st0" width="8.7" height="6.3"/>
		<rect x="99" y="119.9" class="st0" width="8.7" height="6.3"/>
		<rect x="109.6" y="119.9" class="st0" width="8.7" height="6.3"/>
		<rect x="120.2" y="119.9" class="st0" width="8.7" height="6.3"/>
		<rect x="130.8" y="119.9" class="st0" width="8.7" height="6.3"/>
		<rect x="141.4" y="119.9" class="st0" width="8.7" height="6.3"/>
		<rect x="152" y="119.9" class="st0" width="8.7" height="6.3"/>
		<rect x="162.6" y="119.9" class="st0" width="8.7" height="6.3"/>
		<rect x="173.2" y="119.9" class="st0" width="8.7" height="6.3"/>
		<rect x="183.8" y="119.9" class="st0" width="8.7" height="6.3"/>
		<rect x="194.4" y="119.9" class="st0" width="8.7" height="6.3"/>
		<rect x="205" y="119.9" class="st0" width="8.7" height="6.3"/>
		<rect x="215.6" y="119.9" class="st0" width="8.7" height="6.3"/>
		<rect x="226.2" y="119.9" class="st0" width="8.7" height="6.3"/>
		<rect x="236.8" y="119.9" class="st0" width="8.7" height="6.3"/>
		<rect x="247.4" y="119.9" class="st0" width="8.7" height="6.3"/>
		<rect x="258" y="119.9" class="st0" width="8.7" height="6.3"/>
		<rect x="268.6" y="119.9" class="st0" width="8.7" height="6.3"/>
		<rect x="279.2" y="119.9" class="st0" width="8.7" height="6.3"/>
		<rect x="289.8" y="119.9" class="st0" width="8.7" height="6.3"/>
		<rect x="300.4" y="119.9" class="st0" width="8.7" height="6.3"/>
		<rect x="311" y="119.9" class="st0" width="8.7" height="6.3"/>
	</g>
	<g>
		<rect x="319.9" y="116.3" class="st1" width="319.7" height="12.7"/>
		<rect x="322" y="119.9" class="st0" width="8.7" height="6.3"/>
		<rect x="332.6" y="119.9" class="st0" width="8.7" height="6.3"/>
		<rect x="343.2" y="119.9" class="st0" width="8.7" height="6.3"/>
		<rect x="353.8" y="119.9" class="st0" width="8.7" height="6.3"/>
		<rect x="364.4" y="119.9" class="st0" width="8.7" height="6.3"/>
		<rect x="375" y="119.9" class="st0" width="8.7" height="6.3"/>
		<rect x="385.6" y="119.9" class="st0" width="8.7" height="6.3"/>
		<rect x="396.2" y="119.9" class="st0" width="8.7" height="6.3"/>
		<rect x="406.8" y="119.9" class="st0" width="8.7" height="6.3"/>
		<rect x="417.4" y="119.9" class="st0" width="8.7" height="6.3"/>
		<rect x="428" y="119.9" class="st0" width="8.7" height="6.3"/>
		<rect x="438.6" y="119.9" class="st0" width="8.7" height="6.3"/>
		<rect x="449.2" y="119.9" class="st0" width="8.7" height="6.3"/>
		<rect x="459.8" y="119.9" class="st0" width="8.7" height="6.3"/>
		<rect x="470.4" y="119.9" class="st0" width="8.7" height="6.3"/>
		<rect x="481" y="119.9" class="st0" width="8.7" height="6.3"/>
		<rect x="491.6" y="119.9" class="st0" width="8.7" height="6.3"/>
		<rect x="502.2" y="119.9" class="st0" width="8.7" height="6.3"/>
		<rect x="512.8" y="119.9" class="st0" width="8.7" height="6.3"/>
		<rect x="523.4" y="119.9" class="st0" width="8.7" height="6.3"/>
		<rect x="534" y="119.9" class="st0" width="8.7" height="6.3"/>
		<rect x="544.6" y="119.9" class="st0" width="8.7" height="6.3"/>
		<rect x="555.1" y="119.9" class="st0" width="8.7" height="6.3"/>
		<rect x="565.7" y="119.9" class="st0" width="8.7" height="6.3"/>
		<rect x="576.3" y="119.9" class="st0" width="8.7" height="6.3"/>
		<rect x="586.9" y="119.9" class="st0" width="8.7" height="6.3"/>
		<rect x="597.5" y="119.9" class="st0" width="8.7" height="6.3"/>
		<rect x="608.1" y="119.9" class="st0" width="8.7" height="6.3"/>
		<rect x="618.7" y="119.9" class="st0" width="8.7" height="6.3"/>
		<rect x="629.3" y="119.9" class="st0" width="8.7" height="6.3"/>
	</g>
</g>
<g>
	<g>
		<rect x="1" y="0.9" class="st1" width="319.7" height="12.7"/>
		<rect x="3.1" y="4.5" class="st0" width="8.7" height="6.3"/>
		<rect x="13.7" y="4.5" class="st0" width="8.7" height="6.3"/>
		<rect x="24.3" y="4.5" class="st0" width="8.7" height="6.3"/>
		<rect x="34.9" y="4.5" class="st0" width="8.7" height="6.3"/>
		<rect x="45.5" y="4.5" class="st0" width="8.7" height="6.3"/>
		<rect x="56.1" y="4.5" class="st0" width="8.7" height="6.3"/>
		<rect x="66.7" y="4.5" class="st0" width="8.7" height="6.3"/>
		<rect x="77.3" y="4.5" class="st0" width="8.7" height="6.3"/>
		<rect x="87.9" y="4.5" class="st0" width="8.7" height="6.3"/>
		<rect x="98.5" y="4.5" class="st0" width="8.7" height="6.3"/>
		<rect x="109.1" y="4.5" class="st0" width="8.7" height="6.3"/>
		<rect x="119.7" y="4.5" class="st0" width="8.7" height="6.3"/>
		<rect x="130.3" y="4.5" class="st0" width="8.7" height="6.3"/>
		<rect x="140.9" y="4.5" class="st0" width="8.7" height="6.3"/>
		<rect x="151.5" y="4.5" class="st0" width="8.7" height="6.3"/>
		<rect x="162.1" y="4.5" class="st0" width="8.7" height="6.3"/>
		<rect x="172.7" y="4.5" class="st0" width="8.7" height="6.3"/>
		<rect x="183.3" y="4.5" class="st0" width="8.7" height="6.3"/>
		<rect x="193.9" y="4.5" class="st0" width="8.7" height="6.3"/>
		<rect x="204.5" y="4.5" class="st0" width="8.7" height="6.3"/>
		<rect x="215.1" y="4.5" class="st0" width="8.7" height="6.3"/>
		<rect x="225.7" y="4.5" class="st0" width="8.7" height="6.3"/>
		<rect x="236.3" y="4.5" class="st0" width="8.7" height="6.3"/>
		<rect x="246.9" y="4.5" class="st0" width="8.7" height="6.3"/>
		<rect x="257.5" y="4.5" class="st0" width="8.7" height="6.3"/>
		<rect x="268.1" y="4.5" class="st0" width="8.7" height="6.3"/>
		<rect x="278.7" y="4.5" class="st0" width="8.7" height="6.3"/>
		<rect x="289.2" y="4.5" class="st0" width="8.7" height="6.3"/>
		<rect x="299.8" y="4.5" class="st0" width="8.7" height="6.3"/>
		<rect x="310.4" y="4.5" class="st0" width="8.7" height="6.3"/>
	</g>
	<g>
		<rect x="319.4" y="0.9" class="st1" width="319.7" height="12.7"/>
		<rect x="321.5" y="4.5" class="st0" width="8.7" height="6.3"/>
		<rect x="332.1" y="4.5" class="st0" width="8.7" height="6.3"/>
		<rect x="342.7" y="4.5" class="st0" width="8.7" height="6.3"/>
		<rect x="353.3" y="4.5" class="st0" width="8.7" height="6.3"/>
		<rect x="363.9" y="4.5" class="st0" width="8.7" height="6.3"/>
		<rect x="374.4" y="4.5" class="st0" width="8.7" height="6.3"/>
		<rect x="385" y="4.5" class="st0" width="8.7" height="6.3"/>
		<rect x="395.6" y="4.5" class="st0" width="8.7" height="6.3"/>
		<rect x="406.2" y="4.5" class="st0" width="8.7" height="6.3"/>
		<rect x="416.8" y="4.5" class="st0" width="8.7" height="6.3"/>
		<rect x="427.4" y="4.5" class="st0" width="8.7" height="6.3"/>
		<rect x="438" y="4.5" class="st0" width="8.7" height="6.3"/>
		<rect x="448.6" y="4.5" class="st0" width="8.7" height="6.3"/>
		<rect x="459.2" y="4.5" class="st0" width="8.7" height="6.3"/>
		<rect x="469.8" y="4.5" class="st0" width="8.7" height="6.3"/>
		<rect x="480.4" y="4.5" class="st0" width="8.7" height="6.3"/>
		<rect x="491" y="4.5" class="st0" width="8.7" height="6.3"/>
		<rect x="501.6" y="4.5" class="st0" width="8.7" height="6.3"/>
		<rect x="512.2" y="4.5" class="st0" width="8.7" height="6.3"/>
		<rect x="522.8" y="4.5" class="st0" width="8.7" height="6.3"/>
		<rect x="533.4" y="4.5" class="st0" width="8.7" height="6.3"/>
		<rect x="544" y="4.5" class="st0" width="8.7" height="6.3"/>
		<rect x="554.6" y="4.5" class="st0" width="8.7" height="6.3"/>
		<rect x="565.2" y="4.5" class="st0" width="8.7" height="6.3"/>
		<rect x="575.8" y="4.5" class="st0" width="8.7" height="6.3"/>
		<rect x="586.4" y="4.5" class="st0" width="8.7" height="6.3"/>
		<rect x="597" y="4.5" class="st0" width="8.7" height="6.3"/>
		<rect x="607.6" y="4.5" class="st0" width="8.7" height="6.3"/>
		<rect x="618.2" y="4.5" class="st0" width="8.7" height="6.3"/>
		<rect x="628.8" y="4.5" class="st0" width="8.7" height="6.3"/>
	</g>
</g>
<g>
</g>
<g>
</g>
<g>
</g>
<g>
</g>
<g>
</g>
<g>
</g>
<g>
</g>
<g>
</g>
<g>
</g>
<g>
</g>
<g>
</g>
<g>
</g>
<g>
</g>
<g>
</g>
<g>
</g>
</svg>
