<?xml version="1.0" encoding="utf-8"?>
<!-- Generator: Adobe Illustrator 19.0.0, SVG Export Plug-In . SVG Version: 6.00 Build 0)  -->
<svg version="1.1" id="レイヤー_1" xmlns="http://www.w3.org/2000/svg" xmlns:xlink="http://www.w3.org/1999/xlink" x="0px"
	 y="0px" viewBox="0 0 640 130.3" style="enable-background:new 0 0 640 130.3;" xml:space="preserve">
<style type="text/css">
	.st0{fill:#FF9F23;}
	.st1{fill:#FFEA8B;}
	.st2{clip-path:url(#SVGID_2_);fill:#FF9F23;}
	.st3{fill:#FFDB63;}
	.st4{fill:#FFEA8B;stroke:#FF9F23;stroke-miterlimit:10;}
	.st5{fill:#FFDB63;stroke:#FF9F23;stroke-miterlimit:10;}
	.st6{fill:#FFFFFF;}
	.st7{clip-path:url(#SVGID_4_);fill:#FFDB63;}
	.st8{clip-path:url(#SVGID_6_);fill:#FFDB63;}
	.st9{clip-path:url(#SVGID_8_);fill:#FFDB63;}
	.st10{clip-path:url(#SVGID_10_);fill:#FFEA8B;}
</style>
<g>
	<rect x="1.3" y="0.9" class="st0" width="639.6" height="128.1"/>
	<g>
		<g>
			<circle class="st1" cx="510.8" cy="53.2" r="21.3"/>
			
				<rect x="483.4" y="8.8" transform="matrix(0.8102 -0.5862 0.5862 0.8102 77.7703 292.3375)" class="st1" width="13.8" height="34.6"/>
		</g>
		<g>
			<defs>
				<path id="SVGID_1_" d="M471.9,74.4l56.5,38.2l28.7-76.5c0,0,9-8.6-16,4.9s-23.5,7.2-38,9.1S471.9,74.4,471.9,74.4z"/>
			</defs>
			<clipPath id="SVGID_2_">
				<use xlink:href="#SVGID_1_"  style="overflow:visible;"/>
			</clipPath>
			<circle class="st2" cx="510.9" cy="53.9" r="18.6"/>
		</g>
	</g>
	<g>
		
			<rect x="42.9" y="44.9" transform="matrix(0.9554 0.2954 -0.2954 0.9554 19.4979 -15.2612)" class="st3" width="34.7" height="24.1"/>
		
			<rect x="45.8" y="47" transform="matrix(0.9554 0.2954 -0.2954 0.9554 19.4731 -15.2099)" class="st0" width="28.6" height="19.7"/>
		<polygon class="st3" points="40.1,63.3 29.8,73.1 74,86.8 73.3,73.5 		"/>
		<polygon class="st4" points="40.9,65.1 35.7,70.2 71,81.1 70.9,74.4 		"/>
	</g>
	<g>
		
			<rect x="585.8" y="44.1" transform="matrix(0.861 0.5087 -0.5087 0.861 116.2219 -296.3819)" class="st5" width="29" height="40.5"/>
		<polygon class="st4" points="596.5,41.8 590.4,42.4 568.7,76 592.2,89 602.4,87.5 621.7,56.1 		"/>
		
			<rect x="576.3" y="45.7" transform="matrix(0.861 0.5087 -0.5087 0.861 115.5653 -290.8407)" class="st5" width="27" height="40.5"/>
		<polygon class="st5" points="611.7,55.4 623,54.3 602.4,89.2 591.1,90.3 		"/>
	</g>
	<circle class="st3" cx="458.3" cy="108.3" r="19"/>
	<circle class="st1" cx="75.9" cy="110.9" r="13"/>
	<circle class="st1" cx="543.1" cy="103.8" r="10.3"/>
	<circle class="st3" cx="202.4" cy="15.9" r="13.9"/>
	<circle class="st3" cx="224.1" cy="112.6" r="13.1"/>
	<circle class="st1" cx="348.1" cy="108.3" r="10.3"/>
	<g>
		<path class="st6" d="M207,47.9c-0.5,3.5-1.3,7-2.4,10.3c-0.1,0.3,0,0.4,0.3,0.4h7.3c0.8,0,1.5,0.3,2.1,0.9
			c0.6,0.6,0.9,1.3,0.9,2.1v18c0,0.8-0.3,1.5-0.9,2.1c-0.6,0.6-1.3,0.9-2.1,0.9h-7c-0.3,0-0.5,0.2-0.5,0.5v1.1
			c0,0.7-0.3,1.3-0.8,1.8c-0.5,0.5-1.1,0.8-1.8,0.8c-0.7,0-1.3-0.3-1.8-0.8c-0.5-0.5-0.7-1.1-0.7-1.8V68.3c0-0.1,0-0.1-0.1-0.1
			c-0.1,0-0.1,0-0.1,0c-0.6,1-1.1,1.9-1.5,2.4c-0.3,0.5-0.8,0.7-1.4,0.5c-0.6-0.1-0.9-0.5-1.1-1.1l-0.2-0.6
			c-0.5-1.8-0.1-3.6,0.9-5.3c2.8-4.5,4.7-9.9,5.7-16.3c0.1-0.3-0.1-0.5-0.4-0.5h-2.9c-0.7,0-1.2-0.2-1.7-0.7c-0.5-0.5-0.7-1-0.7-1.7
			c0-0.7,0.2-1.2,0.7-1.7c0.5-0.5,1-0.7,1.7-0.7h14.1c0.7,0,1.2,0.2,1.7,0.7c0.5,0.5,0.7,1,0.7,1.7c0,0.7-0.2,1.2-0.7,1.7
			c-0.5,0.5-1,0.7-1.7,0.7h-5.3C207.2,47.4,207,47.5,207,47.9z M204.7,63.7v13.8c0,0.3,0.2,0.5,0.5,0.5h4.7c0.3,0,0.5-0.2,0.5-0.5
			V63.7c0-0.3-0.2-0.5-0.5-0.5h-4.7C204.8,63.3,204.7,63.4,204.7,63.7z M241.9,60.2c0.7,0,1.2,0.2,1.7,0.7c0.5,0.5,0.7,1,0.7,1.7
			c0,0.7-0.2,1.2-0.7,1.7c-0.5,0.5-1,0.7-1.7,0.7h-2.7c-0.3,0-0.5,0.2-0.5,0.5v19.2c0,0.8-0.3,1.4-0.8,2c-0.5,0.5-1.2,0.8-2,0.8
			c-0.8,0-1.4-0.3-1.9-0.8c-0.5-0.5-0.8-1.2-0.8-2V65.3c0-0.3-0.2-0.5-0.5-0.5h-5.6c-0.3,0-0.5,0.2-0.5,0.5c-0.3,5.1-1,9.2-1.8,12.3
			c-0.9,3.1-2.1,5.7-3.8,7.9c-0.5,0.6-1.1,0.9-1.8,0.9c-0.8,0-1.4-0.3-2-0.8c-0.6-0.6-0.8-1.2-0.9-2.1c0-0.8,0.2-1.6,0.7-2.2
			c1.2-1.7,2.2-3.8,2.8-6.2c0.7-2.4,1.2-5.7,1.4-9.8c0-0.3-0.1-0.5-0.4-0.5h-2.3c-0.7,0-1.2-0.2-1.7-0.7c-0.5-0.5-0.7-1-0.7-1.7
			c0-0.7,0.2-1.2,0.7-1.7c0.5-0.5,1-0.7,1.7-0.7h2.6c0.3,0,0.5-0.2,0.5-0.5c0.1-3.1,0.1-5.6,0.1-7.7v-4.1c0-0.3-0.2-0.5-0.5-0.5h-2
			c-0.7,0-1.2-0.2-1.6-0.7c-0.4-0.5-0.7-1-0.7-1.7c0-0.7,0.2-1.2,0.7-1.7c0.4-0.5,1-0.7,1.6-0.7h22c0.7,0,1.2,0.2,1.7,0.7
			c0.5,0.5,0.7,1,0.7,1.7c0,0.7-0.2,1.2-0.7,1.7c-0.5,0.5-1,0.7-1.7,0.7h-2.1c-0.3,0-0.5,0.2-0.5,0.5v11.8c0,0.3,0.2,0.5,0.5,0.5
			H241.9z M233.3,59.7V47.9c0-0.3-0.2-0.5-0.5-0.5h-5.2c-0.3,0-0.5,0.2-0.5,0.5V52c0,2,0,4.6-0.1,7.7c0,0.3,0.2,0.5,0.5,0.5h5.3
			C233.2,60.2,233.3,60,233.3,59.7z"/>
		<path class="st6" d="M252.6,87.2c-0.7,0.2-1.4,0.2-2.1,0c-0.7-0.3-1.2-0.7-1.6-1.3c-0.3-0.6-0.4-1.1-0.2-1.8s0.6-1,1.3-1.2
			c3.9-1.4,6.9-2.9,9.1-4.6c2.1-1.7,3.6-3.9,4.5-6.5c0.1-0.3,0-0.4-0.3-0.4h-9.6c-0.7,0-1.2-0.2-1.7-0.7c-0.5-0.5-0.7-1-0.7-1.7
			c0-0.7,0.2-1.2,0.7-1.7c0.5-0.5,1-0.7,1.7-0.7H264c0.3,0,0.5-0.1,0.5-0.4c0.1-0.6,0.1-1,0.1-1.3c0.1-0.8,0.4-1.5,0.9-2
			c0.5-0.5,1.2-0.8,2-0.8c0.8,0,1.5,0.3,2,0.8c0.5,0.6,0.8,1.2,0.7,2c0,0.5,0,0.9-0.1,1.2c0,0.3,0.1,0.4,0.4,0.4h10.6
			c0.8,0,1.5,0.3,2.1,0.9c0.6,0.6,0.9,1.3,0.9,2.1v11.2c0,0.7,0.1,1.1,0.4,1.2c0.3,0.1,1.3,0.2,2.9,0.2c0.9,0,1.6,0,2-0.1
			s0.7-0.3,1.1-0.8c0.3-0.5,0.6-1.1,0.7-1.8c0.1-0.8,0.3-2,0.4-3.6c0.1-0.7,0.4-1.3,0.9-1.7c0.5-0.5,1.1-0.6,1.8-0.6
			c0.7,0.1,1.3,0.4,1.7,1c0.5,0.6,0.7,1.2,0.7,1.9c-0.1,1.7-0.3,3.1-0.4,4.2c-0.2,1.1-0.4,2-0.8,2.9c-0.4,0.8-0.7,1.4-1.1,1.8
			c-0.4,0.4-1,0.7-1.8,1c-0.9,0.2-1.7,0.4-2.5,0.4c-0.8,0.1-2,0.1-3.6,0.1c-3.5,0-5.7-0.3-6.6-0.9c-0.9-0.6-1.4-2-1.4-4.3v-9.9
			c0-0.3-0.2-0.5-0.5-0.5h-8.3c-0.3,0-0.5,0.2-0.6,0.5c-1,3.6-2.9,6.7-5.5,9.1C261,83.4,257.3,85.4,252.6,87.2z M280.4,63.6
			c-2.7-0.1-4.4-0.4-5.1-0.8c-0.7-0.4-1-1.4-1-3v-9.5c0-0.3-0.2-0.4-0.5-0.4h-3.5c-0.3,0-0.5,0.1-0.5,0.4c-0.5,6.7-6,11.3-16.7,13.8
			c-0.6,0.1-1.2,0-1.8-0.3c-0.6-0.3-0.9-0.8-1.1-1.4c-0.2-0.6-0.1-1.2,0.3-1.7c0.3-0.5,0.8-0.9,1.4-1c8.1-1.8,12.3-4.9,12.5-9.4
			c0-0.2-0.2-0.4-0.5-0.4h-8.2c-0.3,0-0.4,0.1-0.4,0.4v3c0,0.7-0.3,1.4-0.8,1.9c-0.5,0.5-1.2,0.8-1.9,0.8c-0.7,0-1.4-0.3-1.9-0.8
			c-0.5-0.5-0.8-1.1-0.8-1.9v-5.1c0-0.8,0.3-1.5,0.9-2.1c0.6-0.6,1.3-0.9,2.1-0.9h15.9c0.3,0,0.4-0.1,0.4-0.4v-2.2
			c0-0.8,0.3-1.4,0.8-2c0.6-0.6,1.2-0.9,2-0.9c0.8,0,1.5,0.3,2,0.9c0.6,0.6,0.8,1.2,0.8,2v2.2c0,0.3,0.2,0.4,0.5,0.4h15.9
			c0.8,0,1.5,0.3,2.1,0.9c0.6,0.6,0.9,1.3,0.9,2.1v3.5c0,0.7-0.3,1.4-0.8,1.9c-0.5,0.5-1.1,0.8-1.9,0.8c-0.7,0-1.4-0.3-1.9-0.8
			c-0.5-0.5-0.8-1.1-0.8-1.9v-1.5c0-0.3-0.2-0.4-0.5-0.4h-8.2c-0.3,0-0.4,0.1-0.4,0.4v7.2c0,0.8,0.1,1.3,0.2,1.5s0.7,0.3,1.7,0.3
			c0.4,0,1.1,0.1,2.1,0.1c1,0,1.7,0,2.1-0.1c1.5-0.1,2.4-0.3,2.6-0.5c0.1-0.1,0.2-0.2,0.3-0.3c0.8-1.7,1.9-2.5,3.1-2.3
			c0.8,0.1,1.4,0.4,1.8,1c0.5,0.6,0.7,1.2,0.5,2c-0.3,2-0.9,3.2-1.8,3.7c-1,0.5-3.1,0.8-6.3,0.8c-0.3,0-0.7,0-1.4,0.1
			c-0.6,0-1.1,0.1-1.5,0.1C282.5,63.7,281.6,63.7,280.4,63.6z"/>
		<path class="st6" d="M320.6,81.9c0.3,0,0.5-0.1,0.5-0.4v-4.6c0-0.3-0.2-0.5-0.5-0.5h-14c-0.6,0-1.1-0.2-1.6-0.7
			c-0.5-0.4-0.7-0.9-0.7-1.5c0-0.6,0.2-1.1,0.7-1.6c0.5-0.5,1-0.7,1.6-0.7h14c0.3,0,0.5-0.1,0.5-0.4v-3.1c0-0.6,0.1-1,0.4-1.4
			c0.1-0.1,0.1-0.1,0.1-0.2c0-0.1-0.1-0.1-0.2-0.1c-5.4,0.3-10.6,0.6-15.7,0.8c-0.6,0-1.2-0.2-1.7-0.6c-0.5-0.4-0.7-0.9-0.8-1.6
			c0-0.6,0.2-1.1,0.6-1.6c0.4-0.5,0.9-0.7,1.5-0.7c0.6,0,1.4,0,2.5-0.1c1.1-0.1,2-0.1,2.6-0.1c0.3,0,0.5-0.1,0.7-0.4
			c0.9-1.6,2-3.5,3.1-5.7c0-0.1,0-0.2,0-0.3c-0.1-0.1-0.1-0.2-0.2-0.2h-7.5c-0.5,0-0.9-0.2-1.2-0.5c-0.3-0.3-0.5-0.7-0.5-1.2
			c0-0.2-0.1-0.3-0.3-0.3H304c-0.8,0-1.5-0.3-2.1-0.9c-0.6-0.6-0.9-1.3-0.9-2.1v-4.2c0-0.8,0.3-1.5,0.9-2.1c0.6-0.6,1.3-0.9,2.1-0.9
			h16.6c0.3,0,0.5-0.1,0.5-0.4v-1.1c0-0.8,0.3-1.4,0.9-2c0.6-0.6,1.2-0.9,2-0.9c0.8,0,1.4,0.3,2,0.9c0.6,0.6,0.9,1.2,0.9,2v1.1
			c0,0.3,0.2,0.4,0.5,0.4h16.6c0.8,0,1.5,0.3,2.1,0.9c0.6,0.6,0.9,1.3,0.9,2.1v4.2c0,0.8-0.3,1.5-0.9,2.1c-0.6,0.6-1.3,0.9-2.1,0.9
			h-0.4c-0.2,0-0.3,0.1-0.3,0.3c0,0.5-0.2,0.8-0.5,1.2c-0.3,0.3-0.7,0.5-1.2,0.5h-3.9c-0.1,0-0.1,0.1-0.2,0.2c-0.1,0.1,0,0.2,0,0.2
			c2.5,2.8,4.7,5.5,6.6,7.9c0.4,0.6,0.6,1.2,0.4,1.8c-0.1,0.7-0.5,1.2-1.1,1.5c-0.7,0.3-1.4,0.4-2.1,0.3c-0.8-0.2-1.4-0.6-1.8-1.1
			c-0.1-0.1-0.3-0.4-0.6-0.7c-0.2-0.3-0.4-0.6-0.5-0.7c-0.2-0.2-0.4-0.3-0.7-0.3c-1,0.1-4.8,0.4-11.4,1c-0.1,0-0.1,0-0.2,0.1
			c0,0.1,0,0.2,0.1,0.2c0.4,0.5,0.6,1.1,0.6,1.8v3.1c0,0.3,0.2,0.4,0.5,0.4h13.4c0.6,0,1.1,0.2,1.6,0.7c0.5,0.5,0.7,1,0.7,1.6
			c0,0.6-0.2,1.1-0.7,1.5c-0.5,0.4-1,0.7-1.6,0.7h-13.4c-0.3,0-0.5,0.2-0.5,0.5v4.6c0,0.3,0.2,0.4,0.5,0.4h17.6
			c0.6,0,1.2,0.2,1.6,0.7c0.5,0.5,0.7,1,0.7,1.6c0,0.6-0.2,1.2-0.7,1.6c-0.5,0.5-1,0.7-1.6,0.7H303c-0.6,0-1.2-0.2-1.6-0.7
			c-0.5-0.5-0.7-1-0.7-1.6c0-0.6,0.2-1.2,0.7-1.6c0.5-0.5,1-0.7,1.6-0.7H320.6z M307,52.1h34c0.3,0,0.5-0.2,0.5-0.5v-2.4
			c0-0.3-0.2-0.5-0.5-0.5h-34c-0.3,0-0.5,0.2-0.5,0.5v2.4C306.5,51.9,306.6,52.1,307,52.1z M317.2,62.2c-0.2,0.2-0.1,0.4,0.2,0.4
			c4.7-0.3,10.4-0.7,17-1.3c0.1,0,0.1,0,0.2-0.1c0.1-0.1,0.1-0.2,0-0.2c-0.5-0.5-1.1-1.3-2-2.2c-0.9-1-1.4-1.6-1.6-1.9
			c-0.2-0.2-0.5-0.4-0.7-0.4h-9.6c-0.3,0-0.5,0.1-0.6,0.4C319.2,58.4,318.3,60.2,317.2,62.2z"/>
		<path class="st6" d="M355.5,84.7c-0.5,0.3-1.1,0.5-1.6,0.4c-0.6-0.1-1.1-0.4-1.4-0.9c-0.3-0.5-0.5-1-0.4-1.6
			c0.6-3.4,1.1-6.8,1.4-10.3c0.1-0.6,0.3-1.1,0.8-1.4c0.4-0.4,0.9-0.5,1.5-0.5c0.6,0,1.1,0.3,1.5,0.8c0.4,0.5,0.6,1.1,0.5,1.6
			c-0.3,3.6-0.8,7.1-1.4,10.5C356.3,83.9,356,84.4,355.5,84.7z M356.5,62.8c0.1-0.2,0.3-0.4,0.5-0.8c0.2-0.4,0.4-0.6,0.5-0.8
			c0.2-0.2,0.2-0.5,0-0.7c-1.7-2.8-3.3-5.2-4.6-7.2c-0.9-1.5-0.9-3,0-4.5c0.3-0.5,0.8-0.8,1.4-0.8c0.6,0,1.1,0.2,1.4,0.8
			c0,0,0.1,0.1,0.1,0.2c0.1,0.1,0.1,0.2,0.1,0.2c0,0.1,0.1,0.1,0.2,0.1c0.1,0,0.2,0,0.3-0.1c0.9-1.9,1.9-4,2.8-6.2
			c0.3-0.6,0.7-1,1.3-1.3c0.6-0.3,1.2-0.3,1.8,0c0.6,0.3,1,0.7,1.2,1.3c0.2,0.6,0.2,1.2,0,1.8c-1.4,3-2.8,6-4.4,8.9
			c-0.1,0.3-0.1,0.5,0,0.7c0.1,0.2,0.3,0.4,0.5,0.8c0.2,0.4,0.4,0.6,0.5,0.8c0.2,0.2,0.3,0.3,0.5,0.1c1.3-2.1,2.7-4.7,4.3-7.7
			c0.3-0.6,0.7-1,1.3-1.2c0.6-0.2,1.2-0.1,1.8,0.2c0.6,0.3,1,0.8,1.2,1.4c0.2,0.6,0.1,1.2-0.2,1.8c-0.9,1.6-1.8,3.4-2.9,5.3
			c0,0,0,0.1,0.1,0.2c0.1,0.1,0.1,0.1,0.2,0.1c0.8-0.2,1.6-0.1,2.3,0.3c0.7,0.4,1.2,1,1.4,1.8c0.8,3,1.4,5.6,1.9,7.9
			c0.1,0.6,0.1,1.1-0.3,1.6c-0.3,0.5-0.8,0.8-1.4,1l-0.4,0.1c-0.5,0.1-0.9,0-1.3-0.2c-0.4-0.3-0.7-0.6-0.8-1.1
			c-0.1-0.2-0.2-0.3-0.4-0.3l-2.8,0.2c-0.3,0-0.5,0.2-0.5,0.5v17.8c0,0.7-0.3,1.4-0.8,1.9s-1.1,0.8-1.9,0.8c-0.7,0-1.4-0.3-1.9-0.8
			s-0.8-1.1-0.8-1.9V68c0-0.3-0.2-0.4-0.5-0.4l-4,0.3c-0.6,0-1.2-0.2-1.6-0.6c-0.5-0.4-0.7-0.9-0.7-1.6c0-0.6,0.2-1.2,0.6-1.6
			c0.4-0.5,1-0.7,1.6-0.8l1.4-0.1C356.1,63.2,356.4,63.1,356.5,62.8z M362.2,62.5c0,0.1,0,0.1,0,0.2c0.1,0.1,0.1,0.1,0.2,0.1l4-0.3
			c0.3,0,0.4-0.2,0.4-0.5c-0.3-1.4-0.7-2.9-1.2-4.4c-0.1-0.3-0.2-0.4-0.4-0.2C364.6,58.6,363.5,60.3,362.2,62.5z M368.8,83.3
			c-0.6,0-1.1-0.1-1.5-0.5c-0.5-0.4-0.7-0.8-0.8-1.4c-0.2-3.4-0.5-6.4-0.9-8.9c-0.1-0.6,0.1-1.1,0.4-1.6c0.3-0.5,0.8-0.8,1.4-0.8
			c0.6-0.1,1.1,0.1,1.6,0.4c0.5,0.3,0.7,0.8,0.8,1.4c0.2,1.8,0.6,4.8,0.9,9.1c0.1,0.6-0.1,1.1-0.5,1.6
			C369.9,83,369.4,83.2,368.8,83.3z M396.4,42.7c0.8,0,1.5,0.3,2.1,0.9c0.6,0.6,0.9,1.3,0.9,2.1c0,5.2-0.3,9-0.7,11.5
			c-0.5,2.5-1.1,4.1-1.9,4.9c-0.8,0.7-2,1.1-3.7,1.1c-0.6,0-2.5-0.1-5.7-0.2c-0.7,0-1.2-0.3-1.7-0.7c-0.5-0.5-0.7-1-0.7-1.7
			c0-0.6,0.2-1.2,0.7-1.6c0.5-0.5,1-0.7,1.6-0.6c1.7,0.1,3,0.2,3.9,0.2c0.7,0,1.2-0.2,1.6-0.7c0.4-0.4,0.7-1.4,0.9-3
			c0.2-1.5,0.3-3.9,0.3-7c0-0.3-0.1-0.5-0.4-0.5h-5.8c-0.3,0-0.5,0.1-0.5,0.4c-0.6,3.6-1.8,6.8-3.6,9.6c-1.8,2.8-4.1,5.1-6.9,6.7
			c-0.6,0.3-1.3,0.4-2,0.2c-0.7-0.2-1.2-0.6-1.6-1.2c-0.3-0.6-0.4-1.2-0.3-1.8c0.2-0.6,0.5-1.2,1.1-1.5c4.2-2.7,6.8-6.8,7.9-12
			c0.1-0.3,0-0.4-0.3-0.4h-7c-0.7,0-1.2-0.2-1.7-0.7c-0.5-0.5-0.7-1-0.7-1.7c0-0.7,0.2-1.2,0.7-1.7c0.5-0.5,1-0.7,1.7-0.7H396.4z
			 M376.2,87.8h-0.5c-0.7,0-1.4-0.3-1.9-0.8s-0.8-1.1-0.8-1.9V69.2c0-0.8,0.3-1.5,0.9-2.1c0.6-0.6,1.3-0.9,2.1-0.9h19.2
			c0.8,0,1.5,0.3,2.1,0.9c0.6,0.6,0.9,1.3,0.9,2.1V85c0,0.8-0.3,1.4-0.8,2c-0.5,0.5-1.2,0.8-2,0.8h-0.6c-0.6,0-1.1-0.2-1.5-0.6
			c-0.4-0.4-0.6-0.9-0.6-1.5c0-0.2-0.1-0.3-0.3-0.3h-13.7c-0.2,0-0.3,0.1-0.3,0.3c0,0.6-0.2,1.1-0.6,1.5
			C377.3,87.5,376.8,87.8,376.2,87.8z M378.4,71.3v9.1c0,0.3,0.2,0.5,0.5,0.5h13.4c0.3,0,0.4-0.2,0.4-0.5v-9.1
			c0-0.3-0.1-0.5-0.4-0.5h-13.4C378.5,70.8,378.4,71,378.4,71.3z"/>
		<path class="st6" d="M408.1,59.3c-0.6,0.3-1.3,0.4-2,0.2c-0.7-0.2-1.2-0.6-1.5-1.3c-0.3-0.7-0.4-1.3-0.2-2
			c0.2-0.7,0.7-1.2,1.3-1.6c6-3.4,11.6-7.3,16.7-11.7c1.5-1.3,3.2-1.9,5.2-1.9h1c1.9,0,3.7,0.6,5.2,1.9c5.1,4.3,10.6,8.2,16.7,11.7
			c0.6,0.4,1,0.9,1.3,1.6c0.2,0.7,0.2,1.3-0.2,2c-0.3,0.6-0.9,1-1.5,1.2s-1.3,0.1-2-0.2c-7.1-4-13.7-8.8-19.6-14.3
			c-0.2-0.1-0.4-0.1-0.7,0.1C421.9,50.4,415.3,55.2,408.1,59.3z M415.9,58.8c0-0.8,0.3-1.5,0.8-2c0.5-0.5,1.2-0.8,2-0.8
			c0.8,0,1.4,0.3,2,0.8c0.5,0.5,0.8,1.2,0.8,2v2c0,7.3-0.7,12.7-2.2,16.4c-1.5,3.7-4.2,6.7-8,9.1c-0.7,0.4-1.4,0.5-2.1,0.4
			c-0.8-0.2-1.4-0.6-1.8-1.2c-0.4-0.6-0.5-1.2-0.4-2c0.2-0.7,0.5-1.3,1.2-1.7c3-1.9,5-4.3,6.2-7.3c1.1-3,1.7-7.5,1.7-13.7V58.8z
			 M435.5,58.9c0-0.8,0.3-1.4,0.9-2c0.6-0.6,1.3-0.9,2.1-0.9c0.8,0,1.4,0.3,2,0.8c0.6,0.6,0.8,1.2,0.8,2v25.5c0,0.8-0.3,1.5-0.8,2
			c-0.6,0.6-1.2,0.8-2,0.8c-0.8,0-1.5-0.3-2.1-0.9c-0.6-0.6-0.9-1.2-0.9-2V58.9z"/>
	</g>
	<g>
		<g>
			<path class="st1" d="M180.1,49.6c0,12.1-18.4,21.9-41.1,21.9s-41.1-9.8-41.1-21.9c0-6.7,5.7-12.7,14.7-16.8
				c7.2-3.2,16.4-5.1,26.5-5.1C161.6,27.7,180.1,37.5,180.1,49.6z"/>
			<path class="st1" d="M175,58.2c0,3.4,8.6,6.5,7.6,7.6c-1,1-10,1.7-15-3.3"/>
		</g>
		<g>
			<path class="st0" d="M114.8,53c-0.2,0-0.5,0-0.7-0.1s-0.3-0.3-0.4-0.5c-0.1-0.2-0.1-0.4,0.1-0.6c0.1-0.2,0.3-0.3,0.5-0.4
				c2.3-0.6,4.3-1.4,6.2-2.4c0.1,0,0.1-0.1,0-0.2c-0.3-0.4-0.8-0.9-1.5-1.7c-0.2-0.2-0.3-0.4-0.2-0.6c0-0.2,0.1-0.4,0.3-0.6
				c0.2-0.2,0.4-0.2,0.7-0.2c0.3,0,0.5,0.1,0.6,0.3c0.5,0.6,1.1,1.2,1.7,1.9c0.1,0.1,0.2,0.1,0.2,0.1c1.8-1.2,3-2.5,3.6-3.7
				c0,0,0-0.1,0-0.1c0,0-0.1-0.1-0.1-0.1H120c-0.1,0-0.2,0-0.3,0.1c-1.2,1.1-2.5,2.2-4.1,3.1c-0.2,0.1-0.4,0.2-0.6,0.1
				c-0.2-0.1-0.4-0.2-0.5-0.4c-0.1-0.2-0.2-0.4-0.1-0.6c0.1-0.2,0.2-0.4,0.4-0.5c2.1-1.4,3.7-2.8,4.9-4.3c0.2-0.2,0.4-0.3,0.6-0.4
				c0.2-0.1,0.5,0,0.7,0.1c0.2,0.1,0.3,0.3,0.4,0.5c0.1,0.2,0,0.4-0.1,0.6c-0.1,0.1,0,0.1,0.1,0.1h5.8c0.2,0,0.4,0.1,0.6,0.2
				c0.2,0.2,0.2,0.4,0.2,0.6c0,0.6-0.1,1.2-0.4,1.6c-1,1.8-2.7,3.5-5,4.9c0,0,0,0,0,0c0,0,0,0,0,0h6c0.3,0,0.5,0.1,0.7,0.3
				c0.2,0.2,0.3,0.5,0.3,0.7v5.9c0,0.3-0.1,0.5-0.3,0.7c-0.2,0.2-0.4,0.3-0.7,0.3h-0.2c-0.2,0-0.4-0.1-0.6-0.2
				c-0.2-0.2-0.2-0.3-0.2-0.6c0-0.1,0-0.1-0.1-0.1h-7.1c-0.1,0-0.1,0-0.1,0.1c0,0.2-0.1,0.4-0.2,0.6c-0.2,0.2-0.3,0.2-0.6,0.2h-0.2
				c-0.3,0-0.5-0.1-0.7-0.3s-0.3-0.4-0.3-0.7v-4.7c0,0,0-0.1-0.1-0.1c0,0-0.1,0-0.1,0C117.3,52.3,116.1,52.6,114.8,53z M127.8,51.5
				c0-0.1,0-0.2-0.1-0.2h-7c-0.1,0-0.2,0.1-0.2,0.2V55c0,0.1,0.1,0.2,0.2,0.2h7c0.1,0,0.1-0.1,0.1-0.2V51.5z"/>
			<path class="st0" d="M148.5,45.8c0,0.2-0.1,0.4-0.3,0.6c-0.2,0.2-0.4,0.3-0.6,0.3h-5.8c-0.1,0-0.2,0.1-0.1,0.2
				c0.2,1.9,0.9,3.6,2,5.1c1.1,1.5,2.5,2.7,4.4,3.7c0.2,0.1,0.3,0.3,0.4,0.5c0.1,0.2,0,0.4-0.1,0.7c-0.1,0.2-0.4,0.4-0.6,0.4
				c-0.3,0.1-0.5,0-0.7-0.1c-1.4-0.8-2.6-1.8-3.7-3c-1.1-1.2-1.9-2.6-2.5-4.1c0,0,0,0-0.1,0s0,0-0.1,0c-0.6,1.5-1.5,2.9-2.6,4.1
				c-1.1,1.2-2.4,2.2-3.8,3c-0.2,0.1-0.5,0.2-0.7,0.1c-0.3-0.1-0.5-0.2-0.6-0.4c-0.1-0.2-0.2-0.4-0.1-0.7s0.2-0.4,0.4-0.5
				c1.8-1,3.3-2.2,4.4-3.7c1.1-1.5,1.7-3.2,2-5.1c0-0.1,0-0.2-0.1-0.2h-5.8c-0.2,0-0.5-0.1-0.6-0.3c-0.2-0.2-0.3-0.4-0.3-0.6
				c0-0.2,0.1-0.5,0.3-0.6c0.2-0.2,0.4-0.3,0.6-0.3h5.9c0.1,0,0.2-0.1,0.2-0.2v-2.5c0-0.3,0.1-0.5,0.3-0.7c0.2-0.2,0.4-0.3,0.7-0.3
				c0.3,0,0.5,0.1,0.7,0.3c0.2,0.2,0.3,0.4,0.3,0.7v2.5c0,0.1,0.1,0.2,0.2,0.2h5.9c0.2,0,0.5,0.1,0.6,0.3
				C148.4,45.3,148.5,45.5,148.5,45.8z"/>
			<path class="st0" d="M154.9,56.3c-0.9,0-1.8-0.6-2.6-1.7c-0.8-1.1-1.2-2.5-1.2-4.1c0-2.4,0.8-4.3,2.4-5.7
				c1.6-1.5,3.7-2.2,6.3-2.2c2.1,0,3.8,0.7,5.2,2c1.4,1.3,2,3,2,5c0,1.9-0.4,3.5-1.3,4.7c-0.9,1.2-2.1,2-3.7,2.3
				c-0.2,0-0.5,0-0.7-0.1c-0.2-0.1-0.3-0.4-0.4-0.6c0-0.2,0-0.4,0.1-0.6c0.1-0.2,0.3-0.3,0.6-0.4c1.1-0.3,2-0.9,2.6-1.8
				c0.6-0.9,0.9-2.1,0.9-3.5c0-1.4-0.4-2.6-1.3-3.5c-0.9-0.9-2-1.5-3.4-1.6c-0.1,0-0.2,0-0.2,0.1c-0.3,2.3-0.6,4.3-1,5.9
				c-0.4,1.6-0.8,2.8-1.3,3.6c-0.5,0.8-1,1.4-1.4,1.7C156,56.1,155.5,56.3,154.9,56.3z M158.2,44.5c-1.6,0.3-2.9,1-3.8,2.1
				c-0.9,1.1-1.4,2.4-1.4,4c0,1,0.2,2,0.7,2.7c0.4,0.8,0.9,1.2,1.3,1.2c0.2,0,0.4-0.1,0.6-0.2c0.2-0.2,0.4-0.5,0.7-0.9
				c0.3-0.5,0.5-1,0.7-1.7c0.2-0.7,0.5-1.6,0.7-2.8c0.2-1.2,0.5-2.5,0.6-4.1C158.3,44.6,158.3,44.5,158.2,44.5
				C158.2,44.5,158.2,44.5,158.2,44.5z"/>
		</g>
	</g>
	<circle class="st3" cx="414" cy="15.9" r="11.4"/>
	<circle class="st1" cx="313.6" cy="18.8" r="11.1"/>
	<circle class="st1" cx="148.3" cy="103" r="10.3"/>
	<g>
		<defs>
			<rect id="SVGID_3_" x="2.4" y="18.3" width="27.3" height="27.3"/>
		</defs>
		<clipPath id="SVGID_4_">
			<use xlink:href="#SVGID_3_"  style="overflow:visible;"/>
		</clipPath>
		<circle class="st7" cx="10.6" cy="33.4" r="10.3"/>
	</g>
	<g>
		<defs>
			<rect id="SVGID_5_" x="606.7" width="34.6" height="48.5"/>
		</defs>
		<clipPath id="SVGID_6_">
			<use xlink:href="#SVGID_5_"  style="overflow:visible;"/>
		</clipPath>
		<circle class="st8" cx="629.8" cy="29.9" r="15.4"/>
	</g>
	<g>
		<defs>
			<rect id="SVGID_7_" x="1.3" y="79.1" width="25.9" height="31.5"/>
		</defs>
		<clipPath id="SVGID_8_">
			<use xlink:href="#SVGID_7_"  style="overflow:visible;"/>
		</clipPath>
		<circle class="st9" cx="9.1" cy="94.7" r="12.9"/>
	</g>
	<g>
		<defs>
			<rect id="SVGID_9_" x="619.5" y="91.6" width="20.6" height="38.7"/>
		</defs>
		<clipPath id="SVGID_10_">
			<use xlink:href="#SVGID_9_"  style="overflow:visible;"/>
		</clipPath>
		<circle class="st10" cx="636.8" cy="112.2" r="13"/>
	</g>
	<g>
		<g>
			<rect x="1.6" y="116.3" class="st1" width="319.7" height="12.7"/>
			<rect x="3.7" y="119.9" class="st0" width="8.7" height="6.3"/>
			<rect x="14.2" y="119.9" class="st0" width="8.7" height="6.3"/>
			<rect x="24.8" y="119.9" class="st0" width="8.7" height="6.3"/>
			<rect x="35.4" y="119.9" class="st0" width="8.7" height="6.3"/>
			<rect x="46" y="119.9" class="st0" width="8.7" height="6.3"/>
			<rect x="56.6" y="119.9" class="st0" width="8.7" height="6.3"/>
			<rect x="67.2" y="119.9" class="st0" width="8.7" height="6.3"/>
			<rect x="77.8" y="119.9" class="st0" width="8.7" height="6.3"/>
			<rect x="88.4" y="119.9" class="st0" width="8.7" height="6.3"/>
			<rect x="99" y="119.9" class="st0" width="8.7" height="6.3"/>
			<rect x="109.6" y="119.9" class="st0" width="8.7" height="6.3"/>
			<rect x="120.2" y="119.9" class="st0" width="8.7" height="6.3"/>
			<rect x="130.8" y="119.9" class="st0" width="8.7" height="6.3"/>
			<rect x="141.4" y="119.9" class="st0" width="8.7" height="6.3"/>
			<rect x="152" y="119.9" class="st0" width="8.7" height="6.3"/>
			<rect x="162.6" y="119.9" class="st0" width="8.7" height="6.3"/>
			<rect x="173.2" y="119.9" class="st0" width="8.7" height="6.3"/>
			<rect x="183.8" y="119.9" class="st0" width="8.7" height="6.3"/>
			<rect x="194.4" y="119.9" class="st0" width="8.7" height="6.3"/>
			<rect x="205" y="119.9" class="st0" width="8.7" height="6.3"/>
			<rect x="215.6" y="119.9" class="st0" width="8.7" height="6.3"/>
			<rect x="226.2" y="119.9" class="st0" width="8.7" height="6.3"/>
			<rect x="236.8" y="119.9" class="st0" width="8.7" height="6.3"/>
			<rect x="247.4" y="119.9" class="st0" width="8.7" height="6.3"/>
			<rect x="258" y="119.9" class="st0" width="8.7" height="6.3"/>
			<rect x="268.6" y="119.9" class="st0" width="8.7" height="6.3"/>
			<rect x="279.2" y="119.9" class="st0" width="8.7" height="6.3"/>
			<rect x="289.8" y="119.9" class="st0" width="8.7" height="6.3"/>
			<rect x="300.4" y="119.9" class="st0" width="8.7" height="6.3"/>
			<rect x="311" y="119.9" class="st0" width="8.7" height="6.3"/>
		</g>
		<g>
			<rect x="319.9" y="116.3" class="st1" width="319.7" height="12.7"/>
			<rect x="322" y="119.9" class="st0" width="8.7" height="6.3"/>
			<rect x="332.6" y="119.9" class="st0" width="8.7" height="6.3"/>
			<rect x="343.2" y="119.9" class="st0" width="8.7" height="6.3"/>
			<rect x="353.8" y="119.9" class="st0" width="8.7" height="6.3"/>
			<rect x="364.4" y="119.9" class="st0" width="8.7" height="6.3"/>
			<rect x="375" y="119.9" class="st0" width="8.7" height="6.3"/>
			<rect x="385.6" y="119.9" class="st0" width="8.7" height="6.3"/>
			<rect x="396.2" y="119.9" class="st0" width="8.7" height="6.3"/>
			<rect x="406.8" y="119.9" class="st0" width="8.7" height="6.3"/>
			<rect x="417.4" y="119.9" class="st0" width="8.7" height="6.3"/>
			<rect x="428" y="119.9" class="st0" width="8.7" height="6.3"/>
			<rect x="438.6" y="119.9" class="st0" width="8.7" height="6.3"/>
			<rect x="449.2" y="119.9" class="st0" width="8.7" height="6.3"/>
			<rect x="459.8" y="119.9" class="st0" width="8.7" height="6.3"/>
			<rect x="470.4" y="119.9" class="st0" width="8.7" height="6.3"/>
			<rect x="481" y="119.9" class="st0" width="8.7" height="6.3"/>
			<rect x="491.6" y="119.9" class="st0" width="8.7" height="6.3"/>
			<rect x="502.2" y="119.9" class="st0" width="8.7" height="6.3"/>
			<rect x="512.8" y="119.9" class="st0" width="8.7" height="6.3"/>
			<rect x="523.4" y="119.9" class="st0" width="8.7" height="6.3"/>
			<rect x="534" y="119.9" class="st0" width="8.7" height="6.3"/>
			<rect x="544.6" y="119.9" class="st0" width="8.7" height="6.3"/>
			<rect x="555.1" y="119.9" class="st0" width="8.7" height="6.3"/>
			<rect x="565.7" y="119.9" class="st0" width="8.7" height="6.3"/>
			<rect x="576.3" y="119.9" class="st0" width="8.7" height="6.3"/>
			<rect x="586.9" y="119.9" class="st0" width="8.7" height="6.3"/>
			<rect x="597.5" y="119.9" class="st0" width="8.7" height="6.3"/>
			<rect x="608.1" y="119.9" class="st0" width="8.7" height="6.3"/>
			<rect x="618.7" y="119.9" class="st0" width="8.7" height="6.3"/>
			<rect x="629.3" y="119.9" class="st0" width="8.7" height="6.3"/>
		</g>
	</g>
	<g>
		<g>
			<rect x="2" y="0.9" class="st1" width="319.7" height="12.7"/>
			<rect x="4.1" y="4.5" class="st0" width="8.7" height="6.3"/>
			<rect x="14.7" y="4.5" class="st0" width="8.7" height="6.3"/>
			<rect x="25.3" y="4.5" class="st0" width="8.7" height="6.3"/>
			<rect x="35.9" y="4.5" class="st0" width="8.7" height="6.3"/>
			<rect x="46.5" y="4.5" class="st0" width="8.7" height="6.3"/>
			<rect x="57.1" y="4.5" class="st0" width="8.7" height="6.3"/>
			<rect x="67.7" y="4.5" class="st0" width="8.7" height="6.3"/>
			<rect x="78.3" y="4.5" class="st0" width="8.7" height="6.3"/>
			<rect x="88.9" y="4.5" class="st0" width="8.7" height="6.3"/>
			<rect x="99.5" y="4.5" class="st0" width="8.7" height="6.3"/>
			<rect x="110.1" y="4.5" class="st0" width="8.7" height="6.3"/>
			<rect x="120.7" y="4.5" class="st0" width="8.7" height="6.3"/>
			<rect x="131.3" y="4.5" class="st0" width="8.7" height="6.3"/>
			<rect x="141.9" y="4.5" class="st0" width="8.7" height="6.3"/>
			<rect x="152.5" y="4.5" class="st0" width="8.7" height="6.3"/>
			<rect x="163.1" y="4.5" class="st0" width="8.7" height="6.3"/>
			<rect x="173.7" y="4.5" class="st0" width="8.7" height="6.3"/>
			<rect x="184.3" y="4.5" class="st0" width="8.7" height="6.3"/>
			<rect x="194.9" y="4.5" class="st0" width="8.7" height="6.3"/>
			<rect x="205.5" y="4.5" class="st0" width="8.7" height="6.3"/>
			<rect x="216.1" y="4.5" class="st0" width="8.7" height="6.3"/>
			<rect x="226.7" y="4.5" class="st0" width="8.7" height="6.3"/>
			<rect x="237.3" y="4.5" class="st0" width="8.7" height="6.3"/>
			<rect x="247.9" y="4.5" class="st0" width="8.7" height="6.3"/>
			<rect x="258.5" y="4.5" class="st0" width="8.7" height="6.3"/>
			<rect x="269.1" y="4.5" class="st0" width="8.7" height="6.3"/>
			<rect x="279.7" y="4.5" class="st0" width="8.7" height="6.3"/>
			<rect x="290.2" y="4.5" class="st0" width="8.7" height="6.3"/>
			<rect x="300.8" y="4.5" class="st0" width="8.7" height="6.3"/>
			<rect x="311.4" y="4.5" class="st0" width="8.7" height="6.3"/>
		</g>
		<g>
			<rect x="320.4" y="0.9" class="st1" width="319.7" height="12.7"/>
			<rect x="322.5" y="4.5" class="st0" width="8.7" height="6.3"/>
			<rect x="333.1" y="4.5" class="st0" width="8.7" height="6.3"/>
			<rect x="343.7" y="4.5" class="st0" width="8.7" height="6.3"/>
			<rect x="354.3" y="4.5" class="st0" width="8.7" height="6.3"/>
			<rect x="364.9" y="4.5" class="st0" width="8.7" height="6.3"/>
			<rect x="375.4" y="4.5" class="st0" width="8.7" height="6.3"/>
			<rect x="386" y="4.5" class="st0" width="8.7" height="6.3"/>
			<rect x="396.6" y="4.5" class="st0" width="8.7" height="6.3"/>
			<rect x="407.2" y="4.5" class="st0" width="8.7" height="6.3"/>
			<rect x="417.8" y="4.5" class="st0" width="8.7" height="6.3"/>
			<rect x="428.4" y="4.5" class="st0" width="8.7" height="6.3"/>
			<rect x="439" y="4.5" class="st0" width="8.7" height="6.3"/>
			<rect x="449.6" y="4.5" class="st0" width="8.7" height="6.3"/>
			<rect x="460.2" y="4.5" class="st0" width="8.7" height="6.3"/>
			<rect x="470.8" y="4.5" class="st0" width="8.7" height="6.3"/>
			<rect x="481.4" y="4.5" class="st0" width="8.7" height="6.3"/>
			<rect x="492" y="4.5" class="st0" width="8.7" height="6.3"/>
			<rect x="502.6" y="4.5" class="st0" width="8.7" height="6.3"/>
			<rect x="513.2" y="4.5" class="st0" width="8.7" height="6.3"/>
			<rect x="523.8" y="4.5" class="st0" width="8.7" height="6.3"/>
			<rect x="534.4" y="4.5" class="st0" width="8.7" height="6.3"/>
			<rect x="545" y="4.5" class="st0" width="8.7" height="6.3"/>
			<rect x="555.6" y="4.5" class="st0" width="8.7" height="6.3"/>
			<rect x="566.2" y="4.5" class="st0" width="8.7" height="6.3"/>
			<rect x="576.8" y="4.5" class="st0" width="8.7" height="6.3"/>
			<rect x="587.4" y="4.5" class="st0" width="8.7" height="6.3"/>
			<rect x="598" y="4.5" class="st0" width="8.7" height="6.3"/>
			<rect x="608.6" y="4.5" class="st0" width="8.7" height="6.3"/>
			<rect x="619.2" y="4.5" class="st0" width="8.7" height="6.3"/>
			<rect x="629.8" y="4.5" class="st0" width="8.7" height="6.3"/>
		</g>
	</g>
</g>
<g>
</g>
<g>
</g>
<g>
</g>
<g>
</g>
<g>
</g>
<g>
</g>
<g>
</g>
<g>
</g>
<g>
</g>
<g>
</g>
<g>
</g>
<g>
</g>
<g>
</g>
<g>
</g>
<g>
</g>
</svg>
