<svg id="icon_red" xmlns="http://www.w3.org/2000/svg" viewBox="0 0 197.62 153.11"><defs><style>.cls-1{opacity:0.5;}.cls-2{fill:#fff;}</style></defs><title>button_icon_red</title><g class="cls-1"><path class="cls-2" d="M45.38,150.21L82,133.43c3.45,17.77-6.1,32.53-23.26,40.48A40.31,40.31,0,1,1,24.8,100.78c18.62-8.64,33.64-4.44,46.73,10.11Zm-3.36-35a4.68,4.68,0,1,0,6.21,2.27A4.68,4.68,0,0,0,42,115.25Z" transform="translate(-1.19 -24.79)"/><path class="cls-2" d="M41.83,177.9A40.56,40.56,0,0,1,24.7,100.56c18-8.34,33.35-5,47,10.17l0.13,0.14L46.06,149.63l36.12-16.55,0.06,0.31c3.33,17.17-5.41,32.41-23.4,40.75A40.33,40.33,0,0,1,41.83,177.9Zm1.12-81.3a42.88,42.88,0,0,0-18,4.41,40.06,40.06,0,0,0,33.72,72.69c17.66-8.19,26.3-23.1,23.18-39.91l-37.12,17,26.53-39.88C62.57,101.35,53.22,96.6,42.95,96.6Zm1,27.82A4.92,4.92,0,0,1,41.91,115h0A4.92,4.92,0,1,1,44,124.42Zm-1.87-8.94A4.43,4.43,0,1,0,48,117.63a4.44,4.44,0,0,0-5.88-2.15h0Z" transform="translate(-1.19 -24.79)"/><rect class="cls-2" x="71.99" y="94.83" width="31.82" height="1.47" transform="translate(-41.77 89.54) rotate(-55.7)"/><rect class="cls-2" x="81.11" y="106.32" width="34.86" height="1.47" transform="translate(-44.38 49.34) rotate(-34.3)"/><rect class="cls-2" x="88.3" y="122.18" width="31.97" height="1.47" transform="translate(-17.83 -8.47) rotate(-8.29)"/><path class="cls-2" d="M124.08,48.58c10.17-16.73,24.14-23.65,44-18.62a40.31,40.31,0,1,1-19.75,78.16C130,103.49,117.91,90.77,118,72.67l39.1,9.69Zm24.14,2.19a4.68,4.68,0,1,0,5.68-3.39A4.68,4.68,0,0,0,148.22,50.77Z" transform="translate(-1.19 -24.79)"/><path class="cls-2" d="M158.32,109.62a40.81,40.81,0,0,1-10-1.25c-19.22-4.86-30.65-18.2-30.56-35.7V72.36l38.56,9.55L123.77,48.62l0.1-.16C134.48,31,149,24.87,168.18,29.73A40.57,40.57,0,0,1,158.32,109.62ZM118.24,73c0.05,17.1,11.32,30.14,30.19,34.91A40.06,40.06,0,1,0,168.06,30.2c-18.91-4.78-33.2,1.22-43.67,18.34L157.87,82.8Zm34.52-16.15A4.92,4.92,0,0,1,148,50.71h0A4.92,4.92,0,1,1,152.76,56.84Zm-4.53-6.07,0.24,0.06a4.43,4.43,0,1,0,5.38-3.21,4.44,4.44,0,0,0-5.38,3.21Z" transform="translate(-1.19 -24.79)"/><rect class="cls-2" x="104.42" y="20.66" width="1.47" height="31.82" transform="translate(3.75 60.27) rotate(-45)"/><rect class="cls-2" x="96.1" y="32.41" width="1.47" height="34.86" transform="translate(11.22 93.85) rotate(-66.41)"/><rect class="cls-2" x="78.15" y="65.75" width="31.97" height="1.47" transform="translate(-3.92 -20.75) rotate(-2.43)"/></g></svg>