<svg id="icon_blue" xmlns="http://www.w3.org/2000/svg" viewBox="0 0 118.87 194.63"><defs><style>.cls-1{opacity:0.5;}.cls-2{fill:#fff;}</style></defs><title>button_icon_blue</title><g class="cls-1"><path class="cls-2" d="M200,196.86l-118.87.45,0.09-13.13,6.76-.09,4.92-5.72,24.63-.33,0.1-24.49,21.83,0,0.7,24.55,8.16-.07-0.55-44.12-50,.61,0-5.55,59.18-.91,0.05-3.62-44.42,3.44L157,122.62V119l-8.94-20-8.17.2,0,6.19-4.07,0,0,15.63-1.81.05-1.18,1-1.47.06a3.4,3.4,0,0,1-2.93,1.52,3.25,3.25,0,0,1-3-1.49l-1.61,0-1-1.06-2.06,0-0.11-17.77s1,0.83-1,0l-8.17,13.16-1.76-1-1.24.41-1.29-.66a3.46,3.46,0,0,1-2.7-.11,2.65,2.65,0,0,1-1.26-2.24l-1.22-.73-0.19-1.15-1.63-1.05,7.95-12.83-7,7-0.87-.73-1,.11-0.94-.83a1.26,1.26,0,0,1-1.37-.36,1,1,0,0,1-.43-1.31l-0.85-.78,0.22-.93L95,98.53l5.33-7s-1.81-1.87-3.17-3.66l2.51-3.2,0-8.88S102.59,65.11,110,60.15a22,22,0,0,1,15.07-3.49l20.12-54L163,9.16,143.38,63.37s3,1.51,5.25,6.24a18.12,18.12,0,0,1,1.58,9.28l37,30.76,0.4,61.56,12.28,17.18Zm-33.34-54.14a13.54,13.54,0,1,0,13.54,13.54A13.54,13.54,0,0,0,166.66,142.72Z" transform="translate(-81.13 -2.69)"/><circle class="cls-2" cx="85.43" cy="153.56" r="8.14"/></g></svg>