<svg id="icon_purple" xmlns="http://www.w3.org/2000/svg" viewBox="0 0 196.3 162.3"><defs><style>.cls-1{opacity:0.5;}.cls-2{fill:#fff;}</style></defs><title>button_icon_violet</title><g class="cls-1"><polygon class="cls-2" points="87.95 62.58 87.5 62.58 87.5 62.58 87.95 62.58 87.95 62.58"/><path class="cls-2" d="M45.71,158.91" transform="translate(-2.7 -18.85)"/><path class="cls-2" d="M73.65,181.15S2.16,161,2.71,115C3,92,16.62,80.24,30.77,73.62c16-3.25,33.38-8.87,33.38-8.87S59,44.82,42.44,44.82l-4,0s0.64-.09.65-2.68a5,5,0,0,0-1.86-3.93S37,35.4,33,30.53s-9.22-11.39-9.22-11.39L177,18.85s-4.72,6.12-9.08,12-4.29,7.34-4.29,7.34-1.38.87-1.48,4.4l0.4,2.21h-4.07c-21.24.4-22.12,19.08-22.12,19.08-1.77.3,19.82,6.19,33.72,9.15,15.53,6.34,28.88,17.36,28.93,40.9,0.09,43.51-69.1,67.21-69.1,67.21M100.64,81.68c-7.92,0-14.35,5.64-14.35,12.59s6.42,12.59,14.35,12.59S115,101.23,115,94.28,108.57,81.68,100.64,81.68Z" transform="translate(-2.7 -18.85)"/></g></svg>