<svg id="icon_yellow" xmlns="http://www.w3.org/2000/svg" viewBox="0 0 191.45 166.36"><defs><style>.cls-1{opacity:0.5;}.cls-2{fill:#fff;}</style></defs><title>button_icon_yellow</title><g class="cls-1"><rect class="cls-2" x="93.76" y="118" width="46.35" height="0.3" transform="translate(-43.3 38.65) rotate(-23.86)"/><path class="cls-2" d="M139,105.55l51-22.81a0.7,0.7,0,0,1,.93.35l5.94,13.29a0.7,0.7,0,0,1-.35.93l-62.47,27.93Zm52.62-20.41-0.12-.27-53,23.41,0.12,0.27Zm2,4.26-0.12-.27-56.63,25,0.12,0.27Zm1.46,3.29L195,92.42l-59.18,26.13,0.12,0.27Zm1.47,3.22-0.12-.27-61.84,27.31,0.12,0.27Z" transform="translate(-5.5 -18.75)"/><rect class="cls-2" x="95.67" y="122.88" width="42.49" height="0.3" transform="translate(-44.18 36.47) rotate(-22.91)"/><rect class="cls-2" x="97.24" y="126.81" width="39.68" height="0.3" transform="translate(-45.88 37.25) rotate(-23.06)"/><rect class="cls-2" x="99.17" y="130.71" width="36.83" height="0.3" transform="translate(-48.14 39.44) rotate(-23.66)"/><path class="cls-2" d="M86.41,185.11L5.5,164.22,43.06,18.75,154,47.4,124.67,161.14Zm37.71-24.77-30.2-7.8-8.17,31.64Zm10.57-99.89L54.58,39.76l-0.3,1.15L134.39,61.6Zm-3.43,13.28L51.15,53l-0.3,1.15L131,74.88Zm-3.4,13.75L47.75,66.79l-0.3,1.15,80.11,20.68Zm-3.17,14.35L44.58,81.14l-0.3,1.15L124.39,103Zm-11.08,13.08L40.93,96,40.66,97.1,113.34,116Zm-22.56,10.4-53.77-14-0.2.79,53.77,14Zm-9.32,14.28L33.48,127.13l-0.3,1.15,48.26,12.46ZM88.37,140L86.11,135l-4,4.94Zm13.2-.38,94.66-42.33a0.7,0.7,0,0,0,.35-0.93L190.65,83.1a0.7,0.7,0,0,0-.93-0.35L94.63,125.26a0.7,0.7,0,0,0,0,1.27l0.69,0.35a0.7,0.7,0,0,1,.36.84l-0.45,1.44a0.7,0.7,0,0,0,.4.86l1.28,0.54a0.7,0.7,0,0,1,.38.91l-0.44,1.11a0.7,0.7,0,0,0,.4.91l1.27,0.5a0.7,0.7,0,0,1,.4.91l-0.49,1.24a0.7,0.7,0,0,0,.37.9l1.55,0.7a0.7,0.7,0,0,1,.34,1h0A0.7,0.7,0,0,0,101.57,139.65Zm-7.33-13.8-0.13-.11-7.91,9,0.13,0.11Zm6.58,14.07v-0.17L88.34,140v0.17ZM139,105.55l51-22.81a0.7,0.7,0,0,1,.93.35l5.94,13.29a0.7,0.7,0,0,1-.35.93l-62.47,27.93Z" transform="translate(-5.5 -18.75)"/></g></svg>