<svg id="icon_green" xmlns="http://www.w3.org/2000/svg" viewBox="0 0 186.24 182.53"><defs><style>.cls-1{opacity:0.5;}.cls-2{fill:#fff;}</style></defs><title>button_icon_green</title><g class="cls-1"><path class="cls-2" d="M162.63,189.26L6.88,154.07l19-84,155.75,35.18ZM37.13,80.62l-5.4-1.22-0.3,1.31,1.94,0.44-1.48,6.57,1.52,0.34,1.48-6.57,1.95,0.44ZM36.24,88.7L37.75,89l1.78-7.88L38,80.82Zm9.6-6.11-5.4-1.22-0.3,1.31,1.94,0.44-1.48,6.57L42.11,90l1.48-6.57,1.95,0.44Zm3.73,7.78-2.82-.64,1.49-6.6-1.52-.34-1.78,7.88,4.33,1ZM55,91.6l-2.89-.65,0.5-2.19,2.57,0.58,0.28-1.24-2.57-.58,0.43-1.91L56,86.23,56.31,85l-4.24-1-1.78,7.88,4.41,1Zm116.19,34L26.49,93m-4.41,20.56,144.69,32.69M26.07,107.74a13.92,13.92,0,0,0,1.69.49,4.8,4.8,0,0,0,3.4-.24A4.22,4.22,0,0,0,33.08,105a3.76,3.76,0,0,0-.51-3.28,4.38,4.38,0,0,0-2.67-1.47,11.91,11.91,0,0,0-2.08-.3Zm3-6.32a4,4,0,0,1,.73.1c1.4,0.32,2.08,1.39,1.67,3.18-0.47,2.07-1.63,2.74-3.07,2.41a3.48,3.48,0,0,1-.58-0.16Zm9.56,0.91-1.91-.43-4,7.37,1.54,0.35,1-2,2.11,0.48,0.09,2.21,1.59,0.36Zm-2.89,4.23,0.88-1.7c0.22-.44.5-1.05,0.71-1.52h0c0,0.5,0,1.17,0,1.69l0.07,1.9Zm10.89-2.43-5.4-1.22-0.3,1.31,1.94,0.44-1.48,6.57,1.52,0.34L44.39,105l1.95,0.44Zm3.8,7.8-2.89-.65,0.5-2.19,2.57,0.58,0.28-1.24-2.57-.58,0.43-1.91,2.73,0.62,0.29-1.27-4.24-1-1.78,7.88,4.41,1ZM26.22,128.29l-2.82-.64,1.49-6.6-1.52-.34-1.78,7.88,4.33,1Zm5.5-5.82c-2.06-.47-3.75,1-4.28,3.33s0.27,4.29,2.35,4.76,3.67-.65,4.29-3.39C34.55,125.07,33.9,123,31.72,122.47ZM31.4,123.7c1.16,0.26,1.4,1.73,1.07,3.17s-1.23,2.72-2.35,2.46-1.43-1.66-1.08-3.21S30.21,123.43,31.4,123.7Zm8.05,7.44a3.63,3.63,0,0,1-1.33-.06c-1.42-.32-2.12-1.48-1.72-3.26s1.68-2.56,3-2.27a3.17,3.17,0,0,1,1.2.54l0.57-1.16a3.78,3.78,0,0,0-1.56-.66c-2.09-.47-4.18.52-4.8,3.28-0.53,2.34.42,4.24,2.79,4.77a4.55,4.55,0,0,0,1.81.1Zm6.35-5.36-1.91-.43-4,7.37,1.54,0.35,1-2,2.11,0.48,0.09,2.21,1.59,0.36ZM42.9,130l0.88-1.7c0.22-.44.5-1.05,0.71-1.52h0c0,0.5,0,1.17,0,1.69l0.07,1.9Zm10.89-2.43-5.4-1.22-0.3,1.31L50,128.11l-1.48,6.57L50.06,135l1.48-6.57,1.95,0.44Zm-0.89,8.08L54.42,136l1.78-7.88-1.52-.34ZM60.73,129c-2.06-.47-3.75,1-4.28,3.33s0.27,4.29,2.35,4.76,3.67-.65,4.29-3.39C63.56,131.62,62.92,129.52,60.73,129Zm-0.32,1.23c1.16,0.26,1.4,1.73,1.07,3.17s-1.23,2.72-2.35,2.46-1.43-1.66-1.08-3.21S59.23,130,60.41,130.25Zm10.44,1.18-1.37-.31-0.53,2.37c-0.29,1.28-.5,2.41-0.64,3.43h0a25.81,25.81,0,0,0-.6-2.84l-0.94-3.57-1.64-.37L63.33,138l1.37,0.31,0.55-2.42c0.32-1.4.54-2.52,0.69-3.5h0a27.49,27.49,0,0,0,.61,2.92l1,3.64,1.52,0.34Z" transform="translate(-6.88 -6.73)"/><path class="cls-2" d="M183,106.45L24.07,70.55l4.37-19.32,158.92,35.9ZM66.12,60.76L48,56.66,30.61,71.09l18.11,4.09Zm32.74,7.39L80.75,64.06,63.35,78.49l18.11,4.09Zm33.43,7.6-18.11-4.09L96.78,86.09l18.11,4.09Zm33.95,7.67-18.11-4.09L130.72,93.76l18.11,4.09Z" transform="translate(-6.88 -6.73)"/><path class="cls-2" d="M184.77,93.38L37,24.69l8.35-18L193.12,75.41Zm-117-75.26L50.89,10.29l5,22.05,16.84,7.83ZM98.17,32.28L81.33,24.45l5,22.05,16.84,7.83Zm31.1,14.41-16.84-7.83,5,22.05,16.84,7.83Zm31.56,14.67L144,53.53l5,22.05,16.84,7.83Zm18.32,14.17a2.8,2.8,0,1,0,2.11,3.34A2.8,2.8,0,0,0,179.15,75.52Z" transform="translate(-6.88 -6.73)"/></g></svg>