<?xml version="1.0"?>
<svg xmlns="http://www.w3.org/2000/svg" id="contents" viewBox="0 0 165 165">
  <defs>
    <style>
      .cls-1 {
        fill: #fff;
      }
    </style>
  </defs>
  <title>icon_green</title>
  <path class="cls-1" d="M165,82.5A82.5,82.5,0,1,1,82.5,0,82.53,82.53,0,0,1,165,82.5Zm-29.51,2.41L34.74,62.11,22.4,116.44l100.74,22.8ZM41.72,69.76l-1.21-.27-.94,4.29-.94-.27.94-4.29L38.37,69l.13-.8L42,69Zm.8-.67.94.27-1.21,5.1-.94-.27Zm4.83,2-1.21-.27-.94,4.29-.94-.27.94-4.29L44,70.29l.13-.8,3.49.8Zm2.41,5L47,75.39l1.21-5.1.94.27-.94,4.29,1.88.4Zm3.49.8-2.82-.67,1.21-5.1,2.68.67-.13.8-1.74-.4-.27,1.21,1.61.4-.13.8L52,74.18l-.27,1.48,1.88.4Zm75.39,21.2L35,76.87m90.82,34.48L32.2,90.15M36,81.43c.4,0,.8.13,1.34.13A3.12,3.12,0,0,1,39,82.5a2.29,2.29,0,0,1,.27,2.15,3,3,0,0,1-1.21,1.88,2.88,2.88,0,0,1-2.15.13,6,6,0,0,0-1.07-.27ZM36,86c.13,0,.27.13.4.13.94.27,1.74-.27,2-1.61s-.13-1.88-1.07-2h-.54ZM43.2,88.4l-1.07-.27V86.66l-1.34-.27-.67,1.21-.94-.27,2.55-4.83,1.21.27ZM42.12,86V83.71h0c-.13.27-.27.67-.4.94l-.54,1.07ZM47.89,85l-1.21-.27-.94,4.29-.94-.27.94-4.29-1.21-.27.13-.8,3.49.8Zm2.41,5-2.82-.67,1.21-5.1,2.68.67-.13.8-1.74-.4-.27,1.21,1.61.4-.13.8-1.61-.4-.27,1.48,1.88.4Zm-15.56,10.6-2.82-.67,1.21-5.1.94.27-.94,4.29,1.88.4ZM40,99c-.4,1.74-1.48,2.41-2.82,2.15s-1.88-1.61-1.48-3.09,1.48-2.41,2.82-2.15S40.24,97.66,40,99Zm-3.22-.67c-.27.94,0,1.88.67,2s1.34-.54,1.48-1.61,0-1.88-.67-2S36.89,97.39,36.76,98.33Zm6.71,4.16H42.26a2.34,2.34,0,0,1-1.74-3.09,2.55,2.55,0,0,1,3.09-2.15,2.94,2.94,0,0,1,1.07.4l-.4.8a2.18,2.18,0,0,0-.8-.4,1.62,1.62,0,0,0-1.88,1.48c-.27,1.21.13,1.88,1.07,2.15a.84.84,0,0,0,.8,0Zm4.29,1.07-1.07-.27v-1.48l-1.34-.27-.67,1.21-.94-.27,2.55-4.83,1.21.27Zm-.94-2.41V98.87h0c-.13.27-.27.67-.4.94l-.54,1.07Zm5.77-.94-1.21-.27-.94,4.29L49.5,104l.94-4.29-1.21-.27.13-.8,3.49.8Zm.67-.8.94.27L53,104.77l-.8-.27Zm5.5,3.89c-.4,1.74-1.48,2.41-2.82,2.15s-1.88-1.61-1.48-3.09,1.48-2.41,2.82-2.15S59,102,58.76,103.29Zm-3.22-.67c-.27.94,0,1.88.67,2s1.34-.54,1.48-1.61,0-1.88-.67-2S55.67,101.68,55.54,102.62Zm7.11,4.29-.94-.27L61,104.23c-.13-.54-.27-1.34-.4-1.88h0c-.13.67-.27,1.34-.4,2.28l-.4,1.61-.94-.13L60.1,101l1.07.27.67,2.28c.13.54.27,1.21.4,1.88h0c.13-.67.27-1.34.4-2.28l.4-1.48.94.13Zm76.46-35.15L36.22,48.56,33.4,61,136.29,84.24ZM49.5,64,37.83,61.3,49.1,51.91,60.77,54.6Zm21.06,4.83L58.89,66.13l11.27-9.39,11.67,2.68Zm21.73,5L80.62,71.1l11.27-9.39,11.67,2.68Zm22,5-11.67-2.68,11.27-9.39,11.67,2.68Zm30-18.78L48.7,15.56,43.33,27.23,139,71.63ZM66.27,37.16,55.4,32.06,52.18,17.84,63,22.94ZM86,46.41l-10.87-5.1L71.9,27.1l10.87,5.1Zm20.12,9.26-10.87-5.1L92,36.35l10.87,5.1Zm20.52,9.52-10.87-5.1-3.22-14.22L123.41,51Zm9.93-3a1.79,1.79,0,1,1-1.34-2.15A1.81,1.81,0,0,1,136.56,62.24Z"/>
</svg>
