<?xml version="1.0"?>
<svg xmlns="http://www.w3.org/2000/svg" id="contents" viewBox="0 0 165 165">
  <defs>
    <style>
      .cls-1 {
        fill: #fff;
      }
    </style>
  </defs>
  <title>icon_yellow</title>
  <path class="cls-1" d="M165,82.5A82.5,82.5,0,1,1,82.5,0,82.53,82.53,0,0,1,165,82.5Zm-47.09,3.35-.13-.13L87.33,99.13l.13.13Zm-3,11.67,44.8-20a.49.49,0,0,0,.27-.67l-4.29-9.52a.49.49,0,0,0-.67-.27L118.45,83.44Zm3.22-11.94-.13-.13,38-16.77.13.13Zm-1.07,4.16-.13-.13,40.65-18,.13.13ZM116.3,93l-.13-.13L158.56,74l.13.13ZM115.37,96l-.13-.13,44.4-19.59.13.13Zm1.34-5.9-.13-.13-28,11.8.13.13Zm-.8,3.22-.13-.13L89.61,104.37l.13.13Zm-.67,3-.13-.13L91,106.78l.13.13Zm-7.11,27,21.06-81.56L49.63,21.2l-27,104.37,58.09,15Zm-27.9,16.5,5.9-22.67,21.6,5.63ZM115.1,51.91,57.68,37l.27-.8,57.41,14.89Zm-2.41,9.52L55.27,46.55l.27-.8L113,60.63Zm-2.41,9.79L52.85,56.48l.27-.8,57.41,14.89ZM108,81.56,50.57,66.67l.27-.8,57.41,14.89ZM100.07,91,47.89,77.4l.13-.8,52.18,13.55ZM84,98.2,45.48,88.13l.13-.54,38.5,10.06Zm-6.84,10.46-34.61-9,.27-.8,34.61,9Zm.54-.54,2.82-3.49,1.61,3.62ZM91,107.18h0a.49.49,0,0,0-.27-.67L89.61,106a.49.49,0,0,1-.27-.67l.4-.94a.49.49,0,0,0-.27-.67l-.94-.4a.49.49,0,0,1-.27-.67l.27-.8a.49.49,0,0,0-.27-.67l-.94-.4a.49.49,0,0,1-.27-.67L87.33,99c.13-.27,0-.54-.27-.54l-.54-.27c-.4-.13-.4-.67,0-.94L154.67,66.8a.49.49,0,0,1,.67.27l4.29,9.52a.49.49,0,0,1-.27.67L91.49,107.59C91.22,108.12,90.68,107.59,91,107.18ZM80.62,104.5h0l5.63-6.57.13.13Zm1.48,3.76h0l9-.27v.13ZM115,97.52l44.8-20a.49.49,0,0,0,.27-.67l-4.29-9.52a.49.49,0,0,0-.67-.27L118.45,83.44Z"/>
</svg>
