<?xml version="1.0"?>
<svg xmlns="http://www.w3.org/2000/svg" id="contents" viewBox="0 0 165 165">
  <defs>
    <style>
      .cls-1 {
        fill: #fff;
      }
    </style>
  </defs>
  <title>icon_purple</title>
  <path class="cls-1" d="M165,82.5A82.5,82.5,0,1,1,82.5,0C128,.13,165,37,165,82.5Zm-87.87-11h0Zm20.93,53S135,111.88,134.82,88.67c0-12.48-7.11-18.38-15.43-21.73-7.38-1.61-18.91-4.7-18-4.83,0,0,.54-9.93,11.8-10.2h2.15l-.27-1.21c0-1.88.8-2.28.8-2.28s0-.8,2.28-3.89S123,38.1,123,38.1l-81.56.13s2.82,3.49,5,6,2.28,4,2.28,4a2.67,2.67,0,0,1,.94,2.15c0,1.48-.4,1.48-.4,1.48h2.15c8.85,0,11.54,10.6,11.54,10.6s-9.26,3-17.71,4.7C37.7,70.7,30.45,77,30.32,89.21,30,113.62,68,124.35,68,124.35m22.13-46c0,3.76-3.35,6.71-7.65,6.71s-7.65-3-7.65-6.71,3.35-6.71,7.65-6.71S90.15,74.59,90.15,78.34Z"/>
</svg>
