<?xml version="1.0"?>
<svg xmlns="http://www.w3.org/2000/svg" id="contents" viewBox="0 0 165 165">
  <defs>
    <style>
      .cls-1 {
        fill: #fff;
      }
    </style>
  </defs>
  <title>icon_blue</title>
  <path class="cls-1" d="M165,82.5A82.5,82.5,0,1,1,82.5,0,82.53,82.53,0,0,1,165,82.5Zm-41,54.87-8.72-12.07L115,82l-26-21.73a13.8,13.8,0,0,0-1.07-6.57,9.62,9.62,0,0,0-3.76-4.43L97.93,11,85.45,6.44,71.23,44.54A15.28,15.28,0,0,0,60.63,47c-5.23,3.49-7.24,11-7.24,11v6.3l-1.74,2.28a32.93,32.93,0,0,0,2.28,2.55l-3.76,5,.67.67-.13.67.54.54s-.27.4.27.94.94.27.94.27l.67.54.67-.13.67.54,5-5-5.63,9,1.21.8.13.8.8.54a2,2,0,0,0,.94,1.61,2.26,2.26,0,0,0,1.88.13l.94.4.94-.27,1.21.67,5.77-9.26c1.34.67.67,0,.67,0L68.41,90h1.48l.67.8h1.07a2.32,2.32,0,0,0,2.15,1.07,2.22,2.22,0,0,0,2-1.07h1.07l.8-.67H79v-11h2.82V74.72l5.77-.13,6.3,14.09v2.55L62.65,95,93.9,92.56v2.55l-41.72.67v3.89l35.15-.4.4,31.12H82l-.54-17.3H66l-.13,17.3-17.3.27-3.49,4h-4.7v9.26l83.71-.27Zm-14-22.54a9.52,9.52,0,1,1-9.52-9.52A9.39,9.39,0,0,1,110,114.83Zm-9.52-5.77a5.77,5.77,0,1,0,5.77,5.77A5.9,5.9,0,0,0,100.48,109.06Z"/>
</svg>
