<?xml version="1.0"?>
<svg xmlns="http://www.w3.org/2000/svg" id="contents" viewBox="0 0 165 165">
  <defs>
    <style>
      .cls-1 {
        fill: #fff;
      }
    </style>
  </defs>
  <title>icon_red</title>
  <path class="cls-1" d="M165,82.5A82.5,82.5,0,1,1,82.57,0,82.56,82.56,0,0,1,165,82.5ZM63.37,88.94c-8.73-9.66-18.8-12.48-31.28-6.71a27,27,0,1,0,22.69,49c11.41-5.37,17.86-15.16,15.57-27.1L45.92,115.37ZM47.79,93.37a3.21,3.21,0,0,1-1.48,4.16A3.27,3.27,0,0,1,42.16,96a3.21,3.21,0,0,1,1.48-4.16A3.14,3.14,0,0,1,47.79,93.37Zm7.12,37.83C67,125.56,72.77,115.5,70.48,104v-.27l-24.17,11L63.5,88.8l-.13-.13C54.24,78.48,43.9,76.33,32,81.83a27.22,27.22,0,0,0-14.1,15.29,27,27,0,0,0,25.37,36.35A23.11,23.11,0,0,0,54.91,131.2Zm8.32-42.26-17.72,26.7,24.84-11.4c2.15,11.27-3.62,21.2-15.44,26.7a26.82,26.82,0,0,1-35.58-13,26.83,26.83,0,0,1,13-35.55,27.57,27.57,0,0,1,12.08-3C51.15,79.41,57.46,82.5,63.23,88.94ZM46.45,97.66a3.33,3.33,0,1,0-2.82-6h0A3.34,3.34,0,0,0,42,96a3.22,3.22,0,0,0,3,1.88A2.89,2.89,0,0,0,46.45,97.66ZM43.77,92a2.94,2.94,0,1,1-1.48,3.89A3,3,0,0,1,43.77,92ZM80.82,70.16,80,69.62,68.07,87.2l.81.54ZM91.43,80.22l-.54-.8L71.69,92.56l.54.8ZM96,95.91,95.86,95,74.65,98.06l.13.94Zm24.57-26L94.38,63.45c0,12.07,8.06,20.52,20.27,23.74A26.92,26.92,0,1,0,127.95,35c-13.29-3.35-22.69,1.21-29.4,12.48Zm-2.15-23.34a3.11,3.11,0,1,1-3.76,2.28A3.08,3.08,0,0,1,118.41,46.55Zm16.92,37.7a27.09,27.09,0,0,0-7.25-49.5c-12.89-3.22-22.55.8-29.67,12.48v.13l21.75,22.27L94.38,63.18v.27c0,11.67,7.52,20.66,20.41,23.88a28.7,28.7,0,0,0,6.71.8A27.32,27.32,0,0,0,135.33,84.24ZM121.1,70.16,98.68,47.22c7-11.4,16.51-15.43,29.13-12.21a26.9,26.9,0,0,1,19.47,32.46,26.06,26.06,0,0,1-12.22,16.37,26.8,26.8,0,0,1-20.27,3c-12.62-3.22-20.14-11.94-20.14-23.34ZM121,50.3a2.94,2.94,0,0,0-.4-2.55,2.81,2.81,0,0,0-2-1.48,3.45,3.45,0,0,0-4,2.41h0a3.44,3.44,0,0,0,2.42,4,1.7,1.7,0,0,0,.81.13A3.43,3.43,0,0,0,121,50.3Zm-6.18-1.48a3,3,0,0,1,3.62-2.15A2.78,2.78,0,0,1,120.29,48a2.7,2.7,0,0,1,.27,2.28,3,3,0,0,1-3.62,2.15,3.07,3.07,0,0,1-2.15-3.62h0ZM93.71,46.41l-15-15-.67.67,15,15Zm-2.55,5.9L69.81,43.06l-.4.94,21.35,9.26Zm-1.88,7v-.94l-21.35.94v.94Z"/>
</svg>
