<?xml version="1.0" encoding="utf-8"?>
<!-- Generator: Adobe Illustrator 21.1.0, SVG Export Plug-In . SVG Version: 6.00 Build 0)  -->
<svg version="1.1" id="レイヤー_1" xmlns="http://www.w3.org/2000/svg" xmlns:xlink="http://www.w3.org/1999/xlink" x="0px"
	 y="0px" viewBox="0 0 505.8 54.4" style="enable-background:new 0 0 505.8 54.4;" xml:space="preserve">
<style type="text/css">
	.st0{fill:none;stroke:url(#SVGID_1_);stroke-width:5;stroke-miterlimit:10;}
</style>
<g>
	<path d="M11.6,39.1L4.7,6.2c-0.1-0.8,0-1.4,0.5-2C5.6,3.6,6.2,3.3,7,3.3c0.9,0,1.6,0.3,2.3,0.8c0.7,0.6,1.1,1.3,1.2,2.1l5.2,29.3
		c0,0,0,0.1,0.1,0.1c0,0,0.1,0,0.1-0.1l5.2-29.3c0.2-0.9,0.6-1.6,1.2-2.1c0.7-0.6,1.4-0.9,2.3-0.9H26c0.9,0,1.7,0.3,2.3,0.9
		c0.7,0.6,1.1,1.3,1.2,2.1l5.3,29.3c0,0,0,0.1,0.1,0.1c0,0,0.1,0,0.1-0.1l5.2-29.5c0.1-0.8,0.5-1.5,1.2-2c0.7-0.5,1.4-0.8,2.2-0.8
		c0.8,0,1.4,0.3,1.8,0.9c0.5,0.6,0.6,1.2,0.4,2l-7,33c-0.2,0.9-0.6,1.6-1.3,2.1c-0.7,0.5-1.5,0.8-2.4,0.8h-1.1
		c-0.9,0-1.7-0.3-2.3-0.9c-0.6-0.6-1-1.3-1.2-2.1L25.3,9.7c0,0,0-0.1-0.1-0.1c0,0-0.1,0-0.1,0.1L19.9,39c-0.1,0.9-0.5,1.6-1.2,2.1
		C18,41.7,17.2,42,16.3,42h-1.1c-0.9,0-1.7-0.3-2.4-0.8C12.2,40.7,11.8,40,11.6,39.1z"/>
	<path d="M54.8,41.2c-0.5,0.5-1.2,0.8-2,0.8s-1.4-0.3-2-0.8C50.3,40.7,50,40,50,39.3V5c0-0.8,0.3-1.4,0.8-2c0.5-0.5,1.2-0.8,2-0.8
		s1.4,0.3,2,0.8c0.5,0.5,0.8,1.2,0.8,1.9v12.8c0,0,0,0.1,0.1,0.1c0,0,0.1,0,0.1-0.1c2.5-2.6,5.3-3.9,8.3-3.9c3.2,0,5.6,0.9,7,2.7
		c1.5,1.8,2.2,4.8,2.2,9v13.7c0,0.8-0.3,1.4-0.8,1.9S71.4,42,70.7,42c-0.7,0-1.4-0.3-1.9-0.8C68.2,40.7,68,40,68,39.3V26.6
		c0-3.3-0.4-5.5-1.2-6.6c-0.8-1.1-2.2-1.7-4.3-1.7c-1.6,0-3.2,0.8-4.7,2.3c-1.5,1.5-2.2,3.2-2.2,4.9v13.7
		C55.6,40.1,55.3,40.7,54.8,41.2z"/>
	<path d="M85.5,42.5c-2.4,0-4.4-0.8-5.9-2.3c-1.5-1.6-2.3-3.6-2.3-6.2c0-3.1,1.2-5.5,3.5-7.2c2.4-1.7,6-2.6,10.8-2.6H94
		c0.3,0,0.5-0.2,0.5-0.5v-0.6c0-1.9-0.4-3.2-1.3-3.9c-0.9-0.7-2.5-1.1-4.8-1.1c-2,0-4.5,0.4-7.3,1.3c-0.5,0.2-1,0.1-1.5-0.3
		c-0.5-0.3-0.7-0.8-0.7-1.3c0-0.7,0.2-1.3,0.6-1.9s1-0.9,1.7-1.1c2.6-0.6,5-0.9,7.2-1c4.5,0,7.5,0.8,9.2,2.4
		c1.7,1.6,2.5,4.5,2.5,8.7v14.4c0,0.7-0.3,1.3-0.8,1.8c-0.5,0.5-1.1,0.8-1.8,0.8c-0.7,0-1.3-0.3-1.8-0.8s-0.8-1.1-0.8-1.8l-0.1-1.3
		c0,0,0-0.1-0.1-0.1c-0.1,0-0.1,0-0.1,0.1C92.6,41,89.5,42.5,85.5,42.5z M91.6,28.1c-2.9,0-5.1,0.5-6.5,1.4c-1.5,1-2.2,2.3-2.2,3.9
		c0,1.3,0.4,2.4,1.2,3.2c0.8,0.8,1.7,1.3,2.8,1.3c2.3,0,4.2-0.7,5.6-2.2c1.4-1.5,2.1-3.5,2.1-6v-1.2c0-0.3-0.2-0.4-0.5-0.4H91.6z"/>
	<path d="M106.1,19.7c-0.6,0-1.1-0.2-1.5-0.6c-0.4-0.4-0.6-0.9-0.6-1.5c0-0.6,0.2-1,0.6-1.5c0.4-0.4,0.9-0.6,1.5-0.6h3
		c0.3,0,0.5-0.2,0.5-0.5V8.2c0-0.8,0.3-1.5,0.8-2c0.5-0.5,1.2-0.8,1.9-0.8s1.4,0.3,2,0.8c0.6,0.5,0.8,1.2,0.8,2V15
		c0,0.3,0.2,0.5,0.5,0.5h7c0.6,0,1.1,0.2,1.5,0.6c0.4,0.4,0.6,0.9,0.6,1.5c0,0.6-0.2,1-0.6,1.5c-0.4,0.4-0.9,0.6-1.5,0.6h-7
		c-0.3,0-0.5,0.2-0.5,0.5v12.3c0,2.4,0.3,4,0.9,4.7s1.7,1.1,3.4,1.1c0.8,0,1.6-0.1,2.3-0.2c0.6-0.1,1.1,0.1,1.5,0.4
		c0.4,0.3,0.7,0.8,0.7,1.3c0,0.6-0.2,1.2-0.6,1.7c-0.4,0.5-0.9,0.8-1.6,0.9c-1.5,0.1-2.6,0.2-3.3,0.2c-3.2,0-5.5-0.7-6.8-2.1
		c-1.3-1.4-1.9-3.9-1.9-7.5V20.2c0-0.3-0.2-0.5-0.5-0.5H106.1z"/>
	<path d="M145.4,3.1c0.6-0.6,1.2-0.8,2-0.8s1.5,0.3,2,0.9c0.6,0.6,0.9,1.3,0.9,2.1c0,0.8-0.3,1.5-0.9,2.1c-0.6,0.6-1.3,0.9-2,0.9
		s-1.4-0.3-2-0.9s-0.9-1.3-0.9-2.1S144.8,3.6,145.4,3.1z M149.5,41.2c-0.6,0.6-1.3,0.8-2,0.8s-1.4-0.3-2-0.9s-0.9-1.3-0.9-2V17.4
		c0-0.8,0.3-1.5,0.9-2.1c0.6-0.6,1.2-0.8,2-0.8s1.5,0.3,2,0.8c0.6,0.6,0.9,1.2,0.9,2.1v21.7C150.4,39.9,150.1,40.6,149.5,41.2z"/>
	<path d="M166.7,30.4c-3.6-0.9-6.1-2-7.6-3.4c-1.5-1.4-2.2-3.1-2.2-5.1c0-2.5,0.9-4.4,2.7-5.8c1.8-1.4,4.4-2.1,7.9-2.1
		c2.3,0,4.6,0.3,6.8,0.8c0.6,0.1,1.1,0.5,1.6,1c0.4,0.5,0.6,1.1,0.6,1.8c0,0.6-0.2,1-0.7,1.3c-0.4,0.3-0.9,0.4-1.5,0.2
		c-2.2-0.6-4.3-0.9-6.3-0.9c-3.7,0-5.6,1.1-5.5,3.2c0,1.1,0.4,1.9,1.1,2.6c0.7,0.7,1.9,1.2,3.7,1.7c4.1,1,6.8,2.1,8.2,3.4
		c1.4,1.3,2.1,3.3,2.1,5.8c0,2.4-0.9,4.3-2.8,5.6s-4.6,2-8.1,2c-2.3,0-4.6-0.3-6.9-0.9c-0.6-0.2-1.1-0.5-1.5-1.1
		c-0.4-0.6-0.6-1.2-0.6-1.8c0-0.5,0.2-0.9,0.6-1.3c0.4-0.3,0.9-0.4,1.4-0.2c2.2,0.7,4.3,1,6.4,1c3.9,0,5.8-1.1,5.8-3.4
		c0-1.1-0.4-2-1.2-2.7C170.1,31.5,168.7,30.9,166.7,30.4z"/>
	<path d="M194.9,35.4c-0.6,0.2-1.2,0.3-1.7,0c-0.6-0.2-1-0.6-1.2-1.3c-0.2-0.6-0.2-1.1,0-1.6c0.2-0.5,0.7-0.9,1.2-1.1
		c3.4-1.3,6.2-2.7,8.4-4.2c0.1-0.1,0.1-0.1,0-0.2c0-0.1-0.1-0.1-0.1-0.1h-7.2c-0.5,0-1-0.2-1.4-0.6c-0.4-0.4-0.6-0.9-0.6-1.4
		c0-0.5,0.2-1,0.6-1.4c0.4-0.4,0.9-0.6,1.4-0.6h4.8c0.2,0,0.4-0.1,0.4-0.4V9.3c0-0.3-0.1-0.4-0.4-0.4h-4.3c-0.5,0-1-0.2-1.4-0.6
		c-0.4-0.4-0.6-0.8-0.6-1.4c0-0.5,0.2-1,0.6-1.4c0.4-0.4,0.8-0.6,1.4-0.6h4.3c0.2,0,0.4-0.1,0.4-0.4V3.3c0-0.7,0.2-1.3,0.7-1.8
		c0.5-0.5,1.1-0.7,1.8-0.7c0.7,0,1.3,0.3,1.8,0.8c0.5,0.5,0.7,1.1,0.7,1.8v1.2c0,0.2,0.1,0.4,0.4,0.4h16.5c0.3,0,0.4-0.1,0.4-0.4
		V3.3c0-0.7,0.2-1.3,0.7-1.8c0.5-0.5,1.1-0.7,1.8-0.7c0.7,0,1.3,0.2,1.8,0.7c0.5,0.5,0.7,1.1,0.7,1.8v1.2c0,0.2,0.1,0.4,0.4,0.4h4.3
		c0.5,0,1,0.2,1.4,0.6s0.6,0.9,0.6,1.4c0,0.5-0.2,1-0.6,1.4c-0.4,0.4-0.9,0.6-1.4,0.6h-4.3c-0.3,0-0.4,0.1-0.4,0.4v13.2
		c0,0.2,0.1,0.4,0.4,0.4h4.8c0.5,0,1,0.2,1.4,0.6c0.4,0.4,0.6,0.9,0.6,1.4c0,0.5-0.2,1-0.6,1.4c-0.4,0.4-0.9,0.6-1.4,0.6h-7.2
		c-0.1,0-0.1,0-0.1,0.1c0,0,0,0.1,0,0.2c2.2,1.5,5,2.9,8.4,4.2c0.6,0.2,0.9,0.6,1.2,1.1c0.2,0.5,0.3,1.1,0,1.6
		c-0.2,0.6-0.6,1-1.2,1.2c-0.6,0.3-1.1,0.3-1.7,0.1c-1.7-0.7-3.2-1.4-4.2-1.9c-0.2-0.1-0.2,0-0.2,0.1c0,0.5-0.2,0.9-0.6,1.3
		c-0.4,0.4-0.8,0.6-1.3,0.6h-9.1c-0.3,0-0.4,0.1-0.5,0.4v2.6c0,0.2,0.2,0.4,0.5,0.4h15.3c0.5,0,1,0.2,1.4,0.6
		c0.4,0.4,0.6,0.9,0.6,1.4c0,0.5-0.2,1-0.6,1.4c-0.4,0.4-0.8,0.6-1.4,0.6H195c-0.5,0-1-0.2-1.4-0.6c-0.4-0.4-0.6-0.9-0.6-1.4
		c0-0.5,0.2-1,0.6-1.4c0.4-0.4,0.8-0.6,1.4-0.6h15.3c0.3,0,0.4-0.1,0.5-0.4v-2.6c0-0.2-0.2-0.4-0.5-0.4h-9.1c-0.5,0-0.9-0.2-1.3-0.6
		c-0.4-0.4-0.6-0.8-0.6-1.3c0-0.2-0.1-0.2-0.2-0.1C198,34.1,196.6,34.7,194.9,35.4z M202.6,31.4c-0.1,0-0.1,0.1-0.1,0.1
		c0,0.1,0.1,0.1,0.1,0.1h7.6c0.3,0,0.4-0.1,0.5-0.4v-0.6c0-0.7,0.3-1.3,0.8-1.8c0.5-0.5,1.1-0.7,1.8-0.7c0.7,0,1.3,0.3,1.8,0.8
		s0.8,1.1,0.8,1.8v0.6c0,0.3,0.2,0.4,0.5,0.4h7.7c0.1,0,0.1,0,0.1-0.1c0,0,0-0.1-0.1-0.2c-1.6-1.1-3.2-2.5-4.8-4.2
		c-0.2-0.2-0.4-0.3-0.6-0.3h-10.6c-0.2,0-0.4,0.1-0.6,0.4C205.9,28.9,204.3,30.3,202.6,31.4z M204.6,9.3V11c0,0.3,0.1,0.4,0.4,0.4
		h16.5c0.3,0,0.4-0.1,0.4-0.4V9.3c0-0.3-0.1-0.4-0.4-0.4h-16.5C204.8,8.9,204.6,9,204.6,9.3z M204.6,15.1v1.7c0,0.3,0.1,0.4,0.4,0.4
		h16.5c0.3,0,0.4-0.1,0.4-0.4v-1.7c0-0.3-0.1-0.4-0.4-0.4h-16.5C204.8,14.7,204.6,14.8,204.6,15.1z M204.6,20.8v1.7
		c0,0.2,0.1,0.4,0.4,0.4h16.5c0.3,0,0.4-0.1,0.4-0.4v-1.7c0-0.2-0.1-0.4-0.4-0.4h-16.5C204.8,20.5,204.6,20.6,204.6,20.8z"/>
	<path d="M238.6,28.1l-0.2-0.8c-0.4-1.6-0.2-3.2,0.7-4.8c2.4-4.1,4-8.9,4.8-14.6c0.1-0.3,0-0.4-0.3-0.5h-2.2c-0.6,0-1.1-0.2-1.5-0.6
		c-0.4-0.4-0.6-0.9-0.6-1.5s0.2-1.1,0.6-1.5s0.9-0.6,1.5-0.6h9.9c0.6,0,1,0.2,1.4,0.6c0.4,0.4,0.6,0.9,0.7,1.4c0,0.1,0,0.1,0.1,0.1
		c0.1,0,0.1,0,0.2,0c0.3-0.2,0.7-0.4,1.1-0.4h2.4c0.3,0,0.4-0.1,0.4-0.4V3.8c0-0.7,0.2-1.2,0.7-1.7s1-0.7,1.7-0.7
		c0.7,0,1.2,0.2,1.7,0.7s0.7,1,0.7,1.7v0.8c0,0.2,0.1,0.4,0.4,0.4h1.7c0.5,0,1,0.2,1.4,0.6c0.4,0.4,0.6,0.9,0.6,1.4
		c0,0.5-0.2,1-0.6,1.4c-0.4,0.4-0.9,0.6-1.4,0.6H264c-0.1,0-0.1,0-0.2,0.1c0,0.1-0.1,0.1,0,0.2c0.6,0.7,1.3,1.7,2.2,2.8
		c0.3,0.5,0.5,1,0.4,1.5c0,0.6-0.3,1-0.7,1.4c-0.3,0.3-0.8,0.5-1.3,0.5c-0.5,0-0.9-0.3-1.2-0.7l-1-1.6c0-0.1-0.1-0.1-0.1,0
		c-0.1,0-0.1,0.1-0.1,0.1v5.3c0,0.6-0.2,1.1-0.6,1.5c-0.4,0.4-0.9,0.6-1.5,0.6s-1.1-0.2-1.5-0.6c-0.4-0.4-0.6-0.9-0.6-1.5v-4.7
		c0-0.1,0-0.1-0.1-0.1c-0.1,0-0.1,0-0.1,0c-0.6,1.3-1.4,2.5-2.2,3.7c-0.3,0.4-0.7,0.6-1.3,0.6s-1-0.2-1.3-0.6
		c-0.8-1.1-0.8-2.2,0.1-3.4c1.2-1.6,2.2-3.2,3.1-5c0.1-0.1,0.1-0.1,0-0.2c-0.1-0.1-0.2-0.1-0.3-0.1h-0.9c-0.5,0-0.9-0.2-1.3-0.5
		c-0.4-0.3-0.6-0.8-0.7-1.3c0-0.1,0-0.1-0.1-0.1c-0.1,0-0.1,0-0.2,0c-0.4,0.3-0.8,0.4-1.2,0.4H249c-0.2,0-0.4,0.2-0.5,0.5
		c-0.5,3.4-1.1,6.4-2,9c-0.1,0.3,0,0.4,0.3,0.4h3.5c0.7,0,1.4,0.3,1.9,0.8c0.5,0.5,0.8,1.2,0.8,1.9v16.5c0,0.7-0.3,1.4-0.8,1.9
		c-0.5,0.5-1.2,0.8-1.9,0.8h-3.9c-0.2,0-0.4,0.1-0.4,0.4v1.1c0,0.6-0.2,1.1-0.6,1.5c-0.4,0.4-1,0.7-1.6,0.7c-0.6,0-1.1-0.2-1.5-0.6
		c-0.4-0.4-0.6-0.9-0.6-1.6V27.2c0-0.1,0-0.1-0.1-0.1c0,0-0.1,0-0.1,0c-0.2,0.3-0.4,0.8-0.7,1.4c-0.3,0.4-0.7,0.6-1.2,0.5
		C239.1,28.9,238.8,28.6,238.6,28.1z M246.1,21.9v12.7c0,0.3,0.1,0.4,0.4,0.5h1.8c0.3,0,0.4-0.2,0.4-0.5V21.9c0-0.3-0.1-0.4-0.4-0.4
		h-1.8C246.3,21.5,246.1,21.7,246.1,21.9z M260.5,30.2c-0.3,1.3-0.5,2.4-0.8,3.3c-0.1,0.3,0,0.5,0.2,0.7c1.1,1.3,2.5,2.2,4.3,3
		c0.2,0.1,0.4,0,0.4-0.3V26.4c0-0.3-0.1-0.4-0.4-0.4h-8.1c-0.5,0-1-0.2-1.4-0.6c-0.4-0.4-0.6-0.9-0.6-1.4c0-0.5,0.2-1,0.6-1.4
		c0.4-0.4,0.8-0.6,1.4-0.6h24c0.5,0,1,0.2,1.4,0.6c0.4,0.4,0.6,0.8,0.6,1.4c0,1.5-0.3,2.8-0.8,3.9c-0.3,0.7-0.9,1.8-1.7,3.1
		c-0.2,0.4-0.6,0.7-1.1,0.8c-0.5,0.1-1,0.1-1.4-0.2c-0.2-0.1-0.2,0-0.2,0.1v0c0,0.6-0.2,1.1-0.6,1.5c-0.4,0.4-0.9,0.6-1.5,0.6h-4.6
		c-0.3,0-0.4,0.1-0.4,0.4V38c0,0.2,0.1,0.4,0.4,0.5c2.5,0.3,5.9,0.5,10,0.5c0.6,0,1.1,0.2,1.5,0.6c0.4,0.4,0.6,0.9,0.6,1.5
		c0,0.6-0.3,1.1-0.7,1.5c-0.4,0.4-0.9,0.6-1.5,0.6c-5.9,0-10.5-0.4-13.7-1.1s-5.9-2-7.8-3.8c-0.2-0.2-0.3-0.1-0.4,0.1
		c-0.5,1.2-1.1,2.4-1.7,3.5c-0.3,0.6-0.8,1-1.5,1.2c-0.7,0.2-1.3,0.2-1.9-0.1c-0.6-0.3-1-0.7-1.2-1.3c-0.2-0.6-0.1-1.2,0.2-1.8
		c1.7-3.3,3-6.8,3.9-10.6c0.1-0.6,0.4-1.1,1-1.5c0.5-0.4,1.1-0.5,1.7-0.4c0.6,0.1,1.1,0.4,1.5,0.9C260.5,29,260.6,29.5,260.5,30.2z
		 M266.9,15.3c1.4-1.7,2.7-3.7,3.9-6c0.1-0.3,0.1-0.4-0.2-0.4h-0.9c-0.5,0-1-0.2-1.4-0.6c-0.4-0.4-0.6-0.8-0.6-1.4
		c0-0.5,0.2-1,0.6-1.4c0.4-0.4,0.8-0.6,1.4-0.6h2.1c0.3,0,0.4-0.1,0.4-0.4V3.8c0-0.7,0.2-1.2,0.7-1.7c0.4-0.5,1-0.7,1.7-0.7
		c0.7,0,1.2,0.2,1.7,0.7c0.4,0.5,0.7,1,0.7,1.7v0.8c0,0.2,0.1,0.4,0.4,0.4h3.2c0.5,0,1,0.2,1.4,0.6c0.4,0.4,0.6,0.9,0.6,1.4
		c0,0.5-0.2,1-0.6,1.4c-0.4,0.4-0.9,0.6-1.4,0.6h-1.9c-0.1,0-0.2,0-0.2,0.1s0,0.2,0,0.2c1.1,2,2.3,3.8,3.5,5.3
		c0.9,1.2,0.9,2.4,0.1,3.6c-0.3,0.5-0.7,0.7-1.3,0.7c-0.6,0-1-0.2-1.3-0.6c-0.9-1.3-1.8-2.6-2.6-3.9c0,0-0.1,0-0.1,0s-0.1,0-0.1,0.1
		v4.2c0,0.6-0.2,1.1-0.6,1.5c-0.4,0.4-0.9,0.6-1.5,0.6c-0.6,0-1.1-0.2-1.5-0.6c-0.4-0.4-0.6-0.9-0.6-1.5v-4.1c0-0.1,0-0.1-0.1-0.1
		c-0.1,0-0.1,0-0.1,0c-0.9,1.5-1.8,2.8-2.7,4c-0.3,0.4-0.8,0.6-1.3,0.6c-0.5,0-1-0.2-1.3-0.6c-0.4-0.4-0.6-0.9-0.6-1.6
		C266.4,16.3,266.6,15.8,266.9,15.3z M269.7,26.4v3.2c0,0.3,0.1,0.4,0.4,0.4h4.2c0.3,0,0.5-0.1,0.6-0.3c0.7-1,1.4-2.1,2-3.3
		c0.1-0.2,0.1-0.4-0.2-0.4h-6.7C269.9,26,269.7,26.1,269.7,26.4z"/>
	<path d="M290.1,19.2c-0.6,0.1-1.2,0-1.8-0.4c-0.5-0.4-0.9-0.9-1-1.5c-0.1-0.6,0.1-1.2,0.5-1.8c0.4-0.5,0.9-0.8,1.5-0.9l8.4-1.4
		c0.3-0.1,0.4-0.2,0.4-0.4V5.3c0-0.7,0.2-1.3,0.7-1.8c0.5-0.5,1.1-0.7,1.8-0.7s1.3,0.2,1.8,0.7c0.5,0.5,0.8,1.1,0.8,1.8v6.6
		c0,0.3,0.1,0.4,0.4,0.3l22.6-3.7c0.6-0.1,1.2,0.1,1.7,0.4c0.5,0.4,0.8,0.9,0.9,1.5c0.3,1.7,0.1,3.2-0.5,4.5
		c-2.1,4.8-5.3,8.9-9.5,12.4c-0.5,0.4-1.1,0.6-1.8,0.5c-0.7-0.1-1.2-0.4-1.7-0.9c-0.4-0.5-0.6-1.1-0.5-1.7c0.1-0.6,0.3-1.2,0.8-1.6
		c3.2-2.7,5.7-5.8,7.7-9.6c0.1-0.1,0.1-0.1,0-0.2s-0.1-0.1-0.2-0.1l-19.5,3.1c-0.3,0.1-0.4,0.2-0.4,0.5v11.3c0,1.3,0,2.3,0.1,3
		s0.2,1.5,0.4,2.1c0.2,0.7,0.5,1.1,0.8,1.5c0.3,0.3,0.7,0.6,1.4,0.8c0.6,0.2,1.3,0.3,2,0.4c0.7,0,1.7,0.1,3,0.1
		c4.9,0,9.8-0.3,14.6-0.9c0.6-0.1,1.2,0.1,1.7,0.5c0.5,0.4,0.8,0.9,0.8,1.5c0.1,0.6-0.1,1.2-0.6,1.7c-0.4,0.5-1,0.8-1.6,0.9
		c-5.3,0.6-10.6,0.9-16.1,0.9c-4.6,0-7.6-0.7-9.1-2.2c-1.5-1.5-2.3-4.5-2.3-9.2V18.3c0-0.3-0.1-0.4-0.4-0.3L290.1,19.2z"/>
	<path d="M337.7,38.3c-0.7,0-1.3-0.3-1.8-0.8c-0.5-0.5-0.7-1.1-0.7-1.9c0-0.7,0.3-1.3,0.8-1.8c0.5-0.5,1.1-0.7,1.8-0.7
		c10.6,0.5,20.9,1.6,31.1,3.3c0.7,0.1,1.3,0.5,1.7,1c0.4,0.6,0.6,1.2,0.5,2c-0.1,0.7-0.4,1.3-0.9,1.7c-0.6,0.4-1.2,0.5-1.8,0.4
		C358.4,39.9,348.1,38.8,337.7,38.3z M369.2,7.9c0.4,0.5,0.6,1.2,0.5,1.9c-0.1,0.7-0.4,1.3-0.9,1.7c-0.5,0.4-1.2,0.6-1.9,0.5
		c-9.6-1.3-18.6-2.1-27.1-2.4c-0.7,0-1.3-0.3-1.8-0.8c-0.5-0.5-0.7-1.1-0.6-1.8c0-0.7,0.3-1.3,0.8-1.8c0.5-0.5,1.1-0.7,1.8-0.7
		c9.3,0.4,18.5,1.2,27.5,2.4C368.3,7,368.8,7.3,369.2,7.9z M364.9,20.6c0.7,0.1,1.3,0.5,1.7,1.1c0.4,0.6,0.6,1.2,0.5,1.9
		s-0.4,1.3-1,1.7s-1.2,0.6-1.9,0.4c-7.6-1.2-15.1-2-22.4-2.4c-0.7-0.1-1.3-0.4-1.7-0.9c-0.4-0.5-0.6-1.1-0.6-1.9
		c0.1-0.7,0.4-1.3,0.9-1.8s1.1-0.7,1.8-0.7C349.6,18.5,357.2,19.4,364.9,20.6z"/>
	<path d="M380.3,16.7c-0.7,0-1.3-0.2-1.7-0.7c-0.5-0.5-0.7-1-0.7-1.7c0-0.7,0.2-1.2,0.7-1.7s1-0.7,1.7-0.7h16.4
		c0.3,0,0.4-0.1,0.5-0.4V5.1c0-0.7,0.3-1.3,0.8-1.9c0.5-0.5,1.1-0.8,1.9-0.8c0.7,0,1.4,0.3,1.9,0.8c0.5,0.5,0.8,1.1,0.8,1.8v6.3
		c0,0.3,0.1,0.4,0.4,0.4h13c0.7,0,1.3,0.2,1.7,0.7c0.5,0.5,0.7,1,0.7,1.7c0,0.7-0.2,1.2-0.7,1.7c-0.5,0.5-1,0.7-1.7,0.7h-13
		c-0.3,0-0.4,0.1-0.4,0.4v0.8c0,6.9-1.3,12.2-3.8,15.9c-2.5,3.7-6.6,6.3-12.4,7.8c-0.7,0.2-1.3,0.1-1.9-0.3
		c-0.6-0.4-1.1-0.9-1.3-1.5c-0.2-0.6-0.2-1.2,0.1-1.8c0.3-0.6,0.8-1,1.4-1.1c4.7-1.3,8-3.3,9.9-6.1c1.9-2.8,2.8-7.1,2.8-12.8v-0.8
		c0-0.3-0.2-0.4-0.5-0.4H380.3z"/>
	<path d="M425.5,25.4c-0.7,0-1.3-0.2-1.8-0.7c-0.5-0.5-0.7-1.1-0.7-1.8s0.2-1.3,0.7-1.8c0.5-0.5,1.1-0.7,1.8-0.7h34.4
		c0.7,0,1.3,0.2,1.8,0.7c0.5,0.5,0.7,1.1,0.7,1.8s-0.2,1.3-0.7,1.8c-0.5,0.5-1.1,0.7-1.8,0.7H425.5z"/>
	<path d="M472.1,9.7c-0.6,0.2-1.2,0.1-1.8-0.2c-0.6-0.3-0.9-0.8-1-1.4c-0.1-0.6,0-1.2,0.3-1.8c0.3-0.6,0.8-0.9,1.5-1.1
		c3.7-0.8,7.4-1.2,10.9-1.2c4.2,0,7.5,0.8,9.8,2.3c2.3,1.5,3.4,3.6,3.4,6.2c0,1.2-0.2,2.2-0.5,3.1c-0.3,0.9-0.8,1.7-1.5,2.5
		c-0.7,0.7-1.4,1.3-1.9,1.7c-0.6,0.4-1.4,1-2.5,1.7c-1.1,0.7-1.9,1.2-2.5,1.6c-0.6,0.4-1.2,1.1-1.9,1.9c-0.7,0.8-1.2,1.7-1.5,2.6
		c-0.3,0.8-0.7,1.4-1.2,2c-0.6,0.5-1.2,0.8-2,0.8c-0.8,0-1.4-0.3-1.9-0.8c-0.5-0.6-0.7-1.2-0.5-1.9c0.3-1.3,0.9-2.5,1.7-3.6
		s1.6-2,2.3-2.5c0.7-0.5,1.7-1.2,3-2c0.9-0.6,1.6-1,2-1.3c0.4-0.3,0.9-0.7,1.5-1.3c0.6-0.6,1.1-1.2,1.3-1.8c0.3-0.6,0.4-1.3,0.4-2
		c0-2.9-2.8-4.4-8.3-4.4C478.4,8.5,475.3,8.9,472.1,9.7z M479.7,34.4h0.3c0.8,0,1.4,0.3,2,0.9c0.6,0.6,0.8,1.2,0.8,2v0.8
		c0,0.8-0.3,1.4-0.8,2c-0.6,0.6-1.2,0.8-2,0.8h-0.3c-0.8,0-1.4-0.3-2-0.9c-0.6-0.6-0.8-1.2-0.8-2v-0.8c0-0.8,0.3-1.4,0.8-2
		C478.2,34.7,478.9,34.4,479.7,34.4z"/>
</g>
<linearGradient id="SVGID_1_" gradientUnits="userSpaceOnUse" x1="3" y1="49" x2="503.25" y2="49">
	<stop  offset="0" style="stop-color:#F2534A;stop-opacity:0"/>
	<stop  offset="0.1" style="stop-color:#F2534A"/>
	<stop  offset="0.3" style="stop-color:#EEE110"/>
	<stop  offset="0.5" style="stop-color:#10EE3B"/>
	<stop  offset="0.7" style="stop-color:#10A7EE"/>
	<stop  offset="0.9" style="stop-color:#8C10EE"/>
	<stop  offset="1" style="stop-color:#8C10EE;stop-opacity:0"/>
</linearGradient>
<line class="st0" x1="3" y1="49" x2="503.3" y2="49"/>
<g>
</g>
<g>
</g>
<g>
</g>
<g>
</g>
<g>
</g>
</svg>
