<svg id="レイヤー_2" data-name="レイヤー 2" xmlns="http://www.w3.org/2000/svg" xmlns:xlink="http://www.w3.org/1999/xlink" viewBox="0 0 1020 220"><defs><style>.cls-1{fill:none;}.cls-2{clip-path:url(#clip-path);}.cls-3{fill:#a6eaff;}.cls-4{fill:#fff;opacity:0.4;}.cls-5{font-size:54px;fill:#3157dd;}.cls-12,.cls-5{font-family:Calibri-Bold, Calibri;font-weight:700;}.cls-6{fill:#4ad0ff;}.cls-7{clip-path:url(#clip-path-2);}.cls-8{clip-path:url(#clip-path-3);}.cls-9{fill:#bbecef;}.cls-10{opacity:0.5;}.cls-11{fill:url(#名称未設定グラデーション_42);}.cls-12{font-size:30px;fill:#ef5500;}.cls-13{letter-spacing:-0.2em;}</style><clipPath id="clip-path"><rect class="cls-1" x="0.5" y="0.5" width="1020" height="220"/></clipPath><clipPath id="clip-path-2"><circle class="cls-1" cx="96.39" cy="112.06" r="146.61"/></clipPath><clipPath id="clip-path-3"><polygon class="cls-1" points="-39.42 162.87 -31.48 107.33 -21.11 112.22 5.13 155.54 28.93 115.27 36.25 130.52 64.33 151.88 71.65 145.17 63.72 125.03 99.11 103.67 93.62 87.19 103.38 93.91 107.04 90.25 102.77 79.26 132.67 26.78 174.78 6.64 170.51 -8.61 136.33 -15.94 80.19 -9.83 54.56 -15.33 50.29 -28.14 -14.4 16.41 -66.27 49.97 -52.84 193.38 -39.42 162.87"/></clipPath><radialGradient id="名称未設定グラデーション_42" cx="96.38" cy="111.46" r="146.61" gradientUnits="userSpaceOnUse"><stop offset="0.07" stop-color="#cce0f4"/><stop offset="0.15" stop-color="#c3dcf2"/><stop offset="0.28" stop-color="#a9d2ee"/><stop offset="0.44" stop-color="#80c2e7"/><stop offset="0.63" stop-color="#47acde"/><stop offset="0.76" stop-color="#1e9cd7"/><stop offset="1" stop-color="#0f7cb8"/></radialGradient></defs><title>career_path_seminar2016</title><g class="cls-2"><rect class="cls-3" x="-6" y="-133.13" width="1029" height="500"/><rect class="cls-4" x="-3" y="25.38" width="1028" height="87"/><text class="cls-5" transform="translate(305.89 82.87)">Career Path Seminar 2016</text><circle class="cls-6" cx="95.77" cy="110.85" r="146.61"/><g class="cls-7"><g class="cls-8"><circle class="cls-9" cx="96.57" cy="110.54" r="146.61"/></g><polygon class="cls-9" points="120.49 104.89 135.13 82.92 135.13 101.84 120.49 104.89"/><polygon class="cls-9" points="135.42 75.6 144.27 68.28 147.32 75.6 141.37 80.48 135.42 75.6"/><path class="cls-9" d="M69.82,192.77C70.43,190.94,92.91,180,92.91,180l16.57-9.76s0,11-3.05,14S80.19,200.7,80.19,200.7Z"/><polygon class="cls-9" points="120.47 195.02 147.32 195.02 144.88 200.45 128.1 202.77 120.47 195.02"/><polygon class="cls-9" points="101.55 273.32 75.92 263.56 69.82 234.87 85.68 220.23 96.06 229.99 109.48 223.28 116.81 211.69 135.42 220.23 144.27 242.5 135.42 261.73 101.55 273.32"/></g><g class="cls-10"><circle class="cls-11" cx="96.38" cy="111.46" r="146.61"/></g><text class="cls-12" transform="translate(503.07 161.19)">Exploring broader career opportuni<tspan class="cls-13" x="440.26" y="0">t</tspan><tspan x="444.66" y="0" xml:space="preserve"> ies</tspan><tspan x="120.84" y="36">for global-minded individuals</tspan></text></g></svg>