<svg id="レイヤー_2" data-name="レイヤー 2" xmlns="http://www.w3.org/2000/svg" xmlns:xlink="http://www.w3.org/1999/xlink" viewBox="0 0 1020 220">
  <defs>
    <style>
      .cls-1 {
        fill: none;
      }

      .cls-2 {
        clip-path: url(#clip-path);
      }

      .cls-3 {
        fill: #b6a6ff;
      }

      .cls-4 {
        fill: #fff;
        opacity: 0.4;
      }

      .cls-5 {
        fill: #8731dd;
      }

      .cls-6 {
        fill: #6e4aff;
      }

      .cls-7 {
        clip-path: url(#clip-path-2);
      }

      .cls-8 {
        clip-path: url(#clip-path-3);
      }

      .cls-9 {
        fill: #bfbbef;
      }

      .cls-10 {
        opacity: 0.5;
      }

      .cls-11 {
        fill: url(#名称未設定グラデーション_2);
      }

      .cls-12 {
        fill: #ef5500;
      }
    </style>
    <clipPath id="clip-path">
      <rect class="cls-1" x="0.5" y="0.5" width="1020" height="220"/>
    </clipPath>
    <clipPath id="clip-path-2">
      <circle class="cls-1" cx="96.39" cy="112.06" r="146.61"/>
    </clipPath>
    <clipPath id="clip-path-3">
      <polygon class="cls-1" points="-39.42 162.87 -31.48 107.33 -21.11 112.22 5.13 155.54 28.93 115.27 36.25 130.52 64.33 151.88 71.65 145.17 63.72 125.03 99.11 103.67 93.62 87.19 103.38 93.91 107.04 90.25 102.77 79.26 132.67 26.78 174.78 6.64 170.51 -8.61 136.33 -15.94 80.19 -9.83 54.56 -15.33 50.29 -28.14 -14.4 16.41 -66.27 49.97 -52.84 193.38 -39.42 162.87"/>
    </clipPath>
    <radialGradient id="名称未設定グラデーション_2" data-name="名称未設定グラデーション 2" cx="96.38" cy="111.46" r="146.61" gradientUnits="userSpaceOnUse">
      <stop offset="0.07" stop-color="#af8df4"/>
      <stop offset="0.18" stop-color="#a684f2"/>
      <stop offset="0.36" stop-color="#8f6aeb"/>
      <stop offset="0.59" stop-color="#6941e0"/>
      <stop offset="0.76" stop-color="#491ed7"/>
      <stop offset="1" stop-color="#390fb8"/>
    </radialGradient>
  </defs>
  <title>career_path_seminar2015</title>
  <g class="cls-2">
    <rect class="cls-3" x="-6" y="-133.13" width="1029" height="500"/>
    <g>
      <rect class="cls-4" x="-3" y="25.38" width="1028" height="87"/>
      <g>
        <path class="cls-5" d="M333.21,77.7q0,.66,0,1.12a5.43,5.43,0,0,1-.12.79,2.24,2.24,0,0,1-.21.57,2.78,2.78,0,0,1-.42.54,5.37,5.37,0,0,1-1.12.78,13.19,13.19,0,0,1-2,.91,17.71,17.71,0,0,1-2.74.73,18.06,18.06,0,0,1-3.34.29,17.57,17.57,0,0,1-6.33-1.08,12.49,12.49,0,0,1-4.8-3.23,14.43,14.43,0,0,1-3-5.37A24.06,24.06,0,0,1,308,66.26a23.71,23.71,0,0,1,1.16-7.73,16.09,16.09,0,0,1,3.24-5.67,13.57,13.57,0,0,1,5-3.48,16.87,16.87,0,0,1,6.42-1.19,15.46,15.46,0,0,1,2.74.24,16.82,16.82,0,0,1,2.44.62,12.26,12.26,0,0,1,2,.88,6.06,6.06,0,0,1,1.25.86,3,3,0,0,1,.49.59,2.21,2.21,0,0,1,.21.61,6.76,6.76,0,0,1,.12.87q0,.5,0,1.24T333,55.45a3.48,3.48,0,0,1-.18.9,1.24,1.24,0,0,1-.32.5.63.63,0,0,1-.42.16,1.83,1.83,0,0,1-1-.46,16.57,16.57,0,0,0-1.57-1,12.8,12.8,0,0,0-2.29-1,9.75,9.75,0,0,0-3.18-.46,7.51,7.51,0,0,0-6.34,3.2A11.12,11.12,0,0,0,316,61a21.72,21.72,0,0,0,0,10.14,10,10,0,0,0,1.77,3.63,7.14,7.14,0,0,0,2.77,2.12,9.14,9.14,0,0,0,3.65.7,10.41,10.41,0,0,0,3.19-.44,13.4,13.4,0,0,0,2.31-1q1-.53,1.58-.95a2,2,0,0,1,1-.42.75.75,0,0,1,.42.11.79.79,0,0,1,.26.42,4.19,4.19,0,0,1,.16.88Q333.21,76.75,333.21,77.7Z"/>
        <path class="cls-5" d="M357.83,82.05a.7.7,0,0,1-.26.58,1.81,1.81,0,0,1-.83.3,11.26,11.26,0,0,1-1.67.09,11.42,11.42,0,0,1-1.73-.09,1.48,1.48,0,0,1-.76-.3.76.76,0,0,1-.22-.58V80.18A10.68,10.68,0,0,1,349,82.61a9.61,9.61,0,0,1-4.13.87,11.54,11.54,0,0,1-3.44-.49,7.74,7.74,0,0,1-2.72-1.45A6.53,6.53,0,0,1,337,79.15a8.12,8.12,0,0,1-.63-3.32,7.52,7.52,0,0,1,.8-3.57,6.54,6.54,0,0,1,2.4-2.5,12,12,0,0,1,4-1.46,28.35,28.35,0,0,1,5.51-.47h2.29V66.39a7.5,7.5,0,0,0-.22-1.94,3.23,3.23,0,0,0-.74-1.38,3,3,0,0,0-1.37-.82,7.33,7.33,0,0,0-2.12-.26,10.91,10.91,0,0,0-3,.37,17.08,17.08,0,0,0-2.31.82q-1,.45-1.67.82a2.44,2.44,0,0,1-1.09.37.78.78,0,0,1-.51-.18,1.34,1.34,0,0,1-.37-.53,3.64,3.64,0,0,1-.22-.84,7.12,7.12,0,0,1-.08-1.11,5,5,0,0,1,.13-1.29,2,2,0,0,1,.5-.86,4.93,4.93,0,0,1,1.29-.84,15.21,15.21,0,0,1,2.16-.86,20.06,20.06,0,0,1,2.7-.65,17.86,17.86,0,0,1,3-.25,18.05,18.05,0,0,1,4.73.54,8,8,0,0,1,3.23,1.66A6.46,6.46,0,0,1,357.25,62a13.51,13.51,0,0,1,.58,4.19ZM351.32,72h-2.53a13.6,13.6,0,0,0-2.74.24,5.26,5.26,0,0,0-1.85.71,2.93,2.93,0,0,0-1,1.15,3.45,3.45,0,0,0-.33,1.54,3,3,0,0,0,.94,2.32,3.74,3.74,0,0,0,2.6.84,4.86,4.86,0,0,0,2.57-.71A10.67,10.67,0,0,0,351.32,76Z"/>
        <path class="cls-5" d="M379.56,60.64q0,.95-.05,1.56a4.84,4.84,0,0,1-.16.95.93.93,0,0,1-.28.47.69.69,0,0,1-.44.13,1.44,1.44,0,0,1-.47-.09l-.59-.2-.73-.2a3.83,3.83,0,0,0-.87-.09,2.94,2.94,0,0,0-1.11.22,4.67,4.67,0,0,0-1.15.7,8.52,8.52,0,0,0-1.24,1.27,20.42,20.42,0,0,0-1.38,2V82a.72.72,0,0,1-.16.46,1.17,1.17,0,0,1-.54.33,4.67,4.67,0,0,1-1,.2q-.63.07-1.61.07T366.16,83a4.67,4.67,0,0,1-1-.2,1.16,1.16,0,0,1-.54-.33.72.72,0,0,1-.16-.46V58.46a.81.81,0,0,1,.13-.46,1,1,0,0,1,.47-.33,3.78,3.78,0,0,1,.88-.2,11.65,11.65,0,0,1,1.36-.07,12.3,12.3,0,0,1,1.4.07,3.17,3.17,0,0,1,.86.2A1,1,0,0,1,370,58a.81.81,0,0,1,.13.46v2.93a18.76,18.76,0,0,1,1.74-2.18,9.84,9.84,0,0,1,1.56-1.36,4.9,4.9,0,0,1,1.48-.7,5.68,5.68,0,0,1,1.48-.2c.23,0,.47,0,.74,0a7.16,7.16,0,0,1,.82.13,5.5,5.5,0,0,1,.74.21,1.46,1.46,0,0,1,.46.25.83.83,0,0,1,.21.29,2.36,2.36,0,0,1,.12.44,6.46,6.46,0,0,1,.08.83Q379.56,59.69,379.56,60.64Z"/>
        <path class="cls-5" d="M405.37,69.53a2.56,2.56,0,0,1-.54,1.79,1.94,1.94,0,0,1-1.49.58H389a9.77,9.77,0,0,0,.36,2.73,5.2,5.2,0,0,0,1.13,2.08,4.94,4.94,0,0,0,2,1.31,8.57,8.57,0,0,0,2.94.45,16.5,16.5,0,0,0,3.06-.25,20.31,20.31,0,0,0,2.28-.55q1-.3,1.6-.55a3,3,0,0,1,1-.25.77.77,0,0,1,.4.09.69.69,0,0,1,.26.33,2.22,2.22,0,0,1,.15.67q0,.44,0,1.09t0,1a6.2,6.2,0,0,1-.08.7,1.7,1.7,0,0,1-.16.49,1.82,1.82,0,0,1-.28.38,3.21,3.21,0,0,1-.94.5,14.77,14.77,0,0,1-2,.62,26.85,26.85,0,0,1-2.72.53,22.64,22.64,0,0,1-3.27.22,17.31,17.31,0,0,1-5.5-.79,9.79,9.79,0,0,1-3.94-2.4,10,10,0,0,1-2.36-4.06,19.06,19.06,0,0,1-.78-5.75,18.27,18.27,0,0,1,.82-5.66,11.85,11.85,0,0,1,2.37-4.27,10.21,10.21,0,0,1,3.78-2.68,13,13,0,0,1,5-.92,13.15,13.15,0,0,1,5,.87,9.11,9.11,0,0,1,3.44,2.41,9.73,9.73,0,0,1,2,3.65,15.91,15.91,0,0,1,.63,4.59Zm-6.43-1.9a6.82,6.82,0,0,0-1.12-4.39,4.34,4.34,0,0,0-3.7-1.6,4.81,4.81,0,0,0-2.2.47,4.5,4.5,0,0,0-1.56,1.28,5.84,5.84,0,0,0-.95,1.9,9.43,9.43,0,0,0-.38,2.33Z"/>
        <path class="cls-5" d="M432.56,69.53a2.56,2.56,0,0,1-.54,1.79,1.94,1.94,0,0,1-1.49.58H416.21a9.77,9.77,0,0,0,.36,2.73,5.2,5.2,0,0,0,1.13,2.08,4.94,4.94,0,0,0,2,1.31,8.57,8.57,0,0,0,2.94.45,16.5,16.5,0,0,0,3.06-.25,20.31,20.31,0,0,0,2.28-.55q1-.3,1.6-.55a3,3,0,0,1,1-.25.77.77,0,0,1,.4.09.69.69,0,0,1,.26.33,2.22,2.22,0,0,1,.15.67q0,.44,0,1.09t0,1a6.2,6.2,0,0,1-.08.7,1.7,1.7,0,0,1-.16.49,1.82,1.82,0,0,1-.28.38,3.21,3.21,0,0,1-.94.5,14.77,14.77,0,0,1-2,.62,26.85,26.85,0,0,1-2.72.53,22.64,22.64,0,0,1-3.27.22,17.31,17.31,0,0,1-5.5-.79,9.79,9.79,0,0,1-3.94-2.4,10,10,0,0,1-2.36-4.06,19.06,19.06,0,0,1-.78-5.75,18.27,18.27,0,0,1,.82-5.66,11.85,11.85,0,0,1,2.37-4.27,10.21,10.21,0,0,1,3.78-2.68,13,13,0,0,1,5-.92,13.15,13.15,0,0,1,5,.87,9.11,9.11,0,0,1,3.44,2.41,9.73,9.73,0,0,1,2,3.65,15.91,15.91,0,0,1,.63,4.59Zm-6.43-1.9A6.82,6.82,0,0,0,425,63.24a4.34,4.34,0,0,0-3.7-1.6,4.81,4.81,0,0,0-2.2.47,4.5,4.5,0,0,0-1.56,1.28,5.84,5.84,0,0,0-.95,1.9,9.43,9.43,0,0,0-.38,2.33Z"/>
        <path class="cls-5" d="M453.12,60.64q0,.95-.05,1.56a4.84,4.84,0,0,1-.16.95.93.93,0,0,1-.28.47.69.69,0,0,1-.44.13,1.44,1.44,0,0,1-.47-.09l-.59-.2-.73-.2a3.83,3.83,0,0,0-.87-.09,2.94,2.94,0,0,0-1.11.22,4.67,4.67,0,0,0-1.15.7A8.52,8.52,0,0,0,446,65.36a20.42,20.42,0,0,0-1.38,2V82a.72.72,0,0,1-.16.46,1.17,1.17,0,0,1-.54.33,4.67,4.67,0,0,1-1,.2q-.63.07-1.61.07T439.73,83a4.67,4.67,0,0,1-1-.2,1.16,1.16,0,0,1-.54-.33A.72.72,0,0,1,438,82V58.46a.81.81,0,0,1,.13-.46,1,1,0,0,1,.47-.33,3.78,3.78,0,0,1,.88-.2,11.65,11.65,0,0,1,1.36-.07,12.3,12.3,0,0,1,1.4.07,3.17,3.17,0,0,1,.86.2,1,1,0,0,1,.44.33.81.81,0,0,1,.13.46v2.93a18.76,18.76,0,0,1,1.74-2.18A9.84,9.84,0,0,1,447,57.85a4.9,4.9,0,0,1,1.48-.7,5.68,5.68,0,0,1,1.48-.2c.23,0,.47,0,.74,0a7.16,7.16,0,0,1,.82.13,5.5,5.5,0,0,1,.74.21,1.46,1.46,0,0,1,.46.25.83.83,0,0,1,.21.29,2.36,2.36,0,0,1,.12.44,6.46,6.46,0,0,1,.08.83Q453.12,59.69,453.12,60.64Z"/>
        <path class="cls-5" d="M493.18,59.11a13.49,13.49,0,0,1-.9,5.09,9.82,9.82,0,0,1-2.61,3.73,11.5,11.5,0,0,1-4.21,2.31,19.46,19.46,0,0,1-5.87.79h-2.85V81.92a.73.73,0,0,1-.17.47,1.2,1.2,0,0,1-.57.34A5.5,5.5,0,0,1,475,83a17.9,17.9,0,0,1-3.36,0,5.52,5.52,0,0,1-1.07-.21,1.11,1.11,0,0,1-.55-.34.77.77,0,0,1-.16-.47V51.23a2.46,2.46,0,0,1,.65-1.86,2.36,2.36,0,0,1,1.7-.62h8q1.21,0,2.31.09a24.59,24.59,0,0,1,2.62.4,11.62,11.62,0,0,1,3.1,1.12,9.23,9.23,0,0,1,2.68,2.07,8.63,8.63,0,0,1,1.69,2.93A11.45,11.45,0,0,1,493.18,59.11Zm-7.25.5a6.13,6.13,0,0,0-.63-3,4.37,4.37,0,0,0-1.56-1.71,5.16,5.16,0,0,0-1.94-.7,14.88,14.88,0,0,0-2.1-.15h-3V65.68h3.11a7.52,7.52,0,0,0,2.78-.45A4.75,4.75,0,0,0,484.47,64a5.43,5.43,0,0,0,1.08-1.92A7.75,7.75,0,0,0,485.92,59.62Z"/>
        <path class="cls-5" d="M518.2,82.05a.7.7,0,0,1-.26.58,1.81,1.81,0,0,1-.83.3,11.27,11.27,0,0,1-1.67.09,11.41,11.41,0,0,1-1.73-.09,1.48,1.48,0,0,1-.76-.3.76.76,0,0,1-.22-.58V80.18a10.68,10.68,0,0,1-3.31,2.43,9.61,9.61,0,0,1-4.13.87,11.54,11.54,0,0,1-3.44-.49,7.74,7.74,0,0,1-2.72-1.45,6.53,6.53,0,0,1-1.78-2.39,8.12,8.12,0,0,1-.63-3.32,7.52,7.52,0,0,1,.8-3.57,6.54,6.54,0,0,1,2.4-2.5,12,12,0,0,1,4-1.46,28.35,28.35,0,0,1,5.51-.47h2.29V66.39a7.52,7.52,0,0,0-.22-1.94,3.23,3.23,0,0,0-.74-1.38,3,3,0,0,0-1.37-.82,7.33,7.33,0,0,0-2.12-.26,10.91,10.91,0,0,0-3,.37,17.08,17.08,0,0,0-2.31.82q-1,.45-1.67.82a2.44,2.44,0,0,1-1.09.37.78.78,0,0,1-.51-.18,1.34,1.34,0,0,1-.37-.53,3.64,3.64,0,0,1-.22-.84A7.12,7.12,0,0,1,498,61.7a5,5,0,0,1,.13-1.29,2,2,0,0,1,.5-.86,4.93,4.93,0,0,1,1.29-.84,15.21,15.21,0,0,1,2.16-.86,20.06,20.06,0,0,1,2.7-.65,17.86,17.86,0,0,1,3-.25,18.05,18.05,0,0,1,4.73.54,8,8,0,0,1,3.23,1.66A6.46,6.46,0,0,1,517.62,62a13.49,13.49,0,0,1,.58,4.19ZM511.68,72h-2.53a13.6,13.6,0,0,0-2.74.24,5.26,5.26,0,0,0-1.85.71,2.93,2.93,0,0,0-1,1.15,3.45,3.45,0,0,0-.33,1.54,3,3,0,0,0,.94,2.32,3.74,3.74,0,0,0,2.6.84,4.86,4.86,0,0,0,2.57-.71A10.66,10.66,0,0,0,511.68,76Z"/>
        <path class="cls-5" d="M538.74,79.65a8.37,8.37,0,0,1-.14,1.78,1.93,1.93,0,0,1-.38.87,2.08,2.08,0,0,1-.7.45,6.56,6.56,0,0,1-1.08.34,11.43,11.43,0,0,1-1.35.22,13.48,13.48,0,0,1-1.46.08,10.53,10.53,0,0,1-3.43-.5,5.69,5.69,0,0,1-2.4-1.54,6.42,6.42,0,0,1-1.4-2.62,13.83,13.83,0,0,1-.45-3.74v-12h-2.82q-.5,0-.76-.62a5.77,5.77,0,0,1-.26-2.07,10.66,10.66,0,0,1,.07-1.29,3.08,3.08,0,0,1,.2-.83,1,1,0,0,1,.33-.44.81.81,0,0,1,.46-.13h2.79V52.31a.82.82,0,0,1,.15-.47,1.08,1.08,0,0,1,.53-.36,4.19,4.19,0,0,1,1-.21q.65-.07,1.59-.07t1.62.07a4,4,0,0,1,1,.21,1.18,1.18,0,0,1,.53.36.77.77,0,0,1,.16.47v5.25h5.12a.81.81,0,0,1,.46.13,1,1,0,0,1,.33.44,3.11,3.11,0,0,1,.2.83,10.66,10.66,0,0,1,.07,1.29,5.77,5.77,0,0,1-.26,2.07q-.26.62-.76.62h-5.14V74a5.5,5.5,0,0,0,.61,2.89,2.35,2.35,0,0,0,2.16,1,4.43,4.43,0,0,0,.95-.09,6,6,0,0,0,.75-.21l.55-.21a1.08,1.08,0,0,1,.41-.09.55.55,0,0,1,.3.09.62.62,0,0,1,.22.37,5.74,5.74,0,0,1,.14.75A9.11,9.11,0,0,1,538.74,79.65Z"/>
        <path class="cls-5" d="M566,82a.72.72,0,0,1-.16.46,1.16,1.16,0,0,1-.53.33,4.47,4.47,0,0,1-1,.2q-.65.07-1.59.07T561.08,83a4.46,4.46,0,0,1-1-.2,1.16,1.16,0,0,1-.53-.33.72.72,0,0,1-.16-.46V68.55a11.31,11.31,0,0,0-.25-2.69,5.31,5.31,0,0,0-.72-1.67,3.23,3.23,0,0,0-1.23-1.08,3.82,3.82,0,0,0-1.75-.38,4.39,4.39,0,0,0-2.56.92,13.84,13.84,0,0,0-2.69,2.69V82a.72.72,0,0,1-.16.46,1.17,1.17,0,0,1-.54.33,4.67,4.67,0,0,1-1,.2q-.63.07-1.61.07T545.25,83a4.66,4.66,0,0,1-1-.2,1.16,1.16,0,0,1-.54-.33.72.72,0,0,1-.16-.46V47.3a.77.77,0,0,1,.16-.47,1.18,1.18,0,0,1,.54-.36,4.53,4.53,0,0,1,1-.22,16.39,16.39,0,0,1,3.22,0,4.55,4.55,0,0,1,1,.22,1.18,1.18,0,0,1,.54.36.77.77,0,0,1,.16.47v13a12.69,12.69,0,0,1,3.49-2.52,8.66,8.66,0,0,1,3.7-.83,9.31,9.31,0,0,1,4,.79,7,7,0,0,1,2.66,2.16,8.85,8.85,0,0,1,1.46,3.2,19,19,0,0,1,.45,4.44Z"/>
        <path class="cls-5" d="M605.34,72.64a10.54,10.54,0,0,1-1,4.72,9.78,9.78,0,0,1-2.72,3.39,11.83,11.83,0,0,1-4,2,17,17,0,0,1-4.9.69,17.47,17.47,0,0,1-3.28-.29,18.62,18.62,0,0,1-2.68-.7,11.68,11.68,0,0,1-1.94-.86,5.59,5.59,0,0,1-1.12-.79,2,2,0,0,1-.49-1,9,9,0,0,1-.15-1.86q0-.82.05-1.37a4,4,0,0,1,.17-.9,1,1,0,0,1,.32-.49.77.77,0,0,1,.46-.15,2.19,2.19,0,0,1,1,.44,18.23,18.23,0,0,0,1.73,1,15.6,15.6,0,0,0,2.52,1,11.93,11.93,0,0,0,3.39.44,7.82,7.82,0,0,0,2.27-.3,5.07,5.07,0,0,0,1.7-.86,3.64,3.64,0,0,0,1.07-1.37,4.37,4.37,0,0,0,.37-1.82,3.19,3.19,0,0,0-.63-2,6.3,6.3,0,0,0-1.65-1.48,17.2,17.2,0,0,0-2.31-1.21q-1.29-.57-2.66-1.2a24.24,24.24,0,0,1-2.66-1.44,10.78,10.78,0,0,1-2.31-1.92,9.07,9.07,0,0,1-1.65-2.65,9.57,9.57,0,0,1-.63-3.67,9.71,9.71,0,0,1,.91-4.31A8.85,8.85,0,0,1,587,50.58a10.43,10.43,0,0,1,3.64-1.83,15.9,15.9,0,0,1,4.44-.61,16.17,16.17,0,0,1,2.43.18,16.56,16.56,0,0,1,2.27.5,12.66,12.66,0,0,1,1.87.71,4.39,4.39,0,0,1,1.08.66,1.94,1.94,0,0,1,.36.45,2.23,2.23,0,0,1,.16.49,5.2,5.2,0,0,1,.09.76q0,.46,0,1.15t0,1.29a4.81,4.81,0,0,1-.13.87,1.05,1.05,0,0,1-.26.5.66.66,0,0,1-.46.16,2.2,2.2,0,0,1-.92-.37q-.63-.37-1.56-.8a14.81,14.81,0,0,0-2.14-.79,9.43,9.43,0,0,0-2.66-.36,6.36,6.36,0,0,0-2,.28,4.08,4.08,0,0,0-1.41.76,3,3,0,0,0-.84,1.17,3.82,3.82,0,0,0-.28,1.45,3.19,3.19,0,0,0,.62,2A5.94,5.94,0,0,0,593,60.66a17.75,17.75,0,0,0,2.36,1.21q1.32.57,2.69,1.2a26.43,26.43,0,0,1,2.69,1.44A10.81,10.81,0,0,1,603,66.43a9,9,0,0,1,1.66,2.64A9.24,9.24,0,0,1,605.34,72.64Z"/>
        <path class="cls-5" d="M632,69.53a2.56,2.56,0,0,1-.54,1.79,1.94,1.94,0,0,1-1.49.58H615.62a9.81,9.81,0,0,0,.36,2.73,5.2,5.2,0,0,0,1.13,2.08,4.93,4.93,0,0,0,2,1.31,8.56,8.56,0,0,0,2.94.45,16.5,16.5,0,0,0,3.06-.25,20.35,20.35,0,0,0,2.28-.55q1-.3,1.59-.55a3,3,0,0,1,1-.25.77.77,0,0,1,.4.09.69.69,0,0,1,.26.33,2.23,2.23,0,0,1,.15.67c0,.29,0,.66,0,1.09s0,.72,0,1a6.2,6.2,0,0,1-.08.7,1.67,1.67,0,0,1-.16.49,1.82,1.82,0,0,1-.28.38,3.2,3.2,0,0,1-.94.5,14.74,14.74,0,0,1-2,.62,26.83,26.83,0,0,1-2.72.53,22.64,22.64,0,0,1-3.27.22,17.3,17.3,0,0,1-5.5-.79,9.78,9.78,0,0,1-3.94-2.4,10,10,0,0,1-2.36-4.06,19.07,19.07,0,0,1-.78-5.75,18.27,18.27,0,0,1,.82-5.66,11.87,11.87,0,0,1,2.37-4.27,10.2,10.2,0,0,1,3.78-2.68,13,13,0,0,1,5-.92,13.16,13.16,0,0,1,5,.87,9.11,9.11,0,0,1,3.44,2.41,9.73,9.73,0,0,1,2,3.65,15.91,15.91,0,0,1,.63,4.59Zm-6.43-1.9a6.82,6.82,0,0,0-1.12-4.39,4.33,4.33,0,0,0-3.7-1.6,4.81,4.81,0,0,0-2.2.47A4.5,4.5,0,0,0,617,63.4a5.8,5.8,0,0,0-.95,1.9,9.41,9.41,0,0,0-.38,2.33Z"/>
        <path class="cls-5" d="M674.84,82a.72.72,0,0,1-.16.46,1.16,1.16,0,0,1-.53.33,4.43,4.43,0,0,1-1,.2q-.63.07-1.61.07T669.91,83a4.68,4.68,0,0,1-1-.2,1.07,1.07,0,0,1-.53-.33.76.76,0,0,1-.14-.46V68a9.67,9.67,0,0,0-.22-2.16,5.08,5.08,0,0,0-.69-1.67,3.25,3.25,0,0,0-1.16-1.08,3.44,3.44,0,0,0-1.67-.38,4,4,0,0,0-2.4.92,16.05,16.05,0,0,0-2.64,2.69V82a.72.72,0,0,1-.16.46,1.17,1.17,0,0,1-.54.33,4.69,4.69,0,0,1-1,.2q-.63.07-1.58.07T654.54,83a4.66,4.66,0,0,1-1-.2,1.16,1.16,0,0,1-.54-.33.72.72,0,0,1-.16-.46V68a9.67,9.67,0,0,0-.22-2.16,5.26,5.26,0,0,0-.67-1.67,3.11,3.11,0,0,0-1.16-1.08,3.46,3.46,0,0,0-1.66-.38,4,4,0,0,0-2.43.92,15.37,15.37,0,0,0-2.61,2.69V82a.72.72,0,0,1-.16.46,1.17,1.17,0,0,1-.54.33,4.67,4.67,0,0,1-1,.2q-.63.07-1.61.07T639.14,83a4.66,4.66,0,0,1-1-.2,1.16,1.16,0,0,1-.54-.33.72.72,0,0,1-.16-.46V58.46a.81.81,0,0,1,.13-.46,1,1,0,0,1,.47-.33,3.78,3.78,0,0,1,.88-.2,11.64,11.64,0,0,1,1.36-.07,12.3,12.3,0,0,1,1.4.07,3.16,3.16,0,0,1,.86.2A1,1,0,0,1,643,58a.81.81,0,0,1,.13.46v2.72A15.54,15.54,0,0,1,647,58,8.35,8.35,0,0,1,651,57a10.36,10.36,0,0,1,2.61.3,7.43,7.43,0,0,1,2.07.87,6.49,6.49,0,0,1,1.57,1.36,7.9,7.9,0,0,1,1.11,1.77,20,20,0,0,1,2.07-2,12.25,12.25,0,0,1,2-1.33,9.2,9.2,0,0,1,2-.76,8.17,8.17,0,0,1,2-.25,8.91,8.91,0,0,1,4,.79,6.92,6.92,0,0,1,2.6,2.15,8.64,8.64,0,0,1,1.41,3.18,17,17,0,0,1,.42,3.85Z"/>
        <path class="cls-5" d="M688.5,50.49a3.72,3.72,0,0,1-.82,2.77,6.47,6.47,0,0,1-6.05,0,3.6,3.6,0,0,1-.78-2.66,3.81,3.81,0,0,1,.8-2.78,6.37,6.37,0,0,1,6.05,0A3.62,3.62,0,0,1,688.5,50.49ZM688,82a.72.72,0,0,1-.16.46,1.17,1.17,0,0,1-.54.33,4.67,4.67,0,0,1-1,.2q-.63.07-1.61.07T683.07,83a4.66,4.66,0,0,1-1-.2,1.16,1.16,0,0,1-.54-.33.72.72,0,0,1-.16-.46V58.51a.72.72,0,0,1,.16-.46,1.24,1.24,0,0,1,.54-.34,4.53,4.53,0,0,1,1-.22,16.39,16.39,0,0,1,3.22,0,4.55,4.55,0,0,1,1,.22,1.25,1.25,0,0,1,.54.34.72.72,0,0,1,.16.46Z"/>
        <path class="cls-5" d="M717.08,82a.72.72,0,0,1-.16.46,1.16,1.16,0,0,1-.53.33,4.47,4.47,0,0,1-1,.2q-.65.07-1.59.07T712.17,83a4.46,4.46,0,0,1-1-.2,1.16,1.16,0,0,1-.53-.33.72.72,0,0,1-.16-.46V68.55a11.31,11.31,0,0,0-.25-2.69,5.31,5.31,0,0,0-.72-1.67,3.23,3.23,0,0,0-1.23-1.08,3.82,3.82,0,0,0-1.75-.38,4.39,4.39,0,0,0-2.56.92,13.84,13.84,0,0,0-2.69,2.69V82a.72.72,0,0,1-.16.46,1.17,1.17,0,0,1-.54.33,4.67,4.67,0,0,1-1,.2q-.63.07-1.61.07T696.33,83a4.66,4.66,0,0,1-1-.2,1.16,1.16,0,0,1-.54-.33.72.72,0,0,1-.16-.46V58.46a.81.81,0,0,1,.13-.46,1,1,0,0,1,.47-.33,3.78,3.78,0,0,1,.88-.2,11.64,11.64,0,0,1,1.36-.07,12.3,12.3,0,0,1,1.4.07,3.16,3.16,0,0,1,.86.2,1,1,0,0,1,.44.33.81.81,0,0,1,.13.46v2.72a15,15,0,0,1,4-3.16A9,9,0,0,1,708.46,57a9.31,9.31,0,0,1,4,.79,7.09,7.09,0,0,1,2.66,2.15,8.73,8.73,0,0,1,1.46,3.18,18.53,18.53,0,0,1,.45,4.38Z"/>
        <path class="cls-5" d="M743.64,82.05a.7.7,0,0,1-.26.58,1.81,1.81,0,0,1-.83.3,11.27,11.27,0,0,1-1.67.09,11.43,11.43,0,0,1-1.73-.09,1.48,1.48,0,0,1-.76-.3.75.75,0,0,1-.22-.58V80.18a10.69,10.69,0,0,1-3.31,2.43,9.62,9.62,0,0,1-4.13.87,11.55,11.55,0,0,1-3.44-.49,7.73,7.73,0,0,1-2.71-1.45,6.52,6.52,0,0,1-1.78-2.39,8.12,8.12,0,0,1-.63-3.32,7.52,7.52,0,0,1,.8-3.57,6.54,6.54,0,0,1,2.4-2.5,11.93,11.93,0,0,1,4-1.46,28.35,28.35,0,0,1,5.51-.47h2.29V66.39a7.52,7.52,0,0,0-.22-1.94,3.25,3.25,0,0,0-.74-1.38,3.06,3.06,0,0,0-1.37-.82,7.34,7.34,0,0,0-2.12-.26,10.92,10.92,0,0,0-3,.37,17.12,17.12,0,0,0-2.31.82q-1,.45-1.67.82a2.45,2.45,0,0,1-1.09.37.79.79,0,0,1-.51-.18,1.34,1.34,0,0,1-.37-.53,3.64,3.64,0,0,1-.22-.84,7.12,7.12,0,0,1-.08-1.11,5,5,0,0,1,.13-1.29,2,2,0,0,1,.5-.86,4.94,4.94,0,0,1,1.29-.84,15.23,15.23,0,0,1,2.16-.86,20.09,20.09,0,0,1,2.7-.65,19.87,19.87,0,0,1,7.75.29,8,8,0,0,1,3.23,1.66A6.46,6.46,0,0,1,743.06,62a13.49,13.49,0,0,1,.58,4.19ZM737.12,72h-2.53a13.6,13.6,0,0,0-2.74.24,5.26,5.26,0,0,0-1.85.71,2.93,2.93,0,0,0-1,1.15,3.46,3.46,0,0,0-.33,1.54,3,3,0,0,0,.94,2.32,3.73,3.73,0,0,0,2.6.84,4.87,4.87,0,0,0,2.57-.71A10.68,10.68,0,0,0,737.12,76Z"/>
        <path class="cls-5" d="M765.36,60.64q0,.95-.05,1.56a4.77,4.77,0,0,1-.16.95.94.94,0,0,1-.28.47.69.69,0,0,1-.44.13,1.44,1.44,0,0,1-.47-.09l-.59-.2-.72-.2a3.83,3.83,0,0,0-.87-.09,2.94,2.94,0,0,0-1.11.22,4.69,4.69,0,0,0-1.15.7,8.51,8.51,0,0,0-1.24,1.27,20.41,20.41,0,0,0-1.38,2V82a.72.72,0,0,1-.16.46,1.17,1.17,0,0,1-.54.33,4.67,4.67,0,0,1-1,.2q-.63.07-1.61.07T752,83a4.66,4.66,0,0,1-1-.2,1.16,1.16,0,0,1-.54-.33.72.72,0,0,1-.16-.46V58.46a.81.81,0,0,1,.13-.46,1,1,0,0,1,.47-.33,3.78,3.78,0,0,1,.88-.2,11.64,11.64,0,0,1,1.36-.07,12.3,12.3,0,0,1,1.4.07,3.16,3.16,0,0,1,.86.2,1,1,0,0,1,.44.33.81.81,0,0,1,.13.46v2.93a18.76,18.76,0,0,1,1.74-2.18,9.87,9.87,0,0,1,1.56-1.36,4.91,4.91,0,0,1,1.48-.7,5.69,5.69,0,0,1,1.48-.2q.34,0,.74,0a7.16,7.16,0,0,1,.82.13,5.48,5.48,0,0,1,.74.21,1.48,1.48,0,0,1,.46.25.85.85,0,0,1,.21.29,2.37,2.37,0,0,1,.12.44,6.46,6.46,0,0,1,.08.83Q765.36,59.69,765.36,60.64Z"/>
        <path class="cls-5" d="M803.54,80a11,11,0,0,1-.07,1.31,3.78,3.78,0,0,1-.2.88,1,1,0,0,1-.34.49.82.82,0,0,1-.47.15H782.84a4.17,4.17,0,0,1-1-.11,1.3,1.3,0,0,1-.69-.41,1.9,1.9,0,0,1-.38-.88,7.66,7.66,0,0,1-.12-1.5,12,12,0,0,1,.08-1.49,4.09,4.09,0,0,1,.29-1.11,5.1,5.1,0,0,1,.54-.95,9.52,9.52,0,0,1,.86-1l5.91-6.33a31.05,31.05,0,0,0,2.85-3.36A19.54,19.54,0,0,0,792.86,63a10.31,10.31,0,0,0,.83-2.31,9.71,9.71,0,0,0,.22-2,4.9,4.9,0,0,0-.28-1.65,3.89,3.89,0,0,0-.82-1.36,3.74,3.74,0,0,0-1.36-.91,5.13,5.13,0,0,0-1.92-.33,8.79,8.79,0,0,0-2.75.4,13.18,13.18,0,0,0-2.11.88q-.91.49-1.52.9a1.93,1.93,0,0,1-.95.41.58.58,0,0,1-.41-.16,1.13,1.13,0,0,1-.28-.53,6,6,0,0,1-.17-1,14.38,14.38,0,0,1-.07-1.52c0-.4,0-.74,0-1a4.72,4.72,0,0,1,.12-.71,2.07,2.07,0,0,1,.21-.53,2.76,2.76,0,0,1,.46-.54,6.3,6.3,0,0,1,1.21-.8,15,15,0,0,1,2.18-.95,20.88,20.88,0,0,1,2.85-.78,16.24,16.24,0,0,1,3.24-.32,14.56,14.56,0,0,1,4.65.67,9.23,9.23,0,0,1,3.31,1.87,7.51,7.51,0,0,1,2,2.85,9.63,9.63,0,0,1,.65,3.55,16.89,16.89,0,0,1-.32,3.27,12.49,12.49,0,0,1-1.32,3.47,27.51,27.51,0,0,1-2.82,4.11,66,66,0,0,1-4.83,5.23l-4,4.09h13.45a.83.83,0,0,1,.49.16,1.23,1.23,0,0,1,.38.49,3.08,3.08,0,0,1,.24.87A9,9,0,0,1,803.54,80Z"/>
        <path class="cls-5" d="M831.6,65.68a37.79,37.79,0,0,1-.66,7.38,16.17,16.17,0,0,1-2.15,5.62,10.05,10.05,0,0,1-3.87,3.56,14.5,14.5,0,0,1-11.64,0,9,9,0,0,1-3.64-3.45,15.71,15.71,0,0,1-1.89-5.51,45.31,45.31,0,0,1-.54-7.37,37.05,37.05,0,0,1,.67-7.37A16.33,16.33,0,0,1,810,52.94a10,10,0,0,1,3.88-3.56,14.47,14.47,0,0,1,11.63,0,9,9,0,0,1,3.65,3.45,15.53,15.53,0,0,1,1.87,5.51A46.42,46.42,0,0,1,831.6,65.68Zm-7,.34q0-2.43-.13-4.28a25.92,25.92,0,0,0-.41-3.23,12,12,0,0,0-.69-2.32,4.7,4.7,0,0,0-1-1.52,3.32,3.32,0,0,0-1.32-.8,5.32,5.32,0,0,0-1.63-.24,4.21,4.21,0,0,0-2.57.75,5,5,0,0,0-1.61,2.25,14.42,14.42,0,0,0-.83,3.74,50.26,50.26,0,0,0-.24,5.22,51.49,51.49,0,0,0,.29,6,13.8,13.8,0,0,0,.91,3.8,4.07,4.07,0,0,0,1.6,2,4.59,4.59,0,0,0,2.35.57,4.69,4.69,0,0,0,1.82-.33,3.83,3.83,0,0,0,1.38-1,5.45,5.45,0,0,0,1-1.66,13,13,0,0,0,.65-2.32,23,23,0,0,0,.34-3Q824.61,68,824.61,66Z"/>
        <path class="cls-5" d="M858,80.23a8.41,8.41,0,0,1-.08,1.25,3,3,0,0,1-.22.82,1.12,1.12,0,0,1-.33.44.7.7,0,0,1-.42.13H838.08a.66.66,0,0,1-.4-.13,1.1,1.1,0,0,1-.33-.44,3,3,0,0,1-.22-.82,8.41,8.41,0,0,1-.08-1.25,10.34,10.34,0,0,1,.07-1.28,2.92,2.92,0,0,1,.21-.83,1.22,1.22,0,0,1,.33-.46.67.67,0,0,1,.42-.15h6.35V55.32l-5.48,3a4,4,0,0,1-1,.36.65.65,0,0,1-.61-.16,1.36,1.36,0,0,1-.3-.78,11.69,11.69,0,0,1-.08-1.56q0-.63,0-1a2.54,2.54,0,0,1,.13-.7,1.28,1.28,0,0,1,.29-.47,3.38,3.38,0,0,1,.5-.4l7.33-4.75a1.06,1.06,0,0,1,.33-.17,2.76,2.76,0,0,1,.51-.11c.21,0,.49,0,.83-.05h1.33q1,0,1.62,0a4.63,4.63,0,0,1,.94.13.74.74,0,0,1,.42.25.7.7,0,0,1,.11.4V77.52h5.56a.73.73,0,0,1,.44.15,1.16,1.16,0,0,1,.34.46,2.92,2.92,0,0,1,.21.83A10.32,10.32,0,0,1,858,80.23Z"/>
        <path class="cls-5" d="M885.33,71.8a12.1,12.1,0,0,1-1,4.94,10.1,10.1,0,0,1-2.71,3.67,12.19,12.19,0,0,1-4.22,2.28,17.85,17.85,0,0,1-5.47.79,21.86,21.86,0,0,1-3-.2,21.39,21.39,0,0,1-2.56-.5,14.88,14.88,0,0,1-1.86-.61,3.88,3.88,0,0,1-.95-.5,1.27,1.27,0,0,1-.33-.44,2.65,2.65,0,0,1-.17-.57,5.79,5.79,0,0,1-.09-.83q0-.5,0-1.19T863,77.4a3.37,3.37,0,0,1,.17-.83,1.05,1.05,0,0,1,.28-.45.56.56,0,0,1,.37-.13,1.93,1.93,0,0,1,.8.3,13.88,13.88,0,0,0,3.57,1.34,13.17,13.17,0,0,0,3,.3,11.36,11.36,0,0,0,2.78-.32,5.49,5.49,0,0,0,2.12-1,4.66,4.66,0,0,0,1.34-1.75,6.13,6.13,0,0,0,.47-2.53,6,6,0,0,0-.4-2.25,4.08,4.08,0,0,0-1.24-1.67,5.63,5.63,0,0,0-2.19-1,13.45,13.45,0,0,0-3.27-.34,22.3,22.3,0,0,0-2.78.16,18.9,18.9,0,0,1-2.36.16,1.38,1.38,0,0,1-1.09-.38,2.22,2.22,0,0,1-.33-1.41V50.73a2.26,2.26,0,0,1,.41-1.52,1.66,1.66,0,0,1,1.3-.46H882.2a.73.73,0,0,1,.45.16,1.19,1.19,0,0,1,.36.5,3.39,3.39,0,0,1,.21.91,12,12,0,0,1,.07,1.36A6.84,6.84,0,0,1,883,54q-.28.71-.8.71H870.07V62q.92-.1,1.83-.13l1.91,0a17.09,17.09,0,0,1,4.92.65,9.85,9.85,0,0,1,3.61,1.9,8.07,8.07,0,0,1,2.23,3.11A11.27,11.27,0,0,1,885.33,71.8Z"/>
      </g>
    </g>
    <g>
      <g>
        <circle class="cls-6" cx="95.77" cy="110.85" r="146.61"/>
        <g class="cls-7">
          <g>
            <g class="cls-8">
              <circle class="cls-9" cx="96.57" cy="110.54" r="146.61"/>
            </g>
            <g>
              <polygon class="cls-9" points="120.49 104.89 135.13 82.92 135.13 101.84 120.49 104.89"/>
              <polygon class="cls-9" points="135.42 75.6 144.27 68.28 147.32 75.6 141.37 80.48 135.42 75.6"/>
              <path class="cls-9" d="M69.82,192.77C70.43,190.94,92.91,180,92.91,180l16.57-9.76s0,11-3.05,14S80.19,200.7,80.19,200.7Z"/>
              <polygon class="cls-9" points="120.47 195.02 147.32 195.02 144.88 200.45 128.1 202.77 120.47 195.02"/>
              <polygon class="cls-9" points="101.55 273.32 75.92 263.56 69.82 234.87 85.68 220.23 96.06 229.99 109.48 223.28 116.81 211.69 135.42 220.23 144.27 242.5 135.42 261.73 101.55 273.32"/>
            </g>
          </g>
        </g>
      </g>
      <g class="cls-10">
        <circle class="cls-11" cx="96.38" cy="111.46" r="146.61"/>
      </g>
    </g>
    <g>
      <path class="cls-12" d="M516.37,159.68a5.52,5.52,0,0,1,0,.71,1.78,1.78,0,0,1-.11.46.58.58,0,0,1-.18.26.4.4,0,0,1-.24.08h-9.52a1.2,1.2,0,0,1-.81-.29,1.17,1.17,0,0,1-.33-.93V143.45a1.17,1.17,0,0,1,.33-.93,1.2,1.2,0,0,1,.81-.29h9.46a.39.39,0,0,1,.23.07.56.56,0,0,1,.18.26,2,2,0,0,1,.11.47,6.08,6.08,0,0,1,0,.72,5.78,5.78,0,0,1,0,.7,1.86,1.86,0,0,1-.11.46.63.63,0,0,1-.18.26.37.37,0,0,1-.23.08H509v4.63h5.73a.41.41,0,0,1,.24.08.61.61,0,0,1,.18.25,1.75,1.75,0,0,1,.11.45,5.82,5.82,0,0,1,0,.7,5.76,5.76,0,0,1,0,.7,1.72,1.72,0,0,1-.11.45.54.54,0,0,1-.18.24.43.43,0,0,1-.24.07H509v5.35h6.83a.4.4,0,0,1,.24.08.59.59,0,0,1,.18.26,1.78,1.78,0,0,1,.11.46A5.52,5.52,0,0,1,516.37,159.68Z"/>
      <path class="cls-12" d="M530.9,160.43a.9.9,0,0,1,.11.41.32.32,0,0,1-.21.26,1.83,1.83,0,0,1-.63.14q-.42,0-1.13,0l-1.06,0a3.08,3.08,0,0,1-.63-.09A.9.9,0,0,1,527,161a.6.6,0,0,1-.17-.24l-2.42-4.64L522,160.76a.65.65,0,0,1-.16.24.82.82,0,0,1-.31.16,2.73,2.73,0,0,1-.59.09l-1,0q-.64,0-1,0a1.43,1.43,0,0,1-.56-.14.32.32,0,0,1-.18-.26.86.86,0,0,1,.13-.41l3.62-6.43-3.34-6a1.17,1.17,0,0,1-.14-.45.3.3,0,0,1,.18-.29,1.74,1.74,0,0,1,.61-.15q.42,0,1.14,0l1,0a4.74,4.74,0,0,1,.61.07.67.67,0,0,1,.32.14.85.85,0,0,1,.18.24l2.33,4.37,2.31-4.37a.57.57,0,0,1,.13-.21.67.67,0,0,1,.28-.15,2.64,2.64,0,0,1,.52-.09c.22,0,.52,0,.9,0s.77,0,1,0a1.31,1.31,0,0,1,.56.13.3.3,0,0,1,.16.29,1.18,1.18,0,0,1-.17.48l-3.25,5.93Z"/>
      <path class="cls-12" d="M546.49,154a12.22,12.22,0,0,1-.37,3.14,7.1,7.1,0,0,1-1.09,2.38,4.84,4.84,0,0,1-1.79,1.51,5.46,5.46,0,0,1-2.45.53,4.61,4.61,0,0,1-1-.11,4,4,0,0,1-.92-.34,5.68,5.68,0,0,1-.89-.56,10.48,10.48,0,0,1-.91-.79v6.15a.43.43,0,0,1-.09.26.65.65,0,0,1-.3.2,2.49,2.49,0,0,1-.56.13,9.11,9.11,0,0,1-1.79,0,2.49,2.49,0,0,1-.56-.12.65.65,0,0,1-.3-.2.43.43,0,0,1-.09-.26V147.62a.45.45,0,0,1,.07-.26.53.53,0,0,1,.26-.18,2,2,0,0,1,.48-.11,6.42,6.42,0,0,1,.75,0,6.23,6.23,0,0,1,.74,0,2,2,0,0,1,.48.11.53.53,0,0,1,.26.18.45.45,0,0,1,.07.26v1.54a13.41,13.41,0,0,1,1.12-1,6.89,6.89,0,0,1,1.12-.75,5.12,5.12,0,0,1,1.18-.45,5.51,5.51,0,0,1,1.3-.15,5,5,0,0,1,2.45.56,4.65,4.65,0,0,1,1.65,1.55,7,7,0,0,1,.93,2.29A12.67,12.67,0,0,1,546.49,154Zm-3.84.26a9.93,9.93,0,0,0-.12-1.6,4.75,4.75,0,0,0-.42-1.37,2.62,2.62,0,0,0-.79-1,2,2,0,0,0-1.22-.36,2.5,2.5,0,0,0-.73.11,2.88,2.88,0,0,0-.73.36,5.17,5.17,0,0,0-.77.64,9.2,9.2,0,0,0-.83,1v4.31a8.61,8.61,0,0,0,1.48,1.52,2.39,2.39,0,0,0,1.46.53,2,2,0,0,0,1.22-.37,2.85,2.85,0,0,0,.83-1,4.82,4.82,0,0,0,.48-1.34A7.32,7.32,0,0,0,542.65,154.23Z"/>
      <path class="cls-12" d="M553.12,160.69a.4.4,0,0,1-.09.26.64.64,0,0,1-.3.18,2.63,2.63,0,0,1-.56.11,10.78,10.78,0,0,1-1.79,0,2.63,2.63,0,0,1-.56-.11.64.64,0,0,1-.3-.18.4.4,0,0,1-.09-.26V141.43a.43.43,0,0,1,.09-.26.67.67,0,0,1,.3-.2,2.59,2.59,0,0,1,.56-.12,9.11,9.11,0,0,1,1.79,0,2.59,2.59,0,0,1,.56.12.67.67,0,0,1,.3.2.43.43,0,0,1,.09.26Z"/>
      <path class="cls-12" d="M570,154a10,10,0,0,1-.44,3,6.43,6.43,0,0,1-1.33,2.37A5.93,5.93,0,0,1,566,161a8.41,8.41,0,0,1-3.15.54,8.63,8.63,0,0,1-3-.48,5.46,5.46,0,0,1-2.14-1.41,5.78,5.78,0,0,1-1.26-2.27,10.57,10.57,0,0,1-.41-3.08,9.87,9.87,0,0,1,.45-3.05,6.4,6.4,0,0,1,1.34-2.37,6,6,0,0,1,2.23-1.53,8.34,8.34,0,0,1,3.14-.54,8.82,8.82,0,0,1,3,.48,5.35,5.35,0,0,1,2.13,1.4,5.84,5.84,0,0,1,1.25,2.27A10.63,10.63,0,0,1,570,154Zm-3.79.15a9.69,9.69,0,0,0-.15-1.78,4.21,4.21,0,0,0-.52-1.41,2.61,2.61,0,0,0-1-.94,3.13,3.13,0,0,0-1.53-.34,3.24,3.24,0,0,0-1.44.3,2.58,2.58,0,0,0-1,.88,4.19,4.19,0,0,0-.59,1.39,7.83,7.83,0,0,0-.2,1.85,9.15,9.15,0,0,0,.16,1.78,4.42,4.42,0,0,0,.52,1.41,2.48,2.48,0,0,0,1,.93,3.18,3.18,0,0,0,1.52.33,3.26,3.26,0,0,0,1.45-.3,2.59,2.59,0,0,0,1-.87A4,4,0,0,0,566,156,8.15,8.15,0,0,0,566.22,154.17Z"/>
      <path class="cls-12" d="M581.32,148.84q0,.53,0,.86a2.66,2.66,0,0,1-.09.53.51.51,0,0,1-.15.26.38.38,0,0,1-.24.07.78.78,0,0,1-.26-.05l-.33-.11-.4-.11a2.13,2.13,0,0,0-.48-.05,1.65,1.65,0,0,0-.62.12,2.61,2.61,0,0,0-.64.39,4.73,4.73,0,0,0-.69.7,11.62,11.62,0,0,0-.77,1.08v8.14a.4.4,0,0,1-.09.26.64.64,0,0,1-.3.18,2.63,2.63,0,0,1-.56.11,10.78,10.78,0,0,1-1.79,0,2.63,2.63,0,0,1-.56-.11.64.64,0,0,1-.3-.18.4.4,0,0,1-.09-.26V147.62a.45.45,0,0,1,.07-.26.53.53,0,0,1,.26-.18,2.11,2.11,0,0,1,.49-.11,6.42,6.42,0,0,1,.75,0,6.76,6.76,0,0,1,.78,0,1.78,1.78,0,0,1,.48.11.53.53,0,0,1,.24.18.45.45,0,0,1,.07.26v1.63a10.41,10.41,0,0,1,1-1.21,5.47,5.47,0,0,1,.86-.75,2.69,2.69,0,0,1,.82-.39,3.12,3.12,0,0,1,.82-.11l.41,0,.45.07.41.12a.82.82,0,0,1,.26.14.43.43,0,0,1,.12.16,1.18,1.18,0,0,1,.07.24,3.56,3.56,0,0,1,0,.46Q581.32,148.31,581.32,148.84Z"/>
      <path class="cls-12" d="M587.56,143.2a2.07,2.07,0,0,1-.45,1.54,3.59,3.59,0,0,1-3.36,0,2,2,0,0,1-.43-1.48,2.12,2.12,0,0,1,.45-1.55,3.54,3.54,0,0,1,3.36,0A2,2,0,0,1,587.56,143.2Zm-.28,17.49a.4.4,0,0,1-.09.26.64.64,0,0,1-.3.18,2.63,2.63,0,0,1-.56.11,10.78,10.78,0,0,1-1.79,0,2.63,2.63,0,0,1-.56-.11.64.64,0,0,1-.3-.18.4.4,0,0,1-.09-.26v-13a.4.4,0,0,1,.09-.26.7.7,0,0,1,.3-.19,2.59,2.59,0,0,1,.56-.12,9.11,9.11,0,0,1,1.79,0,2.59,2.59,0,0,1,.56.12.7.7,0,0,1,.3.19.4.4,0,0,1,.09.26Z"/>
      <path class="cls-12" d="M603.44,160.69a.4.4,0,0,1-.09.26.64.64,0,0,1-.29.18,2.49,2.49,0,0,1-.56.11c-.24,0-.53,0-.89,0s-.66,0-.9,0a2.5,2.5,0,0,1-.56-.11.64.64,0,0,1-.29-.18.4.4,0,0,1-.09-.26v-7.46a6.23,6.23,0,0,0-.14-1.49,2.94,2.94,0,0,0-.4-.93,1.79,1.79,0,0,0-.68-.6,2.12,2.12,0,0,0-1-.21,2.44,2.44,0,0,0-1.42.51,7.67,7.67,0,0,0-1.49,1.49v8.69a.4.4,0,0,1-.09.26.64.64,0,0,1-.3.18,2.6,2.6,0,0,1-.56.11,10.78,10.78,0,0,1-1.79,0,2.6,2.6,0,0,1-.56-.11.64.64,0,0,1-.3-.18.4.4,0,0,1-.09-.26V147.62a.45.45,0,0,1,.07-.26.53.53,0,0,1,.26-.18,2.1,2.1,0,0,1,.49-.11,6.38,6.38,0,0,1,.75,0,6.76,6.76,0,0,1,.78,0,1.75,1.75,0,0,1,.48.11.53.53,0,0,1,.24.18.45.45,0,0,1,.07.26v1.51a8.31,8.31,0,0,1,2.2-1.76,5,5,0,0,1,2.34-.59,5.18,5.18,0,0,1,2.25.44,3.93,3.93,0,0,1,1.48,1.19,4.83,4.83,0,0,1,.81,1.76,10.29,10.29,0,0,1,.25,2.43Z"/>
      <path class="cls-12" d="M618.84,148.53a2.53,2.53,0,0,1-.16,1q-.16.34-.4.34h-1.54a2.08,2.08,0,0,1,.46.8,3.08,3.08,0,0,1,.14.93,5.1,5.1,0,0,1-.38,2,4,4,0,0,1-1.09,1.49,4.81,4.81,0,0,1-1.71.92,7.4,7.4,0,0,1-2.23.32,4.64,4.64,0,0,1-1.2-.15,3.07,3.07,0,0,1-.88-.36,2.17,2.17,0,0,0-.32.45,1.25,1.25,0,0,0-.14.59.83.83,0,0,0,.37.7,1.91,1.91,0,0,0,1,.3L614,158a7.71,7.71,0,0,1,2,.32,4.23,4.23,0,0,1,1.46.76,3.27,3.27,0,0,1,.91,1.18,3.71,3.71,0,0,1,.32,1.57,4.06,4.06,0,0,1-.42,1.82,4.14,4.14,0,0,1-1.27,1.49,6.58,6.58,0,0,1-2.13,1,11,11,0,0,1-3,.37,13.24,13.24,0,0,1-2.85-.26,6.23,6.23,0,0,1-1.93-.73,3,3,0,0,1-1.1-1.12,3,3,0,0,1-.34-1.43,3.33,3.33,0,0,1,.13-.92,3.45,3.45,0,0,1,.37-.84,4.38,4.38,0,0,1,.59-.77,6.39,6.39,0,0,1,.81-.7,2.44,2.44,0,0,1-1.32-2.18,3.19,3.19,0,0,1,.4-1.58,5,5,0,0,1,1-1.28,3.88,3.88,0,0,1-.82-1.23,4.55,4.55,0,0,1-.31-1.79,4.93,4.93,0,0,1,.4-2,4.3,4.3,0,0,1,1.12-1.52,5,5,0,0,1,1.71-1,7,7,0,0,1,2.2-.33,9.17,9.17,0,0,1,1.18.07,7.83,7.83,0,0,1,1,.21h4.15c.17,0,.3.11.4.32A2.75,2.75,0,0,1,618.84,148.53ZM615,162.05a1.14,1.14,0,0,0-.53-1,2.75,2.75,0,0,0-1.45-.38l-2.62-.07a3.94,3.94,0,0,0-.61.53,3.26,3.26,0,0,0-.37.49,1.43,1.43,0,0,0-.18.45,2.31,2.31,0,0,0,0,.45,1.2,1.2,0,0,0,.74,1.11A4.65,4.65,0,0,0,612,164a5,5,0,0,0,1.41-.17,2.71,2.71,0,0,0,.92-.45,1.61,1.61,0,0,0,.5-.62A1.84,1.84,0,0,0,615,162.05Zm-.86-10.43a2,2,0,0,0-2.24-2.23,2.33,2.33,0,0,0-1,.18,2,2,0,0,0-.68.5,2.09,2.09,0,0,0-.4.73,2.88,2.88,0,0,0-.13.87,2.11,2.11,0,0,0,.59,1.58,2.21,2.21,0,0,0,1.63.58,2.44,2.44,0,0,0,1-.18,1.89,1.89,0,0,0,.68-.48,2.13,2.13,0,0,0,.41-.71A2.59,2.59,0,0,0,614.11,151.62Z"/>
      <path class="cls-12" d="M641.22,154a11.88,11.88,0,0,1-.38,3.13,7.2,7.2,0,0,1-1.1,2.37A4.88,4.88,0,0,1,638,161a5.22,5.22,0,0,1-2.38.53,5.84,5.84,0,0,1-1.23-.12,4.22,4.22,0,0,1-1.09-.4,5.92,5.92,0,0,1-1-.7,9.6,9.6,0,0,1-1-1v1.42a.46.46,0,0,1-.08.27.61.61,0,0,1-.26.18,1.83,1.83,0,0,1-.49.1q-.31,0-.75,0c-.3,0-.55,0-.75,0a1.81,1.81,0,0,1-.48-.1.54.54,0,0,1-.26-.18.48.48,0,0,1-.07-.27V141.43a.43.43,0,0,1,.09-.26.67.67,0,0,1,.3-.2,2.59,2.59,0,0,1,.56-.12,9.11,9.11,0,0,1,1.79,0,2.59,2.59,0,0,1,.56.12.67.67,0,0,1,.3.2.43.43,0,0,1,.09.26v7.22a7.69,7.69,0,0,1,1-.85,6.17,6.17,0,0,1,1-.58,4.57,4.57,0,0,1,1-.33,5.83,5.83,0,0,1,1.11-.1,4.88,4.88,0,0,1,2.46.58,4.74,4.74,0,0,1,1.65,1.56,6.94,6.94,0,0,1,.93,2.29A12.64,12.64,0,0,1,641.22,154Zm-3.82.26a10.05,10.05,0,0,0-.12-1.61,4.57,4.57,0,0,0-.43-1.38,2.66,2.66,0,0,0-.8-1,2,2,0,0,0-1.24-.36,2.55,2.55,0,0,0-.72.1,2.65,2.65,0,0,0-.72.35,5.08,5.08,0,0,0-.77.64,9.2,9.2,0,0,0-.83,1v4.34a7.79,7.79,0,0,0,1.49,1.52,2.47,2.47,0,0,0,1.49.52,2,2,0,0,0,1.22-.37,3,3,0,0,0,.83-1,4.42,4.42,0,0,0,.48-1.33A7.75,7.75,0,0,0,637.4,154.25Z"/>
      <path class="cls-12" d="M652.56,148.84q0,.53,0,.86a2.66,2.66,0,0,1-.09.53.52.52,0,0,1-.15.26.39.39,0,0,1-.24.07.78.78,0,0,1-.26-.05l-.33-.11-.4-.11a2.13,2.13,0,0,0-.48-.05,1.65,1.65,0,0,0-.62.12,2.65,2.65,0,0,0-.64.39,4.73,4.73,0,0,0-.69.7,11.26,11.26,0,0,0-.77,1.08v8.14a.4.4,0,0,1-.09.26.64.64,0,0,1-.3.18,2.6,2.6,0,0,1-.56.11,10.78,10.78,0,0,1-1.79,0,2.6,2.6,0,0,1-.56-.11.64.64,0,0,1-.3-.18.4.4,0,0,1-.09-.26V147.62a.45.45,0,0,1,.07-.26.53.53,0,0,1,.26-.18,2.1,2.1,0,0,1,.49-.11,6.38,6.38,0,0,1,.75,0,6.76,6.76,0,0,1,.78,0,1.75,1.75,0,0,1,.48.11.53.53,0,0,1,.24.18.45.45,0,0,1,.07.26v1.63a10.41,10.41,0,0,1,1-1.21,5.47,5.47,0,0,1,.86-.75,2.69,2.69,0,0,1,.82-.39,3.12,3.12,0,0,1,.82-.11l.41,0,.45.07.41.12a.85.85,0,0,1,.26.14.48.48,0,0,1,.12.16,1.34,1.34,0,0,1,.07.24,3.56,3.56,0,0,1,0,.46Q652.56,148.31,652.56,148.84Z"/>
      <path class="cls-12" d="M668,154a10,10,0,0,1-.44,3,6.43,6.43,0,0,1-1.33,2.37A5.93,5.93,0,0,1,664,161a8.41,8.41,0,0,1-3.15.54,8.63,8.63,0,0,1-3-.48,5.46,5.46,0,0,1-2.14-1.41,5.78,5.78,0,0,1-1.26-2.27,10.57,10.57,0,0,1-.41-3.08,9.87,9.87,0,0,1,.45-3.05,6.4,6.4,0,0,1,1.34-2.37,6,6,0,0,1,2.23-1.53,8.34,8.34,0,0,1,3.14-.54,8.82,8.82,0,0,1,3,.48,5.35,5.35,0,0,1,2.13,1.4,5.84,5.84,0,0,1,1.25,2.27A10.63,10.63,0,0,1,668,154Zm-3.79.15a9.69,9.69,0,0,0-.15-1.78,4.21,4.21,0,0,0-.52-1.41,2.61,2.61,0,0,0-1-.94,3.13,3.13,0,0,0-1.53-.34,3.24,3.24,0,0,0-1.44.3,2.58,2.58,0,0,0-1,.88,4.19,4.19,0,0,0-.59,1.39,7.83,7.83,0,0,0-.2,1.85,9.15,9.15,0,0,0,.16,1.78,4.42,4.42,0,0,0,.52,1.41,2.48,2.48,0,0,0,1,.93,3.18,3.18,0,0,0,1.52.33,3.26,3.26,0,0,0,1.45-.3,2.59,2.59,0,0,0,1-.87,4,4,0,0,0,.59-1.38A8.15,8.15,0,0,0,664.25,154.17Z"/>
      <path class="cls-12" d="M682.09,160.73a.39.39,0,0,1-.15.32,1,1,0,0,1-.46.17,6.39,6.39,0,0,1-.93.05,6.48,6.48,0,0,1-1-.05.84.84,0,0,1-.43-.17.42.42,0,0,1-.12-.32v-1A5.93,5.93,0,0,1,677.2,161a5.34,5.34,0,0,1-2.29.48,6.44,6.44,0,0,1-1.91-.27,4.3,4.3,0,0,1-1.51-.81,3.62,3.62,0,0,1-1-1.33,4.51,4.51,0,0,1-.35-1.85,4.17,4.17,0,0,1,.45-2,3.63,3.63,0,0,1,1.33-1.39,6.63,6.63,0,0,1,2.21-.81,15.75,15.75,0,0,1,3.06-.26h1.27V152a4.12,4.12,0,0,0-.12-1.08,1.78,1.78,0,0,0-.41-.77,1.68,1.68,0,0,0-.76-.45,4.06,4.06,0,0,0-1.18-.15,6.05,6.05,0,0,0-1.65.21,9.41,9.41,0,0,0-1.28.45q-.56.25-.93.45a1.36,1.36,0,0,1-.61.21.43.43,0,0,1-.29-.1.73.73,0,0,1-.21-.29,2,2,0,0,1-.12-.47,4,4,0,0,1,0-.62,2.79,2.79,0,0,1,.07-.72,1.11,1.11,0,0,1,.28-.48,2.79,2.79,0,0,1,.72-.47,8.55,8.55,0,0,1,1.2-.48,11.08,11.08,0,0,1,1.5-.36,9.91,9.91,0,0,1,1.68-.14,10.07,10.07,0,0,1,2.63.3,4.45,4.45,0,0,1,1.79.92,3.58,3.58,0,0,1,1,1.6,7.5,7.5,0,0,1,.32,2.33Zm-3.62-5.6h-1.41a7.56,7.56,0,0,0-1.52.13,2.92,2.92,0,0,0-1,.4,1.62,1.62,0,0,0-.58.64,1.9,1.9,0,0,0-.18.86,1.65,1.65,0,0,0,.52,1.29,2.08,2.08,0,0,0,1.44.47,2.7,2.7,0,0,0,1.43-.4,5.9,5.9,0,0,0,1.33-1.16Z"/>
      <path class="cls-12" d="M698.16,160.69a.48.48,0,0,1-.07.27.54.54,0,0,1-.25.18,1.7,1.7,0,0,1-.48.1c-.2,0-.45,0-.74,0s-.57,0-.76,0a1.77,1.77,0,0,1-.48-.1.58.58,0,0,1-.26-.18.44.44,0,0,1-.08-.27v-1.45a8.42,8.42,0,0,1-2.12,1.68,5.55,5.55,0,0,1-5,0,4.82,4.82,0,0,1-1.69-1.56,6.79,6.79,0,0,1-.94-2.29,12.64,12.64,0,0,1-.29-2.76,12.06,12.06,0,0,1,.37-3.13,7.07,7.07,0,0,1,1.09-2.37,4.84,4.84,0,0,1,1.79-1.51,5.5,5.5,0,0,1,2.46-.53,4.4,4.4,0,0,1,2,.45,7.11,7.11,0,0,1,1.77,1.31v-7.08a.46.46,0,0,1,.08-.26.61.61,0,0,1,.29-.2,2.53,2.53,0,0,1,.56-.12,9.11,9.11,0,0,1,1.79,0,2.37,2.37,0,0,1,.56.13.66.66,0,0,1,.29.2.43.43,0,0,1,.09.26ZM694.5,152a8.14,8.14,0,0,0-1.52-1.52,2.54,2.54,0,0,0-1.52-.53,2.12,2.12,0,0,0-1.24.36,2.62,2.62,0,0,0-.84,1,5.19,5.19,0,0,0-.47,1.34,7.51,7.51,0,0,0-.15,1.52,9.52,9.52,0,0,0,.13,1.6,5,5,0,0,0,.43,1.38,2.64,2.64,0,0,0,.8,1,2.07,2.07,0,0,0,1.26.37,2.55,2.55,0,0,0,.74-.11,2.88,2.88,0,0,0,.73-.36,4.92,4.92,0,0,0,.77-.65,12.93,12.93,0,0,0,.86-1Z"/>
      <path class="cls-12" d="M713.93,153.78a1.43,1.43,0,0,1-.3,1,1.08,1.08,0,0,1-.83.32h-8a5.38,5.38,0,0,0,.2,1.52,2.89,2.89,0,0,0,.63,1.16,2.76,2.76,0,0,0,1.11.72,4.78,4.78,0,0,0,1.63.25,9.1,9.1,0,0,0,1.7-.14,11,11,0,0,0,1.27-.31q.54-.17.89-.31a1.66,1.66,0,0,1,.57-.14.44.44,0,0,1,.22.05.39.39,0,0,1,.15.18,1.2,1.2,0,0,1,.08.37c0,.16,0,.36,0,.61s0,.4,0,.55a3.44,3.44,0,0,1,0,.39.92.92,0,0,1-.09.27,1,1,0,0,1-.15.21,1.8,1.8,0,0,1-.52.28,8.22,8.22,0,0,1-1.08.34q-.66.17-1.51.29a12.68,12.68,0,0,1-1.82.12,9.62,9.62,0,0,1-3.05-.44,5.44,5.44,0,0,1-2.19-1.33,5.53,5.53,0,0,1-1.31-2.26,10.56,10.56,0,0,1-.43-3.19,10.16,10.16,0,0,1,.45-3.14,6.6,6.6,0,0,1,1.32-2.37,5.68,5.68,0,0,1,2.1-1.49,8.11,8.11,0,0,1,5.6,0,5.06,5.06,0,0,1,1.91,1.34,5.42,5.42,0,0,1,1.1,2,8.84,8.84,0,0,1,.35,2.55Zm-3.57-1.05a3.8,3.8,0,0,0-.62-2.44,2.41,2.41,0,0,0-2.06-.89,2.67,2.67,0,0,0-1.22.26,2.52,2.52,0,0,0-.87.71,3.3,3.3,0,0,0-.53,1.05,5.31,5.31,0,0,0-.21,1.3Z"/>
      <path class="cls-12" d="M725.36,148.84q0,.53,0,.86a2.66,2.66,0,0,1-.09.53.52.52,0,0,1-.15.26.39.39,0,0,1-.24.07.78.78,0,0,1-.26-.05l-.33-.11-.4-.11a2.13,2.13,0,0,0-.48-.05,1.65,1.65,0,0,0-.62.12,2.65,2.65,0,0,0-.64.39,4.73,4.73,0,0,0-.69.7,11.26,11.26,0,0,0-.77,1.08v8.14a.4.4,0,0,1-.09.26.64.64,0,0,1-.3.18,2.6,2.6,0,0,1-.56.11,10.78,10.78,0,0,1-1.79,0,2.6,2.6,0,0,1-.56-.11.64.64,0,0,1-.3-.18.4.4,0,0,1-.09-.26V147.62a.45.45,0,0,1,.07-.26.53.53,0,0,1,.26-.18,2.1,2.1,0,0,1,.49-.11,6.38,6.38,0,0,1,.75,0,6.76,6.76,0,0,1,.78,0,1.75,1.75,0,0,1,.48.11.53.53,0,0,1,.24.18.45.45,0,0,1,.07.26v1.63a10.41,10.41,0,0,1,1-1.21,5.47,5.47,0,0,1,.86-.75,2.69,2.69,0,0,1,.82-.39,3.12,3.12,0,0,1,.82-.11l.41,0,.45.07.41.12a.85.85,0,0,1,.26.14.48.48,0,0,1,.12.16,1.34,1.34,0,0,1,.07.24,3.56,3.56,0,0,1,0,.46Q725.36,148.31,725.36,148.84Z"/>
      <path class="cls-12" d="M744.3,158.61c0,.25,0,.47,0,.64a4.18,4.18,0,0,1-.06.43,1.48,1.48,0,0,1-.09.29,1.08,1.08,0,0,1-.23.28,3.13,3.13,0,0,1-.6.41,5.85,5.85,0,0,1-1,.43,7.81,7.81,0,0,1-1.18.31,7.22,7.22,0,0,1-1.31.12,7.12,7.12,0,0,1-2.67-.47,5,5,0,0,1-2-1.38,6.06,6.06,0,0,1-1.19-2.23,10.3,10.3,0,0,1-.4-3,10.44,10.44,0,0,1,.49-3.39,6.47,6.47,0,0,1,1.37-2.37,5.46,5.46,0,0,1,2.08-1.39,7.4,7.4,0,0,1,2.64-.45,6.43,6.43,0,0,1,1.15.1,6.71,6.71,0,0,1,1.05.28,5.74,5.74,0,0,1,.88.4,2.71,2.71,0,0,1,.55.38,1.52,1.52,0,0,1,.23.27.94.94,0,0,1,.1.29,4.22,4.22,0,0,1,.06.43c0,.17,0,.38,0,.62a3.39,3.39,0,0,1-.15,1.19q-.15.34-.38.34a.9.9,0,0,1-.53-.21l-.66-.45a4.92,4.92,0,0,0-.91-.45,3.48,3.48,0,0,0-1.26-.21,2.51,2.51,0,0,0-2.2,1.11,5.72,5.72,0,0,0-.76,3.25,8.14,8.14,0,0,0,.19,1.86,3.94,3.94,0,0,0,.56,1.35,2.36,2.36,0,0,0,.94.81,3,3,0,0,0,1.31.27,3.42,3.42,0,0,0,1.31-.23,5.31,5.31,0,0,0,1-.51q.41-.28.69-.51a.82.82,0,0,1,.47-.23.33.33,0,0,1,.22.07.53.53,0,0,1,.14.27,3.49,3.49,0,0,1,.08.51Q744.3,158.13,744.3,158.61Z"/>
      <path class="cls-12" d="M758.1,160.73a.39.39,0,0,1-.15.32,1,1,0,0,1-.46.17,6.42,6.42,0,0,1-.93.05,6.51,6.51,0,0,1-1-.05.83.83,0,0,1-.42-.17.42.42,0,0,1-.12-.32v-1a6,6,0,0,1-1.84,1.35,5.35,5.35,0,0,1-2.29.48,6.45,6.45,0,0,1-1.91-.27,4.29,4.29,0,0,1-1.51-.81,3.61,3.61,0,0,1-1-1.33,4.51,4.51,0,0,1-.35-1.85,4.19,4.19,0,0,1,.45-2,3.63,3.63,0,0,1,1.33-1.39,6.6,6.6,0,0,1,2.2-.81,15.75,15.75,0,0,1,3.06-.26h1.27V152a4.21,4.21,0,0,0-.12-1.08,1.82,1.82,0,0,0-.41-.77,1.7,1.7,0,0,0-.76-.45,4.07,4.07,0,0,0-1.18-.15,6.07,6.07,0,0,0-1.65.21,9.49,9.49,0,0,0-1.28.45q-.56.25-.93.45a1.37,1.37,0,0,1-.61.21.44.44,0,0,1-.29-.1.77.77,0,0,1-.21-.29,2.08,2.08,0,0,1-.12-.47,4,4,0,0,1,0-.62,2.79,2.79,0,0,1,.07-.72,1.11,1.11,0,0,1,.28-.48,2.79,2.79,0,0,1,.72-.47,8.55,8.55,0,0,1,1.2-.48,11.14,11.14,0,0,1,1.5-.36,9.94,9.94,0,0,1,1.68-.14,10.05,10.05,0,0,1,2.63.3,4.44,4.44,0,0,1,1.79.92,3.58,3.58,0,0,1,1,1.6,7.5,7.5,0,0,1,.32,2.33Zm-3.62-5.6h-1.41a7.56,7.56,0,0,0-1.52.13,2.92,2.92,0,0,0-1,.4,1.63,1.63,0,0,0-.58.64,1.93,1.93,0,0,0-.18.86,1.64,1.64,0,0,0,.52,1.29,2.07,2.07,0,0,0,1.44.47,2.71,2.71,0,0,0,1.43-.4,5.94,5.94,0,0,0,1.33-1.16Z"/>
      <path class="cls-12" d="M770.17,148.84q0,.53,0,.86a2.66,2.66,0,0,1-.09.53.51.51,0,0,1-.15.26.38.38,0,0,1-.24.07.78.78,0,0,1-.26-.05l-.33-.11-.4-.11a2.13,2.13,0,0,0-.48-.05,1.65,1.65,0,0,0-.62.12,2.61,2.61,0,0,0-.64.39,4.73,4.73,0,0,0-.69.7,11.62,11.62,0,0,0-.77,1.08v8.14a.4.4,0,0,1-.09.26.64.64,0,0,1-.3.18,2.63,2.63,0,0,1-.56.11,10.78,10.78,0,0,1-1.79,0,2.63,2.63,0,0,1-.56-.11.64.64,0,0,1-.3-.18.4.4,0,0,1-.09-.26V147.62a.45.45,0,0,1,.07-.26.53.53,0,0,1,.26-.18,2.11,2.11,0,0,1,.49-.11,6.42,6.42,0,0,1,.75,0,6.76,6.76,0,0,1,.78,0,1.78,1.78,0,0,1,.48.11.53.53,0,0,1,.24.18.45.45,0,0,1,.07.26v1.63a10.41,10.41,0,0,1,1-1.21,5.47,5.47,0,0,1,.86-.75,2.69,2.69,0,0,1,.82-.39,3.12,3.12,0,0,1,.82-.11l.41,0,.45.07.41.12a.82.82,0,0,1,.26.14.43.43,0,0,1,.12.16,1.18,1.18,0,0,1,.07.24,3.56,3.56,0,0,1,0,.46Q770.17,148.31,770.17,148.84Z"/>
      <path class="cls-12" d="M784.51,153.78a1.43,1.43,0,0,1-.3,1,1.08,1.08,0,0,1-.83.32h-8a5.38,5.38,0,0,0,.2,1.52,2.89,2.89,0,0,0,.63,1.16,2.76,2.76,0,0,0,1.11.72,4.78,4.78,0,0,0,1.63.25,9.1,9.1,0,0,0,1.7-.14,11,11,0,0,0,1.27-.31q.54-.17.89-.31a1.66,1.66,0,0,1,.57-.14.44.44,0,0,1,.22.05.39.39,0,0,1,.15.18,1.2,1.2,0,0,1,.08.37c0,.16,0,.36,0,.61s0,.4,0,.55a3.44,3.44,0,0,1,0,.39.92.92,0,0,1-.09.27,1,1,0,0,1-.15.21,1.8,1.8,0,0,1-.52.28,8.22,8.22,0,0,1-1.08.34q-.66.17-1.51.29a12.68,12.68,0,0,1-1.82.12,9.62,9.62,0,0,1-3.05-.44,5.44,5.44,0,0,1-2.19-1.33,5.53,5.53,0,0,1-1.31-2.26,10.56,10.56,0,0,1-.43-3.19,10.16,10.16,0,0,1,.45-3.14,6.6,6.6,0,0,1,1.32-2.37,5.68,5.68,0,0,1,2.1-1.49,8.11,8.11,0,0,1,5.6,0,5.06,5.06,0,0,1,1.91,1.34,5.42,5.42,0,0,1,1.1,2,8.84,8.84,0,0,1,.35,2.55Zm-3.57-1.05a3.8,3.8,0,0,0-.62-2.44,2.41,2.41,0,0,0-2.06-.89,2.67,2.67,0,0,0-1.22.26,2.52,2.52,0,0,0-.87.71,3.3,3.3,0,0,0-.53,1.05,5.31,5.31,0,0,0-.21,1.3Z"/>
      <path class="cls-12" d="M799.61,153.78a1.42,1.42,0,0,1-.3,1,1.07,1.07,0,0,1-.83.32h-8a5.46,5.46,0,0,0,.2,1.52,2.89,2.89,0,0,0,.63,1.16,2.73,2.73,0,0,0,1.11.72,4.76,4.76,0,0,0,1.63.25,9.1,9.1,0,0,0,1.7-.14,11.14,11.14,0,0,0,1.27-.31q.53-.17.89-.31a1.66,1.66,0,0,1,.57-.14.44.44,0,0,1,.22.05.39.39,0,0,1,.15.18,1.26,1.26,0,0,1,.08.37c0,.16,0,.36,0,.61s0,.4,0,.55a3.44,3.44,0,0,1,0,.39.92.92,0,0,1-.09.27,1,1,0,0,1-.15.21,1.76,1.76,0,0,1-.52.28,8.22,8.22,0,0,1-1.08.34q-.66.17-1.51.29a12.68,12.68,0,0,1-1.82.12,9.61,9.61,0,0,1-3.05-.44,5.43,5.43,0,0,1-2.19-1.33,5.56,5.56,0,0,1-1.31-2.26,10.62,10.62,0,0,1-.43-3.19,10.16,10.16,0,0,1,.45-3.14,6.6,6.6,0,0,1,1.32-2.37,5.67,5.67,0,0,1,2.1-1.49,7.23,7.23,0,0,1,2.79-.51,7.31,7.31,0,0,1,2.81.48,5.08,5.08,0,0,1,1.91,1.34,5.42,5.42,0,0,1,1.1,2,8.84,8.84,0,0,1,.35,2.55ZM796,152.72a3.79,3.79,0,0,0-.62-2.44,2.41,2.41,0,0,0-2.06-.89,2.68,2.68,0,0,0-1.22.26,2.51,2.51,0,0,0-.86.71,3.22,3.22,0,0,0-.53,1.05,5.22,5.22,0,0,0-.21,1.3Z"/>
      <path class="cls-12" d="M811,148.84q0,.53,0,.86a2.66,2.66,0,0,1-.09.53.51.51,0,0,1-.15.26.38.38,0,0,1-.24.07.78.78,0,0,1-.26-.05l-.33-.11-.4-.11a2.13,2.13,0,0,0-.48-.05,1.65,1.65,0,0,0-.62.12,2.61,2.61,0,0,0-.64.39,4.73,4.73,0,0,0-.69.7,11.62,11.62,0,0,0-.77,1.08v8.14a.4.4,0,0,1-.09.26.64.64,0,0,1-.3.18,2.63,2.63,0,0,1-.56.11,10.78,10.78,0,0,1-1.79,0,2.63,2.63,0,0,1-.56-.11.64.64,0,0,1-.3-.18.4.4,0,0,1-.09-.26V147.62a.45.45,0,0,1,.07-.26.53.53,0,0,1,.26-.18,2.11,2.11,0,0,1,.49-.11,6.42,6.42,0,0,1,.75,0,6.76,6.76,0,0,1,.78,0,1.78,1.78,0,0,1,.48.11.53.53,0,0,1,.24.18.45.45,0,0,1,.07.26v1.63a10.41,10.41,0,0,1,1-1.21,5.47,5.47,0,0,1,.86-.75,2.69,2.69,0,0,1,.82-.39,3.12,3.12,0,0,1,.82-.11l.41,0,.45.07.41.12a.82.82,0,0,1,.26.14.43.43,0,0,1,.12.16,1.18,1.18,0,0,1,.07.24,3.56,3.56,0,0,1,0,.46Q811,148.31,811,148.84Z"/>
      <path class="cls-12" d="M833.3,154a10,10,0,0,1-.44,3,6.43,6.43,0,0,1-1.33,2.37,5.93,5.93,0,0,1-2.24,1.54,8.41,8.41,0,0,1-3.15.54,8.63,8.63,0,0,1-3-.48,5.46,5.46,0,0,1-2.14-1.41,5.78,5.78,0,0,1-1.26-2.27,10.57,10.57,0,0,1-.41-3.08,9.87,9.87,0,0,1,.45-3.05,6.4,6.4,0,0,1,1.34-2.37,6,6,0,0,1,2.23-1.53,8.34,8.34,0,0,1,3.14-.54,8.82,8.82,0,0,1,3,.48,5.35,5.35,0,0,1,2.13,1.4,5.84,5.84,0,0,1,1.25,2.27A10.63,10.63,0,0,1,833.3,154Zm-3.79.15a9.69,9.69,0,0,0-.15-1.78,4.21,4.21,0,0,0-.52-1.41,2.61,2.61,0,0,0-1-.94,3.13,3.13,0,0,0-1.53-.34,3.24,3.24,0,0,0-1.44.3,2.58,2.58,0,0,0-1,.88,4.19,4.19,0,0,0-.59,1.39,7.83,7.83,0,0,0-.2,1.85,9.15,9.15,0,0,0,.16,1.78,4.42,4.42,0,0,0,.52,1.41,2.48,2.48,0,0,0,1,.93,3.18,3.18,0,0,0,1.52.33,3.26,3.26,0,0,0,1.45-.3,2.59,2.59,0,0,0,1-.87,4,4,0,0,0,.59-1.38A8.15,8.15,0,0,0,829.51,154.17Z"/>
      <path class="cls-12" d="M849.37,154a12.14,12.14,0,0,1-.37,3.14,7.06,7.06,0,0,1-1.09,2.38,4.84,4.84,0,0,1-1.79,1.51,5.46,5.46,0,0,1-2.45.53,4.59,4.59,0,0,1-1-.11,4,4,0,0,1-.92-.34,5.77,5.77,0,0,1-.89-.56,10.48,10.48,0,0,1-.91-.79v6.15a.43.43,0,0,1-.09.26.66.66,0,0,1-.3.2,2.53,2.53,0,0,1-.56.13,9.11,9.11,0,0,1-1.79,0,2.53,2.53,0,0,1-.56-.12.66.66,0,0,1-.3-.2.43.43,0,0,1-.09-.26V147.62a.45.45,0,0,1,.07-.26.53.53,0,0,1,.26-.18,2,2,0,0,1,.48-.11,6.38,6.38,0,0,1,.75,0,6.27,6.27,0,0,1,.74,0,2,2,0,0,1,.48.11.53.53,0,0,1,.26.18.45.45,0,0,1,.07.26v1.54a13.12,13.12,0,0,1,1.12-1,6.8,6.8,0,0,1,1.12-.75,5.15,5.15,0,0,1,1.18-.45,5.53,5.53,0,0,1,1.3-.15,5,5,0,0,1,2.45.56,4.63,4.63,0,0,1,1.65,1.55,6.94,6.94,0,0,1,.93,2.29A12.67,12.67,0,0,1,849.37,154Zm-3.84.26a10.16,10.16,0,0,0-.12-1.6,4.75,4.75,0,0,0-.43-1.37,2.59,2.59,0,0,0-.79-1,2,2,0,0,0-1.22-.36,2.49,2.49,0,0,0-.72.11,2.82,2.82,0,0,0-.73.36,5.08,5.08,0,0,0-.77.64,9.2,9.2,0,0,0-.83,1v4.31a8.61,8.61,0,0,0,1.48,1.52,2.39,2.39,0,0,0,1.46.53,2,2,0,0,0,1.22-.37,2.83,2.83,0,0,0,.83-1,4.88,4.88,0,0,0,.48-1.34A7.46,7.46,0,0,0,845.54,154.23Z"/>
      <path class="cls-12" d="M865.47,154a12.22,12.22,0,0,1-.37,3.14,7.1,7.1,0,0,1-1.09,2.38,4.84,4.84,0,0,1-1.79,1.51,5.46,5.46,0,0,1-2.45.53,4.61,4.61,0,0,1-1-.11,4,4,0,0,1-.92-.34,5.68,5.68,0,0,1-.89-.56,10.48,10.48,0,0,1-.91-.79v6.15a.43.43,0,0,1-.09.26.65.65,0,0,1-.3.2,2.49,2.49,0,0,1-.56.13,9.11,9.11,0,0,1-1.79,0,2.49,2.49,0,0,1-.56-.12.65.65,0,0,1-.3-.2.43.43,0,0,1-.09-.26V147.62a.45.45,0,0,1,.07-.26.53.53,0,0,1,.26-.18,2,2,0,0,1,.48-.11,6.42,6.42,0,0,1,.75,0,6.23,6.23,0,0,1,.74,0,2,2,0,0,1,.48.11.53.53,0,0,1,.26.18.45.45,0,0,1,.07.26v1.54a13.41,13.41,0,0,1,1.12-1,6.89,6.89,0,0,1,1.12-.75,5.12,5.12,0,0,1,1.18-.45,5.51,5.51,0,0,1,1.3-.15,5,5,0,0,1,2.45.56,4.65,4.65,0,0,1,1.65,1.55,7,7,0,0,1,.93,2.29A12.67,12.67,0,0,1,865.47,154Zm-3.84.26a9.93,9.93,0,0,0-.12-1.6,4.75,4.75,0,0,0-.42-1.37,2.62,2.62,0,0,0-.79-1,2,2,0,0,0-1.22-.36,2.5,2.5,0,0,0-.73.11,2.88,2.88,0,0,0-.73.36,5.17,5.17,0,0,0-.77.64,9.2,9.2,0,0,0-.83,1v4.31a8.61,8.61,0,0,0,1.48,1.52,2.39,2.39,0,0,0,1.46.53,2,2,0,0,0,1.22-.37,2.85,2.85,0,0,0,.83-1,4.82,4.82,0,0,0,.48-1.34A7.32,7.32,0,0,0,861.63,154.23Z"/>
      <path class="cls-12" d="M881.63,154a10,10,0,0,1-.44,3,6.43,6.43,0,0,1-1.33,2.37,5.93,5.93,0,0,1-2.24,1.54,8.41,8.41,0,0,1-3.15.54,8.63,8.63,0,0,1-3-.48,5.46,5.46,0,0,1-2.14-1.41,5.78,5.78,0,0,1-1.26-2.27,10.57,10.57,0,0,1-.41-3.08,9.92,9.92,0,0,1,.45-3.05,6.43,6.43,0,0,1,1.34-2.37,6,6,0,0,1,2.23-1.53,8.36,8.36,0,0,1,3.14-.54,8.82,8.82,0,0,1,3,.48,5.33,5.33,0,0,1,2.13,1.4,5.82,5.82,0,0,1,1.25,2.27A10.63,10.63,0,0,1,881.63,154Zm-3.79.15a9.52,9.52,0,0,0-.15-1.78,4.17,4.17,0,0,0-.52-1.41,2.59,2.59,0,0,0-1-.94,3.12,3.12,0,0,0-1.53-.34,3.24,3.24,0,0,0-1.44.3,2.58,2.58,0,0,0-1,.88,4.23,4.23,0,0,0-.59,1.39,7.93,7.93,0,0,0-.2,1.85,9.15,9.15,0,0,0,.16,1.78,4.38,4.38,0,0,0,.52,1.41,2.46,2.46,0,0,0,1,.93,3.18,3.18,0,0,0,1.52.33,3.26,3.26,0,0,0,1.45-.3,2.59,2.59,0,0,0,1-.87,4,4,0,0,0,.59-1.38A8.15,8.15,0,0,0,877.84,154.17Z"/>
      <path class="cls-12" d="M892.94,148.84q0,.53,0,.86a2.66,2.66,0,0,1-.09.53.52.52,0,0,1-.15.26.39.39,0,0,1-.24.07.78.78,0,0,1-.26-.05l-.33-.11-.4-.11a2.13,2.13,0,0,0-.48-.05,1.65,1.65,0,0,0-.62.12,2.65,2.65,0,0,0-.64.39,4.73,4.73,0,0,0-.69.7,11.26,11.26,0,0,0-.77,1.08v8.14a.4.4,0,0,1-.09.26.64.64,0,0,1-.3.18,2.61,2.61,0,0,1-.56.11,10.78,10.78,0,0,1-1.79,0,2.6,2.6,0,0,1-.56-.11.64.64,0,0,1-.3-.18.4.4,0,0,1-.09-.26V147.62a.45.45,0,0,1,.07-.26.53.53,0,0,1,.26-.18,2.1,2.1,0,0,1,.49-.11,6.38,6.38,0,0,1,.75,0,6.76,6.76,0,0,1,.78,0,1.76,1.76,0,0,1,.48.11.53.53,0,0,1,.24.18.45.45,0,0,1,.07.26v1.63a10.41,10.41,0,0,1,1-1.21,5.47,5.47,0,0,1,.86-.75,2.69,2.69,0,0,1,.82-.39,3.12,3.12,0,0,1,.82-.11l.41,0,.45.07.41.12a.85.85,0,0,1,.26.14.48.48,0,0,1,.12.16,1.34,1.34,0,0,1,.07.24,3.56,3.56,0,0,1,0,.46Q892.94,148.31,892.94,148.84Z"/>
      <path class="cls-12" d="M902.94,159.4a4.67,4.67,0,0,1-.08,1,1.08,1.08,0,0,1-.21.48,1.15,1.15,0,0,1-.39.25,3.65,3.65,0,0,1-.6.19,6.53,6.53,0,0,1-.75.12,7.48,7.48,0,0,1-.81,0,5.84,5.84,0,0,1-1.9-.28,3.16,3.16,0,0,1-1.33-.86,3.57,3.57,0,0,1-.78-1.46,7.68,7.68,0,0,1-.25-2.08v-6.69h-1.57q-.28,0-.42-.34a3.21,3.21,0,0,1-.15-1.15,5.93,5.93,0,0,1,0-.72,1.74,1.74,0,0,1,.11-.46.55.55,0,0,1,.18-.24.46.46,0,0,1,.26-.07h1.55v-2.92a.45.45,0,0,1,.08-.26.6.6,0,0,1,.29-.2,2.4,2.4,0,0,1,.57-.12c.24,0,.54,0,.89,0s.66,0,.9,0a2.3,2.3,0,0,1,.56.12.66.66,0,0,1,.29.2.43.43,0,0,1,.09.26v2.92h2.84a.45.45,0,0,1,.26.07.53.53,0,0,1,.18.24,1.74,1.74,0,0,1,.11.46,5.91,5.91,0,0,1,0,.72,3.21,3.21,0,0,1-.15,1.15q-.15.34-.42.34h-2.86v6.14a3.06,3.06,0,0,0,.34,1.6,1.31,1.31,0,0,0,1.2.53,2.41,2.41,0,0,0,.53-.05,3,3,0,0,0,.42-.12l.31-.12a.61.61,0,0,1,.23-.05.32.32,0,0,1,.17.05.35.35,0,0,1,.13.21,3.24,3.24,0,0,1,.08.42A5.05,5.05,0,0,1,902.94,159.4Z"/>
      <path class="cls-12" d="M918,160.69a.45.45,0,0,1-.07.26.53.53,0,0,1-.26.18,2,2,0,0,1-.48.11,6.42,6.42,0,0,1-.75,0,6.73,6.73,0,0,1-.78,0,1.86,1.86,0,0,1-.48-.11.53.53,0,0,1-.25-.18.45.45,0,0,1-.07-.26v-1.51a8.31,8.31,0,0,1-2.2,1.76,5,5,0,0,1-2.32.59,5.21,5.21,0,0,1-2.26-.44,3.9,3.9,0,0,1-1.48-1.2,4.83,4.83,0,0,1-.81-1.76,10.94,10.94,0,0,1-.24-2.5v-8a.41.41,0,0,1,.08-.26.58.58,0,0,1,.29-.18,2.61,2.61,0,0,1,.57-.11q.36,0,.89,0a8.89,8.89,0,0,1,.89,0,2.61,2.61,0,0,1,.56.11.64.64,0,0,1,.3.18.4.4,0,0,1,.09.26V155a7.06,7.06,0,0,0,.13,1.57,2.72,2.72,0,0,0,.4.93,1.84,1.84,0,0,0,.69.6,2.11,2.11,0,0,0,1,.21,2.41,2.41,0,0,0,1.41-.51,8.48,8.48,0,0,0,1.52-1.49v-8.69a.42.42,0,0,1,.08-.26.59.59,0,0,1,.29-.18,2.62,2.62,0,0,1,.56-.11,10.78,10.78,0,0,1,1.79,0,2.48,2.48,0,0,1,.56.11.64.64,0,0,1,.29.18.4.4,0,0,1,.09.26Z"/>
      <path class="cls-12" d="M934.19,160.69a.4.4,0,0,1-.09.26.64.64,0,0,1-.29.18,2.5,2.5,0,0,1-.56.11q-.36,0-.89,0t-.9,0a2.49,2.49,0,0,1-.56-.11.64.64,0,0,1-.29-.18.4.4,0,0,1-.09-.26v-7.46a6.28,6.28,0,0,0-.14-1.49,3,3,0,0,0-.4-.93,1.79,1.79,0,0,0-.68-.6,2.12,2.12,0,0,0-1-.21,2.44,2.44,0,0,0-1.42.51A7.67,7.67,0,0,0,925.4,152v8.69a.4.4,0,0,1-.09.26.64.64,0,0,1-.3.18,2.61,2.61,0,0,1-.56.11,10.78,10.78,0,0,1-1.79,0,2.6,2.6,0,0,1-.56-.11.64.64,0,0,1-.3-.18.4.4,0,0,1-.09-.26V147.62a.45.45,0,0,1,.07-.26.53.53,0,0,1,.26-.18,2.1,2.1,0,0,1,.49-.11,6.38,6.38,0,0,1,.75,0,6.76,6.76,0,0,1,.78,0,1.76,1.76,0,0,1,.48.11.53.53,0,0,1,.24.18.45.45,0,0,1,.07.26v1.51a8.31,8.31,0,0,1,2.2-1.76,5,5,0,0,1,2.34-.59,5.18,5.18,0,0,1,2.25.44,3.94,3.94,0,0,1,1.48,1.19,4.85,4.85,0,0,1,.81,1.76,10.29,10.29,0,0,1,.25,2.43Z"/>
      <path class="cls-12" d="M941.78,143.2a2.07,2.07,0,0,1-.45,1.54,3.59,3.59,0,0,1-3.36,0,2,2,0,0,1-.43-1.48,2.12,2.12,0,0,1,.45-1.55,3.54,3.54,0,0,1,3.36,0A2,2,0,0,1,941.78,143.2Zm-.28,17.49a.4.4,0,0,1-.09.26.64.64,0,0,1-.3.18,2.61,2.61,0,0,1-.56.11,10.78,10.78,0,0,1-1.79,0,2.6,2.6,0,0,1-.56-.11.64.64,0,0,1-.3-.18.4.4,0,0,1-.09-.26v-13a.4.4,0,0,1,.09-.26.69.69,0,0,1,.3-.19,2.55,2.55,0,0,1,.56-.12,9.11,9.11,0,0,1,1.79,0,2.57,2.57,0,0,1,.56.12.69.69,0,0,1,.3.19.4.4,0,0,1,.09.26Z"/>
      <path class="cls-12" d="M952.91,159.4a4.67,4.67,0,0,1-.08,1,1.08,1.08,0,0,1-.21.48,1.15,1.15,0,0,1-.39.25,3.65,3.65,0,0,1-.6.19,6.53,6.53,0,0,1-.75.12,7.48,7.48,0,0,1-.81,0,5.84,5.84,0,0,1-1.9-.28,3.16,3.16,0,0,1-1.33-.86,3.57,3.57,0,0,1-.78-1.46,7.68,7.68,0,0,1-.25-2.08v-6.69h-1.57q-.28,0-.42-.34a3.21,3.21,0,0,1-.15-1.15,5.93,5.93,0,0,1,0-.72,1.74,1.74,0,0,1,.11-.46.55.55,0,0,1,.18-.24.46.46,0,0,1,.26-.07h1.55v-2.92a.45.45,0,0,1,.08-.26.6.6,0,0,1,.29-.2,2.4,2.4,0,0,1,.57-.12c.24,0,.54,0,.89,0s.66,0,.9,0a2.3,2.3,0,0,1,.56.12.66.66,0,0,1,.29.2.43.43,0,0,1,.09.26v2.92h2.84a.45.45,0,0,1,.26.07.53.53,0,0,1,.18.24,1.74,1.74,0,0,1,.11.46,5.91,5.91,0,0,1,0,.72,3.21,3.21,0,0,1-.15,1.15q-.15.34-.42.34h-2.86v6.14a3.06,3.06,0,0,0,.34,1.6,1.31,1.31,0,0,0,1.2.53,2.41,2.41,0,0,0,.53-.05,3,3,0,0,0,.42-.12l.31-.12a.61.61,0,0,1,.23-.05.32.32,0,0,1,.17.05.35.35,0,0,1,.13.21,3.24,3.24,0,0,1,.08.42A5.05,5.05,0,0,1,952.91,159.4Z"/>
      <path class="cls-12" d="M960.33,143.2a2.07,2.07,0,0,1-.45,1.54,3.59,3.59,0,0,1-3.36,0,2,2,0,0,1-.43-1.48,2.12,2.12,0,0,1,.45-1.55,3.54,3.54,0,0,1,3.36,0A2,2,0,0,1,960.33,143.2ZM960,160.69a.4.4,0,0,1-.09.26.64.64,0,0,1-.3.18,2.61,2.61,0,0,1-.56.11,10.78,10.78,0,0,1-1.79,0,2.6,2.6,0,0,1-.56-.11.64.64,0,0,1-.3-.18.4.4,0,0,1-.09-.26v-13a.4.4,0,0,1,.09-.26.69.69,0,0,1,.3-.19,2.55,2.55,0,0,1,.56-.12,9.11,9.11,0,0,1,1.79,0,2.57,2.57,0,0,1,.56.12.69.69,0,0,1,.3.19.4.4,0,0,1,.09.26Z"/>
      <path class="cls-12" d="M975.8,153.78a1.42,1.42,0,0,1-.3,1,1.07,1.07,0,0,1-.83.32h-8a5.46,5.46,0,0,0,.2,1.52,2.89,2.89,0,0,0,.63,1.16,2.73,2.73,0,0,0,1.11.72,4.76,4.76,0,0,0,1.63.25,9.1,9.1,0,0,0,1.7-.14,11.14,11.14,0,0,0,1.27-.31q.53-.17.89-.31a1.66,1.66,0,0,1,.57-.14.44.44,0,0,1,.22.05.39.39,0,0,1,.15.18,1.26,1.26,0,0,1,.08.37c0,.16,0,.36,0,.61s0,.4,0,.55a3.44,3.44,0,0,1,0,.39.92.92,0,0,1-.09.27,1,1,0,0,1-.15.21,1.78,1.78,0,0,1-.52.28,8.22,8.22,0,0,1-1.08.34q-.66.17-1.51.29a12.68,12.68,0,0,1-1.82.12,9.61,9.61,0,0,1-3.05-.44,5.43,5.43,0,0,1-2.19-1.33,5.55,5.55,0,0,1-1.31-2.26,10.59,10.59,0,0,1-.43-3.19,10.16,10.16,0,0,1,.45-3.14,6.6,6.6,0,0,1,1.32-2.37,5.67,5.67,0,0,1,2.1-1.49,7.23,7.23,0,0,1,2.79-.51,7.31,7.31,0,0,1,2.81.48,5.08,5.08,0,0,1,1.91,1.34,5.42,5.42,0,0,1,1.1,2,8.84,8.84,0,0,1,.35,2.55Zm-3.57-1.05a3.79,3.79,0,0,0-.62-2.44,2.41,2.41,0,0,0-2.06-.89,2.67,2.67,0,0,0-1.22.26,2.5,2.5,0,0,0-.86.71,3.22,3.22,0,0,0-.53,1.05,5.22,5.22,0,0,0-.21,1.3Z"/>
      <path class="cls-12" d="M988,157a4.38,4.38,0,0,1-.42,2,3.9,3.9,0,0,1-1.18,1.42,5.3,5.3,0,0,1-1.8.86,8.89,8.89,0,0,1-4.85-.1,6.24,6.24,0,0,1-.88-.34,2.2,2.2,0,0,1-.51-.33,1,1,0,0,1-.25-.48,4,4,0,0,1-.09-1,6.27,6.27,0,0,1,0-.68,1.73,1.73,0,0,1,.09-.41.38.38,0,0,1,.15-.21.43.43,0,0,1,.22-.05,1.11,1.11,0,0,1,.48.18q.31.18.78.4a8.27,8.27,0,0,0,1.09.41,4.82,4.82,0,0,0,1.41.19,3.48,3.48,0,0,0,.89-.1,2.22,2.22,0,0,0,.67-.29,1.24,1.24,0,0,0,.43-.48,1.49,1.49,0,0,0,.15-.67,1.12,1.12,0,0,0-.27-.75,2.43,2.43,0,0,0-.72-.55,8.3,8.3,0,0,0-1-.44c-.38-.14-.76-.29-1.16-.45a10.58,10.58,0,0,1-1.16-.57,4.4,4.4,0,0,1-1-.79,3.58,3.58,0,0,1-.72-1.13,4.14,4.14,0,0,1-.27-1.58,4,4,0,0,1,.37-1.72,3.75,3.75,0,0,1,1.05-1.34,5,5,0,0,1,1.68-.86,7.46,7.46,0,0,1,2.22-.31,8,8,0,0,1,1.19.09,8.75,8.75,0,0,1,1,.22,5.1,5.1,0,0,1,.79.29,2.73,2.73,0,0,1,.46.26.74.74,0,0,1,.2.22.91.91,0,0,1,.09.26c0,.1,0,.23.05.38s0,.34,0,.56,0,.48,0,.64a1.73,1.73,0,0,1-.07.4.35.35,0,0,1-.14.2.39.39,0,0,1-.21.05,1,1,0,0,1-.41-.15,7.26,7.26,0,0,0-.7-.33,8.53,8.53,0,0,0-1-.33,4.7,4.7,0,0,0-1.25-.15,3.23,3.23,0,0,0-.86.1,1.64,1.64,0,0,0-.6.29,1.23,1.23,0,0,0-.35.45,1.3,1.3,0,0,0-.12.55,1.09,1.09,0,0,0,.28.76,2.55,2.55,0,0,0,.73.54,8.26,8.26,0,0,0,1,.44l1.17.45a11.09,11.09,0,0,1,1.17.56,4.45,4.45,0,0,1,1,.79,3.65,3.65,0,0,1,.73,1.12A3.92,3.92,0,0,1,988,157Z"/>
      <path class="cls-12" d="M633.64,178.64a6.29,6.29,0,0,1,0,.68,1.48,1.48,0,0,1-.09.39.43.43,0,0,1-.13.19.27.27,0,0,1-.16.05.61.61,0,0,1-.23-.05l-.31-.11-.43-.11a3,3,0,0,0-.59-.05,1.69,1.69,0,0,0-.68.13,1.13,1.13,0,0,0-.48.39,1.87,1.87,0,0,0-.28.7,5.45,5.45,0,0,0-.09,1.06v1.2h2.39a.43.43,0,0,1,.24.07.55.55,0,0,1,.18.24,1.78,1.78,0,0,1,.11.46,6.14,6.14,0,0,1,0,.72,3.21,3.21,0,0,1-.15,1.15q-.15.34-.42.34h-2.39v10.58a.4.4,0,0,1-.09.26.64.64,0,0,1-.29.18,2.52,2.52,0,0,1-.57.11q-.37,0-.89,0c-.35,0-.65,0-.89,0a2.65,2.65,0,0,1-.57-.11.6.6,0,0,1-.29-.18.42.42,0,0,1-.08-.26V186.11h-1.64c-.19,0-.32-.11-.42-.34a3.4,3.4,0,0,1-.14-1.15,5.72,5.72,0,0,1,0-.72,2,2,0,0,1,.1-.46.51.51,0,0,1,.18-.24.46.46,0,0,1,.26-.07h1.63V182a9.26,9.26,0,0,1,.26-2.34,4.19,4.19,0,0,1,.83-1.67,3.49,3.49,0,0,1,1.44-1,5.69,5.69,0,0,1,2.06-.34,5.93,5.93,0,0,1,1.08.1,4.88,4.88,0,0,1,.81.21,1.27,1.27,0,0,1,.4.21.71.71,0,0,1,.17.28,2.1,2.1,0,0,1,.09.47C633.63,178.12,633.64,178.36,633.64,178.64Z"/>
      <path class="cls-12" d="M648.46,190a10,10,0,0,1-.44,3,6.43,6.43,0,0,1-1.33,2.37,5.93,5.93,0,0,1-2.24,1.54,8.41,8.41,0,0,1-3.15.54,8.63,8.63,0,0,1-3-.48,5.46,5.46,0,0,1-2.14-1.41,5.78,5.78,0,0,1-1.26-2.27,10.57,10.57,0,0,1-.41-3.08,9.92,9.92,0,0,1,.45-3.05,6.43,6.43,0,0,1,1.34-2.37,6,6,0,0,1,2.23-1.53,8.36,8.36,0,0,1,3.14-.54,8.82,8.82,0,0,1,3,.48,5.33,5.33,0,0,1,2.13,1.4,5.82,5.82,0,0,1,1.25,2.27A10.63,10.63,0,0,1,648.46,190Zm-3.79.15a9.52,9.52,0,0,0-.15-1.78A4.17,4.17,0,0,0,644,187a2.59,2.59,0,0,0-1-.94,3.12,3.12,0,0,0-1.53-.34,3.24,3.24,0,0,0-1.44.3,2.58,2.58,0,0,0-1,.88,4.23,4.23,0,0,0-.59,1.39,7.93,7.93,0,0,0-.2,1.85,9.15,9.15,0,0,0,.16,1.78,4.38,4.38,0,0,0,.52,1.41,2.46,2.46,0,0,0,1,.93,3.18,3.18,0,0,0,1.52.33,3.26,3.26,0,0,0,1.45-.3,2.59,2.59,0,0,0,1-.87,4,4,0,0,0,.59-1.38A8.15,8.15,0,0,0,644.67,190.17Z"/>
      <path class="cls-12" d="M659.77,184.84q0,.53,0,.86a2.66,2.66,0,0,1-.09.53.52.52,0,0,1-.15.26.39.39,0,0,1-.24.07.78.78,0,0,1-.26-.05l-.33-.11-.4-.11a2.13,2.13,0,0,0-.48-.05,1.65,1.65,0,0,0-.62.12,2.65,2.65,0,0,0-.64.39,4.73,4.73,0,0,0-.69.7,11.26,11.26,0,0,0-.77,1.08v8.14a.4.4,0,0,1-.09.26.64.64,0,0,1-.3.18,2.6,2.6,0,0,1-.56.11,10.78,10.78,0,0,1-1.79,0,2.6,2.6,0,0,1-.56-.11.64.64,0,0,1-.3-.18.4.4,0,0,1-.09-.26V183.62a.45.45,0,0,1,.07-.26.53.53,0,0,1,.26-.18,2.1,2.1,0,0,1,.49-.11,6.38,6.38,0,0,1,.75,0,6.76,6.76,0,0,1,.78,0,1.75,1.75,0,0,1,.48.11.53.53,0,0,1,.24.18.45.45,0,0,1,.07.26v1.63a10.41,10.41,0,0,1,1-1.21,5.47,5.47,0,0,1,.86-.75,2.69,2.69,0,0,1,.82-.39,3.12,3.12,0,0,1,.82-.11l.41,0,.45.07.41.12a.85.85,0,0,1,.26.14.48.48,0,0,1,.12.16,1.34,1.34,0,0,1,.07.24,3.56,3.56,0,0,1,0,.46Q659.77,184.31,659.77,184.84Z"/>
      <path class="cls-12" d="M680.6,184.53a2.53,2.53,0,0,1-.16,1q-.16.34-.4.34h-1.54a2.08,2.08,0,0,1,.46.8,3.08,3.08,0,0,1,.14.93,5.1,5.1,0,0,1-.38,2,4,4,0,0,1-1.09,1.49,4.81,4.81,0,0,1-1.71.92,7.4,7.4,0,0,1-2.23.32,4.64,4.64,0,0,1-1.2-.15,3.07,3.07,0,0,1-.88-.36,2.17,2.17,0,0,0-.32.45,1.25,1.25,0,0,0-.14.59.83.83,0,0,0,.37.7,1.91,1.91,0,0,0,1,.3l3.18.12a7.71,7.71,0,0,1,2,.32,4.23,4.23,0,0,1,1.46.76,3.27,3.27,0,0,1,.91,1.18,3.71,3.71,0,0,1,.32,1.57,4.06,4.06,0,0,1-.42,1.82,4.14,4.14,0,0,1-1.27,1.49,6.58,6.58,0,0,1-2.13,1,11,11,0,0,1-3,.37,13.24,13.24,0,0,1-2.85-.26,6.23,6.23,0,0,1-1.93-.73,3,3,0,0,1-1.1-1.12,3,3,0,0,1-.34-1.43,3.33,3.33,0,0,1,.13-.92,3.45,3.45,0,0,1,.37-.84,4.38,4.38,0,0,1,.59-.77,6.39,6.39,0,0,1,.81-.7,2.44,2.44,0,0,1-1.32-2.18,3.19,3.19,0,0,1,.4-1.58,5,5,0,0,1,1-1.28,3.88,3.88,0,0,1-.82-1.23,4.55,4.55,0,0,1-.31-1.79,4.93,4.93,0,0,1,.4-2,4.3,4.3,0,0,1,1.12-1.52,5,5,0,0,1,1.71-1,7,7,0,0,1,2.2-.33,9.17,9.17,0,0,1,1.18.07,7.83,7.83,0,0,1,1,.21H680c.17,0,.3.11.4.32A2.75,2.75,0,0,1,680.6,184.53Zm-3.87,13.52a1.14,1.14,0,0,0-.53-1,2.75,2.75,0,0,0-1.45-.38l-2.62-.07a3.94,3.94,0,0,0-.61.53,3.26,3.26,0,0,0-.37.49,1.43,1.43,0,0,0-.18.45,2.31,2.31,0,0,0,0,.45,1.2,1.2,0,0,0,.74,1.11,4.65,4.65,0,0,0,2.09.38,5,5,0,0,0,1.41-.17,2.71,2.71,0,0,0,.92-.45,1.61,1.61,0,0,0,.5-.62A1.84,1.84,0,0,0,676.73,198.05Zm-.86-10.43a2,2,0,0,0-2.24-2.23,2.33,2.33,0,0,0-1,.18,2,2,0,0,0-.68.5,2.09,2.09,0,0,0-.4.73,2.88,2.88,0,0,0-.13.87,2.11,2.11,0,0,0,.59,1.58,2.21,2.21,0,0,0,1.63.58,2.44,2.44,0,0,0,1-.18,1.89,1.89,0,0,0,.68-.48,2.13,2.13,0,0,0,.41-.71A2.59,2.59,0,0,0,675.87,187.62Z"/>
      <path class="cls-12" d="M686.74,196.69a.4.4,0,0,1-.09.26.64.64,0,0,1-.3.18,2.6,2.6,0,0,1-.56.11,10.78,10.78,0,0,1-1.79,0,2.6,2.6,0,0,1-.56-.11.64.64,0,0,1-.3-.18.4.4,0,0,1-.09-.26V177.43a.43.43,0,0,1,.09-.26.66.66,0,0,1,.3-.2,2.55,2.55,0,0,1,.56-.12,9.11,9.11,0,0,1,1.79,0,2.55,2.55,0,0,1,.56.12.66.66,0,0,1,.3.2.43.43,0,0,1,.09.26Z"/>
      <path class="cls-12" d="M703.63,190a10,10,0,0,1-.44,3,6.43,6.43,0,0,1-1.33,2.37,5.93,5.93,0,0,1-2.24,1.54,8.41,8.41,0,0,1-3.15.54,8.63,8.63,0,0,1-3-.48,5.46,5.46,0,0,1-2.14-1.41,5.78,5.78,0,0,1-1.26-2.27,10.57,10.57,0,0,1-.41-3.08,9.92,9.92,0,0,1,.45-3.05,6.43,6.43,0,0,1,1.34-2.37,6,6,0,0,1,2.23-1.53,8.36,8.36,0,0,1,3.14-.54,8.82,8.82,0,0,1,3,.48,5.33,5.33,0,0,1,2.13,1.4,5.82,5.82,0,0,1,1.25,2.27A10.63,10.63,0,0,1,703.63,190Zm-3.79.15a9.52,9.52,0,0,0-.15-1.78,4.17,4.17,0,0,0-.52-1.41,2.59,2.59,0,0,0-1-.94,3.12,3.12,0,0,0-1.53-.34,3.24,3.24,0,0,0-1.44.3,2.58,2.58,0,0,0-1,.88,4.23,4.23,0,0,0-.59,1.39,7.93,7.93,0,0,0-.2,1.85,9.15,9.15,0,0,0,.16,1.78,4.38,4.38,0,0,0,.52,1.41,2.46,2.46,0,0,0,1,.93,3.18,3.18,0,0,0,1.52.33,3.26,3.26,0,0,0,1.45-.3,2.59,2.59,0,0,0,1-.87,4,4,0,0,0,.59-1.38A8.15,8.15,0,0,0,699.83,190.17Z"/>
      <path class="cls-12" d="M719.7,190a11.88,11.88,0,0,1-.38,3.13,7.2,7.2,0,0,1-1.1,2.37,4.9,4.9,0,0,1-1.76,1.51,5.23,5.23,0,0,1-2.38.53,5.84,5.84,0,0,1-1.23-.12,4.25,4.25,0,0,1-1.09-.4,6.08,6.08,0,0,1-1-.7,9.77,9.77,0,0,1-1-1v1.42a.44.44,0,0,1-.08.27.58.58,0,0,1-.26.18,1.81,1.81,0,0,1-.49.1q-.31,0-.75,0c-.3,0-.55,0-.75,0a1.79,1.79,0,0,1-.48-.1.54.54,0,0,1-.26-.18.48.48,0,0,1-.07-.27V177.43a.43.43,0,0,1,.09-.26.66.66,0,0,1,.3-.2,2.55,2.55,0,0,1,.56-.12,9.11,9.11,0,0,1,1.79,0,2.55,2.55,0,0,1,.56.12.66.66,0,0,1,.3.2.43.43,0,0,1,.09.26v7.22a7.69,7.69,0,0,1,1-.85,6.17,6.17,0,0,1,1-.58,4.57,4.57,0,0,1,1-.33,5.83,5.83,0,0,1,1.11-.1,4.88,4.88,0,0,1,2.46.58,4.76,4.76,0,0,1,1.65,1.56,7,7,0,0,1,.93,2.29A12.64,12.64,0,0,1,719.7,190Zm-3.82.26a10.28,10.28,0,0,0-.12-1.61,4.63,4.63,0,0,0-.43-1.38,2.68,2.68,0,0,0-.8-1,2,2,0,0,0-1.24-.36,2.55,2.55,0,0,0-.72.1,2.68,2.68,0,0,0-.73.35,5.17,5.17,0,0,0-.77.64,9.2,9.2,0,0,0-.83,1v4.34a7.84,7.84,0,0,0,1.49,1.52,2.48,2.48,0,0,0,1.49.52,2,2,0,0,0,1.22-.37,3,3,0,0,0,.83-1,4.47,4.47,0,0,0,.48-1.33A7.75,7.75,0,0,0,715.87,190.25Z"/>
      <path class="cls-12" d="M733.77,196.73a.39.39,0,0,1-.15.32,1,1,0,0,1-.46.17,6.39,6.39,0,0,1-.93.05,6.48,6.48,0,0,1-1-.05.84.84,0,0,1-.43-.17.42.42,0,0,1-.12-.32v-1a5.93,5.93,0,0,1-1.84,1.35,5.34,5.34,0,0,1-2.29.48,6.44,6.44,0,0,1-1.91-.27,4.3,4.3,0,0,1-1.51-.81,3.62,3.62,0,0,1-1-1.33,4.51,4.51,0,0,1-.35-1.85,4.17,4.17,0,0,1,.45-2,3.63,3.63,0,0,1,1.33-1.39,6.63,6.63,0,0,1,2.21-.81,15.75,15.75,0,0,1,3.06-.26h1.27V188A4.12,4.12,0,0,0,730,187a1.78,1.78,0,0,0-.41-.77,1.68,1.68,0,0,0-.76-.45,4.06,4.06,0,0,0-1.18-.15,6.05,6.05,0,0,0-1.65.21,9.41,9.41,0,0,0-1.28.45q-.56.25-.93.45a1.36,1.36,0,0,1-.61.21.43.43,0,0,1-.29-.1.73.73,0,0,1-.21-.29,2,2,0,0,1-.12-.47,4,4,0,0,1,0-.62,2.79,2.79,0,0,1,.07-.72,1.11,1.11,0,0,1,.28-.48,2.79,2.79,0,0,1,.72-.47,8.55,8.55,0,0,1,1.2-.48,11.08,11.08,0,0,1,1.5-.36,9.91,9.91,0,0,1,1.68-.14,10.07,10.07,0,0,1,2.63.3,4.45,4.45,0,0,1,1.79.92,3.58,3.58,0,0,1,1,1.6,7.5,7.5,0,0,1,.32,2.33Zm-3.62-5.6h-1.41a7.56,7.56,0,0,0-1.52.13,2.92,2.92,0,0,0-1,.4,1.62,1.62,0,0,0-.58.64,1.9,1.9,0,0,0-.18.86,1.65,1.65,0,0,0,.52,1.29,2.08,2.08,0,0,0,1.44.47,2.7,2.7,0,0,0,1.43-.4,5.9,5.9,0,0,0,1.33-1.16Z"/>
      <path class="cls-12" d="M741.14,196.69a.4.4,0,0,1-.09.26.64.64,0,0,1-.3.18,2.6,2.6,0,0,1-.56.11,10.78,10.78,0,0,1-1.79,0,2.6,2.6,0,0,1-.56-.11.64.64,0,0,1-.3-.18.4.4,0,0,1-.09-.26V177.43a.43.43,0,0,1,.09-.26.66.66,0,0,1,.3-.2,2.55,2.55,0,0,1,.56-.12,9.11,9.11,0,0,1,1.79,0,2.55,2.55,0,0,1,.56.12.66.66,0,0,1,.3.2.43.43,0,0,1,.09.26Z"/>
      <path class="cls-12" d="M751.29,189.82a3,3,0,0,1-.16,1.19.54.54,0,0,1-.51.34h-6.09A.54.54,0,0,1,744,191a3,3,0,0,1-.16-1.18,2.93,2.93,0,0,1,.16-1.16.55.55,0,0,1,.53-.34h6.09a.58.58,0,0,1,.3.07.57.57,0,0,1,.21.25,1.5,1.5,0,0,1,.13.47A6,6,0,0,1,751.29,189.82Z"/>
      <path class="cls-12" d="M774.79,196.69a.4.4,0,0,1-.09.26.64.64,0,0,1-.29.18,2.48,2.48,0,0,1-.56.11,8.89,8.89,0,0,1-.89,0,9.08,9.08,0,0,1-.91,0,2.63,2.63,0,0,1-.56-.11.6.6,0,0,1-.29-.18.42.42,0,0,1-.08-.26v-7.75a5.31,5.31,0,0,0-.12-1.2,2.79,2.79,0,0,0-.38-.93,1.79,1.79,0,0,0-.64-.6A1.91,1.91,0,0,0,769,186a2.2,2.2,0,0,0-1.33.51,8.9,8.9,0,0,0-1.46,1.49v8.69a.4.4,0,0,1-.09.26.64.64,0,0,1-.3.18,2.63,2.63,0,0,1-.56.11,8.71,8.71,0,0,1-.88,0,8.89,8.89,0,0,1-.89,0,2.6,2.6,0,0,1-.56-.11.64.64,0,0,1-.3-.18.4.4,0,0,1-.09-.26v-7.75a5.31,5.31,0,0,0-.12-1.2,2.91,2.91,0,0,0-.37-.93,1.73,1.73,0,0,0-.64-.6,1.92,1.92,0,0,0-.92-.21,2.22,2.22,0,0,0-1.35.51A8.52,8.52,0,0,0,757.7,188v8.69a.4.4,0,0,1-.09.26.64.64,0,0,1-.3.18,2.6,2.6,0,0,1-.56.11,10.78,10.78,0,0,1-1.79,0,2.6,2.6,0,0,1-.56-.11.64.64,0,0,1-.3-.18.4.4,0,0,1-.09-.26V183.62a.45.45,0,0,1,.07-.26.53.53,0,0,1,.26-.18,2.1,2.1,0,0,1,.49-.11,6.38,6.38,0,0,1,.75,0,6.76,6.76,0,0,1,.78,0,1.75,1.75,0,0,1,.48.11.53.53,0,0,1,.24.18.45.45,0,0,1,.07.26v1.51a8.62,8.62,0,0,1,2.16-1.76,4.64,4.64,0,0,1,2.25-.59A5.74,5.74,0,0,1,763,183a4.15,4.15,0,0,1,1.15.48,3.62,3.62,0,0,1,.87.75,4.38,4.38,0,0,1,.62,1,11.16,11.16,0,0,1,1.15-1.08,6.92,6.92,0,0,1,1.11-.74,5.15,5.15,0,0,1,1.1-.42,4.54,4.54,0,0,1,1.12-.14,5,5,0,0,1,2.2.44,3.84,3.84,0,0,1,1.44,1.19,4.79,4.79,0,0,1,.78,1.76,9.44,9.44,0,0,1,.23,2.14Z"/>
      <path class="cls-12" d="M782.38,179.2a2.07,2.07,0,0,1-.45,1.54,3.59,3.59,0,0,1-3.36,0,2,2,0,0,1-.43-1.48,2.12,2.12,0,0,1,.45-1.55,3.54,3.54,0,0,1,3.36,0A2,2,0,0,1,782.38,179.2Zm-.28,17.49a.4.4,0,0,1-.09.26.64.64,0,0,1-.3.18,2.6,2.6,0,0,1-.56.11,10.78,10.78,0,0,1-1.79,0,2.6,2.6,0,0,1-.56-.11.64.64,0,0,1-.3-.18.4.4,0,0,1-.09-.26v-13a.4.4,0,0,1,.09-.26.69.69,0,0,1,.3-.19,2.55,2.55,0,0,1,.56-.12,9.11,9.11,0,0,1,1.79,0,2.55,2.55,0,0,1,.56.12.69.69,0,0,1,.3.19.4.4,0,0,1,.09.26Z"/>
      <path class="cls-12" d="M798.26,196.69a.4.4,0,0,1-.09.26.64.64,0,0,1-.29.18,2.5,2.5,0,0,1-.56.11c-.24,0-.54,0-.89,0s-.66,0-.9,0a2.49,2.49,0,0,1-.56-.11.64.64,0,0,1-.29-.18.4.4,0,0,1-.09-.26v-7.46a6.34,6.34,0,0,0-.14-1.49,3,3,0,0,0-.4-.93,1.81,1.81,0,0,0-.68-.6,2.13,2.13,0,0,0-1-.21,2.44,2.44,0,0,0-1.42.51,7.67,7.67,0,0,0-1.49,1.49v8.69a.4.4,0,0,1-.09.26.64.64,0,0,1-.3.18,2.63,2.63,0,0,1-.56.11,10.78,10.78,0,0,1-1.79,0,2.63,2.63,0,0,1-.56-.11.64.64,0,0,1-.3-.18.4.4,0,0,1-.09-.26V183.62a.45.45,0,0,1,.07-.26.53.53,0,0,1,.26-.18,2.11,2.11,0,0,1,.49-.11,6.42,6.42,0,0,1,.75,0,6.76,6.76,0,0,1,.78,0,1.78,1.78,0,0,1,.48.11.53.53,0,0,1,.24.18.45.45,0,0,1,.07.26v1.51a8.28,8.28,0,0,1,2.21-1.76,5,5,0,0,1,2.34-.59,5.17,5.17,0,0,1,2.25.44,3.94,3.94,0,0,1,1.48,1.19,4.86,4.86,0,0,1,.81,1.76,10.29,10.29,0,0,1,.25,2.43Z"/>
      <path class="cls-12" d="M814.27,196.69a.48.48,0,0,1-.07.27.54.54,0,0,1-.25.18,1.7,1.7,0,0,1-.48.1c-.2,0-.45,0-.74,0s-.57,0-.76,0a1.77,1.77,0,0,1-.48-.1.58.58,0,0,1-.26-.18.44.44,0,0,1-.08-.27v-1.45a8.42,8.42,0,0,1-2.12,1.68,5.55,5.55,0,0,1-5,0,4.82,4.82,0,0,1-1.69-1.56,6.79,6.79,0,0,1-.94-2.29,12.64,12.64,0,0,1-.29-2.76,12.06,12.06,0,0,1,.37-3.13,7.07,7.07,0,0,1,1.09-2.37,4.84,4.84,0,0,1,1.79-1.51,5.5,5.5,0,0,1,2.46-.53,4.4,4.4,0,0,1,2,.45,7.11,7.11,0,0,1,1.77,1.31v-7.08a.46.46,0,0,1,.08-.26.61.61,0,0,1,.29-.2,2.53,2.53,0,0,1,.56-.12,9.11,9.11,0,0,1,1.79,0,2.37,2.37,0,0,1,.56.13.66.66,0,0,1,.29.2.43.43,0,0,1,.09.26ZM810.61,188a8.14,8.14,0,0,0-1.52-1.52,2.54,2.54,0,0,0-1.52-.53,2.12,2.12,0,0,0-1.24.36,2.62,2.62,0,0,0-.84,1,5.19,5.19,0,0,0-.47,1.34,7.51,7.51,0,0,0-.15,1.52,9.52,9.52,0,0,0,.13,1.6,5,5,0,0,0,.43,1.38,2.64,2.64,0,0,0,.8,1,2.07,2.07,0,0,0,1.26.37,2.55,2.55,0,0,0,.74-.11,2.88,2.88,0,0,0,.73-.36,4.92,4.92,0,0,0,.77-.65,12.93,12.93,0,0,0,.86-1Z"/>
      <path class="cls-12" d="M830,189.78a1.43,1.43,0,0,1-.3,1,1.08,1.08,0,0,1-.83.32h-8a5.38,5.38,0,0,0,.2,1.52,2.89,2.89,0,0,0,.63,1.16,2.76,2.76,0,0,0,1.11.72,4.78,4.78,0,0,0,1.63.25,9.1,9.1,0,0,0,1.7-.14,11,11,0,0,0,1.27-.31q.54-.17.89-.31a1.66,1.66,0,0,1,.57-.14.44.44,0,0,1,.22.05.39.39,0,0,1,.15.18,1.2,1.2,0,0,1,.08.37c0,.16,0,.36,0,.61s0,.4,0,.55a3.44,3.44,0,0,1,0,.39.92.92,0,0,1-.09.27,1,1,0,0,1-.15.21,1.8,1.8,0,0,1-.52.28,8.22,8.22,0,0,1-1.08.34q-.66.17-1.51.29a12.68,12.68,0,0,1-1.82.12,9.62,9.62,0,0,1-3.05-.44,5.44,5.44,0,0,1-2.19-1.33,5.53,5.53,0,0,1-1.31-2.26,10.56,10.56,0,0,1-.43-3.19,10.16,10.16,0,0,1,.45-3.14,6.6,6.6,0,0,1,1.32-2.37,5.68,5.68,0,0,1,2.1-1.49,8.11,8.11,0,0,1,5.6,0,5.06,5.06,0,0,1,1.91,1.34,5.42,5.42,0,0,1,1.1,2,8.84,8.84,0,0,1,.35,2.55Zm-3.57-1.05a3.8,3.8,0,0,0-.62-2.44,2.41,2.41,0,0,0-2.06-.89,2.67,2.67,0,0,0-1.22.26,2.52,2.52,0,0,0-.87.71,3.3,3.3,0,0,0-.53,1.05,5.31,5.31,0,0,0-.21,1.3Z"/>
      <path class="cls-12" d="M845.47,196.69a.48.48,0,0,1-.07.27.54.54,0,0,1-.25.18,1.7,1.7,0,0,1-.48.1c-.2,0-.45,0-.74,0s-.57,0-.76,0a1.77,1.77,0,0,1-.48-.1.58.58,0,0,1-.26-.18.44.44,0,0,1-.08-.27v-1.45a8.42,8.42,0,0,1-2.12,1.68,5.55,5.55,0,0,1-5,0,4.82,4.82,0,0,1-1.69-1.56,6.79,6.79,0,0,1-.94-2.29,12.64,12.64,0,0,1-.29-2.76,12.06,12.06,0,0,1,.37-3.13,7.07,7.07,0,0,1,1.09-2.37,4.84,4.84,0,0,1,1.79-1.51,5.5,5.5,0,0,1,2.46-.53,4.4,4.4,0,0,1,2,.45,7.11,7.11,0,0,1,1.77,1.31v-7.08a.46.46,0,0,1,.08-.26.61.61,0,0,1,.29-.2,2.53,2.53,0,0,1,.56-.12,9.11,9.11,0,0,1,1.79,0,2.37,2.37,0,0,1,.56.13.66.66,0,0,1,.29.2.43.43,0,0,1,.09.26ZM841.81,188a8.14,8.14,0,0,0-1.52-1.52,2.54,2.54,0,0,0-1.52-.53,2.12,2.12,0,0,0-1.24.36,2.62,2.62,0,0,0-.84,1,5.19,5.19,0,0,0-.47,1.34,7.51,7.51,0,0,0-.15,1.52,9.52,9.52,0,0,0,.13,1.6,5,5,0,0,0,.43,1.38,2.64,2.64,0,0,0,.8,1,2.07,2.07,0,0,0,1.26.37,2.55,2.55,0,0,0,.74-.11,2.88,2.88,0,0,0,.73-.36,4.92,4.92,0,0,0,.77-.65,12.93,12.93,0,0,0,.86-1Z"/>
      <path class="cls-12" d="M859.93,179.2a2.07,2.07,0,0,1-.45,1.54,3.59,3.59,0,0,1-3.36,0,2,2,0,0,1-.43-1.48,2.12,2.12,0,0,1,.45-1.55,3.54,3.54,0,0,1,3.36,0A2,2,0,0,1,859.93,179.2Zm-.28,17.49a.4.4,0,0,1-.09.26.64.64,0,0,1-.3.18,2.6,2.6,0,0,1-.56.11,10.78,10.78,0,0,1-1.79,0,2.6,2.6,0,0,1-.56-.11.64.64,0,0,1-.3-.18.4.4,0,0,1-.09-.26v-13a.4.4,0,0,1,.09-.26.69.69,0,0,1,.3-.19,2.55,2.55,0,0,1,.56-.12,9.11,9.11,0,0,1,1.79,0,2.55,2.55,0,0,1,.56.12.69.69,0,0,1,.3.19.4.4,0,0,1,.09.26Z"/>
      <path class="cls-12" d="M875.81,196.69a.4.4,0,0,1-.09.26.64.64,0,0,1-.29.18,2.5,2.5,0,0,1-.56.11c-.24,0-.54,0-.89,0s-.66,0-.9,0a2.49,2.49,0,0,1-.56-.11.64.64,0,0,1-.29-.18.4.4,0,0,1-.09-.26v-7.46a6.34,6.34,0,0,0-.14-1.49,3,3,0,0,0-.4-.93,1.81,1.81,0,0,0-.68-.6,2.13,2.13,0,0,0-1-.21,2.44,2.44,0,0,0-1.42.51A7.67,7.67,0,0,0,867,188v8.69a.4.4,0,0,1-.09.26.64.64,0,0,1-.3.18,2.63,2.63,0,0,1-.56.11,10.78,10.78,0,0,1-1.79,0,2.63,2.63,0,0,1-.56-.11.64.64,0,0,1-.3-.18.4.4,0,0,1-.09-.26V183.62a.45.45,0,0,1,.07-.26.53.53,0,0,1,.26-.18,2.11,2.11,0,0,1,.49-.11,6.42,6.42,0,0,1,.75,0,6.76,6.76,0,0,1,.78,0,1.78,1.78,0,0,1,.48.11.53.53,0,0,1,.24.18.45.45,0,0,1,.07.26v1.51a8.28,8.28,0,0,1,2.21-1.76,5,5,0,0,1,2.34-.59,5.17,5.17,0,0,1,2.25.44,3.94,3.94,0,0,1,1.48,1.19,4.86,4.86,0,0,1,.81,1.76,10.29,10.29,0,0,1,.25,2.43Z"/>
      <path class="cls-12" d="M891.82,196.69a.48.48,0,0,1-.07.27.54.54,0,0,1-.25.18,1.7,1.7,0,0,1-.48.1q-.3,0-.74,0t-.76,0a1.77,1.77,0,0,1-.48-.1.58.58,0,0,1-.26-.18.44.44,0,0,1-.08-.27v-1.45a8.42,8.42,0,0,1-2.12,1.68,5.55,5.55,0,0,1-5,0,4.82,4.82,0,0,1-1.69-1.56,6.79,6.79,0,0,1-.94-2.29,12.64,12.64,0,0,1-.29-2.76,12.06,12.06,0,0,1,.37-3.13,7.07,7.07,0,0,1,1.09-2.37,4.84,4.84,0,0,1,1.79-1.51,5.5,5.5,0,0,1,2.46-.53,4.4,4.4,0,0,1,2,.45,7.11,7.11,0,0,1,1.77,1.31v-7.08a.45.45,0,0,1,.08-.26.6.6,0,0,1,.29-.2,2.52,2.52,0,0,1,.56-.12,9.11,9.11,0,0,1,1.79,0,2.37,2.37,0,0,1,.56.13.66.66,0,0,1,.29.2.43.43,0,0,1,.09.26ZM888.15,188a8.14,8.14,0,0,0-1.52-1.52,2.54,2.54,0,0,0-1.52-.53,2.12,2.12,0,0,0-1.24.36,2.62,2.62,0,0,0-.84,1,5.19,5.19,0,0,0-.47,1.34,7.51,7.51,0,0,0-.15,1.52,9.52,9.52,0,0,0,.13,1.6,5,5,0,0,0,.43,1.38,2.64,2.64,0,0,0,.8,1,2.07,2.07,0,0,0,1.26.37,2.55,2.55,0,0,0,.74-.11,2.88,2.88,0,0,0,.73-.36,4.92,4.92,0,0,0,.77-.65,12.93,12.93,0,0,0,.86-1Z"/>
      <path class="cls-12" d="M899.49,179.2a2.07,2.07,0,0,1-.45,1.54,3.59,3.59,0,0,1-3.36,0,2,2,0,0,1-.43-1.48,2.12,2.12,0,0,1,.45-1.55,3.54,3.54,0,0,1,3.36,0A2,2,0,0,1,899.49,179.2Zm-.28,17.49a.4.4,0,0,1-.09.26.64.64,0,0,1-.3.18,2.61,2.61,0,0,1-.56.11,10.78,10.78,0,0,1-1.79,0,2.6,2.6,0,0,1-.56-.11.64.64,0,0,1-.3-.18.4.4,0,0,1-.09-.26v-13a.4.4,0,0,1,.09-.26.69.69,0,0,1,.3-.19,2.55,2.55,0,0,1,.56-.12,9.11,9.11,0,0,1,1.79,0,2.57,2.57,0,0,1,.56.12.69.69,0,0,1,.3.19.4.4,0,0,1,.09.26Z"/>
      <path class="cls-12" d="M914.92,183.61s0,.11,0,.18,0,.14,0,.23l-.06.29c0,.11-.06.23-.1.37l-3.93,11.82a1.16,1.16,0,0,1-.2.4.83.83,0,0,1-.41.24,3.46,3.46,0,0,1-.78.12q-.49,0-1.28,0t-1.27,0a3.54,3.54,0,0,1-.77-.12.83.83,0,0,1-.4-.24,1.17,1.17,0,0,1-.2-.39l-3.93-11.82c-.06-.2-.11-.37-.14-.53a2.38,2.38,0,0,1-.06-.34c0-.07,0-.13,0-.19a.42.42,0,0,1,.08-.26.6.6,0,0,1,.29-.18,2.29,2.29,0,0,1,.56-.1q.36,0,.9,0t1,0a3.17,3.17,0,0,1,.58.1.56.56,0,0,1,.3.19,1.14,1.14,0,0,1,.15.3l3,9.59.09.37.09-.37,2.93-9.59a.81.81,0,0,1,.14-.3.6.6,0,0,1,.3-.19,2.92,2.92,0,0,1,.55-.1,8.86,8.86,0,0,1,.9,0q.54,0,.89,0a2,2,0,0,1,.54.1.54.54,0,0,1,.26.18A.46.46,0,0,1,914.92,183.61Z"/>
      <path class="cls-12" d="M921.05,179.2a2.07,2.07,0,0,1-.45,1.54,3.59,3.59,0,0,1-3.36,0,2,2,0,0,1-.43-1.48,2.12,2.12,0,0,1,.45-1.55,3.54,3.54,0,0,1,3.36,0A2,2,0,0,1,921.05,179.2Zm-.28,17.49a.4.4,0,0,1-.09.26.64.64,0,0,1-.3.18,2.61,2.61,0,0,1-.56.11,10.78,10.78,0,0,1-1.79,0,2.6,2.6,0,0,1-.56-.11.64.64,0,0,1-.3-.18.4.4,0,0,1-.09-.26v-13a.4.4,0,0,1,.09-.26.69.69,0,0,1,.3-.19,2.55,2.55,0,0,1,.56-.12,9.11,9.11,0,0,1,1.79,0,2.57,2.57,0,0,1,.56.12.69.69,0,0,1,.3.19.4.4,0,0,1,.09.26Z"/>
      <path class="cls-12" d="M936.85,196.69a.48.48,0,0,1-.07.27.54.54,0,0,1-.25.18,1.7,1.7,0,0,1-.48.1q-.3,0-.74,0t-.76,0a1.77,1.77,0,0,1-.48-.1.58.58,0,0,1-.26-.18.44.44,0,0,1-.08-.27v-1.45a8.42,8.42,0,0,1-2.12,1.68,5.55,5.55,0,0,1-5,0,4.81,4.81,0,0,1-1.69-1.56,6.77,6.77,0,0,1-.94-2.29,12.64,12.64,0,0,1-.29-2.76,12.06,12.06,0,0,1,.37-3.13,7.07,7.07,0,0,1,1.09-2.37,4.84,4.84,0,0,1,1.79-1.51,5.5,5.5,0,0,1,2.46-.53,4.4,4.4,0,0,1,2,.45,7.11,7.11,0,0,1,1.77,1.31v-7.08a.45.45,0,0,1,.08-.26.6.6,0,0,1,.29-.2,2.52,2.52,0,0,1,.56-.12,9.11,9.11,0,0,1,1.79,0,2.37,2.37,0,0,1,.56.13.66.66,0,0,1,.29.2.43.43,0,0,1,.09.26ZM933.18,188a8.14,8.14,0,0,0-1.52-1.52,2.54,2.54,0,0,0-1.52-.53,2.12,2.12,0,0,0-1.24.36,2.61,2.61,0,0,0-.84,1,5.16,5.16,0,0,0-.47,1.34,7.51,7.51,0,0,0-.15,1.52,9.52,9.52,0,0,0,.13,1.6,5,5,0,0,0,.43,1.38,2.63,2.63,0,0,0,.8,1,2.07,2.07,0,0,0,1.26.37,2.55,2.55,0,0,0,.74-.11,2.88,2.88,0,0,0,.73-.36,4.92,4.92,0,0,0,.77-.65,12.93,12.93,0,0,0,.86-1Z"/>
      <path class="cls-12" d="M952.94,196.69a.45.45,0,0,1-.07.26.53.53,0,0,1-.26.18,2,2,0,0,1-.48.11,6.42,6.42,0,0,1-.75,0,6.73,6.73,0,0,1-.78,0,1.86,1.86,0,0,1-.48-.11.53.53,0,0,1-.25-.18.45.45,0,0,1-.07-.26v-1.51a8.31,8.31,0,0,1-2.2,1.76,5,5,0,0,1-2.32.59,5.21,5.21,0,0,1-2.26-.44,3.9,3.9,0,0,1-1.48-1.2,4.83,4.83,0,0,1-.81-1.76,10.94,10.94,0,0,1-.24-2.5v-8a.41.41,0,0,1,.08-.26.58.58,0,0,1,.29-.18,2.61,2.61,0,0,1,.57-.11q.36,0,.89,0a8.89,8.89,0,0,1,.89,0,2.61,2.61,0,0,1,.56.11.64.64,0,0,1,.3.18.4.4,0,0,1,.09.26V191a7.06,7.06,0,0,0,.13,1.57,2.72,2.72,0,0,0,.4.93,1.84,1.84,0,0,0,.69.6,2.11,2.11,0,0,0,1,.21,2.41,2.41,0,0,0,1.41-.51,8.48,8.48,0,0,0,1.52-1.49v-8.69a.42.42,0,0,1,.08-.26.59.59,0,0,1,.29-.18,2.62,2.62,0,0,1,.56-.11,10.78,10.78,0,0,1,1.79,0,2.48,2.48,0,0,1,.56.11.64.64,0,0,1,.29.18.4.4,0,0,1,.09.26Z"/>
      <path class="cls-12" d="M967.78,196.73a.39.39,0,0,1-.15.32,1,1,0,0,1-.46.17,6.42,6.42,0,0,1-.93.05,6.51,6.51,0,0,1-1-.05.83.83,0,0,1-.42-.17.42.42,0,0,1-.12-.32v-1A6,6,0,0,1,962.9,197a5.35,5.35,0,0,1-2.29.48,6.45,6.45,0,0,1-1.91-.27,4.28,4.28,0,0,1-1.51-.81,3.61,3.61,0,0,1-1-1.33,4.51,4.51,0,0,1-.35-1.85,4.18,4.18,0,0,1,.45-2,3.63,3.63,0,0,1,1.33-1.39,6.6,6.6,0,0,1,2.2-.81,15.75,15.75,0,0,1,3.06-.26h1.27V188A4.21,4.21,0,0,0,964,187a1.82,1.82,0,0,0-.41-.77,1.7,1.7,0,0,0-.76-.45,4.07,4.07,0,0,0-1.18-.15,6.07,6.07,0,0,0-1.65.21,9.49,9.49,0,0,0-1.28.45q-.56.25-.93.45a1.37,1.37,0,0,1-.61.21.44.44,0,0,1-.29-.1.75.75,0,0,1-.21-.29,2,2,0,0,1-.12-.47,4,4,0,0,1,0-.62,2.79,2.79,0,0,1,.07-.72,1.11,1.11,0,0,1,.28-.48,2.79,2.79,0,0,1,.72-.47,8.55,8.55,0,0,1,1.2-.48,11.14,11.14,0,0,1,1.5-.36,9.94,9.94,0,0,1,1.68-.14,10.06,10.06,0,0,1,2.63.3,4.45,4.45,0,0,1,1.79.92,3.58,3.58,0,0,1,1,1.6,7.5,7.5,0,0,1,.32,2.33Zm-3.62-5.6h-1.41a7.56,7.56,0,0,0-1.52.13,2.92,2.92,0,0,0-1,.4,1.63,1.63,0,0,0-.58.64,1.92,1.92,0,0,0-.18.86,1.64,1.64,0,0,0,.52,1.29,2.07,2.07,0,0,0,1.44.47,2.71,2.71,0,0,0,1.43-.4,5.94,5.94,0,0,0,1.33-1.16Z"/>
      <path class="cls-12" d="M975.15,196.69a.4.4,0,0,1-.09.26.64.64,0,0,1-.3.18,2.61,2.61,0,0,1-.56.11,10.78,10.78,0,0,1-1.79,0,2.6,2.6,0,0,1-.56-.11.64.64,0,0,1-.3-.18.4.4,0,0,1-.09-.26V177.43a.43.43,0,0,1,.09-.26.66.66,0,0,1,.3-.2,2.55,2.55,0,0,1,.56-.12,9.11,9.11,0,0,1,1.79,0,2.57,2.57,0,0,1,.56.12.67.67,0,0,1,.3.2.43.43,0,0,1,.09.26Z"/>
      <path class="cls-12" d="M988,193a4.38,4.38,0,0,1-.42,2,3.9,3.9,0,0,1-1.18,1.42,5.3,5.3,0,0,1-1.8.86,8.89,8.89,0,0,1-4.85-.1,6.24,6.24,0,0,1-.88-.34,2.2,2.2,0,0,1-.51-.33,1,1,0,0,1-.25-.48,4,4,0,0,1-.09-1,6.27,6.27,0,0,1,0-.68,1.73,1.73,0,0,1,.09-.41.38.38,0,0,1,.15-.21.43.43,0,0,1,.22-.05,1.11,1.11,0,0,1,.48.18q.31.18.78.4a8.27,8.27,0,0,0,1.09.41,4.82,4.82,0,0,0,1.41.19,3.48,3.48,0,0,0,.89-.1,2.22,2.22,0,0,0,.67-.29,1.24,1.24,0,0,0,.43-.48,1.49,1.49,0,0,0,.15-.67,1.12,1.12,0,0,0-.27-.75,2.43,2.43,0,0,0-.72-.55,8.3,8.3,0,0,0-1-.44c-.38-.14-.76-.29-1.16-.45a10.58,10.58,0,0,1-1.16-.57,4.4,4.4,0,0,1-1-.79,3.58,3.58,0,0,1-.72-1.13,4.14,4.14,0,0,1-.27-1.58,4,4,0,0,1,.37-1.72,3.75,3.75,0,0,1,1.05-1.34,5,5,0,0,1,1.68-.86,7.46,7.46,0,0,1,2.22-.31,8,8,0,0,1,1.19.09,8.75,8.75,0,0,1,1,.22,5.1,5.1,0,0,1,.79.29,2.73,2.73,0,0,1,.46.26.74.74,0,0,1,.2.22.91.91,0,0,1,.09.26c0,.1,0,.23.05.38s0,.34,0,.56,0,.48,0,.64a1.73,1.73,0,0,1-.07.4.35.35,0,0,1-.14.2.39.39,0,0,1-.21.05,1,1,0,0,1-.41-.15,7.26,7.26,0,0,0-.7-.33,8.53,8.53,0,0,0-1-.33,4.7,4.7,0,0,0-1.25-.15,3.23,3.23,0,0,0-.86.1,1.64,1.64,0,0,0-.6.29,1.23,1.23,0,0,0-.35.45,1.3,1.3,0,0,0-.12.55,1.09,1.09,0,0,0,.28.76,2.55,2.55,0,0,0,.73.54,8.26,8.26,0,0,0,1,.44l1.17.45a11.09,11.09,0,0,1,1.17.56,4.45,4.45,0,0,1,1,.79,3.65,3.65,0,0,1,.73,1.12A3.92,3.92,0,0,1,988,193Z"/>
    </g>
  </g>
</svg>
