<svg id="レイヤー_1" data-name="レイヤー 1" xmlns="http://www.w3.org/2000/svg" xmlns:xlink="http://www.w3.org/1999/xlink" viewBox="0 0 1020 220"><defs><style>.cls-1{fill:none;}.cls-2{fill:#ffe0a9;}.cls-3{clip-path:url(#clip-path);}.cls-4{fill:url(#名称未設定グラデーション_211);}.cls-5{fill:url(#名称未設定グラデーション_211-2);}.cls-6{fill:#fff;}.cls-7{fill:url(#名称未設定グラデーション_98);}.cls-8{fill:url(#名称未設定グラデーション_130);}.cls-9{fill:#cc9b4c;}.cls-10{fill:url(#名称未設定グラデーション_180);}.cls-11{fill:#4f2f02;}</style><clipPath id="clip-path"><rect class="cls-1" width="1020" height="220"/></clipPath><linearGradient id="名称未設定グラデーション_211" x1="510" y1="24.23" x2="510" y2="-9.18" gradientUnits="userSpaceOnUse"><stop offset="0" stop-color="#fff" stop-opacity="0"/><stop offset="0" stop-color="#fffefc" stop-opacity="0.04"/><stop offset="0" stop-color="#fffbf3" stop-opacity="0.14"/><stop offset="0" stop-color="#fff6e5" stop-opacity="0.3"/><stop offset="0" stop-color="#ffefd2" stop-opacity="0.53"/><stop offset="0" stop-color="#ffe6b9" stop-opacity="0.81"/><stop offset="0" stop-color="#ffe0a9"/><stop offset="0.13" stop-color="#f5d6a0"/><stop offset="0.35" stop-color="#dcba87"/><stop offset="0.64" stop-color="#b28d5e"/><stop offset="0.98" stop-color="#784f27"/><stop offset="1" stop-color="#754c24"/></linearGradient><linearGradient id="名称未設定グラデーション_211-2" x1="510" y1="195.17" x2="510" y2="230.98" xlink:href="#名称未設定グラデーション_211"/><radialGradient id="名称未設定グラデーション_98" cx="116.13" cy="107.4" r="91.41" gradientTransform="translate(51.83 94.54) scale(0.84 0.57)" gradientUnits="userSpaceOnUse"><stop offset="0.09" stop-color="#af976e" stop-opacity="0.14"/><stop offset="1" stop-color="#fff"/></radialGradient><linearGradient id="名称未設定グラデーション_130" x1="117.48" y1="59.07" x2="117.48" y2="-143.94" gradientTransform="translate(51.83 170.4) scale(0.84 0.45)" gradientUnits="userSpaceOnUse"><stop offset="0.07" stop-color="#fff" stop-opacity="0"/><stop offset="0.19" stop-color="#fff" stop-opacity="0.59"/><stop offset="0.43" stop-color="#fff"/></linearGradient><radialGradient id="名称未設定グラデーション_180" cx="176.49" cy="57.09" r="48.9" gradientTransform="translate(-59.8 52.42) scale(1.19 0.28)" gradientUnits="userSpaceOnUse"><stop offset="0.46" stop-color="#fff" stop-opacity="0"/><stop offset="0.55" stop-color="#fff" stop-opacity="0"/><stop offset="0.8" stop-color="#fff" stop-opacity="0.3"/><stop offset="0.93" stop-color="#fff" stop-opacity="0.15"/><stop offset="0.93" stop-color="#fff" stop-opacity="0.1"/><stop offset="1" stop-color="#fff" stop-opacity="0"/></radialGradient></defs><title>Coffee Hour</title><rect class="cls-2" y="-0.18" width="1020" height="220.18"/><g class="cls-3"><rect class="cls-4" y="-9.18" width="1020" height="33.4"/><rect class="cls-5" y="195.17" width="1020" height="35.81"/></g><path class="cls-6" d="M254.5,88.5s9.5-31,33.5-17,4.5,83-16.75,92-40.25,0-40.25,0-3-22-5-21,49.29,23.84,53-24.82-17.06-34.32-36,8.12-2-32.3-2-32.3Z"/><ellipse class="cls-6" cx="150.5" cy="51.5" rx="112" ry="37"/><path class="cls-6" d="M38.5,51.5s-.5,161,112,162,112-162,112-162Z"/><path class="cls-7" d="M60.38,97.17S60,212.69,149.86,213.41,239.35,97.17,239.35,97.17Z"/><path class="cls-8" d="M49,105.17s-.46,91.43,102,92,102-92,102-92Z"/><ellipse class="cls-9" cx="150.5" cy="65.5" rx="88.5" ry="22.5"/><ellipse class="cls-10" cx="150.94" cy="68.2" rx="80.03" ry="15.7"/><g id="レイヤー_3" data-name="レイヤー 3"><g id="レイヤー_2" data-name="レイヤー 2"><path class="cls-6" d="M336,85s33-45,92-60,249,9,284,17,98,2,118-9,146-19,172,76-78,111-184,99-294-3-353,2-135-19-153-41c-11.63-14.21-9.9-29.68.33-48.82C317.93,109.69,326.09,98.1,336,85Z"/></g><g id="レイヤー_4" data-name="レイヤー 4"><path class="cls-6" d="M440,24s-71,13-102,5-32-15-60-10-23,10-30,14,28-4.5,42,6c22.14,16.61,30.68,23.06,35,36,.36,1.09,1.54,5.92,2,7,6,14-5,24-11,31s27,32,74,13S442,45,440,24Z"/></g></g><path class="cls-11" d="M569.18,146.73v8.59A36.47,36.47,0,0,1,550.53,160,27.35,27.35,0,0,1,536,156.34a26.27,26.27,0,0,1-9.47-10.11A28.82,28.82,0,0,1,523,132.29a27.46,27.46,0,0,1,8-20,26.52,26.52,0,0,1,19.69-8.12q8.07,0,17.95,4.49V117q-9-5.47-17.58-5.47a19.66,19.66,0,0,0-14.63,5.92,20.28,20.28,0,0,0-5.82,14.82q0,9,5.73,14.76A19.73,19.73,0,0,0,551,152.82Q560.29,152.82,569.18,146.73Z"/><path class="cls-11" d="M593.21,123.38a16.78,16.78,0,0,1,12.67,5.29,18.5,18.5,0,0,1,5,13.29,17.53,17.53,0,0,1-18,18,16.78,16.78,0,0,1-12.56-5.21,19.39,19.39,0,0,1,.05-26.16A17.1,17.1,0,0,1,593.21,123.38Zm-.36,6.4a10.07,10.07,0,0,0-7.81,3.36,12.23,12.23,0,0,0-3,8.55,11.66,11.66,0,0,0,3.12,8.41,10.62,10.62,0,0,0,8,3.26,10.46,10.46,0,0,0,8-3.3,12.89,12.89,0,0,0-.13-16.93A10.82,10.82,0,0,0,592.85,129.79Z"/><path class="cls-11" d="M621.75,123.46v-2.15q0-8.67,3.69-12.92a11.33,11.33,0,0,1,8.84-4.26,23.93,23.93,0,0,1,5.27.7v6.95a9.61,9.61,0,0,0-3.28-.62q-4.18,0-5.8,2.23t-1.62,7.93v2.15h6.4v6.4h-6.4v29.52h-7.11V129.86h-5.15v-6.4Z"/><path class="cls-11" d="M647.41,123.46v-2.15q0-8.67,3.69-12.92a11.33,11.33,0,0,1,8.84-4.26,23.93,23.93,0,0,1,5.27.7v6.95a9.61,9.61,0,0,0-3.28-.62q-4.18,0-5.8,2.23t-1.62,7.93v2.15h6.4v6.4h-6.4v29.52h-7.11V129.86h-5.15v-6.4Z"/><path class="cls-11" d="M697.2,142H671.93a11.73,11.73,0,0,0,3.46,8.2,11.4,11.4,0,0,0,8.22,3,21.39,21.39,0,0,0,13-4.37v6.95a23.71,23.71,0,0,1-6.5,3.12,27.18,27.18,0,0,1-7.56.94,17,17,0,0,1-9.6-2.46,17.89,17.89,0,0,1-5.88-6.62,20.23,20.23,0,0,1-2.21-9.62q0-8.2,4.65-13.33a15.52,15.52,0,0,1,12.06-5.13,14.21,14.21,0,0,1,11.4,5q4.26,5,4.26,13.39Zm-25.11-4.26h18.08a9.92,9.92,0,0,0-2.54-6.56,8.15,8.15,0,0,0-6.09-2.3,8.76,8.76,0,0,0-6.27,2.3A11.42,11.42,0,0,0,672.09,137.79Z"/><path class="cls-11" d="M735.5,142H710.24a11.73,11.73,0,0,0,3.46,8.2,11.4,11.4,0,0,0,8.22,3,21.39,21.39,0,0,0,13-4.37v6.95a23.71,23.71,0,0,1-6.5,3.12,27.18,27.18,0,0,1-7.56.94,17,17,0,0,1-9.6-2.46,17.89,17.89,0,0,1-5.88-6.62,20.23,20.23,0,0,1-2.21-9.62q0-8.2,4.65-13.33a15.52,15.52,0,0,1,12.06-5.13,14.21,14.21,0,0,1,11.4,5q4.26,5,4.26,13.39Zm-25.11-4.26h18.08a9.92,9.92,0,0,0-2.54-6.56,8.15,8.15,0,0,0-6.09-2.3,8.76,8.76,0,0,0-6.27,2.3A11.42,11.42,0,0,0,710.39,137.79Z"/><path class="cls-11" d="M800.39,104.84h7v54.54h-7V135.64H772.81v23.74h-7V104.84h7v23.58h27.58Z"/><path class="cls-11" d="M832.41,123.38a16.78,16.78,0,0,1,12.67,5.29,18.5,18.5,0,0,1,5,13.29,17.53,17.53,0,0,1-18,18,16.78,16.78,0,0,1-12.56-5.21,19.39,19.39,0,0,1,.05-26.16A17.11,17.11,0,0,1,832.41,123.38Zm-.36,6.4a10.07,10.07,0,0,0-7.81,3.36,12.23,12.23,0,0,0-3,8.55,11.66,11.66,0,0,0,3.12,8.41,10.62,10.62,0,0,0,8,3.26,10.45,10.45,0,0,0,8-3.3,12.89,12.89,0,0,0-.13-16.93A10.81,10.81,0,0,0,832.05,129.79Z"/><path class="cls-11" d="M880.7,159.38v-4.61a16.57,16.57,0,0,1-5.17,3.86,13.46,13.46,0,0,1-5.8,1.38,12.08,12.08,0,0,1-6.27-1.7,11,11,0,0,1-4.33-4.61q-1.46-2.91-1.46-9.66V123.46h7.11v20.47q0,5.65,1.62,7.9t5.68,2.24q5.08,0,8.63-5V123.46h7.11v35.92Z"/><path class="cls-11" d="M905.42,123.46v8.24l.39-.62q5.15-8.32,10.31-8.32,4,0,8.39,4.06l-3.75,6.25q-3.71-3.51-6.87-3.51a7.36,7.36,0,0,0-6,3.28,12.39,12.39,0,0,0-2.52,7.77v18.78h-7.15V123.46Z"/><path class="cls-11" d="M379.37,58.25a16,16,0,0,1,7.67,2v4.69a15,15,0,0,0-7.52-2.56,5.44,5.44,0,0,0-3.11.77,2.38,2.38,0,0,0-1.12,2.06q0,1.54,2.09,2.85.59.39,4.51,2.19a12.94,12.94,0,0,1,4.84,3.51,7.41,7.41,0,0,1,1.48,4.65,7.09,7.09,0,0,1-2.53,5.67,9.74,9.74,0,0,1-6.55,2.16,15.5,15.5,0,0,1-4.5-.58,19.52,19.52,0,0,1-4.23-2V78.47q4.37,3.63,8.24,3.63a5.31,5.31,0,0,0,3.12-.84A2.6,2.6,0,0,0,383,79,3.52,3.52,0,0,0,380.9,76q-1.72-.94-4.43-2.25a13,13,0,0,1-4.81-3.42,7,7,0,0,1-1.59-4.53,6.64,6.64,0,0,1,2.56-5.48A10.51,10.51,0,0,1,379.37,58.25Z"/><path class="cls-11" d="M402.37,67.29a5.67,5.67,0,0,1,3.38,1,6,6,0,0,1,2.07,2.65,10.94,10.94,0,0,1,2.92-2.76,6.13,6.13,0,0,1,3.2-.87,5.67,5.67,0,0,1,4.43,1.88,7.25,7.25,0,0,1,1.69,5V85.87H415.5V75a5.11,5.11,0,0,0-.77-3,2.56,2.56,0,0,0-2.23-1.09q-2.1,0-4,2.83V85.87h-4.54v-11a4.72,4.72,0,0,0-.82-2.94,2.62,2.62,0,0,0-2.19-1.06,3.39,3.39,0,0,0-2,.67,9.41,9.41,0,0,0-2,2.16V85.87h-4.56V67.64h4.56V70.2a9.26,9.26,0,0,1,2.52-2.2A6,6,0,0,1,402.37,67.29Z"/><path class="cls-11" d="M431.77,67.29a8.39,8.39,0,0,1,5.37,1.49A5.05,5.05,0,0,1,439,72.95v8.92q0,1,.84,1a2.53,2.53,0,0,0,1-.3,4.36,4.36,0,0,0,1.06-.69v2.77a9,9,0,0,1-4.61,1.54,3.78,3.78,0,0,1-2-.43,2.36,2.36,0,0,1-1-1.52,9.5,9.5,0,0,1-5.52,2,4.78,4.78,0,0,1-3.39-1.33A4.21,4.21,0,0,1,424,81.71,5,5,0,0,1,425.4,78a12,12,0,0,1,4.92-2.38l3.88-1.13v-.84Q434.21,71,431,71a7.77,7.77,0,0,0-3.3.76,9.35,9.35,0,0,0-3,2.25V69.65A11.08,11.08,0,0,1,431.77,67.29ZM428.84,81a2.11,2.11,0,0,0,.63,1.6,2.19,2.19,0,0,0,1.57.61,4.73,4.73,0,0,0,3.16-1.44V77a22.32,22.32,0,0,0-3.15,1.29,5.77,5.77,0,0,0-1.68,1.23A2.26,2.26,0,0,0,428.84,81Z"/><path class="cls-11" d="M450.83,58.6V85.87H446V58.6Z"/><path class="cls-11" d="M461.47,58.6V85.87h-4.8V58.6Z"/><path class="cls-11" d="M479.39,58.6l5.16,16.83L490,58.6h3.38l5.46,16.89L504,58.6h4.1l-8.53,27.62h-1.35L491.66,66,485.1,86.22H483.8L475.25,58.6Z"/><path class="cls-11" d="M516.88,67.29a9.8,9.8,0,0,1,4.81,1.19A8.32,8.32,0,0,1,525,71.82a9.93,9.93,0,0,1,1.18,4.86,10.39,10.39,0,0,1-1.13,5A8.23,8.23,0,0,1,521.74,85a9.81,9.81,0,0,1-4.86,1.23A9.69,9.69,0,0,1,512,85a8.27,8.27,0,0,1-3.31-3.36,10.38,10.38,0,0,1-1.13-5,9.82,9.82,0,0,1,1.2-4.89,8.41,8.41,0,0,1,3.34-3.32A9.68,9.68,0,0,1,516.88,67.29Zm-4.61,9.39A7,7,0,0,0,513.52,81a4,4,0,0,0,3.33,1.63,4.16,4.16,0,0,0,3.43-1.56,7,7,0,0,0,1.25-4.47,6.52,6.52,0,0,0-1.26-4.29,4.22,4.22,0,0,0-3.42-1.51,4,4,0,0,0-3.3,1.6A6.62,6.62,0,0,0,512.27,76.68Z"/><path class="cls-11" d="M540.39,67.29a4.44,4.44,0,0,1,1.88.43,10.5,10.5,0,0,1,2.16,1.44l-1.72,4.2a6.32,6.32,0,0,0-3.36-1.56,3.59,3.59,0,0,0-2.2.83,5.93,5.93,0,0,0-1.74,2.2,6.28,6.28,0,0,0-.65,2.73v8.32H530V67.64h4.8v4.65h.08a12.67,12.67,0,0,1,2.64-3.82A4.29,4.29,0,0,1,540.39,67.29Z"/><path class="cls-11" d="M553.15,58.6V85.87h-4.8V58.6Z"/><path class="cls-11" d="M570.43,68V58.6h4.78V85.87h-8.43a9.69,9.69,0,0,1-7-2.52,9.07,9.07,0,0,1-2.63-6.87,9.18,9.18,0,0,1,1.22-4.69,8.77,8.77,0,0,1,3.36-3.31,9.27,9.27,0,0,1,4.62-1.2A12.33,12.33,0,0,1,570.43,68ZM567.91,82.2h2.52V71.64a6.67,6.67,0,0,0-3.08-.76,5.06,5.06,0,0,0-3.84,1.5,5.47,5.47,0,0,0-1.43,3.94Q562.07,82.2,567.91,82.2Z"/></svg>