<svg xmlns="http://www.w3.org/2000/svg" xmlns:xlink="http://www.w3.org/1999/xlink" viewBox="0 0 1020 220">
  <defs>
    <style>
      .cls-1, .cls-13, .cls-27, .cls-31, .cls-33, .cls-8 {
        fill: none;
      }

      .cls-2 {
        clip-path: url(#clip-path);
      }

      .cls-3 {
        fill: #7b68d8;
      }

      .cls-4 {
        fill: #3d3733;
      }

      .cls-5 {
        fill: #ffff1d;
      }

      .cls-6 {
        fill: red;
      }

      .cls-7 {
        fill: #faee00;
      }

      .cls-10, .cls-13, .cls-8 {
        stroke: #515151;
      }

      .cls-10, .cls-13, .cls-27, .cls-30, .cls-31, .cls-32, .cls-33, .cls-8 {
        stroke-miterlimit: 10;
      }

      .cls-30, .cls-32, .cls-8 {
        stroke-width: 2px;
      }

      .cls-9 {
        fill: #232323;
      }

      .cls-10, .cls-11 {
        fill: #515151;
      }

      .cls-10, .cls-13 {
        stroke-width: 7px;
      }

      .cls-12 {
        fill: #878787;
      }

      .cls-14 {
        fill: #cecece;
      }

      .cls-15 {
        fill: #606060;
      }

      .cls-16 {
        fill: #efefef;
      }

      .cls-17 {
        fill: #b7b7b7;
      }

      .cls-18 {
        fill: #dbdbdb;
      }

      .cls-19, .cls-29, .cls-30, .cls-32 {
        fill: #fff;
      }

      .cls-20 {
        fill: #e8e8e8;
      }

      .cls-21 {
        fill: #af2f2f;
      }

      .cls-22 {
        fill: #1e1e1e;
      }

      .cls-23 {
        fill: #afafaf;
      }

      .cls-24 {
        fill: #5b5b5b;
      }

      .cls-25 {
        fill: #fefefe;
      }

      .cls-26 {
        fill: #545454;
      }

      .cls-27, .cls-32, .cls-33 {
        stroke: #fff;
      }

      .cls-28 {
        fill: #525fff;
      }

      .cls-29 {
        opacity: 0.45;
      }

      .cls-30, .cls-31 {
        stroke: #4a00bf;
      }

      .cls-31, .cls-33 {
        stroke-width: 3.2px;
      }
    </style>
    <clipPath id="clip-path">
      <rect class="cls-1" x="1" y="1" width="1020" height="220"/>
    </clipPath>
  </defs>
  <title>study_abroad_seminar</title>
  <g id="レイヤー_6" data-name="レイヤー 6">
    <g class="cls-2">
      <rect class="cls-3" x="-12" y="-29.11" width="1042" height="517.01"/>
      <path class="cls-4" d="M-2.27-21.41l101.62.11V35.81h60.16V95.63H221v85.66h37.43v189L-2.38,372S-2.27-21.3-2.27-21.41Z"/>
      <rect class="cls-5" x="66.98" y="-12.49" width="23.41" height="22.64"/>
      <rect class="cls-5" x="34.59" y="-12.47" width="23.57" height="22.79"/>
      <rect class="cls-5" x="66.89" y="17" width="23.41" height="22.64"/>
      <rect class="cls-5" x="1.98" y="17.13" width="23.5" height="22.72"/>
      <rect class="cls-5" x="34.8" y="46.88" width="23.57" height="22.79"/>
      <rect class="cls-5" x="2.29" y="46.99" width="23.5" height="22.72"/>
      <rect class="cls-5" x="67.38" y="77.86" width="23.41" height="22.64"/>
      <rect class="cls-5" x="34.99" y="77.88" width="23.57" height="22.79"/>
      <rect class="cls-5" x="2.63" y="108.32" width="23.5" height="22.72"/>
      <rect class="cls-5" x="35.12" y="138.99" width="23.57" height="22.79"/>
      <rect class="cls-5" x="2.61" y="139.1" width="23.5" height="22.72"/>
      <rect class="cls-5" x="67.48" y="169.9" width="23.41" height="22.64"/>
      <rect class="cls-5" x="35.08" y="200.26" width="23.57" height="22.79"/>
      <rect class="cls-5" x="2.57" y="200.36" width="23.5" height="22.72"/>
      <rect class="cls-5" x="164.31" y="103.16" width="49.63" height="12.68" rx="4.74" ry="4.74"/>
      <rect class="cls-5" x="164.96" y="155.95" width="49.63" height="12.68" rx="4.74" ry="4.74"/>
      <rect class="cls-5" x="165.32" y="173.71" width="49.63" height="12.68" rx="4.74" ry="4.74"/>
      <rect class="cls-5" x="166.27" y="209.4" width="49.63" height="12.68" rx="4.74" ry="4.74"/>
      <g>
        <path class="cls-6" d="M262,182c-4.39,0-4.38,0-4.37,8.45,0-8.49,0-8.48-4.37-8.45,4.39,0,4.38,0,4.37-8.45C257.64,182.08,257.63,182.06,262,182Z"/>
        <path class="cls-6" d="M259.95,184.4c-2.18-2-2.38-2-4.44.16,1.81-2.4,1.8-2.62-.15-4.89,2.18,2,2.38,2,4.44-.16C258,181.92,258,182.13,259.95,184.4Z"/>
        <path class="cls-6" d="M260.48,183.54c-2.62-1.18-2.81-1.11-4.19,1.61,1.08-2.89,1-3.09-1.46-4.62,2.62,1.18,2.81,1.11,4.19-1.61C257.94,181.81,258,182,260.48,183.54Z"/>
        <path class="cls-6" d="M259,185.15c-1.39-2.72-1.58-2.79-4.2-1.6,2.47-1.53,2.54-1.73,1.45-4.62,1.39,2.72,1.58,2.79,4.2,1.6C258,182.06,257.94,182.26,259,185.15Z"/>
      </g>
      <g>
        <path class="cls-6" d="M225.5,95.19c-4.79,0-4.78,0-4.77,9.23,0-9.27,0-9.25-4.77-9.23,4.79,0,4.78,0,4.77-9.23C220.72,95.24,220.71,95.22,225.5,95.19Z"/>
        <path class="cls-6" d="M223.24,97.77c-2.38-2.17-2.6-2.16-4.85.18,2-2.62,2-2.86-.16-5.33,2.38,2.17,2.6,2.16,4.85-.18C221.1,95.06,221.11,95.3,223.24,97.77Z"/>
        <path class="cls-6" d="M223.82,96.83c-2.86-1.29-3.07-1.21-4.58,1.76,1.17-3.15,1.1-3.37-1.6-5,2.86,1.29,3.07,1.21,4.58-1.76C221,94.95,221.12,95.17,223.82,96.83Z"/>
        <path class="cls-6" d="M222.23,98.59c-1.52-3-1.72-3-4.58-1.75,2.7-1.67,2.77-1.89,1.59-5,1.52,3,1.72,3,4.58,1.75C221.12,95.22,221.05,95.44,222.23,98.59Z"/>
      </g>
      <g>
        <path class="cls-6" d="M162.86,35.54c-4,0-4,0-4,7.72,0-7.76,0-7.74-4-7.72,4,0,4,0,4-7.72C158.86,35.58,158.85,35.56,162.86,35.54Z"/>
        <path class="cls-6" d="M161,37.7c-2-1.82-2.18-1.81-4.06.15,1.65-2.2,1.65-2.39-.14-4.46,2,1.82,2.18,1.81,4.06-.15C159.18,35.43,159.19,35.63,161,37.7Z"/>
        <path class="cls-6" d="M161.46,36.92c-2.4-1.08-2.57-1-3.83,1.47,1-2.64.92-2.82-1.34-4.22,2.4,1.08,2.57,1,3.83-1.47C159.14,35.34,159.19,35.52,161.46,36.92Z"/>
        <path class="cls-6" d="M160.12,38.38c-1.27-2.48-1.44-2.55-3.83-1.46,2.26-1.4,2.32-1.58,1.33-4.22,1.27,2.48,1.44,2.55,3.83,1.46C159.19,35.56,159.14,35.75,160.12,38.38Z"/>
      </g>
      <g>
        <path class="cls-6" d="M165.63,95.72c-4.79,0-4.78,0-4.77,9.23,0-9.27,0-9.25-4.77-9.23,4.79,0,4.78,0,4.77-9.23C160.85,95.76,160.84,95.74,165.63,95.72Z"/>
        <path class="cls-6" d="M163.37,98.29c-2.38-2.17-2.6-2.16-4.85.18,2-2.62,2-2.86-.16-5.33,2.38,2.17,2.6,2.16,4.85-.18C161.23,95.58,161.24,95.82,163.37,98.29Z"/>
        <path class="cls-6" d="M163.95,97.36c-2.86-1.29-3.07-1.21-4.58,1.76,1.17-3.15,1.1-3.37-1.6-5,2.86,1.29,3.07,1.21,4.58-1.76C161.18,95.47,161.25,95.69,163.95,97.36Z"/>
        <path class="cls-6" d="M162.36,99.11c-1.52-3-1.72-3-4.58-1.75,2.7-1.67,2.77-1.89,1.59-5,1.52,3,1.72,3,4.58,1.75C161.25,95.74,161.18,96,162.36,99.11Z"/>
      </g>
      <path class="cls-4" d="M1024.95-19.22H931.81V17.18H872.16V143.39h-74.3v47.7l-33.31,0V371.54h259.09S1023.38-18,1024.95-19.22Z"/>
      <rect class="cls-7" x="804.94" y="149.96" width="66.75" height="9.66"/>
      <rect class="cls-7" x="804.94" y="164.46" width="49.12" height="9.66"/>
      <rect class="cls-7" x="804.94" y="179.7" width="62.73" height="9.66"/>
      <rect class="cls-7" x="804.94" y="194.83" width="66.75" height="9.66"/>
      <rect class="cls-7" x="804.94" y="209.33" width="38.64" height="9.66"/>
      <rect class="cls-7" x="945.76" y="-11.76" width="12.56" height="12.56"/>
      <rect class="cls-7" x="981.04" y="-11.78" width="12.56" height="12.56"/>
      <rect class="cls-7" x="999.32" y="-11.82" width="12.56" height="12.56"/>
      <rect class="cls-7" x="1016.43" y="-11.82" width="12.56" height="12.56"/>
      <rect class="cls-7" x="945.66" y="5.47" width="12.56" height="12.56"/>
      <rect class="cls-7" x="963.55" y="5.41" width="12.56" height="12.56"/>
      <rect class="cls-7" x="980.94" y="5.45" width="12.56" height="12.56"/>
      <rect class="cls-7" x="999.22" y="5.41" width="12.56" height="12.56"/>
      <rect class="cls-7" x="963.67" y="22.06" width="12.56" height="12.56"/>
      <rect class="cls-7" x="981.05" y="22.1" width="12.56" height="12.56"/>
      <rect class="cls-7" x="1016.44" y="22.07" width="12.56" height="12.56"/>
      <rect class="cls-7" x="945.66" y="38.62" width="12.56" height="12.56"/>
      <rect class="cls-7" x="963.55" y="38.56" width="12.56" height="12.56"/>
      <rect class="cls-7" x="980.94" y="38.6" width="12.56" height="12.56"/>
      <rect class="cls-7" x="999.22" y="38.56" width="12.56" height="12.56"/>
      <rect class="cls-7" x="1016.33" y="38.56" width="12.56" height="12.56"/>
      <rect class="cls-7" x="980.94" y="55.25" width="12.56" height="12.56"/>
      <rect class="cls-7" x="999.22" y="55.21" width="12.56" height="12.56"/>
      <rect class="cls-7" x="945.64" y="71.95" width="12.56" height="12.56"/>
      <rect class="cls-7" x="963.53" y="71.89" width="12.56" height="12.56"/>
      <rect class="cls-7" x="999.2" y="71.89" width="12.56" height="12.56"/>
      <rect class="cls-7" x="1016.31" y="71.89" width="12.56" height="12.56"/>
      <rect class="cls-7" x="963.65" y="88.63" width="12.56" height="12.56"/>
      <rect class="cls-7" x="981.03" y="88.67" width="12.56" height="12.56"/>
      <rect class="cls-7" x="1016.42" y="88.64" width="12.56" height="12.56"/>
      <rect class="cls-7" x="945.65" y="105.69" width="12.56" height="12.56"/>
      <rect class="cls-7" x="980.93" y="105.67" width="12.56" height="12.56"/>
      <rect class="cls-7" x="999.21" y="105.63" width="12.56" height="12.56"/>
      <rect class="cls-7" x="1016.43" y="122.71" width="12.56" height="12.56"/>
      <rect class="cls-7" x="945.68" y="139.83" width="12.56" height="12.56"/>
      <rect class="cls-7" x="963.57" y="139.76" width="12.56" height="12.56"/>
      <rect class="cls-7" x="980.96" y="139.81" width="12.56" height="12.56"/>
      <rect class="cls-7" x="999.24" y="139.77" width="12.56" height="12.56"/>
      <rect class="cls-7" x="1016.35" y="139.77" width="12.56" height="12.56"/>
      <rect class="cls-7" x="963.35" y="156.73" width="12.56" height="12.56"/>
      <rect class="cls-7" x="999.01" y="156.74" width="12.56" height="12.56"/>
      <rect class="cls-7" x="1016.13" y="156.74" width="12.56" height="12.56"/>
      <rect class="cls-7" x="945.57" y="174.19" width="12.56" height="12.56"/>
      <rect class="cls-7" x="980.84" y="174.16" width="12.56" height="12.56"/>
      <rect class="cls-7" x="963.35" y="191.09" width="12.56" height="12.56"/>
      <rect class="cls-7" x="980.73" y="191.13" width="12.56" height="12.56"/>
      <rect class="cls-7" x="999.01" y="191.09" width="12.56" height="12.56"/>
      <rect class="cls-7" x="963.42" y="208.25" width="12.56" height="12.56"/>
      <rect class="cls-7" x="999.08" y="208.26" width="12.56" height="12.56"/>
      <rect class="cls-7" x="1016.2" y="208.26" width="12.56" height="12.56"/>
      <g>
        <path class="cls-6" d="M876.26,17.79c-4.15,0-4.14,0-4.13,8.45,0-8.49,0-8.48-4.13-8.45,4.15,0,4.14,0,4.13-8.45C872.12,17.84,872.11,17.82,876.26,17.79Z"/>
        <path class="cls-6" d="M874.3,20.16c-2.06-2-2.25-2-4.19.16,1.71-2.4,1.7-2.62-.14-4.89,2.06,2,2.25,2,4.19-.16C872.45,17.67,872.46,17.89,874.3,20.16Z"/>
        <path class="cls-6" d="M874.81,19.3c-2.48-1.18-2.65-1.11-4,1.61,1-2.89,1-3.09-1.38-4.62,2.48,1.18,2.65,1.11,4-1.61C872.41,17.57,872.47,17.77,874.81,19.3Z"/>
        <path class="cls-6" d="M873.43,20.9c-1.31-2.72-1.49-2.79-4-1.6,2.33-1.53,2.4-1.73,1.37-4.62,1.31,2.72,1.49,2.79,4,1.6C872.47,17.81,872.41,18,873.43,20.9Z"/>
      </g>
      <path class="cls-6" d="M766.67,196.44c-2.26-4.43-2.57-4.55-6.84-2.61,4-2.49,4.13-2.83,2.37-7.52,2.26,4.43,2.57,4.55,6.84,2.61C765,191.41,764.91,191.74,766.67,196.44Z"/>
      <g>
        <line class="cls-8" x1="511.18" y1="192.44" x2="511.18" y2="224.63"/>
        <rect class="cls-9" x="501.89" y="217.91" width="5.31" height="14.12"/>
        <rect class="cls-9" x="515.16" y="217.91" width="5.31" height="14.12"/>
      </g>
      <g>
        <g>
          <line class="cls-10" x1="596.21" y1="192.14" x2="596.21" y2="238.41"/>
          <polyline class="cls-11" points="596.21 235.08 559.61 181.84 564.19 178.91 596.21 235.08 596.21 235.08 596.21 235.08"/>
          <polygon class="cls-11" points="600.23 196.13 577.88 207.92 600.23 199.45 600.23 196.13"/>
        </g>
        <rect class="cls-12" x="590.39" y="170.78" width="11.83" height="49.45"/>
      </g>
      <g>
        <g>
          <line class="cls-13" x1="420.25" y1="189.6" x2="420.25" y2="235.88"/>
          <polyline class="cls-11" points="420.25 232.55 456.86 179.3 452.27 176.37 420.25 232.55 420.25 232.55 420.25 232.55"/>
          <polygon class="cls-11" points="416.24 193.59 438.59 205.38 416.24 196.92 416.24 193.59"/>
        </g>
        <rect class="cls-12" x="414.34" y="164.51" width="11.83" height="53.92"/>
      </g>
      <circle class="cls-14" cx="706.79" cy="189.6" r="28.83"/>
      <circle class="cls-9" cx="706.87" cy="189.6" r="22.26"/>
      <circle class="cls-15" cx="706.86" cy="189.6" r="16.81"/>
      <circle class="cls-14" cx="316.74" cy="189.6" r="28.83"/>
      <circle class="cls-9" cx="316.74" cy="189.6" r="22.26"/>
      <circle class="cls-15" cx="316.74" cy="189.6" r="16.81"/>
      <path class="cls-16" d="M316.66,178.33s3.58-6.25,4.14-9.58.51-20.65.51-20.65h-8.87s-.6,16.22,0,20.88,4.22,9.35,4.22,9.35"/>
      <path class="cls-17" d="M575.25,149s43.6-9.54,79.82-14.71,65.79-7.76,121.22-12.2,195.88-4.43,195.88-4.43L938.91,128s-62.16,6.21-92,10.38-75.37,9.52-113.46,15.86-44.72,8.06-66.16,12.94-43.85,12-73.55,23.65-37,12.68-37,12.68Z"/>
      <path class="cls-16" d="M706.79,178.33s3.58-6.25,4.14-9.58.51-20.65.51-20.65h-8.87s-.6,16.22,0,20.88,4.22,9.35,4.22,9.35"/>
      <path class="cls-18" d="M575.25,149s43.6-9.54,79.82-14.71,65.79-7.76,121.22-12.2,195.88-4.43,195.88-4.43L938.91,128l-45.15,4.89-1.42-8.58s-53.65,2.64-96.83,7c-31.79,3.22-67.18,8.8-67.18,8.8L731,154.65c-29.27,4.06-39.57,7.61-47.65,8.74L681,150.26,565.92,176.37Z"/>
      <path class="cls-17" d="M448.1,149s-43.6-9.54-79.82-14.71-65.79-7.76-121.22-12.2-195.88-4.43-195.88-4.43L84.44,128s62.16,6.21,92,10.38,75.37,9.52,113.46,15.86,44.72,8.06,66.16,12.94,43.85,12,73.55,23.65,37,12.68,37,12.68Z"/>
      <path class="cls-18" d="M448.1,149s-43.6-9.54-79.82-14.71-65.79-7.76-121.22-12.2-195.88-4.43-195.88-4.43L84.44,128l45.15,4.89,1.42-8.58s53.65,2.64,96.83,7c31.79,3.22,67.18,8.8,67.18,8.8l-2.65,14.56c29.27,4.06,39.57,7.61,47.65,8.74l2.35-13.12,115.06,26.12Z"/>
      <rect class="cls-19" x="447.54" y="117.61" width="127.72" height="86.33" rx="20.94" ry="20.94"/>
      <circle class="cls-20" cx="511.39" cy="140.08" r="63.86"/>
      <path class="cls-21" d="M512.24-62.82s-4.45,41.32-5.08,50.42S504.76,51,504.76,51s-1.85,28.86,0,35.11,7.48,12.57,7.48,12.57,5-7,6.5-12.94,0-35.48,0-35.48S517.58-3.25,517-12.49,512.24-62.82,512.24-62.82Z"/>
      <circle class="cls-22" cx="706.79" cy="189.6" r="11.27"/>
      <path class="cls-23" d="M525.72,126.45c5-2.61,39.47-14.25,76.5-22.87,34-7.9,87.81-17.54,84.54-15.38,0,0-12.32,5.45-17,6.64-2.39.6-34.79,8-65.42,18.28-30,10.06-58.26,23-63.13,24.93a4.09,4.09,0,0,1-4.64-1.15c-2.09-2.44-5.71-5.86-9.16-5.32C522.12,132.41,521.64,128.59,525.72,126.45Z"/>
      <path class="cls-23" d="M497.64,126.45c-5-2.61-39.47-14.25-76.5-22.87-34-7.9-87.81-17.54-84.54-15.38,0,0,12.32,5.45,17,6.64,2.39.6,34.79,8,65.42,18.28,30,10.06,58.26,23,63.13,24.93a4.09,4.09,0,0,0,4.64-1.15c2.09-2.44,5.71-5.86,9.16-5.32C501.24,132.41,501.71,128.59,497.64,126.45Z"/>
      <circle class="cls-22" cx="316.74" cy="189.6" r="11.27"/>
      <circle class="cls-24" cx="316.74" cy="189.6" r="5.07"/>
      <circle class="cls-24" cx="706.86" cy="189.6" r="5.07"/>
      <circle class="cls-25" cx="510.69" cy="138.34" r="7.68"/>
      <circle class="cls-26" cx="510.69" cy="138.34" r="2.46"/>
      <line class="cls-27" x1="512.24" y1="-62.82" x2="512.24" y2="98.69"/>
      <g>
        <path class="cls-28" d="M527,120c-16.2-.08-16.17-.14-16.12,28.35,0-28.49.08-28.43-16.12-28.35,16.2.08,16.17.14,16.12-28.35C510.84,120.15,510.8,120.09,527,120Z"/>
        <path class="cls-28" d="M519.35,127.93c-8.06-6.68-8.79-6.65-16.39.55,6.68-8.06,6.65-8.79-.55-16.39,8.06,6.68,8.79,6.65,16.39-.55C512.13,119.6,512.15,120.33,519.35,127.93Z"/>
        <path class="cls-28" d="M521.33,125c-9.69-4-10.37-3.73-15.48,5.4,4-9.69,3.73-10.37-5.4-15.48,9.69,4,10.37,3.73,15.48-5.4C512,119.25,512.19,119.94,521.33,125Z"/>
        <path class="cls-28" d="M515.95,130.44c-5.13-9.12-5.82-9.36-15.5-5.37,9.12-5.13,9.36-5.82,5.37-15.5,5.13,9.12,5.82,9.36,15.5,5.37C512.19,120.08,512,120.76,515.95,130.44Z"/>
      </g>
      <g>
        <path class="cls-6" d="M66.63,118.61c-11.58-.06-11.55-.11-11.52,22.3,0-22.41.06-22.36-11.52-22.3,11.58.06,11.55.11,11.52-22.3C55.08,118.72,55.06,118.67,66.63,118.61Z"/>
        <path class="cls-6" d="M61.17,124.84c-5.76-5.25-6.28-5.23-11.71.43,4.77-6.34,4.75-6.91-.39-12.89,5.76,5.25,6.28,5.23,11.71-.43C56,118.29,56,118.86,61.17,124.84Z"/>
        <path class="cls-6" d="M62.58,122.57c-6.92-3.12-7.41-2.93-11.06,4.25,2.84-7.62,2.67-8.16-3.86-12.18,6.92,3.12,7.41,2.93,11.06-4.25C55.88,118,56,118.55,62.58,122.57Z"/>
        <path class="cls-6" d="M58.73,126.81c-3.67-7.18-4.16-7.36-11.07-4.22,6.52-4,6.69-4.58,3.84-12.19,3.67,7.18,4.16,7.36,11.07,4.22C56,118.66,55.88,119.2,58.73,126.81Z"/>
      </g>
      <g>
        <path class="cls-6" d="M979.12,117.85c-11-.06-11-.11-11,21.22,0-21.33.05-21.28-11-21.22,11,.06,11,.11,11-21.22C968.13,118,968.1,117.91,979.12,117.85Z"/>
        <path class="cls-6" d="M973.92,123.78c-5.48-5-6-5-11.15.41,4.54-6,4.52-6.58-.37-12.27,5.48,5,6,5,11.15-.41C969,117.55,969,118.09,973.92,123.78Z"/>
        <path class="cls-6" d="M975.26,121.63c-6.59-3-7.05-2.79-10.53,4,2.7-7.25,2.54-7.76-3.68-11.59,6.59,3,7.05,2.79,10.53-4C968.89,117.29,969,117.8,975.26,121.63Z"/>
        <path class="cls-6" d="M971.6,125.66c-3.49-6.83-4-7-10.54-4,6.21-3.84,6.37-4.36,3.65-11.6,3.49,6.83,4,7,10.54,4C969,117.9,968.89,118.42,971.6,125.66Z"/>
      </g>
      <rect id="タイトル_背景白_" data-name="タイトル(背景白)" class="cls-29" x="-35" y="57" width="1089" height="97"/>
      <g id="タイトル_影_" data-name="タイトル(影)">
        <g>
          <path class="cls-30" d="M193.81,116.33c0,9.82-7.17,15.33-15.54,15.33-5.85,0-.25-2.15-.25-2.15,7.24,0,13.78-4.3,13.78-12.91a12.48,12.48,0,0,0-.09-1.51C189.94,100.54,162,109.42,162,91.39c0-9.75,8.19-13.69,15.57-13.69,6.17,0,22.43.24,22.43.24v1.68s-16.8-.07-22.15-.07c-7.24,0-13.84,3-13.91,11.56C163.92,107.86,193.81,97.71,193.81,116.33Z"/>
          <path class="cls-30" d="M217.57,79.64v52.27h-2.16V79.64H198.74V77.93h41.69v1.71Z"/>
          <path class="cls-30" d="M238.92,114.8V79.93h2V114c0,8.77,6.86,15.78,15.16,15.78s15.16-7,15.16-15.78V79.93h2V114c0,9.8-7.74,17.86-17.18,17.86A17.07,17.07,0,0,1,238.92,114.8Z"/>
          <path class="cls-30" d="M281.19,131.23V78.15h11.62c12.74,0,23.18,12,23.18,26.54s-10.44,26.54-23.18,26.54ZM282.84,80v49.31h10c11.86,0,21.53-11,21.53-24.66S304.67,80,292.81,80Z"/>
          <path class="cls-30" d="M334,106v25.26h-1.78V106l-14.71-26h2.05l13.54,23.89,13.54-23.89h2.05Z"/>
          <path class="cls-30" d="M383.35,79.93l16.55,51.29h-2L394,119H372.21l-3.84,12.27h-2l16.55-51.29Zm-.19,5.26L372.9,117.4h20.45Z"/>
          <path class="cls-30" d="M405.86,131.23V77.54h16c7.36,0,13.53,6.32,13.53,14a13.8,13.8,0,0,1-7.56,12.84c5.7,1.7,8.89,7.54,8.89,12.84a13.79,13.79,0,0,1-13.53,14ZM408,79.85V103.7h14.52c6,0,10.61-5.44,10.61-12a11.52,11.52,0,0,0-11.27-11.83Zm0,25.69v23.38h15.18a11.7,11.7,0,0,0,0-23.38Z"/>
          <path class="cls-30" d="M470.23,131.08c-3.17-6.8-6.23-14.19-10.72-25H447.22v25h-1.67V78.93h14.53c6.4,0,11.64,6.2,11.64,13.6,0,6.67-4.38,12.28-10.38,13.53l10.78,25Zm-23-50.1v23.1h12.86c5.42,0,9.91-5,9.91-11.42S465.61,81,460.08,81Z"/>
          <path class="cls-30" d="M476.66,104.56c0-15.59,10.07-27.32,23.41-27.32S523.54,89,523.54,104.56s-10.13,27.32-23.47,27.32S476.66,120.22,476.66,104.56Zm2,0c0,14.37,9.19,25.15,21.39,25.15s21.39-10.78,21.39-25.15-9.19-25.08-21.39-25.08S478.68,90.25,478.68,104.56Z"/>
          <path class="cls-30" d="M540.82,79.93l17.09,51.29h-2.08l-4-12.27H529.31l-4,12.27h-2.08l17.09-51.29Zm-.2,5.26L530,117.4h21.12Z"/>
          <path class="cls-30" d="M566,131.38V78.93H577.4c12.53,0,22.81,11.82,22.81,26.23s-10.27,26.22-22.81,26.22Zm1.63-50.59v48.73h9.81c11.66,0,21.18-10.89,21.18-24.37s-9.52-24.37-21.18-24.37Z"/>
          <path class="cls-30" d="M653.58,116.35c0,9.9-7.17,15.46-15.54,15.46-5.85,0-11.89-2.44-15.42-7.6l1.76-1.22a16.13,16.13,0,0,0,13.4,6.65c7.24,0,13.78-4.34,13.78-13,0-16.82-29.76-6.65-29.76-25.43C621.81,81.35,629,77,637.35,77a17.47,17.47,0,0,1,15.29,8.27l-1.7,1.22a15.29,15.29,0,0,0-13.28-7.26c-7.24,0-13.84,3-13.91,11.67C623.69,107.8,653.58,97.56,653.58,116.35Z"/>
          <path class="cls-30" d="M661.88,131.23V77.54h28.57v1.7H663.83V103.3h18.75V105H663.83v24.53h26.62v1.7Z"/>
          <path class="cls-30" d="M735.68,131.23h-1.8V86.75l-16.76,31.88L700.36,86.75v44.48h-1.8V79.87h.29l18.27,35,18.21-35,.41.06Z"/>
          <path class="cls-30" d="M746.09,131.23V79.93h2.08v51.29Z"/>
          <path class="cls-30" d="M759.43,82.31v47.92H757.6V78.93l2-.13,30.2,47.46V78.35h1.82v51.88H790Z"/>
          <path class="cls-30" d="M814.13,78.93l16.55,51.29h-2L824.82,118H803l-3.84,12.27h-2l16.55-51.29Zm-.19,5.26-10.26,32.2h20.45Z"/>
          <path class="cls-30" d="M865.21,130.23c-3.46-6.69-6.8-14-11.7-24.54H840.1v24.54h-1.82V78.93h15.86c7,0,12.71,6.1,12.71,13.38a13.65,13.65,0,0,1-11.33,13.31l11.77,24.61ZM840.1,80.95v22.73h14A11,11,0,0,0,865,92.44c0-6.36-4.78-11.49-10.82-11.49Z"/>
        </g>
        <line class="cls-31" x1="181" y1="131.4" x2="-8.23" y2="131.4"/>
        <line class="cls-31" x1="1044" y1="130.4" x2="865.77" y2="130.4"/>
      </g>
      <g id="タイトル_白_" data-name="タイトル(白)">
        <g>
          <path class="cls-32" d="M190.09,113.35c0,9.91-7.22,15.47-15.64,15.47-5.89,0-129.15-.61-129.15-.61l128.9-1.56c7.28,0,13.87-4.34,13.87-13,0-16.83-30-6.65-30-25.45,0-9.84,8.24-13.81,15.67-13.81,6.21,0,22.57.24,22.57.24v1.7s-16.91-.07-22.29-.07c-7.28,0-13.93,3-14,11.67C160,104.8,190.09,94.55,190.09,113.35Z"/>
          <path class="cls-32" d="M214,76.29v51.92h-2V76.29H196.36V74.6h39.13v1.7Z"/>
          <path class="cls-32" d="M235.49,111V74.6h2v35.63c0,9.16,6.9,16.49,15.26,16.49S268,119.39,268,110.22V74.6h2v35.63c0,10.25-7.79,18.66-17.29,18.66A17.51,17.51,0,0,1,235.49,111Z"/>
          <path class="cls-32" d="M277,128.21V74.6H289.5c13.68,0,24.89,12.08,24.89,26.81s-11.21,26.81-24.89,26.81ZM278.8,76.5v49.81h10.7c12.73,0,23.11-11.13,23.11-24.91S302.23,76.5,289.5,76.5Z"/>
          <path class="cls-32" d="M331.41,101.81v26.4h-2v-26.4L312.61,74.6H315l15.45,25,15.45-25h2.34Z"/>
          <path class="cls-32" d="M380.84,74.6l16.65,53.61h-2l-3.86-12.83h-22l-3.86,12.83h-2L380.4,74.6Zm-.19,5.5-10.32,33.66h20.58Z"/>
          <path class="cls-32" d="M404.08,128.21V74.6H419.4c7,0,12.92,6.31,12.92,14,0,5.29-2.22,10.11-7.22,12.83,5.45,1.7,8.49,7.53,8.49,12.83,0,7.67-5.76,14-12.92,14Zm2.09-51.3v23.82H420c5.76,0,10.13-5.43,10.13-12S425.42,76.9,419.4,76.9Zm0,25.65V125.9h14.5c6,0,10.76-5.23,10.76-11.67s-4.75-11.67-10.76-11.67Z"/>
          <path class="cls-32" d="M467.53,128.21c-3.48-7-6.84-14.59-11.78-25.65H442.26v25.65h-1.84V74.6h16c7,0,12.79,6.38,12.79,14a14.12,14.12,0,0,1-11.4,13.91l11.84,25.72ZM442.26,76.7v23.75h14.12c6,0,10.89-5.16,10.89-11.74s-4.81-12-10.89-12Z"/>
          <path class="cls-32" d="M473.74,101.54c0-15.61,10.13-27.35,23.56-27.35s23.62,11.74,23.62,27.35-10.19,27.35-23.62,27.35S473.74,117.21,473.74,101.54Zm2,0c0,14.39,9.24,25.18,21.53,25.18s21.53-10.79,21.53-25.18-9.24-25.11-21.53-25.11S475.77,87.22,475.77,101.54Z"/>
          <path class="cls-32" d="M538.75,74.6l16.65,53.61h-2l-3.86-12.83h-22l-3.86,12.83h-2L538.31,74.6Zm-.19,5.5-10.32,33.66h20.58Z"/>
          <path class="cls-32" d="M561.61,128.21V74.6h12.47C587.76,74.6,599,86.68,599,101.4s-11.21,26.81-24.89,26.81Zm1.77-51.71v49.81h10.7c12.73,0,23.11-11.13,23.11-24.91S586.81,76.5,574.08,76.5Z"/>
          <path class="cls-32" d="M650.78,113.35c0,9.91-7.22,15.47-15.64,15.47-5.89,0-12-2.44-15.51-7.6L621.4,120a16.26,16.26,0,0,0,13.49,6.65c7.28,0,13.87-4.34,13.87-13,0-16.83-30-6.65-30-25.45C618.8,78.33,626,74,634.44,74a17.6,17.6,0,0,1,15.39,8.28l-1.71,1.22a15.4,15.4,0,0,0-13.36-7.26c-7.28,0-13.93,3-14,11.67C620.7,104.8,650.78,94.55,650.78,113.35Z"/>
          <path class="cls-32" d="M658.13,128.21V74.6h28.75v1.7H660.09v24H679V102H660.09v24.5h26.79v1.7Z"/>
          <path class="cls-32" d="M735.44,128.21h-2V81.72L715.24,115,697,81.72v46.49h-2V74.53h.32l19.88,36.58,19.82-36.58.44.07Z"/>
          <path class="cls-32" d="M742.87,128.21V74.6H745v53.61Z"/>
          <path class="cls-32" d="M755.29,78.12v50.08h-1.84V74.6l2-.14,30.4,49.61V74h1.84v54.22h-1.58Z"/>
          <path class="cls-32" d="M811.34,74.6,828,128.21h-2l-3.86-12.83h-22l-3.86,12.83h-2L810.9,74.6Zm-.19,5.5-10.32,33.66h20.58Z"/>
          <path class="cls-32" d="M861.74,128.21c-3.48-7-6.84-14.59-11.78-25.65H836.48v25.65h-1.84V74.6h16c7,0,12.79,6.38,12.79,14A14.12,14.12,0,0,1,852,102.49l11.84,25.72ZM836.48,76.7v23.75H850.6c6,0,10.89-5.16,10.89-11.74s-4.81-12-10.89-12Z"/>
        </g>
        <line class="cls-33" x1="1037" y1="127.34" x2="861.3" y2="127.34"/>
        <line class="cls-33" x1="154" y1="127.34" x2="-21.7" y2="127.34"/>
      </g>
    </g>
  </g>
</svg>
