<svg xmlns="http://www.w3.org/2000/svg" xmlns:xlink="http://www.w3.org/1999/xlink" viewBox="0 0 967.58 407.57"><defs><style>.cls-1,.cls-2{fill:none;}.cls-1,.cls-11,.cls-13,.cls-18,.cls-2,.cls-20,.cls-22,.cls-30,.cls-33{stroke:#070001;}.cls-1,.cls-11,.cls-13,.cls-14,.cls-15,.cls-16,.cls-18,.cls-2,.cls-20,.cls-22,.cls-23,.cls-30,.cls-33,.cls-34{stroke-miterlimit:10;}.cls-1{stroke-width:10px;}.cls-11,.cls-18,.cls-2,.cls-20,.cls-22,.cls-30,.cls-33{stroke-width:5px;}.cls-3{fill:#c6c5e0;}.cls-13,.cls-4{fill:#070001;}.cls-5{fill:#eae672;}.cls-14,.cls-6{fill:#9dc88a;}.cls-7{fill:#ca97be;}.cls-8{fill:url(#名称未設定グラデーション_4);}.cls-9{fill:#4e4d4d;}.cls-10,.cls-34{fill:#e291b5;}.cls-11{fill:#92c384;}.cls-11,.cls-18,.cls-20,.cls-22,.cls-30,.cls-33{fill-rule:evenodd;}.cls-12{fill:#c39c61;}.cls-14,.cls-15,.cls-16,.cls-23,.cls-34{stroke:#231815;}.cls-15{fill:#6ab8e1;}.cls-16{fill:#b472a5;}.cls-17{fill:#9bc463;}.cls-18{fill:#c89abf;}.cls-19{fill:#6f61a1;}.cls-20{fill:#d97978;}.cls-21{fill:#c7dfbf;}.cls-22{fill:#e39b5f;}.cls-23,.cls-29{fill:#eec167;}.cls-24{fill:#cbe5eb;}.cls-25{fill:#e68f90;}.cls-26{fill:url(#名称未設定グラデーション_4-2);}.cls-27{fill:#7a739c;}.cls-28{fill:url(#名称未設定グラデーション_4-3);}.cls-30{fill:#6186be;}.cls-31{fill:#d0805f;}.cls-32{fill:#96bde0;}.cls-33{fill:#67b79a;}</style><linearGradient id="名称未設定グラデーション_4" x1="145.1" y1="70.82" x2="194.1" y2="70.82" gradientUnits="userSpaceOnUse"><stop offset="1" stop-color="#070001"/><stop offset="1" stop-color="#fff"/></linearGradient><linearGradient id="名称未設定グラデーション_4-2" x1="3837.45" y1="-1555" x2="3920.82" y2="-1555" gradientTransform="translate(2428.83 4182.01) rotate(-90)" xlink:href="#名称未設定グラデーション_4"/><linearGradient id="名称未設定グラデーション_4-3" x1="830.78" y1="356.29" x2="916.87" y2="356.29" xlink:href="#名称未設定グラデーション_4"/></defs><title>アセット 1</title><g id="レイヤー_2" data-name="レイヤー 2"><g id="二進数"><line class="cls-1" x1="873.83" y1="302.88" x2="459.88" y2="62.5"/><line class="cls-2" x1="169.6" y1="70.82" x2="48.95" y2="146.22"/><line class="cls-2" x1="93.75" y1="302.74" x2="48.95" y2="146.22"/><line class="cls-2" x1="314.3" y1="195.5" x2="48.95" y2="146.22"/><line class="cls-2" x1="544.53" y1="233.02" x2="314.3" y2="195.5"/><line class="cls-2" x1="653.59" y1="279.74" x2="544.53" y2="233.02"/><line class="cls-2" x1="873.83" y1="303.14" x2="653.59" y2="279.74"/><line class="cls-2" x1="798.98" y1="162.82" x2="653.59" y2="279.74"/><line class="cls-2" x1="634.26" y1="97.93" x2="544.53" y2="233.02"/><line class="cls-2" x1="798.98" y1="162.82" x2="634.26" y2="97.93"/><line class="cls-2" x1="544.53" y1="233.02" x2="798.98" y2="162.82"/><line class="cls-2" x1="873.83" y1="303.14" x2="798.98" y2="162.82"/><line class="cls-2" x1="477.49" y1="344.57" x2="544.53" y2="233.02"/><line class="cls-2" x1="653.59" y1="279.74" x2="477.49" y2="344.57"/><line class="cls-1" x1="93.75" y1="302.74" x2="314.3" y2="195.5"/><line class="cls-2" x1="458.99" y1="55.54" x2="639.09" y2="99.84"/><line class="cls-1" x1="169.6" y1="70.82" x2="312.58" y2="195.5"/><line class="cls-1" x1="93.62" y1="303.14" x2="169.6" y2="70.82"/><line class="cls-1" x1="459.88" y1="62.5" x2="472.82" y2="345.07"/><line class="cls-1" x1="472.82" y1="345.07" x2="873.83" y2="302.88"/><line class="cls-1" x1="458.99" y1="55.54" x2="312.58" y2="195.5"/><line class="cls-1" x1="169.6" y1="70.82" x2="458.99" y2="55.54"/><line class="cls-1" x1="312.58" y1="195.5" x2="472.82" y2="345.07"/><line class="cls-1" x1="472.82" y1="345.07" x2="93.62" y2="303.14"/><circle class="cls-3" cx="312.58" cy="195.5" r="60"/><path class="cls-4" d="M312.58,138a57.5,57.5,0,1,1-57.5,57.5,57.57,57.57,0,0,1,57.5-57.5m0-5a62.5,62.5,0,1,0,62.5,62.5,62.5,62.5,0,0,0-62.5-62.5Z"/><circle class="cls-5" cx="472.82" cy="345.07" r="60"/><path class="cls-4" d="M472.82,287.57a57.5,57.5,0,1,1-57.5,57.5,57.57,57.57,0,0,1,57.5-57.5m0-5a62.5,62.5,0,1,0,62.5,62.5,62.5,62.5,0,0,0-62.5-62.5Z"/><circle class="cls-6" cx="169.44" cy="70.96" r="60"/><path class="cls-4" d="M169.44,13.46A57.5,57.5,0,1,1,111.94,71a57.56,57.56,0,0,1,57.5-57.5m0-5A62.5,62.5,0,1,0,231.94,71a62.5,62.5,0,0,0-62.5-62.5Z"/><circle class="cls-7" cx="459.88" cy="62.5" r="60"/><path class="cls-4" d="M459.88,5a57.5,57.5,0,1,1-57.5,57.5A57.56,57.56,0,0,1,459.88,5m0-5a62.5,62.5,0,1,0,62.5,62.5A62.5,62.5,0,0,0,459.88,0Z"/><rect class="cls-8" x="145.1" y="33.82" width="49" height="74" rx="8.95" ry="8.95"/><path class="cls-4" d="M185.16,34.32a8.46,8.46,0,0,1,8.44,8.45v56.1a8.46,8.46,0,0,1-8.44,8.45H154.05a8.46,8.46,0,0,1-8.45-8.45V42.77a8.46,8.46,0,0,1,8.45-8.45h31.11m0-1H154.05a9.45,9.45,0,0,0-9.45,9.45v56.1a9.45,9.45,0,0,0,9.45,9.45h31.11a9.45,9.45,0,0,0,9.44-9.45V42.77a9.45,9.45,0,0,0-9.44-9.45Z"/><rect class="cls-9" x="149.79" y="44.44" width="39.63" height="52.75"/><path class="cls-4" d="M188.92,44.94V96.69H150.29V44.94h38.63m1-1H149.29V97.69h40.63V43.94Z"/><path class="cls-4" d="M510.25,314.85v56.47q0,4.71-6.28,8.15a20.84,20.84,0,0,1-13,3.46c-4.19,0-7.06-1.05-8.64-3.14a4.35,4.35,0,0,1-.78-2.82,7,7,0,0,1,.39-1.89q2.36-5.64,13-8.47a47.78,47.78,0,0,1,10.6-.94v-37l-41.62-6v41.73q0,4.4-6.28,8.15A23.6,23.6,0,0,1,443.11,376q-5.5-.63-7.07-3.13a3.76,3.76,0,0,1-.79-2.51,4.68,4.68,0,0,1,.4-1.88q2-5.65,12.56-8.48a50.24,50.24,0,0,1,11-.94V308Z"/><circle class="cls-10" cx="798.83" cy="153.15" r="35"/><path class="cls-4" d="M798.83,120.65a32.5,32.5,0,1,1-32.5,32.5,32.54,32.54,0,0,1,32.5-32.5m0-5a37.5,37.5,0,1,0,37.5,37.5,37.5,37.5,0,0,0-37.5-37.5Z"/><path class="cls-11" d="M810.24,177.75H787.71a3,3,0,0,1-2.94-3.59l3.49-17.48A10.93,10.93,0,0,1,799,147.9h0a10.92,10.92,0,0,1,10.71,8.78l3.49,17.48A3,3,0,0,1,810.24,177.75Z"/><path class="cls-12" d="M798.84,150.53c-4.85,0-8.79-4.59-8.79-10.23s3.94-10.22,8.79-10.22,8.78,4.58,8.78,10.22S803.68,150.53,798.84,150.53Z"/><path class="cls-4" d="M798.84,132.58c3.46,0,6.28,3.46,6.28,7.72S802.3,148,798.84,148s-6.29-3.47-6.29-7.73,2.82-7.72,6.29-7.72m0-5c-6.23,0-11.29,5.69-11.29,12.72S792.61,153,798.84,153s11.28-5.7,11.28-12.73-5-12.72-11.28-12.72Z"/><path class="cls-13" d="M507.83,55.42l0,0,0,0a9.33,9.33,0,0,0-1.53-1.26,1.51,1.51,0,0,1-.58-.12,1.6,1.6,0,0,1-.7-.61,9.72,9.72,0,0,0-2.79-.83,1.52,1.52,0,0,1,.42-3,13.21,13.21,0,0,1,2.81.73,9.13,9.13,0,0,0,.23-2,9.37,9.37,0,0,0-1.11-4.44h0A9.39,9.39,0,0,0,501,40.09a9.49,9.49,0,0,0-4.24-1.32,12.62,12.62,0,0,1-1,4,1.52,1.52,0,1,1-2.8-1.2,9.83,9.83,0,0,0,.81-3.86c0-.19,0-.37,0-.56a9.81,9.81,0,0,0-5.89-8.42A9.69,9.69,0,0,0,484,28a9.81,9.81,0,0,0-6.66,2.63,12.72,12.72,0,0,1,.52,3.62,1.52,1.52,0,0,1-3,0,9.79,9.79,0,0,0-.64-3.49h0a9.76,9.76,0,0,0-17.05-2.23A12.75,12.75,0,0,1,459.57,36a1.53,1.53,0,0,1-3.05,0,9.72,9.72,0,0,0-2.42-6.44h0a9.79,9.79,0,0,0-12.84-1.65A9.76,9.76,0,0,0,437,36a1.52,1.52,0,0,1-3,0,12.71,12.71,0,0,1,.51-3.56,9.71,9.71,0,0,0-5.86-.47,9.79,9.79,0,0,0-5.31,3.25,9.93,9.93,0,0,0-2,3.95A12.79,12.79,0,0,1,430,42.84,1.52,1.52,0,0,1,427.86,45a9.76,9.76,0,0,0-6.84-2.8,11.71,11.71,0,0,0-1.32.09h0A9.76,9.76,0,0,0,411.25,52a9.78,9.78,0,0,0,2.93,7h0a9.7,9.7,0,0,0,3.31,2.14A1.52,1.52,0,1,1,416.4,64a12.74,12.74,0,0,1-4.35-2.81,13.91,13.91,0,0,1-1.51-1.76,9.76,9.76,0,0,0-.61,10.22,9.67,9.67,0,0,0,3.66,3.81,9.78,9.78,0,0,0,3.89,1.29v-.09a12.34,12.34,0,0,1,.22-2.36,1.52,1.52,0,1,1,3,.56,9.64,9.64,0,0,0-.17,1.8c0,.24,0,.47,0,.7s0,.49.08.72h0a9.79,9.79,0,0,0,9.66,8.35c.23,0,.47,0,.7,0h0a9.68,9.68,0,0,0,5.6-2.27,9.94,9.94,0,0,0,2.55-3.31,1.52,1.52,0,1,1,2.75,1.3,12.67,12.67,0,0,1-2.61,3.66,9.78,9.78,0,0,0,9.28,6.74l.7,0h0a9.81,9.81,0,0,0,4-1.17,13.33,13.33,0,0,1-.29-2.68,12.83,12.83,0,0,1,1.28-5.56A1.52,1.52,0,0,1,457,82.38a9.79,9.79,0,0,0-1,4.24,9.64,9.64,0,0,0,.45,2.93h0a9.72,9.72,0,0,0,5.08,5.87,9.6,9.6,0,0,0,4.24,1A9.85,9.85,0,0,0,472,94.19h0a9.78,9.78,0,0,0,2.6-3.3h0a9.88,9.88,0,0,0,1-3.82,1.53,1.53,0,0,1,3,.13,12.89,12.89,0,0,1-1.27,5h0a12.84,12.84,0,0,1-2.42,3.44,9.79,9.79,0,0,0,8,4.2,10.28,10.28,0,0,0,1.82-.17,9.77,9.77,0,0,0,8-9.59v-.21h0a9.09,9.09,0,0,0-.17-1.61,9.78,9.78,0,0,0-1.41-3.51A28,28,0,0,1,488,81.49a20.71,20.71,0,0,1-2.79-4.29,7.53,7.53,0,0,1-.78-3,4.15,4.15,0,0,1,.24-1.42,3.76,3.76,0,0,1,.83-1.28h0a1.52,1.52,0,1,1,2.15,2.15.47.47,0,0,0-.12.19,1,1,0,0,0-.05.36,4.47,4.47,0,0,0,.5,1.78,14.36,14.36,0,0,0,1.44,2.4,25.83,25.83,0,0,0,3.86,4.27l.16.13.11.17a12.7,12.7,0,0,1,2,4.79h0c.05.25.08.5.12.76l.45,0a9.82,9.82,0,0,0,8.68-5.34,9.85,9.85,0,0,0,1.06-4.45,9.73,9.73,0,0,0-1-4.23,12.9,12.9,0,0,1-1.83.46,1.52,1.52,0,1,1-.51-3,9.78,9.78,0,0,0,5.31-16.49ZM438.05,43.8a13.4,13.4,0,0,1,5.47-3.74A18.13,18.13,0,0,1,450,38.87,14.15,14.15,0,0,1,455.76,40a1.52,1.52,0,0,1-1.28,2.76,11,11,0,0,0-4.51-.86,15.3,15.3,0,0,0-5.36,1,10.29,10.29,0,0,0-4.23,2.87h0a1.53,1.53,0,1,1-2.33-2Zm34.66,36a21.27,21.27,0,0,1-4.84-.54c0,.42.07.89.07,1.38a13.18,13.18,0,0,1-.42,3.32,11.74,11.74,0,0,1-1.68,3.64,1.52,1.52,0,1,1-2.5-1.73,8.57,8.57,0,0,0,1.23-2.68,9.89,9.89,0,0,0,.32-2.55,10.85,10.85,0,0,0-.28-2.46A15.75,15.75,0,0,1,462.54,77a15.44,15.44,0,0,1-5.32-5.9,14.74,14.74,0,0,1-1.39-3.9,8.79,8.79,0,0,1-.2-1.82,1.52,1.52,0,0,1,3,0,7.6,7.6,0,0,0,.34,2,12.82,12.82,0,0,0,1.17,2.77,12.35,12.35,0,0,0,5.6,5.14,16.28,16.28,0,0,0,6.93,1.4,1.52,1.52,0,1,1,0,3Zm10.72-11.12a1.52,1.52,0,0,1-2.83-1.12h0v0s0-.07.05-.13.09-.31.15-.55a8.1,8.1,0,0,0,.23-1.91v-.11a18.1,18.1,0,0,1-5.82,1A13.56,13.56,0,0,1,468.28,64a15.23,15.23,0,0,1-4.49-4.13,16,16,0,0,0-4.8-4.34,12.55,12.55,0,0,0-6.27-1.74,12.91,12.91,0,0,0-6.26,1.7,10.31,10.31,0,0,0-4.28,4.32A11.22,11.22,0,0,0,441,65a9,9,0,0,0,.74,3.81A1.53,1.53,0,0,1,439,70.09a12.17,12.17,0,0,1-1-5.12,14.55,14.55,0,0,1,1.32-6,23.64,23.64,0,0,1-5.24.62,21.07,21.07,0,0,1-2.45-.15,1.54,1.54,0,0,1-.29.57h0l0,0-.08.11a5.45,5.45,0,0,0-.33.44c-.27.39-.66,1-1.07,1.71a20.13,20.13,0,0,0-2.25,5.85,1.52,1.52,0,1,1-3-.6,22.78,22.78,0,0,1,2.58-6.75,22.1,22.1,0,0,1,1.27-2,17.73,17.73,0,0,1-3.19-1.29,13.37,13.37,0,0,1-3.14-2.22,1.52,1.52,0,0,1,2.19-2.12h0l.1.09c.09.08.23.21.43.36a11.48,11.48,0,0,0,1.83,1.18A15.72,15.72,0,0,0,434,56.5a22.79,22.79,0,0,0,8.21-1.66,13.37,13.37,0,0,1,2.79-2,15.75,15.75,0,0,1,7.72-2.07,15.57,15.57,0,0,1,7.79,2.14,18.9,18.9,0,0,1,5.73,5.18,12.16,12.16,0,0,0,3.59,3.3,10.4,10.4,0,0,0,5.39,1.44,15.05,15.05,0,0,0,5-.93A6,6,0,0,0,478,59.8a1.52,1.52,0,1,1,1.5-2.65,8.62,8.62,0,0,1,4.62,7.79A10.93,10.93,0,0,1,483.43,68.68ZM482.86,50a18.32,18.32,0,0,1-9.19-2.41,19.47,19.47,0,0,1-1.44,1.78,15.5,15.5,0,0,1-6.11,4.26,1.52,1.52,0,0,1-1-2.87,12.47,12.47,0,0,0,4.83-3.38,15.48,15.48,0,0,0,1.26-1.54,14.93,14.93,0,0,1-3.5-4.2,9.25,9.25,0,0,1-1.23-4.33,1.53,1.53,0,0,1,3.05,0,6.11,6.11,0,0,0,.85,2.87A11.78,11.78,0,0,0,473,43.42,14.91,14.91,0,0,0,482.86,47a1.53,1.53,0,0,1,0,3.05Zm12,21.44a1.52,1.52,0,0,1-2.34-1.94,9.26,9.26,0,0,0,2.27-6,9.66,9.66,0,0,0-1.38-4.92,9.15,9.15,0,0,0-3.12-3.23,4.2,4.2,0,0,0-2-.63,1.52,1.52,0,1,1,0-3,6.84,6.84,0,0,1,2.69.6,9.46,9.46,0,0,1,2.42,1.57A13,13,0,0,1,497,59a12.1,12.1,0,0,1-2.12,12.43Z"/><path class="cls-13" d="M349.07,191.34c0-.12,0-.23-.08-.35a21.48,21.48,0,0,0-7-10.88,32.94,32.94,0,0,0-13.77-6.88,40.74,40.74,0,0,0-19.55,0c-7,1.71-12.83,5.22-16.63,9.8a20.05,20.05,0,0,0-4.15,7.91h-.6c-.79,0-27.72,2.09-23.17,21.85h12.56c0-.21,0-.42,0-.64a10.1,10.1,0,0,1,.16-1.79,10.37,10.37,0,0,1,20.41,0,10,10,0,0,1,.16,1.83c0,.19,0,.39,0,.58v0h0v0h26.38c0-.21,0-.42,0-.64a10.1,10.1,0,0,1,.16-1.79,10.37,10.37,0,0,1,20.41-.05,11.14,11.14,0,0,1,.16,1.84c0,.19,0,.38,0,.57v0h0v0h10.38a2.54,2.54,0,0,0,2.54-2.52C357.36,196.82,357.56,194.4,349.07,191.34Zm-56.25-.41a15.67,15.67,0,0,1,2.83-4.88c3.21-3.86,8.23-6.79,14.13-8.24a36,36,0,0,1,15.76-.32l.49.1-5.45,13.35H292.82Zm32.89,0,4.91-12a26.56,26.56,0,0,1,8.22,4.76,17.42,17.42,0,0,1,5.07,7c0,.09.07.18.1.26h-18.3Z"/><path class="cls-13" d="M287,205.37a6.79,6.79,0,0,0-6.7,5.6,6.56,6.56,0,0,0-.11,1.18,4.49,4.49,0,0,0,0,.64,6.8,6.8,0,0,0,13.54,0c0-.21,0-.42,0-.64a6.56,6.56,0,0,0-.11-1.18A6.79,6.79,0,0,0,287,205.37Z"/><path class="cls-13" d="M334.05,205.37a6.79,6.79,0,0,0-6.7,5.6,6.56,6.56,0,0,0-.11,1.18,4.49,4.49,0,0,0,0,.64,6.8,6.8,0,0,0,13.54,0c0-.21,0-.42,0-.64a6.56,6.56,0,0,0-.11-1.18A6.8,6.8,0,0,0,334.05,205.37Z"/><circle class="cls-14" cx="729.25" cy="218.92" r="14.06"/><circle class="cls-15" cx="467.15" cy="221.28" r="14.06"/><circle class="cls-16" cx="138.37" cy="162.82" r="14.06"/><circle class="cls-17" cx="634.11" cy="88.26" r="35"/><path class="cls-4" d="M634.11,55.76a32.5,32.5,0,1,1-32.5,32.5,32.54,32.54,0,0,1,32.5-32.5m0-5a37.5,37.5,0,1,0,37.5,37.5,37.5,37.5,0,0,0-37.5-37.5Z"/><path class="cls-18" d="M645.53,112.86H623a3,3,0,0,1-3-3.59l3.5-17.48A10.91,10.91,0,0,1,634.26,83h0A10.91,10.91,0,0,1,645,91.79l3.5,17.48A3,3,0,0,1,645.53,112.86Z"/><ellipse class="cls-12" cx="634.12" cy="75.41" rx="8.78" ry="10.22"/><path class="cls-4" d="M634.12,67.69c3.47,0,6.29,3.46,6.29,7.72s-2.82,7.73-6.29,7.73-6.28-3.47-6.28-7.73,2.82-7.72,6.28-7.72m0-5c-6.23,0-11.28,5.7-11.28,12.72s5,12.73,11.28,12.73,11.29-5.7,11.29-12.73-5-12.72-11.29-12.72Z"/><circle class="cls-19" cx="292.19" cy="323.97" r="35"/><path class="cls-4" d="M292.19,291.47a32.5,32.5,0,1,1-32.5,32.5,32.54,32.54,0,0,1,32.5-32.5m0-5a37.5,37.5,0,1,0,37.5,37.5,37.5,37.5,0,0,0-37.5-37.5Z"/><path class="cls-20" d="M303.61,348.57H281.08a3,3,0,0,1-2.94-3.59l3.49-17.48a10.93,10.93,0,0,1,10.71-8.78h0a10.92,10.92,0,0,1,10.71,8.78l3.5,17.48A3,3,0,0,1,303.61,348.57Z"/><ellipse class="cls-12" cx="292.21" cy="311.13" rx="8.78" ry="10.22"/><path class="cls-4" d="M292.21,303.4c3.46,0,6.28,3.47,6.28,7.73s-2.82,7.72-6.28,7.72-6.29-3.47-6.29-7.72,2.82-7.73,6.29-7.73m0-5c-6.24,0-11.29,5.7-11.29,12.73s5.05,12.72,11.29,12.72,11.28-5.7,11.28-12.72-5.05-12.73-11.28-12.73Z"/><circle class="cls-21" cx="653.44" cy="270.07" r="35"/><path class="cls-4" d="M653.44,237.57a32.5,32.5,0,1,1-32.5,32.5,32.53,32.53,0,0,1,32.5-32.5m0-5a37.5,37.5,0,1,0,37.5,37.5,37.49,37.49,0,0,0-37.5-37.5Z"/><path class="cls-22" d="M664.86,294.67H642.32a3,3,0,0,1-2.94-3.59l3.5-17.48a10.91,10.91,0,0,1,10.71-8.78h0a10.91,10.91,0,0,1,10.71,8.78l3.5,17.48A3,3,0,0,1,664.86,294.67Z"/><ellipse class="cls-12" cx="653.45" cy="257.22" rx="8.78" ry="10.22"/><path class="cls-4" d="M653.45,249.49c3.47,0,6.29,3.47,6.29,7.73s-2.82,7.72-6.29,7.72-6.28-3.46-6.28-7.72,2.82-7.73,6.28-7.73m0-5c-6.23,0-11.28,5.7-11.28,12.73s5.05,12.72,11.28,12.72,11.29-5.69,11.29-12.72-5.06-12.73-11.29-12.73Z"/><circle class="cls-23" cx="685.88" cy="193.74" r="14.06"/><circle class="cls-24" cx="93.75" cy="302.88" r="91.75"/><path class="cls-4" d="M93.75,213.13A89.75,89.75,0,1,1,4,302.88a89.85,89.85,0,0,1,89.75-89.75m0-4a93.75,93.75,0,1,0,93.75,93.75,93.75,93.75,0,0,0-93.75-93.75Z"/><circle class="cls-25" cx="873.83" cy="302.88" r="91.25"/><path class="cls-4" d="M873.83,214.13a88.75,88.75,0,1,1-88.75,88.75,88.85,88.85,0,0,1,88.75-88.75m0-5a93.75,93.75,0,1,0,93.75,93.75,93.75,93.75,0,0,0-93.75-93.75Z"/><rect class="cls-26" x="799.33" y="261.19" width="149" height="83.38"/><path class="cls-4" d="M947.83,261.69v82.38h-148V261.69h148m1-1h-150v84.38h150V260.69Z"/><rect class="cls-27" x="808.7" y="270.57" width="130.25" height="64.63"/><path class="cls-4" d="M938.45,271.07v63.62H809.2V271.07H938.45m1-1H808.2v65.62H939.45V270.07Z"/><polygon class="cls-28" points="830.78 367.5 844.24 345.07 903.41 345.07 916.87 367.5 830.78 367.5"/><path class="cls-4" d="M903.13,345.57,916,367H831.66l12.86-21.43h58.61m.57-1H844L829.9,368h87.85l-14-23.43Z"/><circle class="cls-29" cx="48.8" cy="136.54" r="35"/><path class="cls-4" d="M48.8,104a32.5,32.5,0,1,1-32.5,32.5A32.54,32.54,0,0,1,48.8,104m0-5a37.5,37.5,0,1,0,37.5,37.5A37.5,37.5,0,0,0,48.8,99Z"/><path class="cls-30" d="M60.21,161.14H37.68a3,3,0,0,1-2.94-3.59l3.5-17.48A10.92,10.92,0,0,1,49,131.29h0a10.93,10.93,0,0,1,10.71,8.78l3.49,17.48A3,3,0,0,1,60.21,161.14Z"/><path class="cls-12" d="M48.81,133.92C44,133.92,40,129.33,40,123.7s3.94-10.23,8.78-10.23,8.78,4.59,8.78,10.23S53.65,133.92,48.81,133.92Z"/><path class="cls-4" d="M48.81,116c3.46,0,6.28,3.47,6.28,7.72s-2.82,7.73-6.28,7.73-6.28-3.47-6.28-7.73S45.34,116,48.81,116m0-5c-6.23,0-11.28,5.7-11.28,12.72s5,12.73,11.28,12.73,11.28-5.7,11.28-12.73S55,111,48.81,111Z"/><path class="cls-31" d="M93.7,265c5.14-16.53,17.93-24.48,32.27-24.48,17.14,0,30.24,14.34,30.24,31.65,0,20.88-11.38,36.31-23.07,50.5-11.23,13.56-33.67,37.25-39.44,43h-.31c-5.77-5.77-28.06-29.46-39.28-43C42.42,308.51,31,293.08,31,272.2c0-17.62,13.56-31.65,30.39-31.65,14.19,0,26.81,7.95,32,24.48Z"/><circle class="cls-32" cx="544.38" cy="223.34" r="35"/><path class="cls-4" d="M544.38,190.84a32.5,32.5,0,1,1-32.5,32.5,32.54,32.54,0,0,1,32.5-32.5m0-5a37.5,37.5,0,1,0,37.5,37.5,37.5,37.5,0,0,0-37.5-37.5Z"/><path class="cls-33" d="M555.79,247.94H533.26a3,3,0,0,1-2.94-3.58l3.5-17.48a10.92,10.92,0,0,1,10.71-8.79h0a10.93,10.93,0,0,1,10.71,8.79l3.5,17.48A3,3,0,0,1,555.79,247.94Z"/><path class="cls-12" d="M544.39,220.72c-4.84,0-8.78-4.58-8.78-10.22s3.94-10.23,8.78-10.23,8.78,4.59,8.78,10.23S549.23,220.72,544.39,220.72Z"/><path class="cls-4" d="M544.39,202.77c3.47,0,6.28,3.47,6.28,7.73s-2.81,7.72-6.28,7.72-6.28-3.46-6.28-7.72,2.82-7.73,6.28-7.73m0-5c-6.23,0-11.28,5.7-11.28,12.73s5,12.72,11.28,12.72,11.28-5.69,11.28-12.72-5-12.73-11.28-12.73Z"/><circle class="cls-34" cx="600.73" cy="144.29" r="14.06"/></g></g></svg>